<?xml version="1.0" encoding="UTF-8" standalone="no"?>
<!-- Created with Inkscape (http://www.inkscape.org/) -->
<svg
   xmlns:dc="http://purl.org/dc/elements/1.1/"
   xmlns:cc="http://creativecommons.org/ns#"
   xmlns:rdf="http://www.w3.org/1999/02/22-rdf-syntax-ns#"
   xmlns:svg="http://www.w3.org/2000/svg"
   xmlns="http://www.w3.org/2000/svg"
   xmlns:sodipodi="http://sodipodi.sourceforge.net/DTD/sodipodi-0.dtd"
   xmlns:inkscape="http://www.inkscape.org/namespaces/inkscape"
   width="1488.189"
   height="1062.9921"
   id="svg2"
   sodipodi:version="0.32"
   inkscape:version="0.46"
   version="1.0"
   sodipodi:docname="motor.svg"
   inkscape:output_extension="org.inkscape.output.svg.inkscape">
  <defs
     id="defs4">
    <inkscape:perspective
       sodipodi:type="inkscape:persp3d"
       inkscape:vp_x="0 : 526.18109 : 1"
       inkscape:vp_y="0 : 1000 : 0"
       inkscape:vp_z="744.09448 : 526.18109 : 1"
       inkscape:persp3d-origin="372.04724 : 350.78739 : 1"
       id="perspective10" />
  </defs>
  <sodipodi:namedview
     id="base"
     pagecolor="#ffffff"
     bordercolor="#666666"
     borderopacity="1.0"
     gridtolerance="10000"
     guidetolerance="10000"
     objecttolerance="10000"
     inkscape:pageopacity="0.0"
     inkscape:pageshadow="2"
     inkscape:zoom="1.979899"
     inkscape:cx="102.63565"
     inkscape:cy="206.55824"
     inkscape:document-units="mm"
     inkscape:current-layer="layer1"
     showgrid="true"
     width="1052.36px"
     units="mm"
     inkscape:snap-guide="false"
     inkscape:snap-bbox="true"
     inkscape:object-paths="true"
     inkscape:object-nodes="true"
     inkscape:bbox-paths="true"
     inkscape:bbox-nodes="true"
     inkscape:snap-center="true"
     inkscape:snap-intersection-line-segments="true"
     showguides="true"
     inkscape:guide-bbox="true"
     inkscape:snap-intersection-grid-guide="false"
     inkscape:window-width="1280"
     inkscape:window-height="727"
     inkscape:window-x="0"
     inkscape:window-y="25">
    <inkscape:grid
       type="xygrid"
       id="grid2383"
       visible="true"
       enabled="true"
       units="mm"
       spacingx="1mm"
       spacingy="1mm"
       color="#c22132"
       opacity="0.1254902"
       empspacing="4"
       empcolor="#23f123"
       empopacity="0.43921569" />
    <sodipodi:guide
       orientation="1,0"
       position="177.1555,728.76193"
       id="guide2385" />
    <sodipodi:guide
       orientation="0,1"
       position="169.35839,708.65358"
       id="guide2387" />
    <sodipodi:guide
       orientation="0,1"
       position="195.17857,878.72768"
       id="guide2389" />
    <sodipodi:guide
       orientation="0,1"
       position="202.97753,892.91172"
       id="guide2391" />
    <sodipodi:guide
       orientation="0,1"
       position="207.46008,694.47988"
       id="guide2393" />
    <sodipodi:guide
       orientation="1,0"
       position="106.31856,820.1176"
       id="guide2395" />
    <sodipodi:guide
       orientation="1,0"
       position="141.80016,819.67566"
       id="guide2397" />
    <sodipodi:guide
       orientation="1,0"
       position="194.97768,302.76786"
       id="guide2401" />
    <sodipodi:guide
       orientation="1,0"
       position="531.49808,811.49974"
       id="guide2403" />
    <sodipodi:guide
       orientation="1,0"
       position="545.67178,810.58429"
       id="guide2405" />
    <sodipodi:guide
       orientation="1,0"
       position="581.09025,810.30018"
       id="guide2407" />
    <sodipodi:guide
       orientation="1,0"
       position="616.54029,809.98451"
       id="guide2409" />
    <sodipodi:guide
       orientation="1,0"
       position="956.69338,799.55153"
       id="guide2413" />
    <sodipodi:guide
       orientation="1,0"
       position="970.88287,773.20864"
       id="guide2415" />
    <sodipodi:guide
       orientation="1,0"
       position="1027.5446,780.98215"
       id="guide2417" />
    <sodipodi:guide
       orientation="1,0"
       position="1084.252,779.375"
       id="guide2419" />
    <sodipodi:guide
       orientation="1,0"
       position="1098.4375,783.34822"
       id="guide2421" />
    <sodipodi:guide
       orientation="0,1"
       position="144.15179,843.30357"
       id="guide2423" />
    <sodipodi:guide
       orientation="0,1"
       position="145.9375,807.85715"
       id="guide2425" />
    <sodipodi:guide
       orientation="0,1"
       position="144.30804,772.45536"
       id="guide2427" />
    <sodipodi:guide
       orientation="0,1"
       position="144.16295,737.02009"
       id="guide2429" />
    <sodipodi:guide
       orientation="0,1"
       position="30.491072,680.3125"
       id="guide2431" />
    <sodipodi:guide
       orientation="0,1"
       position="34.151786,623.61607"
       id="guide2433" />
    <sodipodi:guide
       orientation="0,1"
       position="28.571429,552.76786"
       id="guide2435" />
    <sodipodi:guide
       orientation="0,1"
       position="31.651786,566.91964"
       id="guide2437" />
    <sodipodi:guide
       orientation="1,0"
       position="262.2135,589.92909"
       id="guide2441" />
    <sodipodi:guide
       orientation="1,0"
       position="333.05804,601.78572"
       id="guide2443" />
    <sodipodi:guide
       orientation="1,0"
       position="403.95089,610.46875"
       id="guide2445" />
    <sodipodi:guide
       orientation="1,0"
       position="474.80327,607.49627"
       id="guide2447" />
    <sodipodi:guide
       orientation="1,0"
       position="673.22835,844.4244"
       id="guide2612" />
    <sodipodi:guide
       orientation="1,0"
       position="751.1811,838.99483"
       id="guide2614" />
    <sodipodi:guide
       orientation="1,0"
       position="786.61417,830.59793"
       id="guide2616" />
    <sodipodi:guide
       orientation="1,0"
       position="836.22047,821.38029"
       id="guide2618" />
    <sodipodi:guide
       orientation="1,0"
       position="875.19685,815.12997"
       id="guide2620" />
    <sodipodi:guide
       orientation="1,0"
       position="903.54331,814.37236"
       id="guide2622" />
    <sodipodi:guide
       orientation="0,1"
       position="653.63183,832.67717"
       id="guide2624" />
    <sodipodi:guide
       orientation="1,0"
       position="708.66142,847.26545"
       id="guide2630" />
    <sodipodi:guide
       orientation="0,1"
       position="653.82124,811.41732"
       id="guide2632" />
    <sodipodi:guide
       orientation="0,1"
       position="663.67022,659.05512"
       id="guide2636" />
    <sodipodi:guide
       orientation="0,1"
       position="585.13086,588.18898"
       id="guide2638" />
    <sodipodi:guide
       orientation="0,1"
       position="692.32143,751.1811"
       id="guide2649" />
    <sodipodi:guide
       orientation="1,0"
       position="659.05512,740.98214"
       id="guide2651" />
    <sodipodi:guide
       orientation="1,0"
       position="715.74803,725"
       id="guide2653" />
    <sodipodi:guide
       orientation="1,0"
       position="740.55118,713.66072"
       id="guide2655" />
    <sodipodi:guide
       orientation="1,0"
       position="797.24409,722.76786"
       id="guide2657" />
    <sodipodi:guide
       orientation="1,0"
       position="836.22047,723.21429"
       id="guide2659" />
    <sodipodi:guide
       orientation="1,0"
       position="892.91339,718.03572"
       id="guide2661" />
    <sodipodi:guide
       orientation="-0.70710678,0.70710678"
       position="747.6378,790.15748"
       id="guide2686" />
    <sodipodi:guide
       orientation="0.70710678,0.70710678"
       position="747.6378,790.15748"
       id="guide2688" />
    <sodipodi:guide
       orientation="-0.70710678,0.70710678"
       position="779.52756,804.33071"
       id="guide2700" />
    <sodipodi:guide
       orientation="0.70710678,0.70710678"
       position="779.52756,804.33071"
       id="guide2702" />
    <sodipodi:guide
       orientation="1,0"
       position="1048.8189,825.04209"
       id="guide2709" />
    <sodipodi:guide
       orientation="1,0"
       position="1006.2992,846.76037"
       id="guide2711" />
  </sodipodi:namedview>
  <metadata
     id="metadata7">
    <rdf:RDF>
      <cc:Work
         rdf:about="">
        <dc:format>image/svg+xml</dc:format>
        <dc:type
           rdf:resource="http://purl.org/dc/dcmitype/StillImage" />
      </cc:Work>
    </rdf:RDF>
  </metadata>
  <g
     inkscape:label="Layer 1"
     inkscape:groupmode="layer"
     id="layer1"
     style="display:inline">
    <path
       style="fill:none;fill-rule:evenodd;stroke:#000000;stroke-width:1px;stroke-linecap:butt;stroke-linejoin:miter;stroke-opacity:1"
       d="M 21.27635,506.69084 L 177.17129,506.69084 L 177.17129,520.87488 L 248.02866,520.8624 L 248.01583,506.69084 L 318.90868,506.69084 L 318.8948,520.8624 L 389.76106,520.87488 L 389.76106,506.69084 L 531.49808,506.69084 L 531.49322,705.11437 L 389.76094,705.11437 L 389.76094,690.94114 L 318.8948,690.94114 L 318.8948,705.11437 L 248.02866,705.11437 L 248.02866,690.94114 L 177.16251,690.94114 L 177.16251,705.11437 L 21.27635,705.12268 L 21.27635,506.69084 z"
       id="path2449" />
    <path
       style="fill:none;fill-rule:evenodd;stroke:#000000;stroke-width:1px;stroke-linecap:butt;stroke-linejoin:miter;stroke-opacity:1"
       d="M 92.11329,556.29899 L 106.29708,556.29899 L 106.29708,591.74541 L 92.12314,591.72854 L 92.11329,556.29899 z"
       id="path2451" />
    <path
       style="fill:none;fill-rule:evenodd;stroke:#000000;stroke-width:1px;stroke-linecap:butt;stroke-linejoin:miter;stroke-opacity:1"
       d="M 92.12314,627.16161 L 106.29708,627.1472 L 106.29708,662.58247 L 92.11329,662.58247 L 92.12314,627.16161 z"
       id="path2453" />
    <path
       style="fill:none;fill-rule:evenodd;stroke:#000000;stroke-width:1px;stroke-linecap:butt;stroke-linejoin:miter;stroke-opacity:1"
       d="M 446.45385,556.29547 L 460.62957,556.29899 L 460.62957,591.74541 L 446.45385,591.72854 L 446.45385,556.29547 z"
       id="path2455" />
    <path
       style="fill:none;fill-rule:evenodd;stroke:#000000;stroke-width:1px;stroke-linecap:butt;stroke-linejoin:miter;stroke-opacity:1"
       d="M 446.45385,627.16161 L 460.62957,627.1472 L 460.62708,662.59468 L 446.45587,662.58247 L 446.45385,627.16161 z"
       id="path2457" />
    <path
       sodipodi:type="arc"
       style="fill:#ffffff;stroke:#000000"
       id="path2459"
       sodipodi:cx="538.5827"
       sodipodi:cy="177.1653"
       sodipodi:rx="7.0866141"
       sodipodi:ry="7.0866141"
       d="M 545.66932,177.1653 A 7.0866141,7.0866141 0 1 1 531.49609,177.1653 A 7.0866141,7.0866141 0 1 1 545.66932,177.1653 z"
       transform="translate(-42.534663,379.13369)" />
    <path
       sodipodi:type="arc"
       style="fill:#ffffff;stroke:#000000"
       id="path2461"
       sodipodi:cx="538.5827"
       sodipodi:cy="177.1653"
       sodipodi:rx="7.0866141"
       sodipodi:ry="7.0866141"
       d="M 545.66932,177.1653 A 7.0866141,7.0866141 0 1 1 531.49609,177.1653 A 7.0866141,7.0866141 0 1 1 545.66932,177.1653 z"
       transform="translate(-42.534663,485.41717)" />
    <path
       sodipodi:type="arc"
       style="fill:#ffffff;stroke:#000000"
       id="path2463"
       sodipodi:cx="538.5827"
       sodipodi:cy="177.1653"
       sodipodi:rx="7.0866141"
       sodipodi:ry="7.0866141"
       d="M 545.66932,177.1653 A 7.0866141,7.0866141 0 1 1 531.49609,177.1653 A 7.0866141,7.0866141 0 1 1 545.66932,177.1653 z"
       transform="translate(-481.82475,485.41717)" />
    <path
       sodipodi:type="arc"
       style="fill:#ffffff;stroke:#000000"
       id="path2465"
       sodipodi:cx="538.5827"
       sodipodi:cy="177.1653"
       sodipodi:rx="7.0866141"
       sodipodi:ry="7.0866141"
       d="M 545.66932,177.1653 A 7.0866141,7.0866141 0 1 1 531.49609,177.1653 A 7.0866141,7.0866141 0 1 1 545.66932,177.1653 z"
       transform="translate(-481.89263,379.13017)" />
    <path
       style="fill:none;fill-rule:evenodd;stroke:#000000;stroke-width:1px;stroke-linecap:butt;stroke-linejoin:miter;stroke-opacity:1"
       d="M 92.125,885.65625 L 92.125,899.96875 L 21.25,899.96875 L 21.25,914.1875 L 7.09375,914.1875 L 7.09375,928.34375 L 21.25,928.34375 L 21.25,956.65625 L 70.875,956.65625 L 70.875,921.21875 L 148.84375,921.21875 L 148.84375,956.65625 L 184.28125,956.65625 L 184.28125,921.21875 L 233.875,921.21875 L 233.875,956.65625 L 272.84375,956.65625 L 272.84375,921.21875 L 301.1875,921.21875 L 301.1875,956.65625 L 361.40625,956.65625 L 361.40625,928.34375 L 375.59375,928.34375 L 375.59375,914.1875 L 361.40625,914.1875 L 361.40625,899.96875 L 304.71875,899.96875 L 304.71875,885.8125 L 233.875,885.8125 L 233.875,899.96875 L 163,899.96875 L 163,885.8125 L 92.125,885.65625 z"
       id="path2467" />
    <path
       style="fill:none;fill-rule:evenodd;stroke:#000000;stroke-width:1px;stroke-linecap:butt;stroke-linejoin:miter;stroke-opacity:1"
       d="M 21.25,960.21875 L 21.25,988.59375 L 7.09375,988.59375 L 7.09375,1002.75 L 21.25,1002.75 L 21.25,1016.9375 L 92.125,1016.9375 L 92.125,1031.0938 L 163,1031.0938 L 163,1016.9062 L 233.875,1016.9062 L 233.875,1031.0938 L 304.71875,1031.0938 L 304.71875,1016.9062 L 361.40625,1016.9062 L 361.40625,1002.75 L 375.59375,1002.75 L 375.59375,988.59375 L 361.40625,988.59375 L 361.40625,960.21875 L 290.5625,960.21875 L 290.5625,995.65625 L 233.875,995.65625 L 233.875,960.21875 L 194.90625,960.21875 L 194.90625,995.65625 L 138.21875,995.65625 L 138.21875,960.21875 L 113.40625,960.21875 L 113.40625,995.65625 L 106.3125,995.65625 L 56.71875,995.65625 L 56.71875,960.21875 L 21.25,960.21875 z"
       id="path2469" />
    <path
       style="fill:none;fill-rule:evenodd;stroke:#000000;stroke-width:1px;stroke-linecap:butt;stroke-linejoin:miter;stroke-opacity:1"
       d="M 21.2415,708.65423 L 21.2415,878.74798 L 60.23622,878.7401 L 60.23622,832.6771 L 124.01575,832.6771 L 124.01575,878.7401 L 141.73228,878.7401 L 141.73228,832.6771 L 205.51181,832.6771 L 205.51181,878.7401 L 237.40157,878.7401 L 237.40157,832.6771 L 301.1811,832.6771 L 301.1811,878.7401 L 361.39775,878.74798 L 361.39775,850.37298 L 375.58525,850.37298 L 375.58525,836.21673 L 361.39775,836.21673 L 361.39775,758.24798 L 375.58525,758.24798 L 375.58525,744.09173 L 361.39775,744.09173 L 361.39775,708.65423 L 340.14775,708.65423 L 340.14775,729.90423 L 311.81102,729.9212 L 311.81102,758.26766 L 276.37795,758.26766 L 276.37795,737.00781 L 244.48819,737.00781 L 244.48819,758.26766 L 187.79528,758.26766 L 187.79528,729.9212 L 173.6165,729.90423 L 173.6165,761.81048 L 159.44882,761.81096 L 159.44882,779.5275 L 109.84252,779.5275 L 109.84252,754.72435 L 77.929,754.71673 L 77.929,708.65423 L 21.2415,708.65423 z"
       id="path2595"
       sodipodi:nodetypes="ccccccccccccccccccccccccccccccccccccccccccc" />
    <path
       sodipodi:type="arc"
       style="fill:#ffffff;stroke:#000000"
       id="path2684"
       sodipodi:cx="1342.9133"
       sodipodi:cy="60.23616"
       sodipodi:rx="10.629921"
       sodipodi:ry="10.629921"
       d="M 1353.5433,60.23616 A 10.629921,10.629921 0 1 1 1332.2834,60.23616 A 10.629921,10.629921 0 1 1 1353.5433,60.23616 z"
       transform="translate(-1190.5653,737.00266)" />
    <path
       style="fill:none;fill-rule:evenodd;stroke:#000000;stroke-width:1px;stroke-linecap:butt;stroke-linejoin:miter;stroke-opacity:1"
       d="M 201.95442,783.06559 L 240.93072,783.06559 L 240.93072,768.89236 L 201.95442,768.89236 L 201.95442,783.06559 z"
       id="path2690" />
    <path
       sodipodi:type="arc"
       style="fill:#ffffff;stroke:#000000"
       id="path2698"
       sodipodi:cx="774.21259"
       sodipodi:cy="76.181046"
       sodipodi:rx="8.8582678"
       sodipodi:ry="8.8582678"
       d="M 783.07085,76.181046 A 8.8582678,8.8582678 0 1 1 765.35432,76.181046 A 8.8582678,8.8582678 0 1 1 783.07085,76.181046 z"
       transform="translate(-589.97478,706.88454)" />
    <path
       style="fill:none;fill-rule:evenodd;stroke:#000000;stroke-width:1px;stroke-linecap:butt;stroke-linejoin:miter;stroke-opacity:1;display:inline"
       d="M 382.65625,733.4375 L 382.65625,783.0625 L 368.5,783.0625 L 368.5,818.5 L 382.6875,818.5 L 382.6875,853.90625 L 368.5,853.90625 L 368.5,889.34375 L 382.65625,889.34375 L 382.6875,931.875 L 395.90625,931.875 L 396.84375,931.875 L 396.84375,917.71875 L 411.03125,917.71875 L 411.03125,931.875 L 439.34375,931.875 L 439.34375,733.4375 L 411.03125,733.4375 L 411.03125,747.625 L 396.84375,747.625 L 396.84375,733.4375 L 382.65625,733.4375 z"
       id="path2597" />
    <rect
       style="fill:#ffffff;stroke:#000000;display:inline"
       id="rect2717"
       width="17.716536"
       height="14.173228"
       x="400.37701"
       y="783.05396" />
    <path
       style="fill:none;fill-rule:evenodd;stroke:#000000;stroke-width:1px;stroke-linecap:butt;stroke-linejoin:miter;stroke-opacity:1;display:inline"
       d="M 382.67717,793.70073 L 382.67717,807.87396 L 389.76378,807.87396 L 389.76378,793.70073 L 382.67717,793.70073 z"
       id="path2458" />
    <path
       style="fill:none;fill-rule:evenodd;stroke:#000000;stroke-width:1px;stroke-linecap:butt;stroke-linejoin:miter;stroke-opacity:1;display:inline"
       d="M 382.67717,864.56687 L 382.67717,878.7401 L 389.76378,878.7401 L 389.76378,864.56687 L 382.67717,864.56687 z"
       id="path2460" />
    <rect
       style="fill:#ffffff;stroke:#000000;display:inline"
       id="rect2719"
       width="17.716536"
       height="14.173228"
       x="400.37701"
       y="875.17993" />
    <rect
       style="fill:#ffffff;stroke:#000000;display:inline"
       id="rect2713"
       width="10.629921"
       height="7.0866141"
       x="453.54047"
       y="786.61041" />
    <rect
       style="fill:#ffffff;stroke:#000000;display:inline"
       id="rect2715"
       width="10.629921"
       height="7.0866141"
       x="453.54047"
       y="829.13013" />
    <path
       style="fill:none;fill-rule:evenodd;stroke:#000000;stroke-width:1px;stroke-linecap:butt;stroke-linejoin:miter;stroke-opacity:1;display:inline"
       d="M 499.6063,839.76372 L 499.6063,853.93695 L 492.51969,853.93695 L 492.51969,839.76372 L 499.6063,839.76372 z"
       id="path2462" />
    <path
       style="fill:none;fill-rule:evenodd;stroke:#000000;stroke-width:1px;stroke-linecap:butt;stroke-linejoin:miter;stroke-opacity:1;display:inline"
       d="M 499.6063,768.89758 L 499.6063,783.07081 L 492.51969,783.07081 L 492.51969,768.89758 L 499.6063,768.89758 z"
       id="path2464" />
    <path
       style="fill:none;fill-rule:evenodd;stroke:#000000;stroke-width:1px;stroke-linecap:butt;stroke-linejoin:miter;stroke-opacity:1;display:inline"
       d="M 442.90625,708.65625 L 442.90625,907.09375 L 471.25,907.09375 L 471.25,892.90625 L 485.4375,892.90625 L 485.4375,907.09375 L 499.59375,907.09375 L 499.59375,864.5625 L 513.78125,864.5625 L 513.78125,829.125 L 499.59375,829.125 L 499.59375,793.6875 L 513.78125,793.71875 L 513.78125,758.28125 L 499.59375,758.28125 L 499.59375,708.65625 L 485.4375,708.65625 L 485.4375,722.84375 L 471.25,722.84375 L 471.25,708.65625 L 442.90625,708.65625 z"
       id="path2599" />
  </g>
  <g
     inkscape:groupmode="layer"
     id="layer2"
     inkscape:label="text"
     style="display:inline">
    <text
       xml:space="preserve"
       style="font-size:40px;font-style:normal;font-variant:normal;font-weight:normal;font-stretch:normal;fill:#000000;fill-opacity:1;stroke:none;stroke-width:1px;stroke-linecap:butt;stroke-linejoin:miter;stroke-opacity:1;font-family:Sans;-inkscape-font-specification:Sans"
       x="656.78571"
       y="289.42065"
       id="text2705"><tspan
         sodipodi:role="line"
         id="tspan2707"
         x="656.78571"
         y="289.42065" /></text>
    <path
       style="fill:none;fill-rule:evenodd;stroke:#000000;stroke-width:1px;stroke-linecap:butt;stroke-linejoin:miter;stroke-opacity:1;display:inline"
       d="M 281.69291,814.96058 L 281.69291,829.1338"
       id="path4016" />
    <path
       style="fill:none;fill-rule:evenodd;stroke:#000000;stroke-width:1px;stroke-linecap:butt;stroke-linejoin:miter;stroke-opacity:1;display:inline"
       d="M 274.60628,814.96057 L 288.77952,814.96057"
       id="path4018" />
    <path
       sodipodi:type="arc"
       style="fill:none;fill-opacity:1;stroke:#000000;stroke-opacity:1;display:inline"
       id="path4020"
       sodipodi:cx="760.03937"
       sodipodi:cy="205.51175"
       sodipodi:rx="5.3149605"
       sodipodi:ry="7.0866141"
       d="M 765.35433,205.51175 A 5.3149605,7.0866141 0 1 1 754.72441,205.51175 A 5.3149605,7.0866141 0 1 1 765.35433,205.51175 z"
       transform="translate(-492.51969,616.53544)" />
    <path
       style="fill:none;fill-rule:evenodd;stroke:#000000;stroke-width:1px;stroke-linecap:butt;stroke-linejoin:miter;stroke-opacity:1;display:inline"
       d="M 242.71652,829.1338 L 242.71652,814.96057 L 249.80315,822.04719 L 256.88975,814.96057 L 256.88975,829.1338"
       id="path4022" />
    <path
       sodipodi:type="arc"
       style="fill:none;fill-opacity:1;stroke:#000000;stroke-opacity:1;display:inline"
       id="path4040"
       sodipodi:cx="760.03937"
       sodipodi:cy="205.51175"
       sodipodi:rx="5.3149605"
       sodipodi:ry="7.0866141"
       d="M 765.35433,205.51175 A 5.3149605,7.0866141 0 1 1 754.72441,205.51175 A 5.3149605,7.0866141 0 1 1 765.35433,205.51175 z"
       transform="translate(-464.17323,616.53544)" />
    <path
       style="fill:none;fill-rule:evenodd;stroke:#000000;stroke-width:1px;stroke-linecap:butt;stroke-linejoin:miter;stroke-opacity:1"
       d="M 290.55117,829.1338 L 301.1811,814.96057 L 301.1811,814.96057"
       id="path4042" />
    <path
       style="fill:none;fill-rule:evenodd;stroke:#000000;stroke-width:1px;stroke-linecap:butt;stroke-linejoin:miter;stroke-opacity:1;display:inline"
       d="M 99.212598,814.96057 L 99.212598,829.13379"
       id="path4044" />
    <path
       style="fill:none;fill-rule:evenodd;stroke:#000000;stroke-width:1px;stroke-linecap:butt;stroke-linejoin:miter;stroke-opacity:1;display:inline"
       d="M 92.125968,814.96056 L 106.29921,814.96056"
       id="path4046" />
    <path
       sodipodi:type="arc"
       style="fill:none;fill-opacity:1;stroke:#000000;stroke-opacity:1;display:inline"
       id="path4048"
       sodipodi:cx="760.03937"
       sodipodi:cy="205.51175"
       sodipodi:rx="5.3149605"
       sodipodi:ry="7.0866141"
       d="M 765.35433,205.51175 A 5.3149605,7.0866141 0 1 1 754.72441,205.51175 A 5.3149605,7.0866141 0 1 1 765.35433,205.51175 z"
       transform="translate(-675,616.53543)" />
    <path
       style="fill:none;fill-rule:evenodd;stroke:#000000;stroke-width:1px;stroke-linecap:butt;stroke-linejoin:miter;stroke-opacity:1;display:inline"
       d="M 60.236208,829.13379 L 60.236208,814.96056 L 67.322838,822.04718 L 74.409438,814.96056 L 74.409438,829.13379"
       id="path4050" />
    <path
       style="fill:none;fill-rule:evenodd;stroke:#000000;stroke-width:1px;stroke-linecap:butt;stroke-linejoin:miter;stroke-opacity:1"
       d="M 109.84252,818.50388 L 113.38583,814.96057 L 113.38583,829.1338"
       id="path4056" />
    <path
       style="fill:none;fill-rule:evenodd;stroke:#000000;stroke-width:1px;stroke-linecap:butt;stroke-linejoin:miter;stroke-opacity:1"
       d="M 109.84252,829.1338 L 116.92913,829.1338"
       id="path4058" />
    <path
       style="fill:none;fill-rule:evenodd;stroke:#000000;stroke-width:1px;stroke-linecap:butt;stroke-linejoin:miter;stroke-opacity:1;display:inline"
       d="M 152.36291,814.95986 C 141.73299,814.95986 145.2763,822.04648 148.81961,822.04648 C 152.36291,822.04648 159.44953,829.13309 145.2763,829.13309"
       id="path4072"
       sodipodi:nodetypes="ccc" />
    <path
       style="fill:none;fill-rule:evenodd;stroke:#000000;stroke-width:1px;stroke-linecap:butt;stroke-linejoin:miter;stroke-opacity:1;display:inline"
       d="M 155.90622,814.95986 L 155.90622,825.58979 C 155.90622,829.13309 155.90622,829.13309 159.44952,829.13309 C 162.99283,829.13309 162.99283,829.1331 162.99283,825.58979 L 162.99283,814.95986"
       id="path4074"
       sodipodi:nodetypes="ccccc" />
    <path
       style="fill:none;fill-rule:evenodd;stroke:#000000;stroke-width:1px;stroke-linecap:butt;stroke-linejoin:miter;stroke-opacity:1;display:inline"
       d="M 166.53614,829.13308 L 166.53614,814.95986 C 173.62276,814.95986 173.62276,822.04647 166.53614,822.04647"
       id="path4076"
       sodipodi:nodetypes="ccc" />
    <path
       style="fill:none;fill-rule:evenodd;stroke:#000000;stroke-width:1px;stroke-linecap:butt;stroke-linejoin:miter;stroke-opacity:1;display:inline"
       d="M 180.70938,814.95986 L 180.70938,829.13309 L 187.79599,829.13309"
       id="path4082" />
    <path
       style="fill:none;fill-rule:evenodd;stroke:#000000;stroke-width:1px;stroke-linecap:butt;stroke-linejoin:miter;stroke-opacity:1;display:inline"
       d="M 173.62276,829.13309 L 173.62276,814.95987 C 180.70938,814.95987 180.70938,822.04648 173.62276,822.04648"
       id="path4086"
       sodipodi:nodetypes="ccc" />
    <path
       style="fill:none;fill-rule:evenodd;stroke:#000000;stroke-width:1px;stroke-linecap:butt;stroke-linejoin:miter;stroke-opacity:1"
       d="M 198.42591,814.95987 L 191.33929,829.1331"
       id="path4100" />
    <path
       style="fill:none;fill-rule:evenodd;stroke:#000000;stroke-width:1px;stroke-linecap:butt;stroke-linejoin:miter;stroke-opacity:1"
       d="M 191.33929,814.95987 L 194.8826,822.04649"
       id="path4102" />
    <path
       style="fill:none;fill-rule:evenodd;stroke:#000000;stroke-width:1px;stroke-linecap:butt;stroke-linejoin:miter;stroke-opacity:1;display:inline"
       d="M 93.940803,772.44089 C 97.830703,772.24963 101.27705,772.11183 101.02742,765.35428 C 100.77779,758.59673 97.484113,758.26766 93.940803,758.26766 C 90.397493,758.26766 90.397493,761.81097 90.397493,761.81097 C 90.397493,761.81097 89.368653,765.35359 93.940803,765.35428 L 93.940803,765.35428 L 93.940803,765.35428"
       id="path4104"
       sodipodi:nodetypes="czzzccc" />
    <path
       style="fill:none;fill-rule:evenodd;stroke:#000000;stroke-width:1px;stroke-linecap:butt;stroke-linejoin:miter;stroke-opacity:1;display:inline"
       d="M 88.582683,758.26766 L 88.582683,772.44089 L 81.496073,758.26766 L 81.496073,772.44089"
       id="path4106" />
    <path
       style="fill:none;fill-rule:evenodd;stroke:#000000;stroke-width:1px;stroke-linecap:butt;stroke-linejoin:miter;stroke-opacity:1;display:inline"
       d="M 77.952763,758.26766 L 77.952763,772.44089 C 70.866143,772.44089 70.866143,758.26766 77.952763,758.26766 z"
       id="path4108"
       sodipodi:nodetypes="ccc" />
    <path
       style="fill:none;fill-rule:evenodd;stroke:#000000;stroke-width:1px;stroke-linecap:butt;stroke-linejoin:miter;stroke-opacity:1;display:inline"
       d="M 127.05905,780.0275 L 127.05905,794.20072 C 119.97243,794.20072 119.97243,787.11411 127.05905,787.11411"
       id="path4110"
       sodipodi:nodetypes="ccc" />
    <path
       style="fill:none;fill-rule:evenodd;stroke:#000000;stroke-width:1px;stroke-linecap:butt;stroke-linejoin:miter;stroke-opacity:1;display:inline"
       d="M 119.47245,794.70072 L 119.47245,780.52749 C 112.38583,780.52749 112.38583,787.6141 119.47245,787.6141 C 112.38583,787.6141 112.38583,794.70072 119.47245,794.70072 z"
       id="path4112"
       sodipodi:nodetypes="cccc" />
    <path
       style="fill:none;fill-rule:evenodd;stroke:#000000;stroke-width:1px;stroke-linecap:butt;stroke-linejoin:miter;stroke-opacity:1;display:inline"
       d="M 248.49198,765.35425 L 248.49198,751.18102"
       id="path4116" />
    <path
       style="fill:none;fill-rule:evenodd;stroke:#000000;stroke-width:1px;stroke-linecap:butt;stroke-linejoin:miter;stroke-opacity:1;display:inline"
       d="M 255.11812,751.18104 L 248.0315,751.18104"
       id="path4118" />
    <path
       style="fill:none;fill-rule:evenodd;stroke:#000000;stroke-width:1px;stroke-linecap:butt;stroke-linejoin:miter;stroke-opacity:1;display:inline"
       d="M 251.57481,758.26766 L 248.0315,758.26766"
       id="path4120" />
    <path
       style="fill:none;fill-rule:evenodd;stroke:#000000;stroke-width:1px;stroke-linecap:butt;stroke-linejoin:miter;stroke-opacity:1;display:inline"
       d="M 257.77559,751.18105 L 257.77559,765.35428 C 264.86221,765.35428 264.86221,758.26767 257.77559,758.26767 C 264.86221,758.26767 264.86221,751.18105 257.77559,751.18105 z"
       id="path4122"
       sodipodi:nodetypes="cccc" />
    <path
       style="fill:none;fill-rule:evenodd;stroke:#000000;stroke-width:1px;stroke-linecap:butt;stroke-linejoin:miter;stroke-opacity:1"
       d="M 191.33858,761.81096 C 198.4252,761.81096 198.4252,765.35426 191.33858,765.35426 C 198.4252,765.35426 198.4252,768.89757 191.33858,768.89756 L 191.33858,768.89756"
       id="path4126"
       sodipodi:nodetypes="cccc" />
    <path
       sodipodi:type="arc"
       style="opacity:1;fill:none;fill-opacity:1;stroke:#000000;stroke-opacity:1"
       id="path4128"
       sodipodi:cx="232.08661"
       sodipodi:cy="761.81097"
       sodipodi:rx="1.7716535"
       sodipodi:ry="3.5433071"
       d="M 233.85826,761.81097 A 1.7716535,3.5433071 0 1 1 230.31496,761.81097 A 1.7716535,3.5433071 0 1 1 233.85826,761.81097 z" />
    <path
       style="fill:none;fill-rule:evenodd;stroke:#000000;stroke-width:1px;stroke-linecap:butt;stroke-linejoin:miter;stroke-opacity:1"
       d="M 294.09449,761.81097 C 301.1811,761.81097 301.1811,768.89758 294.09449,768.89758 C 301.1811,768.89758 301.1811,775.98419 294.09449,775.98419"
       id="path4130"
       sodipodi:nodetypes="ccc" />
    <path
       style="fill:none;fill-rule:evenodd;stroke:#000000;stroke-width:1px;stroke-linecap:butt;stroke-linejoin:miter;stroke-opacity:1"
       d="M 301.6811,764.85427 L 305.2244,775.48419 L 308.76771,764.85427"
       id="path4136" />
    <path
       style="fill:none;fill-rule:evenodd;stroke:#000000;stroke-width:1px;stroke-linecap:butt;stroke-linejoin:miter;stroke-opacity:1"
       d="M 311.81102,761.81097 C 318.89763,761.81097 318.89763,768.89758 311.81102,768.89758 C 318.89763,768.89758 318.89763,775.98419 311.81102,775.98419"
       id="path4138"
       sodipodi:nodetypes="ccc" />
  </g>
</svg>
