<?xml version="1.0" encoding="UTF-8" standalone="no"?>
<!-- Created with Inkscape (http://www.inkscape.org/) -->
<svg
   xmlns:dc="http://purl.org/dc/elements/1.1/"
   xmlns:cc="http://creativecommons.org/ns#"
   xmlns:rdf="http://www.w3.org/1999/02/22-rdf-syntax-ns#"
   xmlns:svg="http://www.w3.org/2000/svg"
   xmlns="http://www.w3.org/2000/svg"
   xmlns:sodipodi="http://sodipodi.sourceforge.net/DTD/sodipodi-0.dtd"
   xmlns:inkscape="http://www.inkscape.org/namespaces/inkscape"
   width="1488.189"
   height="1062.9921"
   id="svg2"
   sodipodi:version="0.32"
   inkscape:version="0.46"
   version="1.0"
   sodipodi:docname="power.svg"
   inkscape:output_extension="org.inkscape.output.svg.inkscape">
  <defs
     id="defs4">
    <inkscape:perspective
       sodipodi:type="inkscape:persp3d"
       inkscape:vp_x="0 : 526.18109 : 1"
       inkscape:vp_y="0 : 1000 : 0"
       inkscape:vp_z="744.09448 : 526.18109 : 1"
       inkscape:persp3d-origin="372.04724 : 350.78739 : 1"
       id="perspective10" />
  </defs>
  <sodipodi:namedview
     id="base"
     pagecolor="#ffffff"
     bordercolor="#666666"
     borderopacity="1.0"
     gridtolerance="10000"
     guidetolerance="10"
     objecttolerance="10000"
     inkscape:pageopacity="0.0"
     inkscape:pageshadow="2"
     inkscape:zoom="1.8101934"
     inkscape:cx="404.05506"
     inkscape:cy="612.80958"
     inkscape:document-units="mm"
     inkscape:current-layer="layer1"
     showgrid="true"
     units="mm"
     inkscape:snap-bbox="true"
     inkscape:object-paths="true"
     inkscape:object-nodes="true"
     inkscape:bbox-paths="true"
     inkscape:bbox-nodes="true"
     showguides="true"
     inkscape:guide-bbox="true"
     inkscape:window-width="1280"
     inkscape:window-height="727"
     inkscape:window-x="0"
     inkscape:window-y="25">
    <inkscape:grid
       type="xygrid"
       id="grid2383"
       visible="true"
       enabled="true"
       units="mm"
       spacingx="1mm"
       spacingy="1mm"
       color="#b56e30"
       opacity="0.1254902"
       empcolor="#3da932"
       empopacity="0.25098039"
       empspacing="4" />
    <sodipodi:guide
       orientation="1,0"
       position="527.95276,838.21429"
       id="guide2385" />
    <sodipodi:guide
       orientation="1,0"
       position="177.16535,835"
       id="guide2387" />
    <sodipodi:guide
       orientation="0,1"
       position="76.428572,708.66142"
       id="guide2389" />
    <sodipodi:guide
       orientation="0,1"
       position="107.85714,921.25984"
       id="guide2391" />
    <sodipodi:guide
       orientation="0,1"
       position="197.14286,935.43307"
       id="guide2393" />
    <sodipodi:guide
       orientation="0,1"
       position="292.14286,694.48819"
       id="guide2395" />
    <sodipodi:guide
       orientation="1,0"
       position="162.99213,816.42857"
       id="guide2397" />
    <sodipodi:guide
       orientation="1,0"
       position="92.125984,835.71429"
       id="guide2399" />
    <sodipodi:guide
       orientation="1,0"
       position="542.12598,832.14286"
       id="guide2401" />
    <sodipodi:guide
       orientation="1,0"
       position="612.99213,835"
       id="guide2403" />
    <sodipodi:guide
       orientation="1,0"
       position="627.16535,767.21086"
       id="guide2405" />
    <sodipodi:guide
       orientation="1,0"
       position="977.95276,787.41391"
       id="guide2407" />
    <sodipodi:guide
       orientation="1,0"
       position="992.12598,710.13724"
       id="guide2409" />
    <sodipodi:guide
       orientation="1,0"
       position="577.55906,944.28572"
       id="guide2411" />
    <sodipodi:guide
       orientation="1,0"
       position="127.55906,823.57143"
       id="guide2413" />
    <sodipodi:guide
       orientation="0,1"
       position="131.78571,744.09449"
       id="guide2417" />
    <sodipodi:guide
       orientation="0,1"
       position="48.571429,885.82677"
       id="guide2419" />
    <sodipodi:guide
       orientation="0,1"
       position="102.02541,559.84252"
       id="guide2432" />
    <sodipodi:guide
       orientation="0,1"
       position="45.961941,425.19685"
       id="guide2434" />
    <sodipodi:guide
       orientation="0,1"
       position="335.89286,680.31496"
       id="guide2436" />
    <sodipodi:guide
       orientation="0,1"
       position="324.46429,574.01575"
       id="guide2438" />
    <sodipodi:guide
       orientation="0,1"
       position="322.85714,545.66929"
       id="guide2440" />
    <sodipodi:guide
       orientation="0,1"
       position="321.96429,439.37008"
       id="guide2442" />
    <sodipodi:guide
       orientation="1,0"
       position="248.0315,769.98878"
       id="guide2444" />
    <sodipodi:guide
       orientation="1,0"
       position="318.89764,764.43294"
       id="guide2446" />
    <sodipodi:guide
       orientation="1,0"
       position="389.76378,764.68548"
       id="guide2448" />
    <sodipodi:guide
       orientation="1,0"
       position="439.37008,767.4634"
       id="guide2450" />
    <sodipodi:guide
       orientation="0,1"
       position="57.073619,637.79528"
       id="guide2463" />
    <sodipodi:guide
       orientation="0,1"
       position="44.951788,481.88976"
       id="guide2465" />
    <sodipodi:guide
       orientation="1,0"
       position="439.37008,486.38845"
       id="guide2467" />
    <sodipodi:guide
       orientation="0,1"
       position="486.48946,517.32283"
       id="guide2476" />
    <sodipodi:guide
       orientation="0,1"
       position="491.40625,631.25"
       id="guide2483" />
    <sodipodi:guide
       orientation="1,0"
       position="1126.7717,900.50048"
       id="guide2490" />
    <sodipodi:guide
       orientation="1,0"
       position="1261.4173,949.6444"
       id="guide2492" />
    <sodipodi:guide
       orientation="1,0"
       position="1006.2992,964.8472"
       id="guide2494" />
    <sodipodi:guide
       orientation="1,0"
       position="1112.5883,192.24466"
       id="guide2496" />
    <sodipodi:guide
       orientation="1,0"
       position="1140.9449,962.01877"
       id="guide2498" />
    <sodipodi:guide
       orientation="1,0"
       position="1247.2441,963.43299"
       id="guide2500" />
    <sodipodi:guide
       orientation="0,1"
       position="709.2281,878.74016"
       id="guide2502" />
    <sodipodi:guide
       orientation="0,1"
       position="717.71338,836.22047"
       id="guide2504" />
    <sodipodi:guide
       orientation="0,1"
       position="707.46033,793.70079"
       id="guide2506" />
    <sodipodi:guide
       orientation="0,1"
       position="682.00449,751.1811"
       id="guide2510" />
    <sodipodi:guide
       orientation="1,0"
       position="1048.8189,839.25"
       id="guide2536" />
    <sodipodi:guide
       orientation="1,0"
       position="1055.9055,854.5"
       id="guide2538" />
    <sodipodi:guide
       orientation="1,0"
       position="1087.7953,832.5"
       id="guide2540" />
    <sodipodi:guide
       orientation="1,0"
       position="1204.7244,831.25"
       id="guide2544" />
    <sodipodi:guide
       orientation="-0.70710678,0.70710678"
       position="913.5,945.5"
       id="guide2546" />
    <sodipodi:guide
       orientation="1,0"
       position="1197.6378,912.75"
       id="guide2548" />
  </sodipodi:namedview>
  <metadata
     id="metadata7">
    <rdf:RDF>
      <cc:Work
         rdf:about="">
        <dc:format>image/svg+xml</dc:format>
        <dc:type
           rdf:resource="http://purl.org/dc/dcmitype/StillImage" />
      </cc:Work>
    </rdf:RDF>
  </metadata>
  <g
     inkscape:label="Layer 1"
     inkscape:groupmode="layer"
     id="layer1">
    <path
       sodipodi:type="arc"
       style="fill:#ffffff;stroke:#000000"
       id="path2415"
       sodipodi:cx="248.03149"
       sodipodi:cy="177.1653"
       sodipodi:rx="7.0866141"
       sodipodi:ry="7.0866141"
       d="M 255.11811,177.1653 A 7.0866141,7.0866141 0 1 1 240.94488,177.1653 A 7.0866141,7.0866141 0 1 1 255.11811,177.1653 z"
       transform="translate(-120.47244,-4.6857699e-6)" />
    <path
       sodipodi:type="arc"
       style="fill:#ffffff;stroke:#000000"
       id="path2422"
       sodipodi:cx="248.03149"
       sodipodi:cy="177.1653"
       sodipodi:rx="7.0866141"
       sodipodi:ry="7.0866141"
       d="M 255.11811,177.1653 A 7.0866141,7.0866141 0 1 1 240.94488,177.1653 A 7.0866141,7.0866141 0 1 1 255.11811,177.1653 z"
       transform="translate(-120.47243,141.73228)" />
    <path
       sodipodi:type="arc"
       style="fill:#ffffff;stroke:#000000"
       id="path2424"
       sodipodi:cx="248.03149"
       sodipodi:cy="177.1653"
       sodipodi:rx="7.0866141"
       sodipodi:ry="7.0866141"
       d="M 255.11811,177.1653 A 7.0866141,7.0866141 0 1 1 240.94488,177.1653 A 7.0866141,7.0866141 0 1 1 255.11811,177.1653 z"
       transform="translate(329.52756,-3.0322267e-6)" />
    <path
       sodipodi:type="arc"
       style="fill:#ffffff;stroke:#000000"
       id="path2426"
       sodipodi:cx="248.03149"
       sodipodi:cy="177.1653"
       sodipodi:rx="7.0866141"
       sodipodi:ry="7.0866141"
       d="M 255.11811,177.1653 A 7.0866141,7.0866141 0 1 1 240.94488,177.1653 A 7.0866141,7.0866141 0 1 1 255.11811,177.1653 z"
       transform="translate(329.52757,141.73228)"
       inkscape:transform-center-x="5.5679481"
       inkscape:transform-center-y="2.137443" />
    <path
       style="fill:none;fill-rule:evenodd;stroke:#000000;stroke-width:1px;stroke-linecap:butt;stroke-linejoin:miter;stroke-opacity:1"
       d="M 92.125 127.5625 L 92.125 368.5 L 177.15625 368.5 L 177.15625 354.34375 L 248.03125 354.34375 L 248.03125 368.5 L 318.90625 368.5 L 318.90625 354.34375 L 389.75 354.34375 L 389.75 368.5 L 460.625 368.5 L 460.625 354.34375 L 527.9375 354.34375 L 527.9375 368.5 L 613 368.5 L 613 127.5625 L 527.9375 127.5625 L 527.9375 141.71875 L 460.625 141.71875 L 460.625 127.5625 L 389.75 127.5625 L 389.75 141.71875 L 318.90625 141.71875 L 318.90625 127.5625 L 248.03125 127.5625 L 248.03125 141.71875 L 177.15625 141.71875 L 177.15625 127.5625 L 92.125 127.5625 z "
       id="path2428" />
    <path
       style="fill:none;fill-rule:evenodd;stroke:#000000;stroke-width:1px;stroke-linecap:butt;stroke-linejoin:miter;stroke-opacity:1"
       d="M 613 127.5625 L 613 184.25 L 627.15625 184.25 L 627.15625 226.78125 L 613 226.78125 L 613 269.28125 L 627.15625 269.28125 L 627.15625 311.8125 L 613 311.8125 L 613 368.46875 L 627.15625 368.46875 L 627.15625 354.3125 L 694.5 354.3125 L 694.5 368.46875 L 694.5 368.5 L 885.8125 368.5 L 885.8125 368.46875 L 885.8125 354.3125 L 977.9375 354.3125 L 977.9375 368.46875 L 992.125 368.46875 L 992.125 311.8125 L 977.9375 311.8125 L 977.9375 269.28125 L 992.125 269.28125 L 992.125 226.78125 L 977.9375 226.78125 L 977.9375 184.25 L 992.125 184.25 L 992.125 127.5625 L 977.9375 127.5625 L 977.9375 141.71875 L 910.625 141.71875 L 910.625 127.5625 L 839.75 127.5625 L 839.75 141.71875 L 768.90625 141.71875 L 768.90625 127.5625 L 698.03125 127.5625 L 698.03125 141.71875 L 627.15625 141.71875 L 627.15625 127.5625 L 613 127.5625 z "
       id="path2430" />
    <g
       id="g4368">
      <path
         id="path2461"
         d="M 177.15625 503.15625 L 177.15625 517.3125 L 163 517.3125 L 163 595.28125 L 177.15625 595.28125 L 177.15625 609.4375 L 163 609.4375 L 163 623.625 L 177.15625 623.625 L 177.15625 637.78125 L 248.03125 637.78125 L 248.03125 623.625 L 318.90625 623.625 L 318.90625 637.78125 L 389.75 637.78125 L 389.75 623.625 L 460.625 623.625 L 460.625 637.78125 L 527.9375 637.78125 L 527.9375 623.625 L 542.125 623.625 L 542.125 517.3125 L 527.9375 517.3125 L 527.9375 503.15625 L 435.8125 503.15625 L 435.8125 517.3125 L 435.8125 522.8125 L 435.8125 574.03125 L 244.5 574.03125 L 244.5 531.5 L 244.5 517.3125 L 244.5 503.15625 L 177.15625 503.15625 z "
         style="fill:none;fill-rule:evenodd;stroke:#000000;stroke-width:1px;stroke-linecap:butt;stroke-linejoin:miter;stroke-opacity:1" />
      <path
         id="path2478"
         d="M 460.625 524.40625 L 460.625 538.59375 L 439.375 538.59375 L 439.375 545.65625 L 503.15625 545.65625 L 503.15625 538.59375 L 467.71875 538.59375 L 467.71875 524.40625 L 460.625 524.40625 z "
         style="fill:none;fill-rule:evenodd;stroke:#000000;stroke-width:1px;stroke-linecap:butt;stroke-linejoin:miter;stroke-opacity:1" />
    </g>
    <path
       style="fill:none;fill-rule:evenodd;stroke:#000000;stroke-width:1px;stroke-linecap:butt;stroke-linejoin:miter;stroke-opacity:1"
       d="M 527.95276,184.25191 L 542.12598,184.25191 L 542.12598,226.77159 L 527.95276,226.77159 L 527.95276,184.25191 z"
       id="path2524" />
    <path
       style="fill:none;fill-rule:evenodd;stroke:#000000;stroke-width:1px;stroke-linecap:butt;stroke-linejoin:miter;stroke-opacity:1"
       d="M 527.95276,269.29128 L 542.12598,269.29128 L 542.12598,311.81096 L 527.95276,311.81096 L 527.95276,269.29128 z"
       id="path2526" />
    <path
       style="fill:none;fill-rule:evenodd;stroke:#000000;stroke-width:1px;stroke-linecap:butt;stroke-linejoin:miter;stroke-opacity:1"
       d="M 162.99213,184.25191 L 162.99213,226.77159 L 177.16535,226.77159 L 177.16535,184.25191 L 162.99213,184.25191 z"
       id="path2528" />
    <path
       style="fill:none;fill-rule:evenodd;stroke:#000000;stroke-width:1px;stroke-linecap:butt;stroke-linejoin:miter;stroke-opacity:1"
       d="M 162.99213,269.29128 L 177.16535,269.29128 L 177.16535,311.81096 L 162.99213,311.81096 L 162.99213,269.29128 z"
       id="path2530" />
    <path
       style="fill:none;fill-rule:evenodd;stroke:#000000;stroke-width:1px;stroke-linecap:butt;stroke-linejoin:miter;stroke-opacity:1"
       d="M 1140.9375 141.71875 L 1140.9375 145.28125 L 1197.625 145.28125 L 1197.625 184.25 L 1140.9375 184.25 L 1126.7812 184.25 L 1126.7812 226.78125 L 1140.9375 226.78125 L 1140.9375 269.28125 L 1126.7812 269.28125 L 1126.7812 311.8125 L 1140.9375 311.8125 L 1140.9375 354.34375 L 1247.25 354.34375 L 1247.25 311.8125 L 1261.4062 311.8125 L 1261.4062 269.28125 L 1247.25 269.28125 L 1247.25 226.78125 L 1261.4062 226.78125 L 1261.4062 184.25 L 1247.25 184.25 L 1247.25 141.71875 L 1140.9375 141.71875 z "
       id="path2534" />
    <path
       style="fill:none;fill-rule:evenodd;stroke:#000000;stroke-width:1px;stroke-linecap:butt;stroke-linejoin:miter;stroke-opacity:1"
       d="M 1197.6378,233.85821 L 1155.1181,233.85821 L 1155.1181,276.37789 L 1197.6378,276.37789 L 1197.6378,233.85821 z"
       id="path2552" />
    <path
       style="fill:none;fill-rule:evenodd;stroke:#000000;stroke-width:1px;stroke-linecap:butt;stroke-linejoin:miter;stroke-opacity:1"
       d="M 907.08661,198.42514 L 914.17323,198.42514 L 914.17323,205.51175 L 907.08661,205.51175 L 907.08661,198.42514 z"
       id="path2554" />
    <path
       style="fill:none;fill-rule:evenodd;stroke:#000000;stroke-width:1px;stroke-linecap:butt;stroke-linejoin:miter;stroke-opacity:1"
       d="M 1148.0315,201.96844 L 1155.1181,201.96844 L 1155.1181,212.59836 L 1148.0315,212.59836 L 1148.0315,201.96844 z"
       id="path2559" />
    <path
       style="fill:none;fill-rule:evenodd;stroke:#000000;stroke-width:1px;stroke-linecap:butt;stroke-linejoin:miter;stroke-opacity:1"
       d="M 1148.0315,287.00781 L 1155.1181,287.00781 L 1155.1181,297.63773 L 1148.0315,297.63773 L 1148.0315,287.00781 z"
       id="path2561" />
    <path
       style="fill:none;fill-rule:evenodd;stroke:#000000;stroke-width:1px;stroke-linecap:butt;stroke-linejoin:miter;stroke-opacity:1"
       d="M 963.77954,201.96844 L 970.86614,201.96844 L 970.86614,212.59836 L 963.77954,212.59836 L 963.77954,201.96844 z"
       id="path2563" />
    <path
       style="fill:none;fill-rule:evenodd;stroke:#000000;stroke-width:1px;stroke-linecap:butt;stroke-linejoin:miter;stroke-opacity:1"
       d="M 963.77954,287.00781 L 970.86614,287.00781 L 970.86614,297.63773 L 963.77954,297.63773 L 963.77954,287.00781 z"
       id="path2565" />
    <path
       style="fill:none;fill-rule:evenodd;stroke:#000000;stroke-width:1px;stroke-linecap:butt;stroke-linejoin:miter;stroke-opacity:1"
       d="M 945.5625 495.0625 L 874.71875 495.5625 L 874.71875 509.75 L 803.84375 509.75 L 803.84375 495.5625 L 732.96875 495.5625 L 732.96875 509.75 L 718.8125 509.75 L 718.8125 523.90625 L 732.96875 523.90625 L 732.96875 538.09375 L 718.8125 538.09375 L 718.8125 559.34375 L 732.96875 559.34375 L 740.0625 559.34375 L 1048.3125 559.34375 L 1048.3125 580.59375 L 1058.9375 580.59375 L 1058.9375 569.96875 L 1069.5938 569.96875 L 1069.5938 580.59375 L 1097.9375 580.59375 L 1097.9375 509.75 L 1083.75 509.75 L 1083.75 495.5625 L 1016.4375 495.5625 L 1016.4375 509.75 L 945.5625 509.75 L 945.5625 495.0625 z "
       id="path4386" />
    <path
       style="fill:none;fill-rule:evenodd;stroke:#000000;stroke-width:1px;stroke-linecap:butt;stroke-linejoin:miter;stroke-opacity:1"
       d="M 719.28765,588.16751 L 719.28765,644.85501 L 733.4439,644.85501 L 733.4439,659.04251 L 804.3189,659.04251 L 804.3189,644.85501 L 875.1939,644.85501 L 875.1939,659.04251 L 946.03765,659.04251 L 946.03765,644.85501 L 1016.9126,644.85501 L 1016.9126,659.04251 L 1084.2251,659.04251 L 1084.2251,644.85501 L 1098.4127,644.85501 L 1098.4127,609.44876 L 1070.0689,609.44876 L 1070.0689,598.79251 L 1059.4439,598.79251 L 1059.4439,609.44876 L 1048.8189,609.44876 L 1048.8189,620.07376 L 733.47515,620.07376 L 733.47515,588.16751 L 719.28765,588.16751 z"
       id="path4394" />
    <path
       style="fill:none;fill-rule:evenodd;stroke:#000000;stroke-width:1px;stroke-linecap:butt;stroke-linejoin:miter;stroke-opacity:1"
       d="M 984.55192,836.72041 L 984.55192,879.25166 L 970.36442,879.25166 L 970.36442,921.78291 L 984.55192,921.78291 L 984.55192,964.28291 L 970.36442,964.28291 L 970.36442,1006.8142 L 984.55192,1006.8142 L 984.55192,1049.3142 L 1034.1457,1017.4392 L 1034.1457,904.03291 L 984.55192,836.72041 z"
       id="path4410" />
    <path
       style="fill:none;fill-rule:evenodd;stroke:#000000;stroke-width:1px;stroke-linecap:butt;stroke-linejoin:miter;stroke-opacity:1"
       d="M 1020.4375 822.0625 L 1020.4375 836.21875 L 1006.3125 836.21875 L 1055.9062 903.53125 L 1087.7812 903.53125 L 1087.7812 1016.9375 L 1055.9062 1016.9375 L 1006.3125 1048.8125 L 1006.3125 1048.8438 L 1020.4688 1048.8125 L 1020.4688 1062.9688 L 1034.6562 1062.9688 L 1034.6562 1048.8125 L 1112.5938 1048.8438 L 1112.5938 1006.3125 L 1126.7812 1006.3125 L 1126.7812 963.78125 L 1112.5938 963.78125 L 1112.5938 921.28125 L 1126.7812 921.28125 L 1126.7812 878.75 L 1112.5938 878.75 L 1112.5938 836.21875 L 1034.625 836.21875 L 1034.625 822.0625 L 1020.4375 822.0625 z "
       id="path4420" />
    <path
       sodipodi:type="arc"
       style="opacity:1;fill:none;fill-opacity:1;stroke:#000000;stroke-opacity:1"
       id="path4432"
       sodipodi:cx="462.40158"
       sodipodi:cy="338.38577"
       sodipodi:rx="5.3149605"
       sodipodi:ry="5.3149605"
       d="M 467.71654,338.38577 A 5.3149605,5.3149605 0 1 1 457.08662,338.38577 A 5.3149605,5.3149605 0 1 1 467.71654,338.38577 z"
       transform="translate(0.4999938,4.0433004)" />
  </g>
</svg>
