<?xml version="1.0" encoding="UTF-8" standalone="no"?>
<!-- Created with Inkscape (http://www.inkscape.org/) -->

<svg
   xmlns:dc="http://purl.org/dc/elements/1.1/"
   xmlns:cc="http://creativecommons.org/ns#"
   xmlns:rdf="http://www.w3.org/1999/02/22-rdf-syntax-ns#"
   xmlns:svg="http://www.w3.org/2000/svg"
   xmlns="http://www.w3.org/2000/svg"
   xmlns:sodipodi="http://sodipodi.sourceforge.net/DTD/sodipodi-0.dtd"
   xmlns:inkscape="http://www.inkscape.org/namespaces/inkscape"
   width="1488.189"
   height="1062.9921"
   id="svg2"
   sodipodi:version="0.32"
   inkscape:version="0.46+devel"
   version="1.0"
   sodipodi:docname="power.svg"
   inkscape:output_extension="org.inkscape.output.svg.inkscape">
  <defs
     id="defs4">
    <inkscape:perspective
       sodipodi:type="inkscape:persp3d"
       inkscape:vp_x="0 : 526.18109 : 1"
       inkscape:vp_y="0 : 1000 : 0"
       inkscape:vp_z="744.09448 : 526.18109 : 1"
       inkscape:persp3d-origin="372.04724 : 350.78739 : 1"
       id="perspective10" />
    <inkscape:perspective
       id="perspective155"
       inkscape:persp3d-origin="0.5 : 0.33333333 : 1"
       inkscape:vp_z="1 : 0.5 : 1"
       inkscape:vp_y="0 : 1000 : 0"
       inkscape:vp_x="0 : 0.5 : 1"
       sodipodi:type="inkscape:persp3d" />
    <inkscape:perspective
       id="perspective180"
       inkscape:persp3d-origin="0.5 : 0.33333333 : 1"
       inkscape:vp_z="1 : 0.5 : 1"
       inkscape:vp_y="0 : 1000 : 0"
       inkscape:vp_x="0 : 0.5 : 1"
       sodipodi:type="inkscape:persp3d" />
  </defs>
  <sodipodi:namedview
     id="base"
     pagecolor="#ffffff"
     bordercolor="#666666"
     borderopacity="1.0"
     gridtolerance="10000"
     guidetolerance="10"
     objecttolerance="10000"
     inkscape:pageopacity="0.0"
     inkscape:pageshadow="2"
     inkscape:zoom="1"
     inkscape:cx="712.19075"
     inkscape:cy="859.35285"
     inkscape:document-units="mm"
     inkscape:current-layer="layer1"
     showgrid="true"
     units="mm"
     inkscape:snap-bbox="true"
     inkscape:object-paths="true"
     inkscape:object-nodes="true"
     inkscape:bbox-paths="true"
     inkscape:bbox-nodes="true"
     showguides="false"
     inkscape:guide-bbox="true"
     inkscape:window-width="1280"
     inkscape:window-height="727"
     inkscape:window-x="0"
     inkscape:window-y="25">
    <inkscape:grid
       type="xygrid"
       id="grid2383"
       visible="true"
       enabled="true"
       units="mm"
       spacingx="1mm"
       spacingy="1mm"
       color="#b56e30"
       opacity="0.1254902"
       empcolor="#3da932"
       empopacity="0.25098039"
       empspacing="4" />
    <sodipodi:guide
       orientation="1,0"
       position="527.95276,838.21429"
       id="guide2385" />
    <sodipodi:guide
       orientation="1,0"
       position="177.16535,835"
       id="guide2387" />
    <sodipodi:guide
       orientation="0,1"
       position="1205.1199,708.62596"
       id="guide2389" />
    <sodipodi:guide
       orientation="0,1"
       position="107.85714,921.25984"
       id="guide2391" />
    <sodipodi:guide
       orientation="0,1"
       position="197.14286,935.43307"
       id="guide2393" />
    <sodipodi:guide
       orientation="0,1"
       position="292.14286,694.48819"
       id="guide2395" />
    <sodipodi:guide
       orientation="1,0"
       position="162.99213,816.42857"
       id="guide2397" />
    <sodipodi:guide
       orientation="1,0"
       position="92.125984,835.71429"
       id="guide2399" />
    <sodipodi:guide
       orientation="1,0"
       position="542.12598,832.14286"
       id="guide2401" />
    <sodipodi:guide
       orientation="1,0"
       position="612.99213,835"
       id="guide2403" />
    <sodipodi:guide
       orientation="1,0"
       position="627.16535,767.21086"
       id="guide2405" />
    <sodipodi:guide
       orientation="1,0"
       position="977.95276,787.41391"
       id="guide2407" />
    <sodipodi:guide
       orientation="1,0"
       position="992.12598,710.13724"
       id="guide2409" />
    <sodipodi:guide
       orientation="1,0"
       position="577.55906,944.28572"
       id="guide2411" />
    <sodipodi:guide
       orientation="1,0"
       position="127.55906,823.57143"
       id="guide2413" />
    <sodipodi:guide
       orientation="0,1"
       position="131.78571,744.09449"
       id="guide2417" />
    <sodipodi:guide
       orientation="0,1"
       position="48.571429,885.82677"
       id="guide2419" />
    <sodipodi:guide
       orientation="0,1"
       position="102.02541,559.84252"
       id="guide2432" />
    <sodipodi:guide
       orientation="0,1"
       position="45.961941,425.19685"
       id="guide2434" />
    <sodipodi:guide
       orientation="0,1"
       position="335.89286,680.31496"
       id="guide2436" />
    <sodipodi:guide
       orientation="0,1"
       position="324.46429,574.01575"
       id="guide2438" />
    <sodipodi:guide
       orientation="0,1"
       position="322.85714,545.66929"
       id="guide2440" />
    <sodipodi:guide
       orientation="0,1"
       position="321.96429,439.37008"
       id="guide2442" />
    <sodipodi:guide
       orientation="1,0"
       position="248.0315,769.98878"
       id="guide2444" />
    <sodipodi:guide
       orientation="1,0"
       position="318.89764,764.43294"
       id="guide2446" />
    <sodipodi:guide
       orientation="1,0"
       position="389.76378,764.68548"
       id="guide2448" />
    <sodipodi:guide
       orientation="1,0"
       position="439.37008,767.4634"
       id="guide2450" />
    <sodipodi:guide
       orientation="0,1"
       position="57.073619,637.79528"
       id="guide2463" />
    <sodipodi:guide
       orientation="0,1"
       position="44.951788,481.88976"
       id="guide2465" />
    <sodipodi:guide
       orientation="1,0"
       position="439.37008,486.38845"
       id="guide2467" />
    <sodipodi:guide
       orientation="0,1"
       position="486.48946,517.32283"
       id="guide2476" />
    <sodipodi:guide
       orientation="0,1"
       position="491.40625,631.25"
       id="guide2483" />
    <sodipodi:guide
       orientation="1,0"
       position="1126.7717,900.50048"
       id="guide2490" />
    <sodipodi:guide
       orientation="1,0"
       position="1261.4173,949.6444"
       id="guide2492" />
    <sodipodi:guide
       orientation="1,0"
       position="1006.2992,964.8472"
       id="guide2494" />
    <sodipodi:guide
       orientation="1,0"
       position="1112.5883,192.24466"
       id="guide2496" />
    <sodipodi:guide
       orientation="1,0"
       position="1140.9449,962.01877"
       id="guide2498" />
    <sodipodi:guide
       orientation="1,0"
       position="1247.2441,963.43299"
       id="guide2500" />
    <sodipodi:guide
       orientation="0,1"
       position="709.2281,878.74016"
       id="guide2502" />
    <sodipodi:guide
       orientation="0,1"
       position="717.71338,836.22047"
       id="guide2504" />
    <sodipodi:guide
       orientation="0,1"
       position="707.46033,793.70079"
       id="guide2506" />
    <sodipodi:guide
       orientation="0,1"
       position="682.00449,751.1811"
       id="guide2510" />
    <sodipodi:guide
       orientation="1,0"
       position="1048.8189,839.25"
       id="guide2536" />
    <sodipodi:guide
       orientation="1,0"
       position="1055.9055,854.5"
       id="guide2538" />
    <sodipodi:guide
       orientation="1,0"
       position="1087.7953,832.5"
       id="guide2540" />
    <sodipodi:guide
       orientation="1,0"
       position="1204.7244,831.25"
       id="guide2544" />
    <sodipodi:guide
       orientation="-0.70710678,0.70710678"
       position="913.5,945.5"
       id="guide2546" />
    <sodipodi:guide
       orientation="1,0"
       position="1197.6378,912.75"
       id="guide2548" />
  </sodipodi:namedview>
  <metadata
     id="metadata7">
    <rdf:RDF>
      <cc:Work
         rdf:about="">
        <dc:format>image/svg+xml</dc:format>
        <dc:type
           rdf:resource="http://purl.org/dc/dcmitype/StillImage" />
      </cc:Work>
    </rdf:RDF>
  </metadata>
  <g
     inkscape:label="Layer 1"
     inkscape:groupmode="layer"
     id="layer1"
     style="display:inline">
    <path
       sodipodi:type="arc"
       style="fill:#ffffff;stroke:#000000"
       id="path2415"
       sodipodi:cx="248.03149"
       sodipodi:cy="177.1653"
       sodipodi:rx="7.0866141"
       sodipodi:ry="7.0866141"
       d="m 255.11811,177.1653 a 7.0866141,7.0866141 0 1 1 -14.17323,0 7.0866141,7.0866141 0 1 1 14.17323,0 z"
       transform="translate(-202.24803,-117.38934)" />
    <path
       sodipodi:type="arc"
       style="fill:#ffffff;stroke:#000000"
       id="path2422"
       sodipodi:cx="248.03149"
       sodipodi:cy="177.1653"
       sodipodi:rx="7.0866141"
       sodipodi:ry="7.0866141"
       d="m 255.11811,177.1653 a 7.0866141,7.0866141 0 1 1 -14.17323,0 7.0866141,7.0866141 0 1 1 14.17323,0 z"
       transform="translate(-202.24802,24.342948)" />
    <path
       sodipodi:type="arc"
       style="fill:#ffffff;stroke:#000000"
       id="path2424"
       sodipodi:cx="248.03149"
       sodipodi:cy="177.1653"
       sodipodi:rx="7.0866141"
       sodipodi:ry="7.0866141"
       d="m 255.11811,177.1653 a 7.0866141,7.0866141 0 1 1 -14.17323,0 7.0866141,7.0866141 0 1 1 14.17323,0 z"
       transform="translate(247.75197,-117.38934)" />
    <path
       sodipodi:type="arc"
       style="fill:#ffffff;stroke:#000000"
       id="path2426"
       sodipodi:cx="248.03149"
       sodipodi:cy="177.1653"
       sodipodi:rx="7.0866141"
       sodipodi:ry="7.0866141"
       d="m 255.11811,177.1653 a 7.0866141,7.0866141 0 1 1 -14.17323,0 7.0866141,7.0866141 0 1 1 14.17323,0 z"
       transform="translate(247.75198,24.342948)"
       inkscape:transform-center-x="5.5679481"
       inkscape:transform-center-y="2.137443" />
    <path
       style="fill:none;stroke:#000000;stroke-width:1px;stroke-linecap:butt;stroke-linejoin:miter;stroke-opacity:1"
       d="m 10.349406,10.173168 0,240.937502 85.031254,0 0,-14.15625 70.875,0 0,14.15625 70.875,0 0,-14.15625 70.84375,0 0,14.15625 70.875,0 0,-14.15625 67.3125,0 0,14.15625 85.0625,0 0,-240.937502 -85.0625,0 0,14.15625 -67.3125,0 0,-14.15625 -70.875,0 0,14.15625 -70.84375,0 0,-14.15625 -70.875,0 0,14.15625 -70.875,0 0,-14.15625 -85.031254,0 z"
       id="path2428" />
    <path
       style="fill:none;stroke:#000000;stroke-width:1px;stroke-linecap:butt;stroke-linejoin:miter;stroke-opacity:1"
       d="m 534.78691,10.204418 0,56.6875 14.15625,0 0,42.531252 -14.15625,0 0,42.5 14.15625,0 0,42.53125 -14.15625,0 0,56.65625 14.15625,0 0,-14.15625 56.6875,0 0,-92.125 14.15625,0 7.09375,0 0,92.125 -10.59375,0 0,14.15625 0,0.0313 191.3125,0 0,-0.0313 0,-14.15625 92.125,0 0,14.15625 14.1875,0 0,-56.65625 -14.1875,0 0,-42.53125 14.1875,0 0,-42.5 -14.1875,0 0,-42.531252 14.1875,0 0,-56.6875 -14.1875,0 0,14.15625 -67.3125,0 0,-14.15625 -70.875,0 0,14.15625 -70.84375,0 0,-14.15625 -70.875,0 0,14.15625 -70.875,0 0,-14.15625 -14.15625,0 z"
       id="path2430" />
    <path
       style="fill:none;stroke:#000000;stroke-width:1px;stroke-linecap:butt;stroke-linejoin:miter;stroke-opacity:1"
       d="m 24.502706,254.649 0,14.15625 -14.156249,0 0,77.96875 14.156249,0 0,14.15625 -14.156249,0 0,14.1875 14.156249,0 0,14.15625 70.875004,0 0,-14.15625 70.875,0 0,14.15625 70.84375,0 0,-14.15625 70.875,0 0,14.15625 67.3125,0 0,-14.15625 14.1875,0 0,-14.1875 -14.1875,0 0,-14.15625 14.1875,0 0,-77.96875 -14.1875,0 0,-14.15625 -92.125,0 0,14.15625 0,5.5 0,51.21875 -191.3125,0 0,-42.53125 0,-14.1875 0,-14.15625 -67.343754,0 z"
       id="path2461" />
    <path
       style="fill:none;stroke:#000000;stroke-width:1px;stroke-linecap:butt;stroke-linejoin:miter;stroke-opacity:1"
       d="m 307.98819,283.00431 0,14.1875 -21.25,0 0.007,10.63435 85.03937,0 0,-10.60581 -56.70251,-0.0285 0,-14.1875 -7.09375,0 z"
       id="path2478"
       sodipodi:nodetypes="ccccccccc" />
    <path
       style="fill:none;stroke:#000000;stroke-width:1px;stroke-linecap:butt;stroke-linejoin:miter;stroke-opacity:1"
       d="m 446.17717,66.862578 14.17322,0 0,42.519682 -14.17322,0 0,-42.519682 z"
       id="path2524" />
    <path
       style="fill:none;stroke:#000000;stroke-width:1px;stroke-linecap:butt;stroke-linejoin:miter;stroke-opacity:1"
       d="m 446.17717,151.90195 14.17322,0 0,42.51968 -14.17322,0 0,-42.51968 z"
       id="path2526" />
    <path
       style="fill:none;stroke:#000000;stroke-width:1px;stroke-linecap:butt;stroke-linejoin:miter;stroke-opacity:1"
       d="m 81.216536,66.862578 0,42.519682 14.173224,0 0,-42.519682 -14.173224,0 z"
       id="path2528" />
    <path
       style="fill:none;stroke:#000000;stroke-width:1px;stroke-linecap:butt;stroke-linejoin:miter;stroke-opacity:1"
       d="m 81.216536,151.90195 14.173224,0 0,42.51968 -14.173224,0 0,-42.51968 z"
       id="path2530" />
    <path
       style="fill:none;stroke:#000000;stroke-width:1px;stroke-linecap:butt;stroke-linejoin:miter;stroke-opacity:1"
       d="m 1009.5799,10.186638 0,14.15625 -77.96869,0 0,3.5625 56.68749,0 0,38.96875 -56.68749,0 -14.15625,0 0,42.531252 14.15625,0 0,42.5 -14.15625,0 0,42.53125 14.15625,0 0,42.53125 77.96869,0 0,14.15625 14.1563,0 0,-14.15625 14.1875,0 0,-42.53125 14.1562,0 0,-42.53125 -14.1562,0 0,-42.5 14.1562,0 0,-42.531252 -14.1562,0 0,-42.53125 -14.1875,0 0,-14.15625 -14.1563,0 z"
       id="path2534" />
    <path
       style="fill:none;stroke:#000000;stroke-width:1px;stroke-linecap:butt;stroke-linejoin:miter;stroke-opacity:1"
       d="m 988.3115,116.48235 -42.51969,0 0,42.51968 42.51969,0 0,-42.51968 z"
       id="path2552" />
    <path
       style="fill:none;stroke:#000000;stroke-width:1px;stroke-linecap:butt;stroke-linejoin:miter;stroke-opacity:1"
       d="m 938.70521,84.592578 7.0866,0 0,10.62992 -7.0866,0 0,-10.62992 z"
       id="path2559" />
    <path
       style="fill:none;stroke:#000000;stroke-width:1px;stroke-linecap:butt;stroke-linejoin:miter;stroke-opacity:1"
       d="m 938.70521,169.63195 7.0866,0 0,10.62992 -7.0866,0 0,-10.62992 z"
       id="path2561" />
    <path
       style="fill:none;stroke:#000000;stroke-width:1px;stroke-linecap:butt;stroke-linejoin:miter;stroke-opacity:1"
       d="m 885.56251,84.614238 7.0866,0 0,10.62992 -7.0866,0 0,-10.62992 z"
       id="path2563" />
    <path
       style="fill:none;stroke:#000000;stroke-width:1px;stroke-linecap:butt;stroke-linejoin:miter;stroke-opacity:1"
       d="m 885.56251,169.65361 7.0866,0 0,10.62992 -7.0866,0 0,-10.62992 z"
       id="path2565" />
    <path
       style="fill:none;stroke:#000000;stroke-width:1px;stroke-linecap:butt;stroke-linejoin:miter;stroke-opacity:1"
       d="m 619.77682,254.14358 -70.84375,0.5 0,14.1875 -70.875,0 0,-14.1875 -70.875,0 0,14.1875 -14.15625,0 0,14.15625 14.15625,0 0,14.1875 -14.15625,0 0,21.25 14.15625,0 7.09375,0 308.25,0 0,21.25 10.625,0 0,-10.625 10.6563,0 0,10.625 28.3437,0 0,-42.5 -14.1875,0 0,-14.1875 14.1875,0 0,-14.15625 -14.1875,0 0,-14.1875 -67.3125,0 0,14.1875 -70.875,0 0,-14.6875 z"
       id="path4386" />
    <path
       style="fill:none;stroke:#000000;stroke-width:1px;stroke-linecap:butt;stroke-linejoin:miter;stroke-opacity:1"
       d="m 435.53297,321.98069 0,56.6875 14.15625,0 0,14.1875 70.875,0 0,-14.1875 70.875,0 0,14.1875 70.84375,0 0,-14.1875 70.87495,0 0,14.1875 67.3125,0 0,-14.1875 14.1876,0 0,-35.40625 -28.3438,0 0,-10.65625 -10.625,0 0,10.65625 -10.625,0 0,10.625 -315.34375,0 0,-31.90625 -14.1875,0 z"
       id="path4394" />
    <path
       style="fill:none;stroke:#000000;stroke-width:1px;stroke-linecap:butt;stroke-linejoin:miter;stroke-opacity:1"
       d="m 1030.8125,268.84358 -42.5312,0 0,-14.18747 -42.53129,0 0,14.18747 -42.50001,0 0,-14.18747 -42.53134,0 0,14.18747 -42.5,0 31.875,49.5938 113.40635,0 67.31249,-49.5938 z"
       id="path4410" />
    <path
       style="fill:none;stroke:#000000;stroke-width:1px;stroke-linecap:butt;stroke-linejoin:miter;stroke-opacity:1"
       d="m 804.03691,286.54817 0,14.1875 14.15625,0 -0.0313,77.9375 42.53125,0 0,14.1875 42.53125,0 0,-14.1875 42.5,0 0,14.1875 42.53124,0 0,-14.1875 42.5313,0 0,-77.96875 14.1563,0 0,-14.15625 -33.375,0 -48.09384,35.4375 0,31.875 -113.40625,0 0,-31.875 -22.78125,-35.4375 -9.09375,0 -14.15625,0 z"
       id="path4420" />
    <path
       sodipodi:type="arc"
       style="fill:none;stroke:#000000;stroke-opacity:1"
       id="path4432"
       sodipodi:cx="462.40158"
       sodipodi:cy="338.38577"
       sodipodi:rx="5.3149605"
       sodipodi:ry="5.3149605"
       d="m 467.71654,338.38577 a 5.3149605,5.3149605 0 1 1 -10.62992,0 5.3149605,5.3149605 0 1 1 10.62992,0 z"
       transform="translate(359.36614,-110.30272)" />
    <path
       style="fill:none;stroke:#000000;stroke-width:1px;stroke-linecap:butt;stroke-linejoin:miter;stroke-opacity:1"
       d="m 839.48425,91.665728 14.17323,0 0,-14.17323 -14.17323,0 0,14.17323 z"
       id="path4434" />
    <path
       style="fill:none;stroke:#000000;stroke-width:1px;stroke-linecap:butt;stroke-linejoin:miter;stroke-opacity:1"
       d="m 144.99607,272.37439 0,-7.0866 -7.08662,0 0,7.0866 -31.88976,0 0,14.17323 31.88976,7e-5 0,7.0866 7.08662,0 0,-7.0866 24.80314,-7e-5 c 0,3.5433 7.08662,3.5433 7.08663,7e-5 l 0,-14.1733 c -1e-5,-3.54331 -7.08663,-3.54331 -7.08663,0 l -24.80314,0 z"
       id="path4453"
       sodipodi:nodetypes="ccccccccccccccc" />
    <g
       id="g200"
       transform="translate(-72.866147,17.56785)">
      <path
         id="path2874-5"
         d="m 797.2441,201.96844 0,-14.17323"
         style="fill:none;stroke:#000000;stroke-width:1px;stroke-linecap:butt;stroke-linejoin:miter;stroke-opacity:1;display:inline" />
      <path
         id="path2872-8"
         d="m 804.33071,194.88183 -7.08661,0"
         style="fill:none;stroke:#000000;stroke-width:1px;stroke-linecap:butt;stroke-linejoin:miter;stroke-opacity:1;display:inline" />
      <path
         id="path2870-0"
         d="m 804.33071,201.96844 0,-14.17323"
         style="fill:none;stroke:#000000;stroke-width:1px;stroke-linecap:butt;stroke-linejoin:miter;stroke-opacity:1;display:inline" />
    </g>
  </g>
  <g
     inkscape:groupmode="layer"
     id="layer2"
     inkscape:label="text"
     style="display:inline">
    <path
       sodipodi:type="arc"
       style="fill:none;stroke:#000000;stroke-opacity:1;display:inline"
       id="path2820"
       sodipodi:cx="760.03937"
       sodipodi:cy="205.51175"
       sodipodi:rx="5.3149605"
       sodipodi:ry="7.0866141"
       d="m 765.35433,205.51175 a 5.3149605,7.0866141 0 1 1 -10.62992,0 5.3149605,7.0866141 0 1 1 10.62992,0 z"
       transform="translate(-189.84649,-166.99563)" />
    <path
       style="fill:none;stroke:#000000;stroke-width:1px;stroke-linecap:butt;stroke-linejoin:miter;stroke-opacity:1;display:inline"
       d="m 584.3661,45.602738 -3.54331,-14.17323 -3.5433,14.17323 0,0"
       id="path2814" />
    <path
       style="fill:none;stroke:#000000;stroke-width:1px;stroke-linecap:butt;stroke-linejoin:miter;stroke-opacity:1;display:inline"
       d="m 587.90941,45.602738 c 10.62992,0 7.08661,-7.08662 3.5433,-7.08662 -3.5433,0 -10.62992,-7.08661 3.54331,-7.08661"
       id="path2812"
       sodipodi:nodetypes="ccc" />
    <path
       style="fill:none;stroke:#000000;stroke-width:1px;stroke-linecap:butt;stroke-linejoin:miter;stroke-opacity:1;display:inline"
       d="m 619.29926,46.102728 0,-14.17322"
       id="path2810" />
    <path
       style="fill:none;stroke:#000000;stroke-width:1px;stroke-linecap:butt;stroke-linejoin:miter;stroke-opacity:1;display:inline"
       d="m 626.38587,46.102728 -14.17323,0"
       id="path2808" />
    <path
       sodipodi:type="arc"
       style="fill:none;stroke:#000000;stroke-opacity:1;display:inline"
       id="path2806"
       sodipodi:cx="760.03937"
       sodipodi:cy="205.51175"
       sodipodi:rx="5.3149605"
       sodipodi:ry="7.0866141"
       d="m 765.35433,205.51175 a 5.3149605,7.0866141 0 1 1 -10.62992,0 5.3149605,7.0866141 0 1 1 10.62992,0 z"
       transform="matrix(-1,0,0,-1,1395.2835,244.52787)" />
    <path
       style="fill:none;stroke:#000000;stroke-width:1px;stroke-linecap:butt;stroke-linejoin:miter;stroke-opacity:1;display:inline"
       d="m 658.27564,31.929508 0,14.17322 -7.08662,-7.08661 -7.08661,7.08661 0,-14.17322"
       id="path2804" />
    <path
       style="fill:none;stroke:#000000;stroke-width:1px;stroke-linecap:butt;stroke-linejoin:miter;stroke-opacity:1;display:inline"
       d="m 696.48036,45.102738 -3.5433,-14.17322 -3.54331,7.08661 -3.54331,-7.08661 -3.5433,14.17322 0,0"
       id="path2838" />
    <path
       style="fill:none;stroke:#000000;stroke-width:1px;stroke-linecap:butt;stroke-linejoin:miter;stroke-opacity:1;display:inline"
       d="m 700.02367,45.102738 c 10.62992,0 7.08661,-7.08662 3.5433,-7.08662 -3.5433,0 -10.62992,-7.08661 3.54331,-7.08661"
       id="path2836"
       sodipodi:nodetypes="ccc" />
    <path
       style="fill:none;stroke:#000000;stroke-width:1px;stroke-linecap:butt;stroke-linejoin:miter;stroke-opacity:1;display:inline"
       d="m 707.11028,48.646048 0,14.17322 c -7.08662,0 -7.08662,-7.08661 0,-7.08661"
       id="path2827"
       sodipodi:nodetypes="ccc" />
    <path
       style="fill:none;stroke:#000000;stroke-width:1px;stroke-linecap:butt;stroke-linejoin:miter;stroke-opacity:1;display:inline"
       d="m 700.02366,62.819268 -3.5433,-14.17322 -3.54331,7.08661 -3.54331,-7.08661 -3.5433,14.17322 0,0"
       id="path2829" />
    <path
       style="fill:none;stroke:#000000;stroke-width:1px;stroke-linecap:butt;stroke-linejoin:miter;stroke-opacity:1;display:inline"
       d="m 682.30713,48.646048 0,14.17322 c -7.08662,0 -7.08662,-7.08661 0,-7.08661 l -3.54331,-7.08661"
       id="path2831"
       sodipodi:nodetypes="cccc" />
    <path
       style="fill:none;stroke:#000000;stroke-width:1px;stroke-linecap:butt;stroke-linejoin:miter;stroke-opacity:1;display:inline"
       d="m 772.16139,45.602728 -3.5433,-14.17322 -3.54331,7.08661 -3.54331,-7.08661 -3.5433,14.17322 0,0"
       id="path2857" />
    <path
       style="fill:none;stroke:#000000;stroke-width:1px;stroke-linecap:butt;stroke-linejoin:miter;stroke-opacity:1;display:inline"
       d="m 775.7047,45.602738 c 10.62992,0 7.08661,-7.08662 3.5433,-7.08662 -3.5433,0 -10.62992,-7.08661 3.54331,-7.08661"
       id="path2855"
       sodipodi:nodetypes="ccc" />
    <path
       style="fill:none;stroke:#000000;stroke-width:1px;stroke-linecap:butt;stroke-linejoin:miter;stroke-opacity:1;display:inline"
       d="m 765.57477,48.646048 0,14.17323 -7.08661,-14.17323 0,14.17323"
       id="path2878" />
    <path
       style="fill:none;stroke:#000000;stroke-width:1px;stroke-linecap:butt;stroke-linejoin:miter;stroke-opacity:1;display:inline"
       d="m 776.20469,62.819278 0,-10.62993 c 0,-3.5433 0,-3.5433 -3.5433,-3.5433 -3.54331,0 -3.54331,-1e-5 -3.54331,3.5433 l 0,10.62993"
       id="path2876"
       sodipodi:nodetypes="ccccc" />
    <path
       style="fill:none;stroke:#000000;stroke-width:1px;stroke-linecap:butt;stroke-linejoin:miter;stroke-opacity:1;display:inline"
       d="m 785.56298,48.146058 0,14.17322 c -7.08662,0 -7.08662,-7.08661 0,-7.08661 l -3.54331,-7.08661"
       id="path2853"
       sodipodi:nodetypes="cccc" />
    <path
       style="fill:none;stroke:#000000;stroke-width:1px;stroke-linecap:butt;stroke-linejoin:miter;stroke-opacity:1;display:inline"
       d="m 779.748,80.535808 c 9.60826,1.19185 13.20407,-15.34065 0,-14.17323"
       id="path2866"
       sodipodi:nodetypes="cc" />
    <path
       style="fill:none;stroke:#000000;stroke-width:1px;stroke-linecap:butt;stroke-linejoin:miter;stroke-opacity:1;display:inline"
       d="m 769.11808,80.535808 0,-14.17323"
       id="path2874" />
    <path
       style="fill:none;stroke:#000000;stroke-width:1px;stroke-linecap:butt;stroke-linejoin:miter;stroke-opacity:1;display:inline"
       d="m 776.20469,73.449198 -7.08661,0"
       id="path2872" />
    <path
       style="fill:none;stroke:#000000;stroke-width:1px;stroke-linecap:butt;stroke-linejoin:miter;stroke-opacity:1;display:inline"
       d="m 776.20469,80.535808 0,-14.17323"
       id="path2870" />
    <path
       style="fill:none;stroke:#000000;stroke-width:1px;stroke-linecap:butt;stroke-linejoin:miter;stroke-opacity:1;display:inline"
       d="m 758.48816,80.535808 c 3.8899,-0.19126 7.33625,-0.32906 7.08662,-7.08661 -0.24963,-6.75755 -3.54331,-7.08662 -7.08662,-7.08662 -3.54331,0 -3.54331,3.54331 -3.54331,3.54331 0,0 -1.02884,3.54262 3.54331,3.54331 l 0,0 0,0"
       id="path2868"
       sodipodi:nodetypes="czzzccc" />
    <path
       style="fill:none;stroke:#000000;stroke-width:1px;stroke-linecap:butt;stroke-linejoin:miter;stroke-opacity:1;display:inline"
       d="m 860.24408,46.102748 0,-14.17324"
       id="path2904" />
    <path
       style="fill:none;stroke:#000000;stroke-width:1px;stroke-linecap:butt;stroke-linejoin:miter;stroke-opacity:1;display:inline"
       d="m 867.33069,46.102748 -14.17322,0"
       id="path2902" />
    <path
       style="fill:none;stroke:#000000;stroke-width:1px;stroke-linecap:butt;stroke-linejoin:miter;stroke-opacity:1;display:inline"
       d="m 877.96061,39.016128 -7.08661,0"
       id="path2900" />
    <path
       style="fill:none;stroke:#000000;stroke-width:1px;stroke-linecap:butt;stroke-linejoin:miter;stroke-opacity:1;display:inline"
       d="m 881.50392,31.929518 -7.08661,14.17323 -7.08662,-14.17323"
       id="path2898" />
    <path
       style="fill:none;stroke:#000000;stroke-width:1px;stroke-linecap:butt;stroke-linejoin:miter;stroke-opacity:1;display:inline"
       d="m 888.59054,46.102748 0,-14.17323 c -7.08662,0 -7.08662,7.08661 0,7.08661 -7.08662,0 -7.08662,7.08662 0,7.08662 z"
       id="path2892"
       sodipodi:nodetypes="cccc" />
    <path
       style="fill:none;stroke:#000000;stroke-width:1px;stroke-linecap:butt;stroke-linejoin:miter;stroke-opacity:1"
       d="m 555.51969,81.535808 14.17322,0 -7.08661,7.08662 7.08661,7.08661 -14.17322,0"
       id="path2786" />
    <path
       sodipodi:type="arc"
       style="fill:none;stroke:#000000;stroke-opacity:1"
       id="path2790"
       sodipodi:cx="760.03937"
       sodipodi:cy="205.51175"
       sodipodi:rx="5.3149605"
       sodipodi:ry="7.0866141"
       d="m 765.35433,205.51175 a 5.3149605,7.0866141 0 1 1 -10.62992,0 5.3149605,7.0866141 0 1 1 10.62992,0 z"
       transform="matrix(0,1,-1,0,768.11805,-655.47206)" />
    <path
       style="fill:none;stroke:#000000;stroke-width:1px;stroke-linecap:butt;stroke-linejoin:miter;stroke-opacity:1"
       d="m 569.69291,113.42558 0,14.17323"
       id="path2792" />
    <path
       style="fill:none;stroke:#000000;stroke-width:1px;stroke-linecap:butt;stroke-linejoin:miter;stroke-opacity:1"
       d="m 569.69291,120.51219 -14.17322,0"
       id="path2794" />
    <path
       style="fill:none;stroke:#000000;stroke-width:1px;stroke-linecap:butt;stroke-linejoin:miter;stroke-opacity:1"
       d="m 570.59762,159.20673 -10.62993,0 c -3.5433,0 -3.5433,0 -3.5433,3.5433 0,3.54331 -10e-6,3.54331 3.5433,3.54331 l 10.62993,0"
       id="path2923"
       sodipodi:nodetypes="ccccc" />
    <path
       style="fill:none;stroke:#000000;stroke-width:1px;stroke-linecap:butt;stroke-linejoin:miter;stroke-opacity:1"
       d="m 570.19291,176.70511 c 0,-10.62992 -7.08662,-7.08661 -7.08662,-3.5433 0,3.5433 -7.08661,10.62992 -7.08661,-3.54331"
       id="path2925"
       sodipodi:nodetypes="ccc" />
    <path
       style="fill:none;stroke:#000000;stroke-width:1px;stroke-linecap:butt;stroke-linejoin:miter;stroke-opacity:1"
       d="m 570.69291,180.74844 -14.17323,0 c 0,7.08662 7.08661,7.08662 7.08661,0 0,7.08662 7.08662,7.08662 7.08662,0 z"
       id="path2932"
       sodipodi:nodetypes="cccc" />
    <path
       style="fill:none;stroke:#000000;stroke-width:1px;stroke-linecap:butt;stroke-linejoin:miter;stroke-opacity:1"
       d="m 644.60236,173.1618 c 0,-10.62992 -7.08662,-7.08661 -7.08662,-3.5433 0,3.5433 -7.08661,10.62992 -7.08661,-3.54331"
       id="path2939"
       sodipodi:nodetypes="ccc" />
    <path
       style="fill:none;stroke:#000000;stroke-width:1px;stroke-linecap:butt;stroke-linejoin:miter;stroke-opacity:1"
       d="m 645.10236,190.37834 -10.62993,0 c -3.5433,0 -3.5433,0 -3.5433,3.5433 0,3.54331 -10e-6,3.54331 3.5433,3.54331 l 10.62993,0"
       id="path2941"
       sodipodi:nodetypes="ccccc" />
    <path
       style="fill:none;stroke:#000000;stroke-width:1px;stroke-linecap:butt;stroke-linejoin:miter;stroke-opacity:1"
       d="m 645.10236,208.09488 c -0.19126,-3.8899 -0.32906,-7.33625 -7.08661,-7.08662 -6.75755,0.24963 -7.08662,3.54331 -7.08662,7.08662 0,3.54331 3.54331,3.54331 3.54331,3.54331 0,0 3.54262,1.02884 3.54331,-3.54331 l 0,0 0,0"
       id="path2943"
       sodipodi:nodetypes="czzzccc" />
    <path
       style="fill:none;stroke:#000000;stroke-width:1px;stroke-linecap:butt;stroke-linejoin:miter;stroke-opacity:1"
       d="m 645.10236,179.74842 -14.17323,0 0,7.08661"
       id="path2945" />
    <path
       style="fill:none;stroke:#000000;stroke-width:1px;stroke-linecap:butt;stroke-linejoin:miter;stroke-opacity:1"
       d="m 673.44881,219.53629 0,-14.17322 c 7.08662,0 7.08662,7.08661 0,7.08661"
       id="path2958"
       sodipodi:nodetypes="ccc" />
    <path
       style="fill:none;stroke:#000000;stroke-width:1px;stroke-linecap:butt;stroke-linejoin:miter;stroke-opacity:1"
       d="m 691.16534,205.36306 -7.08661,0 0,14.17323 7.08661,0"
       id="path2960" />
    <path
       style="fill:none;stroke:#000000;stroke-width:1px;stroke-linecap:butt;stroke-linejoin:miter;stroke-opacity:1"
       d="m 687.62204,212.44967 -3.54331,0"
       id="path2962" />
    <path
       style="fill:none;stroke:#000000;stroke-width:1px;stroke-linecap:butt;stroke-linejoin:miter;stroke-opacity:1"
       d="m 694.70865,219.53629 0,-14.17323"
       id="path2964" />
    <path
       style="fill:none;stroke:#000000;stroke-width:1px;stroke-linecap:butt;stroke-linejoin:miter;stroke-opacity:1"
       d="m 694.70866,205.55155 c 7.08661,-0.18849 7.08661,6.89812 -10e-6,6.89812 l 7.08662,7.08662"
       id="path2966"
       sodipodi:nodetypes="ccc" />
    <path
       style="fill:none;stroke:#000000;stroke-width:1px;stroke-linecap:butt;stroke-linejoin:miter;stroke-opacity:1"
       d="m 705.33857,219.53629 7.08662,0"
       id="path2968" />
    <path
       style="fill:none;stroke:#000000;stroke-width:1px;stroke-linecap:butt;stroke-linejoin:miter;stroke-opacity:1"
       d="m 708.88188,219.53629 0,-14.17323"
       id="path2970" />
    <path
       style="fill:none;stroke:#000000;stroke-width:1px;stroke-linecap:butt;stroke-linejoin:miter;stroke-opacity:1"
       d="m 705.33857,205.36306 7.08662,0"
       id="path2972" />
    <path
       style="fill:none;stroke:#000000;stroke-width:1px;stroke-linecap:butt;stroke-linejoin:miter;stroke-opacity:1"
       d="m 742.55118,205.47329 -7.08661,0 0,14.17323 7.08661,0"
       id="path2980" />
    <path
       style="fill:none;stroke:#000000;stroke-width:1px;stroke-linecap:butt;stroke-linejoin:miter;stroke-opacity:1"
       d="m 739.00787,212.44967 -3.54331,0"
       id="path2982" />
    <path
       style="fill:none;stroke:#000000;stroke-width:1px;stroke-linecap:butt;stroke-linejoin:miter;stroke-opacity:1"
       d="m 746.0945,205.55155 c 7.08661,-0.18849 7.08661,6.89812 -1e-5,6.89812 l 7.08662,7.08662"
       id="path2984"
       sodipodi:nodetypes="ccc" />
    <path
       style="fill:none;stroke:#000000;stroke-width:1px;stroke-linecap:butt;stroke-linejoin:miter;stroke-opacity:1"
       d="m 746.09449,219.53629 0,-14.17323"
       id="path2986" />
    <path
       style="fill:none;stroke:#000000;stroke-width:1px;stroke-linecap:butt;stroke-linejoin:miter;stroke-opacity:1"
       d="m 756.72441,219.53629 7.08661,-14.17323 7.08662,14.17323 0,0"
       id="path2988" />
    <path
       style="fill:none;stroke:#000000;stroke-width:1px;stroke-linecap:butt;stroke-linejoin:miter;stroke-opacity:1"
       d="m 767.35433,212.44967 -7.08661,0"
       id="path2992" />
    <path
       style="fill:none;stroke:#000000;stroke-width:1px;stroke-linecap:butt;stroke-linejoin:miter;stroke-opacity:1"
       d="m 774.44094,205.36306 0,14.17323 7.08662,0"
       id="path2994" />
    <path
       style="fill:none;stroke:#000000;stroke-width:1px;stroke-linecap:butt;stroke-linejoin:miter;stroke-opacity:1"
       d="m 694.66533,222.5796 0,14.17323 c 7.08662,0 7.08662,-7.08661 0,-7.08661 7.08662,0 7.08662,-7.08662 0,-7.08662 z"
       id="path2996"
       sodipodi:nodetypes="cccc" />
    <path
       sodipodi:type="arc"
       style="fill:none;stroke:#000000;stroke-opacity:1"
       id="path2998"
       sodipodi:cx="760.03937"
       sodipodi:cy="205.51175"
       sodipodi:rx="5.3149605"
       sodipodi:ry="7.0866141"
       d="m 765.35433,205.51175 a 5.3149605,7.0866141 0 1 1 -10.62992,0 5.3149605,7.0866141 0 1 1 10.62992,0 z"
       transform="matrix(-1,0,0,-1,1468.8779,435.17796)" />
    <path
       style="fill:none;stroke:#000000;stroke-width:1px;stroke-linecap:butt;stroke-linejoin:miter;stroke-opacity:1"
       d="m 733.64172,222.76809 c 7.08661,-0.18849 7.08661,6.89812 -10e-6,6.89812 l 7.08662,7.08662"
       id="path3000"
       sodipodi:nodetypes="ccc" />
    <path
       style="fill:none;stroke:#000000;stroke-width:1px;stroke-linecap:butt;stroke-linejoin:miter;stroke-opacity:1"
       d="m 733.64171,236.75283 0,-14.17323"
       id="path3002" />
    <path
       style="fill:none;stroke:#000000;stroke-width:1px;stroke-linecap:butt;stroke-linejoin:miter;stroke-opacity:1"
       d="m 716.42518,237.25283 7.08661,-14.17323 7.08662,14.17323 0,0"
       id="path3004" />
    <path
       style="fill:none;stroke:#000000;stroke-width:1px;stroke-linecap:butt;stroke-linejoin:miter;stroke-opacity:1"
       d="m 727.0551,230.16621 -7.08661,0"
       id="path3006" />
    <path
       style="fill:none;stroke:#000000;stroke-width:1px;stroke-linecap:butt;stroke-linejoin:miter;stroke-opacity:1"
       d="m 744.27163,236.75283 0,-14.17323 c 7.08662,0 7.08662,14.17323 0,14.17323 z"
       id="path3008"
       sodipodi:nodetypes="ccc" />
    <path
       style="fill:none;stroke:#000000;stroke-width:1px;stroke-linecap:butt;stroke-linejoin:miter;stroke-opacity:1"
       d="m 758.44486,222.5796 c -10.62992,0 -7.08661,7.08662 -3.5433,7.08662 3.5433,0 10.62992,7.08661 -3.54331,7.08661"
       id="path3010"
       sodipodi:nodetypes="ccc" />
    <g
       id="g169"
       transform="translate(0,14.17323)">
      <path
         sodipodi:nodetypes="ccc"
         id="path2958-2"
         d="m 715.9685,205.36306 0,-14.17322 c 7.08662,0 7.08662,7.08661 0,7.08661"
         style="fill:none;stroke:#000000;stroke-width:1px;stroke-linecap:butt;stroke-linejoin:miter;stroke-opacity:1;display:inline" />
    </g>
  </g>
</svg>
