<?xml version="1.0" encoding="UTF-8" standalone="no"?>
<!-- Created with Inkscape (http://www.inkscape.org/) -->
<svg
   xmlns:dc="http://purl.org/dc/elements/1.1/"
   xmlns:cc="http://creativecommons.org/ns#"
   xmlns:rdf="http://www.w3.org/1999/02/22-rdf-syntax-ns#"
   xmlns:svg="http://www.w3.org/2000/svg"
   xmlns="http://www.w3.org/2000/svg"
   xmlns:sodipodi="http://sodipodi.sourceforge.net/DTD/sodipodi-0.dtd"
   xmlns:inkscape="http://www.inkscape.org/namespaces/inkscape"
   width="1488.189"
   height="1062.9921"
   id="svg2"
   sodipodi:version="0.32"
   inkscape:version="0.46"
   version="1.0"
   sodipodi:docname="power.svg"
   inkscape:output_extension="org.inkscape.output.svg.inkscape">
  <defs
     id="defs4">
    <inkscape:perspective
       sodipodi:type="inkscape:persp3d"
       inkscape:vp_x="0 : 526.18109 : 1"
       inkscape:vp_y="0 : 1000 : 0"
       inkscape:vp_z="744.09448 : 526.18109 : 1"
       inkscape:persp3d-origin="372.04724 : 350.78739 : 1"
       id="perspective10" />
  </defs>
  <sodipodi:namedview
     id="base"
     pagecolor="#ffffff"
     bordercolor="#666666"
     borderopacity="1.0"
     gridtolerance="10000"
     guidetolerance="10"
     objecttolerance="10000"
     inkscape:pageopacity="0.0"
     inkscape:pageshadow="2"
     inkscape:zoom="2"
     inkscape:cx="818.17735"
     inkscape:cy="784.35002"
     inkscape:document-units="mm"
     inkscape:current-layer="layer1"
     showgrid="true"
     units="mm"
     inkscape:snap-bbox="true"
     inkscape:object-paths="true"
     inkscape:object-nodes="true"
     inkscape:bbox-paths="true"
     inkscape:bbox-nodes="true"
     showguides="true"
     inkscape:guide-bbox="true"
     inkscape:window-width="1280"
     inkscape:window-height="727"
     inkscape:window-x="0"
     inkscape:window-y="25">
    <inkscape:grid
       type="xygrid"
       id="grid2383"
       visible="true"
       enabled="true"
       units="mm"
       spacingx="1mm"
       spacingy="1mm"
       color="#b56e30"
       opacity="0.1254902"
       empcolor="#3da932"
       empopacity="0.25098039"
       empspacing="4" />
    <sodipodi:guide
       orientation="1,0"
       position="527.95276,838.21429"
       id="guide2385" />
    <sodipodi:guide
       orientation="1,0"
       position="177.16535,835"
       id="guide2387" />
    <sodipodi:guide
       orientation="0,1"
       position="1205.1199,708.62596"
       id="guide2389" />
    <sodipodi:guide
       orientation="0,1"
       position="107.85714,921.25984"
       id="guide2391" />
    <sodipodi:guide
       orientation="0,1"
       position="197.14286,935.43307"
       id="guide2393" />
    <sodipodi:guide
       orientation="0,1"
       position="292.14286,694.48819"
       id="guide2395" />
    <sodipodi:guide
       orientation="1,0"
       position="162.99213,816.42857"
       id="guide2397" />
    <sodipodi:guide
       orientation="1,0"
       position="92.125984,835.71429"
       id="guide2399" />
    <sodipodi:guide
       orientation="1,0"
       position="542.12598,832.14286"
       id="guide2401" />
    <sodipodi:guide
       orientation="1,0"
       position="612.99213,835"
       id="guide2403" />
    <sodipodi:guide
       orientation="1,0"
       position="627.16535,767.21086"
       id="guide2405" />
    <sodipodi:guide
       orientation="1,0"
       position="977.95276,787.41391"
       id="guide2407" />
    <sodipodi:guide
       orientation="1,0"
       position="992.12598,710.13724"
       id="guide2409" />
    <sodipodi:guide
       orientation="1,0"
       position="577.55906,944.28572"
       id="guide2411" />
    <sodipodi:guide
       orientation="1,0"
       position="127.55906,823.57143"
       id="guide2413" />
    <sodipodi:guide
       orientation="0,1"
       position="131.78571,744.09449"
       id="guide2417" />
    <sodipodi:guide
       orientation="0,1"
       position="48.571429,885.82677"
       id="guide2419" />
    <sodipodi:guide
       orientation="0,1"
       position="102.02541,559.84252"
       id="guide2432" />
    <sodipodi:guide
       orientation="0,1"
       position="45.961941,425.19685"
       id="guide2434" />
    <sodipodi:guide
       orientation="0,1"
       position="335.89286,680.31496"
       id="guide2436" />
    <sodipodi:guide
       orientation="0,1"
       position="324.46429,574.01575"
       id="guide2438" />
    <sodipodi:guide
       orientation="0,1"
       position="322.85714,545.66929"
       id="guide2440" />
    <sodipodi:guide
       orientation="0,1"
       position="321.96429,439.37008"
       id="guide2442" />
    <sodipodi:guide
       orientation="1,0"
       position="248.0315,769.98878"
       id="guide2444" />
    <sodipodi:guide
       orientation="1,0"
       position="318.89764,764.43294"
       id="guide2446" />
    <sodipodi:guide
       orientation="1,0"
       position="389.76378,764.68548"
       id="guide2448" />
    <sodipodi:guide
       orientation="1,0"
       position="439.37008,767.4634"
       id="guide2450" />
    <sodipodi:guide
       orientation="0,1"
       position="57.073619,637.79528"
       id="guide2463" />
    <sodipodi:guide
       orientation="0,1"
       position="44.951788,481.88976"
       id="guide2465" />
    <sodipodi:guide
       orientation="1,0"
       position="439.37008,486.38845"
       id="guide2467" />
    <sodipodi:guide
       orientation="0,1"
       position="486.48946,517.32283"
       id="guide2476" />
    <sodipodi:guide
       orientation="0,1"
       position="491.40625,631.25"
       id="guide2483" />
    <sodipodi:guide
       orientation="1,0"
       position="1126.7717,900.50048"
       id="guide2490" />
    <sodipodi:guide
       orientation="1,0"
       position="1261.4173,949.6444"
       id="guide2492" />
    <sodipodi:guide
       orientation="1,0"
       position="1006.2992,964.8472"
       id="guide2494" />
    <sodipodi:guide
       orientation="1,0"
       position="1112.5883,192.24466"
       id="guide2496" />
    <sodipodi:guide
       orientation="1,0"
       position="1140.9449,962.01877"
       id="guide2498" />
    <sodipodi:guide
       orientation="1,0"
       position="1247.2441,963.43299"
       id="guide2500" />
    <sodipodi:guide
       orientation="0,1"
       position="709.2281,878.74016"
       id="guide2502" />
    <sodipodi:guide
       orientation="0,1"
       position="717.71338,836.22047"
       id="guide2504" />
    <sodipodi:guide
       orientation="0,1"
       position="707.46033,793.70079"
       id="guide2506" />
    <sodipodi:guide
       orientation="0,1"
       position="682.00449,751.1811"
       id="guide2510" />
    <sodipodi:guide
       orientation="1,0"
       position="1048.8189,839.25"
       id="guide2536" />
    <sodipodi:guide
       orientation="1,0"
       position="1055.9055,854.5"
       id="guide2538" />
    <sodipodi:guide
       orientation="1,0"
       position="1087.7953,832.5"
       id="guide2540" />
    <sodipodi:guide
       orientation="1,0"
       position="1204.7244,831.25"
       id="guide2544" />
    <sodipodi:guide
       orientation="-0.70710678,0.70710678"
       position="913.5,945.5"
       id="guide2546" />
    <sodipodi:guide
       orientation="1,0"
       position="1197.6378,912.75"
       id="guide2548" />
  </sodipodi:namedview>
  <metadata
     id="metadata7">
    <rdf:RDF>
      <cc:Work
         rdf:about="">
        <dc:format>image/svg+xml</dc:format>
        <dc:type
           rdf:resource="http://purl.org/dc/dcmitype/StillImage" />
      </cc:Work>
    </rdf:RDF>
  </metadata>
  <g
     inkscape:label="Layer 1"
     inkscape:groupmode="layer"
     id="layer1">
    <path
       sodipodi:type="arc"
       style="fill:#ffffff;stroke:#000000"
       id="path2415"
       sodipodi:cx="248.03149"
       sodipodi:cy="177.1653"
       sodipodi:rx="7.0866141"
       sodipodi:ry="7.0866141"
       d="M 255.11811,177.1653 A 7.0866141,7.0866141 0 1 1 240.94488,177.1653 A 7.0866141,7.0866141 0 1 1 255.11811,177.1653 z"
       transform="translate(-120.47244,-4.6857699e-6)" />
    <path
       sodipodi:type="arc"
       style="fill:#ffffff;stroke:#000000"
       id="path2422"
       sodipodi:cx="248.03149"
       sodipodi:cy="177.1653"
       sodipodi:rx="7.0866141"
       sodipodi:ry="7.0866141"
       d="M 255.11811,177.1653 A 7.0866141,7.0866141 0 1 1 240.94488,177.1653 A 7.0866141,7.0866141 0 1 1 255.11811,177.1653 z"
       transform="translate(-120.47243,141.73228)" />
    <path
       sodipodi:type="arc"
       style="fill:#ffffff;stroke:#000000"
       id="path2424"
       sodipodi:cx="248.03149"
       sodipodi:cy="177.1653"
       sodipodi:rx="7.0866141"
       sodipodi:ry="7.0866141"
       d="M 255.11811,177.1653 A 7.0866141,7.0866141 0 1 1 240.94488,177.1653 A 7.0866141,7.0866141 0 1 1 255.11811,177.1653 z"
       transform="translate(329.52756,-3.0322267e-6)" />
    <path
       sodipodi:type="arc"
       style="fill:#ffffff;stroke:#000000"
       id="path2426"
       sodipodi:cx="248.03149"
       sodipodi:cy="177.1653"
       sodipodi:rx="7.0866141"
       sodipodi:ry="7.0866141"
       d="M 255.11811,177.1653 A 7.0866141,7.0866141 0 1 1 240.94488,177.1653 A 7.0866141,7.0866141 0 1 1 255.11811,177.1653 z"
       transform="translate(329.52757,141.73228)"
       inkscape:transform-center-x="5.5679481"
       inkscape:transform-center-y="2.137443" />
    <path
       style="fill:none;fill-rule:evenodd;stroke:#000000;stroke-width:1px;stroke-linecap:butt;stroke-linejoin:miter;stroke-opacity:1"
       d="M 92.125 127.5625 L 92.125 368.5 L 177.15625 368.5 L 177.15625 354.34375 L 248.03125 354.34375 L 248.03125 368.5 L 318.90625 368.5 L 318.90625 354.34375 L 389.75 354.34375 L 389.75 368.5 L 460.625 368.5 L 460.625 354.34375 L 527.9375 354.34375 L 527.9375 368.5 L 613 368.5 L 613 127.5625 L 527.9375 127.5625 L 527.9375 141.71875 L 460.625 141.71875 L 460.625 127.5625 L 389.75 127.5625 L 389.75 141.71875 L 318.90625 141.71875 L 318.90625 127.5625 L 248.03125 127.5625 L 248.03125 141.71875 L 177.15625 141.71875 L 177.15625 127.5625 L 92.125 127.5625 z "
       id="path2428" />
    <path
       style="fill:none;fill-rule:evenodd;stroke:#000000;stroke-width:1px;stroke-linecap:butt;stroke-linejoin:miter;stroke-opacity:1"
       d="M 616.55856,127.59763 L 616.55856,184.28513 L 630.71481,184.28513 L 630.71481,226.81638 L 616.55856,226.81638 L 616.55856,269.31638 L 630.71481,269.31638 L 630.71481,311.84763 L 616.55856,311.84763 L 616.55856,368.50388 L 630.71481,368.50388 L 630.71481,354.34763 L 698.05856,354.34763 L 698.05856,368.50388 L 698.05856,368.53513 L 889.37106,368.53513 L 889.37106,368.50388 L 889.37106,354.34763 L 981.49606,354.34763 L 981.49606,368.50388 L 995.68356,368.50388 L 995.68356,311.84763 L 981.49606,311.84763 L 981.49606,269.31638 L 995.68356,269.31638 L 995.68356,226.81638 L 981.49606,226.81638 L 981.49606,184.28513 L 995.68356,184.28513 L 995.68356,127.59763 L 981.49606,127.59763 L 981.49606,141.75388 L 914.18356,141.75388 L 914.18356,127.59763 L 843.30856,127.59763 L 843.30856,141.75388 L 772.46481,141.75388 L 772.46481,127.59763 L 701.58981,127.59763 L 701.58981,141.75388 L 630.71481,141.75388 L 630.71481,127.59763 L 616.55856,127.59763 z"
       id="path2430" />
    <path
       style="fill:none;fill-rule:evenodd;stroke:#000000;stroke-width:1px;stroke-linecap:butt;stroke-linejoin:miter;stroke-opacity:1"
       d="M 106.2783,372.03833 L 106.2783,386.19458 L 92.122051,386.19458 L 92.122051,464.16333 L 106.2783,464.16333 L 106.2783,478.31958 L 92.122051,478.31958 L 92.122051,492.50708 L 106.2783,492.50708 L 106.2783,506.66333 L 177.1533,506.66333 L 177.1533,492.50708 L 248.0283,492.50708 L 248.0283,506.66333 L 318.87205,506.66333 L 318.87205,492.50708 L 389.74705,492.50708 L 389.74705,506.66333 L 457.05955,506.66333 L 457.05955,492.50708 L 471.24705,492.50708 L 471.24705,478.31958 L 457.05955,478.31958 L 457.05955,464.16333 L 471.24705,464.16333 L 471.24705,386.19458 L 457.05955,386.19458 L 457.05955,372.03833 L 364.93455,372.03833 L 364.93455,386.19458 L 364.93455,391.69458 L 364.93455,442.91333 L 173.62205,442.91333 L 173.62205,400.38208 L 173.62205,386.19458 L 173.62205,372.03833 L 106.2783,372.03833 z"
       id="path2461" />
    <path
       style="fill:none;fill-rule:evenodd;stroke:#000000;stroke-width:1px;stroke-linecap:butt;stroke-linejoin:miter;stroke-opacity:1"
       d="M 389.74705,393.28833 L 389.74705,407.47583 L 368.49705,407.47583 L 368.49705,414.53833 L 432.2783,414.53833 L 432.2783,407.47583 L 396.8408,407.47583 L 396.8408,393.28833 L 389.74705,393.28833 z"
       id="path2478" />
    <path
       style="fill:none;fill-rule:evenodd;stroke:#000000;stroke-width:1px;stroke-linecap:butt;stroke-linejoin:miter;stroke-opacity:1"
       d="M 527.95276,184.25191 L 542.12598,184.25191 L 542.12598,226.77159 L 527.95276,226.77159 L 527.95276,184.25191 z"
       id="path2524" />
    <path
       style="fill:none;fill-rule:evenodd;stroke:#000000;stroke-width:1px;stroke-linecap:butt;stroke-linejoin:miter;stroke-opacity:1"
       d="M 527.95276,269.29128 L 542.12598,269.29128 L 542.12598,311.81096 L 527.95276,311.81096 L 527.95276,269.29128 z"
       id="path2526" />
    <path
       style="fill:none;fill-rule:evenodd;stroke:#000000;stroke-width:1px;stroke-linecap:butt;stroke-linejoin:miter;stroke-opacity:1"
       d="M 162.99213,184.25191 L 162.99213,226.77159 L 177.16535,226.77159 L 177.16535,184.25191 L 162.99213,184.25191 z"
       id="path2528" />
    <path
       style="fill:none;fill-rule:evenodd;stroke:#000000;stroke-width:1px;stroke-linecap:butt;stroke-linejoin:miter;stroke-opacity:1"
       d="M 162.99213,269.29128 L 177.16535,269.29128 L 177.16535,311.81096 L 162.99213,311.81096 L 162.99213,269.29128 z"
       id="path2530" />
    <path
       style="fill:none;fill-rule:evenodd;stroke:#000000;stroke-width:1px;stroke-linecap:butt;stroke-linejoin:miter;stroke-opacity:1"
       d="M 1091.3555,127.57597 L 1091.3555,141.73222 L 1013.3868,141.73222 L 1013.3868,145.29472 L 1070.0743,145.29472 L 1070.0743,184.26347 L 1013.3868,184.26347 L 999.23055,184.26347 L 999.23055,226.79472 L 1013.3868,226.79472 L 1013.3868,269.29472 L 999.23055,269.29472 L 999.23055,311.82597 L 1013.3868,311.82597 L 1013.3868,354.35722 L 1091.3555,354.35722 L 1091.3555,368.51347 L 1105.5118,368.51347 L 1105.5118,354.35722 L 1119.6993,354.35722 L 1119.6993,311.82597 L 1133.8555,311.82597 L 1133.8555,269.29472 L 1119.6993,269.29472 L 1119.6993,226.79472 L 1133.8555,226.79472 L 1133.8555,184.26347 L 1119.6993,184.26347 L 1119.6993,141.73222 L 1105.5118,141.73222 L 1105.5118,127.57597 L 1091.3555,127.57597 z"
       id="path2534" />
    <path
       style="fill:none;fill-rule:evenodd;stroke:#000000;stroke-width:1px;stroke-linecap:butt;stroke-linejoin:miter;stroke-opacity:1"
       d="M 1070.0871,233.87168 L 1027.5674,233.87168 L 1027.5674,276.39136 L 1070.0871,276.39136 L 1070.0871,233.87168 z"
       id="path2552" />
    <path
       style="fill:none;fill-rule:evenodd;stroke:#000000;stroke-width:1px;stroke-linecap:butt;stroke-linejoin:miter;stroke-opacity:1"
       d="M 1020.4808,201.98191 L 1027.5674,201.98191 L 1027.5674,212.61183 L 1020.4808,212.61183 L 1020.4808,201.98191 z"
       id="path2559" />
    <path
       style="fill:none;fill-rule:evenodd;stroke:#000000;stroke-width:1px;stroke-linecap:butt;stroke-linejoin:miter;stroke-opacity:1"
       d="M 1020.4808,287.02128 L 1027.5674,287.02128 L 1027.5674,297.6512 L 1020.4808,297.6512 L 1020.4808,287.02128 z"
       id="path2561" />
    <path
       style="fill:none;fill-rule:evenodd;stroke:#000000;stroke-width:1px;stroke-linecap:butt;stroke-linejoin:miter;stroke-opacity:1"
       d="M 967.3381,202.00357 L 974.4247,202.00357 L 974.4247,212.63349 L 967.3381,212.63349 L 967.3381,202.00357 z"
       id="path2563" />
    <path
       style="fill:none;fill-rule:evenodd;stroke:#000000;stroke-width:1px;stroke-linecap:butt;stroke-linejoin:miter;stroke-opacity:1"
       d="M 967.3381,287.04294 L 974.4247,287.04294 L 974.4247,297.67286 L 967.3381,297.67286 L 967.3381,287.04294 z"
       id="path2565" />
    <path
       style="fill:none;fill-rule:evenodd;stroke:#000000;stroke-width:1px;stroke-linecap:butt;stroke-linejoin:miter;stroke-opacity:1"
       d="M 701.55241,371.53291 L 630.70866,372.03291 L 630.70866,386.22041 L 559.83366,386.22041 L 559.83366,372.03291 L 488.95866,372.03291 L 488.95866,386.22041 L 474.80241,386.22041 L 474.80241,400.37666 L 488.95866,400.37666 L 488.95866,414.56416 L 474.80241,414.56416 L 474.80241,435.81416 L 488.95866,435.81416 L 496.05241,435.81416 L 804.30241,435.81416 L 804.30241,457.06416 L 814.92741,457.06416 L 814.92741,446.43916 L 825.58371,446.43916 L 825.58371,457.06416 L 853.92741,457.06416 L 853.92741,414.56416 L 839.73991,414.56416 L 839.73991,400.37666 L 853.92741,400.37666 L 853.92741,386.22041 L 839.73991,386.22041 L 839.73991,372.03291 L 772.42741,372.03291 L 772.42741,386.22041 L 701.55241,386.22041 L 701.55241,371.53291 z"
       id="path4386" />
    <path
       style="fill:none;fill-rule:evenodd;stroke:#000000;stroke-width:1px;stroke-linecap:butt;stroke-linejoin:miter;stroke-opacity:1"
       d="M 517.30856,439.37002 L 517.30856,496.05752 L 531.46481,496.05752 L 531.46481,510.24502 L 602.33981,510.24502 L 602.33981,496.05752 L 673.21481,496.05752 L 673.21481,510.24502 L 744.05856,510.24502 L 744.05856,496.05752 L 814.93351,496.05752 L 814.93351,510.24502 L 882.24601,510.24502 L 882.24601,496.05752 L 896.43361,496.05752 L 896.43361,460.65127 L 868.08981,460.65127 L 868.08981,449.99502 L 857.46481,449.99502 L 857.46481,460.65127 L 846.83981,460.65127 L 846.83981,471.27627 L 531.49606,471.27627 L 531.49606,439.37002 L 517.30856,439.37002 z"
       id="path4394" />
    <path
       style="fill:none;fill-rule:evenodd;stroke:#000000;stroke-width:1px;stroke-linecap:butt;stroke-linejoin:miter;stroke-opacity:1"
       d="M 1112.5881,386.23291 L 1070.0569,386.23291 L 1070.0569,372.04544 L 1027.5256,372.04544 L 1027.5256,386.23291 L 985.02559,386.23291 L 985.02559,372.04544 L 942.49425,372.04544 L 942.49425,386.23291 L 899.99425,386.23291 L 931.86925,435.82671 L 1045.2756,435.82671 L 1112.5881,386.23291 z"
       id="path4410" />
    <path
       style="fill:none;fill-rule:evenodd;stroke:#000000;stroke-width:1px;stroke-linecap:butt;stroke-linejoin:miter;stroke-opacity:1"
       d="M 1126.7229,403.91451 L 1112.5667,403.91451 L 1112.5667,389.78951 L 1045.2542,439.38321 L 1045.2542,471.25821 L 931.84785,471.25821 L 931.84785,439.38321 L 899.97285,389.78951 L 899.94155,389.78951 L 899.97285,403.94581 L 885.81655,403.94581 L 885.81655,418.13321 L 899.97285,418.13321 L 899.94155,496.07081 L 942.47285,496.07081 L 942.47285,510.25821 L 985.00419,510.25821 L 985.00419,496.07081 L 1027.5042,496.07081 L 1027.5042,510.25821 L 1070.0354,510.25821 L 1070.0354,496.07081 L 1112.5667,496.07081 L 1112.5667,418.10201 L 1126.7229,418.10201 L 1126.7229,403.91451 z"
       id="path4420" />
    <path
       sodipodi:type="arc"
       style="opacity:1;fill:none;fill-opacity:1;stroke:#000000;stroke-opacity:1"
       id="path4432"
       sodipodi:cx="462.40158"
       sodipodi:cy="338.38577"
       sodipodi:rx="5.3149605"
       sodipodi:ry="5.3149605"
       d="M 467.71654,338.38577 A 5.3149605,5.3149605 0 1 1 457.08662,338.38577 A 5.3149605,5.3149605 0 1 1 467.71654,338.38577 z"
       transform="translate(0.4999938,4.0433004)" />
    <path
       style="fill:none;fill-rule:evenodd;stroke:#000000;stroke-width:1px;stroke-linecap:butt;stroke-linejoin:miter;stroke-opacity:1"
       d="M 907.10187,209.09019 L 921.2751,209.09019 L 921.2751,194.91696 L 907.10187,194.91696 L 907.10187,209.09019 z"
       id="path4434" />
    <path
       style="fill:none;fill-rule:evenodd;stroke:#000000;stroke-width:1px;stroke-linecap:butt;stroke-linejoin:miter;stroke-opacity:1"
       d="M 308.26772,389.76365 L 308.26772,382.67705 L 301.18111,382.67705 L 301.18111,389.76365 L 265.74804,389.76365 L 265.74804,403.93695 L 301.18111,403.93695 L 301.18111,411.02355 L 308.26772,411.02355 L 308.26772,403.93695 L 336.61418,403.93695 C 337.69309,404.47445 338.84898,404.68655 340.15749,403.93695 L 340.15749,389.76365 L 308.26772,389.76365 z"
       id="path4436"
       sodipodi:nodetypes="cccccccccccccc" />
    <path
       style="fill:none;fill-rule:evenodd;stroke:#000000;stroke-width:1px;stroke-linecap:butt;stroke-linejoin:miter;stroke-opacity:1"
       d="M 227.27165,389.26366 L 227.27165,382.17706 L 220.18503,382.17706 L 220.18503,389.26366 L 184.75197,389.26366 L 184.75197,403.43696 L 220.18503,403.43696 L 220.18503,410.52356 L 227.27165,410.52356 L 227.27165,403.43696 L 255.61811,403.43696 C 256.69701,403.97446 257.85291,404.18656 259.16142,403.43696 L 259.16142,389.26366 C 258.27706,388.24212 257.26969,387.9893 256.01799,389.26366 L 227.27165,389.26366 z"
       id="path4453"
       sodipodi:nodetypes="ccccccccccccccc" />
  </g>
</svg>
