<?xml version="1.0" encoding="UTF-8" standalone="no"?>
<!-- Created with Inkscape (http://www.inkscape.org/) -->
<svg
   xmlns:dc="http://purl.org/dc/elements/1.1/"
   xmlns:cc="http://creativecommons.org/ns#"
   xmlns:rdf="http://www.w3.org/1999/02/22-rdf-syntax-ns#"
   xmlns:svg="http://www.w3.org/2000/svg"
   xmlns="http://www.w3.org/2000/svg"
   xmlns:sodipodi="http://sodipodi.sourceforge.net/DTD/sodipodi-0.dtd"
   xmlns:inkscape="http://www.inkscape.org/namespaces/inkscape"
   width="1488.189"
   height="1062.9921"
   id="svg2383"
   sodipodi:version="0.32"
   inkscape:version="0.46"
   version="1.0"
   sodipodi:docname="pwm.svg"
   inkscape:output_extension="org.inkscape.output.svg.inkscape">
  <defs
     id="defs2385">
    <inkscape:perspective
       sodipodi:type="inkscape:persp3d"
       inkscape:vp_x="0 : 526.18109 : 1"
       inkscape:vp_y="0 : 1000 : 0"
       inkscape:vp_z="744.09448 : 526.18109 : 1"
       inkscape:persp3d-origin="372.04724 : 350.78739 : 1"
       id="perspective2391" />
  </defs>
  <sodipodi:namedview
     id="base"
     pagecolor="#ffffff"
     bordercolor="#666666"
     borderopacity="1.0"
     gridtolerance="10000"
     guidetolerance="10"
     objecttolerance="10"
     inkscape:pageopacity="0.0"
     inkscape:pageshadow="2"
     inkscape:zoom="0.7"
     inkscape:cx="627.90757"
     inkscape:cy="929.73849"
     inkscape:document-units="mm"
     inkscape:current-layer="layer1"
     showgrid="true"
     units="mm"
     showguides="true"
     inkscape:guide-bbox="true"
     inkscape:window-width="1280"
     inkscape:window-height="727"
     inkscape:window-x="0"
     inkscape:window-y="25">
    <inkscape:grid
       type="xygrid"
       id="grid2393"
       visible="true"
       enabled="true"
       units="mm"
       spacingx="1mm"
       spacingy="1mm"
       color="#3ad712"
       opacity="0.1254902"
       empcolor="#ef8f32"
       empopacity="0.67058824"
       empspacing="4" />
    <sodipodi:guide
       orientation="1,0"
       position="177.16535,562.65497"
       id="guide2395" />
    <sodipodi:guide
       orientation="0,1"
       position="476.28693,708.66142"
       id="guide2397" />
    <sodipodi:guide
       orientation="1,0"
       position="162.99213,765.69563"
       id="guide2399" />
    <sodipodi:guide
       orientation="1,0"
       position="92.125984,749.53319"
       id="guide2401" />
    <sodipodi:guide
       orientation="1,0"
       position="354.33071,730.71429"
       id="guide4150" />
    <sodipodi:guide
       orientation="0,1"
       position="360.62446,694.48819"
       id="guide5071" />
    <sodipodi:guide
       orientation="0,1"
       position="335.37065,864.56693"
       id="guide5073" />
    <sodipodi:guide
       orientation="0,1"
       position="367.94807,850.3937"
       id="guide5075" />
    <sodipodi:guide
       orientation="0,1"
       position="356.33131,836.22047"
       id="guide5077" />
    <sodipodi:guide
       orientation="0,1"
       position="745.71429,729.92126"
       id="guide5079" />
    <sodipodi:guide
       orientation="0,1"
       position="703.92857,765.35433"
       id="guide5081" />
    <sodipodi:guide
       orientation="0,1"
       position="717.85714,800.7874"
       id="guide5083" />
    <sodipodi:guide
       orientation="1,0"
       position="248.0315,718.21846"
       id="guide5085" />
    <sodipodi:guide
       orientation="1,0"
       position="318.89764,728.31999"
       id="guide5087" />
    <sodipodi:guide
       orientation="1,0"
       position="389.76378,714.93546"
       id="guide5089" />
    <sodipodi:guide
       orientation="1,0"
       position="460.62992,696.50018"
       id="guide5091" />
    <sodipodi:guide
       orientation="1,0"
       position="531.49606,693.72226"
       id="guide5093" />
    <sodipodi:guide
       orientation="1,0"
       position="602.3622,693.9748"
       id="guide5095" />
    <sodipodi:guide
       orientation="1,0"
       position="673.22835,682.86312"
       id="guide5097" />
    <sodipodi:guide
       orientation="1,0"
       position="744.09449,680.0852"
       id="guide5099" />
    <sodipodi:guide
       orientation="1,0"
       position="786.61417,719.28572"
       id="guide5101" />
    <sodipodi:guide
       orientation="1,0"
       position="800.7874,694.46429"
       id="guide5103" />
    <sodipodi:guide
       orientation="0,1"
       position="209.10158,637.79528"
       id="guide5107" />
    <sodipodi:guide
       orientation="0,1"
       position="246.47722,623.62205"
       id="guide5109" />
    <sodipodi:guide
       orientation="0,1"
       position="258.09398,595.27559"
       id="guide5111" />
    <sodipodi:guide
       orientation="0,1"
       position="289.4087,588.18898"
       id="guide5113" />
    <sodipodi:guide
       orientation="0,1"
       position="229.30463,488.97638"
       id="guide5117" />
    <sodipodi:guide
       orientation="0,1"
       position="298.50008,481.88976"
       id="guide5119" />
    <sodipodi:guide
       orientation="0,1"
       position="86.071429,425.19685"
       id="guide5123" />
    <sodipodi:guide
       orientation="0,1"
       position="145,411.02362"
       id="guide5125" />
    <sodipodi:guide
       orientation="1,0"
       position="822.04724,845.49768"
       id="guide6330" />
    <sodipodi:guide
       orientation="1,0"
       position="836.22047,828.83016"
       id="guide6332" />
    <sodipodi:guide
       orientation="1,0"
       position="1048.8189,844.48753"
       id="guide6334" />
    <sodipodi:guide
       orientation="1,0"
       position="1034.6457,778.32254"
       id="guide6336" />
    <sodipodi:guide
       orientation="1,0"
       position="141.73228,816.70833"
       id="guide6340" />
    <sodipodi:guide
       orientation="1,0"
       position="127.55906,850.71429"
       id="guide6342" />
    <sodipodi:guide
       orientation="1,0"
       position="-85.03937,811.42857"
       id="guide6344" />
    <sodipodi:guide
       orientation="1,0"
       position="-70.866142,860.71429"
       id="guide6346" />
    <sodipodi:guide
       orientation="1,0"
       position="588.18898,601.25"
       id="guide6725" />
    <sodipodi:guide
       orientation="1,0"
       position="574.01575,600.26786"
       id="guide6727" />
    <sodipodi:guide
       orientation="1,0"
       position="82.327433,344.58829"
       id="guide6812" />
  </sodipodi:namedview>
  <metadata
     id="metadata2388">
    <rdf:RDF>
      <cc:Work
         rdf:about="">
        <dc:format>image/svg+xml</dc:format>
        <dc:type
           rdf:resource="http://purl.org/dc/dcmitype/StillImage" />
      </cc:Work>
    </rdf:RDF>
  </metadata>
  <g
     inkscape:label="Layer 1"
     inkscape:groupmode="layer"
     id="layer1"
     style="display:inline">
    <flowRoot
       xml:space="preserve"
       id="flowRoot2423"
       style="font-size:40px;font-style:normal;font-variant:normal;font-weight:normal;font-stretch:normal;fill:#000000;fill-opacity:1;stroke:none;stroke-width:1px;stroke-linecap:butt;stroke-linejoin:miter;stroke-opacity:1;font-family:Sans;-inkscape-font-specification:Sans"><flowRegion
         id="flowRegion2425"><rect
           id="rect2427"
           width="141.92644"
           height="120.20815"
           x="-16.162441"
           y="223.5553" /></flowRegion><flowPara
         id="flowPara2429"></flowPara></flowRoot>    <path
       style="fill:none;fill-rule:evenodd;stroke:#000000;stroke-width:1px;stroke-linecap:butt;stroke-linejoin:miter;stroke-opacity:1"
       d="M 800.7874,368.50388 L 800.7874,333.07081 L 786.61417,333.07081 L 786.61417,297.63773 L 800.7874,297.63774 L 800.7874,262.20466 L 786.61417,262.20466 L 786.61417,226.77159 L 800.7874,226.7716 L 800.7874,212.59837 L 744.09449,212.59837 L 744.09449,226.77159 L 673.22835,226.7716 L 673.22835,212.59836 L 602.3622,212.59836 L 602.3622,226.77159 L 531.49606,226.7716 L 531.49606,212.59836 L 460.62992,212.59836 L 460.62992,226.77159 L 389.76378,226.77159 L 389.76378,212.59836 L 368.50394,212.59836 L 368.50394,198.42514 L 318.89764,198.42514 L 318.89764,212.59837 L 248.0315,212.59836 L 248.0315,198.42514 L 177.16535,198.42514 L 177.16535,226.77159 L 162.99213,226.77159 L 162.99213,262.20467 L 177.16535,262.20467 L 177.16535,297.63774 L 162.99213,297.63773 L 162.99213,333.07081 L 177.16535,333.07081 L 177.16535,368.50388 L 248.0315,368.50388 L 248.0315,354.33065 L 318.89764,354.33065 L 318.89764,368.50388 L 389.76378,368.50388 L 389.76378,354.33065 L 460.62992,354.33065 L 460.62992,368.50388 L 531.49606,368.50388 L 531.49606,354.33065 L 602.3622,354.33065 L 602.3622,368.50388 L 673.22835,368.50388 L 673.22835,354.33065 L 744.09449,354.33065 L 744.09449,368.50388 L 800.7874,368.50388 z"
       id="path5105" />
    <path
       style="fill:none;fill-rule:evenodd;stroke:#000000;stroke-width:1px;stroke-linecap:butt;stroke-linejoin:miter;stroke-opacity:1"
       d="M 286.99926,375.59517 L 286.99926,396.87642 L 194.87426,460.65767 L 180.68676,460.65767 L 180.68676,474.81392 L 166.53051,474.81392 L 166.53051,503.15767 L 180.68676,503.15767 L 180.68676,531.50142 L 166.53051,531.50142 L 166.53051,559.84517 L 180.68676,559.84517 L 180.68676,588.18892 L 230.31176,588.18892 L 230.31176,531.50142 L 272.81176,531.50142 L 272.81176,588.18892 L 251.56176,588.18892 L 251.56176,602.37642 L 322.43676,602.37642 L 322.43676,588.18892 L 393.28051,588.18892 L 393.28051,602.37642 L 464.15551,602.37642 L 464.15551,588.18892 L 535.03051,588.18892 L 535.03051,602.37642 L 605.90551,602.37642 L 605.90551,588.18892 L 676.74926,588.18892 L 676.74926,602.37642 L 747.62426,602.37642 L 747.62426,588.18892 L 804.31176,588.18892 L 804.31176,559.84517 L 790.15551,559.84517 L 790.15551,531.50142 L 804.31176,531.50142 L 804.31176,503.15767 L 790.15551,503.15767 L 790.15551,474.81392 L 804.31176,474.81392 L 804.31176,446.47017 L 790.15551,446.47017 L 790.15551,418.12642 L 804.31176,418.12642 L 804.31176,389.78267 L 747.62426,389.78267 L 747.62426,375.59517 L 676.74926,375.59517 L 676.74926,389.78267 L 605.90551,389.78267 L 605.90551,375.59517 L 535.03051,375.59517 L 535.03051,389.78267 L 464.15551,389.78267 L 464.15551,375.59517 L 393.28051,375.59517 L 393.28051,389.78267 L 322.43676,389.78267 L 322.43676,375.59517 L 286.99926,375.59517 z"
       id="path5127" />
    <path
       style="fill:none;fill-rule:evenodd;stroke:#000000;stroke-width:1px;stroke-linecap:butt;stroke-linejoin:miter;stroke-opacity:1;display:inline"
       d="M 389.75 -42.53125 L 389.75 -28.34375 L 368.5 -28.34375 L 368.5 170.09375 L 389.75 170.09375 L 389.75 184.25 L 460.625 184.25 L 460.625 170.09375 L 531.5 170.09375 L 531.5 184.25 L 602.375 184.25 L 602.375 170.09375 L 673.21875 170.09375 L 673.21875 184.25 L 744.09375 184.25 L 744.09375 170.09375 L 800.78125 170.09375 L 800.78125 141.71875 L 786.625 141.71875 L 786.625 113.375 L 800.78125 113.375 L 800.78125 85.03125 L 786.625 85.03125 L 786.625 56.6875 L 800.78125 56.6875 L 800.78125 28.34375 L 786.625 28.34375 L 786.625 0 L 800.78125 0 L 800.78125 -28.34375 L 744.09375 -28.34375 L 744.09375 -42.53125 L 673.21875 -42.53125 L 673.21875 -28.34375 L 602.375 -28.34375 L 602.375 -42.53125 L 531.5 -42.53125 L 531.5 -28.34375 L 460.625 -28.34375 L 460.625 -42.53125 L 389.75 -42.53125 z "
       id="path6282" />
    <path
       style="fill:none;fill-rule:evenodd;stroke:#000000;stroke-width:1px;stroke-linecap:butt;stroke-linejoin:miter;stroke-opacity:1;display:inline"
       d="M 230.28125,-46.048962 L 230.28125,-31.861462 L 159.40625,-31.861462 L 159.40625,-3.5177116 L 145.25,-3.5177116 L 145.25,24.826038 L 159.40625,24.826038 L 159.40625,53.169785 L 145.25,53.169785 L 145.25,81.513535 L 159.40625,81.513535 L 159.40625,95.701035 L 177.125,63.794785 L 177.125,31.919785 L 233.8125,31.919785 L 233.8125,63.794785 L 265.71875,159.48228 L 265.71875,180.73228 L 301.15625,180.73228 L 301.15625,166.57603 L 364.9375,166.57603 L 364.9375,-31.861462 L 301.15625,-31.861462 L 301.15625,-46.048962 L 230.28125,-46.048962 z"
       id="path6288" />
    <path
       style="fill:none;fill-rule:evenodd;stroke:#000000;stroke-width:1px;stroke-linecap:butt;stroke-linejoin:miter;stroke-opacity:1;display:inline"
       d="M 166.52165,605.90471 L 166.52165,775.96721 L 251.5529,775.96721 L 262.1779,775.96721 L 322.4279,775.96721 L 322.4279,761.81096 L 393.3029,761.81096 L 393.3029,775.96721 L 464.14665,775.96721 L 464.14665,761.81096 L 535.02165,761.81096 L 535.02165,775.96721 L 605.89665,775.96721 L 605.89665,761.81096 L 676.77165,761.81096 L 676.77165,775.96721 L 747.6154,775.96721 L 747.6154,761.81096 L 818.4904,761.81096 L 818.4904,775.96721 L 853.9279,775.96721 L 875.1779,775.96721 L 946.0529,775.96721 L 946.0529,620.06096 L 875.1779,620.06096 L 853.9279,620.06096 L 818.4904,620.06096 L 818.4904,634.24846 L 747.6154,634.24846 L 747.6154,620.06096 L 676.77165,620.06096 L 676.77165,634.24846 L 605.89665,634.24846 L 605.89665,620.06096 L 535.02165,620.06096 L 535.02165,634.24846 L 464.14665,634.24846 L 464.14665,620.06096 L 442.89665,620.06096 L 442.89665,605.90471 L 393.3029,605.90471 L 393.3029,620.06096 L 322.4279,620.06096 L 322.4279,605.90471 L 262.1779,605.90471 L 251.5529,605.90471 L 166.52165,605.90471 z"
       id="path6300" />
    <path
       style="fill:none;fill-rule:evenodd;stroke:#000000;stroke-width:1px;stroke-linecap:butt;stroke-linejoin:miter;stroke-opacity:1"
       d="M 237.38878,669.66966 L 251.562,669.66966 L 251.562,634.23659 L 237.38878,634.23659 L 237.38878,669.66966 z"
       id="path6309" />
    <path
       style="fill:none;fill-rule:evenodd;stroke:#000000;stroke-width:1px;stroke-linecap:butt;stroke-linejoin:miter;stroke-opacity:1"
       d="M 251.562,705.10273 L 237.38878,705.10273 L 237.38878,740.5358 L 251.562,740.5358 L 251.562,705.10273 z"
       id="path6311" />
    <path
       style="fill:none;fill-rule:evenodd;stroke:#000000;stroke-width:1px;stroke-linecap:butt;stroke-linejoin:miter;stroke-opacity:1"
       d="M 861.01082,740.5358 L 875.18405,740.5358 L 875.18405,705.10273 L 861.01082,705.10273 L 861.01082,740.5358 z"
       id="path6321" />
    <path
       style="fill:none;fill-rule:evenodd;stroke:#000000;stroke-width:1px;stroke-linecap:butt;stroke-linejoin:miter;stroke-opacity:1"
       d="M 861.01082,634.23659 L 875.18405,634.23659 L 875.18405,669.66966 L 861.01082,669.66966 L 861.01082,634.23659 z"
       id="path6323" />
    <path
       style="fill:none;fill-rule:evenodd;stroke:#000000;stroke-width:1px;stroke-linecap:butt;stroke-linejoin:miter;stroke-opacity:1"
       d="M 818.48696,131.11042 L 818.48696,145.29792 L 804.33071,145.29792 L 804.33071,180.73542 L 818.48696,180.73542 L 818.48696,216.14167 L 804.33071,216.14167 L 804.33071,251.57917 L 818.48696,251.57917 L 818.48696,287.01667 L 846.83071,287.01667 L 846.83071,272.86042 L 875.17446,272.86042 L 875.17446,287.01667 L 903.51821,287.01667 L 903.51821,272.86042 L 931.86196,272.86042 L 931.86196,287.01667 L 960.20571,287.01667 L 960.20571,272.86042 L 988.58071,272.86042 L 988.58071,287.01667 L 1016.9244,287.01667 L 1016.9244,272.86042 L 1016.9244,251.57917 L 1031.0807,251.57917 L 1031.0807,216.14167 L 1016.9244,216.14167 L 1016.9244,180.73542 L 1031.0807,180.73542 L 1031.0807,145.29792 L 1016.9244,145.29792 L 1016.9244,131.11042 L 988.58071,131.11042 L 988.58071,145.29792 L 960.20571,145.29792 L 960.20571,131.11042 L 931.86196,131.11042 L 931.86196,145.29792 L 903.51821,145.29792 L 903.51821,131.11042 L 875.17446,131.11042 L 875.17446,145.29792 L 846.83071,145.29792 L 846.83071,131.11042 L 818.48696,131.11042 z"
       id="path6338" />
    <path
       style="fill:none;fill-rule:evenodd;stroke:#000000;stroke-width:1px;stroke-linecap:butt;stroke-linejoin:miter;stroke-opacity:1"
       d="M 949.61445,-42.494642 L 949.61445,127.56785 L 963.80195,127.56785 L 963.80195,113.4116 L 992.1457,113.4116 L 992.1457,127.56785 L 1034.6457,127.56785 L 1034.6457,92.130353 L 1020.4894,92.130353 L 1020.4894,56.692853 L 1034.6457,56.692853 L 1034.6457,21.286608 L 1020.4894,21.286608 L 1020.4894,-14.150892 L 1034.6457,-14.150892 L 1034.6457,-42.494642 L 992.1457,-42.494642 L 992.1457,-28.338392 L 963.80195,-28.338392 L 963.80195,-42.494642 L 949.61445,-42.494642 z"
       id="path6348" />
    <path
       style="fill:none;fill-rule:evenodd;stroke:#000000;stroke-width:1px;stroke-linecap:butt;stroke-linejoin:miter;stroke-opacity:1"
       d="M 194.88189,347.24403 L 194.88189,240.94482 L 230.31496,240.94482 L 230.31496,347.24403 L 194.88189,347.24403 z"
       id="path6350" />
    <path
       style="fill:none;fill-rule:evenodd;stroke:#000000;stroke-width:1px;stroke-linecap:butt;stroke-linejoin:miter;stroke-opacity:1"
       d="M 318.89764,283.46451 L 333.07087,283.46451 L 333.07087,269.29128 L 318.89764,269.29128 L 318.89764,283.46451 L 318.89764,283.46451 z"
       id="path6354" />
    <path
       style="fill:none;stroke:#000000;stroke-width:1px;stroke-linecap:butt;stroke-linejoin:miter;stroke-opacity:1;display:inline"
       d="M 942.51979,304.72436 L 942.51969,294.09443 L 903.54339,294.09443 L 903.54339,325.9842 L 942.51979,325.98426 L 942.51979,318.89766 L 967.32289,318.89759 C 967.32289,322.44089 974.40949,318.89758 974.40949,318.89766 L 974.40949,304.72436 L 942.51979,304.72436 L 942.51979,304.72436 z"
       id="path4453"
       sodipodi:nodetypes="ccccccccccc" />
    <path
       style="fill:none;fill-rule:evenodd;stroke:#000000;stroke-width:1px;stroke-linecap:butt;stroke-linejoin:miter;stroke-opacity:1"
       d="M 591.71949,425.21076 L 591.71949,439.38399 L 591.71949,453.55722 L 577.54626,453.55722 L 577.54626,425.21076 L 591.71949,425.21076 z"
       id="path6723" />
    <path
       style="fill:none;fill-rule:evenodd;stroke:#000000;stroke-width:1px;stroke-linecap:butt;stroke-linejoin:miter;stroke-opacity:1"
       d="M 574.01575,134.64561 L 588.18898,134.64561 L 588.18898,106.29915 L 574.01575,106.29915 L 574.01575,134.64561 z"
       id="path6729" />
    <path
       style="fill:none;fill-rule:evenodd;stroke:#000000;stroke-width:1px;stroke-linecap:butt;stroke-linejoin:miter;stroke-opacity:1"
       d="M 807.87402,318.89758 L 807.87402,304.72435 L 836.22047,304.72435 L 836.22047,318.89758 L 850.3937,318.89758 L 850.3937,446.45663 L 836.22047,446.45663 L 836.22047,460.62986 L 807.87402,460.62986 L 807.87402,318.89758 z"
       id="path6731" />
    <path
       style="fill:none;fill-rule:evenodd;stroke:#000000;stroke-width:1px;stroke-linecap:butt;stroke-linejoin:miter;stroke-opacity:1;display:inline"
       d="M 173.62205,77.952695 L 155.9033,109.8277 L 155.87205,109.8277 L 155.87205,124.01519 L 141.7158,124.01519 L 141.7158,152.35894 L 155.87205,152.35894 L 155.87205,180.73394 L 226.74705,180.73394 L 226.74705,194.89019 L 262.18455,194.89019 L 262.18455,173.60894 L 230.30955,77.952695 L 173.62205,77.952695 z"
       id="path6767" />
    <path
       style="fill:none;fill-rule:evenodd;stroke:#000000;stroke-width:1px;stroke-linecap:butt;stroke-linejoin:miter;stroke-opacity:1"
       d="M 765.35433,255.11805 L 765.35433,244.48813 L 772.44094,244.48813 L 772.44094,255.11805 L 765.35433,255.11805 z"
       id="path6785" />
    <path
       style="fill:none;fill-rule:evenodd;stroke:#000000;stroke-width:1px;stroke-linecap:butt;stroke-linejoin:miter;stroke-opacity:1"
       d="M 765.35433,311.81096 L 772.44094,311.81096 L 772.44094,322.44088 L 765.35433,322.44088 L 765.35433,311.81096 z"
       id="path6787" />
    <path
       style="fill:none;fill-rule:evenodd;stroke:#000000;stroke-width:1px;stroke-linecap:butt;stroke-linejoin:miter;stroke-opacity:1;display:inline"
       d="M 832.66191,173.63472 L 832.66191,163.0048 L 839.74852,163.0048 L 839.74852,173.63472 L 832.66191,173.63472 z"
       id="path6789" />
    <path
       style="fill:none;fill-rule:evenodd;stroke:#000000;stroke-width:1px;stroke-linecap:butt;stroke-linejoin:miter;stroke-opacity:1;display:inline"
       d="M 832.66191,230.32763 L 839.74852,230.32763 L 839.74852,240.95755 L 832.66191,240.95755 L 832.66191,230.32763 z"
       id="path6791" />
    <path
       style="fill:none;fill-rule:evenodd;stroke:#000000;stroke-width:1px;stroke-linecap:butt;stroke-linejoin:miter;stroke-opacity:1;display:inline"
       d="M 818.5175,-42.481912 L 818.5175,-14.138162 L 804.36125,-14.138162 L 804.36125,21.299338 L 818.5175,21.299338 L 818.5175,56.705583 L 804.36125,56.705583 L 804.36125,92.143083 L 818.5175,92.143083 L 818.5175,127.58058 L 846.86125,127.58058 L 846.86125,113.42433 L 875.205,113.42433 L 875.205,127.58058 L 903.58,127.58058 L 903.58,113.42433 L 917.73625,113.42433 L 931.92375,113.42433 L 931.92375,127.58058 L 946.08,127.58058 L 946.08,-42.481912 L 931.92375,-42.481912 L 931.92375,-28.325662 L 917.73625,-28.325662 L 903.58,-28.325662 L 903.58,-42.481912 L 875.205,-42.481912 L 875.205,-28.325662 L 846.86125,-28.325662 L 846.86125,-42.481912 L 818.5175,-42.481912 z"
       id="path6796" />
    <path
       style="fill:none;fill-rule:evenodd;stroke:#000000;stroke-width:1px;stroke-linecap:butt;stroke-linejoin:miter;stroke-opacity:1;display:inline"
       d="M 248.01063,372.04959 L 248.01063,386.23709 L 177.13563,386.23709 L 177.13563,414.58084 L 162.97933,414.58084 L 162.97933,442.92459 L 177.13563,442.92459 L 177.13563,457.11209 L 191.32313,457.11209 L 283.44813,393.33084 L 283.44813,372.04959 L 248.01063,372.04959 z"
       id="path6804" />
    <path
       sodipodi:type="arc"
       style="opacity:1;fill:none;fill-opacity:1;stroke:#000000;stroke-opacity:1"
       id="path6810"
       sodipodi:cx="49.6063"
       sodipodi:cy="687.40149"
       sodipodi:rx="7.0866141"
       sodipodi:ry="7.0866141"
       d="M 56.692914,687.40149 A 7.0866141,7.0866141 0 1 1 42.519686,687.40149 A 7.0866141,7.0866141 0 1 1 56.692914,687.40149 z"
       transform="translate(152.34941,-38.991672)" />
    <path
       sodipodi:type="arc"
       style="opacity:1;fill:none;fill-opacity:1;stroke:#000000;stroke-opacity:1;display:inline"
       id="path6816"
       sodipodi:cx="49.6063"
       sodipodi:cy="687.40149"
       sodipodi:rx="7.0866141"
       sodipodi:ry="7.0866141"
       d="M 56.692914,687.40149 A 7.0866141,7.0866141 0 1 1 42.519686,687.40149 A 7.0866141,7.0866141 0 1 1 56.692914,687.40149 z"
       transform="translate(152.34941,46.0477)" />
    <path
       sodipodi:type="arc"
       style="opacity:1;fill:none;fill-opacity:1;stroke:#000000;stroke-opacity:1;display:inline"
       id="path6818"
       sodipodi:cx="49.6063"
       sodipodi:cy="687.40149"
       sodipodi:rx="7.0866141"
       sodipodi:ry="7.0866141"
       d="M 56.692914,687.40149 A 7.0866141,7.0866141 0 1 1 42.519686,687.40149 A 7.0866141,7.0866141 0 1 1 56.692914,687.40149 z"
       transform="translate(861.01082,46.0477)" />
    <path
       sodipodi:type="arc"
       style="opacity:1;fill:none;fill-opacity:1;stroke:#000000;stroke-opacity:1;display:inline"
       id="path6820"
       sodipodi:cx="49.6063"
       sodipodi:cy="687.40149"
       sodipodi:rx="7.0866141"
       sodipodi:ry="7.0866141"
       d="M 56.692914,687.40149 A 7.0866141,7.0866141 0 1 1 42.519686,687.40149 A 7.0866141,7.0866141 0 1 1 56.692914,687.40149 z"
       transform="translate(861.01082,-24.818444)" />
    <path
       style="fill:none;fill-rule:evenodd;stroke:#000000;stroke-width:1px;stroke-linecap:butt;stroke-linejoin:miter;stroke-opacity:1;display:inline"
       d="M 372.03445,403.95092 L 372.03445,418.12415 L 372.03445,432.29738 L 357.86122,432.29738 L 357.86122,403.95092 L 372.03445,403.95092 z"
       id="path6822" />
    <path
       style="fill:none;fill-rule:evenodd;stroke:#000000;stroke-width:1px;stroke-linecap:butt;stroke-linejoin:miter;stroke-opacity:1;display:inline"
       d="M 350.75393,124.04103 L 350.75393,138.21426 L 350.75393,152.38749 L 336.5807,152.38749 L 336.5807,124.04103 L 350.75393,124.04103 z"
       id="path6824" />
    <path
       style="fill:none;fill-rule:evenodd;stroke:#000000;stroke-width:1px;stroke-linecap:butt;stroke-linejoin:miter;stroke-opacity:1;display:inline"
       d="M 854.07762,304.55316 L 854.07762,290.37993 L 882.42407,290.37993 L 882.42407,304.55316 L 896.59732,304.55316 L 896.45672,446.45663 L 882.28346,446.45663 L 882.28346,460.62986 L 853.93701,460.62986 L 854.07762,304.55316 z"
       id="path6826"
       sodipodi:nodetypes="cccccccccc" />
    <path
       style="fill:none;fill-rule:evenodd;stroke:#000000;stroke-width:1px;stroke-linecap:butt;stroke-linejoin:miter;stroke-opacity:1"
       d="M 244.47539,520.88004 L 244.47539,506.70682 C 251.562,506.70682 251.562,513.79343 244.47539,513.79343"
       id="path6828"
       sodipodi:nodetypes="ccc" />
    <path
       style="fill:none;fill-rule:evenodd;stroke:#000000;stroke-width:1px;stroke-linecap:butt;stroke-linejoin:miter;stroke-opacity:1"
       d="M 255.10531,506.70682 L 255.10531,520.88004 C 262.19192,520.88004 262.19192,513.79343 255.10531,513.79343 C 262.19192,513.79343 262.19192,506.70682 255.10531,506.70682 z"
       id="path6830"
       sodipodi:nodetypes="cccc" />
    <path
       sodipodi:type="arc"
       style="fill:none;stroke:#000000;stroke-opacity:1;display:inline"
       id="path2820"
       sodipodi:cx="760.03937"
       sodipodi:cy="205.51175"
       sodipodi:rx="5.3149605"
       sodipodi:ry="7.0866141"
       d="M 765.35433,205.51175 A 5.3149605,7.0866141 0 1 1 754.72441,205.51175 A 5.3149605,7.0866141 0 1 1 765.35433,205.51175 z"
       transform="translate(-499.67633,-133.00615)" />
    <path
       style="fill:none;stroke:#000000;stroke-width:1px;stroke-linecap:butt;stroke-linejoin:miter;stroke-opacity:1;display:inline"
       d="M 274.53627,79.592215 L 270.99296,65.418985 L 267.44966,79.592215 L 267.44966,79.592215"
       id="path2814" />
    <path
       style="fill:none;stroke:#000000;stroke-width:1px;stroke-linecap:butt;stroke-linejoin:miter;stroke-opacity:1;display:inline"
       d="M 278.07958,79.592215 C 288.7095,79.592215 285.16619,72.505595 281.62288,72.505595 C 278.07958,72.505595 270.99296,65.418985 285.16619,65.418985"
       id="path2812"
       sodipodi:nodetypes="ccc" />
    <g
       id="g6999"
       transform="matrix(-1,0,0,-1,563.37203,-96.690191)">
      <path
         sodipodi:nodetypes="ccc"
         id="path6991"
         d="M 287.02755,-142.77847 L 287.02755,-156.95169 C 294.11416,-156.95169 294.11416,-149.86508 287.02755,-149.86508"
         style="fill:none;fill-rule:evenodd;stroke:#000000;stroke-width:1px;stroke-linecap:butt;stroke-linejoin:miter;stroke-opacity:1;display:inline" />
      <path
         sodipodi:nodetypes="cccc"
         id="path6993"
         d="M 297.65747,-156.95169 L 297.65747,-142.77847 C 304.74408,-142.77847 304.74408,-149.86508 297.65747,-149.86508 C 304.74408,-149.86508 304.74408,-156.95169 297.65747,-156.95169 z"
         style="fill:none;fill-rule:evenodd;stroke:#000000;stroke-width:1px;stroke-linecap:butt;stroke-linejoin:miter;stroke-opacity:1;display:inline" />
      <path
         sodipodi:nodetypes="cccc"
         id="path6995"
         d="M 304.72441,-159.44888 C 311.81103,-152.36227 311.81103,-145.27565 304.72441,-138.18904 L 304.72441,-138.18904 L 304.72441,-138.18904"
         style="fill:none;fill-rule:evenodd;stroke:#000000;stroke-width:1px;stroke-linecap:butt;stroke-linejoin:miter;stroke-opacity:1" />
      <path
         sodipodi:nodetypes="cccc"
         id="path6997"
         d="M 283.46457,-159.44888 C 276.37795,-152.36227 276.37795,-145.27565 283.46457,-138.18904 L 283.46457,-138.18904 L 283.46457,-138.18904"
         style="fill:none;fill-rule:evenodd;stroke:#000000;stroke-width:1px;stroke-linecap:butt;stroke-linejoin:miter;stroke-opacity:1;display:inline" />
    </g>
    <g
       id="g7086"
       transform="matrix(0,-1,1,0,17.528097,604.13389)">
      <path
         transform="matrix(-1,0,0,-1,1082.4804,446.64507)"
         d="M 765.35433,205.51175 A 5.3149605,7.0866141 0 1 1 754.72441,205.51175 A 5.3149605,7.0866141 0 1 1 765.35433,205.51175 z"
         sodipodi:ry="7.0866141"
         sodipodi:rx="5.3149605"
         sodipodi:cy="205.51175"
         sodipodi:cx="760.03937"
         id="path7005"
         style="fill:none;stroke:#000000;stroke-opacity:1;display:inline"
         sodipodi:type="arc" />
      <path
         id="path7007"
         d="M 308.26774,234.0467 L 311.81105,248.21993 L 315.35435,234.0467 L 315.35435,234.0467"
         style="fill:none;stroke:#000000;stroke-width:1px;stroke-linecap:butt;stroke-linejoin:miter;stroke-opacity:1;display:inline" />
      <path
         sodipodi:nodetypes="ccc"
         id="path7009"
         d="M 287.00789,234.0467 C 276.37797,234.0467 279.92128,241.13332 283.46459,241.13332 C 287.00789,241.13332 294.09451,248.21993 279.92128,248.21993"
         style="fill:none;stroke:#000000;stroke-width:1px;stroke-linecap:butt;stroke-linejoin:miter;stroke-opacity:1;display:inline" />
      <path
         id="path2960"
         d="M 297.6378,233.85821 L 290.55119,233.85821 L 290.55119,248.03144 L 297.6378,248.03144"
         style="fill:none;stroke:#000000;stroke-width:1px;stroke-linecap:butt;stroke-linejoin:miter;stroke-opacity:1;display:inline" />
      <path
         id="path2962"
         d="M 294.0945,240.94482 L 290.55119,240.94482"
         style="fill:none;stroke:#000000;stroke-width:1px;stroke-linecap:butt;stroke-linejoin:miter;stroke-opacity:1;display:inline" />
      <path
         id="path2964"
         d="M 301.18111,248.03144 L 301.18111,233.85821"
         style="fill:none;stroke:#000000;stroke-width:1px;stroke-linecap:butt;stroke-linejoin:miter;stroke-opacity:1;display:inline" />
      <path
         sodipodi:nodetypes="ccc"
         id="path2966"
         d="M 301.18112,234.0467 C 308.26773,233.85821 308.26773,240.94482 301.18111,240.94482 L 308.26773,248.03144"
         style="fill:none;stroke:#000000;stroke-width:1px;stroke-linecap:butt;stroke-linejoin:miter;stroke-opacity:1;display:inline" />
      <path
         sodipodi:nodetypes="ccc"
         id="path3010"
         d="M 336.61419,234.0467 C 325.98427,234.0467 329.52758,241.13332 333.07089,241.13332 C 336.61419,241.13332 343.70081,248.21993 329.52758,248.21993"
         style="fill:none;stroke:#000000;stroke-width:1px;stroke-linecap:butt;stroke-linejoin:miter;stroke-opacity:1;display:inline" />
    </g>
    <g
       id="g7074"
       transform="matrix(0,-1,1,0,-53.149535,574.01569)">
      <path
         id="path7052"
         d="M 251.5748,290.55112 L 255.1181,287.00782 L 255.1181,301.18104"
         style="fill:none;fill-rule:evenodd;stroke:#000000;stroke-width:1px;stroke-linecap:butt;stroke-linejoin:miter;stroke-opacity:1" />
      <path
         id="path7054"
         d="M 251.5748,301.18104 L 258.66141,301.18104"
         style="fill:none;fill-rule:evenodd;stroke:#000000;stroke-width:1px;stroke-linecap:butt;stroke-linejoin:miter;stroke-opacity:1" />
      <path
         sodipodi:nodetypes="ccccc"
         id="path7056"
         d="M 262.20472,290.55112 C 262.20472,287.00782 262.20472,287.00782 265.74803,287.00782 C 269.29134,287.00782 269.29134,287.00782 269.29134,290.55112 L 262.20472,301.18104 L 269.29134,301.18104"
         style="fill:none;fill-rule:evenodd;stroke:#000000;stroke-width:1px;stroke-linecap:butt;stroke-linejoin:miter;stroke-opacity:1" />
      <path
         sodipodi:nodetypes="ccccccc"
         id="path7058"
         d="M 272.83465,290.55111 C 272.83465,287.00781 272.83465,287.00781 276.37795,287.00781 C 279.92126,287.00781 279.92126,287.00781 279.92126,290.55111 L 276.37795,294.09442 L 279.92126,297.63773 C 279.92126,301.18103 279.92126,301.18103 276.37795,301.18103 C 272.83465,301.18103 272.83465,301.18103 272.83465,297.63773"
         style="fill:none;fill-rule:evenodd;stroke:#000000;stroke-width:1px;stroke-linecap:butt;stroke-linejoin:miter;stroke-opacity:1" />
      <path
         id="path7062"
         d="M 287.00787,301.18104 L 287.00787,287.00781 L 283.46456,294.09442 L 290.55118,294.09442"
         style="fill:none;fill-rule:evenodd;stroke:#000000;stroke-width:1px;stroke-linecap:butt;stroke-linejoin:miter;stroke-opacity:1" />
      <path
         sodipodi:nodetypes="ccccccc"
         id="path7064"
         d="M 301.1811,287.00781 L 294.09449,287.00781 L 294.09449,294.09442 L 297.6378,294.09442 C 301.1811,294.09442 301.1811,294.09443 301.1811,297.63773 C 301.1811,301.18104 301.1811,301.18104 297.6378,301.18104 C 294.09449,301.18104 294.09449,301.18104 294.09449,297.63773"
         style="fill:none;fill-rule:evenodd;stroke:#000000;stroke-width:1px;stroke-linecap:butt;stroke-linejoin:miter;stroke-opacity:1" />
      <path
         transform="translate(-1.5748026e-7,17.716535)"
         d="M 248.0315,276.3779 A 3.5433071,7.0866141 0 1 1 240.94488,276.3779 A 3.5433071,7.0866141 0 1 1 248.0315,276.3779 z"
         sodipodi:ry="7.0866141"
         sodipodi:rx="3.5433071"
         sodipodi:cy="276.3779"
         sodipodi:cx="244.48819"
         id="path7066"
         style="opacity:1;fill:none;fill-opacity:1;stroke:#000000;stroke-opacity:1"
         sodipodi:type="arc" />
      <path
         id="path7068"
         d="M 240.94488,301.18104 L 248.0315,287.00781"
         style="fill:none;fill-rule:evenodd;stroke:#000000;stroke-width:1px;stroke-linecap:butt;stroke-linejoin:miter;stroke-opacity:1" />
      <path
         id="path7070"
         d="M 308.26772,301.18104 L 308.26772,287.00781 L 304.72441,294.09442 L 311.81103,294.09442"
         style="fill:none;fill-rule:evenodd;stroke:#000000;stroke-width:1px;stroke-linecap:butt;stroke-linejoin:miter;stroke-opacity:1;display:inline" />
      <path
         sodipodi:nodetypes="ccccccc"
         id="path7072"
         d="M 322.44095,287.00781 L 315.35434,287.00781 L 315.35434,294.09442 L 318.89765,294.09442 C 322.44095,294.09442 322.44095,294.09443 322.44095,297.63773 C 322.44095,301.18104 322.44095,301.18104 318.89765,301.18104 C 315.35434,301.18104 315.35434,301.18104 315.35434,297.63773"
         style="fill:none;fill-rule:evenodd;stroke:#000000;stroke-width:1px;stroke-linecap:butt;stroke-linejoin:miter;stroke-opacity:1;display:inline" />
    </g>
  </g>
</svg>
