999
Inkscape export via "Better Better DXF Output" (http://tim.cexx.org/?p=590)
  0
SECTION
  2
HEADER
  9
$ACADVER
  1
AC1014
  9
$HANDSEED
  5
FFFF
  0
ENDSEC
  0
SECTION
  2
TABLES
  0
TABLE
  2
VPORT
  5
8
330
0
100
AcDbSymbolTable
 70
     4
  0
VPORT
  5
2E
330
8
100
AcDbSymbolTableRecord
100
AcDbViewportTableRecord
  2
*ACTIVE
 70
     0
 10
0.0
 20
0.0
 11
1.0
 21
1.0
 12
4.25
 22
5.5
 13
0.0
 23
0.0
 14
10.0
 24
10.0
 15
10.0
 25
10.0
 16
0.0
 26
0.0
 36
1.0
 17
0.0
 27
0.0
 37
0.0
 40
11
 41
1.24
 42
50.0
 43
0.0
 44
0.0
 50
0.0
 51
0.0
 71
     0
 72
   100
 73
     1
 74
     3
 75
     0
 76
     0
 77
     0
 78
     0
  0
ENDTAB
  0
TABLE
  2
LTYPE
  5
5
330
0
100
AcDbSymbolTable
 70
     1
  0
LTYPE
  5
14
330
5
100
AcDbSymbolTableRecord
100
AcDbLinetypeTableRecord
  2
BYBLOCK
 70
     0
  3

 72
    65
 73
     0
 40
0.0
  0
LTYPE
  5
15
330
5
100
AcDbSymbolTableRecord
100
AcDbLinetypeTableRecord
  2
BYLAYER
 70
     0
  3

 72
    65
 73
     0
 40
0.0
  0
LTYPE
  5
16
330
5
100
AcDbSymbolTableRecord
100
AcDbLinetypeTableRecord
  2
CONTINUOUS
 70
     0
  3
Solid line
 72
    65
 73
     0
 40
0.0
  0
ENDTAB
  0
TABLE
  2
STYLE
  5
3
330
0
100
AcDbSymbolTable
 70
     1
  0
STYLE
  5
11
330
3
100
AcDbSymbolTableRecord
100
AcDbTextStyleTableRecord
  2
STANDARD
 70
     0
 40
0.0
 41
1.0
 50
0.0
 71
     0
 42
2.5
  3
txt
  4

  0
ENDTAB
  0
TABLE
  2
VIEW
  5
6
330
0
100
AcDbSymbolTable
 70
     0
  0
ENDTAB
  0
TABLE
  2
UCS
  5
7
330
0
100
AcDbSymbolTable
 70
     0
  0
ENDTAB
  0
TABLE
  2
APPID
  5
9
330
0
100
AcDbSymbolTable
 70
     2
  0
APPID
  5
12
330
9
100
AcDbSymbolTableRecord
100
AcDbRegAppTableRecord
  2
ACAD
 70
     0
  0
ENDTAB
  0
TABLE
  2
DIMSTYLE
  5
A
330
0
100
AcDbSymbolTable
 70
     1
  0
DIMSTYLE
105
27
330
A
100
AcDbSymbolTableRecord
100
AcDbDimStyleTableRecord
  2
ISO-25
 70
     0
  3

  4

  5

  6

  7

 40
1.0
 41
2.5
 42
0.625
 43
3.75
 44
1.25
 45
0.0
 46
0.0
 47
0.0
 48
0.0
140
2.5
141
2.5
142
0.0
143
0.03937007874016
144
1.0
145
0.0
146
1.0
147
0.625
 71
     0
 72
     0
 73
     0
 74
     0
 75
     0
 76
     0
 77
     1
 78
     8
170
     0
171
     3
172
     1
173
     0
174
     0
175
     0
176
     0
177
     0
178
     0
270
     2
271
     2
272
     2
273
     2
274
     3
340
11
275
     0
280
     0
281
     0
282
     0
283
     0
284
     8
285
     0
286
     0
287
     3
288
     0
  0
ENDTAB
  0
TABLE
  2
BLOCK_RECORD
  5
1
330
0
100
AcDbSymbolTable
 70
     1
  0
BLOCK_RECORD
  5
1F
330
1
100
AcDbSymbolTableRecord
100
AcDbBlockTableRecord
  2
*MODEL_SPACE
  0
BLOCK_RECORD
  5
1B
330
1
100
AcDbSymbolTableRecord
100
AcDbBlockTableRecord
  2
*PAPER_SPACE
  0
ENDTAB
0
TABLE
2
LAYER
5
2
330
0
100
AcDbSymbolTable
70
1
0
LAYER
5
10
330
2
100
AcDbSymbolTableRecord
100
AcDbLayerTableRecord
2
Layer 1
70
0
62
7
6
CONTINUOUS
0
ENDTAB
0
ENDSEC
  0
SECTION
  2
BLOCKS
  0
BLOCK
  5
20
330
1F
100
AcDbEntity
  8
0
100
AcDbBlockBegin
  2
*MODEL_SPACE
 70
     0
 10
0.0
 20
0.0
 30
0.0
  3
*MODEL_SPACE
  1

  0
ENDBLK
  5
21
330
1F
100
AcDbEntity
  8
0
100
AcDbBlockEnd
  0
BLOCK
  5
1C
330
1B
100
AcDbEntity
 67
     1
  8
0
100
AcDbBlockBegin
  2
*PAPER_SPACE
  1

  0
ENDBLK
  5
1D
330
1B
100
AcDbEntity
 67
     1
  8
0
100
AcDbBlockEnd
  0
ENDSEC
  0
SECTION
  2
ENTITIES
0
LINE
8
Layer 1
62
4
5
100
100
AcDbEntity
100
AcDbLine
10
4.007607
20
135.000009
30
0.0
11
38.000265
21
134.997929
31
0.0
0
LINE
8
Layer 1
62
4
5
101
100
AcDbEntity
100
AcDbLine
10
38.000265
20
134.997929
30
0.0
11
38.000265
21
130.999653
31
0.0
0
LINE
8
Layer 1
62
4
5
102
100
AcDbEntity
100
AcDbLine
10
38.000265
20
130.999653
30
0.0
11
48.004033
21
130.999653
31
0.0
0
LINE
8
Layer 1
62
4
5
103
100
AcDbEntity
100
AcDbLine
10
48.004033
20
130.999653
30
0.0
11
48.004033
21
134.997929
31
0.0
0
LINE
8
Layer 1
62
4
5
104
100
AcDbEntity
100
AcDbLine
10
48.004033
20
134.997929
30
0.0
11
58.007803
21
134.997929
31
0.0
0
LINE
8
Layer 1
62
4
5
105
100
AcDbEntity
100
AcDbLine
10
58.007803
20
134.997929
30
0.0
11
58.007803
21
130.999653
31
0.0
0
LINE
8
Layer 1
62
4
5
106
100
AcDbEntity
100
AcDbLine
10
58.007803
20
130.999653
30
0.0
11
68.002847
21
130.999653
31
0.0
0
LINE
8
Layer 1
62
4
5
107
100
AcDbEntity
100
AcDbLine
10
68.002847
20
130.999653
30
0.0
11
68.011573
21
134.997929
31
0.0
0
LINE
8
Layer 1
62
4
5
108
100
AcDbEntity
100
AcDbLine
10
68.011573
20
134.997929
30
0.0
11
98.006862
21
134.997929
31
0.0
0
LINE
8
Layer 1
62
4
5
109
100
AcDbEntity
100
AcDbLine
10
98.006862
20
134.997929
30
0.0
11
98.006862
21
86.999665
31
0.0
0
LINE
8
Layer 1
62
4
5
10a
100
AcDbEntity
100
AcDbLine
10
98.006862
20
86.999665
30
0.0
11
68.011573
21
86.999665
31
0.0
0
LINE
8
Layer 1
62
4
5
10b
100
AcDbEntity
100
AcDbLine
10
68.011573
20
86.999665
30
0.0
11
68.011573
21
90.997329
31
0.0
0
LINE
8
Layer 1
62
4
5
10c
100
AcDbEntity
100
AcDbLine
10
68.011573
20
90.997329
30
0.0
11
58.007803
21
90.997329
31
0.0
0
LINE
8
Layer 1
62
4
5
10d
100
AcDbEntity
100
AcDbLine
10
58.007803
20
90.997329
30
0.0
11
58.007803
21
86.999665
31
0.0
0
LINE
8
Layer 1
62
4
5
10e
100
AcDbEntity
100
AcDbLine
10
58.007803
20
86.999665
30
0.0
11
48.004033
21
86.999665
31
0.0
0
LINE
8
Layer 1
62
4
5
10f
100
AcDbEntity
100
AcDbLine
10
48.004033
20
86.999665
30
0.0
11
48.004033
21
90.997329
31
0.0
0
LINE
8
Layer 1
62
4
5
110
100
AcDbEntity
100
AcDbLine
10
48.004033
20
90.997329
30
0.0
11
38.000265
21
90.997329
31
0.0
0
LINE
8
Layer 1
62
4
5
111
100
AcDbEntity
100
AcDbLine
10
38.000265
20
90.997329
30
0.0
11
38.000265
21
86.999665
31
0.0
0
LINE
8
Layer 1
62
4
5
112
100
AcDbEntity
100
AcDbLine
10
38.000265
20
86.999665
30
0.0
11
4.007607
21
86.999665
31
0.0
0
LINE
8
Layer 1
62
4
5
113
100
AcDbEntity
100
AcDbLine
10
4.007607
20
86.999665
30
0.0
11
4.007607
21
135.000009
31
0.0
0
LINE
8
Layer 1
62
4
5
114
100
AcDbEntity
100
AcDbLine
10
4.007607
20
135.000009
30
0.0
11
4.007607
21
135.000009
31
0.0
0
LINE
8
Layer 1
62
4
5
115
100
AcDbEntity
100
AcDbLine
10
74.006061
20
125.002050
30
0.0
11
78.002745
21
125.002050
31
0.0
0
LINE
8
Layer 1
62
4
5
116
100
AcDbEntity
100
AcDbLine
10
78.002745
20
125.002050
30
0.0
11
78.002745
21
115.000010
31
0.0
0
LINE
8
Layer 1
62
4
5
117
100
AcDbEntity
100
AcDbLine
10
78.002745
20
115.000010
30
0.0
11
74.006061
21
114.997261
31
0.0
0
LINE
8
Layer 1
62
4
5
118
100
AcDbEntity
100
AcDbLine
10
74.006061
20
114.997261
30
0.0
11
74.006061
21
125.002050
31
0.0
0
LINE
8
Layer 1
62
4
5
119
100
AcDbEntity
100
AcDbLine
10
74.006061
20
125.002050
30
0.0
11
74.006061
21
125.002050
31
0.0
0
LINE
8
Layer 1
62
4
5
11a
100
AcDbEntity
100
AcDbLine
10
74.006061
20
104.995049
30
0.0
11
78.002745
21
104.995049
31
0.0
0
LINE
8
Layer 1
62
4
5
11b
100
AcDbEntity
100
AcDbLine
10
78.002745
20
104.995049
30
0.0
11
78.002745
21
94.997578
31
0.0
0
LINE
8
Layer 1
62
4
5
11c
100
AcDbEntity
100
AcDbLine
10
78.002745
20
94.997578
30
0.0
11
74.006061
21
94.997578
31
0.0
0
LINE
8
Layer 1
62
4
5
11d
100
AcDbEntity
100
AcDbLine
10
74.006061
20
94.997578
30
0.0
11
74.006061
21
104.995049
31
0.0
0
LINE
8
Layer 1
62
4
5
11e
100
AcDbEntity
100
AcDbLine
10
74.006061
20
104.995049
30
0.0
11
74.006061
21
104.995049
31
0.0
0
LINE
8
Layer 1
62
4
5
11f
100
AcDbEntity
100
AcDbLine
10
24.002846
20
104.995049
30
0.0
11
28.000064
21
104.995049
31
0.0
0
LINE
8
Layer 1
62
4
5
120
100
AcDbEntity
100
AcDbLine
10
28.000064
20
104.995049
30
0.0
11
28.000064
21
94.997578
31
0.0
0
LINE
8
Layer 1
62
4
5
121
100
AcDbEntity
100
AcDbLine
10
28.000064
20
94.997578
30
0.0
11
24.004384
21
95.000010
31
0.0
0
LINE
8
Layer 1
62
4
5
122
100
AcDbEntity
100
AcDbLine
10
24.004384
20
95.000010
30
0.0
11
24.002846
21
104.995049
31
0.0
0
LINE
8
Layer 1
62
4
5
123
100
AcDbEntity
100
AcDbLine
10
24.002846
20
104.995049
30
0.0
11
24.002846
21
104.995049
31
0.0
0
LINE
8
Layer 1
62
4
5
124
100
AcDbEntity
100
AcDbLine
10
24.004384
20
114.997261
30
0.0
11
28.000064
21
114.997261
31
0.0
0
LINE
8
Layer 1
62
4
5
125
100
AcDbEntity
100
AcDbLine
10
28.000064
20
114.997261
30
0.0
11
28.000064
21
125.002050
31
0.0
0
LINE
8
Layer 1
62
4
5
126
100
AcDbEntity
100
AcDbLine
10
28.000064
20
125.002050
30
0.0
11
24.002846
21
125.002050
31
0.0
0
LINE
8
Layer 1
62
4
5
127
100
AcDbEntity
100
AcDbLine
10
24.002846
20
125.002050
30
0.0
11
24.004384
21
114.997261
31
0.0
0
LINE
8
Layer 1
62
4
5
128
100
AcDbEntity
100
AcDbLine
10
24.004384
20
114.997261
30
0.0
11
24.004384
21
114.997261
31
0.0
0
LINE
8
Layer 1
62
4
5
129
100
AcDbEntity
100
AcDbLine
10
89.998562
20
125.002053
30
0.0
11
89.738084
21
123.998278
31
0.0
0
LINE
8
Layer 1
62
4
5
12a
100
AcDbEntity
100
AcDbLine
10
89.738084
20
123.998278
30
0.0
11
88.999527
21
123.270506
31
0.0
0
LINE
8
Layer 1
62
4
5
12b
100
AcDbEntity
100
AcDbLine
10
88.999527
20
123.270506
30
0.0
11
88.000218
21
122.994428
31
0.0
0
LINE
8
Layer 1
62
4
5
12c
100
AcDbEntity
100
AcDbLine
10
88.000218
20
122.994428
30
0.0
11
87.000909
21
123.270506
31
0.0
0
LINE
8
Layer 1
62
4
5
12d
100
AcDbEntity
100
AcDbLine
10
87.000909
20
123.270506
30
0.0
11
86.262353
21
123.998278
31
0.0
0
LINE
8
Layer 1
62
4
5
12e
100
AcDbEntity
100
AcDbLine
10
86.262353
20
123.998278
30
0.0
11
86.001875
21
125.002053
31
0.0
0
LINE
8
Layer 1
62
4
5
12f
100
AcDbEntity
100
AcDbLine
10
86.001875
20
125.002053
30
0.0
11
86.262353
21
126.005828
31
0.0
0
LINE
8
Layer 1
62
4
5
130
100
AcDbEntity
100
AcDbLine
10
86.262353
20
126.005828
30
0.0
11
87.000909
21
126.733600
31
0.0
0
LINE
8
Layer 1
62
4
5
131
100
AcDbEntity
100
AcDbLine
10
87.000909
20
126.733600
30
0.0
11
88.000218
21
127.009678
31
0.0
0
LINE
8
Layer 1
62
4
5
132
100
AcDbEntity
100
AcDbLine
10
88.000218
20
127.009678
30
0.0
11
88.999527
21
126.733600
31
0.0
0
LINE
8
Layer 1
62
4
5
133
100
AcDbEntity
100
AcDbLine
10
88.999527
20
126.733600
30
0.0
11
89.738084
21
126.005828
31
0.0
0
LINE
8
Layer 1
62
4
5
134
100
AcDbEntity
100
AcDbLine
10
89.738084
20
126.005828
30
0.0
11
89.998562
21
125.002053
31
0.0
0
LINE
8
Layer 1
62
4
5
135
100
AcDbEntity
100
AcDbLine
10
89.998562
20
125.002053
30
0.0
11
89.998562
21
125.002053
31
0.0
0
LINE
8
Layer 1
62
4
5
136
100
AcDbEntity
100
AcDbLine
10
89.998562
20
94.997580
30
0.0
11
89.738084
21
93.993806
31
0.0
0
LINE
8
Layer 1
62
4
5
137
100
AcDbEntity
100
AcDbLine
10
89.738084
20
93.993806
30
0.0
11
88.999527
21
93.266034
31
0.0
0
LINE
8
Layer 1
62
4
5
138
100
AcDbEntity
100
AcDbLine
10
88.999527
20
93.266034
30
0.0
11
88.000218
21
92.989955
31
0.0
0
LINE
8
Layer 1
62
4
5
139
100
AcDbEntity
100
AcDbLine
10
88.000218
20
92.989955
30
0.0
11
87.000909
21
93.266034
31
0.0
0
LINE
8
Layer 1
62
4
5
13a
100
AcDbEntity
100
AcDbLine
10
87.000909
20
93.266034
30
0.0
11
86.262353
21
93.993806
31
0.0
0
LINE
8
Layer 1
62
4
5
13b
100
AcDbEntity
100
AcDbLine
10
86.262353
20
93.993806
30
0.0
11
86.001875
21
94.997580
31
0.0
0
LINE
8
Layer 1
62
4
5
13c
100
AcDbEntity
100
AcDbLine
10
86.001875
20
94.997580
30
0.0
11
86.262353
21
96.001355
31
0.0
0
LINE
8
Layer 1
62
4
5
13d
100
AcDbEntity
100
AcDbLine
10
86.262353
20
96.001355
30
0.0
11
87.000909
21
96.729127
31
0.0
0
LINE
8
Layer 1
62
4
5
13e
100
AcDbEntity
100
AcDbLine
10
87.000909
20
96.729127
30
0.0
11
88.000218
21
97.005206
31
0.0
0
LINE
8
Layer 1
62
4
5
13f
100
AcDbEntity
100
AcDbLine
10
88.000218
20
97.005206
30
0.0
11
88.999527
21
96.729127
31
0.0
0
LINE
8
Layer 1
62
4
5
140
100
AcDbEntity
100
AcDbLine
10
88.999527
20
96.729127
30
0.0
11
89.738084
21
96.001355
31
0.0
0
LINE
8
Layer 1
62
4
5
141
100
AcDbEntity
100
AcDbLine
10
89.738084
20
96.001355
30
0.0
11
89.998562
21
94.997580
31
0.0
0
LINE
8
Layer 1
62
4
5
142
100
AcDbEntity
100
AcDbLine
10
89.998562
20
94.997580
30
0.0
11
89.998562
21
94.997580
31
0.0
0
LINE
8
Layer 1
62
4
5
143
100
AcDbEntity
100
AcDbLine
10
16.000270
20
125.002053
30
0.0
11
15.739792
21
123.998278
31
0.0
0
LINE
8
Layer 1
62
4
5
144
100
AcDbEntity
100
AcDbLine
10
15.739792
20
123.998278
30
0.0
11
15.001235
21
123.270506
31
0.0
0
LINE
8
Layer 1
62
4
5
145
100
AcDbEntity
100
AcDbLine
10
15.001235
20
123.270506
30
0.0
11
14.001926
21
122.994428
31
0.0
0
LINE
8
Layer 1
62
4
5
146
100
AcDbEntity
100
AcDbLine
10
14.001926
20
122.994428
30
0.0
11
13.002617
21
123.270506
31
0.0
0
LINE
8
Layer 1
62
4
5
147
100
AcDbEntity
100
AcDbLine
10
13.002617
20
123.270506
30
0.0
11
12.264061
21
123.998278
31
0.0
0
LINE
8
Layer 1
62
4
5
148
100
AcDbEntity
100
AcDbLine
10
12.264061
20
123.998278
30
0.0
11
12.003583
21
125.002053
31
0.0
0
LINE
8
Layer 1
62
4
5
149
100
AcDbEntity
100
AcDbLine
10
12.003583
20
125.002053
30
0.0
11
12.264061
21
126.005828
31
0.0
0
LINE
8
Layer 1
62
4
5
14a
100
AcDbEntity
100
AcDbLine
10
12.264061
20
126.005828
30
0.0
11
13.002617
21
126.733600
31
0.0
0
LINE
8
Layer 1
62
4
5
14b
100
AcDbEntity
100
AcDbLine
10
13.002617
20
126.733600
30
0.0
11
14.001926
21
127.009678
31
0.0
0
LINE
8
Layer 1
62
4
5
14c
100
AcDbEntity
100
AcDbLine
10
14.001926
20
127.009678
30
0.0
11
15.001235
21
126.733600
31
0.0
0
LINE
8
Layer 1
62
4
5
14d
100
AcDbEntity
100
AcDbLine
10
15.001235
20
126.733600
30
0.0
11
15.739792
21
126.005828
31
0.0
0
LINE
8
Layer 1
62
4
5
14e
100
AcDbEntity
100
AcDbLine
10
15.739792
20
126.005828
30
0.0
11
16.000270
21
125.002053
31
0.0
0
LINE
8
Layer 1
62
4
5
14f
100
AcDbEntity
100
AcDbLine
10
16.000270
20
125.002053
30
0.0
11
16.000270
21
125.002053
31
0.0
0
LINE
8
Layer 1
62
4
5
150
100
AcDbEntity
100
AcDbLine
10
15.565857
20
94.996593
30
0.0
11
15.305378
21
93.992818
31
0.0
0
LINE
8
Layer 1
62
4
5
151
100
AcDbEntity
100
AcDbLine
10
15.305378
20
93.992818
30
0.0
11
14.566822
21
93.265046
31
0.0
0
LINE
8
Layer 1
62
4
5
152
100
AcDbEntity
100
AcDbLine
10
14.566822
20
93.265046
30
0.0
11
13.567513
21
92.988968
31
0.0
0
LINE
8
Layer 1
62
4
5
153
100
AcDbEntity
100
AcDbLine
10
13.567513
20
92.988968
30
0.0
11
12.568204
21
93.265046
31
0.0
0
LINE
8
Layer 1
62
4
5
154
100
AcDbEntity
100
AcDbLine
10
12.568204
20
93.265046
30
0.0
11
11.829648
21
93.992818
31
0.0
0
LINE
8
Layer 1
62
4
5
155
100
AcDbEntity
100
AcDbLine
10
11.829648
20
93.992818
30
0.0
11
11.569169
21
94.996593
31
0.0
0
LINE
8
Layer 1
62
4
5
156
100
AcDbEntity
100
AcDbLine
10
11.569169
20
94.996593
30
0.0
11
11.829648
21
96.000367
31
0.0
0
LINE
8
Layer 1
62
4
5
157
100
AcDbEntity
100
AcDbLine
10
11.829648
20
96.000367
30
0.0
11
12.568204
21
96.728139
31
0.0
0
LINE
8
Layer 1
62
4
5
158
100
AcDbEntity
100
AcDbLine
10
12.568204
20
96.728139
30
0.0
11
13.567513
21
97.004218
31
0.0
0
LINE
8
Layer 1
62
4
5
159
100
AcDbEntity
100
AcDbLine
10
13.567513
20
97.004218
30
0.0
11
14.566822
21
96.728139
31
0.0
0
LINE
8
Layer 1
62
4
5
15a
100
AcDbEntity
100
AcDbLine
10
14.566822
20
96.728139
30
0.0
11
15.305378
21
96.000367
31
0.0
0
LINE
8
Layer 1
62
4
5
15b
100
AcDbEntity
100
AcDbLine
10
15.305378
20
96.000367
30
0.0
11
15.565857
21
94.996593
31
0.0
0
LINE
8
Layer 1
62
4
5
15c
100
AcDbEntity
100
AcDbLine
10
15.565857
20
94.996593
30
0.0
11
15.565857
21
94.996593
31
0.0
0
LINE
8
Layer 1
62
4
5
15d
100
AcDbEntity
100
AcDbLine
10
103.002845
20
134.997537
30
0.0
11
103.002845
21
124.996287
31
0.0
0
LINE
8
Layer 1
62
4
5
15e
100
AcDbEntity
100
AcDbLine
10
103.002845
20
124.996287
30
0.0
11
98.998817
21
124.996287
31
0.0
0
LINE
8
Layer 1
62
4
5
15f
100
AcDbEntity
100
AcDbLine
10
98.998817
20
124.996287
30
0.0
11
98.998817
21
114.995037
31
0.0
0
LINE
8
Layer 1
62
4
5
160
100
AcDbEntity
100
AcDbLine
10
98.998817
20
114.995037
30
0.0
11
103.002845
21
114.995037
31
0.0
0
LINE
8
Layer 1
62
4
5
161
100
AcDbEntity
100
AcDbLine
10
103.002845
20
114.995037
30
0.0
11
103.002845
21
104.993787
31
0.0
0
LINE
8
Layer 1
62
4
5
162
100
AcDbEntity
100
AcDbLine
10
103.002845
20
104.993787
30
0.0
11
98.998817
21
104.993787
31
0.0
0
LINE
8
Layer 1
62
4
5
163
100
AcDbEntity
100
AcDbLine
10
98.998817
20
104.993787
30
0.0
11
98.998817
21
94.992537
31
0.0
0
LINE
8
Layer 1
62
4
5
164
100
AcDbEntity
100
AcDbLine
10
98.998817
20
94.992537
30
0.0
11
103.002845
21
94.992537
31
0.0
0
LINE
8
Layer 1
62
4
5
165
100
AcDbEntity
100
AcDbLine
10
103.002845
20
94.992537
30
0.0
11
103.002845
21
90.997329
31
0.0
0
LINE
8
Layer 1
62
4
5
166
100
AcDbEntity
100
AcDbLine
10
103.002845
20
90.997329
30
0.0
11
111.002081
21
90.997329
31
0.0
0
LINE
8
Layer 1
62
4
5
167
100
AcDbEntity
100
AcDbLine
10
111.002081
20
90.997329
30
0.0
11
111.002081
21
86.993301
31
0.0
0
LINE
8
Layer 1
62
4
5
168
100
AcDbEntity
100
AcDbLine
10
111.002081
20
86.993301
30
0.0
11
114.997289
21
86.993301
31
0.0
0
LINE
8
Layer 1
62
4
5
169
100
AcDbEntity
100
AcDbLine
10
114.997289
20
86.993301
30
0.0
11
114.999999
21
97.997208
31
0.0
0
LINE
8
Layer 1
62
4
5
16a
100
AcDbEntity
100
AcDbLine
10
114.999999
20
97.997208
30
0.0
11
106.999998
21
97.997208
31
0.0
0
LINE
8
Layer 1
62
4
5
16b
100
AcDbEntity
100
AcDbLine
10
106.999998
20
97.997208
30
0.0
11
107.006873
21
112.993023
31
0.0
0
LINE
8
Layer 1
62
4
5
16c
100
AcDbEntity
100
AcDbLine
10
107.006873
20
112.993023
30
0.0
11
114.997289
21
112.993023
31
0.0
0
LINE
8
Layer 1
62
4
5
16d
100
AcDbEntity
100
AcDbLine
10
114.997289
20
112.993023
30
0.0
11
114.997289
21
134.997537
31
0.0
0
LINE
8
Layer 1
62
4
5
16e
100
AcDbEntity
100
AcDbLine
10
114.997289
20
134.997537
30
0.0
11
103.002845
21
134.997537
31
0.0
0
LINE
8
Layer 1
62
4
5
16f
100
AcDbEntity
100
AcDbLine
10
103.002845
20
134.997537
30
0.0
11
103.002845
21
134.997537
31
0.0
0
LINE
8
Layer 1
62
4
5
170
100
AcDbEntity
100
AcDbLine
10
58.998953
20
52.005010
30
0.0
11
59.001663
21
34.004679
31
0.0
0
LINE
8
Layer 1
62
4
5
171
100
AcDbEntity
100
AcDbLine
10
59.001663
20
34.004679
30
0.0
11
65.001662
21
34.004679
31
0.0
0
LINE
8
Layer 1
62
4
5
172
100
AcDbEntity
100
AcDbLine
10
65.001662
20
34.004679
30
0.0
11
65.004995
21
16.004032
31
0.0
0
LINE
8
Layer 1
62
4
5
173
100
AcDbEntity
100
AcDbLine
10
65.004995
20
16.004032
30
0.0
11
58.998953
21
16.004032
31
0.0
0
LINE
8
Layer 1
62
4
5
174
100
AcDbEntity
100
AcDbLine
10
58.998953
20
16.004032
30
0.0
11
58.998953
21
8.004810
31
0.0
0
LINE
8
Layer 1
62
4
5
175
100
AcDbEntity
100
AcDbLine
10
58.998953
20
8.004810
30
0.0
11
71.998815
21
8.004810
31
0.0
0
LINE
8
Layer 1
62
4
5
176
100
AcDbEntity
100
AcDbLine
10
71.998815
20
8.004810
30
0.0
11
72.007634
21
12.000004
31
0.0
0
LINE
8
Layer 1
62
4
5
177
100
AcDbEntity
100
AcDbLine
10
72.007634
20
12.000004
30
0.0
11
76.002842
21
12.000004
31
0.0
0
LINE
8
Layer 1
62
4
5
178
100
AcDbEntity
100
AcDbLine
10
76.002842
20
12.000004
30
0.0
11
76.002842
21
22.001260
31
0.0
0
LINE
8
Layer 1
62
4
5
179
100
AcDbEntity
100
AcDbLine
10
76.002842
20
22.001260
30
0.0
11
72.007634
21
22.001260
31
0.0
0
LINE
8
Layer 1
62
4
5
17a
100
AcDbEntity
100
AcDbLine
10
72.007634
20
22.001260
30
0.0
11
72.007634
21
32.002510
31
0.0
0
LINE
8
Layer 1
62
4
5
17b
100
AcDbEntity
100
AcDbLine
10
72.007634
20
32.002510
30
0.0
11
76.002842
21
32.002510
31
0.0
0
LINE
8
Layer 1
62
4
5
17c
100
AcDbEntity
100
AcDbLine
10
76.002842
20
32.002510
30
0.0
11
76.002842
21
42.003760
31
0.0
0
LINE
8
Layer 1
62
4
5
17d
100
AcDbEntity
100
AcDbLine
10
76.002842
20
42.003760
30
0.0
11
72.007634
21
42.003760
31
0.0
0
LINE
8
Layer 1
62
4
5
17e
100
AcDbEntity
100
AcDbLine
10
72.007634
20
42.003760
30
0.0
11
72.007634
21
52.005010
31
0.0
0
LINE
8
Layer 1
62
4
5
17f
100
AcDbEntity
100
AcDbLine
10
72.007634
20
52.005010
30
0.0
11
58.998953
21
52.005010
31
0.0
0
LINE
8
Layer 1
62
4
5
180
100
AcDbEntity
100
AcDbLine
10
58.998953
20
52.005010
30
0.0
11
58.998953
21
52.005010
31
0.0
0
LINE
8
Layer 1
62
4
5
181
100
AcDbEntity
100
AcDbLine
10
81.024510
20
52.003760
30
0.0
11
81.024510
21
42.002510
31
0.0
0
LINE
8
Layer 1
62
4
5
182
100
AcDbEntity
100
AcDbLine
10
81.024510
20
42.002510
30
0.0
11
77.029302
21
42.002510
31
0.0
0
LINE
8
Layer 1
62
4
5
183
100
AcDbEntity
100
AcDbLine
10
77.029302
20
42.002510
30
0.0
11
77.029302
21
32.001260
31
0.0
0
LINE
8
Layer 1
62
4
5
184
100
AcDbEntity
100
AcDbLine
10
77.029302
20
32.001260
30
0.0
11
81.024510
21
32.001260
31
0.0
0
LINE
8
Layer 1
62
4
5
185
100
AcDbEntity
100
AcDbLine
10
81.024510
20
32.001260
30
0.0
11
81.024510
21
22.000010
31
0.0
0
LINE
8
Layer 1
62
4
5
186
100
AcDbEntity
100
AcDbLine
10
81.024510
20
22.000010
30
0.0
11
77.002843
21
22.000010
31
0.0
0
LINE
8
Layer 1
62
4
5
187
100
AcDbEntity
100
AcDbLine
10
77.002843
20
22.000010
30
0.0
11
77.029302
21
11.998762
31
0.0
0
LINE
8
Layer 1
62
4
5
188
100
AcDbEntity
100
AcDbLine
10
77.029302
20
11.998762
30
0.0
11
81.024510
21
11.998762
31
0.0
0
LINE
8
Layer 1
62
4
5
189
100
AcDbEntity
100
AcDbLine
10
81.024510
20
11.998762
30
0.0
11
81.024510
21
8.003540
31
0.0
0
LINE
8
Layer 1
62
4
5
18a
100
AcDbEntity
100
AcDbLine
10
81.024510
20
8.003540
30
0.0
11
93.027774
21
8.003540
31
0.0
0
LINE
8
Layer 1
62
4
5
18b
100
AcDbEntity
100
AcDbLine
10
93.027774
20
8.003540
30
0.0
11
93.027774
21
22.000010
31
0.0
0
LINE
8
Layer 1
62
4
5
18c
100
AcDbEntity
100
AcDbLine
10
93.027774
20
22.000010
30
0.0
11
88.027149
21
22.000010
31
0.0
0
LINE
8
Layer 1
62
4
5
18d
100
AcDbEntity
100
AcDbLine
10
88.027149
20
22.000010
30
0.0
11
88.028120
21
38.003429
31
0.0
0
LINE
8
Layer 1
62
4
5
18e
100
AcDbEntity
100
AcDbLine
10
88.028120
20
38.003429
30
0.0
11
93.028905
21
38.003429
31
0.0
0
LINE
8
Layer 1
62
4
5
18f
100
AcDbEntity
100
AcDbLine
10
93.028905
20
38.003429
30
0.0
11
93.027774
21
52.003760
31
0.0
0
LINE
8
Layer 1
62
4
5
190
100
AcDbEntity
100
AcDbLine
10
93.027774
20
52.003760
30
0.0
11
81.024510
21
52.003760
31
0.0
0
LINE
8
Layer 1
62
4
5
191
100
AcDbEntity
100
AcDbLine
10
81.024510
20
52.003760
30
0.0
11
81.024510
21
52.003760
31
0.0
0
LINE
8
Layer 1
62
4
5
192
100
AcDbEntity
100
AcDbLine
10
28.006816
20
33.000134
30
0.0
11
38.010586
21
33.000134
31
0.0
0
LINE
8
Layer 1
62
4
5
193
100
AcDbEntity
100
AcDbLine
10
38.010586
20
33.000134
30
0.0
11
38.010586
21
36.995241
31
0.0
0
LINE
8
Layer 1
62
4
5
194
100
AcDbEntity
100
AcDbLine
10
38.010586
20
36.995241
30
0.0
11
48.014357
21
36.995241
31
0.0
0
LINE
8
Layer 1
62
4
5
195
100
AcDbEntity
100
AcDbLine
10
48.014357
20
36.995241
30
0.0
11
48.014357
21
33.000134
31
0.0
0
LINE
8
Layer 1
62
4
5
196
100
AcDbEntity
100
AcDbLine
10
48.014357
20
33.000134
30
0.0
11
58.005528
21
33.000134
31
0.0
0
LINE
8
Layer 1
62
4
5
197
100
AcDbEntity
100
AcDbLine
10
58.005528
20
33.000134
30
0.0
11
58.005528
21
20.003708
31
0.0
0
LINE
8
Layer 1
62
4
5
198
100
AcDbEntity
100
AcDbLine
10
58.005528
20
20.003708
30
0.0
11
54.008841
21
20.003708
31
0.0
0
LINE
8
Layer 1
62
4
5
199
100
AcDbEntity
100
AcDbLine
10
54.008841
20
20.003708
30
0.0
11
54.008841
21
16.000024
31
0.0
0
LINE
8
Layer 1
62
4
5
19a
100
AcDbEntity
100
AcDbLine
10
54.008841
20
16.000024
30
0.0
11
58.005528
21
16.000024
31
0.0
0
LINE
8
Layer 1
62
4
5
19b
100
AcDbEntity
100
AcDbLine
10
58.005528
20
16.000024
30
0.0
11
58.005528
21
7.996908
31
0.0
0
LINE
8
Layer 1
62
4
5
19c
100
AcDbEntity
100
AcDbLine
10
58.005528
20
7.996908
30
0.0
11
48.014357
21
7.996908
31
0.0
0
LINE
8
Layer 1
62
4
5
19d
100
AcDbEntity
100
AcDbLine
10
48.014357
20
7.996908
30
0.0
11
48.014357
21
4.001685
31
0.0
0
LINE
8
Layer 1
62
4
5
19e
100
AcDbEntity
100
AcDbLine
10
48.014357
20
4.001685
30
0.0
11
38.010586
21
4.001685
31
0.0
0
LINE
8
Layer 1
62
4
5
19f
100
AcDbEntity
100
AcDbLine
10
38.010586
20
4.001685
30
0.0
11
38.010586
21
7.996908
31
0.0
0
LINE
8
Layer 1
62
4
5
1a0
100
AcDbEntity
100
AcDbLine
10
38.010586
20
7.996908
30
0.0
11
28.006816
21
7.996908
31
0.0
0
LINE
8
Layer 1
62
4
5
1a1
100
AcDbEntity
100
AcDbLine
10
28.006816
20
7.996908
30
0.0
11
28.006816
21
4.001685
31
0.0
0
LINE
8
Layer 1
62
4
5
1a2
100
AcDbEntity
100
AcDbLine
10
28.006816
20
4.001685
30
0.0
11
18.003049
21
4.001685
31
0.0
0
LINE
8
Layer 1
62
4
5
1a3
100
AcDbEntity
100
AcDbLine
10
18.003049
20
4.001685
30
0.0
11
18.003049
21
7.996908
31
0.0
0
LINE
8
Layer 1
62
4
5
1a4
100
AcDbEntity
100
AcDbLine
10
18.003049
20
7.996908
30
0.0
11
4.007166
21
7.996908
31
0.0
0
LINE
8
Layer 1
62
4
5
1a5
100
AcDbEntity
100
AcDbLine
10
4.007166
20
7.996908
30
0.0
11
4.007166
21
16.000024
31
0.0
0
LINE
8
Layer 1
62
4
5
1a6
100
AcDbEntity
100
AcDbLine
10
4.007166
20
16.000024
30
0.0
11
8.002846
21
16.000024
31
0.0
0
LINE
8
Layer 1
62
4
5
1a7
100
AcDbEntity
100
AcDbLine
10
8.002846
20
16.000024
30
0.0
11
8.002846
21
20.003708
31
0.0
0
LINE
8
Layer 1
62
4
5
1a8
100
AcDbEntity
100
AcDbLine
10
8.002846
20
20.003708
30
0.0
11
4.007166
21
19.999271
31
0.0
0
LINE
8
Layer 1
62
4
5
1a9
100
AcDbEntity
100
AcDbLine
10
4.007166
20
19.999271
30
0.0
11
4.005628
21
33.000134
31
0.0
0
LINE
8
Layer 1
62
4
5
1aa
100
AcDbEntity
100
AcDbLine
10
4.005628
20
33.000134
30
0.0
11
18.003049
21
33.000134
31
0.0
0
LINE
8
Layer 1
62
4
5
1ab
100
AcDbEntity
100
AcDbLine
10
18.003049
20
33.000134
30
0.0
11
18.003049
21
36.995241
31
0.0
0
LINE
8
Layer 1
62
4
5
1ac
100
AcDbEntity
100
AcDbLine
10
18.003049
20
36.995241
30
0.0
11
28.006816
21
36.995241
31
0.0
0
LINE
8
Layer 1
62
4
5
1ad
100
AcDbEntity
100
AcDbLine
10
28.006816
20
36.995241
30
0.0
11
28.006816
21
33.000134
31
0.0
0
LINE
8
Layer 1
62
4
5
1ae
100
AcDbEntity
100
AcDbLine
10
28.006816
20
33.000134
30
0.0
11
28.006816
21
33.000134
31
0.0
0
LINE
8
Layer 1
62
4
5
1af
100
AcDbEntity
100
AcDbLine
10
19.005626
20
11.999270
30
0.0
11
19.005626
21
28.999270
31
0.0
0
LINE
8
Layer 1
62
4
5
1b0
100
AcDbEntity
100
AcDbLine
10
19.005626
20
28.999270
30
0.0
11
31.005628
21
28.999270
31
0.0
0
LINE
8
Layer 1
62
4
5
1b1
100
AcDbEntity
100
AcDbLine
10
31.005628
20
28.999270
30
0.0
11
31.005628
21
11.999270
31
0.0
0
LINE
8
Layer 1
62
4
5
1b2
100
AcDbEntity
100
AcDbLine
10
31.005628
20
11.999270
30
0.0
11
19.005626
21
11.999270
31
0.0
0
LINE
8
Layer 1
62
4
5
1b3
100
AcDbEntity
100
AcDbLine
10
19.005626
20
11.999270
30
0.0
11
19.005626
21
11.999270
31
0.0
0
LINE
8
Layer 1
62
4
5
1b4
100
AcDbEntity
100
AcDbLine
10
33.005626
20
11.999270
30
0.0
11
33.005626
21
25.999271
31
0.0
0
LINE
8
Layer 1
62
4
5
1b5
100
AcDbEntity
100
AcDbLine
10
33.005626
20
25.999271
30
0.0
11
46.005626
21
25.999271
31
0.0
0
LINE
8
Layer 1
62
4
5
1b6
100
AcDbEntity
100
AcDbLine
10
46.005626
20
25.999271
30
0.0
11
46.005626
21
11.996307
31
0.0
0
LINE
8
Layer 1
62
4
5
1b7
100
AcDbEntity
100
AcDbLine
10
46.005626
20
11.996307
30
0.0
11
33.005626
21
11.999270
31
0.0
0
LINE
8
Layer 1
62
4
5
1b8
100
AcDbEntity
100
AcDbLine
10
33.005626
20
11.999270
30
0.0
11
33.005626
21
11.999270
31
0.0
0
LINE
8
Layer 1
62
4
5
1b9
100
AcDbEntity
100
AcDbLine
10
58.855737
20
81.862366
30
0.0
11
68.855940
21
81.862366
31
0.0
0
LINE
8
Layer 1
62
4
5
1ba
100
AcDbEntity
100
AcDbLine
10
68.855940
20
81.862366
30
0.0
11
68.858522
21
85.858898
31
0.0
0
LINE
8
Layer 1
62
4
5
1bb
100
AcDbEntity
100
AcDbLine
10
68.858522
20
85.858898
30
0.0
11
78.858522
21
85.858898
31
0.0
0
LINE
8
Layer 1
62
4
5
1bc
100
AcDbEntity
100
AcDbLine
10
78.858522
20
85.858898
30
0.0
11
78.859710
21
81.859241
31
0.0
0
LINE
8
Layer 1
62
4
5
1bd
100
AcDbEntity
100
AcDbLine
10
78.859710
20
81.859241
30
0.0
11
88.863478
21
81.862366
31
0.0
0
LINE
8
Layer 1
62
4
5
1be
100
AcDbEntity
100
AcDbLine
10
88.863478
20
81.862366
30
0.0
11
88.858522
21
85.858898
31
0.0
0
LINE
8
Layer 1
62
4
5
1bf
100
AcDbEntity
100
AcDbLine
10
88.858522
20
85.858898
30
0.0
11
98.867248
21
85.858898
31
0.0
0
LINE
8
Layer 1
62
4
5
1c0
100
AcDbEntity
100
AcDbLine
10
98.867248
20
85.858898
30
0.0
11
98.867248
21
81.859241
31
0.0
0
LINE
8
Layer 1
62
4
5
1c1
100
AcDbEntity
100
AcDbLine
10
98.867248
20
81.859241
30
0.0
11
104.861735
21
81.859241
31
0.0
0
LINE
8
Layer 1
62
4
5
1c2
100
AcDbEntity
100
AcDbLine
10
104.861735
20
81.859241
30
0.0
11
104.861735
21
56.855030
31
0.0
0
LINE
8
Layer 1
62
4
5
1c3
100
AcDbEntity
100
AcDbLine
10
104.861735
20
56.855030
30
0.0
11
98.867248
21
56.855030
31
0.0
0
LINE
8
Layer 1
62
4
5
1c4
100
AcDbEntity
100
AcDbLine
10
98.867248
20
56.855030
30
0.0
11
98.867248
21
52.855213
31
0.0
0
LINE
8
Layer 1
62
4
5
1c5
100
AcDbEntity
100
AcDbLine
10
98.867248
20
52.855213
30
0.0
11
88.858522
21
52.855213
31
0.0
0
LINE
8
Layer 1
62
4
5
1c6
100
AcDbEntity
100
AcDbLine
10
88.858522
20
52.855213
30
0.0
11
88.863478
21
56.855030
31
0.0
0
LINE
8
Layer 1
62
4
5
1c7
100
AcDbEntity
100
AcDbLine
10
88.863478
20
56.855030
30
0.0
11
78.859710
21
56.855030
31
0.0
0
LINE
8
Layer 1
62
4
5
1c8
100
AcDbEntity
100
AcDbLine
10
78.859710
20
56.855030
30
0.0
11
78.859710
21
52.855213
31
0.0
0
LINE
8
Layer 1
62
4
5
1c9
100
AcDbEntity
100
AcDbLine
10
78.859710
20
52.855213
30
0.0
11
68.855940
21
52.855213
31
0.0
0
LINE
8
Layer 1
62
4
5
1ca
100
AcDbEntity
100
AcDbLine
10
68.855940
20
52.855213
30
0.0
11
68.855940
21
56.855030
31
0.0
0
LINE
8
Layer 1
62
4
5
1cb
100
AcDbEntity
100
AcDbLine
10
68.855940
20
56.855030
30
0.0
11
58.855737
21
56.855030
31
0.0
0
LINE
8
Layer 1
62
4
5
1cc
100
AcDbEntity
100
AcDbLine
10
58.855737
20
56.855030
30
0.0
11
58.855737
21
81.862366
31
0.0
0
LINE
8
Layer 1
62
4
5
1cd
100
AcDbEntity
100
AcDbLine
10
58.855737
20
81.862366
30
0.0
11
58.855737
21
81.862366
31
0.0
0
LINE
8
Layer 1
62
4
5
1ce
100
AcDbEntity
100
AcDbLine
10
69.858517
20
77.859241
30
0.0
11
69.858517
21
63.859241
31
0.0
0
LINE
8
Layer 1
62
4
5
1cf
100
AcDbEntity
100
AcDbLine
10
69.858517
20
63.859241
30
0.0
11
92.858522
21
63.859241
31
0.0
0
LINE
8
Layer 1
62
4
5
1d0
100
AcDbEntity
100
AcDbLine
10
92.858522
20
63.859241
30
0.0
11
92.858522
21
77.859241
31
0.0
0
LINE
8
Layer 1
62
4
5
1d1
100
AcDbEntity
100
AcDbLine
10
92.858522
20
77.859241
30
0.0
11
69.858517
21
77.859241
31
0.0
0
LINE
8
Layer 1
62
4
5
1d2
100
AcDbEntity
100
AcDbLine
10
69.858517
20
77.859241
30
0.0
11
69.858517
21
77.859241
31
0.0
0
LINE
8
Layer 1
62
4
5
1d3
100
AcDbEntity
100
AcDbLine
10
97.858521
20
61.859245
30
0.0
11
100.858518
21
61.859245
31
0.0
0
LINE
8
Layer 1
62
4
5
1d4
100
AcDbEntity
100
AcDbLine
10
100.858518
20
61.859245
30
0.0
11
100.858518
21
59.859243
31
0.0
0
LINE
8
Layer 1
62
4
5
1d5
100
AcDbEntity
100
AcDbLine
10
100.858518
20
59.859243
30
0.0
11
97.858521
21
59.859243
31
0.0
0
LINE
8
Layer 1
62
4
5
1d6
100
AcDbEntity
100
AcDbLine
10
97.858521
20
59.859243
30
0.0
11
97.858521
21
61.859245
31
0.0
0
LINE
8
Layer 1
62
4
5
1d7
100
AcDbEntity
100
AcDbLine
10
97.858521
20
61.859245
30
0.0
11
97.858521
21
61.859245
31
0.0
0
LINE
8
Layer 1
62
4
5
1d8
100
AcDbEntity
100
AcDbLine
10
62.858520
20
61.859245
30
0.0
11
65.858517
21
61.859245
31
0.0
0
LINE
8
Layer 1
62
4
5
1d9
100
AcDbEntity
100
AcDbLine
10
65.858517
20
61.859245
30
0.0
11
65.858517
21
59.859243
31
0.0
0
LINE
8
Layer 1
62
4
5
1da
100
AcDbEntity
100
AcDbLine
10
65.858517
20
59.859243
30
0.0
11
62.858520
21
59.859243
31
0.0
0
LINE
8
Layer 1
62
4
5
1db
100
AcDbEntity
100
AcDbLine
10
62.858520
20
59.859243
30
0.0
11
62.858520
21
61.859245
31
0.0
0
LINE
8
Layer 1
62
4
5
1dc
100
AcDbEntity
100
AcDbLine
10
62.858520
20
61.859245
30
0.0
11
62.858520
21
61.859245
31
0.0
0
LINE
8
Layer 1
62
4
5
1dd
100
AcDbEntity
100
AcDbLine
10
4.002842
20
85.995888
30
0.0
11
17.989948
21
85.995888
31
0.0
0
LINE
8
Layer 1
62
4
5
1de
100
AcDbEntity
100
AcDbLine
10
17.989948
20
85.995888
30
0.0
11
17.989948
21
81.997612
31
0.0
0
LINE
8
Layer 1
62
4
5
1df
100
AcDbEntity
100
AcDbLine
10
17.989948
20
81.997612
30
0.0
11
27.998824
21
81.997612
31
0.0
0
LINE
8
Layer 1
62
4
5
1e0
100
AcDbEntity
100
AcDbLine
10
27.998824
20
81.997612
30
0.0
11
27.994737
21
85.995888
31
0.0
0
LINE
8
Layer 1
62
4
5
1e1
100
AcDbEntity
100
AcDbLine
10
27.994737
20
85.995888
30
0.0
11
37.999526
21
85.995888
31
0.0
0
LINE
8
Layer 1
62
4
5
1e2
100
AcDbEntity
100
AcDbLine
10
37.999526
20
85.995888
30
0.0
11
37.999526
21
81.997612
31
0.0
0
LINE
8
Layer 1
62
4
5
1e3
100
AcDbEntity
100
AcDbLine
10
37.999526
20
81.997612
30
0.0
11
47.995405
21
81.997612
31
0.0
0
LINE
8
Layer 1
62
4
5
1e4
100
AcDbEntity
100
AcDbLine
10
47.995405
20
81.997612
30
0.0
11
47.995405
21
85.997968
31
0.0
0
LINE
8
Layer 1
62
4
5
1e5
100
AcDbEntity
100
AcDbLine
10
47.995405
20
85.997968
30
0.0
11
58.000194
21
85.995888
31
0.0
0
LINE
8
Layer 1
62
4
5
1e6
100
AcDbEntity
100
AcDbLine
10
58.000194
20
85.995888
30
0.0
11
58.000194
21
76.000009
31
0.0
0
LINE
8
Layer 1
62
4
5
1e7
100
AcDbEntity
100
AcDbLine
10
58.000194
20
76.000009
30
0.0
11
54.000061
21
76.000009
31
0.0
0
LINE
8
Layer 1
62
4
5
1e8
100
AcDbEntity
100
AcDbLine
10
54.000061
20
76.000009
30
0.0
11
54.000061
21
65.995220
31
0.0
0
LINE
8
Layer 1
62
4
5
1e9
100
AcDbEntity
100
AcDbLine
10
54.000061
20
65.995220
30
0.0
11
58.000194
21
65.995220
31
0.0
0
LINE
8
Layer 1
62
4
5
1ea
100
AcDbEntity
100
AcDbLine
10
58.000194
20
65.995220
30
0.0
11
57.998823
21
55.993007
31
0.0
0
LINE
8
Layer 1
62
4
5
1eb
100
AcDbEntity
100
AcDbLine
10
57.998823
20
55.993007
30
0.0
11
53.998822
21
55.993007
31
0.0
0
LINE
8
Layer 1
62
4
5
1ec
100
AcDbEntity
100
AcDbLine
10
53.998822
20
55.993007
30
0.0
11
54.000061
21
45.995536
31
0.0
0
LINE
8
Layer 1
62
4
5
1ed
100
AcDbEntity
100
AcDbLine
10
54.000061
20
45.995536
30
0.0
11
58.000194
21
45.995536
31
0.0
0
LINE
8
Layer 1
62
4
5
1ee
100
AcDbEntity
100
AcDbLine
10
58.000194
20
45.995536
30
0.0
11
58.000194
21
37.997624
31
0.0
0
LINE
8
Layer 1
62
4
5
1ef
100
AcDbEntity
100
AcDbLine
10
58.000194
20
37.997624
30
0.0
11
47.995405
21
37.997624
31
0.0
0
LINE
8
Layer 1
62
4
5
1f0
100
AcDbEntity
100
AcDbLine
10
47.995405
20
37.997624
30
0.0
11
47.995405
21
41.997969
31
0.0
0
LINE
8
Layer 1
62
4
5
1f1
100
AcDbEntity
100
AcDbLine
10
47.995405
20
41.997969
30
0.0
11
37.999526
21
41.995288
31
0.0
0
LINE
8
Layer 1
62
4
5
1f2
100
AcDbEntity
100
AcDbLine
10
37.999526
20
41.995288
30
0.0
11
37.999526
21
37.997624
31
0.0
0
LINE
8
Layer 1
62
4
5
1f3
100
AcDbEntity
100
AcDbLine
10
37.999526
20
37.997624
30
0.0
11
27.994737
21
37.997624
31
0.0
0
LINE
8
Layer 1
62
4
5
1f4
100
AcDbEntity
100
AcDbLine
10
27.994737
20
37.997624
30
0.0
11
27.994737
21
41.995288
31
0.0
0
LINE
8
Layer 1
62
4
5
1f5
100
AcDbEntity
100
AcDbLine
10
27.994737
20
41.995288
30
0.0
11
17.989948
21
41.995288
31
0.0
0
LINE
8
Layer 1
62
4
5
1f6
100
AcDbEntity
100
AcDbLine
10
17.989948
20
41.995288
30
0.0
11
17.989948
21
37.997968
31
0.0
0
LINE
8
Layer 1
62
4
5
1f7
100
AcDbEntity
100
AcDbLine
10
17.989948
20
37.997968
30
0.0
11
4.002842
21
37.997624
31
0.0
0
LINE
8
Layer 1
62
4
5
1f8
100
AcDbEntity
100
AcDbLine
10
4.002842
20
37.997624
30
0.0
11
3.998824
21
45.995536
31
0.0
0
LINE
8
Layer 1
62
4
5
1f9
100
AcDbEntity
100
AcDbLine
10
3.998824
20
45.995536
30
0.0
11
8.000213
21
45.995536
31
0.0
0
LINE
8
Layer 1
62
4
5
1fa
100
AcDbEntity
100
AcDbLine
10
8.000213
20
45.995536
30
0.0
11
8.000213
21
55.993007
31
0.0
0
LINE
8
Layer 1
62
4
5
1fb
100
AcDbEntity
100
AcDbLine
10
8.000213
20
55.993007
30
0.0
11
3.998824
21
55.993007
31
0.0
0
LINE
8
Layer 1
62
4
5
1fc
100
AcDbEntity
100
AcDbLine
10
3.998824
20
55.993007
30
0.0
11
4.002842
21
65.995220
31
0.0
0
LINE
8
Layer 1
62
4
5
1fd
100
AcDbEntity
100
AcDbLine
10
4.002842
20
65.995220
30
0.0
11
8.000213
21
65.995220
31
0.0
0
LINE
8
Layer 1
62
4
5
1fe
100
AcDbEntity
100
AcDbLine
10
8.000213
20
65.995220
30
0.0
11
8.000213
21
75.997968
31
0.0
0
LINE
8
Layer 1
62
4
5
1ff
100
AcDbEntity
100
AcDbLine
10
8.000213
20
75.997968
30
0.0
11
4.002842
21
76.000009
31
0.0
0
LINE
8
Layer 1
62
4
5
200
100
AcDbEntity
100
AcDbLine
10
4.002842
20
76.000009
30
0.0
11
4.002842
21
81.997612
31
0.0
0
LINE
8
Layer 1
62
4
5
201
100
AcDbEntity
100
AcDbLine
10
4.002842
20
81.997612
30
0.0
11
4.002842
21
85.995888
31
0.0
0
LINE
8
Layer 1
62
4
5
202
100
AcDbEntity
100
AcDbLine
10
4.002842
20
85.995888
30
0.0
11
4.002842
21
85.995888
31
0.0
0
LINE
8
Layer 1
62
4
5
203
100
AcDbEntity
100
AcDbLine
10
46.998825
20
78.997968
30
0.0
11
49.998825
21
78.997968
31
0.0
0
LINE
8
Layer 1
62
4
5
204
100
AcDbEntity
100
AcDbLine
10
49.998825
20
78.997968
30
0.0
11
49.998825
21
76.997966
31
0.0
0
LINE
8
Layer 1
62
4
5
205
100
AcDbEntity
100
AcDbLine
10
49.998825
20
76.997966
30
0.0
11
46.998825
21
76.997966
31
0.0
0
LINE
8
Layer 1
62
4
5
206
100
AcDbEntity
100
AcDbLine
10
46.998825
20
76.997966
30
0.0
11
46.998825
21
78.997968
31
0.0
0
LINE
8
Layer 1
62
4
5
207
100
AcDbEntity
100
AcDbLine
10
46.998825
20
78.997968
30
0.0
11
46.998825
21
78.997968
31
0.0
0
LINE
8
Layer 1
62
4
5
208
100
AcDbEntity
100
AcDbLine
10
11.998825
20
78.997968
30
0.0
11
14.998824
21
78.997968
31
0.0
0
LINE
8
Layer 1
62
4
5
209
100
AcDbEntity
100
AcDbLine
10
14.998824
20
78.997968
30
0.0
11
14.998824
21
76.997966
31
0.0
0
LINE
8
Layer 1
62
4
5
20a
100
AcDbEntity
100
AcDbLine
10
14.998824
20
76.997966
30
0.0
11
11.998825
21
76.997966
31
0.0
0
LINE
8
Layer 1
62
4
5
20b
100
AcDbEntity
100
AcDbLine
10
11.998825
20
76.997966
30
0.0
11
11.998825
21
78.997968
31
0.0
0
LINE
8
Layer 1
62
4
5
20c
100
AcDbEntity
100
AcDbLine
10
11.998825
20
78.997968
30
0.0
11
11.998825
21
78.997968
31
0.0
0
LINE
8
Layer 1
62
4
5
20d
100
AcDbEntity
100
AcDbLine
10
94.015831
20
52.000494
30
0.0
11
94.015831
21
34.000008
31
0.0
0
LINE
8
Layer 1
62
4
5
20e
100
AcDbEntity
100
AcDbLine
10
94.015831
20
34.000008
30
0.0
11
103.002845
21
34.000008
31
0.0
0
LINE
8
Layer 1
62
4
5
20f
100
AcDbEntity
100
AcDbLine
10
103.002845
20
34.000008
30
0.0
11
103.011918
21
21.000164
31
0.0
0
LINE
8
Layer 1
62
4
5
210
100
AcDbEntity
100
AcDbLine
10
103.011918
20
21.000164
30
0.0
11
94.012704
21
21.000164
31
0.0
0
LINE
8
Layer 1
62
4
5
211
100
AcDbEntity
100
AcDbLine
10
94.012704
20
21.000164
30
0.0
11
94.015831
21
4.005072
31
0.0
0
LINE
8
Layer 1
62
4
5
212
100
AcDbEntity
100
AcDbLine
10
94.015831
20
4.005072
30
0.0
11
98.011039
21
4.005072
31
0.0
0
LINE
8
Layer 1
62
4
5
213
100
AcDbEntity
100
AcDbLine
10
98.011039
20
4.005072
30
0.0
11
98.011039
21
8.000294
31
0.0
0
LINE
8
Layer 1
62
4
5
214
100
AcDbEntity
100
AcDbLine
10
98.011039
20
8.000294
30
0.0
11
107.006873
21
8.000294
31
0.0
0
LINE
8
Layer 1
62
4
5
215
100
AcDbEntity
100
AcDbLine
10
107.006873
20
8.000294
30
0.0
11
107.006873
21
11.995489
31
0.0
0
LINE
8
Layer 1
62
4
5
216
100
AcDbEntity
100
AcDbLine
10
107.006873
20
11.995489
30
0.0
11
111.010900
21
11.995489
31
0.0
0
LINE
8
Layer 1
62
4
5
217
100
AcDbEntity
100
AcDbLine
10
111.010900
20
11.995489
30
0.0
11
111.010900
21
22.005564
31
0.0
0
LINE
8
Layer 1
62
4
5
218
100
AcDbEntity
100
AcDbLine
10
111.010900
20
22.005564
30
0.0
11
107.006873
21
21.996744
31
0.0
0
LINE
8
Layer 1
62
4
5
219
100
AcDbEntity
100
AcDbLine
10
107.006873
20
21.996744
30
0.0
11
107.006873
21
31.997994
31
0.0
0
LINE
8
Layer 1
62
4
5
21a
100
AcDbEntity
100
AcDbLine
10
107.006873
20
31.997994
30
0.0
11
111.010900
21
31.997994
31
0.0
0
LINE
8
Layer 1
62
4
5
21b
100
AcDbEntity
100
AcDbLine
10
111.010900
20
31.997994
30
0.0
11
111.010900
21
41.999244
31
0.0
0
LINE
8
Layer 1
62
4
5
21c
100
AcDbEntity
100
AcDbLine
10
111.010900
20
41.999244
30
0.0
11
107.006873
21
41.999244
31
0.0
0
LINE
8
Layer 1
62
4
5
21d
100
AcDbEntity
100
AcDbLine
10
107.006873
20
41.999244
30
0.0
11
107.006873
21
52.000494
31
0.0
0
LINE
8
Layer 1
62
4
5
21e
100
AcDbEntity
100
AcDbLine
10
107.006873
20
52.000494
30
0.0
11
94.015831
21
52.000494
31
0.0
0
LINE
8
Layer 1
62
4
5
21f
100
AcDbEntity
100
AcDbLine
10
94.015831
20
52.000494
30
0.0
11
94.015831
21
52.000494
31
0.0
  0
ENDSEC
  0
SECTION
  2
OBJECTS
  0
DICTIONARY
  5
C
330
0
100
AcDbDictionary
  3
ACAD_GROUP
350
D
  3
ACAD_MLINESTYLE
350
17
  0
DICTIONARY
  5
D
330
C
100
AcDbDictionary
  0
DICTIONARY
  5
1A
330
C
100
AcDbDictionary
  0
DICTIONARY
  5
17
330
C
100
AcDbDictionary
  3
STANDARD
350
18
  0
DICTIONARY
  5
19
330
C
100
AcDbDictionary
  0
ENDSEC
  0
EOF
