999
DXF created by Inkscape
0
SECTION
2
ENTITIES
0
LINE
8
2
62
4
10
26.004762
20
204.000010
30
0
11
59.997422
21
203.997930
31
0
0
LINE
8
2
62
4
10
59.997422
20
203.997930
30
0
11
59.997422
21
199.999654
31
0
0
LINE
8
2
62
4
10
59.997422
20
199.999654
30
0
11
70.001189
21
199.999654
31
0
0
LINE
8
2
62
4
10
70.001189
20
199.999654
30
0
11
70.001189
21
203.997930
31
0
0
LINE
8
2
62
4
10
70.001189
20
203.997930
30
0
11
80.004960
21
203.997930
31
0
0
LINE
8
2
62
4
10
80.004960
20
203.997930
30
0
11
80.004960
21
199.999654
31
0
0
LINE
8
2
62
4
10
80.004960
20
199.999654
30
0
11
90.000001
21
199.999654
31
0
0
LINE
8
2
62
4
10
90.000001
20
199.999654
30
0
11
90.008730
21
203.997930
31
0
0
LINE
8
2
62
4
10
90.008730
20
203.997930
30
0
11
120.004019
21
203.997930
31
0
0
LINE
8
2
62
4
10
120.004019
20
203.997930
30
0
11
120.004019
21
155.999665
31
0
0
LINE
8
2
62
4
10
120.004019
20
155.999665
30
0
11
90.008730
21
155.999665
31
0
0
LINE
8
2
62
4
10
90.008730
20
155.999665
30
0
11
90.008730
21
159.997329
31
0
0
LINE
8
2
62
4
10
90.008730
20
159.997329
30
0
11
80.004960
21
159.997329
31
0
0
LINE
8
2
62
4
10
80.004960
20
159.997329
30
0
11
80.004960
21
155.999665
31
0
0
LINE
8
2
62
4
10
80.004960
20
155.999665
30
0
11
70.001189
21
155.999665
31
0
0
LINE
8
2
62
4
10
70.001189
20
155.999665
30
0
11
70.001189
21
159.997329
31
0
0
LINE
8
2
62
4
10
70.001189
20
159.997329
30
0
11
59.997422
21
159.997329
31
0
0
LINE
8
2
62
4
10
59.997422
20
159.997329
30
0
11
59.997422
21
155.999665
31
0
0
LINE
8
2
62
4
10
59.997422
20
155.999665
30
0
11
26.004762
21
155.999665
31
0
0
LINE
8
2
62
4
10
26.004762
20
155.999665
30
0
11
26.004762
21
204.000010
31
0
0
LINE
8
2
62
4
10
26.004762
20
204.000010
30
0
11
26.004762
21
204.000010
31
0
0
LINE
8
2
62
4
10
96.003214
20
194.002050
30
0
11
99.999902
21
194.002050
31
0
0
LINE
8
2
62
4
10
99.999902
20
194.002050
30
0
11
99.999902
21
184.000010
31
0
0
LINE
8
2
62
4
10
99.999902
20
184.000010
30
0
11
96.003214
21
183.997261
31
0
0
LINE
8
2
62
4
10
96.003214
20
183.997261
30
0
11
96.003214
21
194.002050
31
0
0
LINE
8
2
62
4
10
96.003214
20
194.002050
30
0
11
96.003214
21
194.002050
31
0
0
LINE
8
2
62
4
10
96.003214
20
173.995049
30
0
11
99.999902
21
173.995049
31
0
0
LINE
8
2
62
4
10
99.999902
20
173.995049
30
0
11
99.999902
21
163.997578
31
0
0
LINE
8
2
62
4
10
99.999902
20
163.997578
30
0
11
96.003214
21
163.997578
31
0
0
LINE
8
2
62
4
10
96.003214
20
163.997578
30
0
11
96.003214
21
173.995049
31
0
0
LINE
8
2
62
4
10
96.003214
20
173.995049
30
0
11
96.003214
21
173.995049
31
0
0
LINE
8
2
62
4
10
46.000001
20
173.995049
30
0
11
49.997219
21
173.995049
31
0
0
LINE
8
2
62
4
10
49.997219
20
173.995049
30
0
11
49.997219
21
163.997578
31
0
0
LINE
8
2
62
4
10
49.997219
20
163.997578
30
0
11
46.001539
21
164.000011
31
0
0
LINE
8
2
62
4
10
46.001539
20
164.000011
30
0
11
46.000001
21
173.995049
31
0
0
LINE
8
2
62
4
10
46.000001
20
173.995049
30
0
11
46.000001
21
173.995049
31
0
0
LINE
8
2
62
4
10
46.001539
20
183.997261
30
0
11
49.997219
21
183.997261
31
0
0
LINE
8
2
62
4
10
49.997219
20
183.997261
30
0
11
49.997219
21
194.002050
31
0
0
LINE
8
2
62
4
10
49.997219
20
194.002050
30
0
11
46.000001
21
194.002050
31
0
0
LINE
8
2
62
4
10
46.000001
20
194.002050
30
0
11
46.001539
21
183.997261
31
0
0
LINE
8
2
62
4
10
46.001539
20
183.997261
30
0
11
46.001539
21
183.997261
31
0
  0
SPLINE
  5
43
  8
0
 62
256
370
-1
  6
ByLayer
100
AcDbEntity
100
AcDbSpline
 70
8
 71
3
 72
8
 73
4
 74
0
 40
0
 40
0
 40
0
 40
0
 40
1
 40
1
 40
1
 40
1
 10
99.999899
 20
201.998972
 30
0
 10
103.409852
 20
203.002425
 30
0
 10
105.516719
 20
206.284549
 30
0
 10
105.009971
 20
209.803771
 30
0
  0
SPLINE
  5
43
  8
0
 62
256
370
-1
  6
ByLayer
100
AcDbEntity
100
AcDbSpline
 70
8
 71
3
 72
8
 73
4
 74
0
 40
0
 40
0
 40
0
 40
0
 40
1
 40
1
 40
1
 40
1
 10
105.009971
 20
209.803771
 30
0
 10
104.503223
 20
213.322994
 30
0
 10
101.556000
 20
215.876907
 30
0
 10
98.001555
 20
215.876907
 30
0
  0
SPLINE
  5
43
  8
0
 62
256
370
-1
  6
ByLayer
100
AcDbEntity
100
AcDbSpline
 70
8
 71
3
 72
8
 73
4
 74
0
 40
0
 40
0
 40
0
 40
0
 40
1
 40
1
 40
1
 40
1
 10
98.001555
 20
215.876907
 30
0
 10
94.447111
 20
215.876907
 30
0
 10
91.499887
 20
213.322994
 30
0
 10
90.993139
 20
209.803771
 30
0
  0
SPLINE
  5
43
  8
0
 62
256
370
-1
  6
ByLayer
100
AcDbEntity
100
AcDbSpline
 70
8
 71
3
 72
8
 73
4
 74
0
 40
0
 40
0
 40
0
 40
0
 40
1
 40
1
 40
1
 40
1
 10
90.993139
 20
209.803771
 30
0
 10
90.486391
 20
206.284549
 30
0
 10
92.593259
 20
203.002425
 30
0
 10
96.003212
 20
201.998972
 30
0
  0
SPLINE
  5
43
  8
0
 62
256
370
-1
  6
ByLayer
100
AcDbEntity
100
AcDbSpline
 70
8
 71
3
 72
8
 73
4
 74
0
 40
0
 40
0
 40
0
 40
0
 40
1
 40
1
 40
1
 40
1
 10
96.003212
 20
201.998972
 30
0
 10
92.593259
 20
200.995519
 30
0
 10
90.486391
 20
197.713396
 30
0
 10
90.993139
 20
194.194173
 30
0
  0
SPLINE
  5
43
  8
0
 62
256
370
-1
  6
ByLayer
100
AcDbEntity
100
AcDbSpline
 70
8
 71
3
 72
8
 73
4
 74
0
 40
0
 40
0
 40
0
 40
0
 40
1
 40
1
 40
1
 40
1
 10
90.993139
 20
194.194173
 30
0
 10
91.499887
 20
190.674951
 30
0
 10
94.447111
 20
188.121037
 30
0
 10
98.001555
 20
188.121037
 30
0
  0
SPLINE
  5
43
  8
0
 62
256
370
-1
  6
ByLayer
100
AcDbEntity
100
AcDbSpline
 70
8
 71
3
 72
8
 73
4
 74
0
 40
0
 40
0
 40
0
 40
0
 40
1
 40
1
 40
1
 40
1
 10
98.001555
 20
188.121037
 30
0
 10
101.556000
 20
188.121037
 30
0
 10
104.503223
 20
190.674951
 30
0
 10
105.009971
 20
194.194173
 30
0
  0
SPLINE
  5
43
  8
0
 62
256
370
-1
  6
ByLayer
100
AcDbEntity
100
AcDbSpline
 70
8
 71
3
 72
8
 73
4
 74
0
 40
0
 40
0
 40
0
 40
0
 40
1
 40
1
 40
1
 40
1
 10
105.009971
 20
194.194173
 30
0
 10
105.516719
 20
197.713396
 30
0
 10
103.409852
 20
200.995519
 30
0
 10
99.999899
 20
201.998972
 30
0
0
LINE
8
2
62
4
10
99.999899
20
201.998972
30
0
11
99.999899
21
201.998972
31
0
  0
SPLINE
  5
43
  8
0
 62
256
370
-1
  6
ByLayer
100
AcDbEntity
100
AcDbSpline
 70
8
 71
3
 72
8
 73
4
 74
0
 40
0
 40
0
 40
0
 40
0
 40
1
 40
1
 40
1
 40
1
 10
99.999899
 20
201.998972
 30
0
 10
103.409852
 20
203.002425
 30
0
 10
105.516719
 20
206.284549
 30
0
 10
105.009971
 20
209.803771
 30
0
  0
SPLINE
  5
43
  8
0
 62
256
370
-1
  6
ByLayer
100
AcDbEntity
100
AcDbSpline
 70
8
 71
3
 72
8
 73
4
 74
0
 40
0
 40
0
 40
0
 40
0
 40
1
 40
1
 40
1
 40
1
 10
105.009971
 20
209.803771
 30
0
 10
104.503223
 20
213.322994
 30
0
 10
101.556000
 20
215.876907
 30
0
 10
98.001555
 20
215.876907
 30
0
  0
SPLINE
  5
43
  8
0
 62
256
370
-1
  6
ByLayer
100
AcDbEntity
100
AcDbSpline
 70
8
 71
3
 72
8
 73
4
 74
0
 40
0
 40
0
 40
0
 40
0
 40
1
 40
1
 40
1
 40
1
 10
98.001555
 20
215.876907
 30
0
 10
94.447111
 20
215.876907
 30
0
 10
91.499887
 20
213.322994
 30
0
 10
90.993139
 20
209.803771
 30
0
  0
SPLINE
  5
43
  8
0
 62
256
370
-1
  6
ByLayer
100
AcDbEntity
100
AcDbSpline
 70
8
 71
3
 72
8
 73
4
 74
0
 40
0
 40
0
 40
0
 40
0
 40
1
 40
1
 40
1
 40
1
 10
90.993139
 20
209.803771
 30
0
 10
90.486391
 20
206.284549
 30
0
 10
92.593259
 20
203.002425
 30
0
 10
96.003212
 20
201.998972
 30
0
  0
SPLINE
  5
43
  8
0
 62
256
370
-1
  6
ByLayer
100
AcDbEntity
100
AcDbSpline
 70
8
 71
3
 72
8
 73
4
 74
0
 40
0
 40
0
 40
0
 40
0
 40
1
 40
1
 40
1
 40
1
 10
96.003212
 20
201.998972
 30
0
 10
92.593259
 20
200.995519
 30
0
 10
90.486391
 20
197.713396
 30
0
 10
90.993139
 20
194.194173
 30
0
  0
SPLINE
  5
43
  8
0
 62
256
370
-1
  6
ByLayer
100
AcDbEntity
100
AcDbSpline
 70
8
 71
3
 72
8
 73
4
 74
0
 40
0
 40
0
 40
0
 40
0
 40
1
 40
1
 40
1
 40
1
 10
90.993139
 20
194.194173
 30
0
 10
91.499887
 20
190.674951
 30
0
 10
94.447111
 20
188.121037
 30
0
 10
98.001555
 20
188.121037
 30
0
  0
SPLINE
  5
43
  8
0
 62
256
370
-1
  6
ByLayer
100
AcDbEntity
100
AcDbSpline
 70
8
 71
3
 72
8
 73
4
 74
0
 40
0
 40
0
 40
0
 40
0
 40
1
 40
1
 40
1
 40
1
 10
98.001555
 20
188.121037
 30
0
 10
101.556000
 20
188.121037
 30
0
 10
104.503223
 20
190.674951
 30
0
 10
105.009971
 20
194.194173
 30
0
  0
SPLINE
  5
43
  8
0
 62
256
370
-1
  6
ByLayer
100
AcDbEntity
100
AcDbSpline
 70
8
 71
3
 72
8
 73
4
 74
0
 40
0
 40
0
 40
0
 40
0
 40
1
 40
1
 40
1
 40
1
 10
105.009971
 20
194.194173
 30
0
 10
105.516719
 20
197.713396
 30
0
 10
103.409852
 20
200.995519
 30
0
 10
99.999899
 20
201.998972
 30
0
0
LINE
8
2
62
4
10
99.999899
20
201.998972
30
0
11
99.999899
21
201.998972
31
0
  0
SPLINE
  5
43
  8
0
 62
256
370
-1
  6
ByLayer
100
AcDbEntity
100
AcDbSpline
 70
8
 71
3
 72
8
 73
4
 74
0
 40
0
 40
0
 40
0
 40
0
 40
1
 40
1
 40
1
 40
1
 10
99.999899
 20
201.998972
 30
0
 10
103.409852
 20
203.002425
 30
0
 10
105.516719
 20
206.284549
 30
0
 10
105.009971
 20
209.803771
 30
0
  0
SPLINE
  5
43
  8
0
 62
256
370
-1
  6
ByLayer
100
AcDbEntity
100
AcDbSpline
 70
8
 71
3
 72
8
 73
4
 74
0
 40
0
 40
0
 40
0
 40
0
 40
1
 40
1
 40
1
 40
1
 10
105.009971
 20
209.803771
 30
0
 10
104.503223
 20
213.322994
 30
0
 10
101.556000
 20
215.876907
 30
0
 10
98.001555
 20
215.876907
 30
0
  0
SPLINE
  5
43
  8
0
 62
256
370
-1
  6
ByLayer
100
AcDbEntity
100
AcDbSpline
 70
8
 71
3
 72
8
 73
4
 74
0
 40
0
 40
0
 40
0
 40
0
 40
1
 40
1
 40
1
 40
1
 10
98.001555
 20
215.876907
 30
0
 10
94.447111
 20
215.876907
 30
0
 10
91.499887
 20
213.322994
 30
0
 10
90.993139
 20
209.803771
 30
0
  0
SPLINE
  5
43
  8
0
 62
256
370
-1
  6
ByLayer
100
AcDbEntity
100
AcDbSpline
 70
8
 71
3
 72
8
 73
4
 74
0
 40
0
 40
0
 40
0
 40
0
 40
1
 40
1
 40
1
 40
1
 10
90.993139
 20
209.803771
 30
0
 10
90.486391
 20
206.284549
 30
0
 10
92.593259
 20
203.002425
 30
0
 10
96.003212
 20
201.998972
 30
0
  0
SPLINE
  5
43
  8
0
 62
256
370
-1
  6
ByLayer
100
AcDbEntity
100
AcDbSpline
 70
8
 71
3
 72
8
 73
4
 74
0
 40
0
 40
0
 40
0
 40
0
 40
1
 40
1
 40
1
 40
1
 10
96.003212
 20
201.998972
 30
0
 10
92.593259
 20
200.995519
 30
0
 10
90.486391
 20
197.713396
 30
0
 10
90.993139
 20
194.194173
 30
0
  0
SPLINE
  5
43
  8
0
 62
256
370
-1
  6
ByLayer
100
AcDbEntity
100
AcDbSpline
 70
8
 71
3
 72
8
 73
4
 74
0
 40
0
 40
0
 40
0
 40
0
 40
1
 40
1
 40
1
 40
1
 10
90.993139
 20
194.194173
 30
0
 10
91.499887
 20
190.674951
 30
0
 10
94.447111
 20
188.121037
 30
0
 10
98.001555
 20
188.121037
 30
0
  0
SPLINE
  5
43
  8
0
 62
256
370
-1
  6
ByLayer
100
AcDbEntity
100
AcDbSpline
 70
8
 71
3
 72
8
 73
4
 74
0
 40
0
 40
0
 40
0
 40
0
 40
1
 40
1
 40
1
 40
1
 10
98.001555
 20
188.121037
 30
0
 10
101.556000
 20
188.121037
 30
0
 10
104.503223
 20
190.674951
 30
0
 10
105.009971
 20
194.194173
 30
0
  0
SPLINE
  5
43
  8
0
 62
256
370
-1
  6
ByLayer
100
AcDbEntity
100
AcDbSpline
 70
8
 71
3
 72
8
 73
4
 74
0
 40
0
 40
0
 40
0
 40
0
 40
1
 40
1
 40
1
 40
1
 10
105.009971
 20
194.194173
 30
0
 10
105.516719
 20
197.713396
 30
0
 10
103.409852
 20
200.995519
 30
0
 10
99.999899
 20
201.998972
 30
0
0
LINE
8
2
62
4
10
99.999899
20
201.998972
30
0
11
99.999899
21
201.998972
31
0
  0
SPLINE
  5
43
  8
0
 62
256
370
-1
  6
ByLayer
100
AcDbEntity
100
AcDbSpline
 70
8
 71
3
 72
8
 73
4
 74
0
 40
0
 40
0
 40
0
 40
0
 40
1
 40
1
 40
1
 40
1
 10
99.999899
 20
201.998972
 30
0
 10
103.409852
 20
203.002425
 30
0
 10
105.516719
 20
206.284549
 30
0
 10
105.009971
 20
209.803771
 30
0
  0
SPLINE
  5
43
  8
0
 62
256
370
-1
  6
ByLayer
100
AcDbEntity
100
AcDbSpline
 70
8
 71
3
 72
8
 73
4
 74
0
 40
0
 40
0
 40
0
 40
0
 40
1
 40
1
 40
1
 40
1
 10
105.009971
 20
209.803771
 30
0
 10
104.503223
 20
213.322994
 30
0
 10
101.556000
 20
215.876907
 30
0
 10
98.001555
 20
215.876907
 30
0
  0
SPLINE
  5
43
  8
0
 62
256
370
-1
  6
ByLayer
100
AcDbEntity
100
AcDbSpline
 70
8
 71
3
 72
8
 73
4
 74
0
 40
0
 40
0
 40
0
 40
0
 40
1
 40
1
 40
1
 40
1
 10
98.001555
 20
215.876907
 30
0
 10
94.447111
 20
215.876907
 30
0
 10
91.499887
 20
213.322994
 30
0
 10
90.993139
 20
209.803771
 30
0
  0
SPLINE
  5
43
  8
0
 62
256
370
-1
  6
ByLayer
100
AcDbEntity
100
AcDbSpline
 70
8
 71
3
 72
8
 73
4
 74
0
 40
0
 40
0
 40
0
 40
0
 40
1
 40
1
 40
1
 40
1
 10
90.993139
 20
209.803771
 30
0
 10
90.486391
 20
206.284549
 30
0
 10
92.593259
 20
203.002425
 30
0
 10
96.003212
 20
201.998972
 30
0
  0
SPLINE
  5
43
  8
0
 62
256
370
-1
  6
ByLayer
100
AcDbEntity
100
AcDbSpline
 70
8
 71
3
 72
8
 73
4
 74
0
 40
0
 40
0
 40
0
 40
0
 40
1
 40
1
 40
1
 40
1
 10
96.003212
 20
201.998972
 30
0
 10
92.593259
 20
200.995519
 30
0
 10
90.486391
 20
197.713396
 30
0
 10
90.993139
 20
194.194173
 30
0
  0
SPLINE
  5
43
  8
0
 62
256
370
-1
  6
ByLayer
100
AcDbEntity
100
AcDbSpline
 70
8
 71
3
 72
8
 73
4
 74
0
 40
0
 40
0
 40
0
 40
0
 40
1
 40
1
 40
1
 40
1
 10
90.993139
 20
194.194173
 30
0
 10
91.499887
 20
190.674951
 30
0
 10
94.447111
 20
188.121037
 30
0
 10
98.001555
 20
188.121037
 30
0
  0
SPLINE
  5
43
  8
0
 62
256
370
-1
  6
ByLayer
100
AcDbEntity
100
AcDbSpline
 70
8
 71
3
 72
8
 73
4
 74
0
 40
0
 40
0
 40
0
 40
0
 40
1
 40
1
 40
1
 40
1
 10
98.001555
 20
188.121037
 30
0
 10
101.556000
 20
188.121037
 30
0
 10
104.503223
 20
190.674951
 30
0
 10
105.009971
 20
194.194173
 30
0
  0
SPLINE
  5
43
  8
0
 62
256
370
-1
  6
ByLayer
100
AcDbEntity
100
AcDbSpline
 70
8
 71
3
 72
8
 73
4
 74
0
 40
0
 40
0
 40
0
 40
0
 40
1
 40
1
 40
1
 40
1
 10
105.009971
 20
194.194173
 30
0
 10
105.516719
 20
197.713396
 30
0
 10
103.409852
 20
200.995519
 30
0
 10
99.999899
 20
201.998972
 30
0
0
LINE
8
2
62
4
10
99.999899
20
201.998972
30
0
11
99.999899
21
201.998972
31
0
0
LINE
8
2
62
4
10
61.150068
20
49.145357
30
0
11
61.150068
21
39.144107
31
0
0
LINE
8
2
62
4
10
61.150068
20
39.144107
30
0
11
57.146040
21
39.144107
31
0
0
LINE
8
2
62
4
10
57.146040
20
39.144107
30
0
11
57.146040
21
29.142857
31
0
0
LINE
8
2
62
4
10
57.146040
20
29.142857
30
0
11
61.150068
21
29.142857
31
0
0
LINE
8
2
62
4
10
61.150068
20
29.142857
30
0
11
61.150068
21
19.141607
31
0
0
LINE
8
2
62
4
10
61.150068
20
19.141607
30
0
11
57.146040
21
19.141607
31
0
0
LINE
8
2
62
4
10
57.146040
20
19.141607
30
0
11
57.146040
21
9.140359
31
0
0
LINE
8
2
62
4
10
57.146040
20
9.140359
30
0
11
61.150068
21
9.140359
31
0
0
LINE
8
2
62
4
10
61.150068
20
9.140359
30
0
11
61.150068
21
5.145137
31
0
0
LINE
8
2
62
4
10
61.150068
20
5.145137
30
0
11
69.149304
21
5.145137
31
0
0
LINE
8
2
62
4
10
69.149304
20
5.145137
30
0
11
69.149304
21
1.141109
31
0
0
LINE
8
2
62
4
10
69.149304
20
1.141109
30
0
11
73.144513
21
1.141109
31
0
0
LINE
8
2
62
4
10
73.144513
20
1.141109
30
0
11
73.147222
21
12.145038
31
0
0
LINE
8
2
62
4
10
73.147222
20
12.145038
30
0
11
65.147221
21
12.145038
31
0
0
LINE
8
2
62
4
10
65.147221
20
12.145038
30
0
11
65.154096
21
27.140843
31
0
0
LINE
8
2
62
4
10
65.154096
20
27.140843
30
0
11
73.144513
21
27.140843
31
0
0
LINE
8
2
62
4
10
73.144513
20
27.140843
30
0
11
73.144513
21
49.145357
31
0
0
LINE
8
2
62
4
10
73.144513
20
49.145357
30
0
11
61.150068
21
49.145357
31
0
0
LINE
8
2
62
4
10
61.150068
20
49.145357
30
0
11
61.150068
21
49.145357
31
0
0
LINE
8
2
62
4
10
75.001038
20
47.005697
30
0
11
75.003747
21
29.005366
31
0
0
LINE
8
2
62
4
10
75.003747
20
29.005366
30
0
11
81.003747
21
29.005366
31
0
0
LINE
8
2
62
4
10
81.003747
20
29.005366
30
0
11
81.007080
21
11.004719
31
0
0
LINE
8
2
62
4
10
81.007080
20
11.004719
30
0
11
75.001038
21
11.004719
31
0
0
LINE
8
2
62
4
10
75.001038
20
11.004719
30
0
11
75.001038
21
3.005497
31
0
0
LINE
8
2
62
4
10
75.001038
20
3.005497
30
0
11
88.000899
21
3.005497
31
0
0
LINE
8
2
62
4
10
88.000899
20
3.005497
30
0
11
88.009719
21
7.000692
31
0
0
LINE
8
2
62
4
10
88.009719
20
7.000692
30
0
11
92.004927
21
7.000692
31
0
0
LINE
8
2
62
4
10
92.004927
20
7.000692
30
0
11
92.004927
21
17.001942
31
0
0
LINE
8
2
62
4
10
92.004927
20
17.001942
30
0
11
88.009719
21
17.001942
31
0
0
LINE
8
2
62
4
10
88.009719
20
17.001942
30
0
11
88.009719
21
27.003197
31
0
0
LINE
8
2
62
4
10
88.009719
20
27.003197
30
0
11
92.004927
21
27.003197
31
0
0
LINE
8
2
62
4
10
92.004927
20
27.003197
30
0
11
92.004927
21
37.004447
31
0
0
LINE
8
2
62
4
10
92.004927
20
37.004447
30
0
11
88.009719
21
37.004447
31
0
0
LINE
8
2
62
4
10
88.009719
20
37.004447
30
0
11
88.009719
21
47.005697
31
0
0
LINE
8
2
62
4
10
88.009719
20
47.005697
30
0
11
75.001038
21
47.005697
31
0
0
LINE
8
2
62
4
10
75.001038
20
47.005697
30
0
11
75.001038
21
47.005697
31
0
0
LINE
8
2
62
4
10
97.008947
20
50.000219
30
0
11
97.008947
21
39.998969
31
0
0
LINE
8
2
62
4
10
97.008947
20
39.998969
30
0
11
93.013739
21
39.998969
31
0
0
LINE
8
2
62
4
10
93.013739
20
39.998969
30
0
11
93.013739
21
29.997719
31
0
0
LINE
8
2
62
4
10
93.013739
20
29.997719
30
0
11
97.008947
21
29.997719
31
0
0
LINE
8
2
62
4
10
97.008947
20
29.997719
30
0
11
97.008947
21
19.996469
31
0
0
LINE
8
2
62
4
10
97.008947
20
19.996469
30
0
11
92.987281
21
19.996469
31
0
0
LINE
8
2
62
4
10
92.987281
20
19.996469
30
0
11
93.013739
21
9.995210
31
0
0
LINE
8
2
62
4
10
93.013739
20
9.995210
30
0
11
97.008947
21
9.995210
31
0
0
LINE
8
2
62
4
10
97.008947
20
9.995210
30
0
11
97.008947
21
6.000016
31
0
0
LINE
8
2
62
4
10
97.008947
20
6.000016
30
0
11
109.012211
21
6.000016
31
0
0
LINE
8
2
62
4
10
109.012211
20
6.000016
30
0
11
109.012211
21
19.996469
31
0
0
LINE
8
2
62
4
10
109.012211
20
19.996469
30
0
11
104.011586
21
19.996469
31
0
0
LINE
8
2
62
4
10
104.011586
20
19.996469
30
0
11
104.012557
21
35.999888
31
0
0
LINE
8
2
62
4
10
104.012557
20
35.999888
30
0
11
109.013343
21
35.999888
31
0
0
LINE
8
2
62
4
10
109.013343
20
35.999888
30
0
11
109.012211
21
50.000219
31
0
0
LINE
8
2
62
4
10
109.012211
20
50.000219
30
0
11
97.008947
21
50.000219
31
0
0
LINE
8
2
62
4
10
97.008947
20
50.000219
30
0
11
97.008947
21
50.000219
31
0
0
LINE
8
2
62
4
10
70.001189
20
119.000874
30
0
11
80.004960
21
119.000874
31
0
0
LINE
8
2
62
4
10
80.004960
20
119.000874
30
0
11
80.004960
21
122.995981
31
0
0
LINE
8
2
62
4
10
80.004960
20
122.995981
30
0
11
90.008730
21
122.995981
31
0
0
LINE
8
2
62
4
10
90.008730
20
122.995981
30
0
11
90.008730
21
119.000874
31
0
0
LINE
8
2
62
4
10
90.008730
20
119.000874
30
0
11
99.999902
21
119.000874
31
0
0
LINE
8
2
62
4
10
99.999902
20
119.000874
30
0
11
99.999902
21
106.004447
31
0
0
LINE
8
2
62
4
10
99.999902
20
106.004447
30
0
11
96.003214
21
106.004447
31
0
0
LINE
8
2
62
4
10
96.003214
20
106.004447
30
0
11
96.003214
21
102.000750
31
0
0
LINE
8
2
62
4
10
96.003214
20
102.000750
30
0
11
99.999902
21
102.000750
31
0
0
LINE
8
2
62
4
10
99.999902
20
102.000750
30
0
11
99.999902
21
93.997647
31
0
0
LINE
8
2
62
4
10
99.999902
20
93.997647
30
0
11
90.008730
21
93.997647
31
0
0
LINE
8
2
62
4
10
90.008730
20
93.997647
30
0
11
90.008730
21
90.002439
31
0
0
LINE
8
2
62
4
10
90.008730
20
90.002439
30
0
11
80.004960
21
90.002439
31
0
0
LINE
8
2
62
4
10
80.004960
20
90.002439
30
0
11
80.004960
21
93.997647
31
0
0
LINE
8
2
62
4
10
80.004960
20
93.997647
30
0
11
70.001189
21
93.997647
31
0
0
LINE
8
2
62
4
10
70.001189
20
93.997647
30
0
11
70.001189
21
90.002439
31
0
0
LINE
8
2
62
4
10
70.001189
20
90.002439
30
0
11
59.997422
21
90.002439
31
0
0
LINE
8
2
62
4
10
59.997422
20
90.002439
30
0
11
59.997422
21
93.997647
31
0
0
LINE
8
2
62
4
10
59.997422
20
93.997647
30
0
11
46.001539
21
93.997647
31
0
0
LINE
8
2
62
4
10
46.001539
20
93.997647
30
0
11
46.001539
21
102.000750
31
0
0
LINE
8
2
62
4
10
46.001539
20
102.000750
30
0
11
49.997219
21
102.000750
31
0
0
LINE
8
2
62
4
10
49.997219
20
102.000750
30
0
11
49.997219
21
106.004447
31
0
0
LINE
8
2
62
4
10
49.997219
20
106.004447
30
0
11
46.001539
21
106.000011
31
0
0
LINE
8
2
62
4
10
46.001539
20
106.000011
30
0
11
46.000001
21
119.000874
31
0
0
LINE
8
2
62
4
10
46.000001
20
119.000874
30
0
11
59.997422
21
119.000874
31
0
0
LINE
8
2
62
4
10
59.997422
20
119.000874
30
0
11
59.997422
21
122.995981
31
0
0
LINE
8
2
62
4
10
59.997422
20
122.995981
30
0
11
70.001189
21
122.995981
31
0
0
LINE
8
2
62
4
10
70.001189
20
122.995981
30
0
11
70.001189
21
119.000874
31
0
0
LINE
8
2
62
4
10
70.001189
20
119.000874
30
0
11
70.001189
21
119.000874
31
0
0
LINE
8
2
62
4
10
60.999999
20
98.000010
30
0
11
60.999999
21
115.000010
31
0
0
LINE
8
2
62
4
10
60.999999
20
115.000010
30
0
11
73.000001
21
115.000010
31
0
0
LINE
8
2
62
4
10
73.000001
20
115.000010
30
0
11
73.000001
21
98.000010
31
0
0
LINE
8
2
62
4
10
73.000001
20
98.000010
30
0
11
60.999999
21
98.000010
31
0
0
LINE
8
2
62
4
10
60.999999
20
98.000010
30
0
11
60.999999
21
98.000010
31
0
0
LINE
8
2
62
4
10
75.000000
20
98.000010
30
0
11
75.000000
21
112.000010
31
0
0
LINE
8
2
62
4
10
75.000000
20
112.000010
30
0
11
87.999999
21
112.000010
31
0
0
LINE
8
2
62
4
10
87.999999
20
112.000010
30
0
11
87.999999
21
97.997052
31
0
0
LINE
8
2
62
4
10
87.999999
20
97.997052
30
0
11
75.000000
21
98.000010
31
0
0
LINE
8
2
62
4
10
75.000000
20
98.000010
30
0
11
75.000000
21
98.000010
31
0
0
LINE
8
2
62
4
10
49.997219
20
152.003133
30
0
11
59.997422
21
152.003133
31
0
0
LINE
8
2
62
4
10
59.997422
20
152.003133
30
0
11
60.000001
21
155.999665
31
0
0
LINE
8
2
62
4
10
60.000001
20
155.999665
30
0
11
70.000001
21
155.999665
31
0
0
LINE
8
2
62
4
10
70.000001
20
155.999665
30
0
11
70.001189
21
152.000009
31
0
0
LINE
8
2
62
4
10
70.001189
20
152.000009
30
0
11
80.004960
21
152.003133
31
0
0
LINE
8
2
62
4
10
80.004960
20
152.003133
30
0
11
80.000001
21
155.999665
31
0
0
LINE
8
2
62
4
10
80.000001
20
155.999665
30
0
11
90.008730
21
155.999665
31
0
0
LINE
8
2
62
4
10
90.008730
20
155.999665
30
0
11
90.008730
21
152.000009
31
0
0
LINE
8
2
62
4
10
90.008730
20
152.000009
30
0
11
96.003214
21
152.000009
31
0
0
LINE
8
2
62
4
10
96.003214
20
152.000009
30
0
11
96.003214
21
126.995798
31
0
0
LINE
8
2
62
4
10
96.003214
20
126.995798
30
0
11
90.008730
21
126.995798
31
0
0
LINE
8
2
62
4
10
90.008730
20
126.995798
30
0
11
90.008730
21
122.995981
31
0
0
LINE
8
2
62
4
10
90.008730
20
122.995981
30
0
11
80.000001
21
122.995981
31
0
0
LINE
8
2
62
4
10
80.000001
20
122.995981
30
0
11
80.004960
21
126.995798
31
0
0
LINE
8
2
62
4
10
80.004960
20
126.995798
30
0
11
70.001189
21
126.995798
31
0
0
LINE
8
2
62
4
10
70.001189
20
126.995798
30
0
11
70.001189
21
122.995981
31
0
0
LINE
8
2
62
4
10
70.001189
20
122.995981
30
0
11
59.997422
21
122.995981
31
0
0
LINE
8
2
62
4
10
59.997422
20
122.995981
30
0
11
59.997422
21
126.995798
31
0
0
LINE
8
2
62
4
10
59.997422
20
126.995798
30
0
11
49.997219
21
126.995798
31
0
0
LINE
8
2
62
4
10
49.997219
20
126.995798
30
0
11
49.997219
21
152.003133
31
0
0
LINE
8
2
62
4
10
49.997219
20
152.003133
30
0
11
49.997219
21
152.003133
31
0
0
LINE
8
2
62
4
10
60.999999
20
148.000009
30
0
11
60.999999
21
134.000009
31
0
0
LINE
8
2
62
4
10
60.999999
20
134.000009
30
0
11
84.000001
21
134.000009
31
0
0
LINE
8
2
62
4
10
84.000001
20
134.000009
30
0
11
84.000001
21
148.000009
31
0
0
LINE
8
2
62
4
10
84.000001
20
148.000009
30
0
11
60.999999
21
148.000009
31
0
0
LINE
8
2
62
4
10
60.999999
20
148.000009
30
0
11
60.999999
21
148.000009
31
0
0
LINE
8
2
62
4
10
89.000000
20
132.000013
30
0
11
91.999999
21
132.000013
31
0
0
LINE
8
2
62
4
10
91.999999
20
132.000013
30
0
11
91.999999
21
130.000011
31
0
0
LINE
8
2
62
4
10
91.999999
20
130.000011
30
0
11
89.000000
21
130.000011
31
0
0
LINE
8
2
62
4
10
89.000000
20
130.000011
30
0
11
89.000000
21
132.000013
31
0
0
LINE
8
2
62
4
10
89.000000
20
132.000013
30
0
11
89.000000
21
132.000013
31
0
0
LINE
8
2
62
4
10
53.999999
20
132.000013
30
0
11
56.999999
21
132.000013
31
0
0
LINE
8
2
62
4
10
56.999999
20
132.000013
30
0
11
56.999999
21
130.000011
31
0
0
LINE
8
2
62
4
10
56.999999
20
130.000011
30
0
11
53.999999
21
130.000011
31
0
0
LINE
8
2
62
4
10
53.999999
20
130.000011
30
0
11
53.999999
21
132.000013
31
0
0
LINE
8
2
62
4
10
53.999999
20
132.000013
30
0
11
53.999999
21
132.000013
31
0
0
LINE
8
2
62
4
10
120.004019
20
203.997930
30
0
11
133.991124
21
203.997930
31
0
0
LINE
8
2
62
4
10
133.991124
20
203.997930
30
0
11
133.991124
21
199.999654
31
0
0
LINE
8
2
62
4
10
133.991124
20
199.999654
30
0
11
144.000000
21
199.999654
31
0
0
LINE
8
2
62
4
10
144.000000
20
199.999654
30
0
11
143.995913
21
203.997930
31
0
0
LINE
8
2
62
4
10
143.995913
20
203.997930
30
0
11
154.000702
21
203.997930
31
0
0
LINE
8
2
62
4
10
154.000702
20
203.997930
30
0
11
154.000702
21
199.999654
31
0
0
LINE
8
2
62
4
10
154.000702
20
199.999654
30
0
11
163.996582
21
199.999654
31
0
0
LINE
8
2
62
4
10
163.996582
20
199.999654
30
0
11
163.996582
21
204.000010
31
0
0
LINE
8
2
62
4
10
163.996582
20
204.000010
30
0
11
174.001371
21
203.997930
31
0
0
LINE
8
2
62
4
10
174.001371
20
203.997930
30
0
11
174.001371
21
194.002050
31
0
0
LINE
8
2
62
4
10
174.001371
20
194.002050
30
0
11
170.001238
21
194.002050
31
0
0
LINE
8
2
62
4
10
170.001238
20
194.002050
30
0
11
170.001238
21
183.997261
31
0
0
LINE
8
2
62
4
10
170.001238
20
183.997261
30
0
11
174.001371
21
183.997261
31
0
0
LINE
8
2
62
4
10
174.001371
20
183.997261
30
0
11
173.999999
21
173.995049
31
0
0
LINE
8
2
62
4
10
173.999999
20
173.995049
30
0
11
169.999999
21
173.995049
31
0
0
LINE
8
2
62
4
10
169.999999
20
173.995049
30
0
11
170.001238
21
163.997578
31
0
0
LINE
8
2
62
4
10
170.001238
20
163.997578
30
0
11
174.001371
21
163.997578
31
0
0
LINE
8
2
62
4
10
174.001371
20
163.997578
30
0
11
174.001371
21
155.999665
31
0
0
LINE
8
2
62
4
10
174.001371
20
155.999665
30
0
11
163.996582
21
155.999665
31
0
0
LINE
8
2
62
4
10
163.996582
20
155.999665
30
0
11
163.996582
21
160.000010
31
0
0
LINE
8
2
62
4
10
163.996582
20
160.000010
30
0
11
154.000702
21
159.997329
31
0
0
LINE
8
2
62
4
10
154.000702
20
159.997329
30
0
11
154.000702
21
155.999665
31
0
0
LINE
8
2
62
4
10
154.000702
20
155.999665
30
0
11
143.995913
21
155.999665
31
0
0
LINE
8
2
62
4
10
143.995913
20
155.999665
30
0
11
143.995913
21
159.997329
31
0
0
LINE
8
2
62
4
10
143.995913
20
159.997329
30
0
11
133.991124
21
159.997329
31
0
0
LINE
8
2
62
4
10
133.991124
20
159.997329
30
0
11
133.991124
21
156.000010
31
0
0
LINE
8
2
62
4
10
133.991124
20
156.000010
30
0
11
120.004019
21
155.999665
31
0
0
LINE
8
2
62
4
10
120.004019
20
155.999665
30
0
11
120.000000
21
163.997578
31
0
0
LINE
8
2
62
4
10
120.000000
20
163.997578
30
0
11
124.001389
21
163.997578
31
0
0
LINE
8
2
62
4
10
124.001389
20
163.997578
30
0
11
124.001389
21
173.995049
31
0
0
LINE
8
2
62
4
10
124.001389
20
173.995049
30
0
11
120.000000
21
173.995049
31
0
0
LINE
8
2
62
4
10
120.000000
20
173.995049
30
0
11
120.004019
21
183.997261
31
0
0
LINE
8
2
62
4
10
120.004019
20
183.997261
30
0
11
124.001389
21
183.997261
31
0
0
LINE
8
2
62
4
10
124.001389
20
183.997261
30
0
11
124.001389
21
194.000010
31
0
0
LINE
8
2
62
4
10
124.001389
20
194.000010
30
0
11
120.004019
21
194.002050
31
0
0
LINE
8
2
62
4
10
120.004019
20
194.002050
30
0
11
120.004019
21
199.999654
31
0
0
LINE
8
2
62
4
10
120.004019
20
199.999654
30
0
11
120.004019
21
203.997930
31
0
0
LINE
8
2
62
4
10
120.004019
20
203.997930
30
0
11
120.004019
21
203.997930
31
0
0
LINE
8
2
62
4
10
163.000001
20
197.000010
30
0
11
166.000001
21
197.000010
31
0
0
LINE
8
2
62
4
10
166.000001
20
197.000010
30
0
11
166.000001
21
195.000008
31
0
0
LINE
8
2
62
4
10
166.000001
20
195.000008
30
0
11
163.000001
21
195.000008
31
0
0
LINE
8
2
62
4
10
163.000001
20
195.000008
30
0
11
163.000001
21
197.000010
31
0
0
LINE
8
2
62
4
10
163.000001
20
197.000010
30
0
11
163.000001
21
197.000010
31
0
0
LINE
8
2
62
4
10
128.000001
20
197.000010
30
0
11
131.000000
21
197.000010
31
0
0
LINE
8
2
62
4
10
131.000000
20
197.000010
30
0
11
131.000000
21
195.000008
31
0
0
LINE
8
2
62
4
10
131.000000
20
195.000008
30
0
11
128.000001
21
195.000008
31
0
0
LINE
8
2
62
4
10
128.000001
20
195.000008
30
0
11
128.000001
21
197.000010
31
0
0
LINE
8
2
62
4
10
128.000001
20
197.000010
30
0
11
128.000001
21
197.000010
31
0
0
LINE
8
2
62
4
10
98.004929
20
134.995082
30
0
11
98.004929
21
116.994596
31
0
0
LINE
8
2
62
4
10
98.004929
20
116.994596
30
0
11
106.991943
21
116.994596
31
0
0
LINE
8
2
62
4
10
106.991943
20
116.994596
30
0
11
107.001016
21
103.994752
31
0
0
LINE
8
2
62
4
10
107.001016
20
103.994752
30
0
11
98.001802
21
103.994752
31
0
0
LINE
8
2
62
4
10
98.001802
20
103.994752
30
0
11
98.004929
21
86.999665
31
0
0
LINE
8
2
62
4
10
98.004929
20
86.999665
30
0
11
102.000137
21
86.999665
31
0
0
LINE
8
2
62
4
10
102.000137
20
86.999665
30
0
11
102.000137
21
90.994873
31
0
0
LINE
8
2
62
4
10
102.000137
20
90.994873
30
0
11
110.995971
21
90.994873
31
0
0
LINE
8
2
62
4
10
110.995971
20
90.994873
30
0
11
110.995971
21
94.990082
31
0
0
LINE
8
2
62
4
10
110.995971
20
94.990082
30
0
11
114.999999
21
94.990082
31
0
0
LINE
8
2
62
4
10
114.999999
20
94.990082
30
0
11
114.999999
21
105.000151
31
0
0
LINE
8
2
62
4
10
114.999999
20
105.000151
30
0
11
110.995971
21
104.991332
31
0
0
LINE
8
2
62
4
10
110.995971
20
104.991332
30
0
11
110.995971
21
114.992582
31
0
0
LINE
8
2
62
4
10
110.995971
20
114.992582
30
0
11
114.999999
21
114.992582
31
0
0
LINE
8
2
62
4
10
114.999999
20
114.992582
30
0
11
114.999999
21
124.993832
31
0
0
LINE
8
2
62
4
10
114.999999
20
124.993832
30
0
11
110.995971
21
124.993832
31
0
0
LINE
8
2
62
4
10
110.995971
20
124.993832
30
0
11
110.995971
21
134.995082
31
0
0
LINE
8
2
62
4
10
110.995971
20
134.995082
30
0
11
98.004929
21
134.995082
31
0
0
LINE
8
2
62
4
10
98.004929
20
134.995082
30
0
11
98.004929
21
134.995082
31
0
0
ENDSEC
0
EOF

