999
Inkscape export via "Better Better DXF Output" (http://tim.cexx.org/?p=590)
  0
SECTION
  2
HEADER
  9
$ACADVER
  1
AC1014
  9
$HANDSEED
  5
FFFF
  0
ENDSEC
  0
SECTION
  2
TABLES
  0
TABLE
  2
VPORT
  5
8
330
0
100
AcDbSymbolTable
 70
     4
  0
VPORT
  5
2E
330
8
100
AcDbSymbolTableRecord
100
AcDbViewportTableRecord
  2
*ACTIVE
 70
     0
 10
0.0
 20
0.0
 11
1.0
 21
1.0
 12
4.25
 22
5.5
 13
0.0
 23
0.0
 14
10.0
 24
10.0
 15
10.0
 25
10.0
 16
0.0
 26
0.0
 36
1.0
 17
0.0
 27
0.0
 37
0.0
 40
11
 41
1.24
 42
50.0
 43
0.0
 44
0.0
 50
0.0
 51
0.0
 71
     0
 72
   100
 73
     1
 74
     3
 75
     0
 76
     0
 77
     0
 78
     0
  0
ENDTAB
  0
TABLE
  2
LTYPE
  5
5
330
0
100
AcDbSymbolTable
 70
     1
  0
LTYPE
  5
14
330
5
100
AcDbSymbolTableRecord
100
AcDbLinetypeTableRecord
  2
BYBLOCK
 70
     0
  3

 72
    65
 73
     0
 40
0.0
  0
LTYPE
  5
15
330
5
100
AcDbSymbolTableRecord
100
AcDbLinetypeTableRecord
  2
BYLAYER
 70
     0
  3

 72
    65
 73
     0
 40
0.0
  0
LTYPE
  5
16
330
5
100
AcDbSymbolTableRecord
100
AcDbLinetypeTableRecord
  2
CONTINUOUS
 70
     0
  3
Solid line
 72
    65
 73
     0
 40
0.0
  0
ENDTAB
  0
TABLE
  2
STYLE
  5
3
330
0
100
AcDbSymbolTable
 70
     1
  0
STYLE
  5
11
330
3
100
AcDbSymbolTableRecord
100
AcDbTextStyleTableRecord
  2
STANDARD
 70
     0
 40
0.0
 41
1.0
 50
0.0
 71
     0
 42
2.5
  3
txt
  4

  0
ENDTAB
  0
TABLE
  2
VIEW
  5
6
330
0
100
AcDbSymbolTable
 70
     0
  0
ENDTAB
  0
TABLE
  2
UCS
  5
7
330
0
100
AcDbSymbolTable
 70
     0
  0
ENDTAB
  0
TABLE
  2
APPID
  5
9
330
0
100
AcDbSymbolTable
 70
     2
  0
APPID
  5
12
330
9
100
AcDbSymbolTableRecord
100
AcDbRegAppTableRecord
  2
ACAD
 70
     0
  0
ENDTAB
  0
TABLE
  2
DIMSTYLE
  5
A
330
0
100
AcDbSymbolTable
 70
     1
  0
DIMSTYLE
105
27
330
A
100
AcDbSymbolTableRecord
100
AcDbDimStyleTableRecord
  2
ISO-25
 70
     0
  3

  4

  5

  6

  7

 40
1.0
 41
2.5
 42
0.625
 43
3.75
 44
1.25
 45
0.0
 46
0.0
 47
0.0
 48
0.0
140
2.5
141
2.5
142
0.0
143
0.03937007874016
144
1.0
145
0.0
146
1.0
147
0.625
 71
     0
 72
     0
 73
     0
 74
     0
 75
     0
 76
     0
 77
     1
 78
     8
170
     0
171
     3
172
     1
173
     0
174
     0
175
     0
176
     0
177
     0
178
     0
270
     2
271
     2
272
     2
273
     2
274
     3
340
11
275
     0
280
     0
281
     0
282
     0
283
     0
284
     8
285
     0
286
     0
287
     3
288
     0
  0
ENDTAB
  0
TABLE
  2
BLOCK_RECORD
  5
1
330
0
100
AcDbSymbolTable
 70
     1
  0
BLOCK_RECORD
  5
1F
330
1
100
AcDbSymbolTableRecord
100
AcDbBlockTableRecord
  2
*MODEL_SPACE
  0
BLOCK_RECORD
  5
1B
330
1
100
AcDbSymbolTableRecord
100
AcDbBlockTableRecord
  2
*PAPER_SPACE
  0
ENDTAB
0
TABLE
2
LAYER
5
2
330
0
100
AcDbSymbolTable
70
1
0
LAYER
5
10
330
2
100
AcDbSymbolTableRecord
100
AcDbLayerTableRecord
2
Layer 1
70
0
62
7
6
CONTINUOUS
0
ENDTAB
0
ENDSEC
  0
SECTION
  2
BLOCKS
  0
BLOCK
  5
20
330
1F
100
AcDbEntity
  8
0
100
AcDbBlockBegin
  2
*MODEL_SPACE
 70
     0
 10
0.0
 20
0.0
 30
0.0
  3
*MODEL_SPACE
  1

  0
ENDBLK
  5
21
330
1F
100
AcDbEntity
  8
0
100
AcDbBlockEnd
  0
BLOCK
  5
1C
330
1B
100
AcDbEntity
 67
     1
  8
0
100
AcDbBlockBegin
  2
*PAPER_SPACE
  1

  0
ENDBLK
  5
1D
330
1B
100
AcDbEntity
 67
     1
  8
0
100
AcDbBlockEnd
  0
ENDSEC
  0
SECTION
  2
ENTITIES
0
LINE
8
Layer 1
62
4
5
100
100
AcDbEntity
100
AcDbLine
10
26.004762
20
204.000010
30
0.0
11
59.997422
21
203.997930
31
0.0
0
LINE
8
Layer 1
62
4
5
101
100
AcDbEntity
100
AcDbLine
10
59.997422
20
203.997930
30
0.0
11
59.997422
21
199.999654
31
0.0
0
LINE
8
Layer 1
62
4
5
102
100
AcDbEntity
100
AcDbLine
10
59.997422
20
199.999654
30
0.0
11
70.001189
21
199.999654
31
0.0
0
LINE
8
Layer 1
62
4
5
103
100
AcDbEntity
100
AcDbLine
10
70.001189
20
199.999654
30
0.0
11
70.001189
21
203.997930
31
0.0
0
LINE
8
Layer 1
62
4
5
104
100
AcDbEntity
100
AcDbLine
10
70.001189
20
203.997930
30
0.0
11
80.004960
21
203.997930
31
0.0
0
LINE
8
Layer 1
62
4
5
105
100
AcDbEntity
100
AcDbLine
10
80.004960
20
203.997930
30
0.0
11
80.004960
21
199.999654
31
0.0
0
LINE
8
Layer 1
62
4
5
106
100
AcDbEntity
100
AcDbLine
10
80.004960
20
199.999654
30
0.0
11
90.000001
21
199.999654
31
0.0
0
LINE
8
Layer 1
62
4
5
107
100
AcDbEntity
100
AcDbLine
10
90.000001
20
199.999654
30
0.0
11
90.008730
21
203.997930
31
0.0
0
LINE
8
Layer 1
62
4
5
108
100
AcDbEntity
100
AcDbLine
10
90.008730
20
203.997930
30
0.0
11
120.004019
21
203.997930
31
0.0
0
LINE
8
Layer 1
62
4
5
109
100
AcDbEntity
100
AcDbLine
10
120.004019
20
203.997930
30
0.0
11
120.004019
21
155.999665
31
0.0
0
LINE
8
Layer 1
62
4
5
10a
100
AcDbEntity
100
AcDbLine
10
120.004019
20
155.999665
30
0.0
11
90.008730
21
155.999665
31
0.0
0
LINE
8
Layer 1
62
4
5
10b
100
AcDbEntity
100
AcDbLine
10
90.008730
20
155.999665
30
0.0
11
90.008730
21
159.997329
31
0.0
0
LINE
8
Layer 1
62
4
5
10c
100
AcDbEntity
100
AcDbLine
10
90.008730
20
159.997329
30
0.0
11
80.004960
21
159.997329
31
0.0
0
LINE
8
Layer 1
62
4
5
10d
100
AcDbEntity
100
AcDbLine
10
80.004960
20
159.997329
30
0.0
11
80.004960
21
155.999665
31
0.0
0
LINE
8
Layer 1
62
4
5
10e
100
AcDbEntity
100
AcDbLine
10
80.004960
20
155.999665
30
0.0
11
70.001189
21
155.999665
31
0.0
0
LINE
8
Layer 1
62
4
5
10f
100
AcDbEntity
100
AcDbLine
10
70.001189
20
155.999665
30
0.0
11
70.001189
21
159.997329
31
0.0
0
LINE
8
Layer 1
62
4
5
110
100
AcDbEntity
100
AcDbLine
10
70.001189
20
159.997329
30
0.0
11
59.997422
21
159.997329
31
0.0
0
LINE
8
Layer 1
62
4
5
111
100
AcDbEntity
100
AcDbLine
10
59.997422
20
159.997329
30
0.0
11
59.997422
21
155.999665
31
0.0
0
LINE
8
Layer 1
62
4
5
112
100
AcDbEntity
100
AcDbLine
10
59.997422
20
155.999665
30
0.0
11
26.004762
21
155.999665
31
0.0
0
LINE
8
Layer 1
62
4
5
113
100
AcDbEntity
100
AcDbLine
10
26.004762
20
155.999665
30
0.0
11
26.004762
21
204.000010
31
0.0
0
LINE
8
Layer 1
62
4
5
114
100
AcDbEntity
100
AcDbLine
10
26.004762
20
204.000010
30
0.0
11
26.004762
21
204.000010
31
0.0
0
LINE
8
Layer 1
62
4
5
115
100
AcDbEntity
100
AcDbLine
10
96.003214
20
194.002050
30
0.0
11
99.999902
21
194.002050
31
0.0
0
LINE
8
Layer 1
62
4
5
116
100
AcDbEntity
100
AcDbLine
10
99.999902
20
194.002050
30
0.0
11
99.999902
21
184.000010
31
0.0
0
LINE
8
Layer 1
62
4
5
117
100
AcDbEntity
100
AcDbLine
10
99.999902
20
184.000010
30
0.0
11
96.003214
21
183.997261
31
0.0
0
LINE
8
Layer 1
62
4
5
118
100
AcDbEntity
100
AcDbLine
10
96.003214
20
183.997261
30
0.0
11
96.003214
21
194.002050
31
0.0
0
LINE
8
Layer 1
62
4
5
119
100
AcDbEntity
100
AcDbLine
10
96.003214
20
194.002050
30
0.0
11
96.003214
21
194.002050
31
0.0
0
LINE
8
Layer 1
62
4
5
11a
100
AcDbEntity
100
AcDbLine
10
96.003214
20
173.995049
30
0.0
11
99.999902
21
173.995049
31
0.0
0
LINE
8
Layer 1
62
4
5
11b
100
AcDbEntity
100
AcDbLine
10
99.999902
20
173.995049
30
0.0
11
99.999902
21
163.997578
31
0.0
0
LINE
8
Layer 1
62
4
5
11c
100
AcDbEntity
100
AcDbLine
10
99.999902
20
163.997578
30
0.0
11
96.003214
21
163.997578
31
0.0
0
LINE
8
Layer 1
62
4
5
11d
100
AcDbEntity
100
AcDbLine
10
96.003214
20
163.997578
30
0.0
11
96.003214
21
173.995049
31
0.0
0
LINE
8
Layer 1
62
4
5
11e
100
AcDbEntity
100
AcDbLine
10
96.003214
20
173.995049
30
0.0
11
96.003214
21
173.995049
31
0.0
0
LINE
8
Layer 1
62
4
5
11f
100
AcDbEntity
100
AcDbLine
10
46.000001
20
173.995049
30
0.0
11
49.997219
21
173.995049
31
0.0
0
LINE
8
Layer 1
62
4
5
120
100
AcDbEntity
100
AcDbLine
10
49.997219
20
173.995049
30
0.0
11
49.997219
21
163.997578
31
0.0
0
LINE
8
Layer 1
62
4
5
121
100
AcDbEntity
100
AcDbLine
10
49.997219
20
163.997578
30
0.0
11
46.001539
21
164.000011
31
0.0
0
LINE
8
Layer 1
62
4
5
122
100
AcDbEntity
100
AcDbLine
10
46.001539
20
164.000011
30
0.0
11
46.000001
21
173.995049
31
0.0
0
LINE
8
Layer 1
62
4
5
123
100
AcDbEntity
100
AcDbLine
10
46.000001
20
173.995049
30
0.0
11
46.000001
21
173.995049
31
0.0
0
LINE
8
Layer 1
62
4
5
124
100
AcDbEntity
100
AcDbLine
10
46.001539
20
183.997261
30
0.0
11
49.997219
21
183.997261
31
0.0
0
LINE
8
Layer 1
62
4
5
125
100
AcDbEntity
100
AcDbLine
10
49.997219
20
183.997261
30
0.0
11
49.997219
21
194.002050
31
0.0
0
LINE
8
Layer 1
62
4
5
126
100
AcDbEntity
100
AcDbLine
10
49.997219
20
194.002050
30
0.0
11
46.000001
21
194.002050
31
0.0
0
LINE
8
Layer 1
62
4
5
127
100
AcDbEntity
100
AcDbLine
10
46.000001
20
194.002050
30
0.0
11
46.001539
21
183.997261
31
0.0
0
LINE
8
Layer 1
62
4
5
128
100
AcDbEntity
100
AcDbLine
10
46.001539
20
183.997261
30
0.0
11
46.001539
21
183.997261
31
0.0
0
LINE
8
Layer 1
62
4
5
129
100
AcDbEntity
100
AcDbLine
10
111.995717
20
194.002052
30
0.0
11
111.735239
21
192.998277
31
0.0
0
LINE
8
Layer 1
62
4
5
12a
100
AcDbEntity
100
AcDbLine
10
111.735239
20
192.998277
30
0.0
11
110.996682
21
192.270505
31
0.0
0
LINE
8
Layer 1
62
4
5
12b
100
AcDbEntity
100
AcDbLine
10
110.996682
20
192.270505
30
0.0
11
109.997373
21
191.994427
31
0.0
0
LINE
8
Layer 1
62
4
5
12c
100
AcDbEntity
100
AcDbLine
10
109.997373
20
191.994427
30
0.0
11
108.998064
21
192.270505
31
0.0
0
LINE
8
Layer 1
62
4
5
12d
100
AcDbEntity
100
AcDbLine
10
108.998064
20
192.270505
30
0.0
11
108.259508
21
192.998277
31
0.0
0
LINE
8
Layer 1
62
4
5
12e
100
AcDbEntity
100
AcDbLine
10
108.259508
20
192.998277
30
0.0
11
107.999030
21
194.002052
31
0.0
0
LINE
8
Layer 1
62
4
5
12f
100
AcDbEntity
100
AcDbLine
10
107.999030
20
194.002052
30
0.0
11
108.259508
21
195.005827
31
0.0
0
LINE
8
Layer 1
62
4
5
130
100
AcDbEntity
100
AcDbLine
10
108.259508
20
195.005827
30
0.0
11
108.998064
21
195.733599
31
0.0
0
LINE
8
Layer 1
62
4
5
131
100
AcDbEntity
100
AcDbLine
10
108.998064
20
195.733599
30
0.0
11
109.997373
21
196.009677
31
0.0
0
LINE
8
Layer 1
62
4
5
132
100
AcDbEntity
100
AcDbLine
10
109.997373
20
196.009677
30
0.0
11
110.996682
21
195.733599
31
0.0
0
LINE
8
Layer 1
62
4
5
133
100
AcDbEntity
100
AcDbLine
10
110.996682
20
195.733599
30
0.0
11
111.735239
21
195.005827
31
0.0
0
LINE
8
Layer 1
62
4
5
134
100
AcDbEntity
100
AcDbLine
10
111.735239
20
195.005827
30
0.0
11
111.995717
21
194.002052
31
0.0
0
LINE
8
Layer 1
62
4
5
135
100
AcDbEntity
100
AcDbLine
10
111.995717
20
194.002052
30
0.0
11
111.995717
21
194.002052
31
0.0
0
LINE
8
Layer 1
62
4
5
136
100
AcDbEntity
100
AcDbLine
10
111.995717
20
163.997581
30
0.0
11
111.735239
21
162.993806
31
0.0
0
LINE
8
Layer 1
62
4
5
137
100
AcDbEntity
100
AcDbLine
10
111.735239
20
162.993806
30
0.0
11
110.996682
21
162.266034
31
0.0
0
LINE
8
Layer 1
62
4
5
138
100
AcDbEntity
100
AcDbLine
10
110.996682
20
162.266034
30
0.0
11
109.997373
21
161.989956
31
0.0
0
LINE
8
Layer 1
62
4
5
139
100
AcDbEntity
100
AcDbLine
10
109.997373
20
161.989956
30
0.0
11
108.998064
21
162.266034
31
0.0
0
LINE
8
Layer 1
62
4
5
13a
100
AcDbEntity
100
AcDbLine
10
108.998064
20
162.266034
30
0.0
11
108.259508
21
162.993806
31
0.0
0
LINE
8
Layer 1
62
4
5
13b
100
AcDbEntity
100
AcDbLine
10
108.259508
20
162.993806
30
0.0
11
107.999030
21
163.997581
31
0.0
0
LINE
8
Layer 1
62
4
5
13c
100
AcDbEntity
100
AcDbLine
10
107.999030
20
163.997581
30
0.0
11
108.259508
21
165.001355
31
0.0
0
LINE
8
Layer 1
62
4
5
13d
100
AcDbEntity
100
AcDbLine
10
108.259508
20
165.001355
30
0.0
11
108.998064
21
165.729127
31
0.0
0
LINE
8
Layer 1
62
4
5
13e
100
AcDbEntity
100
AcDbLine
10
108.998064
20
165.729127
30
0.0
11
109.997373
21
166.005206
31
0.0
0
LINE
8
Layer 1
62
4
5
13f
100
AcDbEntity
100
AcDbLine
10
109.997373
20
166.005206
30
0.0
11
110.996682
21
165.729127
31
0.0
0
LINE
8
Layer 1
62
4
5
140
100
AcDbEntity
100
AcDbLine
10
110.996682
20
165.729127
30
0.0
11
111.735239
21
165.001355
31
0.0
0
LINE
8
Layer 1
62
4
5
141
100
AcDbEntity
100
AcDbLine
10
111.735239
20
165.001355
30
0.0
11
111.995717
21
163.997581
31
0.0
0
LINE
8
Layer 1
62
4
5
142
100
AcDbEntity
100
AcDbLine
10
111.995717
20
163.997581
30
0.0
11
111.995717
21
163.997581
31
0.0
0
LINE
8
Layer 1
62
4
5
143
100
AcDbEntity
100
AcDbLine
10
37.997426
20
194.002052
30
0.0
11
37.736948
21
192.998277
31
0.0
0
LINE
8
Layer 1
62
4
5
144
100
AcDbEntity
100
AcDbLine
10
37.736948
20
192.998277
30
0.0
11
36.998392
21
192.270505
31
0.0
0
LINE
8
Layer 1
62
4
5
145
100
AcDbEntity
100
AcDbLine
10
36.998392
20
192.270505
30
0.0
11
35.999083
21
191.994427
31
0.0
0
LINE
8
Layer 1
62
4
5
146
100
AcDbEntity
100
AcDbLine
10
35.999083
20
191.994427
30
0.0
11
34.999774
21
192.270505
31
0.0
0
LINE
8
Layer 1
62
4
5
147
100
AcDbEntity
100
AcDbLine
10
34.999774
20
192.270505
30
0.0
11
34.261217
21
192.998277
31
0.0
0
LINE
8
Layer 1
62
4
5
148
100
AcDbEntity
100
AcDbLine
10
34.261217
20
192.998277
30
0.0
11
34.000739
21
194.002052
31
0.0
0
LINE
8
Layer 1
62
4
5
149
100
AcDbEntity
100
AcDbLine
10
34.000739
20
194.002052
30
0.0
11
34.261217
21
195.005827
31
0.0
0
LINE
8
Layer 1
62
4
5
14a
100
AcDbEntity
100
AcDbLine
10
34.261217
20
195.005827
30
0.0
11
34.999774
21
195.733599
31
0.0
0
LINE
8
Layer 1
62
4
5
14b
100
AcDbEntity
100
AcDbLine
10
34.999774
20
195.733599
30
0.0
11
35.999083
21
196.009677
31
0.0
0
LINE
8
Layer 1
62
4
5
14c
100
AcDbEntity
100
AcDbLine
10
35.999083
20
196.009677
30
0.0
11
36.998392
21
195.733599
31
0.0
0
LINE
8
Layer 1
62
4
5
14d
100
AcDbEntity
100
AcDbLine
10
36.998392
20
195.733599
30
0.0
11
37.736948
21
195.005827
31
0.0
0
LINE
8
Layer 1
62
4
5
14e
100
AcDbEntity
100
AcDbLine
10
37.736948
20
195.005827
30
0.0
11
37.997426
21
194.002052
31
0.0
0
LINE
8
Layer 1
62
4
5
14f
100
AcDbEntity
100
AcDbLine
10
37.997426
20
194.002052
30
0.0
11
37.997426
21
194.002052
31
0.0
0
LINE
8
Layer 1
62
4
5
150
100
AcDbEntity
100
AcDbLine
10
37.563010
20
163.996593
30
0.0
11
37.302532
21
162.992818
31
0.0
0
LINE
8
Layer 1
62
4
5
151
100
AcDbEntity
100
AcDbLine
10
37.302532
20
162.992818
30
0.0
11
36.563975
21
162.265046
31
0.0
0
LINE
8
Layer 1
62
4
5
152
100
AcDbEntity
100
AcDbLine
10
36.563975
20
162.265046
30
0.0
11
35.564667
21
161.988968
31
0.0
0
LINE
8
Layer 1
62
4
5
153
100
AcDbEntity
100
AcDbLine
10
35.564667
20
161.988968
30
0.0
11
34.565358
21
162.265046
31
0.0
0
LINE
8
Layer 1
62
4
5
154
100
AcDbEntity
100
AcDbLine
10
34.565358
20
162.265046
30
0.0
11
33.826801
21
162.992818
31
0.0
0
LINE
8
Layer 1
62
4
5
155
100
AcDbEntity
100
AcDbLine
10
33.826801
20
162.992818
30
0.0
11
33.566323
21
163.996593
31
0.0
0
LINE
8
Layer 1
62
4
5
156
100
AcDbEntity
100
AcDbLine
10
33.566323
20
163.996593
30
0.0
11
33.826801
21
165.000368
31
0.0
0
LINE
8
Layer 1
62
4
5
157
100
AcDbEntity
100
AcDbLine
10
33.826801
20
165.000368
30
0.0
11
34.565358
21
165.728140
31
0.0
0
LINE
8
Layer 1
62
4
5
158
100
AcDbEntity
100
AcDbLine
10
34.565358
20
165.728140
30
0.0
11
35.564667
21
166.004218
31
0.0
0
LINE
8
Layer 1
62
4
5
159
100
AcDbEntity
100
AcDbLine
10
35.564667
20
166.004218
30
0.0
11
36.563975
21
165.728140
31
0.0
0
LINE
8
Layer 1
62
4
5
15a
100
AcDbEntity
100
AcDbLine
10
36.563975
20
165.728140
30
0.0
11
37.302532
21
165.000368
31
0.0
0
LINE
8
Layer 1
62
4
5
15b
100
AcDbEntity
100
AcDbLine
10
37.302532
20
165.000368
30
0.0
11
37.563010
21
163.996593
31
0.0
0
LINE
8
Layer 1
62
4
5
15c
100
AcDbEntity
100
AcDbLine
10
37.563010
20
163.996593
30
0.0
11
37.563010
21
163.996593
31
0.0
0
LINE
8
Layer 1
62
4
5
15d
100
AcDbEntity
100
AcDbLine
10
124.995971
20
202.004524
30
0.0
11
124.995971
21
192.003274
31
0.0
0
LINE
8
Layer 1
62
4
5
15e
100
AcDbEntity
100
AcDbLine
10
124.995971
20
192.003274
30
0.0
11
120.991943
21
192.003274
31
0.0
0
LINE
8
Layer 1
62
4
5
15f
100
AcDbEntity
100
AcDbLine
10
120.991943
20
192.003274
30
0.0
11
120.991943
21
182.002024
31
0.0
0
LINE
8
Layer 1
62
4
5
160
100
AcDbEntity
100
AcDbLine
10
120.991943
20
182.002024
30
0.0
11
124.995971
21
182.002024
31
0.0
0
LINE
8
Layer 1
62
4
5
161
100
AcDbEntity
100
AcDbLine
10
124.995971
20
182.002024
30
0.0
11
124.995971
21
172.000774
31
0.0
0
LINE
8
Layer 1
62
4
5
162
100
AcDbEntity
100
AcDbLine
10
124.995971
20
172.000774
30
0.0
11
120.991943
21
172.000774
31
0.0
0
LINE
8
Layer 1
62
4
5
163
100
AcDbEntity
100
AcDbLine
10
120.991943
20
172.000774
30
0.0
11
120.991943
21
161.999524
31
0.0
0
LINE
8
Layer 1
62
4
5
164
100
AcDbEntity
100
AcDbLine
10
120.991943
20
161.999524
30
0.0
11
124.995971
21
161.999524
31
0.0
0
LINE
8
Layer 1
62
4
5
165
100
AcDbEntity
100
AcDbLine
10
124.995971
20
161.999524
30
0.0
11
124.995971
21
158.004315
31
0.0
0
LINE
8
Layer 1
62
4
5
166
100
AcDbEntity
100
AcDbLine
10
124.995971
20
158.004315
30
0.0
11
132.995207
21
158.004315
31
0.0
0
LINE
8
Layer 1
62
4
5
167
100
AcDbEntity
100
AcDbLine
10
132.995207
20
158.004315
30
0.0
11
132.995207
21
154.000287
31
0.0
0
LINE
8
Layer 1
62
4
5
168
100
AcDbEntity
100
AcDbLine
10
132.995207
20
154.000287
30
0.0
11
136.990415
21
154.000287
31
0.0
0
LINE
8
Layer 1
62
4
5
169
100
AcDbEntity
100
AcDbLine
10
136.990415
20
154.000287
30
0.0
11
136.990415
21
165.006954
31
0.0
0
LINE
8
Layer 1
62
4
5
16a
100
AcDbEntity
100
AcDbLine
10
136.990415
20
165.006954
30
0.0
11
128.991179
21
165.006954
31
0.0
0
LINE
8
Layer 1
62
4
5
16b
100
AcDbEntity
100
AcDbLine
10
128.991179
20
165.006954
30
0.0
11
128.999999
21
180.000010
31
0.0
0
LINE
8
Layer 1
62
4
5
16c
100
AcDbEntity
100
AcDbLine
10
128.999999
20
180.000010
30
0.0
11
136.990415
21
180.000010
31
0.0
0
LINE
8
Layer 1
62
4
5
16d
100
AcDbEntity
100
AcDbLine
10
136.990415
20
180.000010
30
0.0
11
136.990415
21
202.004524
31
0.0
0
LINE
8
Layer 1
62
4
5
16e
100
AcDbEntity
100
AcDbLine
10
136.990415
20
202.004524
30
0.0
11
132.995207
21
202.004524
31
0.0
0
LINE
8
Layer 1
62
4
5
16f
100
AcDbEntity
100
AcDbLine
10
132.995207
20
202.004524
30
0.0
11
132.995207
21
198.000496
31
0.0
0
LINE
8
Layer 1
62
4
5
170
100
AcDbEntity
100
AcDbLine
10
132.995207
20
198.000496
30
0.0
11
128.991179
21
198.000496
31
0.0
0
LINE
8
Layer 1
62
4
5
171
100
AcDbEntity
100
AcDbLine
10
128.991179
20
198.000496
30
0.0
11
128.991179
21
202.004524
31
0.0
0
LINE
8
Layer 1
62
4
5
172
100
AcDbEntity
100
AcDbLine
10
128.991179
20
202.004524
30
0.0
11
124.995971
21
202.004524
31
0.0
0
LINE
8
Layer 1
62
4
5
173
100
AcDbEntity
100
AcDbLine
10
124.995971
20
202.004524
30
0.0
11
124.995971
21
202.004524
31
0.0
0
LINE
8
Layer 1
62
4
5
174
100
AcDbEntity
100
AcDbLine
10
81.000140
20
121.000218
30
0.0
11
81.002849
21
102.999887
31
0.0
0
LINE
8
Layer 1
62
4
5
175
100
AcDbEntity
100
AcDbLine
10
81.002849
20
102.999887
30
0.0
11
87.002849
21
102.999887
31
0.0
0
LINE
8
Layer 1
62
4
5
176
100
AcDbEntity
100
AcDbLine
10
87.002849
20
102.999887
30
0.0
11
87.006182
21
84.999246
31
0.0
0
LINE
8
Layer 1
62
4
5
177
100
AcDbEntity
100
AcDbLine
10
87.006182
20
84.999246
30
0.0
11
81.000140
21
84.999246
31
0.0
0
LINE
8
Layer 1
62
4
5
178
100
AcDbEntity
100
AcDbLine
10
81.000140
20
84.999246
30
0.0
11
81.000140
21
77.000010
31
0.0
0
LINE
8
Layer 1
62
4
5
179
100
AcDbEntity
100
AcDbLine
10
81.000140
20
77.000010
30
0.0
11
94.000001
21
77.000010
31
0.0
0
LINE
8
Layer 1
62
4
5
17a
100
AcDbEntity
100
AcDbLine
10
94.000001
20
77.000010
30
0.0
11
94.008821
21
80.995218
31
0.0
0
LINE
8
Layer 1
62
4
5
17b
100
AcDbEntity
100
AcDbLine
10
94.008821
20
80.995218
30
0.0
11
98.004029
21
80.995218
31
0.0
0
LINE
8
Layer 1
62
4
5
17c
100
AcDbEntity
100
AcDbLine
10
98.004029
20
80.995218
30
0.0
11
98.004029
21
90.996468
31
0.0
0
LINE
8
Layer 1
62
4
5
17d
100
AcDbEntity
100
AcDbLine
10
98.004029
20
90.996468
30
0.0
11
94.008821
21
90.996468
31
0.0
0
LINE
8
Layer 1
62
4
5
17e
100
AcDbEntity
100
AcDbLine
10
94.008821
20
90.996468
30
0.0
11
94.008821
21
100.997718
31
0.0
0
LINE
8
Layer 1
62
4
5
17f
100
AcDbEntity
100
AcDbLine
10
94.008821
20
100.997718
30
0.0
11
98.004029
21
100.997718
31
0.0
0
LINE
8
Layer 1
62
4
5
180
100
AcDbEntity
100
AcDbLine
10
98.004029
20
100.997718
30
0.0
11
98.004029
21
110.998968
31
0.0
0
LINE
8
Layer 1
62
4
5
181
100
AcDbEntity
100
AcDbLine
10
98.004029
20
110.998968
30
0.0
11
94.008821
21
110.998968
31
0.0
0
LINE
8
Layer 1
62
4
5
182
100
AcDbEntity
100
AcDbLine
10
94.008821
20
110.998968
30
0.0
11
94.008821
21
121.000218
31
0.0
0
LINE
8
Layer 1
62
4
5
183
100
AcDbEntity
100
AcDbLine
10
94.008821
20
121.000218
30
0.0
11
81.000140
21
121.000218
31
0.0
0
LINE
8
Layer 1
62
4
5
184
100
AcDbEntity
100
AcDbLine
10
81.000140
20
121.000218
30
0.0
11
81.000140
21
121.000218
31
0.0
0
LINE
8
Layer 1
62
4
5
185
100
AcDbEntity
100
AcDbLine
10
103.000000
20
121.005010
30
0.0
11
103.000000
21
111.003760
31
0.0
0
LINE
8
Layer 1
62
4
5
186
100
AcDbEntity
100
AcDbLine
10
103.000000
20
111.003760
30
0.0
11
99.004792
21
111.003760
31
0.0
0
LINE
8
Layer 1
62
4
5
187
100
AcDbEntity
100
AcDbLine
10
99.004792
20
111.003760
30
0.0
11
99.004792
21
101.002510
31
0.0
0
LINE
8
Layer 1
62
4
5
188
100
AcDbEntity
100
AcDbLine
10
99.004792
20
101.002510
30
0.0
11
103.000000
21
101.002510
31
0.0
0
LINE
8
Layer 1
62
4
5
189
100
AcDbEntity
100
AcDbLine
10
103.000000
20
101.002510
30
0.0
11
103.000000
21
91.001260
31
0.0
0
LINE
8
Layer 1
62
4
5
18a
100
AcDbEntity
100
AcDbLine
10
103.000000
20
91.001260
30
0.0
11
98.978333
21
91.001260
31
0.0
0
LINE
8
Layer 1
62
4
5
18b
100
AcDbEntity
100
AcDbLine
10
98.978333
20
91.001260
30
0.0
11
99.004792
21
81.000010
31
0.0
0
LINE
8
Layer 1
62
4
5
18c
100
AcDbEntity
100
AcDbLine
10
99.004792
20
81.000010
30
0.0
11
103.000000
21
81.000010
31
0.0
0
LINE
8
Layer 1
62
4
5
18d
100
AcDbEntity
100
AcDbLine
10
103.000000
20
81.000010
30
0.0
11
103.000000
21
77.004802
31
0.0
0
LINE
8
Layer 1
62
4
5
18e
100
AcDbEntity
100
AcDbLine
10
103.000000
20
77.004802
30
0.0
11
115.003264
21
77.004802
31
0.0
0
LINE
8
Layer 1
62
4
5
18f
100
AcDbEntity
100
AcDbLine
10
115.003264
20
77.004802
30
0.0
11
115.003264
21
91.001260
31
0.0
0
LINE
8
Layer 1
62
4
5
190
100
AcDbEntity
100
AcDbLine
10
115.003264
20
91.001260
30
0.0
11
110.002639
21
91.001260
31
0.0
0
LINE
8
Layer 1
62
4
5
191
100
AcDbEntity
100
AcDbLine
10
110.002639
20
91.001260
30
0.0
11
110.003610
21
107.004680
31
0.0
0
LINE
8
Layer 1
62
4
5
192
100
AcDbEntity
100
AcDbLine
10
110.003610
20
107.004680
30
0.0
11
115.004396
21
107.004680
31
0.0
0
LINE
8
Layer 1
62
4
5
193
100
AcDbEntity
100
AcDbLine
10
115.004396
20
107.004680
30
0.0
11
115.003264
21
121.005010
31
0.0
0
LINE
8
Layer 1
62
4
5
194
100
AcDbEntity
100
AcDbLine
10
115.003264
20
121.005010
30
0.0
11
103.000000
21
121.005010
31
0.0
0
LINE
8
Layer 1
62
4
5
195
100
AcDbEntity
100
AcDbLine
10
103.000000
20
121.005010
30
0.0
11
103.000000
21
121.005010
31
0.0
0
LINE
8
Layer 1
62
4
5
196
100
AcDbEntity
100
AcDbLine
10
104.992461
20
151.004902
30
0.0
11
114.996231
21
151.004902
31
0.0
0
LINE
8
Layer 1
62
4
5
197
100
AcDbEntity
100
AcDbLine
10
114.996231
20
151.004902
30
0.0
11
114.996231
21
155.000009
31
0.0
0
LINE
8
Layer 1
62
4
5
198
100
AcDbEntity
100
AcDbLine
10
114.996231
20
155.000009
30
0.0
11
125.000001
21
155.000009
31
0.0
0
LINE
8
Layer 1
62
4
5
199
100
AcDbEntity
100
AcDbLine
10
125.000001
20
155.000009
30
0.0
11
125.000001
21
151.004902
31
0.0
0
LINE
8
Layer 1
62
4
5
19a
100
AcDbEntity
100
AcDbLine
10
125.000001
20
151.004902
30
0.0
11
134.991173
21
151.004902
31
0.0
0
LINE
8
Layer 1
62
4
5
19b
100
AcDbEntity
100
AcDbLine
10
134.991173
20
151.004902
30
0.0
11
134.991173
21
138.008476
31
0.0
0
LINE
8
Layer 1
62
4
5
19c
100
AcDbEntity
100
AcDbLine
10
134.991173
20
138.008476
30
0.0
11
130.994486
21
138.008476
31
0.0
0
LINE
8
Layer 1
62
4
5
19d
100
AcDbEntity
100
AcDbLine
10
130.994486
20
138.008476
30
0.0
11
130.994486
21
134.004778
31
0.0
0
LINE
8
Layer 1
62
4
5
19e
100
AcDbEntity
100
AcDbLine
10
130.994486
20
134.004778
30
0.0
11
134.991173
21
134.004778
31
0.0
0
LINE
8
Layer 1
62
4
5
19f
100
AcDbEntity
100
AcDbLine
10
134.991173
20
134.004778
30
0.0
11
134.991173
21
126.001676
31
0.0
0
LINE
8
Layer 1
62
4
5
1a0
100
AcDbEntity
100
AcDbLine
10
134.991173
20
126.001676
30
0.0
11
125.000001
21
126.001676
31
0.0
0
LINE
8
Layer 1
62
4
5
1a1
100
AcDbEntity
100
AcDbLine
10
125.000001
20
126.001676
30
0.0
11
125.000001
21
122.006467
31
0.0
0
LINE
8
Layer 1
62
4
5
1a2
100
AcDbEntity
100
AcDbLine
10
125.000001
20
122.006467
30
0.0
11
114.996231
21
122.006467
31
0.0
0
LINE
8
Layer 1
62
4
5
1a3
100
AcDbEntity
100
AcDbLine
10
114.996231
20
122.006467
30
0.0
11
114.996231
21
126.001676
31
0.0
0
LINE
8
Layer 1
62
4
5
1a4
100
AcDbEntity
100
AcDbLine
10
114.996231
20
126.001676
30
0.0
11
104.992461
21
126.001676
31
0.0
0
LINE
8
Layer 1
62
4
5
1a5
100
AcDbEntity
100
AcDbLine
10
104.992461
20
126.001676
30
0.0
11
104.992461
21
122.006467
31
0.0
0
LINE
8
Layer 1
62
4
5
1a6
100
AcDbEntity
100
AcDbLine
10
104.992461
20
122.006467
30
0.0
11
94.988693
21
122.006467
31
0.0
0
LINE
8
Layer 1
62
4
5
1a7
100
AcDbEntity
100
AcDbLine
10
94.988693
20
122.006467
30
0.0
11
94.988693
21
126.001676
31
0.0
0
LINE
8
Layer 1
62
4
5
1a8
100
AcDbEntity
100
AcDbLine
10
94.988693
20
126.001676
30
0.0
11
80.992811
21
126.001676
31
0.0
0
LINE
8
Layer 1
62
4
5
1a9
100
AcDbEntity
100
AcDbLine
10
80.992811
20
126.001676
30
0.0
11
80.992811
21
134.004778
31
0.0
0
LINE
8
Layer 1
62
4
5
1aa
100
AcDbEntity
100
AcDbLine
10
80.992811
20
134.004778
30
0.0
11
84.988490
21
134.004778
31
0.0
0
LINE
8
Layer 1
62
4
5
1ab
100
AcDbEntity
100
AcDbLine
10
84.988490
20
134.004778
30
0.0
11
84.988490
21
138.008476
31
0.0
0
LINE
8
Layer 1
62
4
5
1ac
100
AcDbEntity
100
AcDbLine
10
84.988490
20
138.008476
30
0.0
11
80.992811
21
138.004039
31
0.0
0
LINE
8
Layer 1
62
4
5
1ad
100
AcDbEntity
100
AcDbLine
10
80.992811
20
138.004039
30
0.0
11
80.991273
21
151.004902
31
0.0
0
LINE
8
Layer 1
62
4
5
1ae
100
AcDbEntity
100
AcDbLine
10
80.991273
20
151.004902
30
0.0
11
94.988693
21
151.004902
31
0.0
0
LINE
8
Layer 1
62
4
5
1af
100
AcDbEntity
100
AcDbLine
10
94.988693
20
151.004902
30
0.0
11
94.988693
21
155.000009
31
0.0
0
LINE
8
Layer 1
62
4
5
1b0
100
AcDbEntity
100
AcDbLine
10
94.988693
20
155.000009
30
0.0
11
104.992461
21
155.000009
31
0.0
0
LINE
8
Layer 1
62
4
5
1b1
100
AcDbEntity
100
AcDbLine
10
104.992461
20
155.000009
30
0.0
11
104.992461
21
151.004902
31
0.0
0
LINE
8
Layer 1
62
4
5
1b2
100
AcDbEntity
100
AcDbLine
10
104.992461
20
151.004902
30
0.0
11
104.992461
21
151.004902
31
0.0
0
LINE
8
Layer 1
62
4
5
1b3
100
AcDbEntity
100
AcDbLine
10
95.991271
20
130.004038
30
0.0
11
95.991271
21
147.004038
31
0.0
0
LINE
8
Layer 1
62
4
5
1b4
100
AcDbEntity
100
AcDbLine
10
95.991271
20
147.004038
30
0.0
11
107.991272
21
147.004038
31
0.0
0
LINE
8
Layer 1
62
4
5
1b5
100
AcDbEntity
100
AcDbLine
10
107.991272
20
147.004038
30
0.0
11
107.991272
21
130.004038
31
0.0
0
LINE
8
Layer 1
62
4
5
1b6
100
AcDbEntity
100
AcDbLine
10
107.991272
20
130.004038
30
0.0
11
95.991271
21
130.004038
31
0.0
0
LINE
8
Layer 1
62
4
5
1b7
100
AcDbEntity
100
AcDbLine
10
95.991271
20
130.004038
30
0.0
11
95.991271
21
130.004038
31
0.0
0
LINE
8
Layer 1
62
4
5
1b8
100
AcDbEntity
100
AcDbLine
10
109.991271
20
130.004038
30
0.0
11
109.991271
21
144.004038
31
0.0
0
LINE
8
Layer 1
62
4
5
1b9
100
AcDbEntity
100
AcDbLine
10
109.991271
20
144.004038
30
0.0
11
122.991270
21
144.004038
31
0.0
0
LINE
8
Layer 1
62
4
5
1ba
100
AcDbEntity
100
AcDbLine
10
122.991270
20
144.004038
30
0.0
11
122.991270
21
130.001081
31
0.0
0
LINE
8
Layer 1
62
4
5
1bb
100
AcDbEntity
100
AcDbLine
10
122.991270
20
130.001081
30
0.0
11
109.991271
21
130.004038
31
0.0
0
LINE
8
Layer 1
62
4
5
1bc
100
AcDbEntity
100
AcDbLine
10
109.991271
20
130.004038
30
0.0
11
109.991271
21
130.004038
31
0.0
0
LINE
8
Layer 1
62
4
5
1bd
100
AcDbEntity
100
AcDbLine
10
40.001249
20
105.999246
30
0.0
11
40.001249
21
102.004038
31
0.0
0
LINE
8
Layer 1
62
4
5
1be
100
AcDbEntity
100
AcDbLine
10
40.001249
20
102.004038
30
0.0
11
29.999999
21
102.004038
31
0.0
0
LINE
8
Layer 1
62
4
5
1bf
100
AcDbEntity
100
AcDbLine
10
29.999999
20
102.004038
30
0.0
11
29.999999
21
98.000010
31
0.0
0
LINE
8
Layer 1
62
4
5
1c0
100
AcDbEntity
100
AcDbLine
10
29.999999
20
98.000010
30
0.0
11
26.004792
21
98.000010
31
0.0
0
LINE
8
Layer 1
62
4
5
1c1
100
AcDbEntity
100
AcDbLine
10
26.004792
20
98.000010
30
0.0
11
26.004792
21
94.004802
31
0.0
0
LINE
8
Layer 1
62
4
5
1c2
100
AcDbEntity
100
AcDbLine
10
26.004792
20
94.004802
30
0.0
11
29.999999
21
94.004802
31
0.0
0
LINE
8
Layer 1
62
4
5
1c3
100
AcDbEntity
100
AcDbLine
10
29.999999
20
94.004802
30
0.0
11
29.999999
21
77.000913
31
0.0
0
LINE
8
Layer 1
62
4
5
1c4
100
AcDbEntity
100
AcDbLine
10
29.999999
20
77.000913
30
0.0
11
40.001249
21
77.000913
31
0.0
0
LINE
8
Layer 1
62
4
5
1c5
100
AcDbEntity
100
AcDbLine
10
40.001249
20
77.000913
30
0.0
11
40.001249
21
72.996885
31
0.0
0
LINE
8
Layer 1
62
4
5
1c6
100
AcDbEntity
100
AcDbLine
10
40.001249
20
72.996885
30
0.0
11
50.002499
21
72.996885
31
0.0
0
LINE
8
Layer 1
62
4
5
1c7
100
AcDbEntity
100
AcDbLine
10
50.002499
20
72.996885
30
0.0
11
50.002499
21
77.000913
31
0.0
0
LINE
8
Layer 1
62
4
5
1c8
100
AcDbEntity
100
AcDbLine
10
50.002499
20
77.000913
30
0.0
11
60.003749
21
77.000913
31
0.0
0
LINE
8
Layer 1
62
4
5
1c9
100
AcDbEntity
100
AcDbLine
10
60.003749
20
77.000913
30
0.0
11
60.003749
21
72.996885
31
0.0
0
LINE
8
Layer 1
62
4
5
1ca
100
AcDbEntity
100
AcDbLine
10
60.003749
20
72.996885
30
0.0
11
70.013819
21
72.996885
31
0.0
0
LINE
8
Layer 1
62
4
5
1cb
100
AcDbEntity
100
AcDbLine
10
70.013819
20
72.996885
30
0.0
11
70.013819
21
77.000913
31
0.0
0
LINE
8
Layer 1
62
4
5
1cc
100
AcDbEntity
100
AcDbLine
10
70.013819
20
77.000913
30
0.0
11
76.002221
21
77.000913
31
0.0
0
LINE
8
Layer 1
62
4
5
1cd
100
AcDbEntity
100
AcDbLine
10
76.002221
20
77.000913
30
0.0
11
76.002221
21
94.004802
31
0.0
0
LINE
8
Layer 1
62
4
5
1ce
100
AcDbEntity
100
AcDbLine
10
76.002221
20
94.004802
30
0.0
11
80.006249
21
94.004802
31
0.0
0
LINE
8
Layer 1
62
4
5
1cf
100
AcDbEntity
100
AcDbLine
10
80.006249
20
94.004802
30
0.0
11
80.006249
21
98.000010
31
0.0
0
LINE
8
Layer 1
62
4
5
1d0
100
AcDbEntity
100
AcDbLine
10
80.006249
20
98.000010
30
0.0
11
76.002221
21
98.000010
31
0.0
0
LINE
8
Layer 1
62
4
5
1d1
100
AcDbEntity
100
AcDbLine
10
76.002221
20
98.000010
30
0.0
11
76.002221
21
102.004038
31
0.0
0
LINE
8
Layer 1
62
4
5
1d2
100
AcDbEntity
100
AcDbLine
10
76.002221
20
102.004038
30
0.0
11
70.013819
21
102.004038
31
0.0
0
LINE
8
Layer 1
62
4
5
1d3
100
AcDbEntity
100
AcDbLine
10
70.013819
20
102.004038
30
0.0
11
70.013819
21
105.999246
31
0.0
0
LINE
8
Layer 1
62
4
5
1d4
100
AcDbEntity
100
AcDbLine
10
70.013819
20
105.999246
30
0.0
11
60.003749
21
105.999246
31
0.0
0
LINE
8
Layer 1
62
4
5
1d5
100
AcDbEntity
100
AcDbLine
10
60.003749
20
105.999246
30
0.0
11
60.003749
21
102.004038
31
0.0
0
LINE
8
Layer 1
62
4
5
1d6
100
AcDbEntity
100
AcDbLine
10
60.003749
20
102.004038
30
0.0
11
50.002499
21
102.004038
31
0.0
0
LINE
8
Layer 1
62
4
5
1d7
100
AcDbEntity
100
AcDbLine
10
50.002499
20
102.004038
30
0.0
11
50.002499
21
105.999246
31
0.0
0
LINE
8
Layer 1
62
4
5
1d8
100
AcDbEntity
100
AcDbLine
10
50.002499
20
105.999246
30
0.0
11
40.001249
21
105.999246
31
0.0
0
LINE
8
Layer 1
62
4
5
1d9
100
AcDbEntity
100
AcDbLine
10
40.001249
20
105.999246
30
0.0
11
40.001249
21
105.999246
31
0.0
0
LINE
8
Layer 1
62
4
5
1da
100
AcDbEntity
100
AcDbLine
10
41.002568
20
98.003151
30
0.0
11
41.002568
21
84.003151
31
0.0
0
LINE
8
Layer 1
62
4
5
1db
100
AcDbEntity
100
AcDbLine
10
41.002568
20
84.003151
30
0.0
11
64.002570
21
84.003151
31
0.0
0
LINE
8
Layer 1
62
4
5
1dc
100
AcDbEntity
100
AcDbLine
10
64.002570
20
84.003151
30
0.0
11
64.002570
21
98.003151
31
0.0
0
LINE
8
Layer 1
62
4
5
1dd
100
AcDbEntity
100
AcDbLine
10
64.002570
20
98.003151
30
0.0
11
41.002568
21
98.003151
31
0.0
0
LINE
8
Layer 1
62
4
5
1de
100
AcDbEntity
100
AcDbLine
10
41.002568
20
98.003151
30
0.0
11
41.002568
21
98.003151
31
0.0
0
LINE
8
Layer 1
62
4
5
1df
100
AcDbEntity
100
AcDbLine
10
69.002569
20
82.003155
30
0.0
11
72.002568
21
82.003155
31
0.0
0
LINE
8
Layer 1
62
4
5
1e0
100
AcDbEntity
100
AcDbLine
10
72.002568
20
82.003155
30
0.0
11
72.002568
21
80.003153
31
0.0
0
LINE
8
Layer 1
62
4
5
1e1
100
AcDbEntity
100
AcDbLine
10
72.002568
20
80.003153
30
0.0
11
69.002569
21
80.003153
31
0.0
0
LINE
8
Layer 1
62
4
5
1e2
100
AcDbEntity
100
AcDbLine
10
69.002569
20
80.003153
30
0.0
11
69.002569
21
82.003155
31
0.0
0
LINE
8
Layer 1
62
4
5
1e3
100
AcDbEntity
100
AcDbLine
10
69.002569
20
82.003155
30
0.0
11
69.002569
21
82.003155
31
0.0
0
LINE
8
Layer 1
62
4
5
1e4
100
AcDbEntity
100
AcDbLine
10
34.002568
20
82.003155
30
0.0
11
37.002568
21
82.003155
31
0.0
0
LINE
8
Layer 1
62
4
5
1e5
100
AcDbEntity
100
AcDbLine
10
37.002568
20
82.003155
30
0.0
11
37.002568
21
80.003153
31
0.0
0
LINE
8
Layer 1
62
4
5
1e6
100
AcDbEntity
100
AcDbLine
10
37.002568
20
80.003153
30
0.0
11
34.002568
21
80.003153
31
0.0
0
LINE
8
Layer 1
62
4
5
1e7
100
AcDbEntity
100
AcDbLine
10
34.002568
20
80.003153
30
0.0
11
34.002568
21
82.003155
31
0.0
0
LINE
8
Layer 1
62
4
5
1e8
100
AcDbEntity
100
AcDbLine
10
34.002568
20
82.003155
30
0.0
11
34.002568
21
82.003155
31
0.0
0
LINE
8
Layer 1
62
4
5
1e9
100
AcDbEntity
100
AcDbLine
10
116.004930
20
121.005010
30
0.0
11
116.004930
21
103.004524
31
0.0
0
LINE
8
Layer 1
62
4
5
1ea
100
AcDbEntity
100
AcDbLine
10
116.004930
20
103.004524
30
0.0
11
124.991944
21
103.004524
31
0.0
0
LINE
8
Layer 1
62
4
5
1eb
100
AcDbEntity
100
AcDbLine
10
124.991944
20
103.004524
30
0.0
11
125.009583
21
90.004663
31
0.0
0
LINE
8
Layer 1
62
4
5
1ec
100
AcDbEntity
100
AcDbLine
10
125.009583
20
90.004663
30
0.0
11
116.004930
21
90.004663
31
0.0
0
LINE
8
Layer 1
62
4
5
1ed
100
AcDbEntity
100
AcDbLine
10
116.004930
20
90.004663
30
0.0
11
116.004930
21
73.009593
31
0.0
0
LINE
8
Layer 1
62
4
5
1ee
100
AcDbEntity
100
AcDbLine
10
116.004930
20
73.009593
30
0.0
11
120.000138
21
73.009593
31
0.0
0
LINE
8
Layer 1
62
4
5
1ef
100
AcDbEntity
100
AcDbLine
10
120.000138
20
73.009593
30
0.0
11
120.000138
21
77.004802
31
0.0
0
LINE
8
Layer 1
62
4
5
1f0
100
AcDbEntity
100
AcDbLine
10
120.000138
20
77.004802
30
0.0
11
128.995972
21
77.004802
31
0.0
0
LINE
8
Layer 1
62
4
5
1f1
100
AcDbEntity
100
AcDbLine
10
128.995972
20
77.004802
30
0.0
11
128.995972
21
81.000010
31
0.0
0
LINE
8
Layer 1
62
4
5
1f2
100
AcDbEntity
100
AcDbLine
10
128.995972
20
81.000010
30
0.0
11
132.999999
21
81.000010
31
0.0
0
LINE
8
Layer 1
62
4
5
1f3
100
AcDbEntity
100
AcDbLine
10
132.999999
20
81.000010
30
0.0
11
132.999999
21
91.010080
31
0.0
0
LINE
8
Layer 1
62
4
5
1f4
100
AcDbEntity
100
AcDbLine
10
132.999999
20
91.010080
30
0.0
11
128.995972
21
91.001260
31
0.0
0
LINE
8
Layer 1
62
4
5
1f5
100
AcDbEntity
100
AcDbLine
10
128.995972
20
91.001260
30
0.0
11
128.995972
21
101.002510
31
0.0
0
LINE
8
Layer 1
62
4
5
1f6
100
AcDbEntity
100
AcDbLine
10
128.995972
20
101.002510
30
0.0
11
132.999999
21
101.002510
31
0.0
0
LINE
8
Layer 1
62
4
5
1f7
100
AcDbEntity
100
AcDbLine
10
132.999999
20
101.002510
30
0.0
11
132.999999
21
111.003760
31
0.0
0
LINE
8
Layer 1
62
4
5
1f8
100
AcDbEntity
100
AcDbLine
10
132.999999
20
111.003760
30
0.0
11
128.995972
21
111.003760
31
0.0
0
LINE
8
Layer 1
62
4
5
1f9
100
AcDbEntity
100
AcDbLine
10
128.995972
20
111.003760
30
0.0
11
128.995972
21
121.005010
31
0.0
0
LINE
8
Layer 1
62
4
5
1fa
100
AcDbEntity
100
AcDbLine
10
128.995972
20
121.005010
30
0.0
11
125.009583
21
121.005010
31
0.0
0
LINE
8
Layer 1
62
4
5
1fb
100
AcDbEntity
100
AcDbLine
10
125.009583
20
121.005010
30
0.0
11
125.009583
21
117.000982
31
0.0
0
LINE
8
Layer 1
62
4
5
1fc
100
AcDbEntity
100
AcDbLine
10
125.009583
20
117.000982
30
0.0
11
120.008958
21
117.000982
31
0.0
0
LINE
8
Layer 1
62
4
5
1fd
100
AcDbEntity
100
AcDbLine
10
120.008958
20
117.000982
30
0.0
11
120.008958
21
121.005010
31
0.0
0
LINE
8
Layer 1
62
4
5
1fe
100
AcDbEntity
100
AcDbLine
10
120.008958
20
121.005010
30
0.0
11
116.004930
21
121.005010
31
0.0
0
LINE
8
Layer 1
62
4
5
1ff
100
AcDbEntity
100
AcDbLine
10
116.004930
20
121.005010
30
0.0
11
116.004930
21
121.005010
31
0.0
0
LINE
8
Layer 1
62
4
5
200
100
AcDbEntity
100
AcDbLine
10
26.007608
20
154.995888
30
0.0
11
39.994713
21
154.995888
31
0.0
0
LINE
8
Layer 1
62
4
5
201
100
AcDbEntity
100
AcDbLine
10
39.994713
20
154.995888
30
0.0
11
39.994713
21
150.997612
31
0.0
0
LINE
8
Layer 1
62
4
5
202
100
AcDbEntity
100
AcDbLine
10
39.994713
20
150.997612
30
0.0
11
50.003589
21
150.997612
31
0.0
0
LINE
8
Layer 1
62
4
5
203
100
AcDbEntity
100
AcDbLine
10
50.003589
20
150.997612
30
0.0
11
49.999502
21
154.995888
31
0.0
0
LINE
8
Layer 1
62
4
5
204
100
AcDbEntity
100
AcDbLine
10
49.999502
20
154.995888
30
0.0
11
60.004291
21
154.995888
31
0.0
0
LINE
8
Layer 1
62
4
5
205
100
AcDbEntity
100
AcDbLine
10
60.004291
20
154.995888
30
0.0
11
60.004291
21
150.997612
31
0.0
0
LINE
8
Layer 1
62
4
5
206
100
AcDbEntity
100
AcDbLine
10
60.004291
20
150.997612
30
0.0
11
70.000170
21
150.997612
31
0.0
0
LINE
8
Layer 1
62
4
5
207
100
AcDbEntity
100
AcDbLine
10
70.000170
20
150.997612
30
0.0
11
70.000170
21
154.997968
31
0.0
0
LINE
8
Layer 1
62
4
5
208
100
AcDbEntity
100
AcDbLine
10
70.000170
20
154.997968
30
0.0
11
80.004960
21
154.995888
31
0.0
0
LINE
8
Layer 1
62
4
5
209
100
AcDbEntity
100
AcDbLine
10
80.004960
20
154.995888
30
0.0
11
80.004960
21
145.000009
31
0.0
0
LINE
8
Layer 1
62
4
5
20a
100
AcDbEntity
100
AcDbLine
10
80.004960
20
145.000009
30
0.0
11
76.004826
21
145.000009
31
0.0
0
LINE
8
Layer 1
62
4
5
20b
100
AcDbEntity
100
AcDbLine
10
76.004826
20
145.000009
30
0.0
11
76.004826
21
134.995220
31
0.0
0
LINE
8
Layer 1
62
4
5
20c
100
AcDbEntity
100
AcDbLine
10
76.004826
20
134.995220
30
0.0
11
80.004960
21
134.995220
31
0.0
0
LINE
8
Layer 1
62
4
5
20d
100
AcDbEntity
100
AcDbLine
10
80.004960
20
134.995220
30
0.0
11
80.003588
21
124.993008
31
0.0
0
LINE
8
Layer 1
62
4
5
20e
100
AcDbEntity
100
AcDbLine
10
80.003588
20
124.993008
30
0.0
11
76.003587
21
124.993008
31
0.0
0
LINE
8
Layer 1
62
4
5
20f
100
AcDbEntity
100
AcDbLine
10
76.003587
20
124.993008
30
0.0
11
76.004826
21
114.995537
31
0.0
0
LINE
8
Layer 1
62
4
5
210
100
AcDbEntity
100
AcDbLine
10
76.004826
20
114.995537
30
0.0
11
80.004960
21
114.995537
31
0.0
0
LINE
8
Layer 1
62
4
5
211
100
AcDbEntity
100
AcDbLine
10
80.004960
20
114.995537
30
0.0
11
80.004960
21
106.997624
31
0.0
0
LINE
8
Layer 1
62
4
5
212
100
AcDbEntity
100
AcDbLine
10
80.004960
20
106.997624
30
0.0
11
70.000170
21
106.997624
31
0.0
0
LINE
8
Layer 1
62
4
5
213
100
AcDbEntity
100
AcDbLine
10
70.000170
20
106.997624
30
0.0
11
70.000170
21
110.997969
31
0.0
0
LINE
8
Layer 1
62
4
5
214
100
AcDbEntity
100
AcDbLine
10
70.000170
20
110.997969
30
0.0
11
60.004291
21
110.995288
31
0.0
0
LINE
8
Layer 1
62
4
5
215
100
AcDbEntity
100
AcDbLine
10
60.004291
20
110.995288
30
0.0
11
60.004291
21
106.997624
31
0.0
0
LINE
8
Layer 1
62
4
5
216
100
AcDbEntity
100
AcDbLine
10
60.004291
20
106.997624
30
0.0
11
49.999502
21
106.997624
31
0.0
0
LINE
8
Layer 1
62
4
5
217
100
AcDbEntity
100
AcDbLine
10
49.999502
20
106.997624
30
0.0
11
49.999502
21
110.995288
31
0.0
0
LINE
8
Layer 1
62
4
5
218
100
AcDbEntity
100
AcDbLine
10
49.999502
20
110.995288
30
0.0
11
39.994713
21
110.995288
31
0.0
0
LINE
8
Layer 1
62
4
5
219
100
AcDbEntity
100
AcDbLine
10
39.994713
20
110.995288
30
0.0
11
39.994713
21
106.997968
31
0.0
0
LINE
8
Layer 1
62
4
5
21a
100
AcDbEntity
100
AcDbLine
10
39.994713
20
106.997968
30
0.0
11
26.007608
21
106.997624
31
0.0
0
LINE
8
Layer 1
62
4
5
21b
100
AcDbEntity
100
AcDbLine
10
26.007608
20
106.997624
30
0.0
11
26.003589
21
114.995537
31
0.0
0
LINE
8
Layer 1
62
4
5
21c
100
AcDbEntity
100
AcDbLine
10
26.003589
20
114.995537
30
0.0
11
30.004978
21
114.995537
31
0.0
0
LINE
8
Layer 1
62
4
5
21d
100
AcDbEntity
100
AcDbLine
10
30.004978
20
114.995537
30
0.0
11
30.004978
21
124.993008
31
0.0
0
LINE
8
Layer 1
62
4
5
21e
100
AcDbEntity
100
AcDbLine
10
30.004978
20
124.993008
30
0.0
11
26.003589
21
124.993008
31
0.0
0
LINE
8
Layer 1
62
4
5
21f
100
AcDbEntity
100
AcDbLine
10
26.003589
20
124.993008
30
0.0
11
26.007608
21
134.995220
31
0.0
0
LINE
8
Layer 1
62
4
5
220
100
AcDbEntity
100
AcDbLine
10
26.007608
20
134.995220
30
0.0
11
30.004978
21
134.995220
31
0.0
0
LINE
8
Layer 1
62
4
5
221
100
AcDbEntity
100
AcDbLine
10
30.004978
20
134.995220
30
0.0
11
30.004978
21
144.997969
31
0.0
0
LINE
8
Layer 1
62
4
5
222
100
AcDbEntity
100
AcDbLine
10
30.004978
20
144.997969
30
0.0
11
26.007608
21
145.000009
31
0.0
0
LINE
8
Layer 1
62
4
5
223
100
AcDbEntity
100
AcDbLine
10
26.007608
20
145.000009
30
0.0
11
26.007608
21
150.997612
31
0.0
0
LINE
8
Layer 1
62
4
5
224
100
AcDbEntity
100
AcDbLine
10
26.007608
20
150.997612
30
0.0
11
26.007608
21
154.995888
31
0.0
0
LINE
8
Layer 1
62
4
5
225
100
AcDbEntity
100
AcDbLine
10
26.007608
20
154.995888
30
0.0
11
26.007608
21
154.995888
31
0.0
0
LINE
8
Layer 1
62
4
5
226
100
AcDbEntity
100
AcDbLine
10
69.003590
20
147.997968
30
0.0
11
72.003590
21
147.997968
31
0.0
0
LINE
8
Layer 1
62
4
5
227
100
AcDbEntity
100
AcDbLine
10
72.003590
20
147.997968
30
0.0
11
72.003590
21
145.997967
31
0.0
0
LINE
8
Layer 1
62
4
5
228
100
AcDbEntity
100
AcDbLine
10
72.003590
20
145.997967
30
0.0
11
69.003590
21
145.997967
31
0.0
0
LINE
8
Layer 1
62
4
5
229
100
AcDbEntity
100
AcDbLine
10
69.003590
20
145.997967
30
0.0
11
69.003590
21
147.997968
31
0.0
0
LINE
8
Layer 1
62
4
5
22a
100
AcDbEntity
100
AcDbLine
10
69.003590
20
147.997968
30
0.0
11
69.003590
21
147.997968
31
0.0
0
LINE
8
Layer 1
62
4
5
22b
100
AcDbEntity
100
AcDbLine
10
34.003590
20
147.997968
30
0.0
11
37.003589
21
147.997968
31
0.0
0
LINE
8
Layer 1
62
4
5
22c
100
AcDbEntity
100
AcDbLine
10
37.003589
20
147.997968
30
0.0
11
37.003589
21
145.997967
31
0.0
0
LINE
8
Layer 1
62
4
5
22d
100
AcDbEntity
100
AcDbLine
10
37.003589
20
145.997967
30
0.0
11
34.003590
21
145.997967
31
0.0
0
LINE
8
Layer 1
62
4
5
22e
100
AcDbEntity
100
AcDbLine
10
34.003590
20
145.997967
30
0.0
11
34.003590
21
147.997968
31
0.0
0
LINE
8
Layer 1
62
4
5
22f
100
AcDbEntity
100
AcDbLine
10
34.003590
20
147.997968
30
0.0
11
34.003590
21
147.997968
31
0.0
  0
ENDSEC
  0
SECTION
  2
OBJECTS
  0
DICTIONARY
  5
C
330
0
100
AcDbDictionary
  3
ACAD_GROUP
350
D
  3
ACAD_MLINESTYLE
350
17
  0
DICTIONARY
  5
D
330
C
100
AcDbDictionary
  0
DICTIONARY
  5
1A
330
C
100
AcDbDictionary
  0
DICTIONARY
  5
17
330
C
100
AcDbDictionary
  3
STANDARD
350
18
  0
DICTIONARY
  5
19
330
C
100
AcDbDictionary
  0
ENDSEC
  0
EOF
