999
Inkscape export via "Better Better DXF Output" (http://tim.cexx.org/?p=590)
  0
SECTION
  2
HEADER
  9
$ACADVER
  1
AC1014
  9
$HANDSEED
  5
FFFF
  0
ENDSEC
  0
SECTION
  2
TABLES
  0
TABLE
  2
VPORT
  5
8
330
0
100
AcDbSymbolTable
 70
     4
  0
VPORT
  5
2E
330
8
100
AcDbSymbolTableRecord
100
AcDbViewportTableRecord
  2
*ACTIVE
 70
     0
 10
0.0
 20
0.0
 11
1.0
 21
1.0
 12
4.25
 22
5.5
 13
0.0
 23
0.0
 14
10.0
 24
10.0
 15
10.0
 25
10.0
 16
0.0
 26
0.0
 36
1.0
 17
0.0
 27
0.0
 37
0.0
 40
11
 41
1.24
 42
50.0
 43
0.0
 44
0.0
 50
0.0
 51
0.0
 71
     0
 72
   100
 73
     1
 74
     3
 75
     0
 76
     0
 77
     0
 78
     0
  0
ENDTAB
  0
TABLE
  2
LTYPE
  5
5
330
0
100
AcDbSymbolTable
 70
     1
  0
LTYPE
  5
14
330
5
100
AcDbSymbolTableRecord
100
AcDbLinetypeTableRecord
  2
BYBLOCK
 70
     0
  3

 72
    65
 73
     0
 40
0.0
  0
LTYPE
  5
15
330
5
100
AcDbSymbolTableRecord
100
AcDbLinetypeTableRecord
  2
BYLAYER
 70
     0
  3

 72
    65
 73
     0
 40
0.0
  0
LTYPE
  5
16
330
5
100
AcDbSymbolTableRecord
100
AcDbLinetypeTableRecord
  2
CONTINUOUS
 70
     0
  3
Solid line
 72
    65
 73
     0
 40
0.0
  0
ENDTAB
  0
TABLE
  2
STYLE
  5
3
330
0
100
AcDbSymbolTable
 70
     1
  0
STYLE
  5
11
330
3
100
AcDbSymbolTableRecord
100
AcDbTextStyleTableRecord
  2
STANDARD
 70
     0
 40
0.0
 41
1.0
 50
0.0
 71
     0
 42
2.5
  3
txt
  4

  0
ENDTAB
  0
TABLE
  2
VIEW
  5
6
330
0
100
AcDbSymbolTable
 70
     0
  0
ENDTAB
  0
TABLE
  2
UCS
  5
7
330
0
100
AcDbSymbolTable
 70
     0
  0
ENDTAB
  0
TABLE
  2
APPID
  5
9
330
0
100
AcDbSymbolTable
 70
     2
  0
APPID
  5
12
330
9
100
AcDbSymbolTableRecord
100
AcDbRegAppTableRecord
  2
ACAD
 70
     0
  0
ENDTAB
  0
TABLE
  2
DIMSTYLE
  5
A
330
0
100
AcDbSymbolTable
 70
     1
  0
DIMSTYLE
105
27
330
A
100
AcDbSymbolTableRecord
100
AcDbDimStyleTableRecord
  2
ISO-25
 70
     0
  3

  4

  5

  6

  7

 40
1.0
 41
2.5
 42
0.625
 43
3.75
 44
1.25
 45
0.0
 46
0.0
 47
0.0
 48
0.0
140
2.5
141
2.5
142
0.0
143
0.03937007874016
144
1.0
145
0.0
146
1.0
147
0.625
 71
     0
 72
     0
 73
     0
 74
     0
 75
     0
 76
     0
 77
     1
 78
     8
170
     0
171
     3
172
     1
173
     0
174
     0
175
     0
176
     0
177
     0
178
     0
270
     2
271
     2
272
     2
273
     2
274
     3
340
11
275
     0
280
     0
281
     0
282
     0
283
     0
284
     8
285
     0
286
     0
287
     3
288
     0
  0
ENDTAB
  0
TABLE
  2
BLOCK_RECORD
  5
1
330
0
100
AcDbSymbolTable
 70
     1
  0
BLOCK_RECORD
  5
1F
330
1
100
AcDbSymbolTableRecord
100
AcDbBlockTableRecord
  2
*MODEL_SPACE
  0
BLOCK_RECORD
  5
1B
330
1
100
AcDbSymbolTableRecord
100
AcDbBlockTableRecord
  2
*PAPER_SPACE
  0
ENDTAB
0
TABLE
2
LAYER
5
2
330
0
100
AcDbSymbolTable
70
1
0
LAYER
5
10
330
2
100
AcDbSymbolTableRecord
100
AcDbLayerTableRecord
2
text
70
0
62
7
6
CONTINUOUS
0
ENDTAB
0
ENDSEC
  0
SECTION
  2
BLOCKS
  0
BLOCK
  5
20
330
1F
100
AcDbEntity
  8
0
100
AcDbBlockBegin
  2
*MODEL_SPACE
 70
     0
 10
0.0
 20
0.0
 30
0.0
  3
*MODEL_SPACE
  1

  0
ENDBLK
  5
21
330
1F
100
AcDbEntity
  8
0
100
AcDbBlockEnd
  0
BLOCK
  5
1C
330
1B
100
AcDbEntity
 67
     1
  8
0
100
AcDbBlockBegin
  2
*PAPER_SPACE
  1

  0
ENDBLK
  5
1D
330
1B
100
AcDbEntity
 67
     1
  8
0
100
AcDbBlockEnd
  0
ENDSEC
  0
SECTION
  2
ENTITIES
0
LINE
8
text
62
4
5
100
100
AcDbEntity
100
AcDbLine
10
37.003589
20
126.997968
30
0.0
11
37.089527
21
127.654218
31
0.0
0
LINE
8
text
62
4
5
101
100
AcDbEntity
100
AcDbLine
10
37.089527
20
127.654218
30
0.0
11
37.316090
21
128.122967
31
0.0
0
LINE
8
text
62
4
5
102
100
AcDbEntity
100
AcDbLine
10
37.316090
20
128.122967
30
0.0
11
37.636402
21
128.404217
31
0.0
0
LINE
8
text
62
4
5
103
100
AcDbEntity
100
AcDbLine
10
37.636402
20
128.404217
30
0.0
11
38.003590
21
128.497967
31
0.0
0
LINE
8
text
62
4
5
104
100
AcDbEntity
100
AcDbLine
10
38.003590
20
128.497967
30
0.0
11
38.370778
21
128.404217
31
0.0
0
LINE
8
text
62
4
5
105
100
AcDbEntity
100
AcDbLine
10
38.370778
20
128.404217
30
0.0
11
38.691091
21
128.122967
31
0.0
0
LINE
8
text
62
4
5
106
100
AcDbEntity
100
AcDbLine
10
38.691091
20
128.122967
30
0.0
11
38.917653
21
127.654218
31
0.0
0
LINE
8
text
62
4
5
107
100
AcDbEntity
100
AcDbLine
10
38.917653
20
127.654218
30
0.0
11
39.003591
21
126.997968
31
0.0
0
LINE
8
text
62
4
5
108
100
AcDbEntity
100
AcDbLine
10
39.003591
20
126.997968
30
0.0
11
39.089528
21
127.654218
31
0.0
0
LINE
8
text
62
4
5
109
100
AcDbEntity
100
AcDbLine
10
39.089528
20
127.654218
30
0.0
11
39.316091
21
128.122967
31
0.0
0
LINE
8
text
62
4
5
10a
100
AcDbEntity
100
AcDbLine
10
39.316091
20
128.122967
30
0.0
11
39.636403
21
128.404217
31
0.0
0
LINE
8
text
62
4
5
10b
100
AcDbEntity
100
AcDbLine
10
39.636403
20
128.404217
30
0.0
11
40.003590
21
128.497967
31
0.0
0
LINE
8
text
62
4
5
10c
100
AcDbEntity
100
AcDbLine
10
40.003590
20
128.497967
30
0.0
11
40.370778
21
128.404217
31
0.0
0
LINE
8
text
62
4
5
10d
100
AcDbEntity
100
AcDbLine
10
40.370778
20
128.404217
30
0.0
11
40.691090
21
128.122967
31
0.0
0
LINE
8
text
62
4
5
10e
100
AcDbEntity
100
AcDbLine
10
40.691090
20
128.122967
30
0.0
11
40.917652
21
127.654218
31
0.0
0
LINE
8
text
62
4
5
10f
100
AcDbEntity
100
AcDbLine
10
40.917652
20
127.654218
30
0.0
11
41.003590
21
126.997968
31
0.0
0
LINE
8
text
62
4
5
110
100
AcDbEntity
100
AcDbLine
10
37.144700
20
121.421302
30
0.0
11
37.230638
21
122.077552
31
0.0
0
LINE
8
text
62
4
5
111
100
AcDbEntity
100
AcDbLine
10
37.230638
20
122.077552
30
0.0
11
37.457201
21
122.546301
31
0.0
0
LINE
8
text
62
4
5
112
100
AcDbEntity
100
AcDbLine
10
37.457201
20
122.546301
30
0.0
11
37.777513
21
122.827551
31
0.0
0
LINE
8
text
62
4
5
113
100
AcDbEntity
100
AcDbLine
10
37.777513
20
122.827551
30
0.0
11
38.144701
21
122.921301
31
0.0
0
LINE
8
text
62
4
5
114
100
AcDbEntity
100
AcDbLine
10
38.144701
20
122.921301
30
0.0
11
38.511889
21
122.827551
31
0.0
0
LINE
8
text
62
4
5
115
100
AcDbEntity
100
AcDbLine
10
38.511889
20
122.827551
30
0.0
11
38.832202
21
122.546301
31
0.0
0
LINE
8
text
62
4
5
116
100
AcDbEntity
100
AcDbLine
10
38.832202
20
122.546301
30
0.0
11
39.058764
21
122.077552
31
0.0
0
LINE
8
text
62
4
5
117
100
AcDbEntity
100
AcDbLine
10
39.058764
20
122.077552
30
0.0
11
39.144702
21
121.421302
31
0.0
0
LINE
8
text
62
4
5
118
100
AcDbEntity
100
AcDbLine
10
39.144702
20
121.421302
30
0.0
11
39.230639
21
122.077552
31
0.0
0
LINE
8
text
62
4
5
119
100
AcDbEntity
100
AcDbLine
10
39.230639
20
122.077552
30
0.0
11
39.457202
21
122.546301
31
0.0
0
LINE
8
text
62
4
5
11a
100
AcDbEntity
100
AcDbLine
10
39.457202
20
122.546301
30
0.0
11
39.777514
21
122.827551
31
0.0
0
LINE
8
text
62
4
5
11b
100
AcDbEntity
100
AcDbLine
10
39.777514
20
122.827551
30
0.0
11
40.144701
21
122.921301
31
0.0
0
LINE
8
text
62
4
5
11c
100
AcDbEntity
100
AcDbLine
10
40.144701
20
122.921301
30
0.0
11
40.511889
21
122.827551
31
0.0
0
LINE
8
text
62
4
5
11d
100
AcDbEntity
100
AcDbLine
10
40.511889
20
122.827551
30
0.0
11
40.832201
21
122.546301
31
0.0
0
LINE
8
text
62
4
5
11e
100
AcDbEntity
100
AcDbLine
10
40.832201
20
122.546301
30
0.0
11
41.058763
21
122.077552
31
0.0
0
LINE
8
text
62
4
5
11f
100
AcDbEntity
100
AcDbLine
10
41.058763
20
122.077552
30
0.0
11
41.144701
21
121.421302
31
0.0
0
LINE
8
text
62
4
5
120
100
AcDbEntity
100
AcDbLine
10
39.003588
20
123.997968
30
0.0
11
41.003590
21
124.993008
31
0.0
0
LINE
8
text
62
4
5
121
100
AcDbEntity
100
AcDbLine
10
41.003590
20
124.993008
30
0.0
11
39.003588
21
125.997967
31
0.0
0
LINE
8
text
62
4
5
122
100
AcDbEntity
100
AcDbLine
10
59.003588
20
118.997970
30
0.0
11
59.987962
21
118.826095
31
0.0
0
LINE
8
text
62
4
5
123
100
AcDbEntity
100
AcDbLine
10
59.987962
20
118.826095
30
0.0
11
60.691087
21
118.372970
31
0.0
0
LINE
8
text
62
4
5
124
100
AcDbEntity
100
AcDbLine
10
60.691087
20
118.372970
30
0.0
11
61.112962
21
117.732345
31
0.0
0
LINE
8
text
62
4
5
125
100
AcDbEntity
100
AcDbLine
10
61.112962
20
117.732345
30
0.0
11
61.253587
21
116.997970
31
0.0
0
LINE
8
text
62
4
5
126
100
AcDbEntity
100
AcDbLine
10
61.253587
20
116.997970
30
0.0
11
61.112962
21
116.263595
31
0.0
0
LINE
8
text
62
4
5
127
100
AcDbEntity
100
AcDbLine
10
61.112962
20
116.263595
30
0.0
11
60.691087
21
115.622969
31
0.0
0
LINE
8
text
62
4
5
128
100
AcDbEntity
100
AcDbLine
10
60.691087
20
115.622969
30
0.0
11
59.987962
21
115.169844
31
0.0
0
LINE
8
text
62
4
5
129
100
AcDbEntity
100
AcDbLine
10
59.987962
20
115.169844
30
0.0
11
59.003588
21
114.997969
31
0.0
0
LINE
8
text
62
4
5
12a
100
AcDbEntity
100
AcDbLine
10
59.003588
20
114.997969
30
0.0
11
59.003588
21
118.997970
31
0.0
0
LINE
8
text
62
4
5
12b
100
AcDbEntity
100
AcDbLine
10
59.003588
20
118.997970
30
0.0
11
59.003588
21
118.997970
31
0.0
0
LINE
8
text
62
4
5
12c
100
AcDbEntity
100
AcDbLine
10
62.003590
20
118.997970
30
0.0
11
62.659840
21
118.912032
31
0.0
0
LINE
8
text
62
4
5
12d
100
AcDbEntity
100
AcDbLine
10
62.659840
20
118.912032
30
0.0
11
63.128589
21
118.685470
31
0.0
0
LINE
8
text
62
4
5
12e
100
AcDbEntity
100
AcDbLine
10
63.128589
20
118.685470
30
0.0
11
63.409839
21
118.365157
31
0.0
0
LINE
8
text
62
4
5
12f
100
AcDbEntity
100
AcDbLine
10
63.409839
20
118.365157
30
0.0
11
63.503589
21
117.997969
31
0.0
0
LINE
8
text
62
4
5
130
100
AcDbEntity
100
AcDbLine
10
63.503589
20
117.997969
30
0.0
11
63.409839
21
117.630781
31
0.0
0
LINE
8
text
62
4
5
131
100
AcDbEntity
100
AcDbLine
10
63.409839
20
117.630781
30
0.0
11
63.128589
21
117.310469
31
0.0
0
LINE
8
text
62
4
5
132
100
AcDbEntity
100
AcDbLine
10
63.128589
20
117.310469
30
0.0
11
62.659840
21
117.083906
31
0.0
0
LINE
8
text
62
4
5
133
100
AcDbEntity
100
AcDbLine
10
62.659840
20
117.083906
30
0.0
11
62.003590
21
116.997968
31
0.0
0
LINE
8
text
62
4
5
134
100
AcDbEntity
100
AcDbLine
10
62.003590
20
116.997968
30
0.0
11
62.659840
21
116.912031
31
0.0
0
LINE
8
text
62
4
5
135
100
AcDbEntity
100
AcDbLine
10
62.659840
20
116.912031
30
0.0
11
63.128589
21
116.685468
31
0.0
0
LINE
8
text
62
4
5
136
100
AcDbEntity
100
AcDbLine
10
63.128589
20
116.685468
30
0.0
11
63.409839
21
116.365156
31
0.0
0
LINE
8
text
62
4
5
137
100
AcDbEntity
100
AcDbLine
10
63.409839
20
116.365156
30
0.0
11
63.503589
21
115.997969
31
0.0
0
LINE
8
text
62
4
5
138
100
AcDbEntity
100
AcDbLine
10
63.503589
20
115.997969
30
0.0
11
63.409839
21
115.630782
31
0.0
0
LINE
8
text
62
4
5
139
100
AcDbEntity
100
AcDbLine
10
63.409839
20
115.630782
30
0.0
11
63.128589
21
115.310469
31
0.0
0
LINE
8
text
62
4
5
13a
100
AcDbEntity
100
AcDbLine
10
63.128589
20
115.310469
30
0.0
11
62.659840
21
115.083907
31
0.0
0
LINE
8
text
62
4
5
13b
100
AcDbEntity
100
AcDbLine
10
62.659840
20
115.083907
30
0.0
11
62.003590
21
114.997969
31
0.0
0
LINE
8
text
62
4
5
13c
100
AcDbEntity
100
AcDbLine
10
64.003589
20
116.997968
30
0.0
11
66.003588
21
116.997968
31
0.0
0
LINE
8
text
62
4
5
13d
100
AcDbEntity
100
AcDbLine
10
69.003589
20
116.997968
30
0.0
11
68.873162
21
115.993872
31
0.0
0
LINE
8
text
62
4
5
13e
100
AcDbEntity
100
AcDbLine
10
68.873162
20
115.993872
30
0.0
11
68.503589
21
115.265917
31
0.0
0
LINE
8
text
62
4
5
13f
100
AcDbEntity
100
AcDbLine
10
68.503589
20
115.265917
30
0.0
11
68.003589
21
114.989775
31
0.0
0
LINE
8
text
62
4
5
140
100
AcDbEntity
100
AcDbLine
10
68.003589
20
114.989775
30
0.0
11
67.503589
21
115.265917
31
0.0
0
LINE
8
text
62
4
5
141
100
AcDbEntity
100
AcDbLine
10
67.503589
20
115.265917
30
0.0
11
67.134016
21
115.993872
31
0.0
0
LINE
8
text
62
4
5
142
100
AcDbEntity
100
AcDbLine
10
67.134016
20
115.993872
30
0.0
11
67.003590
21
116.997968
31
0.0
0
LINE
8
text
62
4
5
143
100
AcDbEntity
100
AcDbLine
10
67.003590
20
116.997968
30
0.0
11
67.134017
21
118.002065
31
0.0
0
LINE
8
text
62
4
5
144
100
AcDbEntity
100
AcDbLine
10
67.134017
20
118.002065
30
0.0
11
67.503590
21
118.730019
31
0.0
0
LINE
8
text
62
4
5
145
100
AcDbEntity
100
AcDbLine
10
67.503590
20
118.730019
30
0.0
11
68.003590
21
119.006161
31
0.0
0
LINE
8
text
62
4
5
146
100
AcDbEntity
100
AcDbLine
10
68.003590
20
119.006161
30
0.0
11
68.503590
21
118.730019
31
0.0
0
LINE
8
text
62
4
5
147
100
AcDbEntity
100
AcDbLine
10
68.503590
20
118.730019
30
0.0
11
68.873163
21
118.002065
31
0.0
0
LINE
8
text
62
4
5
148
100
AcDbEntity
100
AcDbLine
10
68.873163
20
118.002065
30
0.0
11
69.003590
21
116.997968
31
0.0
0
LINE
8
text
62
4
5
149
100
AcDbEntity
100
AcDbLine
10
69.003590
20
116.997968
30
0.0
11
69.003590
21
116.997968
31
0.0
0
LINE
8
text
62
4
5
14a
100
AcDbEntity
100
AcDbLine
10
66.003590
20
142.997970
30
0.0
11
65.873163
21
141.993873
31
0.0
0
LINE
8
text
62
4
5
14b
100
AcDbEntity
100
AcDbLine
10
65.873163
20
141.993873
30
0.0
11
65.503590
21
141.265919
31
0.0
0
LINE
8
text
62
4
5
14c
100
AcDbEntity
100
AcDbLine
10
65.503590
20
141.265919
30
0.0
11
65.003590
21
140.989777
31
0.0
0
LINE
8
text
62
4
5
14d
100
AcDbEntity
100
AcDbLine
10
65.003590
20
140.989777
30
0.0
11
64.503590
21
141.265919
31
0.0
0
LINE
8
text
62
4
5
14e
100
AcDbEntity
100
AcDbLine
10
64.503590
20
141.265919
30
0.0
11
64.134017
21
141.993873
31
0.0
0
LINE
8
text
62
4
5
14f
100
AcDbEntity
100
AcDbLine
10
64.134017
20
141.993873
30
0.0
11
64.003590
21
142.997970
31
0.0
0
LINE
8
text
62
4
5
150
100
AcDbEntity
100
AcDbLine
10
64.003590
20
142.997970
30
0.0
11
64.134017
21
144.002066
31
0.0
0
LINE
8
text
62
4
5
151
100
AcDbEntity
100
AcDbLine
10
64.134017
20
144.002066
30
0.0
11
64.503590
21
144.730021
31
0.0
0
LINE
8
text
62
4
5
152
100
AcDbEntity
100
AcDbLine
10
64.503590
20
144.730021
30
0.0
11
65.003590
21
145.006163
31
0.0
0
LINE
8
text
62
4
5
153
100
AcDbEntity
100
AcDbLine
10
65.003590
20
145.006163
30
0.0
11
65.503590
21
144.730021
31
0.0
0
LINE
8
text
62
4
5
154
100
AcDbEntity
100
AcDbLine
10
65.503590
20
144.730021
30
0.0
11
65.873163
21
144.002066
31
0.0
0
LINE
8
text
62
4
5
155
100
AcDbEntity
100
AcDbLine
10
65.873163
20
144.002066
30
0.0
11
66.003590
21
142.997970
31
0.0
0
LINE
8
text
62
4
5
156
100
AcDbEntity
100
AcDbLine
10
66.003590
20
142.997970
30
0.0
11
66.003591
21
142.997970
31
0.0
0
LINE
8
text
62
4
5
157
100
AcDbEntity
100
AcDbLine
10
52.003587
20
142.997970
30
0.0
11
62.003590
21
142.997970
31
0.0
0
LINE
8
text
62
4
5
158
100
AcDbEntity
100
AcDbLine
10
47.503941
20
144.997969
30
0.0
11
50.503238
21
144.997969
31
0.0
0
LINE
8
text
62
4
5
159
100
AcDbEntity
100
AcDbLine
10
50.503238
20
144.997969
30
0.0
11
48.503239
21
140.997968
31
0.0
0
LINE
8
text
62
4
5
15a
100
AcDbEntity
100
AcDbLine
10
48.503239
20
140.997968
30
0.0
11
48.503239
21
140.997968
31
0.0
0
LINE
8
text
62
4
5
15b
100
AcDbEntity
100
AcDbLine
10
43.944190
20
142.879166
30
0.0
11
46.070732
21
142.863683
31
0.0
0
LINE
8
text
62
4
5
15c
100
AcDbEntity
100
AcDbLine
10
43.003589
20
140.997968
30
0.0
11
45.003590
21
144.997969
31
0.0
0
LINE
8
text
62
4
5
15d
100
AcDbEntity
100
AcDbLine
10
45.003590
20
144.997969
30
0.0
11
47.003589
21
140.997968
31
0.0
0
LINE
8
text
62
4
5
15e
100
AcDbEntity
100
AcDbLine
10
47.003589
20
140.997968
30
0.0
11
47.003589
21
140.997968
31
0.0
0
LINE
8
text
62
4
5
15f
100
AcDbEntity
100
AcDbLine
10
68.001190
20
130.000011
30
0.0
11
67.977671
21
128.902579
31
0.0
0
LINE
8
text
62
4
5
160
100
AcDbEntity
100
AcDbLine
10
67.977671
20
128.902579
30
0.0
11
68.330612
21
128.123926
31
0.0
0
LINE
8
text
62
4
5
161
100
AcDbEntity
100
AcDbLine
10
68.330612
20
128.123926
30
0.0
11
68.946570
21
127.643582
31
0.0
0
LINE
8
text
62
4
5
162
100
AcDbEntity
100
AcDbLine
10
68.946570
20
127.643582
30
0.0
11
69.712105
21
127.441076
31
0.0
0
LINE
8
text
62
4
5
163
100
AcDbEntity
100
AcDbLine
10
69.712105
20
127.441076
30
0.0
11
70.513776
21
127.495937
31
0.0
0
LINE
8
text
62
4
5
164
100
AcDbEntity
100
AcDbLine
10
70.513776
20
127.495937
30
0.0
11
71.238141
21
127.787693
31
0.0
0
LINE
8
text
62
4
5
165
100
AcDbEntity
100
AcDbLine
10
71.238141
20
127.787693
30
0.0
11
71.771760
21
128.295875
31
0.0
0
LINE
8
text
62
4
5
166
100
AcDbEntity
100
AcDbLine
10
71.771760
20
128.295875
30
0.0
11
72.001191
21
129.000010
31
0.0
0
LINE
8
text
62
4
5
167
100
AcDbEntity
100
AcDbLine
10
72.001191
20
129.000010
30
0.0
11
71.943755
21
129.616490
31
0.0
0
LINE
8
text
62
4
5
168
100
AcDbEntity
100
AcDbLine
10
71.943755
20
129.616490
30
0.0
11
71.730571
21
129.998970
31
0.0
0
LINE
8
text
62
4
5
169
100
AcDbEntity
100
AcDbLine
10
71.730571
20
129.998970
30
0.0
11
71.412003
21
130.194240
31
0.0
0
LINE
8
text
62
4
5
16a
100
AcDbEntity
100
AcDbLine
10
71.412003
20
130.194240
30
0.0
11
71.038417
21
130.249086
31
0.0
0
LINE
8
text
62
4
5
16b
100
AcDbEntity
100
AcDbLine
10
71.038417
20
130.249086
30
0.0
11
70.327650
21
130.124664
31
0.0
0
LINE
8
text
62
4
5
16c
100
AcDbEntity
100
AcDbLine
10
70.327650
20
130.124664
30
0.0
11
70.001189
21
130.000011
31
0.0
0
LINE
8
text
62
4
5
16d
100
AcDbEntity
100
AcDbLine
10
70.001189
20
130.000011
30
0.0
11
70.001189
21
129.000010
31
0.0
0
LINE
8
text
62
4
5
16e
100
AcDbEntity
100
AcDbLine
10
72.145717
20
131.290263
30
0.0
11
68.145716
21
131.290263
31
0.0
0
LINE
8
text
62
4
5
16f
100
AcDbEntity
100
AcDbLine
10
68.145716
20
131.290263
30
0.0
11
72.145717
21
133.290265
31
0.0
0
LINE
8
text
62
4
5
170
100
AcDbEntity
100
AcDbLine
10
72.145717
20
133.290265
30
0.0
11
68.145716
21
133.287685
31
0.0
0
LINE
8
text
62
4
5
171
100
AcDbEntity
100
AcDbLine
10
68.145716
20
134.290263
30
0.0
11
72.145717
21
134.290263
31
0.0
0
LINE
8
text
62
4
5
172
100
AcDbEntity
100
AcDbLine
10
72.145717
20
134.290263
30
0.0
11
71.973842
21
134.946512
31
0.0
0
LINE
8
text
62
4
5
173
100
AcDbEntity
100
AcDbLine
10
71.973842
20
134.946512
30
0.0
11
71.520717
21
135.415262
31
0.0
0
LINE
8
text
62
4
5
174
100
AcDbEntity
100
AcDbLine
10
71.520717
20
135.415262
30
0.0
11
70.880092
21
135.696512
31
0.0
0
LINE
8
text
62
4
5
175
100
AcDbEntity
100
AcDbLine
10
70.880092
20
135.696512
30
0.0
11
70.145717
21
135.790262
31
0.0
0
LINE
8
text
62
4
5
176
100
AcDbEntity
100
AcDbLine
10
70.145717
20
135.790262
30
0.0
11
69.411342
21
135.696512
31
0.0
0
LINE
8
text
62
4
5
177
100
AcDbEntity
100
AcDbLine
10
69.411342
20
135.696512
30
0.0
11
68.770717
21
135.415262
31
0.0
0
LINE
8
text
62
4
5
178
100
AcDbEntity
100
AcDbLine
10
68.770717
20
135.415262
30
0.0
11
68.317591
21
134.946512
31
0.0
0
LINE
8
text
62
4
5
179
100
AcDbEntity
100
AcDbLine
10
68.317591
20
134.946512
30
0.0
11
68.145716
21
134.290263
31
0.0
0
LINE
8
text
62
4
5
17a
100
AcDbEntity
100
AcDbLine
10
44.141113
20
119.141121
30
0.0
11
44.141113
21
114.141120
31
0.0
0
LINE
8
text
62
4
5
17b
100
AcDbEntity
100
AcDbLine
10
44.141113
20
114.141120
30
0.0
11
45.084473
21
114.270026
31
0.0
0
LINE
8
text
62
4
5
17c
100
AcDbEntity
100
AcDbLine
10
45.084473
20
114.270026
30
0.0
11
45.687988
21
114.609870
31
0.0
0
LINE
8
text
62
4
5
17d
100
AcDbEntity
100
AcDbLine
10
45.687988
20
114.609870
30
0.0
11
45.986816
21
115.090339
31
0.0
0
LINE
8
text
62
4
5
17e
100
AcDbEntity
100
AcDbLine
10
45.986816
20
115.090339
30
0.0
11
46.016113
21
115.641120
31
0.0
0
LINE
8
text
62
4
5
17f
100
AcDbEntity
100
AcDbLine
10
46.016113
20
115.641120
30
0.0
11
45.811035
21
116.191901
31
0.0
0
LINE
8
text
62
4
5
180
100
AcDbEntity
100
AcDbLine
10
45.811035
20
116.191901
30
0.0
11
45.406738
21
116.672370
31
0.0
0
LINE
8
text
62
4
5
181
100
AcDbEntity
100
AcDbLine
10
45.406738
20
116.672370
30
0.0
11
44.838379
21
117.012214
31
0.0
0
LINE
8
text
62
4
5
182
100
AcDbEntity
100
AcDbLine
10
44.838379
20
117.012214
30
0.0
11
44.141113
21
117.141120
31
0.0
0
LINE
8
text
62
4
5
183
100
AcDbEntity
100
AcDbLine
10
44.141113
20
117.141120
30
0.0
11
44.797363
21
117.227057
31
0.0
0
LINE
8
text
62
4
5
184
100
AcDbEntity
100
AcDbLine
10
44.797363
20
117.227057
30
0.0
11
45.266113
21
117.453620
31
0.0
0
LINE
8
text
62
4
5
185
100
AcDbEntity
100
AcDbLine
10
45.266113
20
117.453620
30
0.0
11
45.547363
21
117.773933
31
0.0
0
LINE
8
text
62
4
5
186
100
AcDbEntity
100
AcDbLine
10
45.547363
20
117.773933
30
0.0
11
45.641113
21
118.141121
31
0.0
0
LINE
8
text
62
4
5
187
100
AcDbEntity
100
AcDbLine
10
45.641113
20
118.141121
30
0.0
11
45.547363
21
118.508308
31
0.0
0
LINE
8
text
62
4
5
188
100
AcDbEntity
100
AcDbLine
10
45.547363
20
118.508308
30
0.0
11
45.266113
21
118.828621
31
0.0
0
LINE
8
text
62
4
5
189
100
AcDbEntity
100
AcDbLine
10
45.266113
20
118.828621
30
0.0
11
44.797363
21
119.055184
31
0.0
0
LINE
8
text
62
4
5
18a
100
AcDbEntity
100
AcDbLine
10
44.797363
20
119.055184
30
0.0
11
44.141113
21
119.141121
31
0.0
0
LINE
8
text
62
4
5
18b
100
AcDbEntity
100
AcDbLine
10
44.141113
20
119.141121
30
0.0
11
44.141113
21
119.141121
31
0.0
0
LINE
8
text
62
4
5
18c
100
AcDbEntity
100
AcDbLine
10
42.000001
20
114.000009
30
0.0
11
42.000001
21
119.000010
31
0.0
0
LINE
8
text
62
4
5
18d
100
AcDbEntity
100
AcDbLine
10
42.000001
20
119.000010
30
0.0
11
42.656250
21
118.871104
31
0.0
0
LINE
8
text
62
4
5
18e
100
AcDbEntity
100
AcDbLine
10
42.656250
20
118.871104
30
0.0
11
43.125000
21
118.531260
31
0.0
0
LINE
8
text
62
4
5
18f
100
AcDbEntity
100
AcDbLine
10
43.125000
20
118.531260
30
0.0
11
43.406250
21
118.050792
31
0.0
0
LINE
8
text
62
4
5
190
100
AcDbEntity
100
AcDbLine
10
43.406250
20
118.050792
30
0.0
11
43.500000
21
117.500011
31
0.0
0
LINE
8
text
62
4
5
191
100
AcDbEntity
100
AcDbLine
10
43.500000
20
117.500011
30
0.0
11
43.406250
21
116.949229
31
0.0
0
LINE
8
text
62
4
5
192
100
AcDbEntity
100
AcDbLine
10
43.406250
20
116.949229
30
0.0
11
43.125000
21
116.468761
31
0.0
0
LINE
8
text
62
4
5
193
100
AcDbEntity
100
AcDbLine
10
43.125000
20
116.468761
30
0.0
11
42.656250
21
116.128917
31
0.0
0
LINE
8
text
62
4
5
194
100
AcDbEntity
100
AcDbLine
10
42.656250
20
116.128917
30
0.0
11
42.000001
21
116.000011
31
0.0
0
LINE
8
text
62
4
5
195
100
AcDbEntity
100
AcDbLine
10
42.000001
20
116.000011
30
0.0
11
42.000001
21
116.000011
31
0.0
  0
ENDSEC
  0
SECTION
  2
OBJECTS
  0
DICTIONARY
  5
C
330
0
100
AcDbDictionary
  3
ACAD_GROUP
350
D
  3
ACAD_MLINESTYLE
350
17
  0
DICTIONARY
  5
D
330
C
100
AcDbDictionary
  0
DICTIONARY
  5
1A
330
C
100
AcDbDictionary
  0
DICTIONARY
  5
17
330
C
100
AcDbDictionary
  3
STANDARD
350
18
  0
DICTIONARY
  5
19
330
C
100
AcDbDictionary
  0
ENDSEC
  0
EOF
