999
DXF created by Inkscape
0
SECTION
2
ENTITIES
0
LINE
8
2
62
4
10
26.004762
20
204.000010
30
0
11
59.997422
21
203.997930
31
0
0
LINE
8
2
62
4
10
59.997422
20
203.997930
30
0
11
59.997422
21
199.999654
31
0
0
LINE
8
2
62
4
10
59.997422
20
199.999654
30
0
11
70.001189
21
199.999654
31
0
0
LINE
8
2
62
4
10
70.001189
20
199.999654
30
0
11
70.001189
21
203.997930
31
0
0
LINE
8
2
62
4
10
70.001189
20
203.997930
30
0
11
80.004960
21
203.997930
31
0
0
LINE
8
2
62
4
10
80.004960
20
203.997930
30
0
11
80.004960
21
199.999654
31
0
0
LINE
8
2
62
4
10
80.004960
20
199.999654
30
0
11
90.000001
21
199.999654
31
0
0
LINE
8
2
62
4
10
90.000001
20
199.999654
30
0
11
90.008730
21
203.997930
31
0
0
LINE
8
2
62
4
10
90.008730
20
203.997930
30
0
11
120.004019
21
203.997930
31
0
0
LINE
8
2
62
4
10
120.004019
20
203.997930
30
0
11
120.004019
21
155.999665
31
0
0
LINE
8
2
62
4
10
120.004019
20
155.999665
30
0
11
90.008730
21
155.999665
31
0
0
LINE
8
2
62
4
10
90.008730
20
155.999665
30
0
11
90.008730
21
159.997329
31
0
0
LINE
8
2
62
4
10
90.008730
20
159.997329
30
0
11
80.004960
21
159.997329
31
0
0
LINE
8
2
62
4
10
80.004960
20
159.997329
30
0
11
80.004960
21
155.999665
31
0
0
LINE
8
2
62
4
10
80.004960
20
155.999665
30
0
11
70.001189
21
155.999665
31
0
0
LINE
8
2
62
4
10
70.001189
20
155.999665
30
0
11
70.001189
21
159.997329
31
0
0
LINE
8
2
62
4
10
70.001189
20
159.997329
30
0
11
59.997422
21
159.997329
31
0
0
LINE
8
2
62
4
10
59.997422
20
159.997329
30
0
11
59.997422
21
155.999665
31
0
0
LINE
8
2
62
4
10
59.997422
20
155.999665
30
0
11
26.004762
21
155.999665
31
0
0
LINE
8
2
62
4
10
26.004762
20
155.999665
30
0
11
26.004762
21
204.000010
31
0
0
LINE
8
2
62
4
10
26.004762
20
204.000010
30
0
11
26.004762
21
204.000010
31
0
0
LINE
8
2
62
4
10
96.003214
20
194.002050
30
0
11
99.999902
21
194.002050
31
0
0
LINE
8
2
62
4
10
99.999902
20
194.002050
30
0
11
99.999902
21
184.000010
31
0
0
LINE
8
2
62
4
10
99.999902
20
184.000010
30
0
11
96.003214
21
183.997261
31
0
0
LINE
8
2
62
4
10
96.003214
20
183.997261
30
0
11
96.003214
21
194.002050
31
0
0
LINE
8
2
62
4
10
96.003214
20
194.002050
30
0
11
96.003214
21
194.002050
31
0
0
LINE
8
2
62
4
10
96.003214
20
173.995049
30
0
11
99.999902
21
173.995049
31
0
0
LINE
8
2
62
4
10
99.999902
20
173.995049
30
0
11
99.999902
21
163.997578
31
0
0
LINE
8
2
62
4
10
99.999902
20
163.997578
30
0
11
96.003214
21
163.997578
31
0
0
LINE
8
2
62
4
10
96.003214
20
163.997578
30
0
11
96.003214
21
173.995049
31
0
0
LINE
8
2
62
4
10
96.003214
20
173.995049
30
0
11
96.003214
21
173.995049
31
0
0
LINE
8
2
62
4
10
46.000001
20
173.995049
30
0
11
49.997219
21
173.995049
31
0
0
LINE
8
2
62
4
10
49.997219
20
173.995049
30
0
11
49.997219
21
163.997578
31
0
0
LINE
8
2
62
4
10
49.997219
20
163.997578
30
0
11
46.001539
21
164.000011
31
0
0
LINE
8
2
62
4
10
46.001539
20
164.000011
30
0
11
46.000001
21
173.995049
31
0
0
LINE
8
2
62
4
10
46.000001
20
173.995049
30
0
11
46.000001
21
173.995049
31
0
0
LINE
8
2
62
4
10
46.001539
20
183.997261
30
0
11
49.997219
21
183.997261
31
0
0
LINE
8
2
62
4
10
49.997219
20
183.997261
30
0
11
49.997219
21
194.002050
31
0
0
LINE
8
2
62
4
10
49.997219
20
194.002050
30
0
11
46.000001
21
194.002050
31
0
0
LINE
8
2
62
4
10
46.000001
20
194.002050
30
0
11
46.001539
21
183.997261
31
0
0
LINE
8
2
62
4
10
46.001539
20
183.997261
30
0
11
46.001539
21
183.997261
31
0
  0
SPLINE
  5
43
  8
0
 62
256
370
-1
  6
ByLayer
100
AcDbEntity
100
AcDbSpline
 70
8
 71
3
 72
8
 73
4
 74
0
 40
0
 40
0
 40
0
 40
0
 40
1
 40
1
 40
1
 40
1
 10
99.999899
 20
201.998972
 30
0
 10
103.409852
 20
203.002425
 30
0
 10
105.516719
 20
206.284549
 30
0
 10
105.009971
 20
209.803771
 30
0
  0
SPLINE
  5
43
  8
0
 62
256
370
-1
  6
ByLayer
100
AcDbEntity
100
AcDbSpline
 70
8
 71
3
 72
8
 73
4
 74
0
 40
0
 40
0
 40
0
 40
0
 40
1
 40
1
 40
1
 40
1
 10
105.009971
 20
209.803771
 30
0
 10
104.503223
 20
213.322994
 30
0
 10
101.556000
 20
215.876907
 30
0
 10
98.001555
 20
215.876907
 30
0
  0
SPLINE
  5
43
  8
0
 62
256
370
-1
  6
ByLayer
100
AcDbEntity
100
AcDbSpline
 70
8
 71
3
 72
8
 73
4
 74
0
 40
0
 40
0
 40
0
 40
0
 40
1
 40
1
 40
1
 40
1
 10
98.001555
 20
215.876907
 30
0
 10
94.447111
 20
215.876907
 30
0
 10
91.499887
 20
213.322994
 30
0
 10
90.993139
 20
209.803771
 30
0
  0
SPLINE
  5
43
  8
0
 62
256
370
-1
  6
ByLayer
100
AcDbEntity
100
AcDbSpline
 70
8
 71
3
 72
8
 73
4
 74
0
 40
0
 40
0
 40
0
 40
0
 40
1
 40
1
 40
1
 40
1
 10
90.993139
 20
209.803771
 30
0
 10
90.486391
 20
206.284549
 30
0
 10
92.593259
 20
203.002425
 30
0
 10
96.003212
 20
201.998972
 30
0
  0
SPLINE
  5
43
  8
0
 62
256
370
-1
  6
ByLayer
100
AcDbEntity
100
AcDbSpline
 70
8
 71
3
 72
8
 73
4
 74
0
 40
0
 40
0
 40
0
 40
0
 40
1
 40
1
 40
1
 40
1
 10
96.003212
 20
201.998972
 30
0
 10
92.593259
 20
200.995519
 30
0
 10
90.486391
 20
197.713396
 30
0
 10
90.993139
 20
194.194173
 30
0
  0
SPLINE
  5
43
  8
0
 62
256
370
-1
  6
ByLayer
100
AcDbEntity
100
AcDbSpline
 70
8
 71
3
 72
8
 73
4
 74
0
 40
0
 40
0
 40
0
 40
0
 40
1
 40
1
 40
1
 40
1
 10
90.993139
 20
194.194173
 30
0
 10
91.499887
 20
190.674951
 30
0
 10
94.447111
 20
188.121037
 30
0
 10
98.001555
 20
188.121037
 30
0
  0
SPLINE
  5
43
  8
0
 62
256
370
-1
  6
ByLayer
100
AcDbEntity
100
AcDbSpline
 70
8
 71
3
 72
8
 73
4
 74
0
 40
0
 40
0
 40
0
 40
0
 40
1
 40
1
 40
1
 40
1
 10
98.001555
 20
188.121037
 30
0
 10
101.556000
 20
188.121037
 30
0
 10
104.503223
 20
190.674951
 30
0
 10
105.009971
 20
194.194173
 30
0
  0
SPLINE
  5
43
  8
0
 62
256
370
-1
  6
ByLayer
100
AcDbEntity
100
AcDbSpline
 70
8
 71
3
 72
8
 73
4
 74
0
 40
0
 40
0
 40
0
 40
0
 40
1
 40
1
 40
1
 40
1
 10
105.009971
 20
194.194173
 30
0
 10
105.516719
 20
197.713396
 30
0
 10
103.409852
 20
200.995519
 30
0
 10
99.999899
 20
201.998972
 30
0
0
LINE
8
2
62
4
10
99.999899
20
201.998972
30
0
11
99.999899
21
201.998972
31
0
  0
SPLINE
  5
43
  8
0
 62
256
370
-1
  6
ByLayer
100
AcDbEntity
100
AcDbSpline
 70
8
 71
3
 72
8
 73
4
 74
0
 40
0
 40
0
 40
0
 40
0
 40
1
 40
1
 40
1
 40
1
 10
99.999899
 20
201.998972
 30
0
 10
103.409852
 20
203.002425
 30
0
 10
105.516719
 20
206.284549
 30
0
 10
105.009971
 20
209.803771
 30
0
  0
SPLINE
  5
43
  8
0
 62
256
370
-1
  6
ByLayer
100
AcDbEntity
100
AcDbSpline
 70
8
 71
3
 72
8
 73
4
 74
0
 40
0
 40
0
 40
0
 40
0
 40
1
 40
1
 40
1
 40
1
 10
105.009971
 20
209.803771
 30
0
 10
104.503223
 20
213.322994
 30
0
 10
101.556000
 20
215.876907
 30
0
 10
98.001555
 20
215.876907
 30
0
  0
SPLINE
  5
43
  8
0
 62
256
370
-1
  6
ByLayer
100
AcDbEntity
100
AcDbSpline
 70
8
 71
3
 72
8
 73
4
 74
0
 40
0
 40
0
 40
0
 40
0
 40
1
 40
1
 40
1
 40
1
 10
98.001555
 20
215.876907
 30
0
 10
94.447111
 20
215.876907
 30
0
 10
91.499887
 20
213.322994
 30
0
 10
90.993139
 20
209.803771
 30
0
  0
SPLINE
  5
43
  8
0
 62
256
370
-1
  6
ByLayer
100
AcDbEntity
100
AcDbSpline
 70
8
 71
3
 72
8
 73
4
 74
0
 40
0
 40
0
 40
0
 40
0
 40
1
 40
1
 40
1
 40
1
 10
90.993139
 20
209.803771
 30
0
 10
90.486391
 20
206.284549
 30
0
 10
92.593259
 20
203.002425
 30
0
 10
96.003212
 20
201.998972
 30
0
  0
SPLINE
  5
43
  8
0
 62
256
370
-1
  6
ByLayer
100
AcDbEntity
100
AcDbSpline
 70
8
 71
3
 72
8
 73
4
 74
0
 40
0
 40
0
 40
0
 40
0
 40
1
 40
1
 40
1
 40
1
 10
96.003212
 20
201.998972
 30
0
 10
92.593259
 20
200.995519
 30
0
 10
90.486391
 20
197.713396
 30
0
 10
90.993139
 20
194.194173
 30
0
  0
SPLINE
  5
43
  8
0
 62
256
370
-1
  6
ByLayer
100
AcDbEntity
100
AcDbSpline
 70
8
 71
3
 72
8
 73
4
 74
0
 40
0
 40
0
 40
0
 40
0
 40
1
 40
1
 40
1
 40
1
 10
90.993139
 20
194.194173
 30
0
 10
91.499887
 20
190.674951
 30
0
 10
94.447111
 20
188.121037
 30
0
 10
98.001555
 20
188.121037
 30
0
  0
SPLINE
  5
43
  8
0
 62
256
370
-1
  6
ByLayer
100
AcDbEntity
100
AcDbSpline
 70
8
 71
3
 72
8
 73
4
 74
0
 40
0
 40
0
 40
0
 40
0
 40
1
 40
1
 40
1
 40
1
 10
98.001555
 20
188.121037
 30
0
 10
101.556000
 20
188.121037
 30
0
 10
104.503223
 20
190.674951
 30
0
 10
105.009971
 20
194.194173
 30
0
  0
SPLINE
  5
43
  8
0
 62
256
370
-1
  6
ByLayer
100
AcDbEntity
100
AcDbSpline
 70
8
 71
3
 72
8
 73
4
 74
0
 40
0
 40
0
 40
0
 40
0
 40
1
 40
1
 40
1
 40
1
 10
105.009971
 20
194.194173
 30
0
 10
105.516719
 20
197.713396
 30
0
 10
103.409852
 20
200.995519
 30
0
 10
99.999899
 20
201.998972
 30
0
0
LINE
8
2
62
4
10
99.999899
20
201.998972
30
0
11
99.999899
21
201.998972
31
0
  0
SPLINE
  5
43
  8
0
 62
256
370
-1
  6
ByLayer
100
AcDbEntity
100
AcDbSpline
 70
8
 71
3
 72
8
 73
4
 74
0
 40
0
 40
0
 40
0
 40
0
 40
1
 40
1
 40
1
 40
1
 10
99.999899
 20
201.998972
 30
0
 10
103.409852
 20
203.002425
 30
0
 10
105.516719
 20
206.284549
 30
0
 10
105.009971
 20
209.803771
 30
0
  0
SPLINE
  5
43
  8
0
 62
256
370
-1
  6
ByLayer
100
AcDbEntity
100
AcDbSpline
 70
8
 71
3
 72
8
 73
4
 74
0
 40
0
 40
0
 40
0
 40
0
 40
1
 40
1
 40
1
 40
1
 10
105.009971
 20
209.803771
 30
0
 10
104.503223
 20
213.322994
 30
0
 10
101.556000
 20
215.876907
 30
0
 10
98.001555
 20
215.876907
 30
0
  0
SPLINE
  5
43
  8
0
 62
256
370
-1
  6
ByLayer
100
AcDbEntity
100
AcDbSpline
 70
8
 71
3
 72
8
 73
4
 74
0
 40
0
 40
0
 40
0
 40
0
 40
1
 40
1
 40
1
 40
1
 10
98.001555
 20
215.876907
 30
0
 10
94.447111
 20
215.876907
 30
0
 10
91.499887
 20
213.322994
 30
0
 10
90.993139
 20
209.803771
 30
0
  0
SPLINE
  5
43
  8
0
 62
256
370
-1
  6
ByLayer
100
AcDbEntity
100
AcDbSpline
 70
8
 71
3
 72
8
 73
4
 74
0
 40
0
 40
0
 40
0
 40
0
 40
1
 40
1
 40
1
 40
1
 10
90.993139
 20
209.803771
 30
0
 10
90.486391
 20
206.284549
 30
0
 10
92.593259
 20
203.002425
 30
0
 10
96.003212
 20
201.998972
 30
0
  0
SPLINE
  5
43
  8
0
 62
256
370
-1
  6
ByLayer
100
AcDbEntity
100
AcDbSpline
 70
8
 71
3
 72
8
 73
4
 74
0
 40
0
 40
0
 40
0
 40
0
 40
1
 40
1
 40
1
 40
1
 10
96.003212
 20
201.998972
 30
0
 10
92.593259
 20
200.995519
 30
0
 10
90.486391
 20
197.713396
 30
0
 10
90.993139
 20
194.194173
 30
0
  0
SPLINE
  5
43
  8
0
 62
256
370
-1
  6
ByLayer
100
AcDbEntity
100
AcDbSpline
 70
8
 71
3
 72
8
 73
4
 74
0
 40
0
 40
0
 40
0
 40
0
 40
1
 40
1
 40
1
 40
1
 10
90.993139
 20
194.194173
 30
0
 10
91.499887
 20
190.674951
 30
0
 10
94.447111
 20
188.121037
 30
0
 10
98.001555
 20
188.121037
 30
0
  0
SPLINE
  5
43
  8
0
 62
256
370
-1
  6
ByLayer
100
AcDbEntity
100
AcDbSpline
 70
8
 71
3
 72
8
 73
4
 74
0
 40
0
 40
0
 40
0
 40
0
 40
1
 40
1
 40
1
 40
1
 10
98.001555
 20
188.121037
 30
0
 10
101.556000
 20
188.121037
 30
0
 10
104.503223
 20
190.674951
 30
0
 10
105.009971
 20
194.194173
 30
0
  0
SPLINE
  5
43
  8
0
 62
256
370
-1
  6
ByLayer
100
AcDbEntity
100
AcDbSpline
 70
8
 71
3
 72
8
 73
4
 74
0
 40
0
 40
0
 40
0
 40
0
 40
1
 40
1
 40
1
 40
1
 10
105.009971
 20
194.194173
 30
0
 10
105.516719
 20
197.713396
 30
0
 10
103.409852
 20
200.995519
 30
0
 10
99.999899
 20
201.998972
 30
0
0
LINE
8
2
62
4
10
99.999899
20
201.998972
30
0
11
99.999899
21
201.998972
31
0
  0
SPLINE
  5
43
  8
0
 62
256
370
-1
  6
ByLayer
100
AcDbEntity
100
AcDbSpline
 70
8
 71
3
 72
8
 73
4
 74
0
 40
0
 40
0
 40
0
 40
0
 40
1
 40
1
 40
1
 40
1
 10
99.999899
 20
201.998972
 30
0
 10
103.409852
 20
203.002425
 30
0
 10
105.516719
 20
206.284549
 30
0
 10
105.009971
 20
209.803771
 30
0
  0
SPLINE
  5
43
  8
0
 62
256
370
-1
  6
ByLayer
100
AcDbEntity
100
AcDbSpline
 70
8
 71
3
 72
8
 73
4
 74
0
 40
0
 40
0
 40
0
 40
0
 40
1
 40
1
 40
1
 40
1
 10
105.009971
 20
209.803771
 30
0
 10
104.503223
 20
213.322994
 30
0
 10
101.556000
 20
215.876907
 30
0
 10
98.001555
 20
215.876907
 30
0
  0
SPLINE
  5
43
  8
0
 62
256
370
-1
  6
ByLayer
100
AcDbEntity
100
AcDbSpline
 70
8
 71
3
 72
8
 73
4
 74
0
 40
0
 40
0
 40
0
 40
0
 40
1
 40
1
 40
1
 40
1
 10
98.001555
 20
215.876907
 30
0
 10
94.447111
 20
215.876907
 30
0
 10
91.499887
 20
213.322994
 30
0
 10
90.993139
 20
209.803771
 30
0
  0
SPLINE
  5
43
  8
0
 62
256
370
-1
  6
ByLayer
100
AcDbEntity
100
AcDbSpline
 70
8
 71
3
 72
8
 73
4
 74
0
 40
0
 40
0
 40
0
 40
0
 40
1
 40
1
 40
1
 40
1
 10
90.993139
 20
209.803771
 30
0
 10
90.486391
 20
206.284549
 30
0
 10
92.593259
 20
203.002425
 30
0
 10
96.003212
 20
201.998972
 30
0
  0
SPLINE
  5
43
  8
0
 62
256
370
-1
  6
ByLayer
100
AcDbEntity
100
AcDbSpline
 70
8
 71
3
 72
8
 73
4
 74
0
 40
0
 40
0
 40
0
 40
0
 40
1
 40
1
 40
1
 40
1
 10
96.003212
 20
201.998972
 30
0
 10
92.593259
 20
200.995519
 30
0
 10
90.486391
 20
197.713396
 30
0
 10
90.993139
 20
194.194173
 30
0
  0
SPLINE
  5
43
  8
0
 62
256
370
-1
  6
ByLayer
100
AcDbEntity
100
AcDbSpline
 70
8
 71
3
 72
8
 73
4
 74
0
 40
0
 40
0
 40
0
 40
0
 40
1
 40
1
 40
1
 40
1
 10
90.993139
 20
194.194173
 30
0
 10
91.499887
 20
190.674951
 30
0
 10
94.447111
 20
188.121037
 30
0
 10
98.001555
 20
188.121037
 30
0
  0
SPLINE
  5
43
  8
0
 62
256
370
-1
  6
ByLayer
100
AcDbEntity
100
AcDbSpline
 70
8
 71
3
 72
8
 73
4
 74
0
 40
0
 40
0
 40
0
 40
0
 40
1
 40
1
 40
1
 40
1
 10
98.001555
 20
188.121037
 30
0
 10
101.556000
 20
188.121037
 30
0
 10
104.503223
 20
190.674951
 30
0
 10
105.009971
 20
194.194173
 30
0
  0
SPLINE
  5
43
  8
0
 62
256
370
-1
  6
ByLayer
100
AcDbEntity
100
AcDbSpline
 70
8
 71
3
 72
8
 73
4
 74
0
 40
0
 40
0
 40
0
 40
0
 40
1
 40
1
 40
1
 40
1
 10
105.009971
 20
194.194173
 30
0
 10
105.516719
 20
197.713396
 30
0
 10
103.409852
 20
200.995519
 30
0
 10
99.999899
 20
201.998972
 30
0
0
LINE
8
2
62
4
10
99.999899
20
201.998972
30
0
11
99.999899
21
201.998972
31
0
0
LINE
8
2
62
4
10
178.002847
20
204.000340
30
0
11
178.002847
21
193.999090
31
0
0
LINE
8
2
62
4
10
178.002847
20
193.999090
30
0
11
173.998819
21
193.999090
31
0
0
LINE
8
2
62
4
10
173.998819
20
193.999090
30
0
11
173.998819
21
183.997840
31
0
0
LINE
8
2
62
4
10
173.998819
20
183.997840
30
0
11
178.002847
21
183.997840
31
0
0
LINE
8
2
62
4
10
178.002847
20
183.997840
30
0
11
178.002847
21
173.996590
31
0
0
LINE
8
2
62
4
10
178.002847
20
173.996590
30
0
11
173.998819
21
173.996590
31
0
0
LINE
8
2
62
4
10
173.998819
20
173.996590
30
0
11
173.998819
21
163.995340
31
0
0
LINE
8
2
62
4
10
173.998819
20
163.995340
30
0
11
178.002847
21
163.995340
31
0
0
LINE
8
2
62
4
10
178.002847
20
163.995340
30
0
11
178.002847
21
160.000132
31
0
0
LINE
8
2
62
4
10
178.002847
20
160.000132
30
0
11
186.002083
21
160.000132
31
0
0
LINE
8
2
62
4
10
186.002083
20
160.000132
30
0
11
186.002083
21
155.996104
31
0
0
LINE
8
2
62
4
10
186.002083
20
155.996104
30
0
11
189.997292
21
155.996104
31
0
0
LINE
8
2
62
4
10
189.997292
20
155.996104
30
0
11
190.000001
21
167.000010
31
0
0
LINE
8
2
62
4
10
190.000001
20
167.000010
30
0
11
182.000000
21
167.000010
31
0
0
LINE
8
2
62
4
10
182.000000
20
167.000010
30
0
11
182.006875
21
181.995826
31
0
0
LINE
8
2
62
4
10
182.006875
20
181.995826
30
0
11
189.997292
21
181.995826
31
0
0
LINE
8
2
62
4
10
189.997292
20
181.995826
30
0
11
189.997292
21
204.000340
31
0
0
LINE
8
2
62
4
10
189.997292
20
204.000340
30
0
11
178.002847
21
204.000340
31
0
0
LINE
8
2
62
4
10
178.002847
20
204.000340
30
0
11
178.002847
21
204.000340
31
0
0
LINE
8
2
62
4
10
189.997292
20
204.000340
30
0
11
190.000001
21
186.000009
31
0
0
LINE
8
2
62
4
10
190.000001
20
186.000009
30
0
11
196.000000
21
186.000009
31
0
0
LINE
8
2
62
4
10
196.000000
20
186.000009
30
0
11
196.003333
21
167.999368
31
0
0
LINE
8
2
62
4
10
196.003333
20
167.999368
30
0
11
189.997292
21
167.999368
31
0
0
LINE
8
2
62
4
10
189.997292
20
167.999368
30
0
11
189.997292
21
160.000132
31
0
0
LINE
8
2
62
4
10
189.997292
20
160.000132
30
0
11
202.997153
21
160.000132
31
0
0
LINE
8
2
62
4
10
202.997153
20
160.000132
30
0
11
203.005972
21
163.995340
31
0
0
LINE
8
2
62
4
10
203.005972
20
163.995340
30
0
11
207.001181
21
163.995340
31
0
0
LINE
8
2
62
4
10
207.001181
20
163.995340
30
0
11
207.001181
21
173.996590
31
0
0
LINE
8
2
62
4
10
207.001181
20
173.996590
30
0
11
203.005972
21
173.996590
31
0
0
LINE
8
2
62
4
10
203.005972
20
173.996590
30
0
11
203.005972
21
183.997840
31
0
0
LINE
8
2
62
4
10
203.005972
20
183.997840
30
0
11
207.001181
21
183.997840
31
0
0
LINE
8
2
62
4
10
207.001181
20
183.997840
30
0
11
207.001181
21
193.999090
31
0
0
LINE
8
2
62
4
10
207.001181
20
193.999090
30
0
11
203.005972
21
193.999090
31
0
0
LINE
8
2
62
4
10
203.005972
20
193.999090
30
0
11
203.005972
21
204.000340
31
0
0
LINE
8
2
62
4
10
203.005972
20
204.000340
30
0
11
189.997292
21
204.000340
31
0
0
LINE
8
2
62
4
10
189.997292
20
204.000340
30
0
11
189.997292
21
204.000340
31
0
0
LINE
8
2
62
4
10
210.996389
20
204.000340
30
0
11
210.996389
21
193.999090
31
0
0
LINE
8
2
62
4
10
210.996389
20
193.999090
30
0
11
207.001181
21
193.999090
31
0
0
LINE
8
2
62
4
10
207.001181
20
193.999090
30
0
11
207.001181
21
183.997840
31
0
0
LINE
8
2
62
4
10
207.001181
20
183.997840
30
0
11
210.996389
21
183.997840
31
0
0
LINE
8
2
62
4
10
210.996389
20
183.997840
30
0
11
210.996389
21
173.996590
31
0
0
LINE
8
2
62
4
10
210.996389
20
173.996590
30
0
11
206.974722
21
173.996590
31
0
0
LINE
8
2
62
4
10
206.974722
20
173.996590
30
0
11
207.001181
21
163.995340
31
0
0
LINE
8
2
62
4
10
207.001181
20
163.995340
30
0
11
210.996389
21
163.995340
31
0
0
LINE
8
2
62
4
10
210.996389
20
163.995340
30
0
11
210.996389
21
160.000132
31
0
0
LINE
8
2
62
4
10
210.996389
20
160.000132
30
0
11
222.999653
21
160.000132
31
0
0
LINE
8
2
62
4
10
222.999653
20
160.000132
30
0
11
222.999653
21
173.996590
31
0
0
LINE
8
2
62
4
10
222.999653
20
173.996590
30
0
11
217.999028
21
173.996590
31
0
0
LINE
8
2
62
4
10
217.999028
20
173.996590
30
0
11
217.999999
21
190.000009
31
0
0
LINE
8
2
62
4
10
217.999999
20
190.000009
30
0
11
223.000784
21
190.000009
31
0
0
LINE
8
2
62
4
10
223.000784
20
190.000009
30
0
11
222.999653
21
204.000340
31
0
0
LINE
8
2
62
4
10
222.999653
20
204.000340
30
0
11
210.996389
21
204.000340
31
0
0
LINE
8
2
62
4
10
210.996389
20
204.000340
30
0
11
210.996389
21
204.000340
31
0
0
LINE
8
2
62
4
10
70.001189
20
119.000874
30
0
11
80.004960
21
119.000874
31
0
0
LINE
8
2
62
4
10
80.004960
20
119.000874
30
0
11
80.004960
21
122.995981
31
0
0
LINE
8
2
62
4
10
80.004960
20
122.995981
30
0
11
90.008730
21
122.995981
31
0
0
LINE
8
2
62
4
10
90.008730
20
122.995981
30
0
11
90.008730
21
119.000874
31
0
0
LINE
8
2
62
4
10
90.008730
20
119.000874
30
0
11
99.999902
21
119.000874
31
0
0
LINE
8
2
62
4
10
99.999902
20
119.000874
30
0
11
99.999902
21
106.004447
31
0
0
LINE
8
2
62
4
10
99.999902
20
106.004447
30
0
11
96.003214
21
106.004447
31
0
0
LINE
8
2
62
4
10
96.003214
20
106.004447
30
0
11
96.003214
21
102.000750
31
0
0
LINE
8
2
62
4
10
96.003214
20
102.000750
30
0
11
99.999902
21
102.000750
31
0
0
LINE
8
2
62
4
10
99.999902
20
102.000750
30
0
11
99.999902
21
93.997647
31
0
0
LINE
8
2
62
4
10
99.999902
20
93.997647
30
0
11
90.008730
21
93.997647
31
0
0
LINE
8
2
62
4
10
90.008730
20
93.997647
30
0
11
90.008730
21
90.002439
31
0
0
LINE
8
2
62
4
10
90.008730
20
90.002439
30
0
11
80.004960
21
90.002439
31
0
0
LINE
8
2
62
4
10
80.004960
20
90.002439
30
0
11
80.004960
21
93.997647
31
0
0
LINE
8
2
62
4
10
80.004960
20
93.997647
30
0
11
70.001189
21
93.997647
31
0
0
LINE
8
2
62
4
10
70.001189
20
93.997647
30
0
11
70.001189
21
90.002439
31
0
0
LINE
8
2
62
4
10
70.001189
20
90.002439
30
0
11
59.997422
21
90.002439
31
0
0
LINE
8
2
62
4
10
59.997422
20
90.002439
30
0
11
59.997422
21
93.997647
31
0
0
LINE
8
2
62
4
10
59.997422
20
93.997647
30
0
11
46.001539
21
93.997647
31
0
0
LINE
8
2
62
4
10
46.001539
20
93.997647
30
0
11
46.001539
21
102.000750
31
0
0
LINE
8
2
62
4
10
46.001539
20
102.000750
30
0
11
49.997219
21
102.000750
31
0
0
LINE
8
2
62
4
10
49.997219
20
102.000750
30
0
11
49.997219
21
106.004447
31
0
0
LINE
8
2
62
4
10
49.997219
20
106.004447
30
0
11
46.001539
21
106.000011
31
0
0
LINE
8
2
62
4
10
46.001539
20
106.000011
30
0
11
46.000001
21
119.000874
31
0
0
LINE
8
2
62
4
10
46.000001
20
119.000874
30
0
11
59.997422
21
119.000874
31
0
0
LINE
8
2
62
4
10
59.997422
20
119.000874
30
0
11
59.997422
21
122.995981
31
0
0
LINE
8
2
62
4
10
59.997422
20
122.995981
30
0
11
70.001189
21
122.995981
31
0
0
LINE
8
2
62
4
10
70.001189
20
122.995981
30
0
11
70.001189
21
119.000874
31
0
0
LINE
8
2
62
4
10
70.001189
20
119.000874
30
0
11
70.001189
21
119.000874
31
0
0
LINE
8
2
62
4
10
60.999999
20
98.000010
30
0
11
60.999999
21
115.000010
31
0
0
LINE
8
2
62
4
10
60.999999
20
115.000010
30
0
11
73.000001
21
115.000010
31
0
0
LINE
8
2
62
4
10
73.000001
20
115.000010
30
0
11
73.000001
21
98.000010
31
0
0
LINE
8
2
62
4
10
73.000001
20
98.000010
30
0
11
60.999999
21
98.000010
31
0
0
LINE
8
2
62
4
10
60.999999
20
98.000010
30
0
11
60.999999
21
98.000010
31
0
0
LINE
8
2
62
4
10
75.000000
20
98.000010
30
0
11
75.000000
21
112.000010
31
0
0
LINE
8
2
62
4
10
75.000000
20
112.000010
30
0
11
87.999999
21
112.000010
31
0
0
LINE
8
2
62
4
10
87.999999
20
112.000010
30
0
11
87.999999
21
97.997052
31
0
0
LINE
8
2
62
4
10
87.999999
20
97.997052
30
0
11
75.000000
21
98.000010
31
0
0
LINE
8
2
62
4
10
75.000000
20
98.000010
30
0
11
75.000000
21
98.000010
31
0
0
LINE
8
2
62
4
10
49.997219
20
152.003133
30
0
11
59.997422
21
152.003133
31
0
0
LINE
8
2
62
4
10
59.997422
20
152.003133
30
0
11
60.000001
21
155.999665
31
0
0
LINE
8
2
62
4
10
60.000001
20
155.999665
30
0
11
70.000001
21
155.999665
31
0
0
LINE
8
2
62
4
10
70.000001
20
155.999665
30
0
11
70.001189
21
152.000009
31
0
0
LINE
8
2
62
4
10
70.001189
20
152.000009
30
0
11
80.004960
21
152.003133
31
0
0
LINE
8
2
62
4
10
80.004960
20
152.003133
30
0
11
80.000001
21
155.999665
31
0
0
LINE
8
2
62
4
10
80.000001
20
155.999665
30
0
11
90.008730
21
155.999665
31
0
0
LINE
8
2
62
4
10
90.008730
20
155.999665
30
0
11
90.008730
21
152.000009
31
0
0
LINE
8
2
62
4
10
90.008730
20
152.000009
30
0
11
96.003214
21
152.000009
31
0
0
LINE
8
2
62
4
10
96.003214
20
152.000009
30
0
11
96.003214
21
126.995798
31
0
0
LINE
8
2
62
4
10
96.003214
20
126.995798
30
0
11
90.008730
21
126.995798
31
0
0
LINE
8
2
62
4
10
90.008730
20
126.995798
30
0
11
90.008730
21
122.995981
31
0
0
LINE
8
2
62
4
10
90.008730
20
122.995981
30
0
11
80.000001
21
122.995981
31
0
0
LINE
8
2
62
4
10
80.000001
20
122.995981
30
0
11
80.004960
21
126.995798
31
0
0
LINE
8
2
62
4
10
80.004960
20
126.995798
30
0
11
70.001189
21
126.995798
31
0
0
LINE
8
2
62
4
10
70.001189
20
126.995798
30
0
11
70.001189
21
122.995981
31
0
0
LINE
8
2
62
4
10
70.001189
20
122.995981
30
0
11
59.997422
21
122.995981
31
0
0
LINE
8
2
62
4
10
59.997422
20
122.995981
30
0
11
59.997422
21
126.995798
31
0
0
LINE
8
2
62
4
10
59.997422
20
126.995798
30
0
11
49.997219
21
126.995798
31
0
0
LINE
8
2
62
4
10
49.997219
20
126.995798
30
0
11
49.997219
21
152.003133
31
0
0
LINE
8
2
62
4
10
49.997219
20
152.003133
30
0
11
49.997219
21
152.003133
31
0
0
LINE
8
2
62
4
10
60.999999
20
148.000009
30
0
11
60.999999
21
134.000009
31
0
0
LINE
8
2
62
4
10
60.999999
20
134.000009
30
0
11
84.000001
21
134.000009
31
0
0
LINE
8
2
62
4
10
84.000001
20
134.000009
30
0
11
84.000001
21
148.000009
31
0
0
LINE
8
2
62
4
10
84.000001
20
148.000009
30
0
11
60.999999
21
148.000009
31
0
0
LINE
8
2
62
4
10
60.999999
20
148.000009
30
0
11
60.999999
21
148.000009
31
0
0
LINE
8
2
62
4
10
89.000000
20
132.000013
30
0
11
91.999999
21
132.000013
31
0
0
LINE
8
2
62
4
10
91.999999
20
132.000013
30
0
11
91.999999
21
130.000011
31
0
0
LINE
8
2
62
4
10
91.999999
20
130.000011
30
0
11
89.000000
21
130.000011
31
0
0
LINE
8
2
62
4
10
89.000000
20
130.000011
30
0
11
89.000000
21
132.000013
31
0
0
LINE
8
2
62
4
10
89.000000
20
132.000013
30
0
11
89.000000
21
132.000013
31
0
0
LINE
8
2
62
4
10
53.999999
20
132.000013
30
0
11
56.999999
21
132.000013
31
0
0
LINE
8
2
62
4
10
56.999999
20
132.000013
30
0
11
56.999999
21
130.000011
31
0
0
LINE
8
2
62
4
10
56.999999
20
130.000011
30
0
11
53.999999
21
130.000011
31
0
0
LINE
8
2
62
4
10
53.999999
20
130.000011
30
0
11
53.999999
21
132.000013
31
0
0
LINE
8
2
62
4
10
53.999999
20
132.000013
30
0
11
53.999999
21
132.000013
31
0
0
LINE
8
2
62
4
10
120.004019
20
203.997930
30
0
11
133.991124
21
203.997930
31
0
0
LINE
8
2
62
4
10
133.991124
20
203.997930
30
0
11
133.991124
21
199.999654
31
0
0
LINE
8
2
62
4
10
133.991124
20
199.999654
30
0
11
144.000000
21
199.999654
31
0
0
LINE
8
2
62
4
10
144.000000
20
199.999654
30
0
11
143.995913
21
203.997930
31
0
0
LINE
8
2
62
4
10
143.995913
20
203.997930
30
0
11
154.000702
21
203.997930
31
0
0
LINE
8
2
62
4
10
154.000702
20
203.997930
30
0
11
154.000702
21
199.999654
31
0
0
LINE
8
2
62
4
10
154.000702
20
199.999654
30
0
11
163.996582
21
199.999654
31
0
0
LINE
8
2
62
4
10
163.996582
20
199.999654
30
0
11
163.996582
21
204.000010
31
0
0
LINE
8
2
62
4
10
163.996582
20
204.000010
30
0
11
174.001371
21
203.997930
31
0
0
LINE
8
2
62
4
10
174.001371
20
203.997930
30
0
11
174.001371
21
194.002050
31
0
0
LINE
8
2
62
4
10
174.001371
20
194.002050
30
0
11
170.001238
21
194.002050
31
0
0
LINE
8
2
62
4
10
170.001238
20
194.002050
30
0
11
170.001238
21
183.997261
31
0
0
LINE
8
2
62
4
10
170.001238
20
183.997261
30
0
11
174.001371
21
183.997261
31
0
0
LINE
8
2
62
4
10
174.001371
20
183.997261
30
0
11
173.999999
21
173.995049
31
0
0
LINE
8
2
62
4
10
173.999999
20
173.995049
30
0
11
169.999999
21
173.995049
31
0
0
LINE
8
2
62
4
10
169.999999
20
173.995049
30
0
11
170.001238
21
163.997578
31
0
0
LINE
8
2
62
4
10
170.001238
20
163.997578
30
0
11
174.001371
21
163.997578
31
0
0
LINE
8
2
62
4
10
174.001371
20
163.997578
30
0
11
174.001371
21
155.999665
31
0
0
LINE
8
2
62
4
10
174.001371
20
155.999665
30
0
11
163.996582
21
155.999665
31
0
0
LINE
8
2
62
4
10
163.996582
20
155.999665
30
0
11
163.996582
21
160.000010
31
0
0
LINE
8
2
62
4
10
163.996582
20
160.000010
30
0
11
154.000702
21
159.997329
31
0
0
LINE
8
2
62
4
10
154.000702
20
159.997329
30
0
11
154.000702
21
155.999665
31
0
0
LINE
8
2
62
4
10
154.000702
20
155.999665
30
0
11
143.995913
21
155.999665
31
0
0
LINE
8
2
62
4
10
143.995913
20
155.999665
30
0
11
143.995913
21
159.997329
31
0
0
LINE
8
2
62
4
10
143.995913
20
159.997329
30
0
11
133.991124
21
159.997329
31
0
0
LINE
8
2
62
4
10
133.991124
20
159.997329
30
0
11
133.991124
21
156.000010
31
0
0
LINE
8
2
62
4
10
133.991124
20
156.000010
30
0
11
120.004019
21
155.999665
31
0
0
LINE
8
2
62
4
10
120.004019
20
155.999665
30
0
11
120.000000
21
163.997578
31
0
0
LINE
8
2
62
4
10
120.000000
20
163.997578
30
0
11
124.001389
21
163.997578
31
0
0
LINE
8
2
62
4
10
124.001389
20
163.997578
30
0
11
124.001389
21
173.995049
31
0
0
LINE
8
2
62
4
10
124.001389
20
173.995049
30
0
11
120.000000
21
173.995049
31
0
0
LINE
8
2
62
4
10
120.000000
20
173.995049
30
0
11
120.004019
21
183.997261
31
0
0
LINE
8
2
62
4
10
120.004019
20
183.997261
30
0
11
124.001389
21
183.997261
31
0
0
LINE
8
2
62
4
10
124.001389
20
183.997261
30
0
11
124.001389
21
194.000010
31
0
0
LINE
8
2
62
4
10
124.001389
20
194.000010
30
0
11
120.004019
21
194.002050
31
0
0
LINE
8
2
62
4
10
120.004019
20
194.002050
30
0
11
120.004019
21
199.999654
31
0
0
LINE
8
2
62
4
10
120.004019
20
199.999654
30
0
11
120.004019
21
203.997930
31
0
0
LINE
8
2
62
4
10
120.004019
20
203.997930
30
0
11
120.004019
21
203.997930
31
0
0
LINE
8
2
62
4
10
163.000001
20
197.000010
30
0
11
166.000001
21
197.000010
31
0
0
LINE
8
2
62
4
10
166.000001
20
197.000010
30
0
11
166.000001
21
195.000008
31
0
0
LINE
8
2
62
4
10
166.000001
20
195.000008
30
0
11
163.000001
21
195.000008
31
0
0
LINE
8
2
62
4
10
163.000001
20
195.000008
30
0
11
163.000001
21
197.000010
31
0
0
LINE
8
2
62
4
10
163.000001
20
197.000010
30
0
11
163.000001
21
197.000010
31
0
0
LINE
8
2
62
4
10
128.000001
20
197.000010
30
0
11
131.000000
21
197.000010
31
0
0
LINE
8
2
62
4
10
131.000000
20
197.000010
30
0
11
131.000000
21
195.000008
31
0
0
LINE
8
2
62
4
10
131.000000
20
195.000008
30
0
11
128.000001
21
195.000008
31
0
0
LINE
8
2
62
4
10
128.000001
20
195.000008
30
0
11
128.000001
21
197.000010
31
0
0
LINE
8
2
62
4
10
128.000001
20
197.000010
30
0
11
128.000001
21
197.000010
31
0
0
LINE
8
2
62
4
10
223.003912
20
204.000340
30
0
11
223.003912
21
185.999854
31
0
0
LINE
8
2
62
4
10
223.003912
20
185.999854
30
0
11
231.990925
21
185.999854
31
0
0
LINE
8
2
62
4
10
231.990925
20
185.999854
30
0
11
231.999999
21
173.000010
31
0
0
LINE
8
2
62
4
10
231.999999
20
173.000010
30
0
11
223.000784
21
173.000010
31
0
0
LINE
8
2
62
4
10
223.000784
20
173.000010
30
0
11
223.003912
21
156.004923
31
0
0
LINE
8
2
62
4
10
223.003912
20
156.004923
30
0
11
226.999120
21
156.004923
31
0
0
LINE
8
2
62
4
10
226.999120
20
156.004923
30
0
11
226.999120
21
160.000132
31
0
0
LINE
8
2
62
4
10
226.999120
20
160.000132
30
0
11
235.994953
21
160.000132
31
0
0
LINE
8
2
62
4
10
235.994953
20
160.000132
30
0
11
235.994953
21
163.995340
31
0
0
LINE
8
2
62
4
10
235.994953
20
163.995340
30
0
11
239.998981
21
163.995340
31
0
0
LINE
8
2
62
4
10
239.998981
20
163.995340
30
0
11
239.998981
21
174.005409
31
0
0
LINE
8
2
62
4
10
239.998981
20
174.005409
30
0
11
235.994953
21
173.996590
31
0
0
LINE
8
2
62
4
10
235.994953
20
173.996590
30
0
11
235.994953
21
183.997840
31
0
0
LINE
8
2
62
4
10
235.994953
20
183.997840
30
0
11
239.998981
21
183.997840
31
0
0
LINE
8
2
62
4
10
239.998981
20
183.997840
30
0
11
239.998981
21
193.999090
31
0
0
LINE
8
2
62
4
10
239.998981
20
193.999090
30
0
11
235.994953
21
193.999090
31
0
0
LINE
8
2
62
4
10
235.994953
20
193.999090
30
0
11
235.994953
21
204.000340
31
0
0
LINE
8
2
62
4
10
235.994953
20
204.000340
30
0
11
223.003912
21
204.000340
31
0
0
LINE
8
2
62
4
10
223.003912
20
204.000340
30
0
11
223.003912
21
204.000340
31
0
0
ENDSEC
0
EOF

