  0
SECTION
  2
HEADER
  9
$ACADVER
  1
AC1009
  9
$EXTMIN
 10
0.0
 20
0.0
 30
0.0
  9
$EXTMAX
 10
1000.0
 20
1000.0
 30
0.0
  9
$FILLMODE
 70
 0
  9
$SPLFRAME
 70
 1
  0
ENDSEC
  0
SECTION
  2
TABLES
  0
TABLE
  2
LAYER
 70
1
  0
LAYER
  2
0
 70
     0
 62
     7
  6
CONTINUOUS
  0
ENDTAB
  0
ENDSEC
  0
SECTION
  2
ENTITIES
  0
POLYLINE
  8
0
 62
     0
 66
     1
 10
0
 20
0
 30
0.0
 70
     1
 40
0.8
 41
0.8
  0
VERTEX
  8
0
 10
3.77951
 20
1.02382
 30
0.0
 40
0.0111111
 41
0.0111111
  0
VERTEX
  8
0
 10
3.77962
 20
2.36208
 30
0.0
 40
0.0111111
 41
0.0111111
  0
VERTEX
  8
0
 10
3.93701
 20
2.36208
 30
0.0
 40
0.0111111
 41
0.0111111
  0
VERTEX
  8
0
 10
3.93701
 20
2.75597
 30
0.0
 40
0.0111111
 41
0.0111111
  0
VERTEX
  8
0
 10
3.77962
 20
2.75597
 30
0.0
 40
0.0111111
 41
0.0111111
  0
VERTEX
  8
0
 10
3.77962
 20
3.14979
 30
0.0
 40
0.0111111
 41
0.0111111
  0
VERTEX
  8
0
 10
3.93701
 20
3.14979
 30
0.0
 40
0.0111111
 41
0.0111111
  0
VERTEX
  8
0
 10
3.93701
 20
3.54329
 30
0.0
 40
0.0111111
 41
0.0111111
  0
VERTEX
  8
0
 10
3.77962
 20
3.54368
 30
0.0
 40
0.0111111
 41
0.0111111
  0
VERTEX
  8
0
 10
3.77962
 20
4.72456
 30
0.0
 40
0.0111111
 41
0.0111111
  0
VERTEX
  8
0
 10
5.66932
 20
4.72456
 30
0.0
 40
0.0111111
 41
0.0111111
  0
VERTEX
  8
0
 10
5.66932
 20
3.54368
 30
0.0
 40
0.0111111
 41
0.0111111
  0
VERTEX
  8
0
 10
5.51193
 20
3.54368
 30
0.0
 40
0.0111111
 41
0.0111111
  0
VERTEX
  8
0
 10
5.51193
 20
3.14979
 30
0.0
 40
0.0111111
 41
0.0111111
  0
VERTEX
  8
0
 10
5.66932
 20
3.14979
 30
0.0
 40
0.0111111
 41
0.0111111
  0
VERTEX
  8
0
 10
5.66932
 20
2.75597
 30
0.0
 40
0.0111111
 41
0.0111111
  0
VERTEX
  8
0
 10
5.51193
 20
2.75597
 30
0.0
 40
0.0111111
 41
0.0111111
  0
VERTEX
  8
0
 10
5.51193
 20
2.36208
 30
0.0
 40
0.0111111
 41
0.0111111
  0
VERTEX
  8
0
 10
5.66932
 20
2.36208
 30
0.0
 40
0.0111111
 41
0.0111111
  0
VERTEX
  8
0
 10
5.66932
 20
1.02382
 30
0.0
 40
0.0111111
 41
0.0111111
  0
VERTEX
  8
0
 10
3.77951
 20
1.02382
 30
0.0
 40
0.0111111
 41
0.0111111
  0
SEQEND
 8
0
  0
POLYLINE
  8
0
 62
     0
 66
     1
 10
0
 20
0
 30
0.0
 70
     1
 40
0.8
 41
0.8
  0
VERTEX
  8
0
 10
4.17312
 20
3.77968
 30
0.0
 40
0.0111111
 41
0.0111111
  0
VERTEX
  8
0
 10
4.17312
 20
3.93701
 30
0.0
 40
0.0111111
 41
0.0111111
  0
VERTEX
  8
0
 10
4.56694
 20
3.93701
 30
0.0
 40
0.0111111
 41
0.0111111
  0
VERTEX
  8
0
 10
4.56706
 20
3.77968
 30
0.0
 40
0.0111111
 41
0.0111111
  0
VERTEX
  8
0
 10
4.17312
 20
3.77968
 30
0.0
 40
0.0111111
 41
0.0111111
  0
SEQEND
 8
0
  0
POLYLINE
  8
0
 62
     0
 66
     1
 10
0
 20
0
 30
0.0
 70
     1
 40
0.8
 41
0.8
  0
VERTEX
  8
0
 10
4.96083
 20
3.77968
 30
0.0
 40
0.0111111
 41
0.0111111
  0
VERTEX
  8
0
 10
4.96083
 20
3.93701
 30
0.0
 40
0.0111111
 41
0.0111111
  0
VERTEX
  8
0
 10
5.35444
 20
3.93701
 30
0.0
 40
0.0111111
 41
0.0111111
  0
VERTEX
  8
0
 10
5.35444
 20
3.77968
 30
0.0
 40
0.0111111
 41
0.0111111
  0
VERTEX
  8
0
 10
4.96083
 20
3.77968
 30
0.0
 40
0.0111111
 41
0.0111111
  0
SEQEND
 8
0
  0
POLYLINE
  8
0
 62
     0
 66
     1
 10
0
 20
0
 30
0.0
 70
     1
 40
0.8
 41
0.8
  0
VERTEX
  8
0
 10
4.96083
 20
1.81104
 30
0.0
 40
0.0111111
 41
0.0111111
  0
VERTEX
  8
0
 10
4.96083
 20
1.96838
 30
0.0
 40
0.0111111
 41
0.0111111
  0
VERTEX
  8
0
 10
5.35444
 20
1.96838
 30
0.0
 40
0.0111111
 41
0.0111111
  0
VERTEX
  8
0
 10
5.35433
 20
1.81108
 30
0.0
 40
0.0111111
 41
0.0111111
  0
VERTEX
  8
0
 10
4.96083
 20
1.81104
 30
0.0
 40
0.0111111
 41
0.0111111
  0
SEQEND
 8
0
  0
POLYLINE
  8
0
 62
     0
 66
     1
 10
0
 20
0
 30
0.0
 70
     1
 40
0.8
 41
0.8
  0
VERTEX
  8
0
 10
4.56706
 20
1.81108
 30
0.0
 40
0.0111111
 41
0.0111111
  0
VERTEX
  8
0
 10
4.56706
 20
1.96838
 30
0.0
 40
0.0111111
 41
0.0111111
  0
VERTEX
  8
0
 10
4.17312
 20
1.96838
 30
0.0
 40
0.0111111
 41
0.0111111
  0
VERTEX
  8
0
 10
4.17312
 20
1.81104
 30
0.0
 40
0.0111111
 41
0.0111111
  0
VERTEX
  8
0
 10
4.56706
 20
1.81108
 30
0.0
 40
0.0111111
 41
0.0111111
  0
SEQEND
 8
0
  0
POLYLINE
  8
0
 62
     7
 66
     1
 10
0
 20
0
 30
0.0
 70
     1
 40
0
 41
0
  0
VERTEX
  8
0
 10
4.17312
 20
4.40929
 30
0.0
 40
0
 41
0
  0
VERTEX
  8
0
 10
4.20372
 20
4.4031
 30
0.0
 40
0
 41
0
  0
VERTEX
  8
0
 10
4.22874
 20
4.38624
 30
0.0
 40
0
 41
0
  0
VERTEX
  8
0
 10
4.24561
 20
4.36128
 30
0.0
 40
0
 41
0
  0
VERTEX
  8
0
 10
4.25185
 20
4.33062
 30
0.0
 40
0
 41
0
  0
VERTEX
  8
0
 10
4.24561
 20
4.30003
 30
0.0
 40
0
 41
0
  0
VERTEX
  8
0
 10
4.22874
 20
4.27501
 30
0.0
 40
0
 41
0
  0
VERTEX
  8
0
 10
4.20372
 20
4.25814
 30
0.0
 40
0
 41
0
  0
VERTEX
  8
0
 10
4.17312
 20
4.25196
 30
0.0
 40
0
 41
0
  0
VERTEX
  8
0
 10
4.14247
 20
4.25814
 30
0.0
 40
0
 41
0
  0
VERTEX
  8
0
 10
4.11751
 20
4.27501
 30
0.0
 40
0
 41
0
  0
VERTEX
  8
0
 10
4.10064
 20
4.30003
 30
0.0
 40
0
 41
0
  0
VERTEX
  8
0
 10
4.09446
 20
4.33062
 30
0.0
 40
0
 41
0
  0
VERTEX
  8
0
 10
4.10064
 20
4.36128
 30
0.0
 40
0
 41
0
  0
VERTEX
  8
0
 10
4.11751
 20
4.38624
 30
0.0
 40
0
 41
0
  0
VERTEX
  8
0
 10
4.14247
 20
4.4031
 30
0.0
 40
0
 41
0
  0
VERTEX
  8
0
 10
4.17312
 20
4.40929
 30
0.0
 40
0
 41
0
  0
SEQEND
 8
0
  0
POLYLINE
  8
0
 62
     0
 66
     1
 10
0
 20
0
 30
0.0
 70
     1
 40
0.8
 41
0.8
  0
VERTEX
  8
0
 10
4.17312
 20
4.40929
 30
0.0
 40
0.0111111
 41
0.0111111
  0
VERTEX
  8
0
 10
4.20372
 20
4.4031
 30
0.0
 40
0.0111111
 41
0.0111111
  0
VERTEX
  8
0
 10
4.22874
 20
4.38624
 30
0.0
 40
0.0111111
 41
0.0111111
  0
VERTEX
  8
0
 10
4.24561
 20
4.36128
 30
0.0
 40
0.0111111
 41
0.0111111
  0
VERTEX
  8
0
 10
4.25185
 20
4.33062
 30
0.0
 40
0.0111111
 41
0.0111111
  0
VERTEX
  8
0
 10
4.24561
 20
4.30003
 30
0.0
 40
0.0111111
 41
0.0111111
  0
VERTEX
  8
0
 10
4.22874
 20
4.27501
 30
0.0
 40
0.0111111
 41
0.0111111
  0
VERTEX
  8
0
 10
4.20372
 20
4.25814
 30
0.0
 40
0.0111111
 41
0.0111111
  0
VERTEX
  8
0
 10
4.17312
 20
4.25196
 30
0.0
 40
0.0111111
 41
0.0111111
  0
VERTEX
  8
0
 10
4.14247
 20
4.25814
 30
0.0
 40
0.0111111
 41
0.0111111
  0
VERTEX
  8
0
 10
4.11751
 20
4.27501
 30
0.0
 40
0.0111111
 41
0.0111111
  0
VERTEX
  8
0
 10
4.10064
 20
4.30003
 30
0.0
 40
0.0111111
 41
0.0111111
  0
VERTEX
  8
0
 10
4.09446
 20
4.33062
 30
0.0
 40
0.0111111
 41
0.0111111
  0
VERTEX
  8
0
 10
4.10064
 20
4.36128
 30
0.0
 40
0.0111111
 41
0.0111111
  0
VERTEX
  8
0
 10
4.11751
 20
4.38624
 30
0.0
 40
0.0111111
 41
0.0111111
  0
VERTEX
  8
0
 10
4.14247
 20
4.4031
 30
0.0
 40
0.0111111
 41
0.0111111
  0
VERTEX
  8
0
 10
4.17312
 20
4.40929
 30
0.0
 40
0.0111111
 41
0.0111111
  0
SEQEND
 8
0
  0
POLYLINE
  8
0
 62
     7
 66
     1
 10
0
 20
0
 30
0.0
 70
     1
 40
0
 41
0
  0
VERTEX
  8
0
 10
5.35444
 20
4.40929
 30
0.0
 40
0
 41
0
  0
VERTEX
  8
0
 10
5.38504
 20
4.4031
 30
0.0
 40
0
 41
0
  0
VERTEX
  8
0
 10
5.41004
 20
4.38624
 30
0.0
 40
0
 41
0
  0
VERTEX
  8
0
 10
5.42686
 20
4.36128
 30
0.0
 40
0
 41
0
  0
VERTEX
  8
0
 10
5.43311
 20
4.33062
 30
0.0
 40
0
 41
0
  0
VERTEX
  8
0
 10
5.42686
 20
4.30003
 30
0.0
 40
0
 41
0
  0
VERTEX
  8
0
 10
5.41004
 20
4.27501
 30
0.0
 40
0
 41
0
  0
VERTEX
  8
0
 10
5.38504
 20
4.25814
 30
0.0
 40
0
 41
0
  0
VERTEX
  8
0
 10
5.35444
 20
4.25196
 30
0.0
 40
0
 41
0
  0
VERTEX
  8
0
 10
5.32378
 20
4.25814
 30
0.0
 40
0
 41
0
  0
VERTEX
  8
0
 10
5.29878
 20
4.27501
 30
0.0
 40
0
 41
0
  0
VERTEX
  8
0
 10
5.2819
 20
4.30003
 30
0.0
 40
0
 41
0
  0
VERTEX
  8
0
 10
5.27572
 20
4.33062
 30
0.0
 40
0
 41
0
  0
VERTEX
  8
0
 10
5.2819
 20
4.36128
 30
0.0
 40
0
 41
0
  0
VERTEX
  8
0
 10
5.29878
 20
4.38624
 30
0.0
 40
0
 41
0
  0
VERTEX
  8
0
 10
5.32378
 20
4.4031
 30
0.0
 40
0
 41
0
  0
VERTEX
  8
0
 10
5.35444
 20
4.40929
 30
0.0
 40
0
 41
0
  0
SEQEND
 8
0
  0
POLYLINE
  8
0
 62
     0
 66
     1
 10
0
 20
0
 30
0.0
 70
     1
 40
0.8
 41
0.8
  0
VERTEX
  8
0
 10
5.35444
 20
4.40929
 30
0.0
 40
0.0111111
 41
0.0111111
  0
VERTEX
  8
0
 10
5.38504
 20
4.4031
 30
0.0
 40
0.0111111
 41
0.0111111
  0
VERTEX
  8
0
 10
5.41004
 20
4.38624
 30
0.0
 40
0.0111111
 41
0.0111111
  0
VERTEX
  8
0
 10
5.42686
 20
4.36128
 30
0.0
 40
0.0111111
 41
0.0111111
  0
VERTEX
  8
0
 10
5.43311
 20
4.33062
 30
0.0
 40
0.0111111
 41
0.0111111
  0
VERTEX
  8
0
 10
5.42686
 20
4.30003
 30
0.0
 40
0.0111111
 41
0.0111111
  0
VERTEX
  8
0
 10
5.41004
 20
4.27501
 30
0.0
 40
0.0111111
 41
0.0111111
  0
VERTEX
  8
0
 10
5.38504
 20
4.25814
 30
0.0
 40
0.0111111
 41
0.0111111
  0
VERTEX
  8
0
 10
5.35444
 20
4.25196
 30
0.0
 40
0.0111111
 41
0.0111111
  0
VERTEX
  8
0
 10
5.32378
 20
4.25814
 30
0.0
 40
0.0111111
 41
0.0111111
  0
VERTEX
  8
0
 10
5.29878
 20
4.27501
 30
0.0
 40
0.0111111
 41
0.0111111
  0
VERTEX
  8
0
 10
5.2819
 20
4.30003
 30
0.0
 40
0.0111111
 41
0.0111111
  0
VERTEX
  8
0
 10
5.27572
 20
4.33062
 30
0.0
 40
0.0111111
 41
0.0111111
  0
VERTEX
  8
0
 10
5.2819
 20
4.36128
 30
0.0
 40
0.0111111
 41
0.0111111
  0
VERTEX
  8
0
 10
5.29878
 20
4.38624
 30
0.0
 40
0.0111111
 41
0.0111111
  0
VERTEX
  8
0
 10
5.32378
 20
4.4031
 30
0.0
 40
0.0111111
 41
0.0111111
  0
VERTEX
  8
0
 10
5.35444
 20
4.40929
 30
0.0
 40
0.0111111
 41
0.0111111
  0
SEQEND
 8
0
  0
POLYLINE
  8
0
 62
     7
 66
     1
 10
0
 20
0
 30
0.0
 70
     1
 40
0
 41
0
  0
VERTEX
  8
0
 10
4.17312
 20
1.49599
 30
0.0
 40
0
 41
0
  0
VERTEX
  8
0
 10
4.20372
 20
1.48981
 30
0.0
 40
0
 41
0
  0
VERTEX
  8
0
 10
4.22874
 20
1.47293
 30
0.0
 40
0
 41
0
  0
VERTEX
  8
0
 10
4.24561
 20
1.44792
 30
0.0
 40
0
 41
0
  0
VERTEX
  8
0
 10
4.25185
 20
1.41726
 30
0.0
 40
0
 41
0
  0
VERTEX
  8
0
 10
4.24561
 20
1.38666
 30
0.0
 40
0
 41
0
  0
VERTEX
  8
0
 10
4.22874
 20
1.36165
 30
0.0
 40
0
 41
0
  0
VERTEX
  8
0
 10
4.20372
 20
1.34483
 30
0.0
 40
0
 41
0
  0
VERTEX
  8
0
 10
4.17312
 20
1.3386
 30
0.0
 40
0
 41
0
  0
VERTEX
  8
0
 10
4.14247
 20
1.34483
 30
0.0
 40
0
 41
0
  0
VERTEX
  8
0
 10
4.11751
 20
1.36165
 30
0.0
 40
0
 41
0
  0
VERTEX
  8
0
 10
4.10064
 20
1.38666
 30
0.0
 40
0
 41
0
  0
VERTEX
  8
0
 10
4.09446
 20
1.41726
 30
0.0
 40
0
 41
0
  0
VERTEX
  8
0
 10
4.10064
 20
1.44792
 30
0.0
 40
0
 41
0
  0
VERTEX
  8
0
 10
4.11751
 20
1.47293
 30
0.0
 40
0
 41
0
  0
VERTEX
  8
0
 10
4.14247
 20
1.48981
 30
0.0
 40
0
 41
0
  0
VERTEX
  8
0
 10
4.17312
 20
1.49599
 30
0.0
 40
0
 41
0
  0
SEQEND
 8
0
  0
POLYLINE
  8
0
 62
     0
 66
     1
 10
0
 20
0
 30
0.0
 70
     1
 40
0.8
 41
0.8
  0
VERTEX
  8
0
 10
4.17312
 20
1.49599
 30
0.0
 40
0.0111111
 41
0.0111111
  0
VERTEX
  8
0
 10
4.20372
 20
1.48981
 30
0.0
 40
0.0111111
 41
0.0111111
  0
VERTEX
  8
0
 10
4.22874
 20
1.47293
 30
0.0
 40
0.0111111
 41
0.0111111
  0
VERTEX
  8
0
 10
4.24561
 20
1.44792
 30
0.0
 40
0.0111111
 41
0.0111111
  0
VERTEX
  8
0
 10
4.25185
 20
1.41726
 30
0.0
 40
0.0111111
 41
0.0111111
  0
VERTEX
  8
0
 10
4.24561
 20
1.38666
 30
0.0
 40
0.0111111
 41
0.0111111
  0
VERTEX
  8
0
 10
4.22874
 20
1.36165
 30
0.0
 40
0.0111111
 41
0.0111111
  0
VERTEX
  8
0
 10
4.20372
 20
1.34483
 30
0.0
 40
0.0111111
 41
0.0111111
  0
VERTEX
  8
0
 10
4.17312
 20
1.3386
 30
0.0
 40
0.0111111
 41
0.0111111
  0
VERTEX
  8
0
 10
4.14247
 20
1.34483
 30
0.0
 40
0.0111111
 41
0.0111111
  0
VERTEX
  8
0
 10
4.11751
 20
1.36165
 30
0.0
 40
0.0111111
 41
0.0111111
  0
VERTEX
  8
0
 10
4.10064
 20
1.38666
 30
0.0
 40
0.0111111
 41
0.0111111
  0
VERTEX
  8
0
 10
4.09446
 20
1.41726
 30
0.0
 40
0.0111111
 41
0.0111111
  0
VERTEX
  8
0
 10
4.10064
 20
1.44792
 30
0.0
 40
0.0111111
 41
0.0111111
  0
VERTEX
  8
0
 10
4.11751
 20
1.47293
 30
0.0
 40
0.0111111
 41
0.0111111
  0
VERTEX
  8
0
 10
4.14247
 20
1.48981
 30
0.0
 40
0.0111111
 41
0.0111111
  0
VERTEX
  8
0
 10
4.17312
 20
1.49599
 30
0.0
 40
0.0111111
 41
0.0111111
  0
SEQEND
 8
0
  0
POLYLINE
  8
0
 62
     7
 66
     1
 10
0
 20
0
 30
0.0
 70
     1
 40
0
 41
0
  0
VERTEX
  8
0
 10
5.35444
 20
1.47885
 30
0.0
 40
0
 41
0
  0
VERTEX
  8
0
 10
5.38504
 20
1.47271
 30
0.0
 40
0
 41
0
  0
VERTEX
  8
0
 10
5.41004
 20
1.45583
 30
0.0
 40
0
 41
0
  0
VERTEX
  8
0
 10
5.42692
 20
1.43083
 30
0.0
 40
0
 41
0
  0
VERTEX
  8
0
 10
5.43317
 20
1.40017
 30
0.0
 40
0
 41
0
  0
VERTEX
  8
0
 10
5.42692
 20
1.36957
 30
0.0
 40
0
 41
0
  0
VERTEX
  8
0
 10
5.41004
 20
1.34456
 30
0.0
 40
0
 41
0
  0
VERTEX
  8
0
 10
5.38504
 20
1.32775
 30
0.0
 40
0
 41
0
  0
VERTEX
  8
0
 10
5.35444
 20
1.32151
 30
0.0
 40
0
 41
0
  0
VERTEX
  8
0
 10
5.32378
 20
1.32775
 30
0.0
 40
0
 41
0
  0
VERTEX
  8
0
 10
5.29883
 20
1.34456
 30
0.0
 40
0
 41
0
  0
VERTEX
  8
0
 10
5.28196
 20
1.36957
 30
0.0
 40
0
 41
0
  0
VERTEX
  8
0
 10
5.27576
 20
1.40017
 30
0.0
 40
0
 41
0
  0
VERTEX
  8
0
 10
5.28196
 20
1.43083
 30
0.0
 40
0
 41
0
  0
VERTEX
  8
0
 10
5.29883
 20
1.45583
 30
0.0
 40
0
 41
0
  0
VERTEX
  8
0
 10
5.32378
 20
1.47271
 30
0.0
 40
0
 41
0
  0
VERTEX
  8
0
 10
5.35444
 20
1.47885
 30
0.0
 40
0
 41
0
  0
SEQEND
 8
0
  0
POLYLINE
  8
0
 62
     0
 66
     1
 10
0
 20
0
 30
0.0
 70
     1
 40
0.8
 41
0.8
  0
VERTEX
  8
0
 10
5.35444
 20
1.47885
 30
0.0
 40
0.0111111
 41
0.0111111
  0
VERTEX
  8
0
 10
5.38504
 20
1.47271
 30
0.0
 40
0.0111111
 41
0.0111111
  0
VERTEX
  8
0
 10
5.41004
 20
1.45583
 30
0.0
 40
0.0111111
 41
0.0111111
  0
VERTEX
  8
0
 10
5.42692
 20
1.43083
 30
0.0
 40
0.0111111
 41
0.0111111
  0
VERTEX
  8
0
 10
5.43317
 20
1.40017
 30
0.0
 40
0.0111111
 41
0.0111111
  0
VERTEX
  8
0
 10
5.42692
 20
1.36957
 30
0.0
 40
0.0111111
 41
0.0111111
  0
VERTEX
  8
0
 10
5.41004
 20
1.34456
 30
0.0
 40
0.0111111
 41
0.0111111
  0
VERTEX
  8
0
 10
5.38504
 20
1.32775
 30
0.0
 40
0.0111111
 41
0.0111111
  0
VERTEX
  8
0
 10
5.35444
 20
1.32151
 30
0.0
 40
0.0111111
 41
0.0111111
  0
VERTEX
  8
0
 10
5.32378
 20
1.32775
 30
0.0
 40
0.0111111
 41
0.0111111
  0
VERTEX
  8
0
 10
5.29883
 20
1.34456
 30
0.0
 40
0.0111111
 41
0.0111111
  0
VERTEX
  8
0
 10
5.28196
 20
1.36957
 30
0.0
 40
0.0111111
 41
0.0111111
  0
VERTEX
  8
0
 10
5.27576
 20
1.40017
 30
0.0
 40
0.0111111
 41
0.0111111
  0
VERTEX
  8
0
 10
5.28196
 20
1.43083
 30
0.0
 40
0.0111111
 41
0.0111111
  0
VERTEX
  8
0
 10
5.29883
 20
1.45583
 30
0.0
 40
0.0111111
 41
0.0111111
  0
VERTEX
  8
0
 10
5.32378
 20
1.47271
 30
0.0
 40
0.0111111
 41
0.0111111
  0
VERTEX
  8
0
 10
5.35444
 20
1.47885
 30
0.0
 40
0.0111111
 41
0.0111111
  0
SEQEND
 8
0
  0
POLYLINE
  8
0
 62
     0
 66
     1
 10
0
 20
0
 30
0.0
 70
     1
 40
0.8
 41
0.8
  0
VERTEX
  8
0
 10
3.77951
 20
7.00797
 30
0.0
 40
0.0111111
 41
0.0111111
  0
VERTEX
  8
0
 10
4.17329
 20
7.00797
 30
0.0
 40
0.0111111
 41
0.0111111
  0
VERTEX
  8
0
 10
4.17329
 20
6.85037
 30
0.0
 40
0.0111111
 41
0.0111111
  0
VERTEX
  8
0
 10
4.567
 20
6.85037
 30
0.0
 40
0.0111111
 41
0.0111111
  0
VERTEX
  8
0
 10
4.567
 20
7.00797
 30
0.0
 40
0.0111111
 41
0.0111111
  0
VERTEX
  8
0
 10
4.96078
 20
7.00797
 30
0.0
 40
0.0111111
 41
0.0111111
  0
VERTEX
  8
0
 10
4.96078
 20
6.85037
 30
0.0
 40
0.0111111
 41
0.0111111
  0
VERTEX
  8
0
 10
5.35449
 20
6.85037
 30
0.0
 40
0.0111111
 41
0.0111111
  0
VERTEX
  8
0
 10
5.35449
 20
7.00797
 30
0.0
 40
0.0111111
 41
0.0111111
  0
VERTEX
  8
0
 10
5.51183
 20
7.00797
 30
0.0
 40
0.0111111
 41
0.0111111
  0
VERTEX
  8
0
 10
5.51183
 20
7.32292
 30
0.0
 40
0.0111111
 41
0.0111111
  0
VERTEX
  8
0
 10
5.66943
 20
7.32292
 30
0.0
 40
0.0111111
 41
0.0111111
  0
VERTEX
  8
0
 10
5.66943
 20
7.48019
 30
0.0
 40
0.0111111
 41
0.0111111
  0
VERTEX
  8
0
 10
5.23622
 20
7.48031
 30
0.0
 40
0.0111111
 41
0.0111111
  0
VERTEX
  8
0
 10
5.23622
 20
7.16536
 30
0.0
 40
0.0111111
 41
0.0111111
  0
VERTEX
  8
0
 10
4.64583
 20
7.16564
 30
0.0
 40
0.0111111
 41
0.0111111
  0
VERTEX
  8
0
 10
4.64583
 20
7.48019
 30
0.0
 40
0.0111111
 41
0.0111111
  0
VERTEX
  8
0
 10
3.77951
 20
7.48019
 30
0.0
 40
0.0111111
 41
0.0111111
  0
VERTEX
  8
0
 10
3.77951
 20
7.00797
 30
0.0
 40
0.0111111
 41
0.0111111
  0
SEQEND
 8
0
  0
POLYLINE
  8
0
 62
     0
 66
     1
 10
0
 20
0
 30
0.0
 70
     1
 40
0.8
 41
0.8
  0
VERTEX
  8
0
 10
3.77951
 20
7.48019
 30
0.0
 40
0.0111111
 41
0.0111111
  0
VERTEX
  8
0
 10
4.48817
 20
7.48031
 30
0.0
 40
0.0111111
 41
0.0111111
  0
VERTEX
  8
0
 10
4.48817
 20
7.71653
 30
0.0
 40
0.0111111
 41
0.0111111
  0
VERTEX
  8
0
 10
5.19689
 20
7.71669
 30
0.0
 40
0.0111111
 41
0.0111111
  0
VERTEX
  8
0
 10
5.19689
 20
7.48019
 30
0.0
 40
0.0111111
 41
0.0111111
  0
VERTEX
  8
0
 10
5.51183
 20
7.48019
 30
0.0
 40
0.0111111
 41
0.0111111
  0
VERTEX
  8
0
 10
5.51183
 20
7.99203
 30
0.0
 40
0.0111111
 41
0.0111111
  0
VERTEX
  8
0
 10
5.35449
 20
7.99235
 30
0.0
 40
0.0111111
 41
0.0111111
  0
VERTEX
  8
0
 10
5.35449
 20
8.14963
 30
0.0
 40
0.0111111
 41
0.0111111
  0
VERTEX
  8
0
 10
4.96078
 20
8.14963
 30
0.0
 40
0.0111111
 41
0.0111111
  0
VERTEX
  8
0
 10
4.96078
 20
7.99235
 30
0.0
 40
0.0111111
 41
0.0111111
  0
VERTEX
  8
0
 10
4.567
 20
7.99235
 30
0.0
 40
0.0111111
 41
0.0111111
  0
VERTEX
  8
0
 10
4.567
 20
8.14963
 30
0.0
 40
0.0111111
 41
0.0111111
  0
VERTEX
  8
0
 10
4.17329
 20
8.14963
 30
0.0
 40
0.0111111
 41
0.0111111
  0
VERTEX
  8
0
 10
4.17329
 20
7.99235
 30
0.0
 40
0.0111111
 41
0.0111111
  0
VERTEX
  8
0
 10
3.77951
 20
7.99235
 30
0.0
 40
0.0111111
 41
0.0111111
  0
VERTEX
  8
0
 10
3.77951
 20
7.48019
 30
0.0
 40
0.0111111
 41
0.0111111
  0
SEQEND
 8
0
  0
POLYLINE
  8
0
 62
     0
 66
     1
 10
0
 20
0
 30
0.0
 70
     1
 40
0.8
 41
0.8
  0
VERTEX
  8
0
 10
3.77951
 20
8.30697
 30
0.0
 40
0.0111111
 41
0.0111111
  0
VERTEX
  8
0
 10
4.17329
 20
8.30697
 30
0.0
 40
0.0111111
 41
0.0111111
  0
VERTEX
  8
0
 10
4.17329
 20
8.14963
 30
0.0
 40
0.0111111
 41
0.0111111
  0
VERTEX
  8
0
 10
4.567
 20
8.14963
 30
0.0
 40
0.0111111
 41
0.0111111
  0
VERTEX
  8
0
 10
4.567
 20
8.30697
 30
0.0
 40
0.0111111
 41
0.0111111
  0
VERTEX
  8
0
 10
4.96078
 20
8.30697
 30
0.0
 40
0.0111111
 41
0.0111111
  0
VERTEX
  8
0
 10
4.96078
 20
8.1486
 30
0.0
 40
0.0111111
 41
0.0111111
  0
VERTEX
  8
0
 10
5.35449
 20
8.14963
 30
0.0
 40
0.0111111
 41
0.0111111
  0
VERTEX
  8
0
 10
5.35449
 20
8.30697
 30
0.0
 40
0.0111111
 41
0.0111111
  0
VERTEX
  8
0
 10
5.51183
 20
8.30697
 30
0.0
 40
0.0111111
 41
0.0111111
  0
VERTEX
  8
0
 10
5.51183
 20
8.77951
 30
0.0
 40
0.0111111
 41
0.0111111
  0
VERTEX
  8
0
 10
4.96078
 20
8.77951
 30
0.0
 40
0.0111111
 41
0.0111111
  0
VERTEX
  8
0
 10
4.96078
 20
8.58262
 30
0.0
 40
0.0111111
 41
0.0111111
  0
VERTEX
  8
0
 10
4.33072
 20
8.58268
 30
0.0
 40
0.0111111
 41
0.0111111
  0
VERTEX
  8
0
 10
4.33072
 20
8.77957
 30
0.0
 40
0.0111111
 41
0.0111111
  0
VERTEX
  8
0
 10
3.77951
 20
8.77951
 30
0.0
 40
0.0111111
 41
0.0111111
  0
VERTEX
  8
0
 10
3.77951
 20
8.30697
 30
0.0
 40
0.0111111
 41
0.0111111
  0
SEQEND
 8
0
  0
POLYLINE
  8
0
 62
     0
 66
     1
 10
0
 20
0
 30
0.0
 70
     1
 40
0.8
 41
0.8
  0
VERTEX
  8
0
 10
7.12597
 20
2.75597
 30
0.0
 40
0.0111111
 41
0.0111111
  0
VERTEX
  8
0
 10
7.12597
 20
3.14979
 30
0.0
 40
0.0111111
 41
0.0111111
  0
VERTEX
  8
0
 10
6.96864
 20
3.14979
 30
0.0
 40
0.0111111
 41
0.0111111
  0
VERTEX
  8
0
 10
6.96864
 20
3.54368
 30
0.0
 40
0.0111111
 41
0.0111111
  0
VERTEX
  8
0
 10
7.12597
 20
3.54368
 30
0.0
 40
0.0111111
 41
0.0111111
  0
VERTEX
  8
0
 10
7.12597
 20
3.93701
 30
0.0
 40
0.0111111
 41
0.0111111
  0
VERTEX
  8
0
 10
7.63764
 20
3.93701
 30
0.0
 40
0.0111111
 41
0.0111111
  0
VERTEX
  8
0
 10
7.63764
 20
3.77968
 30
0.0
 40
0.0111111
 41
0.0111111
  0
VERTEX
  8
0
 10
7.79525
 20
3.77968
 30
0.0
 40
0.0111111
 41
0.0111111
  0
VERTEX
  8
0
 10
7.79525
 20
3.93701
 30
0.0
 40
0.0111111
 41
0.0111111
  0
VERTEX
  8
0
 10
8.11035
 20
3.93701
 30
0.0
 40
0.0111111
 41
0.0111111
  0
VERTEX
  8
0
 10
8.11035
 20
3.54368
 30
0.0
 40
0.0111111
 41
0.0111111
  0
VERTEX
  8
0
 10
8.26764
 20
3.54368
 30
0.0
 40
0.0111111
 41
0.0111111
  0
VERTEX
  8
0
 10
8.26764
 20
3.14979
 30
0.0
 40
0.0111111
 41
0.0111111
  0
VERTEX
  8
0
 10
8.11035
 20
3.14979
 30
0.0
 40
0.0111111
 41
0.0111111
  0
VERTEX
  8
0
 10
8.11035
 20
2.75597
 30
0.0
 40
0.0111111
 41
0.0111111
  0
VERTEX
  8
0
 10
8.26764
 20
2.75597
 30
0.0
 40
0.0111111
 41
0.0111111
  0
VERTEX
  8
0
 10
8.26764
 20
2.36208
 30
0.0
 40
0.0111111
 41
0.0111111
  0
VERTEX
  8
0
 10
8.11035
 20
2.36208
 30
0.0
 40
0.0111111
 41
0.0111111
  0
VERTEX
  8
0
 10
8.11035
 20
1.81108
 30
0.0
 40
0.0111111
 41
0.0111111
  0
VERTEX
  8
0
 10
7.79525
 20
1.81108
 30
0.0
 40
0.0111111
 41
0.0111111
  0
VERTEX
  8
0
 10
7.79525
 20
1.96838
 30
0.0
 40
0.0111111
 41
0.0111111
  0
VERTEX
  8
0
 10
7.63764
 20
1.96838
 30
0.0
 40
0.0111111
 41
0.0111111
  0
VERTEX
  8
0
 10
7.63781
 20
1.81108
 30
0.0
 40
0.0111111
 41
0.0111111
  0
VERTEX
  8
0
 10
7.12597
 20
1.81104
 30
0.0
 40
0.0111111
 41
0.0111111
  0
VERTEX
  8
0
 10
7.12597
 20
2.36208
 30
0.0
 40
0.0111111
 41
0.0111111
  0
VERTEX
  8
0
 10
6.96864
 20
2.36208
 30
0.0
 40
0.0111111
 41
0.0111111
  0
VERTEX
  8
0
 10
6.96864
 20
2.75597
 30
0.0
 40
0.0111111
 41
0.0111111
  0
VERTEX
  8
0
 10
7.12597
 20
2.75597
 30
0.0
 40
0.0111111
 41
0.0111111
  0
SEQEND
 8
0
  0
POLYLINE
  8
0
 62
     0
 66
     1
 10
0
 20
0
 30
0.0
 70
     1
 40
0.8
 41
0.8
  0
VERTEX
  8
0
 10
7.95275
 20
2.40158
 30
0.0
 40
0.0111111
 41
0.0111111
  0
VERTEX
  8
0
 10
7.28347
 20
2.40158
 30
0.0
 40
0.0111111
 41
0.0111111
  0
VERTEX
  8
0
 10
7.28347
 20
2.87403
 30
0.0
 40
0.0111111
 41
0.0111111
  0
VERTEX
  8
0
 10
7.95275
 20
2.87403
 30
0.0
 40
0.0111111
 41
0.0111111
  0
VERTEX
  8
0
 10
7.95275
 20
2.40158
 30
0.0
 40
0.0111111
 41
0.0111111
  0
SEQEND
 8
0
  0
POLYLINE
  8
0
 62
     0
 66
     1
 10
0
 20
0
 30
0.0
 70
     1
 40
0.8
 41
0.8
  0
VERTEX
  8
0
 10
7.95275
 20
2.95275
 30
0.0
 40
0.0111111
 41
0.0111111
  0
VERTEX
  8
0
 10
7.40158
 20
2.95275
 30
0.0
 40
0.0111111
 41
0.0111111
  0
VERTEX
  8
0
 10
7.40158
 20
3.46457
 30
0.0
 40
0.0111111
 41
0.0111111
  0
VERTEX
  8
0
 10
7.95285
 20
3.46457
 30
0.0
 40
0.0111111
 41
0.0111111
  0
VERTEX
  8
0
 10
7.95275
 20
2.95275
 30
0.0
 40
0.0111111
 41
0.0111111
  0
SEQEND
 8
0
  0
POLYLINE
  8
0
 62
     0
 66
     1
 10
0
 20
0
 30
0.0
 70
     1
 40
0.8
 41
0.8
  0
VERTEX
  8
0
 10
5.82667
 20
1.96838
 30
0.0
 40
0.0111111
 41
0.0111111
  0
VERTEX
  8
0
 10
5.82667
 20
2.36208
 30
0.0
 40
0.0111111
 41
0.0111111
  0
VERTEX
  8
0
 10
5.66932
 20
2.36219
 30
0.0
 40
0.0111111
 41
0.0111111
  0
VERTEX
  8
0
 10
5.66932
 20
2.75592
 30
0.0
 40
0.0111111
 41
0.0111111
  0
VERTEX
  8
0
 10
5.82676
 20
2.75597
 30
0.0
 40
0.0111111
 41
0.0111111
  0
VERTEX
  8
0
 10
5.82667
 20
3.14979
 30
0.0
 40
0.0111111
 41
0.0111111
  0
VERTEX
  8
0
 10
5.66932
 20
3.14962
 30
0.0
 40
0.0111111
 41
0.0111111
  0
VERTEX
  8
0
 10
5.66932
 20
3.54368
 30
0.0
 40
0.0111111
 41
0.0111111
  0
VERTEX
  8
0
 10
5.82676
 20
3.54368
 30
0.0
 40
0.0111111
 41
0.0111111
  0
VERTEX
  8
0
 10
5.82676
 20
3.77968
 30
0.0
 40
0.0111111
 41
0.0111111
  0
VERTEX
  8
0
 10
6.81119
 20
3.77968
 30
0.0
 40
0.0111111
 41
0.0111111
  0
VERTEX
  8
0
 10
6.81119
 20
3.54368
 30
0.0
 40
0.0111111
 41
0.0111111
  0
VERTEX
  8
0
 10
6.96864
 20
3.54368
 30
0.0
 40
0.0111111
 41
0.0111111
  0
VERTEX
  8
0
 10
6.96864
 20
3.14962
 30
0.0
 40
0.0111111
 41
0.0111111
  0
VERTEX
  8
0
 10
6.81119
 20
3.14979
 30
0.0
 40
0.0111111
 41
0.0111111
  0
VERTEX
  8
0
 10
6.81119
 20
2.75597
 30
0.0
 40
0.0111111
 41
0.0111111
  0
VERTEX
  8
0
 10
6.96864
 20
2.75597
 30
0.0
 40
0.0111111
 41
0.0111111
  0
VERTEX
  8
0
 10
6.96864
 20
2.36208
 30
0.0
 40
0.0111111
 41
0.0111111
  0
VERTEX
  8
0
 10
6.81119
 20
2.36208
 30
0.0
 40
0.0111111
 41
0.0111111
  0
VERTEX
  8
0
 10
6.81119
 20
1.96838
 30
0.0
 40
0.0111111
 41
0.0111111
  0
VERTEX
  8
0
 10
5.82667
 20
1.96838
 30
0.0
 40
0.0111111
 41
0.0111111
  0
SEQEND
 8
0
  0
POLYLINE
  8
0
 62
     0
 66
     1
 10
0
 20
0
 30
0.0
 70
     1
 40
0.8
 41
0.8
  0
VERTEX
  8
0
 10
5.98426
 20
2.40158
 30
0.0
 40
0.0111111
 41
0.0111111
  0
VERTEX
  8
0
 10
6.53543
 20
2.40158
 30
0.0
 40
0.0111111
 41
0.0111111
  0
VERTEX
  8
0
 10
6.53543
 20
3.30707
 30
0.0
 40
0.0111111
 41
0.0111111
  0
VERTEX
  8
0
 10
5.98426
 20
3.30707
 30
0.0
 40
0.0111111
 41
0.0111111
  0
VERTEX
  8
0
 10
5.98426
 20
2.40158
 30
0.0
 40
0.0111111
 41
0.0111111
  0
SEQEND
 8
0
  0
POLYLINE
  8
0
 62
     0
 66
     1
 10
0
 20
0
 30
0.0
 70
     1
 40
0.8
 41
0.8
  0
VERTEX
  8
0
 10
6.61415
 20
3.50396
 30
0.0
 40
0.0111111
 41
0.0111111
  0
VERTEX
  8
0
 10
6.61415
 20
3.62207
 30
0.0
 40
0.0111111
 41
0.0111111
  0
VERTEX
  8
0
 10
6.69293
 20
3.62207
 30
0.0
 40
0.0111111
 41
0.0111111
  0
VERTEX
  8
0
 10
6.69293
 20
3.50396
 30
0.0
 40
0.0111111
 41
0.0111111
  0
VERTEX
  8
0
 10
6.61415
 20
3.50396
 30
0.0
 40
0.0111111
 41
0.0111111
  0
SEQEND
 8
0
  0
POLYLINE
  8
0
 62
     0
 66
     1
 10
0
 20
0
 30
0.0
 70
     1
 40
0.8
 41
0.8
  0
VERTEX
  8
0
 10
6.61415
 20
2.12597
 30
0.0
 40
0.0111111
 41
0.0111111
  0
VERTEX
  8
0
 10
6.61415
 20
2.24408
 30
0.0
 40
0.0111111
 41
0.0111111
  0
VERTEX
  8
0
 10
6.69293
 20
2.24408
 30
0.0
 40
0.0111111
 41
0.0111111
  0
VERTEX
  8
0
 10
6.69293
 20
2.12597
 30
0.0
 40
0.0111111
 41
0.0111111
  0
VERTEX
  8
0
 10
6.61415
 20
2.12597
 30
0.0
 40
0.0111111
 41
0.0111111
  0
SEQEND
 8
0
  0
POLYLINE
  8
0
 62
     0
 66
     1
 10
0
 20
0
 30
0.0
 70
     1
 40
0.8
 41
0.8
  0
VERTEX
  8
0
 10
3.77962
 20
4.72456
 30
0.0
 40
0.0111111
 41
0.0111111
  0
VERTEX
  8
0
 10
3.77962
 20
5.27522
 30
0.0
 40
0.0111111
 41
0.0111111
  0
VERTEX
  8
0
 10
3.93701
 20
5.27522
 30
0.0
 40
0.0111111
 41
0.0111111
  0
VERTEX
  8
0
 10
3.93701
 20
5.66928
 30
0.0
 40
0.0111111
 41
0.0111111
  0
VERTEX
  8
0
 10
3.77962
 20
5.66911
 30
0.0
 40
0.0111111
 41
0.0111111
  0
VERTEX
  8
0
 10
3.77962
 20
6.06304
 30
0.0
 40
0.0111111
 41
0.0111111
  0
VERTEX
  8
0
 10
3.93701
 20
6.06304
 30
0.0
 40
0.0111111
 41
0.0111111
  0
VERTEX
  8
0
 10
3.93701
 20
6.45654
 30
0.0
 40
0.0111111
 41
0.0111111
  0
VERTEX
  8
0
 10
3.77951
 20
6.45654
 30
0.0
 40
0.0111111
 41
0.0111111
  0
VERTEX
  8
0
 10
3.77962
 20
6.85042
 30
0.0
 40
0.0111111
 41
0.0111111
  0
VERTEX
  8
0
 10
4.17312
 20
6.85042
 30
0.0
 40
0.0111111
 41
0.0111111
  0
VERTEX
  8
0
 10
4.17312
 20
6.69299
 30
0.0
 40
0.0111111
 41
0.0111111
  0
VERTEX
  8
0
 10
4.56706
 20
6.69299
 30
0.0
 40
0.0111111
 41
0.0111111
  0
VERTEX
  8
0
 10
4.56706
 20
6.85042
 30
0.0
 40
0.0111111
 41
0.0111111
  0
VERTEX
  8
0
 10
4.96083
 20
6.85037
 30
0.0
 40
0.0111111
 41
0.0111111
  0
VERTEX
  8
0
 10
4.96083
 20
6.69293
 30
0.0
 40
0.0111111
 41
0.0111111
  0
VERTEX
  8
0
 10
5.35444
 20
6.69299
 30
0.0
 40
0.0111111
 41
0.0111111
  0
VERTEX
  8
0
 10
5.35444
 20
6.85042
 30
0.0
 40
0.0111111
 41
0.0111111
  0
VERTEX
  8
0
 10
5.66932
 20
6.85042
 30
0.0
 40
0.0111111
 41
0.0111111
  0
VERTEX
  8
0
 10
5.66932
 20
6.45654
 30
0.0
 40
0.0111111
 41
0.0111111
  0
VERTEX
  8
0
 10
5.51183
 20
6.45654
 30
0.0
 40
0.0111111
 41
0.0111111
  0
VERTEX
  8
0
 10
5.51193
 20
6.06304
 30
0.0
 40
0.0111111
 41
0.0111111
  0
VERTEX
  8
0
 10
5.66932
 20
6.06304
 30
0.0
 40
0.0111111
 41
0.0111111
  0
VERTEX
  8
0
 10
5.66932
 20
5.66911
 30
0.0
 40
0.0111111
 41
0.0111111
  0
VERTEX
  8
0
 10
5.51193
 20
5.66911
 30
0.0
 40
0.0111111
 41
0.0111111
  0
VERTEX
  8
0
 10
5.51193
 20
5.27522
 30
0.0
 40
0.0111111
 41
0.0111111
  0
VERTEX
  8
0
 10
5.66928
 20
5.27522
 30
0.0
 40
0.0111111
 41
0.0111111
  0
VERTEX
  8
0
 10
5.66932
 20
4.72456
 30
0.0
 40
0.0111111
 41
0.0111111
  0
VERTEX
  8
0
 10
5.35444
 20
4.72439
 30
0.0
 40
0.0111111
 41
0.0111111
  0
VERTEX
  8
0
 10
5.35444
 20
4.88194
 30
0.0
 40
0.0111111
 41
0.0111111
  0
VERTEX
  8
0
 10
4.96083
 20
4.88194
 30
0.0
 40
0.0111111
 41
0.0111111
  0
VERTEX
  8
0
 10
4.96083
 20
4.72439
 30
0.0
 40
0.0111111
 41
0.0111111
  0
VERTEX
  8
0
 10
4.56706
 20
4.72456
 30
0.0
 40
0.0111111
 41
0.0111111
  0
VERTEX
  8
0
 10
4.56706
 20
4.88194
 30
0.0
 40
0.0111111
 41
0.0111111
  0
VERTEX
  8
0
 10
4.17324
 20
4.88194
 30
0.0
 40
0.0111111
 41
0.0111111
  0
VERTEX
  8
0
 10
4.17312
 20
4.72456
 30
0.0
 40
0.0111111
 41
0.0111111
  0
VERTEX
  8
0
 10
3.93701
 20
4.72456
 30
0.0
 40
0.0111111
 41
0.0111111
  0
VERTEX
  8
0
 10
3.77962
 20
4.72456
 30
0.0
 40
0.0111111
 41
0.0111111
  0
SEQEND
 8
0
  0
POLYLINE
  8
0
 62
     0
 66
     1
 10
0
 20
0
 30
0.0
 70
     1
 40
0.8
 41
0.8
  0
VERTEX
  8
0
 10
4.05512
 20
6.41732
 30
0.0
 40
0.0111111
 41
0.0111111
  0
VERTEX
  8
0
 10
4.05512
 20
6.53543
 30
0.0
 40
0.0111111
 41
0.0111111
  0
VERTEX
  8
0
 10
4.13385
 20
6.53543
 30
0.0
 40
0.0111111
 41
0.0111111
  0
VERTEX
  8
0
 10
4.13385
 20
6.41732
 30
0.0
 40
0.0111111
 41
0.0111111
  0
VERTEX
  8
0
 10
4.05512
 20
6.41732
 30
0.0
 40
0.0111111
 41
0.0111111
  0
SEQEND
 8
0
  0
POLYLINE
  8
0
 62
     0
 66
     1
 10
0
 20
0
 30
0.0
 70
     1
 40
0.8
 41
0.8
  0
VERTEX
  8
0
 10
4.05512
 20
5.03939
 30
0.0
 40
0.0111111
 41
0.0111111
  0
VERTEX
  8
0
 10
4.05512
 20
5.1575
 30
0.0
 40
0.0111111
 41
0.0111111
  0
VERTEX
  8
0
 10
4.13385
 20
5.1575
 30
0.0
 40
0.0111111
 41
0.0111111
  0
VERTEX
  8
0
 10
4.13385
 20
5.03939
 30
0.0
 40
0.0111111
 41
0.0111111
  0
VERTEX
  8
0
 10
4.05512
 20
5.03939
 30
0.0
 40
0.0111111
 41
0.0111111
  0
SEQEND
 8
0
  0
POLYLINE
  8
0
 62
     0
 66
     1
 10
0
 20
0
 30
0.0
 70
     1
 40
0.8
 41
0.8
  0
VERTEX
  8
0
 10
3.77951
 20
8.77968
 30
0.0
 40
0.0111111
 41
0.0111111
  0
VERTEX
  8
0
 10
4.48817
 20
8.77968
 30
0.0
 40
0.0111111
 41
0.0111111
  0
VERTEX
  8
0
 10
4.48817
 20
9.13351
 30
0.0
 40
0.0111111
 41
0.0111111
  0
VERTEX
  8
0
 10
5
 20
9.13385
 30
0.0
 40
0.0111111
 41
0.0111111
  0
VERTEX
  8
0
 10
5
 20
8.77957
 30
0.0
 40
0.0111111
 41
0.0111111
  0
VERTEX
  8
0
 10
5.66911
 20
8.77968
 30
0.0
 40
0.0111111
 41
0.0111111
  0
VERTEX
  8
0
 10
5.66911
 20
8.93696
 30
0.0
 40
0.0111111
 41
0.0111111
  0
VERTEX
  8
0
 10
5.51183
 20
8.93696
 30
0.0
 40
0.0111111
 41
0.0111111
  0
VERTEX
  8
0
 10
5.51183
 20
9.29113
 30
0.0
 40
0.0111111
 41
0.0111111
  0
VERTEX
  8
0
 10
5.35449
 20
9.29113
 30
0.0
 40
0.0111111
 41
0.0111111
  0
VERTEX
  8
0
 10
5.35449
 20
9.44878
 30
0.0
 40
0.0111111
 41
0.0111111
  0
VERTEX
  8
0
 10
4.96039
 20
9.44878
 30
0.0
 40
0.0111111
 41
0.0111111
  0
VERTEX
  8
0
 10
4.96078
 20
9.29113
 30
0.0
 40
0.0111111
 41
0.0111111
  0
VERTEX
  8
0
 10
4.567
 20
9.29113
 30
0.0
 40
0.0111111
 41
0.0111111
  0
VERTEX
  8
0
 10
4.567
 20
9.44878
 30
0.0
 40
0.0111111
 41
0.0111111
  0
VERTEX
  8
0
 10
4.17329
 20
9.44878
 30
0.0
 40
0.0111111
 41
0.0111111
  0
VERTEX
  8
0
 10
4.17329
 20
9.29113
 30
0.0
 40
0.0111111
 41
0.0111111
  0
VERTEX
  8
0
 10
3.77951
 20
9.29113
 30
0.0
 40
0.0111111
 41
0.0111111
  0
VERTEX
  8
0
 10
3.77951
 20
8.77968
 30
0.0
 40
0.0111111
 41
0.0111111
  0
SEQEND
 8
0
  0
ENDSEC
  0
EOF
