999
Inkscape export via "Better Better DXF Output" (http://tim.cexx.org/?p=590)
  0
SECTION
  2
HEADER
  9
$ACADVER
  1
AC1014
  9
$HANDSEED
  5
FFFF
  0
ENDSEC
  0
SECTION
  2
TABLES
  0
TABLE
  2
VPORT
  5
8
330
0
100
AcDbSymbolTable
 70
     4
  0
VPORT
  5
2E
330
8
100
AcDbSymbolTableRecord
100
AcDbViewportTableRecord
  2
*ACTIVE
 70
     0
 10
0.0
 20
0.0
 11
1.0
 21
1.0
 12
4.25
 22
5.5
 13
0.0
 23
0.0
 14
10.0
 24
10.0
 15
10.0
 25
10.0
 16
0.0
 26
0.0
 36
1.0
 17
0.0
 27
0.0
 37
0.0
 40
11
 41
1.24
 42
50.0
 43
0.0
 44
0.0
 50
0.0
 51
0.0
 71
     0
 72
   100
 73
     1
 74
     3
 75
     0
 76
     0
 77
     0
 78
     0
  0
ENDTAB
  0
TABLE
  2
LTYPE
  5
5
330
0
100
AcDbSymbolTable
 70
     1
  0
LTYPE
  5
14
330
5
100
AcDbSymbolTableRecord
100
AcDbLinetypeTableRecord
  2
BYBLOCK
 70
     0
  3

 72
    65
 73
     0
 40
0.0
  0
LTYPE
  5
15
330
5
100
AcDbSymbolTableRecord
100
AcDbLinetypeTableRecord
  2
BYLAYER
 70
     0
  3

 72
    65
 73
     0
 40
0.0
  0
LTYPE
  5
16
330
5
100
AcDbSymbolTableRecord
100
AcDbLinetypeTableRecord
  2
CONTINUOUS
 70
     0
  3
Solid line
 72
    65
 73
     0
 40
0.0
  0
ENDTAB
  0
TABLE
  2
STYLE
  5
3
330
0
100
AcDbSymbolTable
 70
     1
  0
STYLE
  5
11
330
3
100
AcDbSymbolTableRecord
100
AcDbTextStyleTableRecord
  2
STANDARD
 70
     0
 40
0.0
 41
1.0
 50
0.0
 71
     0
 42
2.5
  3
txt
  4

  0
ENDTAB
  0
TABLE
  2
VIEW
  5
6
330
0
100
AcDbSymbolTable
 70
     0
  0
ENDTAB
  0
TABLE
  2
UCS
  5
7
330
0
100
AcDbSymbolTable
 70
     0
  0
ENDTAB
  0
TABLE
  2
APPID
  5
9
330
0
100
AcDbSymbolTable
 70
     2
  0
APPID
  5
12
330
9
100
AcDbSymbolTableRecord
100
AcDbRegAppTableRecord
  2
ACAD
 70
     0
  0
ENDTAB
  0
TABLE
  2
DIMSTYLE
  5
A
330
0
100
AcDbSymbolTable
 70
     1
  0
DIMSTYLE
105
27
330
A
100
AcDbSymbolTableRecord
100
AcDbDimStyleTableRecord
  2
ISO-25
 70
     0
  3

  4

  5

  6

  7

 40
1.0
 41
2.5
 42
0.625
 43
3.75
 44
1.25
 45
0.0
 46
0.0
 47
0.0
 48
0.0
140
2.5
141
2.5
142
0.0
143
0.03937007874016
144
1.0
145
0.0
146
1.0
147
0.625
 71
     0
 72
     0
 73
     0
 74
     0
 75
     0
 76
     0
 77
     1
 78
     8
170
     0
171
     3
172
     1
173
     0
174
     0
175
     0
176
     0
177
     0
178
     0
270
     2
271
     2
272
     2
273
     2
274
     3
340
11
275
     0
280
     0
281
     0
282
     0
283
     0
284
     8
285
     0
286
     0
287
     3
288
     0
  0
ENDTAB
  0
TABLE
  2
BLOCK_RECORD
  5
1
330
0
100
AcDbSymbolTable
 70
     1
  0
BLOCK_RECORD
  5
1F
330
1
100
AcDbSymbolTableRecord
100
AcDbBlockTableRecord
  2
*MODEL_SPACE
  0
BLOCK_RECORD
  5
1B
330
1
100
AcDbSymbolTableRecord
100
AcDbBlockTableRecord
  2
*PAPER_SPACE
  0
ENDTAB
0
TABLE
2
LAYER
5
2
330
0
100
AcDbSymbolTable
70
2
0
LAYER
5
10
330
2
100
AcDbSymbolTableRecord
100
AcDbLayerTableRecord
2
Layer 1
70
0
62
7
6
CONTINUOUS
0
LAYER
5
10
330
2
100
AcDbSymbolTableRecord
100
AcDbLayerTableRecord
2
text
70
0
62
7
6
CONTINUOUS
0
ENDTAB
0
ENDSEC
  0
SECTION
  2
BLOCKS
  0
BLOCK
  5
20
330
1F
100
AcDbEntity
  8
0
100
AcDbBlockBegin
  2
*MODEL_SPACE
 70
     0
 10
0.0
 20
0.0
 30
0.0
  3
*MODEL_SPACE
  1

  0
ENDBLK
  5
21
330
1F
100
AcDbEntity
  8
0
100
AcDbBlockEnd
  0
BLOCK
  5
1C
330
1B
100
AcDbEntity
 67
     1
  8
0
100
AcDbBlockBegin
  2
*PAPER_SPACE
  1

  0
ENDBLK
  5
1D
330
1B
100
AcDbEntity
 67
     1
  8
0
100
AcDbBlockEnd
  0
ENDSEC
  0
SECTION
  2
ENTITIES
0
LINE
8
Layer 1
62
4
5
100
100
AcDbEntity
100
AcDbLine
10
29.862639
20
252.136868
30
0.0
11
29.862639
21
251.995757
31
0.0
0
LINE
8
Layer 1
62
4
5
101
100
AcDbEntity
100
AcDbLine
10
29.862639
20
251.995757
30
0.0
11
29.862639
21
196.001104
31
0.0
0
LINE
8
Layer 1
62
4
5
102
100
AcDbEntity
100
AcDbLine
10
29.862639
20
196.001104
30
0.0
11
29.862639
21
195.859993
31
0.0
0
LINE
8
Layer 1
62
4
5
103
100
AcDbEntity
100
AcDbLine
10
29.862639
20
195.859993
30
0.0
11
30.003750
21
195.859993
31
0.0
0
LINE
8
Layer 1
62
4
5
104
100
AcDbEntity
100
AcDbLine
10
30.003750
20
195.859993
30
0.0
11
74.003958
21
195.859993
31
0.0
0
LINE
8
Layer 1
62
4
5
105
100
AcDbEntity
100
AcDbLine
10
74.003958
20
195.859993
30
0.0
11
74.145069
21
195.859993
31
0.0
0
LINE
8
Layer 1
62
4
5
106
100
AcDbEntity
100
AcDbLine
10
74.145069
20
195.859993
30
0.0
11
74.145069
21
196.001104
31
0.0
0
LINE
8
Layer 1
62
4
5
107
100
AcDbEntity
100
AcDbLine
10
74.145069
20
196.001104
30
0.0
11
74.145069
21
199.855201
31
0.0
0
LINE
8
Layer 1
62
4
5
108
100
AcDbEntity
100
AcDbLine
10
74.145069
20
199.855201
30
0.0
11
93.856528
21
199.855201
31
0.0
0
LINE
8
Layer 1
62
4
5
109
100
AcDbEntity
100
AcDbLine
10
93.856528
20
199.855201
30
0.0
11
93.856528
21
196.001104
31
0.0
0
LINE
8
Layer 1
62
4
5
10a
100
AcDbEntity
100
AcDbLine
10
93.856528
20
196.001104
30
0.0
11
93.856528
21
195.859993
31
0.0
0
LINE
8
Layer 1
62
4
5
10b
100
AcDbEntity
100
AcDbLine
10
93.856528
20
195.859993
30
0.0
11
93.997639
21
195.859993
31
0.0
0
LINE
8
Layer 1
62
4
5
10c
100
AcDbEntity
100
AcDbLine
10
93.997639
20
195.859993
30
0.0
11
114.000139
21
195.859993
31
0.0
0
LINE
8
Layer 1
62
4
5
10d
100
AcDbEntity
100
AcDbLine
10
114.000139
20
195.859993
30
0.0
11
114.141250
21
195.859993
31
0.0
0
LINE
8
Layer 1
62
4
5
10e
100
AcDbEntity
100
AcDbLine
10
114.141250
20
195.859993
30
0.0
11
114.141250
21
196.001104
31
0.0
0
LINE
8
Layer 1
62
4
5
10f
100
AcDbEntity
100
AcDbLine
10
114.141250
20
196.001104
30
0.0
11
114.141250
21
199.855201
31
0.0
0
LINE
8
Layer 1
62
4
5
110
100
AcDbEntity
100
AcDbLine
10
114.141250
20
199.855201
30
0.0
11
133.861528
21
199.855201
31
0.0
0
LINE
8
Layer 1
62
4
5
111
100
AcDbEntity
100
AcDbLine
10
133.861528
20
199.855201
30
0.0
11
133.861528
21
196.001104
31
0.0
0
LINE
8
Layer 1
62
4
5
112
100
AcDbEntity
100
AcDbLine
10
133.861528
20
196.001104
30
0.0
11
133.861528
21
195.859993
31
0.0
0
LINE
8
Layer 1
62
4
5
113
100
AcDbEntity
100
AcDbLine
10
133.861528
20
195.859993
30
0.0
11
134.002639
21
195.859993
31
0.0
0
LINE
8
Layer 1
62
4
5
114
100
AcDbEntity
100
AcDbLine
10
134.002639
20
195.859993
30
0.0
11
173.998819
21
195.859993
31
0.0
0
LINE
8
Layer 1
62
4
5
115
100
AcDbEntity
100
AcDbLine
10
173.998819
20
195.859993
30
0.0
11
174.139931
21
195.859993
31
0.0
0
LINE
8
Layer 1
62
4
5
116
100
AcDbEntity
100
AcDbLine
10
174.139931
20
195.859993
30
0.0
11
174.139931
21
196.001104
31
0.0
0
LINE
8
Layer 1
62
4
5
117
100
AcDbEntity
100
AcDbLine
10
174.139931
20
196.001104
30
0.0
11
174.139931
21
251.995757
31
0.0
0
LINE
8
Layer 1
62
4
5
118
100
AcDbEntity
100
AcDbLine
10
174.139931
20
251.995757
30
0.0
11
174.139931
21
252.136868
31
0.0
0
LINE
8
Layer 1
62
4
5
119
100
AcDbEntity
100
AcDbLine
10
174.139931
20
252.136868
30
0.0
11
173.998819
21
252.136868
31
0.0
0
LINE
8
Layer 1
62
4
5
11a
100
AcDbEntity
100
AcDbLine
10
173.998819
20
252.136868
30
0.0
11
134.002639
21
252.136868
31
0.0
0
LINE
8
Layer 1
62
4
5
11b
100
AcDbEntity
100
AcDbLine
10
134.002639
20
252.136868
30
0.0
11
133.861528
21
252.136868
31
0.0
0
LINE
8
Layer 1
62
4
5
11c
100
AcDbEntity
100
AcDbLine
10
133.861528
20
252.136868
30
0.0
11
133.861528
21
251.995757
31
0.0
0
LINE
8
Layer 1
62
4
5
11d
100
AcDbEntity
100
AcDbLine
10
133.861528
20
251.995757
30
0.0
11
133.861528
21
248.141659
31
0.0
0
LINE
8
Layer 1
62
4
5
11e
100
AcDbEntity
100
AcDbLine
10
133.861528
20
248.141659
30
0.0
11
114.141250
21
248.141659
31
0.0
0
LINE
8
Layer 1
62
4
5
11f
100
AcDbEntity
100
AcDbLine
10
114.141250
20
248.141659
30
0.0
11
114.141250
21
251.995757
31
0.0
0
LINE
8
Layer 1
62
4
5
120
100
AcDbEntity
100
AcDbLine
10
114.141250
20
251.995757
30
0.0
11
114.141250
21
252.136868
31
0.0
0
LINE
8
Layer 1
62
4
5
121
100
AcDbEntity
100
AcDbLine
10
114.141250
20
252.136868
30
0.0
11
114.000139
21
252.136868
31
0.0
0
LINE
8
Layer 1
62
4
5
122
100
AcDbEntity
100
AcDbLine
10
114.000139
20
252.136868
30
0.0
11
93.997639
21
252.136868
31
0.0
0
LINE
8
Layer 1
62
4
5
123
100
AcDbEntity
100
AcDbLine
10
93.997639
20
252.136868
30
0.0
11
93.856528
21
252.136868
31
0.0
0
LINE
8
Layer 1
62
4
5
124
100
AcDbEntity
100
AcDbLine
10
93.856528
20
252.136868
30
0.0
11
93.856528
21
251.995757
31
0.0
0
LINE
8
Layer 1
62
4
5
125
100
AcDbEntity
100
AcDbLine
10
93.856528
20
251.995757
30
0.0
11
93.856528
21
248.141659
31
0.0
0
LINE
8
Layer 1
62
4
5
126
100
AcDbEntity
100
AcDbLine
10
93.856528
20
248.141659
30
0.0
11
74.145069
21
248.141659
31
0.0
0
LINE
8
Layer 1
62
4
5
127
100
AcDbEntity
100
AcDbLine
10
74.145069
20
248.141659
30
0.0
11
74.145069
21
251.995757
31
0.0
0
LINE
8
Layer 1
62
4
5
128
100
AcDbEntity
100
AcDbLine
10
74.145069
20
251.995757
30
0.0
11
74.145069
21
252.136868
31
0.0
0
LINE
8
Layer 1
62
4
5
129
100
AcDbEntity
100
AcDbLine
10
74.145069
20
252.136868
30
0.0
11
74.003958
21
252.136868
31
0.0
0
LINE
8
Layer 1
62
4
5
12a
100
AcDbEntity
100
AcDbLine
10
74.003958
20
252.136868
30
0.0
11
30.003750
21
252.136868
31
0.0
0
LINE
8
Layer 1
62
4
5
12b
100
AcDbEntity
100
AcDbLine
10
30.003750
20
252.136868
30
0.0
11
29.862639
21
252.136868
31
0.0
0
LINE
8
Layer 1
62
4
5
12c
100
AcDbEntity
100
AcDbLine
10
29.862639
20
252.136868
30
0.0
11
29.862639
21
252.136868
31
0.0
0
LINE
8
Layer 1
62
4
5
12d
100
AcDbEntity
100
AcDbLine
10
30.144861
20
251.854645
30
0.0
11
73.862847
21
251.854645
31
0.0
0
LINE
8
Layer 1
62
4
5
12e
100
AcDbEntity
100
AcDbLine
10
73.862847
20
251.854645
30
0.0
11
73.862847
21
248.000548
31
0.0
0
LINE
8
Layer 1
62
4
5
12f
100
AcDbEntity
100
AcDbLine
10
73.862847
20
248.000548
30
0.0
11
73.862847
21
247.859437
31
0.0
0
LINE
8
Layer 1
62
4
5
130
100
AcDbEntity
100
AcDbLine
10
73.862847
20
247.859437
30
0.0
11
74.003958
21
247.859437
31
0.0
0
LINE
8
Layer 1
62
4
5
131
100
AcDbEntity
100
AcDbLine
10
74.003958
20
247.859437
30
0.0
11
93.997639
21
247.859437
31
0.0
0
LINE
8
Layer 1
62
4
5
132
100
AcDbEntity
100
AcDbLine
10
93.997639
20
247.859437
30
0.0
11
94.138750
21
247.859437
31
0.0
0
LINE
8
Layer 1
62
4
5
133
100
AcDbEntity
100
AcDbLine
10
94.138750
20
247.859437
30
0.0
11
94.138750
21
248.000548
31
0.0
0
LINE
8
Layer 1
62
4
5
134
100
AcDbEntity
100
AcDbLine
10
94.138750
20
248.000548
30
0.0
11
94.138750
21
251.854645
31
0.0
0
LINE
8
Layer 1
62
4
5
135
100
AcDbEntity
100
AcDbLine
10
94.138750
20
251.854645
30
0.0
11
113.859028
21
251.854645
31
0.0
0
LINE
8
Layer 1
62
4
5
136
100
AcDbEntity
100
AcDbLine
10
113.859028
20
251.854645
30
0.0
11
113.859028
21
248.000548
31
0.0
0
LINE
8
Layer 1
62
4
5
137
100
AcDbEntity
100
AcDbLine
10
113.859028
20
248.000548
30
0.0
11
113.859028
21
247.859437
31
0.0
0
LINE
8
Layer 1
62
4
5
138
100
AcDbEntity
100
AcDbLine
10
113.859028
20
247.859437
30
0.0
11
114.000139
21
247.859437
31
0.0
0
LINE
8
Layer 1
62
4
5
139
100
AcDbEntity
100
AcDbLine
10
114.000139
20
247.859437
30
0.0
11
134.002639
21
247.859437
31
0.0
0
LINE
8
Layer 1
62
4
5
13a
100
AcDbEntity
100
AcDbLine
10
134.002639
20
247.859437
30
0.0
11
134.143750
21
247.859437
31
0.0
0
LINE
8
Layer 1
62
4
5
13b
100
AcDbEntity
100
AcDbLine
10
134.143750
20
247.859437
30
0.0
11
134.143750
21
248.000548
31
0.0
0
LINE
8
Layer 1
62
4
5
13c
100
AcDbEntity
100
AcDbLine
10
134.143750
20
248.000548
30
0.0
11
134.143750
21
251.854645
31
0.0
0
LINE
8
Layer 1
62
4
5
13d
100
AcDbEntity
100
AcDbLine
10
134.143750
20
251.854645
30
0.0
11
173.857708
21
251.854645
31
0.0
0
LINE
8
Layer 1
62
4
5
13e
100
AcDbEntity
100
AcDbLine
10
173.857708
20
251.854645
30
0.0
11
173.857708
21
196.142215
31
0.0
0
LINE
8
Layer 1
62
4
5
13f
100
AcDbEntity
100
AcDbLine
10
173.857708
20
196.142215
30
0.0
11
134.143750
21
196.142215
31
0.0
0
LINE
8
Layer 1
62
4
5
140
100
AcDbEntity
100
AcDbLine
10
134.143750
20
196.142215
30
0.0
11
134.143750
21
199.996312
31
0.0
0
LINE
8
Layer 1
62
4
5
141
100
AcDbEntity
100
AcDbLine
10
134.143750
20
199.996312
30
0.0
11
134.143750
21
200.137423
31
0.0
0
LINE
8
Layer 1
62
4
5
142
100
AcDbEntity
100
AcDbLine
10
134.143750
20
200.137423
30
0.0
11
134.002639
21
200.137423
31
0.0
0
LINE
8
Layer 1
62
4
5
143
100
AcDbEntity
100
AcDbLine
10
134.002639
20
200.137423
30
0.0
11
114.000139
21
200.137423
31
0.0
0
LINE
8
Layer 1
62
4
5
144
100
AcDbEntity
100
AcDbLine
10
114.000139
20
200.137423
30
0.0
11
113.859028
21
200.137423
31
0.0
0
LINE
8
Layer 1
62
4
5
145
100
AcDbEntity
100
AcDbLine
10
113.859028
20
200.137423
30
0.0
11
113.859028
21
199.996312
31
0.0
0
LINE
8
Layer 1
62
4
5
146
100
AcDbEntity
100
AcDbLine
10
113.859028
20
199.996312
30
0.0
11
113.859028
21
196.142215
31
0.0
0
LINE
8
Layer 1
62
4
5
147
100
AcDbEntity
100
AcDbLine
10
113.859028
20
196.142215
30
0.0
11
94.138750
21
196.142215
31
0.0
0
LINE
8
Layer 1
62
4
5
148
100
AcDbEntity
100
AcDbLine
10
94.138750
20
196.142215
30
0.0
11
94.138750
21
199.996312
31
0.0
0
LINE
8
Layer 1
62
4
5
149
100
AcDbEntity
100
AcDbLine
10
94.138750
20
199.996312
30
0.0
11
94.138750
21
200.137423
31
0.0
0
LINE
8
Layer 1
62
4
5
14a
100
AcDbEntity
100
AcDbLine
10
94.138750
20
200.137423
30
0.0
11
93.997639
21
200.137423
31
0.0
0
LINE
8
Layer 1
62
4
5
14b
100
AcDbEntity
100
AcDbLine
10
93.997639
20
200.137423
30
0.0
11
74.003958
21
200.137423
31
0.0
0
LINE
8
Layer 1
62
4
5
14c
100
AcDbEntity
100
AcDbLine
10
74.003958
20
200.137423
30
0.0
11
73.862847
21
200.137423
31
0.0
0
LINE
8
Layer 1
62
4
5
14d
100
AcDbEntity
100
AcDbLine
10
73.862847
20
200.137423
30
0.0
11
73.862847
21
199.996312
31
0.0
0
LINE
8
Layer 1
62
4
5
14e
100
AcDbEntity
100
AcDbLine
10
73.862847
20
199.996312
30
0.0
11
73.862847
21
196.142215
31
0.0
0
LINE
8
Layer 1
62
4
5
14f
100
AcDbEntity
100
AcDbLine
10
73.862847
20
196.142215
30
0.0
11
30.144861
21
196.142215
31
0.0
0
LINE
8
Layer 1
62
4
5
150
100
AcDbEntity
100
AcDbLine
10
30.144861
20
196.142215
30
0.0
11
30.144861
21
251.854645
31
0.0
0
LINE
8
Layer 1
62
4
5
151
100
AcDbEntity
100
AcDbLine
10
30.144861
20
251.854645
30
0.0
11
30.144861
21
251.854645
31
0.0
0
LINE
8
Layer 1
62
4
5
152
100
AcDbEntity
100
AcDbLine
10
49.856319
20
238.140409
30
0.0
11
49.856319
21
237.999298
31
0.0
0
LINE
8
Layer 1
62
4
5
153
100
AcDbEntity
100
AcDbLine
10
49.856319
20
237.999298
30
0.0
11
49.856319
21
227.998048
31
0.0
0
LINE
8
Layer 1
62
4
5
154
100
AcDbEntity
100
AcDbLine
10
49.856319
20
227.998048
30
0.0
11
49.856319
21
227.856937
31
0.0
0
LINE
8
Layer 1
62
4
5
155
100
AcDbEntity
100
AcDbLine
10
49.856319
20
227.856937
30
0.0
11
49.997431
21
227.856937
31
0.0
0
LINE
8
Layer 1
62
4
5
156
100
AcDbEntity
100
AcDbLine
10
49.997431
20
227.856937
30
0.0
11
54.001458
21
227.856937
31
0.0
0
LINE
8
Layer 1
62
4
5
157
100
AcDbEntity
100
AcDbLine
10
54.001458
20
227.856937
30
0.0
11
54.142569
21
227.856937
31
0.0
0
LINE
8
Layer 1
62
4
5
158
100
AcDbEntity
100
AcDbLine
10
54.142569
20
227.856937
30
0.0
11
54.142569
21
227.998048
31
0.0
0
LINE
8
Layer 1
62
4
5
159
100
AcDbEntity
100
AcDbLine
10
54.142569
20
227.998048
30
0.0
11
54.142569
21
237.999298
31
0.0
0
LINE
8
Layer 1
62
4
5
15a
100
AcDbEntity
100
AcDbLine
10
54.142569
20
237.999298
30
0.0
11
54.142569
21
238.140409
31
0.0
0
LINE
8
Layer 1
62
4
5
15b
100
AcDbEntity
100
AcDbLine
10
54.142569
20
238.140409
30
0.0
11
54.001458
21
238.140409
31
0.0
0
LINE
8
Layer 1
62
4
5
15c
100
AcDbEntity
100
AcDbLine
10
54.001458
20
238.140409
30
0.0
11
49.997431
21
238.140409
31
0.0
0
LINE
8
Layer 1
62
4
5
15d
100
AcDbEntity
100
AcDbLine
10
49.997431
20
238.140409
30
0.0
11
49.856319
21
238.140409
31
0.0
0
LINE
8
Layer 1
62
4
5
15e
100
AcDbEntity
100
AcDbLine
10
49.856319
20
238.140409
30
0.0
11
49.856319
21
238.140409
31
0.0
0
LINE
8
Layer 1
62
4
5
15f
100
AcDbEntity
100
AcDbLine
10
50.138542
20
237.858187
30
0.0
11
53.860347
21
237.858187
31
0.0
0
LINE
8
Layer 1
62
4
5
160
100
AcDbEntity
100
AcDbLine
10
53.860347
20
237.858187
30
0.0
11
53.860347
21
228.139159
31
0.0
0
LINE
8
Layer 1
62
4
5
161
100
AcDbEntity
100
AcDbLine
10
53.860347
20
228.139159
30
0.0
11
50.138542
21
228.139159
31
0.0
0
LINE
8
Layer 1
62
4
5
162
100
AcDbEntity
100
AcDbLine
10
50.138542
20
228.139159
30
0.0
11
50.138542
21
237.858187
31
0.0
0
LINE
8
Layer 1
62
4
5
163
100
AcDbEntity
100
AcDbLine
10
50.138542
20
237.858187
30
0.0
11
50.138542
21
237.858187
31
0.0
0
LINE
8
Layer 1
62
4
5
164
100
AcDbEntity
100
AcDbLine
10
54.001458
20
218.146729
30
0.0
11
49.997431
21
218.137909
31
0.0
0
LINE
8
Layer 1
62
4
5
165
100
AcDbEntity
100
AcDbLine
10
49.997431
20
218.137909
30
0.0
11
49.856319
21
218.137909
31
0.0
0
LINE
8
Layer 1
62
4
5
166
100
AcDbEntity
100
AcDbLine
10
49.856319
20
218.137909
30
0.0
11
49.856319
21
217.996798
31
0.0
0
LINE
8
Layer 1
62
4
5
167
100
AcDbEntity
100
AcDbLine
10
49.856319
20
217.996798
30
0.0
11
49.856319
21
208.004368
31
0.0
0
LINE
8
Layer 1
62
4
5
168
100
AcDbEntity
100
AcDbLine
10
49.856319
20
208.004368
30
0.0
11
49.856319
21
207.863257
31
0.0
0
LINE
8
Layer 1
62
4
5
169
100
AcDbEntity
100
AcDbLine
10
49.856319
20
207.863257
30
0.0
11
49.997431
21
207.863257
31
0.0
0
LINE
8
Layer 1
62
4
5
16a
100
AcDbEntity
100
AcDbLine
10
49.997431
20
207.863257
30
0.0
11
54.001458
21
207.863257
31
0.0
0
LINE
8
Layer 1
62
4
5
16b
100
AcDbEntity
100
AcDbLine
10
54.001458
20
207.863257
30
0.0
11
54.142569
21
207.863257
31
0.0
0
LINE
8
Layer 1
62
4
5
16c
100
AcDbEntity
100
AcDbLine
10
54.142569
20
207.863257
30
0.0
11
54.142569
21
208.004368
31
0.0
0
LINE
8
Layer 1
62
4
5
16d
100
AcDbEntity
100
AcDbLine
10
54.142569
20
208.004368
30
0.0
11
54.142569
21
218.005618
31
0.0
0
LINE
8
Layer 1
62
4
5
16e
100
AcDbEntity
100
AcDbLine
10
54.142569
20
218.005618
30
0.0
11
54.142569
21
218.146729
31
0.0
0
LINE
8
Layer 1
62
4
5
16f
100
AcDbEntity
100
AcDbLine
10
54.142569
20
218.146729
30
0.0
11
54.001458
21
218.146729
31
0.0
0
LINE
8
Layer 1
62
4
5
170
100
AcDbEntity
100
AcDbLine
10
54.001458
20
218.146729
30
0.0
11
54.001458
21
218.146729
31
0.0
0
LINE
8
Layer 1
62
4
5
171
100
AcDbEntity
100
AcDbLine
10
53.860347
20
217.864507
30
0.0
11
53.860347
21
208.145479
31
0.0
0
LINE
8
Layer 1
62
4
5
172
100
AcDbEntity
100
AcDbLine
10
53.860347
20
208.145479
30
0.0
11
50.138542
21
208.145479
31
0.0
0
LINE
8
Layer 1
62
4
5
173
100
AcDbEntity
100
AcDbLine
10
50.138542
20
208.145479
30
0.0
11
50.138542
21
217.855687
31
0.0
0
LINE
8
Layer 1
62
4
5
174
100
AcDbEntity
100
AcDbLine
10
50.138542
20
217.855687
30
0.0
11
53.860347
21
217.864507
31
0.0
0
LINE
8
Layer 1
62
4
5
175
100
AcDbEntity
100
AcDbLine
10
53.860347
20
217.864507
30
0.0
11
53.860347
21
217.864507
31
0.0
0
LINE
8
Layer 1
62
4
5
176
100
AcDbEntity
100
AcDbLine
10
149.860000
20
238.140409
30
0.0
11
149.860000
21
237.999298
31
0.0
0
LINE
8
Layer 1
62
4
5
177
100
AcDbEntity
100
AcDbLine
10
149.860000
20
237.999298
30
0.0
11
149.860000
21
227.998048
31
0.0
0
LINE
8
Layer 1
62
4
5
178
100
AcDbEntity
100
AcDbLine
10
149.860000
20
227.998048
30
0.0
11
149.860000
21
227.856937
31
0.0
0
LINE
8
Layer 1
62
4
5
179
100
AcDbEntity
100
AcDbLine
10
149.860000
20
227.856937
30
0.0
11
150.001111
21
227.856937
31
0.0
0
LINE
8
Layer 1
62
4
5
17a
100
AcDbEntity
100
AcDbLine
10
150.001111
20
227.856937
30
0.0
11
153.996319
21
227.856937
31
0.0
0
LINE
8
Layer 1
62
4
5
17b
100
AcDbEntity
100
AcDbLine
10
153.996319
20
227.856937
30
0.0
11
154.137431
21
227.856937
31
0.0
0
LINE
8
Layer 1
62
4
5
17c
100
AcDbEntity
100
AcDbLine
10
154.137431
20
227.856937
30
0.0
11
154.137431
21
227.998048
31
0.0
0
LINE
8
Layer 1
62
4
5
17d
100
AcDbEntity
100
AcDbLine
10
154.137431
20
227.998048
30
0.0
11
154.137431
21
237.999298
31
0.0
0
LINE
8
Layer 1
62
4
5
17e
100
AcDbEntity
100
AcDbLine
10
154.137431
20
237.999298
30
0.0
11
154.137431
21
238.140409
31
0.0
0
LINE
8
Layer 1
62
4
5
17f
100
AcDbEntity
100
AcDbLine
10
154.137431
20
238.140409
30
0.0
11
154.005139
21
238.140409
31
0.0
0
LINE
8
Layer 1
62
4
5
180
100
AcDbEntity
100
AcDbLine
10
154.005139
20
238.140409
30
0.0
11
150.001111
21
238.140409
31
0.0
0
LINE
8
Layer 1
62
4
5
181
100
AcDbEntity
100
AcDbLine
10
150.001111
20
238.140409
30
0.0
11
149.860000
21
238.140409
31
0.0
0
LINE
8
Layer 1
62
4
5
182
100
AcDbEntity
100
AcDbLine
10
149.860000
20
238.140409
30
0.0
11
149.860000
21
238.140409
31
0.0
0
LINE
8
Layer 1
62
4
5
183
100
AcDbEntity
100
AcDbLine
10
150.142222
20
237.858187
30
0.0
11
153.855208
21
237.858187
31
0.0
0
LINE
8
Layer 1
62
4
5
184
100
AcDbEntity
100
AcDbLine
10
153.855208
20
237.858187
30
0.0
11
153.855208
21
228.139159
31
0.0
0
LINE
8
Layer 1
62
4
5
185
100
AcDbEntity
100
AcDbLine
10
153.855208
20
228.139159
30
0.0
11
150.142222
21
228.139159
31
0.0
0
LINE
8
Layer 1
62
4
5
186
100
AcDbEntity
100
AcDbLine
10
150.142222
20
228.139159
30
0.0
11
150.142222
21
237.858187
31
0.0
0
LINE
8
Layer 1
62
4
5
187
100
AcDbEntity
100
AcDbLine
10
150.142222
20
237.858187
30
0.0
11
150.142222
21
237.858187
31
0.0
0
LINE
8
Layer 1
62
4
5
188
100
AcDbEntity
100
AcDbLine
10
153.996319
20
218.146729
30
0.0
11
150.001111
21
218.137909
31
0.0
0
LINE
8
Layer 1
62
4
5
189
100
AcDbEntity
100
AcDbLine
10
150.001111
20
218.137909
30
0.0
11
149.860000
21
218.137909
31
0.0
0
LINE
8
Layer 1
62
4
5
18a
100
AcDbEntity
100
AcDbLine
10
149.860000
20
218.137909
30
0.0
11
149.860000
21
217.996798
31
0.0
0
LINE
8
Layer 1
62
4
5
18b
100
AcDbEntity
100
AcDbLine
10
149.860000
20
217.996798
30
0.0
11
149.860000
21
208.004368
31
0.0
0
LINE
8
Layer 1
62
4
5
18c
100
AcDbEntity
100
AcDbLine
10
149.860000
20
208.004368
30
0.0
11
149.860000
21
207.863257
31
0.0
0
LINE
8
Layer 1
62
4
5
18d
100
AcDbEntity
100
AcDbLine
10
149.860000
20
207.863257
30
0.0
11
150.001111
21
207.863257
31
0.0
0
LINE
8
Layer 1
62
4
5
18e
100
AcDbEntity
100
AcDbLine
10
150.001111
20
207.863257
30
0.0
11
153.996319
21
207.863257
31
0.0
0
LINE
8
Layer 1
62
4
5
18f
100
AcDbEntity
100
AcDbLine
10
153.996319
20
207.863257
30
0.0
11
154.137431
21
207.854437
31
0.0
0
LINE
8
Layer 1
62
4
5
190
100
AcDbEntity
100
AcDbLine
10
154.137431
20
207.854437
30
0.0
11
154.137431
21
208.004368
31
0.0
0
LINE
8
Layer 1
62
4
5
191
100
AcDbEntity
100
AcDbLine
10
154.137431
20
208.004368
30
0.0
11
154.137431
21
218.005618
31
0.0
0
LINE
8
Layer 1
62
4
5
192
100
AcDbEntity
100
AcDbLine
10
154.137431
20
218.005618
30
0.0
11
154.137431
21
218.146729
31
0.0
0
LINE
8
Layer 1
62
4
5
193
100
AcDbEntity
100
AcDbLine
10
154.137431
20
218.146729
30
0.0
11
153.996319
21
218.146729
31
0.0
0
LINE
8
Layer 1
62
4
5
194
100
AcDbEntity
100
AcDbLine
10
153.996319
20
218.146729
30
0.0
11
153.996319
21
218.146729
31
0.0
0
LINE
8
Layer 1
62
4
5
195
100
AcDbEntity
100
AcDbLine
10
153.855208
20
217.864507
30
0.0
11
153.855208
21
208.145479
31
0.0
0
LINE
8
Layer 1
62
4
5
196
100
AcDbEntity
100
AcDbLine
10
153.855208
20
208.145479
30
0.0
11
150.142222
21
208.145479
31
0.0
0
LINE
8
Layer 1
62
4
5
197
100
AcDbEntity
100
AcDbLine
10
150.142222
20
208.145479
30
0.0
11
150.142222
21
217.855687
31
0.0
0
LINE
8
Layer 1
62
4
5
198
100
AcDbEntity
100
AcDbLine
10
150.142222
20
217.855687
30
0.0
11
153.855208
21
217.864507
31
0.0
0
LINE
8
Layer 1
62
4
5
199
100
AcDbEntity
100
AcDbLine
10
153.855208
20
217.864507
30
0.0
11
153.855208
21
217.864507
31
0.0
0
LINE
8
Layer 1
62
4
5
19a
100
AcDbEntity
100
AcDbLine
10
163.999700
20
240.135876
30
0.0
11
163.166877
21
239.968377
31
0.0
0
LINE
8
Layer 1
62
4
5
19b
100
AcDbEntity
100
AcDbLine
10
163.166877
20
239.968377
30
0.0
11
162.485507
21
239.511354
31
0.0
0
LINE
8
Layer 1
62
4
5
19c
100
AcDbEntity
100
AcDbLine
10
162.485507
20
239.511354
30
0.0
11
162.025452
21
238.833015
31
0.0
0
LINE
8
Layer 1
62
4
5
19d
100
AcDbEntity
100
AcDbLine
10
162.025452
20
238.833015
30
0.0
11
161.856575
21
238.001570
31
0.0
0
LINE
8
Layer 1
62
4
5
19e
100
AcDbEntity
100
AcDbLine
10
161.856575
20
238.001570
30
0.0
11
162.025452
21
237.168747
31
0.0
0
LINE
8
Layer 1
62
4
5
19f
100
AcDbEntity
100
AcDbLine
10
162.025452
20
237.168747
30
0.0
11
162.485507
21
236.487377
31
0.0
0
LINE
8
Layer 1
62
4
5
1a0
100
AcDbEntity
100
AcDbLine
10
162.485507
20
236.487377
30
0.0
11
163.166877
21
236.027322
31
0.0
0
LINE
8
Layer 1
62
4
5
1a1
100
AcDbEntity
100
AcDbLine
10
163.166877
20
236.027322
30
0.0
11
163.999700
21
235.858445
31
0.0
0
LINE
8
Layer 1
62
4
5
1a2
100
AcDbEntity
100
AcDbLine
10
163.999700
20
235.858445
30
0.0
11
164.831146
21
236.027322
31
0.0
0
LINE
8
Layer 1
62
4
5
1a3
100
AcDbEntity
100
AcDbLine
10
164.831146
20
236.027322
30
0.0
11
165.509485
21
236.487377
31
0.0
0
LINE
8
Layer 1
62
4
5
1a4
100
AcDbEntity
100
AcDbLine
10
165.509485
20
236.487377
30
0.0
11
165.966508
21
237.168747
31
0.0
0
LINE
8
Layer 1
62
4
5
1a5
100
AcDbEntity
100
AcDbLine
10
165.966508
20
237.168747
30
0.0
11
166.134006
21
238.001570
31
0.0
0
LINE
8
Layer 1
62
4
5
1a6
100
AcDbEntity
100
AcDbLine
10
166.134006
20
238.001570
30
0.0
11
165.966507
21
238.833015
31
0.0
0
LINE
8
Layer 1
62
4
5
1a7
100
AcDbEntity
100
AcDbLine
10
165.966507
20
238.833015
30
0.0
11
165.509484
21
239.511353
31
0.0
0
LINE
8
Layer 1
62
4
5
1a8
100
AcDbEntity
100
AcDbLine
10
165.509484
20
239.511353
30
0.0
11
164.831145
21
239.968376
31
0.0
0
LINE
8
Layer 1
62
4
5
1a9
100
AcDbEntity
100
AcDbLine
10
164.831145
20
239.968376
30
0.0
11
163.999700
21
240.135876
31
0.0
0
LINE
8
Layer 1
62
4
5
1aa
100
AcDbEntity
100
AcDbLine
10
163.999700
20
240.135876
30
0.0
11
163.999700
21
240.135876
31
0.0
0
LINE
8
Layer 1
62
4
5
1ab
100
AcDbEntity
100
AcDbLine
10
163.999700
20
239.853653
30
0.0
11
164.722628
21
239.708778
31
0.0
0
LINE
8
Layer 1
62
4
5
1ac
100
AcDbEntity
100
AcDbLine
10
164.722628
20
239.708778
30
0.0
11
165.311111
21
239.312980
31
0.0
0
LINE
8
Layer 1
62
4
5
1ad
100
AcDbEntity
100
AcDbLine
10
165.311111
20
239.312980
30
0.0
11
165.706909
21
238.724498
31
0.0
0
LINE
8
Layer 1
62
4
5
1ae
100
AcDbEntity
100
AcDbLine
10
165.706909
20
238.724498
30
0.0
11
165.851784
21
238.001570
31
0.0
0
LINE
8
Layer 1
62
4
5
1af
100
AcDbEntity
100
AcDbLine
10
165.851784
20
238.001570
30
0.0
11
165.706910
21
237.277264
31
0.0
0
LINE
8
Layer 1
62
4
5
1b0
100
AcDbEntity
100
AcDbLine
10
165.706910
20
237.277264
30
0.0
11
165.311112
21
236.685750
31
0.0
0
LINE
8
Layer 1
62
4
5
1b1
100
AcDbEntity
100
AcDbLine
10
165.311112
20
236.685750
30
0.0
11
164.722629
21
236.286920
31
0.0
0
LINE
8
Layer 1
62
4
5
1b2
100
AcDbEntity
100
AcDbLine
10
164.722629
20
236.286920
30
0.0
11
163.999700
21
236.140667
31
0.0
0
LINE
8
Layer 1
62
4
5
1b3
100
AcDbEntity
100
AcDbLine
10
163.999700
20
236.140667
30
0.0
11
163.275394
21
236.286920
31
0.0
0
LINE
8
Layer 1
62
4
5
1b4
100
AcDbEntity
100
AcDbLine
10
163.275394
20
236.286920
30
0.0
11
162.683880
21
236.685750
31
0.0
0
LINE
8
Layer 1
62
4
5
1b5
100
AcDbEntity
100
AcDbLine
10
162.683880
20
236.685750
30
0.0
11
162.285050
21
237.277264
31
0.0
0
LINE
8
Layer 1
62
4
5
1b6
100
AcDbEntity
100
AcDbLine
10
162.285050
20
237.277264
30
0.0
11
162.138797
21
238.001570
31
0.0
0
LINE
8
Layer 1
62
4
5
1b7
100
AcDbEntity
100
AcDbLine
10
162.138797
20
238.001570
30
0.0
11
162.285050
21
238.724498
31
0.0
0
LINE
8
Layer 1
62
4
5
1b8
100
AcDbEntity
100
AcDbLine
10
162.285050
20
238.724498
30
0.0
11
162.683880
21
239.312981
31
0.0
0
LINE
8
Layer 1
62
4
5
1b9
100
AcDbEntity
100
AcDbLine
10
162.683880
20
239.312981
30
0.0
11
163.275394
21
239.708779
31
0.0
0
LINE
8
Layer 1
62
4
5
1ba
100
AcDbEntity
100
AcDbLine
10
163.275394
20
239.708779
30
0.0
11
163.999700
21
239.853653
31
0.0
0
LINE
8
Layer 1
62
4
5
1bb
100
AcDbEntity
100
AcDbLine
10
163.999700
20
239.853653
30
0.0
11
163.999700
21
239.853653
31
0.0
0
LINE
8
Layer 1
62
4
5
1bc
100
AcDbEntity
100
AcDbLine
10
163.999700
20
210.140316
30
0.0
11
163.166877
21
209.972817
31
0.0
0
LINE
8
Layer 1
62
4
5
1bd
100
AcDbEntity
100
AcDbLine
10
163.166877
20
209.972817
30
0.0
11
162.485507
21
209.515794
31
0.0
0
LINE
8
Layer 1
62
4
5
1be
100
AcDbEntity
100
AcDbLine
10
162.485507
20
209.515794
30
0.0
11
162.025452
21
208.837455
31
0.0
0
LINE
8
Layer 1
62
4
5
1bf
100
AcDbEntity
100
AcDbLine
10
162.025452
20
208.837455
30
0.0
11
161.856575
21
208.006010
31
0.0
0
LINE
8
Layer 1
62
4
5
1c0
100
AcDbEntity
100
AcDbLine
10
161.856575
20
208.006010
30
0.0
11
162.025452
21
207.173187
31
0.0
0
LINE
8
Layer 1
62
4
5
1c1
100
AcDbEntity
100
AcDbLine
10
162.025452
20
207.173187
30
0.0
11
162.485507
21
206.491817
31
0.0
0
LINE
8
Layer 1
62
4
5
1c2
100
AcDbEntity
100
AcDbLine
10
162.485507
20
206.491817
30
0.0
11
163.166877
21
206.031762
31
0.0
0
LINE
8
Layer 1
62
4
5
1c3
100
AcDbEntity
100
AcDbLine
10
163.166877
20
206.031762
30
0.0
11
163.999700
21
205.862885
31
0.0
0
LINE
8
Layer 1
62
4
5
1c4
100
AcDbEntity
100
AcDbLine
10
163.999700
20
205.862885
30
0.0
11
164.831146
21
206.031762
31
0.0
0
LINE
8
Layer 1
62
4
5
1c5
100
AcDbEntity
100
AcDbLine
10
164.831146
20
206.031762
30
0.0
11
165.509485
21
206.491817
31
0.0
0
LINE
8
Layer 1
62
4
5
1c6
100
AcDbEntity
100
AcDbLine
10
165.509485
20
206.491817
30
0.0
11
165.966508
21
207.173187
31
0.0
0
LINE
8
Layer 1
62
4
5
1c7
100
AcDbEntity
100
AcDbLine
10
165.966508
20
207.173187
30
0.0
11
166.134006
21
208.006010
31
0.0
0
LINE
8
Layer 1
62
4
5
1c8
100
AcDbEntity
100
AcDbLine
10
166.134006
20
208.006010
30
0.0
11
165.966507
21
208.837455
31
0.0
0
LINE
8
Layer 1
62
4
5
1c9
100
AcDbEntity
100
AcDbLine
10
165.966507
20
208.837455
30
0.0
11
165.509484
21
209.515793
31
0.0
0
LINE
8
Layer 1
62
4
5
1ca
100
AcDbEntity
100
AcDbLine
10
165.509484
20
209.515793
30
0.0
11
164.831145
21
209.972816
31
0.0
0
LINE
8
Layer 1
62
4
5
1cb
100
AcDbEntity
100
AcDbLine
10
164.831145
20
209.972816
30
0.0
11
163.999700
21
210.140316
31
0.0
0
LINE
8
Layer 1
62
4
5
1cc
100
AcDbEntity
100
AcDbLine
10
163.999700
20
210.140316
30
0.0
11
163.999700
21
210.140316
31
0.0
0
LINE
8
Layer 1
62
4
5
1cd
100
AcDbEntity
100
AcDbLine
10
163.999700
20
209.858094
30
0.0
11
164.722628
21
209.713218
31
0.0
0
LINE
8
Layer 1
62
4
5
1ce
100
AcDbEntity
100
AcDbLine
10
164.722628
20
209.713218
30
0.0
11
165.311111
21
209.317420
31
0.0
0
LINE
8
Layer 1
62
4
5
1cf
100
AcDbEntity
100
AcDbLine
10
165.311111
20
209.317420
30
0.0
11
165.706909
21
208.728938
31
0.0
0
LINE
8
Layer 1
62
4
5
1d0
100
AcDbEntity
100
AcDbLine
10
165.706909
20
208.728938
30
0.0
11
165.851784
21
208.006010
31
0.0
0
LINE
8
Layer 1
62
4
5
1d1
100
AcDbEntity
100
AcDbLine
10
165.851784
20
208.006010
30
0.0
11
165.706910
21
207.281704
31
0.0
0
LINE
8
Layer 1
62
4
5
1d2
100
AcDbEntity
100
AcDbLine
10
165.706910
20
207.281704
30
0.0
11
165.311112
21
206.690190
31
0.0
0
LINE
8
Layer 1
62
4
5
1d3
100
AcDbEntity
100
AcDbLine
10
165.311112
20
206.690190
30
0.0
11
164.722629
21
206.291360
31
0.0
0
LINE
8
Layer 1
62
4
5
1d4
100
AcDbEntity
100
AcDbLine
10
164.722629
20
206.291360
30
0.0
11
163.999700
21
206.145107
31
0.0
0
LINE
8
Layer 1
62
4
5
1d5
100
AcDbEntity
100
AcDbLine
10
163.999700
20
206.145107
30
0.0
11
163.275394
21
206.291360
31
0.0
0
LINE
8
Layer 1
62
4
5
1d6
100
AcDbEntity
100
AcDbLine
10
163.275394
20
206.291360
30
0.0
11
162.683880
21
206.690190
31
0.0
0
LINE
8
Layer 1
62
4
5
1d7
100
AcDbEntity
100
AcDbLine
10
162.683880
20
206.690190
30
0.0
11
162.285050
21
207.281704
31
0.0
0
LINE
8
Layer 1
62
4
5
1d8
100
AcDbEntity
100
AcDbLine
10
162.285050
20
207.281704
30
0.0
11
162.138797
21
208.006010
31
0.0
0
LINE
8
Layer 1
62
4
5
1d9
100
AcDbEntity
100
AcDbLine
10
162.138797
20
208.006010
30
0.0
11
162.285050
21
208.728938
31
0.0
0
LINE
8
Layer 1
62
4
5
1da
100
AcDbEntity
100
AcDbLine
10
162.285050
20
208.728938
30
0.0
11
162.683880
21
209.317421
31
0.0
0
LINE
8
Layer 1
62
4
5
1db
100
AcDbEntity
100
AcDbLine
10
162.683880
20
209.317421
30
0.0
11
163.275394
21
209.713219
31
0.0
0
LINE
8
Layer 1
62
4
5
1dc
100
AcDbEntity
100
AcDbLine
10
163.275394
20
209.713219
30
0.0
11
163.999700
21
209.858094
31
0.0
0
LINE
8
Layer 1
62
4
5
1dd
100
AcDbEntity
100
AcDbLine
10
163.999700
20
209.858094
30
0.0
11
163.999700
21
209.858094
31
0.0
0
LINE
8
Layer 1
62
4
5
1de
100
AcDbEntity
100
AcDbLine
10
40.022275
20
210.140316
30
0.0
11
39.189452
21
209.972817
31
0.0
0
LINE
8
Layer 1
62
4
5
1df
100
AcDbEntity
100
AcDbLine
10
39.189452
20
209.972817
30
0.0
11
38.508081
21
209.515794
31
0.0
0
LINE
8
Layer 1
62
4
5
1e0
100
AcDbEntity
100
AcDbLine
10
38.508081
20
209.515794
30
0.0
11
38.048026
21
208.837455
31
0.0
0
LINE
8
Layer 1
62
4
5
1e1
100
AcDbEntity
100
AcDbLine
10
38.048026
20
208.837455
30
0.0
11
37.879150
21
208.006010
31
0.0
0
LINE
8
Layer 1
62
4
5
1e2
100
AcDbEntity
100
AcDbLine
10
37.879150
20
208.006010
30
0.0
11
38.048026
21
207.173187
31
0.0
0
LINE
8
Layer 1
62
4
5
1e3
100
AcDbEntity
100
AcDbLine
10
38.048026
20
207.173187
30
0.0
11
38.508081
21
206.491817
31
0.0
0
LINE
8
Layer 1
62
4
5
1e4
100
AcDbEntity
100
AcDbLine
10
38.508081
20
206.491817
30
0.0
11
39.189452
21
206.031762
31
0.0
0
LINE
8
Layer 1
62
4
5
1e5
100
AcDbEntity
100
AcDbLine
10
39.189452
20
206.031762
30
0.0
11
40.022275
21
205.862885
31
0.0
0
LINE
8
Layer 1
62
4
5
1e6
100
AcDbEntity
100
AcDbLine
10
40.022275
20
205.862885
30
0.0
11
40.853720
21
206.031762
31
0.0
0
LINE
8
Layer 1
62
4
5
1e7
100
AcDbEntity
100
AcDbLine
10
40.853720
20
206.031762
30
0.0
11
41.532060
21
206.491817
31
0.0
0
LINE
8
Layer 1
62
4
5
1e8
100
AcDbEntity
100
AcDbLine
10
41.532060
20
206.491817
30
0.0
11
41.989083
21
207.173187
31
0.0
0
LINE
8
Layer 1
62
4
5
1e9
100
AcDbEntity
100
AcDbLine
10
41.989083
20
207.173187
30
0.0
11
42.156580
21
208.006010
31
0.0
0
LINE
8
Layer 1
62
4
5
1ea
100
AcDbEntity
100
AcDbLine
10
42.156580
20
208.006010
30
0.0
11
41.989082
21
208.837455
31
0.0
0
LINE
8
Layer 1
62
4
5
1eb
100
AcDbEntity
100
AcDbLine
10
41.989082
20
208.837455
30
0.0
11
41.532059
21
209.515793
31
0.0
0
LINE
8
Layer 1
62
4
5
1ec
100
AcDbEntity
100
AcDbLine
10
41.532059
20
209.515793
30
0.0
11
40.853720
21
209.972816
31
0.0
0
LINE
8
Layer 1
62
4
5
1ed
100
AcDbEntity
100
AcDbLine
10
40.853720
20
209.972816
30
0.0
11
40.022275
21
210.140316
31
0.0
0
LINE
8
Layer 1
62
4
5
1ee
100
AcDbEntity
100
AcDbLine
10
40.022275
20
210.140316
30
0.0
11
40.022275
21
210.140316
31
0.0
0
LINE
8
Layer 1
62
4
5
1ef
100
AcDbEntity
100
AcDbLine
10
40.022275
20
209.858094
30
0.0
11
40.745203
21
209.713218
31
0.0
0
LINE
8
Layer 1
62
4
5
1f0
100
AcDbEntity
100
AcDbLine
10
40.745203
20
209.713218
30
0.0
11
41.333685
21
209.317420
31
0.0
0
LINE
8
Layer 1
62
4
5
1f1
100
AcDbEntity
100
AcDbLine
10
41.333685
20
209.317420
30
0.0
11
41.729483
21
208.728938
31
0.0
0
LINE
8
Layer 1
62
4
5
1f2
100
AcDbEntity
100
AcDbLine
10
41.729483
20
208.728938
30
0.0
11
41.874358
21
208.006010
31
0.0
0
LINE
8
Layer 1
62
4
5
1f3
100
AcDbEntity
100
AcDbLine
10
41.874358
20
208.006010
30
0.0
11
41.729485
21
207.281704
31
0.0
0
LINE
8
Layer 1
62
4
5
1f4
100
AcDbEntity
100
AcDbLine
10
41.729485
20
207.281704
30
0.0
11
41.333686
21
206.690190
31
0.0
0
LINE
8
Layer 1
62
4
5
1f5
100
AcDbEntity
100
AcDbLine
10
41.333686
20
206.690190
30
0.0
11
40.745203
21
206.291360
31
0.0
0
LINE
8
Layer 1
62
4
5
1f6
100
AcDbEntity
100
AcDbLine
10
40.745203
20
206.291360
30
0.0
11
40.022275
21
206.145107
31
0.0
0
LINE
8
Layer 1
62
4
5
1f7
100
AcDbEntity
100
AcDbLine
10
40.022275
20
206.145107
30
0.0
11
39.297969
21
206.291360
31
0.0
0
LINE
8
Layer 1
62
4
5
1f8
100
AcDbEntity
100
AcDbLine
10
39.297969
20
206.291360
30
0.0
11
38.706455
21
206.690190
31
0.0
0
LINE
8
Layer 1
62
4
5
1f9
100
AcDbEntity
100
AcDbLine
10
38.706455
20
206.690190
30
0.0
11
38.307625
21
207.281704
31
0.0
0
LINE
8
Layer 1
62
4
5
1fa
100
AcDbEntity
100
AcDbLine
10
38.307625
20
207.281704
30
0.0
11
38.161372
21
208.006010
31
0.0
0
LINE
8
Layer 1
62
4
5
1fb
100
AcDbEntity
100
AcDbLine
10
38.161372
20
208.006010
30
0.0
11
38.307625
21
208.728938
31
0.0
0
LINE
8
Layer 1
62
4
5
1fc
100
AcDbEntity
100
AcDbLine
10
38.307625
20
208.728938
30
0.0
11
38.706455
21
209.317421
31
0.0
0
LINE
8
Layer 1
62
4
5
1fd
100
AcDbEntity
100
AcDbLine
10
38.706455
20
209.317421
30
0.0
11
39.297969
21
209.713219
31
0.0
0
LINE
8
Layer 1
62
4
5
1fe
100
AcDbEntity
100
AcDbLine
10
39.297969
20
209.713219
30
0.0
11
40.022275
21
209.858094
31
0.0
0
LINE
8
Layer 1
62
4
5
1ff
100
AcDbEntity
100
AcDbLine
10
40.022275
20
209.858094
30
0.0
11
40.022275
21
209.858094
31
0.0
0
LINE
8
Layer 1
62
4
5
200
100
AcDbEntity
100
AcDbLine
10
40.003118
20
240.136869
30
0.0
11
39.170294
21
239.969370
31
0.0
0
LINE
8
Layer 1
62
4
5
201
100
AcDbEntity
100
AcDbLine
10
39.170294
20
239.969370
30
0.0
11
38.488924
21
239.512347
31
0.0
0
LINE
8
Layer 1
62
4
5
202
100
AcDbEntity
100
AcDbLine
10
38.488924
20
239.512347
30
0.0
11
38.028869
21
238.834009
31
0.0
0
LINE
8
Layer 1
62
4
5
203
100
AcDbEntity
100
AcDbLine
10
38.028869
20
238.834009
30
0.0
11
37.859993
21
238.002564
31
0.0
0
LINE
8
Layer 1
62
4
5
204
100
AcDbEntity
100
AcDbLine
10
37.859993
20
238.002564
30
0.0
11
38.028869
21
237.169740
31
0.0
0
LINE
8
Layer 1
62
4
5
205
100
AcDbEntity
100
AcDbLine
10
38.028869
20
237.169740
30
0.0
11
38.488924
21
236.488370
31
0.0
0
LINE
8
Layer 1
62
4
5
206
100
AcDbEntity
100
AcDbLine
10
38.488924
20
236.488370
30
0.0
11
39.170294
21
236.028315
31
0.0
0
LINE
8
Layer 1
62
4
5
207
100
AcDbEntity
100
AcDbLine
10
39.170294
20
236.028315
30
0.0
11
40.003118
21
235.859439
31
0.0
0
LINE
8
Layer 1
62
4
5
208
100
AcDbEntity
100
AcDbLine
10
40.003118
20
235.859439
30
0.0
11
40.834563
21
236.028315
31
0.0
0
LINE
8
Layer 1
62
4
5
209
100
AcDbEntity
100
AcDbLine
10
40.834563
20
236.028315
30
0.0
11
41.512902
21
236.488370
31
0.0
0
LINE
8
Layer 1
62
4
5
20a
100
AcDbEntity
100
AcDbLine
10
41.512902
20
236.488370
30
0.0
11
41.969926
21
237.169740
31
0.0
0
LINE
8
Layer 1
62
4
5
20b
100
AcDbEntity
100
AcDbLine
10
41.969926
20
237.169740
30
0.0
11
42.137423
21
238.002564
31
0.0
0
LINE
8
Layer 1
62
4
5
20c
100
AcDbEntity
100
AcDbLine
10
42.137423
20
238.002564
30
0.0
11
41.969925
21
238.834008
31
0.0
0
LINE
8
Layer 1
62
4
5
20d
100
AcDbEntity
100
AcDbLine
10
41.969925
20
238.834008
30
0.0
11
41.512901
21
239.512346
31
0.0
0
LINE
8
Layer 1
62
4
5
20e
100
AcDbEntity
100
AcDbLine
10
41.512901
20
239.512346
30
0.0
11
40.834563
21
239.969369
31
0.0
0
LINE
8
Layer 1
62
4
5
20f
100
AcDbEntity
100
AcDbLine
10
40.834563
20
239.969369
30
0.0
11
40.003118
21
240.136869
31
0.0
0
LINE
8
Layer 1
62
4
5
210
100
AcDbEntity
100
AcDbLine
10
40.003118
20
240.136869
30
0.0
11
40.003118
21
240.136869
31
0.0
0
LINE
8
Layer 1
62
4
5
211
100
AcDbEntity
100
AcDbLine
10
40.003118
20
239.854647
30
0.0
11
40.726045
21
239.709771
31
0.0
0
LINE
8
Layer 1
62
4
5
212
100
AcDbEntity
100
AcDbLine
10
40.726045
20
239.709771
30
0.0
11
41.314528
21
239.313973
31
0.0
0
LINE
8
Layer 1
62
4
5
213
100
AcDbEntity
100
AcDbLine
10
41.314528
20
239.313973
30
0.0
11
41.710326
21
238.725491
31
0.0
0
LINE
8
Layer 1
62
4
5
214
100
AcDbEntity
100
AcDbLine
10
41.710326
20
238.725491
30
0.0
11
41.855201
21
238.002564
31
0.0
0
LINE
8
Layer 1
62
4
5
215
100
AcDbEntity
100
AcDbLine
10
41.855201
20
238.002564
30
0.0
11
41.710327
21
237.278258
31
0.0
0
LINE
8
Layer 1
62
4
5
216
100
AcDbEntity
100
AcDbLine
10
41.710327
20
237.278258
30
0.0
11
41.314529
21
236.686743
31
0.0
0
LINE
8
Layer 1
62
4
5
217
100
AcDbEntity
100
AcDbLine
10
41.314529
20
236.686743
30
0.0
11
40.726046
21
236.287914
31
0.0
0
LINE
8
Layer 1
62
4
5
218
100
AcDbEntity
100
AcDbLine
10
40.726046
20
236.287914
30
0.0
11
40.003118
21
236.141661
31
0.0
0
LINE
8
Layer 1
62
4
5
219
100
AcDbEntity
100
AcDbLine
10
40.003118
20
236.141661
30
0.0
11
39.278812
21
236.287914
31
0.0
0
LINE
8
Layer 1
62
4
5
21a
100
AcDbEntity
100
AcDbLine
10
39.278812
20
236.287914
30
0.0
11
38.687297
21
236.686743
31
0.0
0
LINE
8
Layer 1
62
4
5
21b
100
AcDbEntity
100
AcDbLine
10
38.687297
20
236.686743
30
0.0
11
38.288468
21
237.278258
31
0.0
0
LINE
8
Layer 1
62
4
5
21c
100
AcDbEntity
100
AcDbLine
10
38.288468
20
237.278258
30
0.0
11
38.142215
21
238.002564
31
0.0
0
LINE
8
Layer 1
62
4
5
21d
100
AcDbEntity
100
AcDbLine
10
38.142215
20
238.002564
30
0.0
11
38.288468
21
238.725491
31
0.0
0
LINE
8
Layer 1
62
4
5
21e
100
AcDbEntity
100
AcDbLine
10
38.288468
20
238.725491
30
0.0
11
38.687297
21
239.313974
31
0.0
0
LINE
8
Layer 1
62
4
5
21f
100
AcDbEntity
100
AcDbLine
10
38.687297
20
239.313974
30
0.0
11
39.278812
21
239.709772
31
0.0
0
LINE
8
Layer 1
62
4
5
220
100
AcDbEntity
100
AcDbLine
10
39.278812
20
239.709772
30
0.0
11
40.003118
21
239.854647
31
0.0
0
LINE
8
Layer 1
62
4
5
221
100
AcDbEntity
100
AcDbLine
10
40.003118
20
239.854647
30
0.0
11
40.003118
21
239.854647
31
0.0
0
LINE
8
Layer 1
62
4
5
222
100
AcDbEntity
100
AcDbLine
10
150.865417
20
195.180895
30
0.0
11
150.865417
21
195.039784
31
0.0
0
LINE
8
Layer 1
62
4
5
223
100
AcDbEntity
100
AcDbLine
10
150.865417
20
195.039784
30
0.0
11
150.865417
21
191.141590
31
0.0
0
LINE
8
Layer 1
62
4
5
224
100
AcDbEntity
100
AcDbLine
10
150.865417
20
191.141590
30
0.0
11
131.004028
21
191.141590
31
0.0
0
LINE
8
Layer 1
62
4
5
225
100
AcDbEntity
100
AcDbLine
10
131.004028
20
191.141590
30
0.0
11
130.862917
21
191.141590
31
0.0
0
LINE
8
Layer 1
62
4
5
226
100
AcDbEntity
100
AcDbLine
10
130.862917
20
191.141590
30
0.0
11
130.862917
21
191.000479
31
0.0
0
LINE
8
Layer 1
62
4
5
227
100
AcDbEntity
100
AcDbLine
10
130.862917
20
191.000479
30
0.0
11
130.862917
21
175.002007
31
0.0
0
LINE
8
Layer 1
62
4
5
228
100
AcDbEntity
100
AcDbLine
10
130.862917
20
175.002007
30
0.0
11
130.862917
21
174.860895
31
0.0
0
LINE
8
Layer 1
62
4
5
229
100
AcDbEntity
100
AcDbLine
10
130.862917
20
174.860895
30
0.0
11
131.004028
21
174.860895
31
0.0
0
LINE
8
Layer 1
62
4
5
22a
100
AcDbEntity
100
AcDbLine
10
131.004028
20
174.860895
30
0.0
11
145.009306
21
174.860895
31
0.0
0
LINE
8
Layer 1
62
4
5
22b
100
AcDbEntity
100
AcDbLine
10
145.009306
20
174.860895
30
0.0
11
145.150417
21
174.860895
31
0.0
0
LINE
8
Layer 1
62
4
5
22c
100
AcDbEntity
100
AcDbLine
10
145.150417
20
174.860895
30
0.0
11
145.150417
21
175.002007
31
0.0
0
LINE
8
Layer 1
62
4
5
22d
100
AcDbEntity
100
AcDbLine
10
145.150417
20
175.002007
30
0.0
11
145.150417
21
184.862145
31
0.0
0
LINE
8
Layer 1
62
4
5
22e
100
AcDbEntity
100
AcDbLine
10
145.150417
20
184.862145
30
0.0
11
166.872708
21
184.862145
31
0.0
0
LINE
8
Layer 1
62
4
5
22f
100
AcDbEntity
100
AcDbLine
10
166.872708
20
184.862145
30
0.0
11
166.872708
21
175.002007
31
0.0
0
LINE
8
Layer 1
62
4
5
230
100
AcDbEntity
100
AcDbLine
10
166.872708
20
175.002007
30
0.0
11
166.872708
21
174.860895
31
0.0
0
LINE
8
Layer 1
62
4
5
231
100
AcDbEntity
100
AcDbLine
10
166.872708
20
174.860895
30
0.0
11
167.013819
21
174.860895
31
0.0
0
LINE
8
Layer 1
62
4
5
232
100
AcDbEntity
100
AcDbLine
10
167.013819
20
174.860895
30
0.0
11
177.015069
21
174.860895
31
0.0
0
LINE
8
Layer 1
62
4
5
233
100
AcDbEntity
100
AcDbLine
10
177.015069
20
174.860895
30
0.0
11
177.156181
21
174.860895
31
0.0
0
LINE
8
Layer 1
62
4
5
234
100
AcDbEntity
100
AcDbLine
10
177.156181
20
174.860895
30
0.0
11
177.156181
21
175.002007
31
0.0
0
LINE
8
Layer 1
62
4
5
235
100
AcDbEntity
100
AcDbLine
10
177.156181
20
175.002007
30
0.0
11
177.156181
21
184.862145
31
0.0
0
LINE
8
Layer 1
62
4
5
236
100
AcDbEntity
100
AcDbLine
10
177.156181
20
184.862145
30
0.0
11
190.870417
21
184.862145
31
0.0
0
LINE
8
Layer 1
62
4
5
237
100
AcDbEntity
100
AcDbLine
10
190.870417
20
184.862145
30
0.0
11
190.870417
21
175.002007
31
0.0
0
LINE
8
Layer 1
62
4
5
238
100
AcDbEntity
100
AcDbLine
10
190.870417
20
175.002007
30
0.0
11
190.870417
21
174.860895
31
0.0
0
LINE
8
Layer 1
62
4
5
239
100
AcDbEntity
100
AcDbLine
10
190.870417
20
174.860895
30
0.0
11
191.011528
21
174.860895
31
0.0
0
LINE
8
Layer 1
62
4
5
23a
100
AcDbEntity
100
AcDbLine
10
191.011528
20
174.860895
30
0.0
11
202.009375
21
174.860895
31
0.0
0
LINE
8
Layer 1
62
4
5
23b
100
AcDbEntity
100
AcDbLine
10
202.009375
20
174.860895
30
0.0
11
202.150486
21
174.860895
31
0.0
0
LINE
8
Layer 1
62
4
5
23c
100
AcDbEntity
100
AcDbLine
10
202.150486
20
174.860895
30
0.0
11
202.150486
21
175.002007
31
0.0
0
LINE
8
Layer 1
62
4
5
23d
100
AcDbEntity
100
AcDbLine
10
202.150486
20
175.002007
30
0.0
11
202.150486
21
184.862145
31
0.0
0
LINE
8
Layer 1
62
4
5
23e
100
AcDbEntity
100
AcDbLine
10
202.150486
20
184.862145
30
0.0
11
209.867500
21
184.862145
31
0.0
0
LINE
8
Layer 1
62
4
5
23f
100
AcDbEntity
100
AcDbLine
10
209.867500
20
184.862145
30
0.0
11
209.867500
21
175.002007
31
0.0
0
LINE
8
Layer 1
62
4
5
240
100
AcDbEntity
100
AcDbLine
10
209.867500
20
175.002007
30
0.0
11
209.867500
21
174.860895
31
0.0
0
LINE
8
Layer 1
62
4
5
241
100
AcDbEntity
100
AcDbLine
10
209.867500
20
174.860895
30
0.0
11
210.008611
21
174.860895
31
0.0
0
LINE
8
Layer 1
62
4
5
242
100
AcDbEntity
100
AcDbLine
10
210.008611
20
174.860895
30
0.0
11
227.003681
21
174.860895
31
0.0
0
LINE
8
Layer 1
62
4
5
243
100
AcDbEntity
100
AcDbLine
10
227.003681
20
174.860895
30
0.0
11
227.144792
21
174.860895
31
0.0
0
LINE
8
Layer 1
62
4
5
244
100
AcDbEntity
100
AcDbLine
10
227.144792
20
174.860895
30
0.0
11
227.144792
21
175.002007
31
0.0
0
LINE
8
Layer 1
62
4
5
245
100
AcDbEntity
100
AcDbLine
10
227.144792
20
175.002007
30
0.0
11
227.144792
21
191.000479
31
0.0
0
LINE
8
Layer 1
62
4
5
246
100
AcDbEntity
100
AcDbLine
10
227.144792
20
191.000479
30
0.0
11
227.144792
21
191.141590
31
0.0
0
LINE
8
Layer 1
62
4
5
247
100
AcDbEntity
100
AcDbLine
10
227.144792
20
191.141590
30
0.0
11
227.003681
21
191.141590
31
0.0
0
LINE
8
Layer 1
62
4
5
248
100
AcDbEntity
100
AcDbLine
10
227.003681
20
191.141590
30
0.0
11
211.146319
21
191.141590
31
0.0
0
LINE
8
Layer 1
62
4
5
249
100
AcDbEntity
100
AcDbLine
10
211.146319
20
191.141590
30
0.0
11
211.146319
21
194.995687
31
0.0
0
LINE
8
Layer 1
62
4
5
24a
100
AcDbEntity
100
AcDbLine
10
211.146319
20
194.995687
30
0.0
11
211.146319
21
195.136798
31
0.0
0
LINE
8
Layer 1
62
4
5
24b
100
AcDbEntity
100
AcDbLine
10
211.146319
20
195.136798
30
0.0
11
211.005208
21
195.136798
31
0.0
0
LINE
8
Layer 1
62
4
5
24c
100
AcDbEntity
100
AcDbLine
10
211.005208
20
195.136798
30
0.0
11
191.011528
21
195.136798
31
0.0
0
LINE
8
Layer 1
62
4
5
24d
100
AcDbEntity
100
AcDbLine
10
191.011528
20
195.136798
30
0.0
11
190.870417
21
195.136798
31
0.0
0
LINE
8
Layer 1
62
4
5
24e
100
AcDbEntity
100
AcDbLine
10
190.870417
20
195.136798
30
0.0
11
190.870417
21
194.995687
31
0.0
0
LINE
8
Layer 1
62
4
5
24f
100
AcDbEntity
100
AcDbLine
10
190.870417
20
194.995687
30
0.0
11
190.870417
21
191.141590
31
0.0
0
LINE
8
Layer 1
62
4
5
250
100
AcDbEntity
100
AcDbLine
10
190.870417
20
191.141590
30
0.0
11
171.150139
21
191.141590
31
0.0
0
LINE
8
Layer 1
62
4
5
251
100
AcDbEntity
100
AcDbLine
10
171.150139
20
191.141590
30
0.0
11
171.150139
21
194.995687
31
0.0
0
LINE
8
Layer 1
62
4
5
252
100
AcDbEntity
100
AcDbLine
10
171.150139
20
194.995687
30
0.0
11
171.150139
21
195.136798
31
0.0
0
LINE
8
Layer 1
62
4
5
253
100
AcDbEntity
100
AcDbLine
10
171.150139
20
195.136798
30
0.0
11
171.009028
21
195.136798
31
0.0
0
LINE
8
Layer 1
62
4
5
254
100
AcDbEntity
100
AcDbLine
10
171.009028
20
195.136798
30
0.0
11
151.006528
21
195.180895
31
0.0
0
LINE
8
Layer 1
62
4
5
255
100
AcDbEntity
100
AcDbLine
10
151.006528
20
195.180895
30
0.0
11
150.865417
21
195.180895
31
0.0
0
LINE
8
Layer 1
62
4
5
256
100
AcDbEntity
100
AcDbLine
10
150.865417
20
195.180895
30
0.0
11
150.865417
21
195.180895
31
0.0
0
LINE
8
Layer 1
62
4
5
257
100
AcDbEntity
100
AcDbLine
10
151.147639
20
194.898673
30
0.0
11
170.867917
21
194.854576
31
0.0
0
LINE
8
Layer 1
62
4
5
258
100
AcDbEntity
100
AcDbLine
10
170.867917
20
194.854576
30
0.0
11
170.867917
21
191.000479
31
0.0
0
LINE
8
Layer 1
62
4
5
259
100
AcDbEntity
100
AcDbLine
10
170.867917
20
191.000479
30
0.0
11
170.867917
21
190.859368
31
0.0
0
LINE
8
Layer 1
62
4
5
25a
100
AcDbEntity
100
AcDbLine
10
170.867917
20
190.859368
30
0.0
11
171.009028
21
190.859368
31
0.0
0
LINE
8
Layer 1
62
4
5
25b
100
AcDbEntity
100
AcDbLine
10
171.009028
20
190.859368
30
0.0
11
191.011528
21
190.859368
31
0.0
0
LINE
8
Layer 1
62
4
5
25c
100
AcDbEntity
100
AcDbLine
10
191.011528
20
190.859368
30
0.0
11
191.152639
21
190.859368
31
0.0
0
LINE
8
Layer 1
62
4
5
25d
100
AcDbEntity
100
AcDbLine
10
191.152639
20
190.859368
30
0.0
11
191.152639
21
191.000479
31
0.0
0
LINE
8
Layer 1
62
4
5
25e
100
AcDbEntity
100
AcDbLine
10
191.152639
20
191.000479
30
0.0
11
191.152639
21
194.854576
31
0.0
0
LINE
8
Layer 1
62
4
5
25f
100
AcDbEntity
100
AcDbLine
10
191.152639
20
194.854576
30
0.0
11
210.864097
21
194.854576
31
0.0
0
LINE
8
Layer 1
62
4
5
260
100
AcDbEntity
100
AcDbLine
10
210.864097
20
194.854576
30
0.0
11
210.864097
21
191.000479
31
0.0
0
LINE
8
Layer 1
62
4
5
261
100
AcDbEntity
100
AcDbLine
10
210.864097
20
191.000479
30
0.0
11
210.864097
21
190.859368
31
0.0
0
LINE
8
Layer 1
62
4
5
262
100
AcDbEntity
100
AcDbLine
10
210.864097
20
190.859368
30
0.0
11
211.005208
21
190.859368
31
0.0
0
LINE
8
Layer 1
62
4
5
263
100
AcDbEntity
100
AcDbLine
10
211.005208
20
190.859368
30
0.0
11
226.862569
21
190.859368
31
0.0
0
LINE
8
Layer 1
62
4
5
264
100
AcDbEntity
100
AcDbLine
10
226.862569
20
190.859368
30
0.0
11
226.862569
21
175.143118
31
0.0
0
LINE
8
Layer 1
62
4
5
265
100
AcDbEntity
100
AcDbLine
10
226.862569
20
175.143118
30
0.0
11
210.149722
21
175.143118
31
0.0
0
LINE
8
Layer 1
62
4
5
266
100
AcDbEntity
100
AcDbLine
10
210.149722
20
175.143118
30
0.0
11
210.149722
21
185.003257
31
0.0
0
LINE
8
Layer 1
62
4
5
267
100
AcDbEntity
100
AcDbLine
10
210.149722
20
185.003257
30
0.0
11
210.149722
21
185.144368
31
0.0
0
LINE
8
Layer 1
62
4
5
268
100
AcDbEntity
100
AcDbLine
10
210.149722
20
185.144368
30
0.0
11
210.008611
21
185.144368
31
0.0
0
LINE
8
Layer 1
62
4
5
269
100
AcDbEntity
100
AcDbLine
10
210.008611
20
185.144368
30
0.0
11
202.009375
21
185.144368
31
0.0
0
LINE
8
Layer 1
62
4
5
26a
100
AcDbEntity
100
AcDbLine
10
202.009375
20
185.144368
30
0.0
11
201.868264
21
185.144368
31
0.0
0
LINE
8
Layer 1
62
4
5
26b
100
AcDbEntity
100
AcDbLine
10
201.868264
20
185.144368
30
0.0
11
201.868264
21
185.003257
31
0.0
0
LINE
8
Layer 1
62
4
5
26c
100
AcDbEntity
100
AcDbLine
10
201.868264
20
185.003257
30
0.0
11
201.868264
21
175.143118
31
0.0
0
LINE
8
Layer 1
62
4
5
26d
100
AcDbEntity
100
AcDbLine
10
201.868264
20
175.143118
30
0.0
11
191.152639
21
175.143118
31
0.0
0
LINE
8
Layer 1
62
4
5
26e
100
AcDbEntity
100
AcDbLine
10
191.152639
20
175.143118
30
0.0
11
191.152639
21
185.003257
31
0.0
0
LINE
8
Layer 1
62
4
5
26f
100
AcDbEntity
100
AcDbLine
10
191.152639
20
185.003257
30
0.0
11
191.152639
21
185.144368
31
0.0
0
LINE
8
Layer 1
62
4
5
270
100
AcDbEntity
100
AcDbLine
10
191.152639
20
185.144368
30
0.0
11
191.011528
21
185.144368
31
0.0
0
LINE
8
Layer 1
62
4
5
271
100
AcDbEntity
100
AcDbLine
10
191.011528
20
185.144368
30
0.0
11
177.015069
21
185.144368
31
0.0
0
LINE
8
Layer 1
62
4
5
272
100
AcDbEntity
100
AcDbLine
10
177.015069
20
185.144368
30
0.0
11
176.873958
21
185.144368
31
0.0
0
LINE
8
Layer 1
62
4
5
273
100
AcDbEntity
100
AcDbLine
10
176.873958
20
185.144368
30
0.0
11
176.873958
21
185.003257
31
0.0
0
LINE
8
Layer 1
62
4
5
274
100
AcDbEntity
100
AcDbLine
10
176.873958
20
185.003257
30
0.0
11
176.873958
21
175.143118
31
0.0
0
LINE
8
Layer 1
62
4
5
275
100
AcDbEntity
100
AcDbLine
10
176.873958
20
175.143118
30
0.0
11
167.154931
21
175.143118
31
0.0
0
LINE
8
Layer 1
62
4
5
276
100
AcDbEntity
100
AcDbLine
10
167.154931
20
175.143118
30
0.0
11
167.154931
21
185.003257
31
0.0
0
LINE
8
Layer 1
62
4
5
277
100
AcDbEntity
100
AcDbLine
10
167.154931
20
185.003257
30
0.0
11
167.154931
21
185.144368
31
0.0
0
LINE
8
Layer 1
62
4
5
278
100
AcDbEntity
100
AcDbLine
10
167.154931
20
185.144368
30
0.0
11
167.013819
21
185.144368
31
0.0
0
LINE
8
Layer 1
62
4
5
279
100
AcDbEntity
100
AcDbLine
10
167.013819
20
185.144368
30
0.0
11
145.009306
21
185.144368
31
0.0
0
LINE
8
Layer 1
62
4
5
27a
100
AcDbEntity
100
AcDbLine
10
145.009306
20
185.144368
30
0.0
11
144.868194
21
185.144368
31
0.0
0
LINE
8
Layer 1
62
4
5
27b
100
AcDbEntity
100
AcDbLine
10
144.868194
20
185.144368
30
0.0
11
144.868194
21
185.003257
31
0.0
0
LINE
8
Layer 1
62
4
5
27c
100
AcDbEntity
100
AcDbLine
10
144.868194
20
185.003257
30
0.0
11
144.868194
21
175.143118
31
0.0
0
LINE
8
Layer 1
62
4
5
27d
100
AcDbEntity
100
AcDbLine
10
144.868194
20
175.143118
30
0.0
11
131.145139
21
175.143118
31
0.0
0
LINE
8
Layer 1
62
4
5
27e
100
AcDbEntity
100
AcDbLine
10
131.145139
20
175.143118
30
0.0
11
131.145139
21
190.859368
31
0.0
0
LINE
8
Layer 1
62
4
5
27f
100
AcDbEntity
100
AcDbLine
10
131.145139
20
190.859368
30
0.0
11
151.006528
21
190.859368
31
0.0
0
LINE
8
Layer 1
62
4
5
280
100
AcDbEntity
100
AcDbLine
10
151.006528
20
190.859368
30
0.0
11
151.147639
21
190.859368
31
0.0
0
LINE
8
Layer 1
62
4
5
281
100
AcDbEntity
100
AcDbLine
10
151.147639
20
190.859368
30
0.0
11
151.147639
21
191.000479
31
0.0
0
LINE
8
Layer 1
62
4
5
282
100
AcDbEntity
100
AcDbLine
10
151.147639
20
191.000479
30
0.0
11
151.147639
21
194.898673
31
0.0
0
LINE
8
Layer 1
62
4
5
283
100
AcDbEntity
100
AcDbLine
10
151.147639
20
194.898673
30
0.0
11
151.147639
21
194.898673
31
0.0
0
LINE
8
Layer 1
62
4
5
284
100
AcDbEntity
100
AcDbLine
10
130.854097
20
174.137701
30
0.0
11
130.854097
21
173.996590
31
0.0
0
LINE
8
Layer 1
62
4
5
285
100
AcDbEntity
100
AcDbLine
10
130.854097
20
173.996590
30
0.0
11
130.854097
21
157.989298
31
0.0
0
LINE
8
Layer 1
62
4
5
286
100
AcDbEntity
100
AcDbLine
10
130.854097
20
157.989298
30
0.0
11
130.854097
21
157.848187
31
0.0
0
LINE
8
Layer 1
62
4
5
287
100
AcDbEntity
100
AcDbLine
10
130.854097
20
157.848187
30
0.0
11
130.995208
21
157.848187
31
0.0
0
LINE
8
Layer 1
62
4
5
288
100
AcDbEntity
100
AcDbLine
10
130.995208
20
157.848187
30
0.0
11
150.856597
21
157.848187
31
0.0
0
LINE
8
Layer 1
62
4
5
289
100
AcDbEntity
100
AcDbLine
10
150.856597
20
157.848187
30
0.0
11
150.856597
21
153.994090
31
0.0
0
LINE
8
Layer 1
62
4
5
28a
100
AcDbEntity
100
AcDbLine
10
150.856597
20
153.994090
30
0.0
11
150.856597
21
153.852979
31
0.0
0
LINE
8
Layer 1
62
4
5
28b
100
AcDbEntity
100
AcDbLine
10
150.856597
20
153.852979
30
0.0
11
150.997708
21
153.852979
31
0.0
0
LINE
8
Layer 1
62
4
5
28c
100
AcDbEntity
100
AcDbLine
10
150.997708
20
153.852979
30
0.0
11
171.000208
21
153.852979
31
0.0
0
LINE
8
Layer 1
62
4
5
28d
100
AcDbEntity
100
AcDbLine
10
171.000208
20
153.852979
30
0.0
11
171.141319
21
153.852979
31
0.0
0
LINE
8
Layer 1
62
4
5
28e
100
AcDbEntity
100
AcDbLine
10
171.141319
20
153.852979
30
0.0
11
171.141319
21
153.994090
31
0.0
0
LINE
8
Layer 1
62
4
5
28f
100
AcDbEntity
100
AcDbLine
10
171.141319
20
153.994090
30
0.0
11
171.141319
21
157.857007
31
0.0
0
LINE
8
Layer 1
62
4
5
290
100
AcDbEntity
100
AcDbLine
10
171.141319
20
157.857007
30
0.0
11
190.861597
21
157.857007
31
0.0
0
LINE
8
Layer 1
62
4
5
291
100
AcDbEntity
100
AcDbLine
10
190.861597
20
157.857007
30
0.0
11
190.861597
21
153.994090
31
0.0
0
LINE
8
Layer 1
62
4
5
292
100
AcDbEntity
100
AcDbLine
10
190.861597
20
153.994090
30
0.0
11
190.861597
21
153.852979
31
0.0
0
LINE
8
Layer 1
62
4
5
293
100
AcDbEntity
100
AcDbLine
10
190.861597
20
153.852979
30
0.0
11
191.002708
21
153.852979
31
0.0
0
LINE
8
Layer 1
62
4
5
294
100
AcDbEntity
100
AcDbLine
10
191.002708
20
153.852979
30
0.0
11
210.996389
21
153.852979
31
0.0
0
LINE
8
Layer 1
62
4
5
295
100
AcDbEntity
100
AcDbLine
10
210.996389
20
153.852979
30
0.0
11
211.137500
21
153.852979
31
0.0
0
LINE
8
Layer 1
62
4
5
296
100
AcDbEntity
100
AcDbLine
10
211.137500
20
153.852979
30
0.0
11
211.137500
21
153.994090
31
0.0
0
LINE
8
Layer 1
62
4
5
297
100
AcDbEntity
100
AcDbLine
10
211.137500
20
153.994090
30
0.0
11
211.137500
21
157.857007
31
0.0
0
LINE
8
Layer 1
62
4
5
298
100
AcDbEntity
100
AcDbLine
10
211.137500
20
157.857007
30
0.0
11
226.994861
21
157.857007
31
0.0
0
LINE
8
Layer 1
62
4
5
299
100
AcDbEntity
100
AcDbLine
10
226.994861
20
157.857007
30
0.0
11
227.135972
21
157.857007
31
0.0
0
LINE
8
Layer 1
62
4
5
29a
100
AcDbEntity
100
AcDbLine
10
227.135972
20
157.857007
30
0.0
11
227.135972
21
157.998118
31
0.0
0
LINE
8
Layer 1
62
4
5
29b
100
AcDbEntity
100
AcDbLine
10
227.135972
20
157.998118
30
0.0
11
227.135972
21
173.996590
31
0.0
0
LINE
8
Layer 1
62
4
5
29c
100
AcDbEntity
100
AcDbLine
10
227.135972
20
173.996590
30
0.0
11
227.135972
21
174.137701
31
0.0
0
LINE
8
Layer 1
62
4
5
29d
100
AcDbEntity
100
AcDbLine
10
227.135972
20
174.137701
30
0.0
11
226.994861
21
174.137701
31
0.0
0
LINE
8
Layer 1
62
4
5
29e
100
AcDbEntity
100
AcDbLine
10
226.994861
20
174.137701
30
0.0
11
207.997778
21
174.137701
31
0.0
0
LINE
8
Layer 1
62
4
5
29f
100
AcDbEntity
100
AcDbLine
10
207.997778
20
174.137701
30
0.0
11
207.856667
21
174.137701
31
0.0
0
LINE
8
Layer 1
62
4
5
2a0
100
AcDbEntity
100
AcDbLine
10
207.856667
20
174.137701
30
0.0
11
207.856667
21
173.996590
31
0.0
0
LINE
8
Layer 1
62
4
5
2a1
100
AcDbEntity
100
AcDbLine
10
207.856667
20
173.996590
30
0.0
11
207.856667
21
164.136451
31
0.0
0
LINE
8
Layer 1
62
4
5
2a2
100
AcDbEntity
100
AcDbLine
10
207.856667
20
164.136451
30
0.0
11
192.140417
21
164.136451
31
0.0
0
LINE
8
Layer 1
62
4
5
2a3
100
AcDbEntity
100
AcDbLine
10
192.140417
20
164.136451
30
0.0
11
192.140417
21
173.996590
31
0.0
0
LINE
8
Layer 1
62
4
5
2a4
100
AcDbEntity
100
AcDbLine
10
192.140417
20
173.996590
30
0.0
11
192.140417
21
174.137701
31
0.0
0
LINE
8
Layer 1
62
4
5
2a5
100
AcDbEntity
100
AcDbLine
10
192.140417
20
174.137701
30
0.0
11
191.999306
21
174.137701
31
0.0
0
LINE
8
Layer 1
62
4
5
2a6
100
AcDbEntity
100
AcDbLine
10
191.999306
20
174.137701
30
0.0
11
181.001458
21
174.137701
31
0.0
0
LINE
8
Layer 1
62
4
5
2a7
100
AcDbEntity
100
AcDbLine
10
181.001458
20
174.137701
30
0.0
11
180.860347
21
174.137701
31
0.0
0
LINE
8
Layer 1
62
4
5
2a8
100
AcDbEntity
100
AcDbLine
10
180.860347
20
174.137701
30
0.0
11
180.860347
21
173.996590
31
0.0
0
LINE
8
Layer 1
62
4
5
2a9
100
AcDbEntity
100
AcDbLine
10
180.860347
20
173.996590
30
0.0
11
180.860347
21
164.136451
31
0.0
0
LINE
8
Layer 1
62
4
5
2aa
100
AcDbEntity
100
AcDbLine
10
180.860347
20
164.136451
30
0.0
11
165.144097
21
164.136451
31
0.0
0
LINE
8
Layer 1
62
4
5
2ab
100
AcDbEntity
100
AcDbLine
10
165.144097
20
164.136451
30
0.0
11
165.144097
21
173.996590
31
0.0
0
LINE
8
Layer 1
62
4
5
2ac
100
AcDbEntity
100
AcDbLine
10
165.144097
20
173.996590
30
0.0
11
165.144097
21
174.137701
31
0.0
0
LINE
8
Layer 1
62
4
5
2ad
100
AcDbEntity
100
AcDbLine
10
165.144097
20
174.137701
30
0.0
11
165.002986
21
174.137701
31
0.0
0
LINE
8
Layer 1
62
4
5
2ae
100
AcDbEntity
100
AcDbLine
10
165.002986
20
174.137701
30
0.0
11
158.000347
21
174.137701
31
0.0
0
LINE
8
Layer 1
62
4
5
2af
100
AcDbEntity
100
AcDbLine
10
158.000347
20
174.137701
30
0.0
11
157.859236
21
174.137701
31
0.0
0
LINE
8
Layer 1
62
4
5
2b0
100
AcDbEntity
100
AcDbLine
10
157.859236
20
174.137701
30
0.0
11
157.859236
21
173.996590
31
0.0
0
LINE
8
Layer 1
62
4
5
2b1
100
AcDbEntity
100
AcDbLine
10
157.859236
20
173.996590
30
0.0
11
157.859236
21
164.136451
31
0.0
0
LINE
8
Layer 1
62
4
5
2b2
100
AcDbEntity
100
AcDbLine
10
157.859236
20
164.136451
30
0.0
11
155.998333
21
164.136451
31
0.0
0
LINE
8
Layer 1
62
4
5
2b3
100
AcDbEntity
100
AcDbLine
10
155.998333
20
164.136451
30
0.0
11
142.142986
21
164.145270
31
0.0
0
LINE
8
Layer 1
62
4
5
2b4
100
AcDbEntity
100
AcDbLine
10
142.142986
20
164.145270
30
0.0
11
142.142986
21
173.996590
31
0.0
0
LINE
8
Layer 1
62
4
5
2b5
100
AcDbEntity
100
AcDbLine
10
142.142986
20
173.996590
30
0.0
11
142.142986
21
174.137701
31
0.0
0
LINE
8
Layer 1
62
4
5
2b6
100
AcDbEntity
100
AcDbLine
10
142.142986
20
174.137701
30
0.0
11
142.001875
21
174.137701
31
0.0
0
LINE
8
Layer 1
62
4
5
2b7
100
AcDbEntity
100
AcDbLine
10
142.001875
20
174.137701
30
0.0
11
130.995208
21
174.137701
31
0.0
0
LINE
8
Layer 1
62
4
5
2b8
100
AcDbEntity
100
AcDbLine
10
130.995208
20
174.137701
30
0.0
11
130.854097
21
174.137701
31
0.0
0
LINE
8
Layer 1
62
4
5
2b9
100
AcDbEntity
100
AcDbLine
10
130.854097
20
174.137701
30
0.0
11
130.854097
21
174.137701
31
0.0
0
LINE
8
Layer 1
62
4
5
2ba
100
AcDbEntity
100
AcDbLine
10
131.136319
20
173.855479
30
0.0
11
141.860764
21
173.855479
31
0.0
0
LINE
8
Layer 1
62
4
5
2bb
100
AcDbEntity
100
AcDbLine
10
141.860764
20
173.855479
30
0.0
11
141.860764
21
164.004159
31
0.0
0
LINE
8
Layer 1
62
4
5
2bc
100
AcDbEntity
100
AcDbLine
10
141.860764
20
164.004159
30
0.0
11
141.860764
21
163.863048
31
0.0
0
LINE
8
Layer 1
62
4
5
2bd
100
AcDbEntity
100
AcDbLine
10
141.860764
20
163.863048
30
0.0
11
142.001875
21
163.863048
31
0.0
0
LINE
8
Layer 1
62
4
5
2be
100
AcDbEntity
100
AcDbLine
10
142.001875
20
163.863048
30
0.0
11
155.998333
21
163.854229
31
0.0
0
LINE
8
Layer 1
62
4
5
2bf
100
AcDbEntity
100
AcDbLine
10
155.998333
20
163.854229
30
0.0
11
158.000347
21
163.854229
31
0.0
0
LINE
8
Layer 1
62
4
5
2c0
100
AcDbEntity
100
AcDbLine
10
158.000347
20
163.854229
30
0.0
11
158.141458
21
163.854229
31
0.0
0
LINE
8
Layer 1
62
4
5
2c1
100
AcDbEntity
100
AcDbLine
10
158.141458
20
163.854229
30
0.0
11
158.141458
21
163.995340
31
0.0
0
LINE
8
Layer 1
62
4
5
2c2
100
AcDbEntity
100
AcDbLine
10
158.141458
20
163.995340
30
0.0
11
158.141458
21
173.855479
31
0.0
0
LINE
8
Layer 1
62
4
5
2c3
100
AcDbEntity
100
AcDbLine
10
158.141458
20
173.855479
30
0.0
11
164.861875
21
173.855479
31
0.0
0
LINE
8
Layer 1
62
4
5
2c4
100
AcDbEntity
100
AcDbLine
10
164.861875
20
173.855479
30
0.0
11
164.861875
21
163.995340
31
0.0
0
LINE
8
Layer 1
62
4
5
2c5
100
AcDbEntity
100
AcDbLine
10
164.861875
20
163.995340
30
0.0
11
164.861875
21
163.854229
31
0.0
0
LINE
8
Layer 1
62
4
5
2c6
100
AcDbEntity
100
AcDbLine
10
164.861875
20
163.854229
30
0.0
11
165.002986
21
163.854229
31
0.0
0
LINE
8
Layer 1
62
4
5
2c7
100
AcDbEntity
100
AcDbLine
10
165.002986
20
163.854229
30
0.0
11
181.001458
21
163.854229
31
0.0
0
LINE
8
Layer 1
62
4
5
2c8
100
AcDbEntity
100
AcDbLine
10
181.001458
20
163.854229
30
0.0
11
181.142569
21
163.854229
31
0.0
0
LINE
8
Layer 1
62
4
5
2c9
100
AcDbEntity
100
AcDbLine
10
181.142569
20
163.854229
30
0.0
11
181.142569
21
163.995340
31
0.0
0
LINE
8
Layer 1
62
4
5
2ca
100
AcDbEntity
100
AcDbLine
10
181.142569
20
163.995340
30
0.0
11
181.142569
21
173.855479
31
0.0
0
LINE
8
Layer 1
62
4
5
2cb
100
AcDbEntity
100
AcDbLine
10
181.142569
20
173.855479
30
0.0
11
191.858194
21
173.855479
31
0.0
0
LINE
8
Layer 1
62
4
5
2cc
100
AcDbEntity
100
AcDbLine
10
191.858194
20
173.855479
30
0.0
11
191.858194
21
163.995340
31
0.0
0
LINE
8
Layer 1
62
4
5
2cd
100
AcDbEntity
100
AcDbLine
10
191.858194
20
163.995340
30
0.0
11
191.858194
21
163.854229
31
0.0
0
LINE
8
Layer 1
62
4
5
2ce
100
AcDbEntity
100
AcDbLine
10
191.858194
20
163.854229
30
0.0
11
191.999306
21
163.854229
31
0.0
0
LINE
8
Layer 1
62
4
5
2cf
100
AcDbEntity
100
AcDbLine
10
191.999306
20
163.854229
30
0.0
11
207.997778
21
163.854229
31
0.0
0
LINE
8
Layer 1
62
4
5
2d0
100
AcDbEntity
100
AcDbLine
10
207.997778
20
163.854229
30
0.0
11
208.138889
21
163.854229
31
0.0
0
LINE
8
Layer 1
62
4
5
2d1
100
AcDbEntity
100
AcDbLine
10
208.138889
20
163.854229
30
0.0
11
208.138889
21
163.995340
31
0.0
0
LINE
8
Layer 1
62
4
5
2d2
100
AcDbEntity
100
AcDbLine
10
208.138889
20
163.995340
30
0.0
11
208.138889
21
173.855479
31
0.0
0
LINE
8
Layer 1
62
4
5
2d3
100
AcDbEntity
100
AcDbLine
10
208.138889
20
173.855479
30
0.0
11
226.853750
21
173.855479
31
0.0
0
LINE
8
Layer 1
62
4
5
2d4
100
AcDbEntity
100
AcDbLine
10
226.853750
20
173.855479
30
0.0
11
226.853750
21
158.139229
31
0.0
0
LINE
8
Layer 1
62
4
5
2d5
100
AcDbEntity
100
AcDbLine
10
226.853750
20
158.139229
30
0.0
11
210.996389
21
158.139229
31
0.0
0
LINE
8
Layer 1
62
4
5
2d6
100
AcDbEntity
100
AcDbLine
10
210.996389
20
158.139229
30
0.0
11
210.855278
21
158.139229
31
0.0
0
LINE
8
Layer 1
62
4
5
2d7
100
AcDbEntity
100
AcDbLine
10
210.855278
20
158.139229
30
0.0
11
210.855278
21
157.998118
31
0.0
0
LINE
8
Layer 1
62
4
5
2d8
100
AcDbEntity
100
AcDbLine
10
210.855278
20
157.998118
30
0.0
11
210.855278
21
154.135201
31
0.0
0
LINE
8
Layer 1
62
4
5
2d9
100
AcDbEntity
100
AcDbLine
10
210.855278
20
154.135201
30
0.0
11
191.143819
21
154.135201
31
0.0
0
LINE
8
Layer 1
62
4
5
2da
100
AcDbEntity
100
AcDbLine
10
191.143819
20
154.135201
30
0.0
11
191.143819
21
157.998118
31
0.0
0
LINE
8
Layer 1
62
4
5
2db
100
AcDbEntity
100
AcDbLine
10
191.143819
20
157.998118
30
0.0
11
191.143819
21
158.139229
31
0.0
0
LINE
8
Layer 1
62
4
5
2dc
100
AcDbEntity
100
AcDbLine
10
191.143819
20
158.139229
30
0.0
11
191.002708
21
158.139229
31
0.0
0
LINE
8
Layer 1
62
4
5
2dd
100
AcDbEntity
100
AcDbLine
10
191.002708
20
158.139229
30
0.0
11
171.000208
21
158.139229
31
0.0
0
LINE
8
Layer 1
62
4
5
2de
100
AcDbEntity
100
AcDbLine
10
171.000208
20
158.139229
30
0.0
11
170.859097
21
158.139229
31
0.0
0
LINE
8
Layer 1
62
4
5
2df
100
AcDbEntity
100
AcDbLine
10
170.859097
20
158.139229
30
0.0
11
170.859097
21
157.998118
31
0.0
0
LINE
8
Layer 1
62
4
5
2e0
100
AcDbEntity
100
AcDbLine
10
170.859097
20
157.998118
30
0.0
11
170.859097
21
154.135201
31
0.0
0
LINE
8
Layer 1
62
4
5
2e1
100
AcDbEntity
100
AcDbLine
10
170.859097
20
154.135201
30
0.0
11
151.138819
21
154.135201
31
0.0
0
LINE
8
Layer 1
62
4
5
2e2
100
AcDbEntity
100
AcDbLine
10
151.138819
20
154.135201
30
0.0
11
151.138819
21
157.989298
31
0.0
0
LINE
8
Layer 1
62
4
5
2e3
100
AcDbEntity
100
AcDbLine
10
151.138819
20
157.989298
30
0.0
11
151.138819
21
158.130409
31
0.0
0
LINE
8
Layer 1
62
4
5
2e4
100
AcDbEntity
100
AcDbLine
10
151.138819
20
158.130409
30
0.0
11
150.997708
21
158.130409
31
0.0
0
LINE
8
Layer 1
62
4
5
2e5
100
AcDbEntity
100
AcDbLine
10
150.997708
20
158.130409
30
0.0
11
131.136319
21
158.130409
31
0.0
0
LINE
8
Layer 1
62
4
5
2e6
100
AcDbEntity
100
AcDbLine
10
131.136319
20
158.130409
30
0.0
11
131.136319
21
173.855479
31
0.0
0
LINE
8
Layer 1
62
4
5
2e7
100
AcDbEntity
100
AcDbLine
10
131.136319
20
173.855479
30
0.0
11
131.136319
21
173.855479
31
0.0
0
LINE
8
Layer 1
62
4
5
2e8
100
AcDbEntity
100
AcDbLine
10
29.862639
20
195.136798
30
0.0
11
29.862639
21
194.995687
31
0.0
0
LINE
8
Layer 1
62
4
5
2e9
100
AcDbEntity
100
AcDbLine
10
29.862639
20
194.995687
30
0.0
11
29.862639
21
146.991451
31
0.0
0
LINE
8
Layer 1
62
4
5
2ea
100
AcDbEntity
100
AcDbLine
10
29.862639
20
146.991451
30
0.0
11
29.862639
21
146.850340
31
0.0
0
LINE
8
Layer 1
62
4
5
2eb
100
AcDbEntity
100
AcDbLine
10
29.862639
20
146.850340
30
0.0
11
30.003750
21
146.850340
31
0.0
0
LINE
8
Layer 1
62
4
5
2ec
100
AcDbEntity
100
AcDbLine
10
30.003750
20
146.850340
30
0.0
11
41.001597
21
146.850340
31
0.0
0
LINE
8
Layer 1
62
4
5
2ed
100
AcDbEntity
100
AcDbLine
10
41.001597
20
146.850340
30
0.0
11
41.142708
21
146.850340
31
0.0
0
LINE
8
Layer 1
62
4
5
2ee
100
AcDbEntity
100
AcDbLine
10
41.142708
20
146.850340
30
0.0
11
41.142708
21
146.991451
31
0.0
0
LINE
8
Layer 1
62
4
5
2ef
100
AcDbEntity
100
AcDbLine
10
41.142708
20
146.991451
30
0.0
11
41.142708
21
159.850201
31
0.0
0
LINE
8
Layer 1
62
4
5
2f0
100
AcDbEntity
100
AcDbLine
10
41.142708
20
159.850201
30
0.0
11
58.860972
21
159.850201
31
0.0
0
LINE
8
Layer 1
62
4
5
2f1
100
AcDbEntity
100
AcDbLine
10
58.860972
20
159.850201
30
0.0
11
58.860972
21
146.991451
31
0.0
0
LINE
8
Layer 1
62
4
5
2f2
100
AcDbEntity
100
AcDbLine
10
58.860972
20
146.991451
30
0.0
11
58.860972
21
146.850340
31
0.0
0
LINE
8
Layer 1
62
4
5
2f3
100
AcDbEntity
100
AcDbLine
10
58.860972
20
146.850340
30
0.0
11
59.002083
21
146.850340
31
0.0
0
LINE
8
Layer 1
62
4
5
2f4
100
AcDbEntity
100
AcDbLine
10
59.002083
20
146.850340
30
0.0
11
64.002708
21
146.850340
31
0.0
0
LINE
8
Layer 1
62
4
5
2f5
100
AcDbEntity
100
AcDbLine
10
64.002708
20
146.850340
30
0.0
11
64.143819
21
146.850340
31
0.0
0
LINE
8
Layer 1
62
4
5
2f6
100
AcDbEntity
100
AcDbLine
10
64.143819
20
146.850340
30
0.0
11
64.143819
21
146.991451
31
0.0
0
LINE
8
Layer 1
62
4
5
2f7
100
AcDbEntity
100
AcDbLine
10
64.143819
20
146.991451
30
0.0
11
64.143819
21
159.850201
31
0.0
0
LINE
8
Layer 1
62
4
5
2f8
100
AcDbEntity
100
AcDbLine
10
64.143819
20
159.850201
30
0.0
11
81.862083
21
159.850201
31
0.0
0
LINE
8
Layer 1
62
4
5
2f9
100
AcDbEntity
100
AcDbLine
10
81.862083
20
159.850201
30
0.0
11
81.862083
21
146.991451
31
0.0
0
LINE
8
Layer 1
62
4
5
2fa
100
AcDbEntity
100
AcDbLine
10
81.862083
20
146.991451
30
0.0
11
81.862083
21
146.850340
31
0.0
0
LINE
8
Layer 1
62
4
5
2fb
100
AcDbEntity
100
AcDbLine
10
81.862083
20
146.850340
30
0.0
11
82.003194
21
146.850340
31
0.0
0
LINE
8
Layer 1
62
4
5
2fc
100
AcDbEntity
100
AcDbLine
10
82.003194
20
146.850340
30
0.0
11
90.999028
21
146.850340
31
0.0
0
LINE
8
Layer 1
62
4
5
2fd
100
AcDbEntity
100
AcDbLine
10
90.999028
20
146.850340
30
0.0
11
91.140139
21
146.850340
31
0.0
0
LINE
8
Layer 1
62
4
5
2fe
100
AcDbEntity
100
AcDbLine
10
91.140139
20
146.850340
30
0.0
11
91.140139
21
146.991451
31
0.0
0
LINE
8
Layer 1
62
4
5
2ff
100
AcDbEntity
100
AcDbLine
10
91.140139
20
146.991451
30
0.0
11
91.140139
21
159.850201
31
0.0
0
LINE
8
Layer 1
62
4
5
300
100
AcDbEntity
100
AcDbLine
10
91.140139
20
159.850201
30
0.0
11
108.858403
21
159.850201
31
0.0
0
LINE
8
Layer 1
62
4
5
301
100
AcDbEntity
100
AcDbLine
10
108.858403
20
159.850201
30
0.0
11
108.858403
21
146.991451
31
0.0
0
LINE
8
Layer 1
62
4
5
302
100
AcDbEntity
100
AcDbLine
10
108.858403
20
146.991451
30
0.0
11
108.858403
21
146.850340
31
0.0
0
LINE
8
Layer 1
62
4
5
303
100
AcDbEntity
100
AcDbLine
10
108.858403
20
146.850340
30
0.0
11
108.999514
21
146.850340
31
0.0
0
LINE
8
Layer 1
62
4
5
304
100
AcDbEntity
100
AcDbLine
10
108.999514
20
146.850340
30
0.0
11
126.003403
21
146.850340
31
0.0
0
LINE
8
Layer 1
62
4
5
305
100
AcDbEntity
100
AcDbLine
10
126.003403
20
146.850340
30
0.0
11
126.144514
21
146.850340
31
0.0
0
LINE
8
Layer 1
62
4
5
306
100
AcDbEntity
100
AcDbLine
10
126.144514
20
146.850340
30
0.0
11
126.144514
21
146.991451
31
0.0
0
LINE
8
Layer 1
62
4
5
307
100
AcDbEntity
100
AcDbLine
10
126.144514
20
146.991451
30
0.0
11
126.144514
21
154.858395
31
0.0
0
LINE
8
Layer 1
62
4
5
308
100
AcDbEntity
100
AcDbLine
10
126.144514
20
154.858395
30
0.0
11
130.007431
21
154.858395
31
0.0
0
LINE
8
Layer 1
62
4
5
309
100
AcDbEntity
100
AcDbLine
10
130.007431
20
154.858395
30
0.0
11
130.148542
21
154.858395
31
0.0
0
LINE
8
Layer 1
62
4
5
30a
100
AcDbEntity
100
AcDbLine
10
130.148542
20
154.858395
30
0.0
11
130.148542
21
154.999507
31
0.0
0
LINE
8
Layer 1
62
4
5
30b
100
AcDbEntity
100
AcDbLine
10
130.148542
20
154.999507
30
0.0
11
130.148542
21
158.994715
31
0.0
0
LINE
8
Layer 1
62
4
5
30c
100
AcDbEntity
100
AcDbLine
10
130.148542
20
158.994715
30
0.0
11
130.148542
21
159.135826
31
0.0
0
LINE
8
Layer 1
62
4
5
30d
100
AcDbEntity
100
AcDbLine
10
130.148542
20
159.135826
30
0.0
11
130.007431
21
159.135826
31
0.0
0
LINE
8
Layer 1
62
4
5
30e
100
AcDbEntity
100
AcDbLine
10
130.007431
20
159.135826
30
0.0
11
126.144514
21
159.135826
31
0.0
0
LINE
8
Layer 1
62
4
5
30f
100
AcDbEntity
100
AcDbLine
10
126.144514
20
159.135826
30
0.0
11
126.144514
21
180.858118
31
0.0
0
LINE
8
Layer 1
62
4
5
310
100
AcDbEntity
100
AcDbLine
10
126.144514
20
180.858118
30
0.0
11
130.007431
21
180.858118
31
0.0
0
LINE
8
Layer 1
62
4
5
311
100
AcDbEntity
100
AcDbLine
10
130.007431
20
180.858118
30
0.0
11
130.148542
21
180.858118
31
0.0
0
LINE
8
Layer 1
62
4
5
312
100
AcDbEntity
100
AcDbLine
10
130.148542
20
180.858118
30
0.0
11
130.148542
21
180.999229
31
0.0
0
LINE
8
Layer 1
62
4
5
313
100
AcDbEntity
100
AcDbLine
10
130.148542
20
180.999229
30
0.0
11
130.148542
21
184.994437
31
0.0
0
LINE
8
Layer 1
62
4
5
314
100
AcDbEntity
100
AcDbLine
10
130.148542
20
184.994437
30
0.0
11
130.148542
21
185.135548
31
0.0
0
LINE
8
Layer 1
62
4
5
315
100
AcDbEntity
100
AcDbLine
10
130.148542
20
185.135548
30
0.0
11
130.007431
21
185.135548
31
0.0
0
LINE
8
Layer 1
62
4
5
316
100
AcDbEntity
100
AcDbLine
10
130.007431
20
185.135548
30
0.0
11
126.144514
21
185.135548
31
0.0
0
LINE
8
Layer 1
62
4
5
317
100
AcDbEntity
100
AcDbLine
10
126.144514
20
185.135548
30
0.0
11
126.144514
21
194.995687
31
0.0
0
LINE
8
Layer 1
62
4
5
318
100
AcDbEntity
100
AcDbLine
10
126.144514
20
194.995687
30
0.0
11
126.144514
21
195.136798
31
0.0
0
LINE
8
Layer 1
62
4
5
319
100
AcDbEntity
100
AcDbLine
10
126.144514
20
195.136798
30
0.0
11
126.003403
21
195.136798
31
0.0
0
LINE
8
Layer 1
62
4
5
31a
100
AcDbEntity
100
AcDbLine
10
126.003403
20
195.136798
30
0.0
11
120.006181
21
195.136798
31
0.0
0
LINE
8
Layer 1
62
4
5
31b
100
AcDbEntity
100
AcDbLine
10
120.006181
20
195.136798
30
0.0
11
119.865069
21
195.136798
31
0.0
0
LINE
8
Layer 1
62
4
5
31c
100
AcDbEntity
100
AcDbLine
10
119.865069
20
195.136798
30
0.0
11
119.865069
21
194.995687
31
0.0
0
LINE
8
Layer 1
62
4
5
31d
100
AcDbEntity
100
AcDbLine
10
119.865069
20
194.995687
30
0.0
11
119.865069
21
189.139576
31
0.0
0
LINE
8
Layer 1
62
4
5
31e
100
AcDbEntity
100
AcDbLine
10
119.865069
20
189.139576
30
0.0
11
111.998125
21
189.139576
31
0.0
0
LINE
8
Layer 1
62
4
5
31f
100
AcDbEntity
100
AcDbLine
10
111.998125
20
189.139576
30
0.0
11
111.857014
21
189.139576
31
0.0
0
LINE
8
Layer 1
62
4
5
320
100
AcDbEntity
100
AcDbLine
10
111.857014
20
189.139576
30
0.0
11
111.857014
21
188.998465
31
0.0
0
LINE
8
Layer 1
62
4
5
321
100
AcDbEntity
100
AcDbLine
10
111.857014
20
188.998465
30
0.0
11
111.857014
21
181.140340
31
0.0
0
LINE
8
Layer 1
62
4
5
322
100
AcDbEntity
100
AcDbLine
10
111.857014
20
181.140340
30
0.0
11
102.146806
21
181.140340
31
0.0
0
LINE
8
Layer 1
62
4
5
323
100
AcDbEntity
100
AcDbLine
10
102.146806
20
181.140340
30
0.0
11
102.146806
21
186.996451
31
0.0
0
LINE
8
Layer 1
62
4
5
324
100
AcDbEntity
100
AcDbLine
10
102.146806
20
186.996451
30
0.0
11
102.146806
21
187.137562
31
0.0
0
LINE
8
Layer 1
62
4
5
325
100
AcDbEntity
100
AcDbLine
10
102.146806
20
187.137562
30
0.0
11
102.005694
21
187.137562
31
0.0
0
LINE
8
Layer 1
62
4
5
326
100
AcDbEntity
100
AcDbLine
10
102.005694
20
187.137562
30
0.0
11
93.001042
21
187.137562
31
0.0
0
LINE
8
Layer 1
62
4
5
327
100
AcDbEntity
100
AcDbLine
10
93.001042
20
187.137562
30
0.0
11
92.859931
21
187.137562
31
0.0
0
LINE
8
Layer 1
62
4
5
328
100
AcDbEntity
100
AcDbLine
10
92.859931
20
187.137562
30
0.0
11
92.859931
21
186.996451
31
0.0
0
LINE
8
Layer 1
62
4
5
329
100
AcDbEntity
100
AcDbLine
10
92.859931
20
186.996451
30
0.0
11
92.859931
21
181.140340
31
0.0
0
LINE
8
Layer 1
62
4
5
32a
100
AcDbEntity
100
AcDbLine
10
92.859931
20
181.140340
30
0.0
11
77.143681
21
181.140340
31
0.0
0
LINE
8
Layer 1
62
4
5
32b
100
AcDbEntity
100
AcDbLine
10
77.143681
20
181.140340
30
0.0
11
77.143681
21
188.998465
31
0.0
0
LINE
8
Layer 1
62
4
5
32c
100
AcDbEntity
100
AcDbLine
10
77.143681
20
188.998465
30
0.0
11
77.143681
21
189.139576
31
0.0
0
LINE
8
Layer 1
62
4
5
32d
100
AcDbEntity
100
AcDbLine
10
77.143681
20
189.139576
30
0.0
11
77.002569
21
189.139576
31
0.0
0
LINE
8
Layer 1
62
4
5
32e
100
AcDbEntity
100
AcDbLine
10
77.002569
20
189.139576
30
0.0
11
73.007361
21
189.139576
31
0.0
0
LINE
8
Layer 1
62
4
5
32f
100
AcDbEntity
100
AcDbLine
10
73.007361
20
189.139576
30
0.0
11
72.866250
21
189.139576
31
0.0
0
LINE
8
Layer 1
62
4
5
330
100
AcDbEntity
100
AcDbLine
10
72.866250
20
189.139576
30
0.0
11
72.866250
21
188.998465
31
0.0
0
LINE
8
Layer 1
62
4
5
331
100
AcDbEntity
100
AcDbLine
10
72.866250
20
188.998465
30
0.0
11
72.866250
21
180.134923
31
0.0
0
LINE
8
Layer 1
62
4
5
332
100
AcDbEntity
100
AcDbLine
10
72.866250
20
180.134923
30
0.0
11
69.003333
21
180.134923
31
0.0
0
LINE
8
Layer 1
62
4
5
333
100
AcDbEntity
100
AcDbLine
10
69.003333
20
180.134923
30
0.0
11
68.862222
21
180.134923
31
0.0
0
LINE
8
Layer 1
62
4
5
334
100
AcDbEntity
100
AcDbLine
10
68.862222
20
180.134923
30
0.0
11
68.862222
21
179.993812
31
0.0
0
LINE
8
Layer 1
62
4
5
335
100
AcDbEntity
100
AcDbLine
10
68.862222
20
179.993812
30
0.0
11
68.862222
21
175.134298
31
0.0
0
LINE
8
Layer 1
62
4
5
336
100
AcDbEntity
100
AcDbLine
10
68.862222
20
175.134298
30
0.0
11
55.139167
21
175.134298
31
0.0
0
LINE
8
Layer 1
62
4
5
337
100
AcDbEntity
100
AcDbLine
10
55.139167
20
175.134298
30
0.0
11
55.139167
21
181.995826
31
0.0
0
LINE
8
Layer 1
62
4
5
338
100
AcDbEntity
100
AcDbLine
10
55.139167
20
181.995826
30
0.0
11
55.139167
21
182.136937
31
0.0
0
LINE
8
Layer 1
62
4
5
339
100
AcDbEntity
100
AcDbLine
10
55.139167
20
182.136937
30
0.0
11
54.998056
21
182.136937
31
0.0
0
LINE
8
Layer 1
62
4
5
33a
100
AcDbEntity
100
AcDbLine
10
54.998056
20
182.136937
30
0.0
11
46.143333
21
182.136937
31
0.0
0
LINE
8
Layer 1
62
4
5
33b
100
AcDbEntity
100
AcDbLine
10
46.143333
20
182.136937
30
0.0
11
46.143333
21
194.995687
31
0.0
0
LINE
8
Layer 1
62
4
5
33c
100
AcDbEntity
100
AcDbLine
10
46.143333
20
194.995687
30
0.0
11
46.143333
21
195.136798
31
0.0
0
LINE
8
Layer 1
62
4
5
33d
100
AcDbEntity
100
AcDbLine
10
46.143333
20
195.136798
30
0.0
11
46.002222
21
195.136798
31
0.0
0
LINE
8
Layer 1
62
4
5
33e
100
AcDbEntity
100
AcDbLine
10
46.002222
20
195.136798
30
0.0
11
30.003750
21
195.136798
31
0.0
0
LINE
8
Layer 1
62
4
5
33f
100
AcDbEntity
100
AcDbLine
10
30.003750
20
195.136798
30
0.0
11
29.862639
21
195.136798
31
0.0
0
LINE
8
Layer 1
62
4
5
340
100
AcDbEntity
100
AcDbLine
10
29.862639
20
195.136798
30
0.0
11
29.862639
21
195.136798
31
0.0
0
LINE
8
Layer 1
62
4
5
341
100
AcDbEntity
100
AcDbLine
10
30.144861
20
194.854576
30
0.0
11
45.861111
21
194.854576
31
0.0
0
LINE
8
Layer 1
62
4
5
342
100
AcDbEntity
100
AcDbLine
10
45.861111
20
194.854576
30
0.0
11
45.861111
21
181.995826
31
0.0
0
LINE
8
Layer 1
62
4
5
343
100
AcDbEntity
100
AcDbLine
10
45.861111
20
181.995826
30
0.0
11
45.861111
21
181.854715
31
0.0
0
LINE
8
Layer 1
62
4
5
344
100
AcDbEntity
100
AcDbLine
10
45.861111
20
181.854715
30
0.0
11
46.002222
21
181.854715
31
0.0
0
LINE
8
Layer 1
62
4
5
345
100
AcDbEntity
100
AcDbLine
10
46.002222
20
181.854715
30
0.0
11
54.856944
21
181.854715
31
0.0
0
LINE
8
Layer 1
62
4
5
346
100
AcDbEntity
100
AcDbLine
10
54.856944
20
181.854715
30
0.0
11
54.856944
21
174.993187
31
0.0
0
LINE
8
Layer 1
62
4
5
347
100
AcDbEntity
100
AcDbLine
10
54.856944
20
174.993187
30
0.0
11
54.856944
21
174.852076
31
0.0
0
LINE
8
Layer 1
62
4
5
348
100
AcDbEntity
100
AcDbLine
10
54.856944
20
174.852076
30
0.0
11
54.998056
21
174.852076
31
0.0
0
LINE
8
Layer 1
62
4
5
349
100
AcDbEntity
100
AcDbLine
10
54.998056
20
174.852076
30
0.0
11
69.003333
21
174.852076
31
0.0
0
LINE
8
Layer 1
62
4
5
34a
100
AcDbEntity
100
AcDbLine
10
69.003333
20
174.852076
30
0.0
11
69.144444
21
174.852076
31
0.0
0
LINE
8
Layer 1
62
4
5
34b
100
AcDbEntity
100
AcDbLine
10
69.144444
20
174.852076
30
0.0
11
69.144444
21
174.993187
31
0.0
0
LINE
8
Layer 1
62
4
5
34c
100
AcDbEntity
100
AcDbLine
10
69.144444
20
174.993187
30
0.0
11
69.144444
21
179.852701
31
0.0
0
LINE
8
Layer 1
62
4
5
34d
100
AcDbEntity
100
AcDbLine
10
69.144444
20
179.852701
30
0.0
11
73.007361
21
179.852701
31
0.0
0
LINE
8
Layer 1
62
4
5
34e
100
AcDbEntity
100
AcDbLine
10
73.007361
20
179.852701
30
0.0
11
73.148472
21
179.852701
31
0.0
0
LINE
8
Layer 1
62
4
5
34f
100
AcDbEntity
100
AcDbLine
10
73.148472
20
179.852701
30
0.0
11
73.148472
21
179.993812
31
0.0
0
LINE
8
Layer 1
62
4
5
350
100
AcDbEntity
100
AcDbLine
10
73.148472
20
179.993812
30
0.0
11
73.148472
21
188.857354
31
0.0
0
LINE
8
Layer 1
62
4
5
351
100
AcDbEntity
100
AcDbLine
10
73.148472
20
188.857354
30
0.0
11
76.861458
21
188.857354
31
0.0
0
LINE
8
Layer 1
62
4
5
352
100
AcDbEntity
100
AcDbLine
10
76.861458
20
188.857354
30
0.0
11
76.861458
21
180.999229
31
0.0
0
LINE
8
Layer 1
62
4
5
353
100
AcDbEntity
100
AcDbLine
10
76.861458
20
180.999229
30
0.0
11
76.861458
21
180.858118
31
0.0
0
LINE
8
Layer 1
62
4
5
354
100
AcDbEntity
100
AcDbLine
10
76.861458
20
180.858118
30
0.0
11
77.002569
21
180.858118
31
0.0
0
LINE
8
Layer 1
62
4
5
355
100
AcDbEntity
100
AcDbLine
10
77.002569
20
180.858118
30
0.0
11
93.001042
21
180.858118
31
0.0
0
LINE
8
Layer 1
62
4
5
356
100
AcDbEntity
100
AcDbLine
10
93.001042
20
180.858118
30
0.0
11
93.142153
21
180.858118
31
0.0
0
LINE
8
Layer 1
62
4
5
357
100
AcDbEntity
100
AcDbLine
10
93.142153
20
180.858118
30
0.0
11
93.142153
21
180.999229
31
0.0
0
LINE
8
Layer 1
62
4
5
358
100
AcDbEntity
100
AcDbLine
10
93.142153
20
180.999229
30
0.0
11
93.142153
21
186.855340
31
0.0
0
LINE
8
Layer 1
62
4
5
359
100
AcDbEntity
100
AcDbLine
10
93.142153
20
186.855340
30
0.0
11
101.864583
21
186.855340
31
0.0
0
LINE
8
Layer 1
62
4
5
35a
100
AcDbEntity
100
AcDbLine
10
101.864583
20
186.855340
30
0.0
11
101.864583
21
180.999229
31
0.0
0
LINE
8
Layer 1
62
4
5
35b
100
AcDbEntity
100
AcDbLine
10
101.864583
20
180.999229
30
0.0
11
101.864583
21
180.858118
31
0.0
0
LINE
8
Layer 1
62
4
5
35c
100
AcDbEntity
100
AcDbLine
10
101.864583
20
180.858118
30
0.0
11
102.005694
21
180.858118
31
0.0
0
LINE
8
Layer 1
62
4
5
35d
100
AcDbEntity
100
AcDbLine
10
102.005694
20
180.858118
30
0.0
11
111.998125
21
180.858118
31
0.0
0
LINE
8
Layer 1
62
4
5
35e
100
AcDbEntity
100
AcDbLine
10
111.998125
20
180.858118
30
0.0
11
112.139236
21
180.858118
31
0.0
0
LINE
8
Layer 1
62
4
5
35f
100
AcDbEntity
100
AcDbLine
10
112.139236
20
180.858118
30
0.0
11
112.139236
21
180.999229
31
0.0
0
LINE
8
Layer 1
62
4
5
360
100
AcDbEntity
100
AcDbLine
10
112.139236
20
180.999229
30
0.0
11
112.139236
21
188.857354
31
0.0
0
LINE
8
Layer 1
62
4
5
361
100
AcDbEntity
100
AcDbLine
10
112.139236
20
188.857354
30
0.0
11
120.006181
21
188.857354
31
0.0
0
LINE
8
Layer 1
62
4
5
362
100
AcDbEntity
100
AcDbLine
10
120.006181
20
188.857354
30
0.0
11
120.147292
21
188.857354
31
0.0
0
LINE
8
Layer 1
62
4
5
363
100
AcDbEntity
100
AcDbLine
10
120.147292
20
188.857354
30
0.0
11
120.147292
21
188.998465
31
0.0
0
LINE
8
Layer 1
62
4
5
364
100
AcDbEntity
100
AcDbLine
10
120.147292
20
188.998465
30
0.0
11
120.147292
21
194.854576
31
0.0
0
LINE
8
Layer 1
62
4
5
365
100
AcDbEntity
100
AcDbLine
10
120.147292
20
194.854576
30
0.0
11
125.862292
21
194.854576
31
0.0
0
LINE
8
Layer 1
62
4
5
366
100
AcDbEntity
100
AcDbLine
10
125.862292
20
194.854576
30
0.0
11
125.862292
21
184.994437
31
0.0
0
LINE
8
Layer 1
62
4
5
367
100
AcDbEntity
100
AcDbLine
10
125.862292
20
184.994437
30
0.0
11
125.862292
21
184.853326
31
0.0
0
LINE
8
Layer 1
62
4
5
368
100
AcDbEntity
100
AcDbLine
10
125.862292
20
184.853326
30
0.0
11
126.003403
21
184.853326
31
0.0
0
LINE
8
Layer 1
62
4
5
369
100
AcDbEntity
100
AcDbLine
10
126.003403
20
184.853326
30
0.0
11
129.866319
21
184.853326
31
0.0
0
LINE
8
Layer 1
62
4
5
36a
100
AcDbEntity
100
AcDbLine
10
129.866319
20
184.853326
30
0.0
11
129.866319
21
181.140340
31
0.0
0
LINE
8
Layer 1
62
4
5
36b
100
AcDbEntity
100
AcDbLine
10
129.866319
20
181.140340
30
0.0
11
126.003403
21
181.140340
31
0.0
0
LINE
8
Layer 1
62
4
5
36c
100
AcDbEntity
100
AcDbLine
10
126.003403
20
181.140340
30
0.0
11
125.862292
21
181.140340
31
0.0
0
LINE
8
Layer 1
62
4
5
36d
100
AcDbEntity
100
AcDbLine
10
125.862292
20
181.140340
30
0.0
11
125.862292
21
180.999229
31
0.0
0
LINE
8
Layer 1
62
4
5
36e
100
AcDbEntity
100
AcDbLine
10
125.862292
20
180.999229
30
0.0
11
125.862292
21
158.994715
31
0.0
0
LINE
8
Layer 1
62
4
5
36f
100
AcDbEntity
100
AcDbLine
10
125.862292
20
158.994715
30
0.0
11
125.862292
21
158.853604
31
0.0
0
LINE
8
Layer 1
62
4
5
370
100
AcDbEntity
100
AcDbLine
10
125.862292
20
158.853604
30
0.0
11
126.003403
21
158.853604
31
0.0
0
LINE
8
Layer 1
62
4
5
371
100
AcDbEntity
100
AcDbLine
10
126.003403
20
158.853604
30
0.0
11
129.866319
21
158.853604
31
0.0
0
LINE
8
Layer 1
62
4
5
372
100
AcDbEntity
100
AcDbLine
10
129.866319
20
158.853604
30
0.0
11
129.866319
21
155.140618
31
0.0
0
LINE
8
Layer 1
62
4
5
373
100
AcDbEntity
100
AcDbLine
10
129.866319
20
155.140618
30
0.0
11
126.003403
21
155.140618
31
0.0
0
LINE
8
Layer 1
62
4
5
374
100
AcDbEntity
100
AcDbLine
10
126.003403
20
155.140618
30
0.0
11
125.862292
21
155.140618
31
0.0
0
LINE
8
Layer 1
62
4
5
375
100
AcDbEntity
100
AcDbLine
10
125.862292
20
155.140618
30
0.0
11
125.862292
21
154.999507
31
0.0
0
LINE
8
Layer 1
62
4
5
376
100
AcDbEntity
100
AcDbLine
10
125.862292
20
154.999507
30
0.0
11
125.862292
21
147.132562
31
0.0
0
LINE
8
Layer 1
62
4
5
377
100
AcDbEntity
100
AcDbLine
10
125.862292
20
147.132562
30
0.0
11
109.140625
21
147.132562
31
0.0
0
LINE
8
Layer 1
62
4
5
378
100
AcDbEntity
100
AcDbLine
10
109.140625
20
147.132562
30
0.0
11
109.140625
21
159.991312
31
0.0
0
LINE
8
Layer 1
62
4
5
379
100
AcDbEntity
100
AcDbLine
10
109.140625
20
159.991312
30
0.0
11
109.140625
21
160.132423
31
0.0
0
LINE
8
Layer 1
62
4
5
37a
100
AcDbEntity
100
AcDbLine
10
109.140625
20
160.132423
30
0.0
11
108.999514
21
160.132423
31
0.0
0
LINE
8
Layer 1
62
4
5
37b
100
AcDbEntity
100
AcDbLine
10
108.999514
20
160.132423
30
0.0
11
90.999028
21
160.132423
31
0.0
0
LINE
8
Layer 1
62
4
5
37c
100
AcDbEntity
100
AcDbLine
10
90.999028
20
160.132423
30
0.0
11
90.857917
21
160.132423
31
0.0
0
LINE
8
Layer 1
62
4
5
37d
100
AcDbEntity
100
AcDbLine
10
90.857917
20
160.132423
30
0.0
11
90.857917
21
159.991312
31
0.0
0
LINE
8
Layer 1
62
4
5
37e
100
AcDbEntity
100
AcDbLine
10
90.857917
20
159.991312
30
0.0
11
90.857917
21
147.132562
31
0.0
0
LINE
8
Layer 1
62
4
5
37f
100
AcDbEntity
100
AcDbLine
10
90.857917
20
147.132562
30
0.0
11
82.144306
21
147.132562
31
0.0
0
LINE
8
Layer 1
62
4
5
380
100
AcDbEntity
100
AcDbLine
10
82.144306
20
147.132562
30
0.0
11
82.144306
21
159.991312
31
0.0
0
LINE
8
Layer 1
62
4
5
381
100
AcDbEntity
100
AcDbLine
10
82.144306
20
159.991312
30
0.0
11
82.144306
21
160.132423
31
0.0
0
LINE
8
Layer 1
62
4
5
382
100
AcDbEntity
100
AcDbLine
10
82.144306
20
160.132423
30
0.0
11
82.003194
21
160.132423
31
0.0
0
LINE
8
Layer 1
62
4
5
383
100
AcDbEntity
100
AcDbLine
10
82.003194
20
160.132423
30
0.0
11
64.002708
21
160.132423
31
0.0
0
LINE
8
Layer 1
62
4
5
384
100
AcDbEntity
100
AcDbLine
10
64.002708
20
160.132423
30
0.0
11
63.861597
21
160.132423
31
0.0
0
LINE
8
Layer 1
62
4
5
385
100
AcDbEntity
100
AcDbLine
10
63.861597
20
160.132423
30
0.0
11
63.861597
21
159.991312
31
0.0
0
LINE
8
Layer 1
62
4
5
386
100
AcDbEntity
100
AcDbLine
10
63.861597
20
159.991312
30
0.0
11
63.861597
21
147.132562
31
0.0
0
LINE
8
Layer 1
62
4
5
387
100
AcDbEntity
100
AcDbLine
10
63.861597
20
147.132562
30
0.0
11
59.143194
21
147.132562
31
0.0
0
LINE
8
Layer 1
62
4
5
388
100
AcDbEntity
100
AcDbLine
10
59.143194
20
147.132562
30
0.0
11
59.143194
21
159.991312
31
0.0
0
LINE
8
Layer 1
62
4
5
389
100
AcDbEntity
100
AcDbLine
10
59.143194
20
159.991312
30
0.0
11
59.143194
21
160.132423
31
0.0
0
LINE
8
Layer 1
62
4
5
38a
100
AcDbEntity
100
AcDbLine
10
59.143194
20
160.132423
30
0.0
11
59.002083
21
160.132423
31
0.0
0
LINE
8
Layer 1
62
4
5
38b
100
AcDbEntity
100
AcDbLine
10
59.002083
20
160.132423
30
0.0
11
41.001597
21
160.132423
31
0.0
0
LINE
8
Layer 1
62
4
5
38c
100
AcDbEntity
100
AcDbLine
10
41.001597
20
160.132423
30
0.0
11
40.860486
21
160.132423
31
0.0
0
LINE
8
Layer 1
62
4
5
38d
100
AcDbEntity
100
AcDbLine
10
40.860486
20
160.132423
30
0.0
11
40.860486
21
159.991312
31
0.0
0
LINE
8
Layer 1
62
4
5
38e
100
AcDbEntity
100
AcDbLine
10
40.860486
20
159.991312
30
0.0
11
40.860486
21
147.132562
31
0.0
0
LINE
8
Layer 1
62
4
5
38f
100
AcDbEntity
100
AcDbLine
10
40.860486
20
147.132562
30
0.0
11
30.144861
21
147.132562
31
0.0
0
LINE
8
Layer 1
62
4
5
390
100
AcDbEntity
100
AcDbLine
10
30.144861
20
147.132562
30
0.0
11
30.144861
21
194.854576
31
0.0
0
LINE
8
Layer 1
62
4
5
391
100
AcDbEntity
100
AcDbLine
10
30.144861
20
194.854576
30
0.0
11
30.144861
21
194.854576
31
0.0
0
LINE
8
Layer 1
62
4
5
392
100
AcDbEntity
100
AcDbLine
10
80.856667
20
178.132909
30
0.0
11
80.856667
21
177.991798
31
0.0
0
LINE
8
Layer 1
62
4
5
393
100
AcDbEntity
100
AcDbLine
10
80.856667
20
177.991798
30
0.0
11
80.856667
21
173.996590
31
0.0
0
LINE
8
Layer 1
62
4
5
394
100
AcDbEntity
100
AcDbLine
10
80.856667
20
173.996590
30
0.0
11
80.856667
21
173.855479
31
0.0
0
LINE
8
Layer 1
62
4
5
395
100
AcDbEntity
100
AcDbLine
10
80.856667
20
173.855479
30
0.0
11
80.997778
21
173.855479
31
0.0
0
LINE
8
Layer 1
62
4
5
396
100
AcDbEntity
100
AcDbLine
10
80.997778
20
173.855479
30
0.0
11
92.004444
21
173.855479
31
0.0
0
LINE
8
Layer 1
62
4
5
397
100
AcDbEntity
100
AcDbLine
10
92.004444
20
173.855479
30
0.0
11
92.145556
21
173.855479
31
0.0
0
LINE
8
Layer 1
62
4
5
398
100
AcDbEntity
100
AcDbLine
10
92.145556
20
173.855479
30
0.0
11
92.145556
21
173.996590
31
0.0
0
LINE
8
Layer 1
62
4
5
399
100
AcDbEntity
100
AcDbLine
10
92.145556
20
173.996590
30
0.0
11
92.145556
21
177.991798
31
0.0
0
LINE
8
Layer 1
62
4
5
39a
100
AcDbEntity
100
AcDbLine
10
92.145556
20
177.991798
30
0.0
11
92.145556
21
178.132909
31
0.0
0
LINE
8
Layer 1
62
4
5
39b
100
AcDbEntity
100
AcDbLine
10
92.145556
20
178.132909
30
0.0
11
92.004444
21
178.132909
31
0.0
0
LINE
8
Layer 1
62
4
5
39c
100
AcDbEntity
100
AcDbLine
10
92.004444
20
178.132909
30
0.0
11
80.997778
21
178.132909
31
0.0
0
LINE
8
Layer 1
62
4
5
39d
100
AcDbEntity
100
AcDbLine
10
80.997778
20
178.132909
30
0.0
11
80.856667
21
178.132909
31
0.0
0
LINE
8
Layer 1
62
4
5
39e
100
AcDbEntity
100
AcDbLine
10
80.856667
20
178.132909
30
0.0
11
80.856667
21
178.132909
31
0.0
0
LINE
8
Layer 1
62
4
5
39f
100
AcDbEntity
100
AcDbLine
10
81.138889
20
177.850687
30
0.0
11
91.863333
21
177.850687
31
0.0
0
LINE
8
Layer 1
62
4
5
3a0
100
AcDbEntity
100
AcDbLine
10
91.863333
20
177.850687
30
0.0
11
91.863333
21
174.137701
31
0.0
0
LINE
8
Layer 1
62
4
5
3a1
100
AcDbEntity
100
AcDbLine
10
91.863333
20
174.137701
30
0.0
11
81.138889
21
174.137701
31
0.0
0
LINE
8
Layer 1
62
4
5
3a2
100
AcDbEntity
100
AcDbLine
10
81.138889
20
174.137701
30
0.0
11
81.138889
21
177.850687
31
0.0
0
LINE
8
Layer 1
62
4
5
3a3
100
AcDbEntity
100
AcDbLine
10
81.138889
20
177.850687
30
0.0
11
81.138889
21
177.850687
31
0.0
0
LINE
8
Layer 1
62
4
5
3a4
100
AcDbEntity
100
AcDbLine
10
76.003266
20
176.639663
30
0.0
11
74.975456
21
176.431051
31
0.0
0
LINE
8
Layer 1
62
4
5
3a5
100
AcDbEntity
100
AcDbLine
10
74.975456
20
176.431051
30
0.0
11
74.134218
21
175.862877
31
0.0
0
LINE
8
Layer 1
62
4
5
3a6
100
AcDbEntity
100
AcDbLine
10
74.134218
20
175.862877
30
0.0
11
73.566046
21
175.021638
31
0.0
0
LINE
8
Layer 1
62
4
5
3a7
100
AcDbEntity
100
AcDbLine
10
73.566046
20
175.021638
30
0.0
11
73.357432
21
173.993830
31
0.0
0
LINE
8
Layer 1
62
4
5
3a8
100
AcDbEntity
100
AcDbLine
10
73.357432
20
173.993830
30
0.0
11
73.566044
21
172.967399
31
0.0
0
LINE
8
Layer 1
62
4
5
3a9
100
AcDbEntity
100
AcDbLine
10
73.566044
20
172.967399
30
0.0
11
74.134217
21
172.129192
31
0.0
0
LINE
8
Layer 1
62
4
5
3aa
100
AcDbEntity
100
AcDbLine
10
74.134217
20
172.129192
30
0.0
11
74.975456
21
171.564050
31
0.0
0
LINE
8
Layer 1
62
4
5
3ab
100
AcDbEntity
100
AcDbLine
10
74.975456
20
171.564050
30
0.0
11
76.003266
21
171.356816
31
0.0
0
LINE
8
Layer 1
62
4
5
3ac
100
AcDbEntity
100
AcDbLine
10
76.003266
20
171.356816
30
0.0
11
77.029696
21
171.564050
31
0.0
0
LINE
8
Layer 1
62
4
5
3ad
100
AcDbEntity
100
AcDbLine
10
77.029696
20
171.564050
30
0.0
11
77.867902
21
172.129192
31
0.0
0
LINE
8
Layer 1
62
4
5
3ae
100
AcDbEntity
100
AcDbLine
10
77.867902
20
172.129192
30
0.0
11
78.433044
21
172.967399
31
0.0
0
LINE
8
Layer 1
62
4
5
3af
100
AcDbEntity
100
AcDbLine
10
78.433044
20
172.967399
30
0.0
11
78.640280
21
173.993830
31
0.0
0
LINE
8
Layer 1
62
4
5
3b0
100
AcDbEntity
100
AcDbLine
10
78.640280
20
173.993830
30
0.0
11
78.433046
21
175.021639
31
0.0
0
LINE
8
Layer 1
62
4
5
3b1
100
AcDbEntity
100
AcDbLine
10
78.433046
20
175.021639
30
0.0
11
77.867904
21
175.862878
31
0.0
0
LINE
8
Layer 1
62
4
5
3b2
100
AcDbEntity
100
AcDbLine
10
77.867904
20
175.862878
30
0.0
11
77.029697
21
176.431051
31
0.0
0
LINE
8
Layer 1
62
4
5
3b3
100
AcDbEntity
100
AcDbLine
10
77.029697
20
176.431051
30
0.0
11
76.003266
21
176.639663
31
0.0
0
LINE
8
Layer 1
62
4
5
3b4
100
AcDbEntity
100
AcDbLine
10
76.003266
20
176.639663
30
0.0
11
76.003266
21
176.639663
31
0.0
0
LINE
8
Layer 1
62
4
5
3b5
100
AcDbEntity
100
AcDbLine
10
76.003266
20
176.357441
30
0.0
11
76.921179
21
176.171452
31
0.0
0
LINE
8
Layer 1
62
4
5
3b6
100
AcDbEntity
100
AcDbLine
10
76.921179
20
176.171452
30
0.0
11
77.669530
21
175.664504
31
0.0
0
LINE
8
Layer 1
62
4
5
3b7
100
AcDbEntity
100
AcDbLine
10
77.669530
20
175.664504
30
0.0
11
78.173447
21
174.913121
31
0.0
0
LINE
8
Layer 1
62
4
5
3b8
100
AcDbEntity
100
AcDbLine
10
78.173447
20
174.913121
30
0.0
11
78.358057
21
173.993830
31
0.0
0
LINE
8
Layer 1
62
4
5
3b9
100
AcDbEntity
100
AcDbLine
10
78.358057
20
173.993830
30
0.0
11
78.173446
21
173.075916
31
0.0
0
LINE
8
Layer 1
62
4
5
3ba
100
AcDbEntity
100
AcDbLine
10
78.173446
20
173.075916
30
0.0
11
77.669529
21
172.327565
31
0.0
0
LINE
8
Layer 1
62
4
5
3bb
100
AcDbEntity
100
AcDbLine
10
77.669529
20
172.327565
30
0.0
11
76.921179
21
171.823649
31
0.0
0
LINE
8
Layer 1
62
4
5
3bc
100
AcDbEntity
100
AcDbLine
10
76.921179
20
171.823649
30
0.0
11
76.003266
21
171.639038
31
0.0
0
LINE
8
Layer 1
62
4
5
3bd
100
AcDbEntity
100
AcDbLine
10
76.003266
20
171.639038
30
0.0
11
75.083974
21
171.823649
31
0.0
0
LINE
8
Layer 1
62
4
5
3be
100
AcDbEntity
100
AcDbLine
10
75.083974
20
171.823649
30
0.0
11
74.332592
21
172.327565
31
0.0
0
LINE
8
Layer 1
62
4
5
3bf
100
AcDbEntity
100
AcDbLine
10
74.332592
20
172.327565
30
0.0
11
73.825643
21
173.075916
31
0.0
0
LINE
8
Layer 1
62
4
5
3c0
100
AcDbEntity
100
AcDbLine
10
73.825643
20
173.075916
30
0.0
11
73.639655
21
173.993830
31
0.0
0
LINE
8
Layer 1
62
4
5
3c1
100
AcDbEntity
100
AcDbLine
10
73.639655
20
173.993830
30
0.0
11
73.825644
21
174.913121
31
0.0
0
LINE
8
Layer 1
62
4
5
3c2
100
AcDbEntity
100
AcDbLine
10
73.825644
20
174.913121
30
0.0
11
74.332592
21
175.664504
31
0.0
0
LINE
8
Layer 1
62
4
5
3c3
100
AcDbEntity
100
AcDbLine
10
74.332592
20
175.664504
30
0.0
11
75.083974
21
176.171452
31
0.0
0
LINE
8
Layer 1
62
4
5
3c4
100
AcDbEntity
100
AcDbLine
10
75.083974
20
176.171452
30
0.0
11
76.003266
21
176.357441
31
0.0
0
LINE
8
Layer 1
62
4
5
3c5
100
AcDbEntity
100
AcDbLine
10
76.003266
20
176.357441
30
0.0
11
76.003266
21
176.357441
31
0.0
0
LINE
8
Layer 1
62
4
5
3c6
100
AcDbEntity
100
AcDbLine
10
67.002784
20
173.632786
30
0.0
11
65.586385
21
173.347458
31
0.0
0
LINE
8
Layer 1
62
4
5
3c7
100
AcDbEntity
100
AcDbLine
10
65.586385
20
173.347458
30
0.0
11
64.428441
21
172.569111
31
0.0
0
LINE
8
Layer 1
62
4
5
3c8
100
AcDbEntity
100
AcDbLine
10
64.428441
20
172.569111
30
0.0
11
63.647061
21
171.414199
31
0.0
0
LINE
8
Layer 1
62
4
5
3c9
100
AcDbEntity
100
AcDbLine
10
63.647061
20
171.414199
30
0.0
11
63.360354
21
169.999175
31
0.0
0
LINE
8
Layer 1
62
4
5
3ca
100
AcDbEntity
100
AcDbLine
10
63.360354
20
169.999175
30
0.0
11
63.647060
21
168.582772
31
0.0
0
LINE
8
Layer 1
62
4
5
3cb
100
AcDbEntity
100
AcDbLine
10
63.647060
20
168.582772
30
0.0
11
64.428439
21
167.424828
31
0.0
0
LINE
8
Layer 1
62
4
5
3cc
100
AcDbEntity
100
AcDbLine
10
64.428439
20
167.424828
30
0.0
11
65.586383
21
166.643450
31
0.0
0
LINE
8
Layer 1
62
4
5
3cd
100
AcDbEntity
100
AcDbLine
10
65.586383
20
166.643450
30
0.0
11
67.002784
21
166.356744
31
0.0
0
LINE
8
Layer 1
62
4
5
3ce
100
AcDbEntity
100
AcDbLine
10
67.002784
20
166.356744
30
0.0
11
68.419185
21
166.643450
31
0.0
0
LINE
8
Layer 1
62
4
5
3cf
100
AcDbEntity
100
AcDbLine
10
68.419185
20
166.643450
30
0.0
11
69.577130
21
167.424828
31
0.0
0
LINE
8
Layer 1
62
4
5
3d0
100
AcDbEntity
100
AcDbLine
10
69.577130
20
167.424828
30
0.0
11
70.358509
21
168.582772
31
0.0
0
LINE
8
Layer 1
62
4
5
3d1
100
AcDbEntity
100
AcDbLine
10
70.358509
20
168.582772
30
0.0
11
70.645215
21
169.999175
31
0.0
0
LINE
8
Layer 1
62
4
5
3d2
100
AcDbEntity
100
AcDbLine
10
70.645215
20
169.999175
30
0.0
11
70.358509
21
171.414198
31
0.0
0
LINE
8
Layer 1
62
4
5
3d3
100
AcDbEntity
100
AcDbLine
10
70.358509
20
171.414198
30
0.0
11
69.577130
21
172.569110
31
0.0
0
LINE
8
Layer 1
62
4
5
3d4
100
AcDbEntity
100
AcDbLine
10
69.577130
20
172.569110
30
0.0
11
68.419185
21
173.347457
31
0.0
0
LINE
8
Layer 1
62
4
5
3d5
100
AcDbEntity
100
AcDbLine
10
68.419185
20
173.347457
30
0.0
11
67.002784
21
173.632786
31
0.0
0
LINE
8
Layer 1
62
4
5
3d6
100
AcDbEntity
100
AcDbLine
10
67.002784
20
173.632786
30
0.0
11
67.002784
21
173.632786
31
0.0
0
LINE
8
Layer 1
62
4
5
3d7
100
AcDbEntity
100
AcDbLine
10
67.002784
20
173.350563
30
0.0
11
68.310667
21
173.087859
31
0.0
0
LINE
8
Layer 1
62
4
5
3d8
100
AcDbEntity
100
AcDbLine
10
68.310667
20
173.087859
30
0.0
11
69.378755
21
172.370737
31
0.0
0
LINE
8
Layer 1
62
4
5
3d9
100
AcDbEntity
100
AcDbLine
10
69.378755
20
172.370737
30
0.0
11
70.098910
21
171.305681
31
0.0
0
LINE
8
Layer 1
62
4
5
3da
100
AcDbEntity
100
AcDbLine
10
70.098910
20
171.305681
30
0.0
11
70.362993
21
169.999175
31
0.0
0
LINE
8
Layer 1
62
4
5
3db
100
AcDbEntity
100
AcDbLine
10
70.362993
20
169.999175
30
0.0
11
70.098910
21
168.691289
31
0.0
0
LINE
8
Layer 1
62
4
5
3dc
100
AcDbEntity
100
AcDbLine
10
70.098910
20
168.691289
30
0.0
11
69.378756
21
167.623201
31
0.0
0
LINE
8
Layer 1
62
4
5
3dd
100
AcDbEntity
100
AcDbLine
10
69.378756
20
167.623201
30
0.0
11
68.310668
21
166.903048
31
0.0
0
LINE
8
Layer 1
62
4
5
3de
100
AcDbEntity
100
AcDbLine
10
68.310668
20
166.903048
30
0.0
11
67.002784
21
166.638966
31
0.0
0
LINE
8
Layer 1
62
4
5
3df
100
AcDbEntity
100
AcDbLine
10
67.002784
20
166.638966
30
0.0
11
65.694901
21
166.903048
31
0.0
0
LINE
8
Layer 1
62
4
5
3e0
100
AcDbEntity
100
AcDbLine
10
65.694901
20
166.903048
30
0.0
11
64.626813
21
167.623201
31
0.0
0
LINE
8
Layer 1
62
4
5
3e1
100
AcDbEntity
100
AcDbLine
10
64.626813
20
167.623201
30
0.0
11
63.906658
21
168.691289
31
0.0
0
LINE
8
Layer 1
62
4
5
3e2
100
AcDbEntity
100
AcDbLine
10
63.906658
20
168.691289
30
0.0
11
63.642576
21
169.999175
31
0.0
0
LINE
8
Layer 1
62
4
5
3e3
100
AcDbEntity
100
AcDbLine
10
63.642576
20
169.999175
30
0.0
11
63.906660
21
171.305682
31
0.0
0
LINE
8
Layer 1
62
4
5
3e4
100
AcDbEntity
100
AcDbLine
10
63.906660
20
171.305682
30
0.0
11
64.626814
21
172.370738
31
0.0
0
LINE
8
Layer 1
62
4
5
3e5
100
AcDbEntity
100
AcDbLine
10
64.626814
20
172.370738
30
0.0
11
65.694902
21
173.087860
31
0.0
0
LINE
8
Layer 1
62
4
5
3e6
100
AcDbEntity
100
AcDbLine
10
65.694902
20
173.087860
30
0.0
11
67.002784
21
173.350563
31
0.0
0
LINE
8
Layer 1
62
4
5
3e7
100
AcDbEntity
100
AcDbLine
10
67.002784
20
173.350563
30
0.0
11
67.002784
21
173.350563
31
0.0
0
LINE
8
text
62
4
5
3e8
100
AcDbEntity
100
AcDbLine
10
197.855417
20
252.136868
30
0.0
11
197.855417
21
251.995757
31
0.0
0
LINE
8
text
62
4
5
3e9
100
AcDbEntity
100
AcDbLine
10
197.855417
20
251.995757
30
0.0
11
197.855417
21
196.001104
31
0.0
0
LINE
8
text
62
4
5
3ea
100
AcDbEntity
100
AcDbLine
10
197.855417
20
196.001104
30
0.0
11
197.855417
21
195.859993
31
0.0
0
LINE
8
text
62
4
5
3eb
100
AcDbEntity
100
AcDbLine
10
197.855417
20
195.859993
30
0.0
11
197.996528
21
195.859993
31
0.0
0
LINE
8
text
62
4
5
3ec
100
AcDbEntity
100
AcDbLine
10
197.996528
20
195.859993
30
0.0
11
214.003819
21
195.859993
31
0.0
0
LINE
8
text
62
4
5
3ed
100
AcDbEntity
100
AcDbLine
10
214.003819
20
195.859993
30
0.0
11
214.144931
21
195.859993
31
0.0
0
LINE
8
text
62
4
5
3ee
100
AcDbEntity
100
AcDbLine
10
214.144931
20
195.859993
30
0.0
11
214.144931
21
196.001104
31
0.0
0
LINE
8
text
62
4
5
3ef
100
AcDbEntity
100
AcDbLine
10
214.144931
20
196.001104
30
0.0
11
214.144931
21
207.854437
31
0.0
0
LINE
8
text
62
4
5
3f0
100
AcDbEntity
100
AcDbLine
10
214.144931
20
207.854437
30
0.0
11
217.999028
21
207.854437
31
0.0
0
LINE
8
text
62
4
5
3f1
100
AcDbEntity
100
AcDbLine
10
217.999028
20
207.854437
30
0.0
11
218.140139
21
207.854437
31
0.0
0
LINE
8
text
62
4
5
3f2
100
AcDbEntity
100
AcDbLine
10
218.140139
20
207.854437
30
0.0
11
218.140139
21
207.995548
31
0.0
0
LINE
8
text
62
4
5
3f3
100
AcDbEntity
100
AcDbLine
10
218.140139
20
207.995548
30
0.0
11
218.140139
21
217.996798
31
0.0
0
LINE
8
text
62
4
5
3f4
100
AcDbEntity
100
AcDbLine
10
218.140139
20
217.996798
30
0.0
11
218.140139
21
218.137909
31
0.0
0
LINE
8
text
62
4
5
3f5
100
AcDbEntity
100
AcDbLine
10
218.140139
20
218.137909
30
0.0
11
217.999028
21
218.137909
31
0.0
0
LINE
8
text
62
4
5
3f6
100
AcDbEntity
100
AcDbLine
10
217.999028
20
218.137909
30
0.0
11
214.144931
21
218.137909
31
0.0
0
LINE
8
text
62
4
5
3f7
100
AcDbEntity
100
AcDbLine
10
214.144931
20
218.137909
30
0.0
11
214.144931
21
227.856937
31
0.0
0
LINE
8
text
62
4
5
3f8
100
AcDbEntity
100
AcDbLine
10
214.144931
20
227.856937
30
0.0
11
218.007847
21
227.856937
31
0.0
0
LINE
8
text
62
4
5
3f9
100
AcDbEntity
100
AcDbLine
10
218.007847
20
227.856937
30
0.0
11
218.148958
21
227.856937
31
0.0
0
LINE
8
text
62
4
5
3fa
100
AcDbEntity
100
AcDbLine
10
218.148958
20
227.856937
30
0.0
11
218.148958
21
227.998048
31
0.0
0
LINE
8
text
62
4
5
3fb
100
AcDbEntity
100
AcDbLine
10
218.148958
20
227.998048
30
0.0
11
218.148958
21
237.999298
31
0.0
0
LINE
8
text
62
4
5
3fc
100
AcDbEntity
100
AcDbLine
10
218.148958
20
237.999298
30
0.0
11
218.148958
21
238.140409
31
0.0
0
LINE
8
text
62
4
5
3fd
100
AcDbEntity
100
AcDbLine
10
218.148958
20
238.140409
30
0.0
11
218.007847
21
238.140409
31
0.0
0
LINE
8
text
62
4
5
3fe
100
AcDbEntity
100
AcDbLine
10
218.007847
20
238.140409
30
0.0
11
214.144931
21
238.140409
31
0.0
0
LINE
8
text
62
4
5
3ff
100
AcDbEntity
100
AcDbLine
10
214.144931
20
238.140409
30
0.0
11
214.144931
21
251.995757
31
0.0
0
LINE
8
text
62
4
5
400
100
AcDbEntity
100
AcDbLine
10
214.144931
20
251.995757
30
0.0
11
214.144931
21
252.136868
31
0.0
0
LINE
8
text
62
4
5
401
100
AcDbEntity
100
AcDbLine
10
214.144931
20
252.136868
30
0.0
11
214.003819
21
252.136868
31
0.0
0
LINE
8
text
62
4
5
402
100
AcDbEntity
100
AcDbLine
10
214.003819
20
252.136868
30
0.0
11
197.996528
21
252.136868
31
0.0
0
LINE
8
text
62
4
5
403
100
AcDbEntity
100
AcDbLine
10
197.996528
20
252.136868
30
0.0
11
197.855417
21
252.136868
31
0.0
0
LINE
8
text
62
4
5
404
100
AcDbEntity
100
AcDbLine
10
197.855417
20
252.136868
30
0.0
11
197.855417
21
252.136868
31
0.0
0
LINE
8
text
62
4
5
405
100
AcDbEntity
100
AcDbLine
10
198.137639
20
251.854645
30
0.0
11
213.862708
21
251.854645
31
0.0
0
LINE
8
text
62
4
5
406
100
AcDbEntity
100
AcDbLine
10
213.862708
20
251.854645
30
0.0
11
213.862708
21
237.999298
31
0.0
0
LINE
8
text
62
4
5
407
100
AcDbEntity
100
AcDbLine
10
213.862708
20
237.999298
30
0.0
11
213.862708
21
237.858187
31
0.0
0
LINE
8
text
62
4
5
408
100
AcDbEntity
100
AcDbLine
10
213.862708
20
237.858187
30
0.0
11
214.003819
21
237.858187
31
0.0
0
LINE
8
text
62
4
5
409
100
AcDbEntity
100
AcDbLine
10
214.003819
20
237.858187
30
0.0
11
217.866736
21
237.858187
31
0.0
0
LINE
8
text
62
4
5
40a
100
AcDbEntity
100
AcDbLine
10
217.866736
20
237.858187
30
0.0
11
217.866736
21
228.139159
31
0.0
0
LINE
8
text
62
4
5
40b
100
AcDbEntity
100
AcDbLine
10
217.866736
20
228.139159
30
0.0
11
214.003819
21
228.139159
31
0.0
0
LINE
8
text
62
4
5
40c
100
AcDbEntity
100
AcDbLine
10
214.003819
20
228.139159
30
0.0
11
213.862708
21
228.139159
31
0.0
0
LINE
8
text
62
4
5
40d
100
AcDbEntity
100
AcDbLine
10
213.862708
20
228.139159
30
0.0
11
213.862708
21
227.998048
31
0.0
0
LINE
8
text
62
4
5
40e
100
AcDbEntity
100
AcDbLine
10
213.862708
20
227.998048
30
0.0
11
213.862708
21
217.996798
31
0.0
0
LINE
8
text
62
4
5
40f
100
AcDbEntity
100
AcDbLine
10
213.862708
20
217.996798
30
0.0
11
213.862708
21
217.855687
31
0.0
0
LINE
8
text
62
4
5
410
100
AcDbEntity
100
AcDbLine
10
213.862708
20
217.855687
30
0.0
11
214.003819
21
217.855687
31
0.0
0
LINE
8
text
62
4
5
411
100
AcDbEntity
100
AcDbLine
10
214.003819
20
217.855687
30
0.0
11
217.857917
21
217.855687
31
0.0
0
LINE
8
text
62
4
5
412
100
AcDbEntity
100
AcDbLine
10
217.857917
20
217.855687
30
0.0
11
217.857917
21
208.136659
31
0.0
0
LINE
8
text
62
4
5
413
100
AcDbEntity
100
AcDbLine
10
217.857917
20
208.136659
30
0.0
11
214.003819
21
208.136659
31
0.0
0
LINE
8
text
62
4
5
414
100
AcDbEntity
100
AcDbLine
10
214.003819
20
208.136659
30
0.0
11
213.862708
21
208.136659
31
0.0
0
LINE
8
text
62
4
5
415
100
AcDbEntity
100
AcDbLine
10
213.862708
20
208.136659
30
0.0
11
213.862708
21
207.995548
31
0.0
0
LINE
8
text
62
4
5
416
100
AcDbEntity
100
AcDbLine
10
213.862708
20
207.995548
30
0.0
11
213.862708
21
196.142215
31
0.0
0
LINE
8
text
62
4
5
417
100
AcDbEntity
100
AcDbLine
10
213.862708
20
196.142215
30
0.0
11
198.137639
21
196.142215
31
0.0
0
LINE
8
text
62
4
5
418
100
AcDbEntity
100
AcDbLine
10
198.137639
20
196.142215
30
0.0
11
198.137639
21
251.854645
31
0.0
0
LINE
8
text
62
4
5
419
100
AcDbEntity
100
AcDbLine
10
198.137639
20
251.854645
30
0.0
11
198.137639
21
251.854645
31
0.0
0
LINE
8
text
62
4
5
41a
100
AcDbEntity
100
AcDbLine
10
200.862847
20
230.141173
30
0.0
11
200.862847
21
230.000062
31
0.0
0
LINE
8
text
62
4
5
41b
100
AcDbEntity
100
AcDbLine
10
200.862847
20
230.000062
30
0.0
11
200.862847
21
227.998048
31
0.0
0
LINE
8
text
62
4
5
41c
100
AcDbEntity
100
AcDbLine
10
200.862847
20
227.998048
30
0.0
11
200.862847
21
227.856937
31
0.0
0
LINE
8
text
62
4
5
41d
100
AcDbEntity
100
AcDbLine
10
200.862847
20
227.856937
30
0.0
11
201.003958
21
227.856937
31
0.0
0
LINE
8
text
62
4
5
41e
100
AcDbEntity
100
AcDbLine
10
201.003958
20
227.856937
30
0.0
11
204.002569
21
227.856937
31
0.0
0
LINE
8
text
62
4
5
41f
100
AcDbEntity
100
AcDbLine
10
204.002569
20
227.856937
30
0.0
11
204.143681
21
227.856937
31
0.0
0
LINE
8
text
62
4
5
420
100
AcDbEntity
100
AcDbLine
10
204.143681
20
227.856937
30
0.0
11
204.143681
21
227.998048
31
0.0
0
LINE
8
text
62
4
5
421
100
AcDbEntity
100
AcDbLine
10
204.143681
20
227.998048
30
0.0
11
204.143681
21
230.000062
31
0.0
0
LINE
8
text
62
4
5
422
100
AcDbEntity
100
AcDbLine
10
204.143681
20
230.000062
30
0.0
11
204.143681
21
230.141173
31
0.0
0
LINE
8
text
62
4
5
423
100
AcDbEntity
100
AcDbLine
10
204.143681
20
230.141173
30
0.0
11
204.002569
21
230.141173
31
0.0
0
LINE
8
text
62
4
5
424
100
AcDbEntity
100
AcDbLine
10
204.002569
20
230.141173
30
0.0
11
201.003958
21
230.141173
31
0.0
0
LINE
8
text
62
4
5
425
100
AcDbEntity
100
AcDbLine
10
201.003958
20
230.141173
30
0.0
11
200.862847
21
230.141173
31
0.0
0
LINE
8
text
62
4
5
426
100
AcDbEntity
100
AcDbLine
10
200.862847
20
230.141173
30
0.0
11
200.862847
21
230.141173
31
0.0
0
LINE
8
text
62
4
5
427
100
AcDbEntity
100
AcDbLine
10
201.145069
20
229.858951
30
0.0
11
203.861458
21
229.858951
31
0.0
0
LINE
8
text
62
4
5
428
100
AcDbEntity
100
AcDbLine
10
203.861458
20
229.858951
30
0.0
11
203.861458
21
228.139159
31
0.0
0
LINE
8
text
62
4
5
429
100
AcDbEntity
100
AcDbLine
10
203.861458
20
228.139159
30
0.0
11
201.145069
21
228.139159
31
0.0
0
LINE
8
text
62
4
5
42a
100
AcDbEntity
100
AcDbLine
10
201.145069
20
228.139159
30
0.0
11
201.145069
21
229.858951
31
0.0
0
LINE
8
text
62
4
5
42b
100
AcDbEntity
100
AcDbLine
10
201.145069
20
229.858951
30
0.0
11
201.145069
21
229.858951
31
0.0
0
LINE
8
text
62
4
5
42c
100
AcDbEntity
100
AcDbLine
10
200.862847
20
218.137909
30
0.0
11
200.862847
21
217.996798
31
0.0
0
LINE
8
text
62
4
5
42d
100
AcDbEntity
100
AcDbLine
10
200.862847
20
217.996798
30
0.0
11
200.862847
21
216.003604
31
0.0
0
LINE
8
text
62
4
5
42e
100
AcDbEntity
100
AcDbLine
10
200.862847
20
216.003604
30
0.0
11
200.862847
21
215.862493
31
0.0
0
LINE
8
text
62
4
5
42f
100
AcDbEntity
100
AcDbLine
10
200.862847
20
215.862493
30
0.0
11
201.003958
21
215.862493
31
0.0
0
LINE
8
text
62
4
5
430
100
AcDbEntity
100
AcDbLine
10
201.003958
20
215.862493
30
0.0
11
204.002569
21
215.862493
31
0.0
0
LINE
8
text
62
4
5
431
100
AcDbEntity
100
AcDbLine
10
204.002569
20
215.862493
30
0.0
11
204.143681
21
215.862493
31
0.0
0
LINE
8
text
62
4
5
432
100
AcDbEntity
100
AcDbLine
10
204.143681
20
215.862493
30
0.0
11
204.143681
21
216.003604
31
0.0
0
LINE
8
text
62
4
5
433
100
AcDbEntity
100
AcDbLine
10
204.143681
20
216.003604
30
0.0
11
204.143681
21
217.996798
31
0.0
0
LINE
8
text
62
4
5
434
100
AcDbEntity
100
AcDbLine
10
204.143681
20
217.996798
30
0.0
11
204.143681
21
218.137909
31
0.0
0
LINE
8
text
62
4
5
435
100
AcDbEntity
100
AcDbLine
10
204.143681
20
218.137909
30
0.0
11
204.002569
21
218.137909
31
0.0
0
LINE
8
text
62
4
5
436
100
AcDbEntity
100
AcDbLine
10
204.002569
20
218.137909
30
0.0
11
201.003958
21
218.137909
31
0.0
0
LINE
8
text
62
4
5
437
100
AcDbEntity
100
AcDbLine
10
201.003958
20
218.137909
30
0.0
11
200.862847
21
218.137909
31
0.0
0
LINE
8
text
62
4
5
438
100
AcDbEntity
100
AcDbLine
10
200.862847
20
218.137909
30
0.0
11
200.862847
21
218.137909
31
0.0
0
LINE
8
text
62
4
5
439
100
AcDbEntity
100
AcDbLine
10
201.145069
20
217.855687
30
0.0
11
203.861458
21
217.855687
31
0.0
0
LINE
8
text
62
4
5
43a
100
AcDbEntity
100
AcDbLine
10
203.861458
20
217.855687
30
0.0
11
203.861458
21
216.144715
31
0.0
0
LINE
8
text
62
4
5
43b
100
AcDbEntity
100
AcDbLine
10
203.861458
20
216.144715
30
0.0
11
201.145069
21
216.144715
31
0.0
0
LINE
8
text
62
4
5
43c
100
AcDbEntity
100
AcDbLine
10
201.145069
20
216.144715
30
0.0
11
201.145069
21
217.855687
31
0.0
0
LINE
8
text
62
4
5
43d
100
AcDbEntity
100
AcDbLine
10
201.145069
20
217.855687
30
0.0
11
201.145069
21
217.855687
31
0.0
0
LINE
8
text
62
4
5
43e
100
AcDbEntity
100
AcDbLine
10
181.856944
20
252.136868
30
0.0
11
181.856944
21
251.995757
31
0.0
0
LINE
8
text
62
4
5
43f
100
AcDbEntity
100
AcDbLine
10
181.856944
20
251.995757
30
0.0
11
181.856944
21
238.140409
31
0.0
0
LINE
8
text
62
4
5
440
100
AcDbEntity
100
AcDbLine
10
181.856944
20
238.140409
30
0.0
11
178.002847
21
238.140409
31
0.0
0
LINE
8
text
62
4
5
441
100
AcDbEntity
100
AcDbLine
10
178.002847
20
238.140409
30
0.0
11
177.861736
21
238.140409
31
0.0
0
LINE
8
text
62
4
5
442
100
AcDbEntity
100
AcDbLine
10
177.861736
20
238.140409
30
0.0
11
177.861736
21
237.999298
31
0.0
0
LINE
8
text
62
4
5
443
100
AcDbEntity
100
AcDbLine
10
177.861736
20
237.999298
30
0.0
11
177.861736
21
227.998048
31
0.0
0
LINE
8
text
62
4
5
444
100
AcDbEntity
100
AcDbLine
10
177.861736
20
227.998048
30
0.0
11
177.861736
21
227.856937
31
0.0
0
LINE
8
text
62
4
5
445
100
AcDbEntity
100
AcDbLine
10
177.861736
20
227.856937
30
0.0
11
178.002847
21
227.856937
31
0.0
0
LINE
8
text
62
4
5
446
100
AcDbEntity
100
AcDbLine
10
178.002847
20
227.856937
30
0.0
11
181.865764
21
227.856937
31
0.0
0
LINE
8
text
62
4
5
447
100
AcDbEntity
100
AcDbLine
10
181.865764
20
227.856937
30
0.0
11
181.865764
21
218.146729
31
0.0
0
LINE
8
text
62
4
5
448
100
AcDbEntity
100
AcDbLine
10
181.865764
20
218.146729
30
0.0
11
178.002847
21
218.146729
31
0.0
0
LINE
8
text
62
4
5
449
100
AcDbEntity
100
AcDbLine
10
178.002847
20
218.146729
30
0.0
11
177.861736
21
218.146729
31
0.0
0
LINE
8
text
62
4
5
44a
100
AcDbEntity
100
AcDbLine
10
177.861736
20
218.146729
30
0.0
11
177.861736
21
218.005618
31
0.0
0
LINE
8
text
62
4
5
44b
100
AcDbEntity
100
AcDbLine
10
177.861736
20
218.005618
30
0.0
11
177.861736
21
208.004368
31
0.0
0
LINE
8
text
62
4
5
44c
100
AcDbEntity
100
AcDbLine
10
177.861736
20
208.004368
30
0.0
11
177.861736
21
207.863257
31
0.0
0
LINE
8
text
62
4
5
44d
100
AcDbEntity
100
AcDbLine
10
177.861736
20
207.863257
30
0.0
11
178.002847
21
207.863257
31
0.0
0
LINE
8
text
62
4
5
44e
100
AcDbEntity
100
AcDbLine
10
178.002847
20
207.863257
30
0.0
11
181.856944
21
207.854437
31
0.0
0
LINE
8
text
62
4
5
44f
100
AcDbEntity
100
AcDbLine
10
181.856944
20
207.854437
30
0.0
11
181.865764
21
196.001104
31
0.0
0
LINE
8
text
62
4
5
450
100
AcDbEntity
100
AcDbLine
10
181.865764
20
196.001104
30
0.0
11
181.865764
21
195.859993
31
0.0
0
LINE
8
text
62
4
5
451
100
AcDbEntity
100
AcDbLine
10
181.865764
20
195.859993
30
0.0
11
182.006875
21
195.859993
31
0.0
0
LINE
8
text
62
4
5
452
100
AcDbEntity
100
AcDbLine
10
182.006875
20
195.859993
30
0.0
11
197.996528
21
195.859993
31
0.0
0
LINE
8
text
62
4
5
453
100
AcDbEntity
100
AcDbLine
10
197.996528
20
195.859993
30
0.0
11
198.137639
21
195.859993
31
0.0
0
LINE
8
text
62
4
5
454
100
AcDbEntity
100
AcDbLine
10
198.137639
20
195.859993
30
0.0
11
198.137639
21
196.001104
31
0.0
0
LINE
8
text
62
4
5
455
100
AcDbEntity
100
AcDbLine
10
198.137639
20
196.001104
30
0.0
11
198.137639
21
251.995757
31
0.0
0
LINE
8
text
62
4
5
456
100
AcDbEntity
100
AcDbLine
10
198.137639
20
251.995757
30
0.0
11
198.137639
21
252.136868
31
0.0
0
LINE
8
text
62
4
5
457
100
AcDbEntity
100
AcDbLine
10
198.137639
20
252.136868
30
0.0
11
197.996528
21
252.136868
31
0.0
0
LINE
8
text
62
4
5
458
100
AcDbEntity
100
AcDbLine
10
197.996528
20
252.136868
30
0.0
11
181.998056
21
252.136868
31
0.0
0
LINE
8
text
62
4
5
459
100
AcDbEntity
100
AcDbLine
10
181.998056
20
252.136868
30
0.0
11
181.856944
21
252.136868
31
0.0
0
LINE
8
text
62
4
5
45a
100
AcDbEntity
100
AcDbLine
10
181.856944
20
252.136868
30
0.0
11
181.856944
21
252.136868
31
0.0
0
LINE
8
text
62
4
5
45b
100
AcDbEntity
100
AcDbLine
10
182.139167
20
251.854645
30
0.0
11
197.855417
21
251.854645
31
0.0
0
LINE
8
text
62
4
5
45c
100
AcDbEntity
100
AcDbLine
10
197.855417
20
251.854645
30
0.0
11
197.855417
21
196.142215
31
0.0
0
LINE
8
text
62
4
5
45d
100
AcDbEntity
100
AcDbLine
10
197.855417
20
196.142215
30
0.0
11
182.147986
21
196.142215
31
0.0
0
LINE
8
text
62
4
5
45e
100
AcDbEntity
100
AcDbLine
10
182.147986
20
196.142215
30
0.0
11
182.139167
21
207.995548
31
0.0
0
LINE
8
text
62
4
5
45f
100
AcDbEntity
100
AcDbLine
10
182.139167
20
207.995548
30
0.0
11
182.139167
21
208.136659
31
0.0
0
LINE
8
text
62
4
5
460
100
AcDbEntity
100
AcDbLine
10
182.139167
20
208.136659
30
0.0
11
181.998056
21
208.136659
31
0.0
0
LINE
8
text
62
4
5
461
100
AcDbEntity
100
AcDbLine
10
181.998056
20
208.136659
30
0.0
11
178.143958
21
208.145479
31
0.0
0
LINE
8
text
62
4
5
462
100
AcDbEntity
100
AcDbLine
10
178.143958
20
208.145479
30
0.0
11
178.143958
21
217.864507
31
0.0
0
LINE
8
text
62
4
5
463
100
AcDbEntity
100
AcDbLine
10
178.143958
20
217.864507
30
0.0
11
182.006875
21
217.864507
31
0.0
0
LINE
8
text
62
4
5
464
100
AcDbEntity
100
AcDbLine
10
182.006875
20
217.864507
30
0.0
11
182.147986
21
217.864507
31
0.0
0
LINE
8
text
62
4
5
465
100
AcDbEntity
100
AcDbLine
10
182.147986
20
217.864507
30
0.0
11
182.147986
21
218.005618
31
0.0
0
LINE
8
text
62
4
5
466
100
AcDbEntity
100
AcDbLine
10
182.147986
20
218.005618
30
0.0
11
182.147986
21
227.998048
31
0.0
0
LINE
8
text
62
4
5
467
100
AcDbEntity
100
AcDbLine
10
182.147986
20
227.998048
30
0.0
11
182.147986
21
228.139159
31
0.0
0
LINE
8
text
62
4
5
468
100
AcDbEntity
100
AcDbLine
10
182.147986
20
228.139159
30
0.0
11
182.006875
21
228.139159
31
0.0
0
LINE
8
text
62
4
5
469
100
AcDbEntity
100
AcDbLine
10
182.006875
20
228.139159
30
0.0
11
178.143958
21
228.139159
31
0.0
0
LINE
8
text
62
4
5
46a
100
AcDbEntity
100
AcDbLine
10
178.143958
20
228.139159
30
0.0
11
178.143958
21
237.858187
31
0.0
0
LINE
8
text
62
4
5
46b
100
AcDbEntity
100
AcDbLine
10
178.143958
20
237.858187
30
0.0
11
181.998056
21
237.858187
31
0.0
0
LINE
8
text
62
4
5
46c
100
AcDbEntity
100
AcDbLine
10
181.998056
20
237.858187
30
0.0
11
182.139167
21
237.858187
31
0.0
0
LINE
8
text
62
4
5
46d
100
AcDbEntity
100
AcDbLine
10
182.139167
20
237.858187
30
0.0
11
182.139167
21
237.999298
31
0.0
0
LINE
8
text
62
4
5
46e
100
AcDbEntity
100
AcDbLine
10
182.139167
20
237.999298
30
0.0
11
182.139167
21
251.854645
31
0.0
0
LINE
8
text
62
4
5
46f
100
AcDbEntity
100
AcDbLine
10
182.139167
20
251.854645
30
0.0
11
182.139167
21
251.854645
31
0.0
0
LINE
8
text
62
4
5
470
100
AcDbEntity
100
AcDbLine
10
186.857569
20
238.140409
30
0.0
11
186.857569
21
237.999298
31
0.0
0
LINE
8
text
62
4
5
471
100
AcDbEntity
100
AcDbLine
10
186.857569
20
237.999298
30
0.0
11
186.857569
21
233.995270
31
0.0
0
LINE
8
text
62
4
5
472
100
AcDbEntity
100
AcDbLine
10
186.857569
20
233.995270
30
0.0
11
186.857569
21
233.854159
31
0.0
0
LINE
8
text
62
4
5
473
100
AcDbEntity
100
AcDbLine
10
186.857569
20
233.854159
30
0.0
11
186.998681
21
233.854159
31
0.0
0
LINE
8
text
62
4
5
474
100
AcDbEntity
100
AcDbLine
10
186.998681
20
233.854159
30
0.0
11
191.999306
21
233.854159
31
0.0
0
LINE
8
text
62
4
5
475
100
AcDbEntity
100
AcDbLine
10
191.999306
20
233.854159
30
0.0
11
192.140417
21
233.854159
31
0.0
0
LINE
8
text
62
4
5
476
100
AcDbEntity
100
AcDbLine
10
192.140417
20
233.854159
30
0.0
11
192.140417
21
233.995270
31
0.0
0
LINE
8
text
62
4
5
477
100
AcDbEntity
100
AcDbLine
10
192.140417
20
233.995270
30
0.0
11
192.140417
21
237.999298
31
0.0
0
LINE
8
text
62
4
5
478
100
AcDbEntity
100
AcDbLine
10
192.140417
20
237.999298
30
0.0
11
192.140417
21
238.140409
31
0.0
0
LINE
8
text
62
4
5
479
100
AcDbEntity
100
AcDbLine
10
192.140417
20
238.140409
30
0.0
11
191.999306
21
238.140409
31
0.0
0
LINE
8
text
62
4
5
47a
100
AcDbEntity
100
AcDbLine
10
191.999306
20
238.140409
30
0.0
11
186.998681
21
238.140409
31
0.0
0
LINE
8
text
62
4
5
47b
100
AcDbEntity
100
AcDbLine
10
186.998681
20
238.140409
30
0.0
11
186.857569
21
238.140409
31
0.0
0
LINE
8
text
62
4
5
47c
100
AcDbEntity
100
AcDbLine
10
186.857569
20
238.140409
30
0.0
11
186.857569
21
238.140409
31
0.0
0
LINE
8
text
62
4
5
47d
100
AcDbEntity
100
AcDbLine
10
187.139792
20
237.858187
30
0.0
11
191.858194
21
237.858187
31
0.0
0
LINE
8
text
62
4
5
47e
100
AcDbEntity
100
AcDbLine
10
191.858194
20
237.858187
30
0.0
11
191.858194
21
234.136382
31
0.0
0
LINE
8
text
62
4
5
47f
100
AcDbEntity
100
AcDbLine
10
191.858194
20
234.136382
30
0.0
11
187.139792
21
234.136382
31
0.0
0
LINE
8
text
62
4
5
480
100
AcDbEntity
100
AcDbLine
10
187.139792
20
234.136382
30
0.0
11
187.139792
21
237.858187
31
0.0
0
LINE
8
text
62
4
5
481
100
AcDbEntity
100
AcDbLine
10
187.139792
20
237.858187
30
0.0
11
187.139792
21
237.858187
31
0.0
0
LINE
8
text
62
4
5
482
100
AcDbEntity
100
AcDbLine
10
186.857569
20
212.140687
30
0.0
11
186.857569
21
211.999576
31
0.0
0
LINE
8
text
62
4
5
483
100
AcDbEntity
100
AcDbLine
10
186.857569
20
211.999576
30
0.0
11
186.857569
21
207.995548
31
0.0
0
LINE
8
text
62
4
5
484
100
AcDbEntity
100
AcDbLine
10
186.857569
20
207.995548
30
0.0
11
186.857569
21
207.854437
31
0.0
0
LINE
8
text
62
4
5
485
100
AcDbEntity
100
AcDbLine
10
186.857569
20
207.854437
30
0.0
11
186.998681
21
207.854437
31
0.0
0
LINE
8
text
62
4
5
486
100
AcDbEntity
100
AcDbLine
10
186.998681
20
207.854437
30
0.0
11
191.999306
21
207.854437
31
0.0
0
LINE
8
text
62
4
5
487
100
AcDbEntity
100
AcDbLine
10
191.999306
20
207.854437
30
0.0
11
192.140417
21
207.854437
31
0.0
0
LINE
8
text
62
4
5
488
100
AcDbEntity
100
AcDbLine
10
192.140417
20
207.854437
30
0.0
11
192.140417
21
207.995548
31
0.0
0
LINE
8
text
62
4
5
489
100
AcDbEntity
100
AcDbLine
10
192.140417
20
207.995548
30
0.0
11
192.140417
21
211.999576
31
0.0
0
LINE
8
text
62
4
5
48a
100
AcDbEntity
100
AcDbLine
10
192.140417
20
211.999576
30
0.0
11
192.140417
21
212.140687
31
0.0
0
LINE
8
text
62
4
5
48b
100
AcDbEntity
100
AcDbLine
10
192.140417
20
212.140687
30
0.0
11
191.999306
21
212.140687
31
0.0
0
LINE
8
text
62
4
5
48c
100
AcDbEntity
100
AcDbLine
10
191.999306
20
212.140687
30
0.0
11
186.998681
21
212.140687
31
0.0
0
LINE
8
text
62
4
5
48d
100
AcDbEntity
100
AcDbLine
10
186.998681
20
212.140687
30
0.0
11
186.857569
21
212.140687
31
0.0
0
LINE
8
text
62
4
5
48e
100
AcDbEntity
100
AcDbLine
10
186.857569
20
212.140687
30
0.0
11
186.857569
21
212.140687
31
0.0
0
LINE
8
text
62
4
5
48f
100
AcDbEntity
100
AcDbLine
10
187.139792
20
211.858465
30
0.0
11
191.858194
21
211.858465
31
0.0
0
LINE
8
text
62
4
5
490
100
AcDbEntity
100
AcDbLine
10
191.858194
20
211.858465
30
0.0
11
191.858194
21
208.136659
31
0.0
0
LINE
8
text
62
4
5
491
100
AcDbEntity
100
AcDbLine
10
191.858194
20
208.136659
30
0.0
11
187.139792
21
208.136659
31
0.0
0
LINE
8
text
62
4
5
492
100
AcDbEntity
100
AcDbLine
10
187.139792
20
208.136659
30
0.0
11
187.139792
21
211.858465
31
0.0
0
LINE
8
text
62
4
5
493
100
AcDbEntity
100
AcDbLine
10
187.139792
20
211.858465
30
0.0
11
187.139792
21
211.858465
31
0.0
  0
ENDSEC
  0
SECTION
  2
OBJECTS
  0
DICTIONARY
  5
C
330
0
100
AcDbDictionary
  3
ACAD_GROUP
350
D
  3
ACAD_MLINESTYLE
350
17
  0
DICTIONARY
  5
D
330
C
100
AcDbDictionary
  0
DICTIONARY
  5
1A
330
C
100
AcDbDictionary
  0
DICTIONARY
  5
17
330
C
100
AcDbDictionary
  3
STANDARD
350
18
  0
DICTIONARY
  5
19
330
C
100
AcDbDictionary
  0
ENDSEC
  0
EOF
