999
Inkscape export via "Better Better DXF Output" (http://tim.cexx.org/?p=590)
  0
SECTION
  2
HEADER
  9
$ACADVER
  1
AC1014
  9
$HANDSEED
  5
FFFF
  0
ENDSEC
  0
SECTION
  2
TABLES
  0
TABLE
  2
VPORT
  5
8
330
0
100
AcDbSymbolTable
 70
     4
  0
VPORT
  5
2E
330
8
100
AcDbSymbolTableRecord
100
AcDbViewportTableRecord
  2
*ACTIVE
 70
     0
 10
0.0
 20
0.0
 11
1.0
 21
1.0
 12
4.25
 22
5.5
 13
0.0
 23
0.0
 14
10.0
 24
10.0
 15
10.0
 25
10.0
 16
0.0
 26
0.0
 36
1.0
 17
0.0
 27
0.0
 37
0.0
 40
11
 41
1.24
 42
50.0
 43
0.0
 44
0.0
 50
0.0
 51
0.0
 71
     0
 72
   100
 73
     1
 74
     3
 75
     0
 76
     0
 77
     0
 78
     0
  0
ENDTAB
  0
TABLE
  2
LTYPE
  5
5
330
0
100
AcDbSymbolTable
 70
     1
  0
LTYPE
  5
14
330
5
100
AcDbSymbolTableRecord
100
AcDbLinetypeTableRecord
  2
BYBLOCK
 70
     0
  3

 72
    65
 73
     0
 40
0.0
  0
LTYPE
  5
15
330
5
100
AcDbSymbolTableRecord
100
AcDbLinetypeTableRecord
  2
BYLAYER
 70
     0
  3

 72
    65
 73
     0
 40
0.0
  0
LTYPE
  5
16
330
5
100
AcDbSymbolTableRecord
100
AcDbLinetypeTableRecord
  2
CONTINUOUS
 70
     0
  3
Solid line
 72
    65
 73
     0
 40
0.0
  0
ENDTAB
  0
TABLE
  2
STYLE
  5
3
330
0
100
AcDbSymbolTable
 70
     1
  0
STYLE
  5
11
330
3
100
AcDbSymbolTableRecord
100
AcDbTextStyleTableRecord
  2
STANDARD
 70
     0
 40
0.0
 41
1.0
 50
0.0
 71
     0
 42
2.5
  3
txt
  4

  0
ENDTAB
  0
TABLE
  2
VIEW
  5
6
330
0
100
AcDbSymbolTable
 70
     0
  0
ENDTAB
  0
TABLE
  2
UCS
  5
7
330
0
100
AcDbSymbolTable
 70
     0
  0
ENDTAB
  0
TABLE
  2
APPID
  5
9
330
0
100
AcDbSymbolTable
 70
     2
  0
APPID
  5
12
330
9
100
AcDbSymbolTableRecord
100
AcDbRegAppTableRecord
  2
ACAD
 70
     0
  0
ENDTAB
  0
TABLE
  2
DIMSTYLE
  5
A
330
0
100
AcDbSymbolTable
 70
     1
  0
DIMSTYLE
105
27
330
A
100
AcDbSymbolTableRecord
100
AcDbDimStyleTableRecord
  2
ISO-25
 70
     0
  3

  4

  5

  6

  7

 40
1.0
 41
2.5
 42
0.625
 43
3.75
 44
1.25
 45
0.0
 46
0.0
 47
0.0
 48
0.0
140
2.5
141
2.5
142
0.0
143
0.03937007874016
144
1.0
145
0.0
146
1.0
147
0.625
 71
     0
 72
     0
 73
     0
 74
     0
 75
     0
 76
     0
 77
     1
 78
     8
170
     0
171
     3
172
     1
173
     0
174
     0
175
     0
176
     0
177
     0
178
     0
270
     2
271
     2
272
     2
273
     2
274
     3
340
11
275
     0
280
     0
281
     0
282
     0
283
     0
284
     8
285
     0
286
     0
287
     3
288
     0
  0
ENDTAB
  0
TABLE
  2
BLOCK_RECORD
  5
1
330
0
100
AcDbSymbolTable
 70
     1
  0
BLOCK_RECORD
  5
1F
330
1
100
AcDbSymbolTableRecord
100
AcDbBlockTableRecord
  2
*MODEL_SPACE
  0
BLOCK_RECORD
  5
1B
330
1
100
AcDbSymbolTableRecord
100
AcDbBlockTableRecord
  2
*PAPER_SPACE
  0
ENDTAB
0
TABLE
2
LAYER
5
2
330
0
100
AcDbSymbolTable
70
2
0
LAYER
5
10
330
2
100
AcDbSymbolTableRecord
100
AcDbLayerTableRecord
2
Default
70
0
62
7
6
CONTINUOUS
0
LAYER
5
10
330
2
100
AcDbSymbolTableRecord
100
AcDbLayerTableRecord
2
Layer 1
70
0
62
7
6
CONTINUOUS
0
ENDTAB
0
ENDSEC
  0
SECTION
  2
BLOCKS
  0
BLOCK
  5
20
330
1F
100
AcDbEntity
  8
0
100
AcDbBlockBegin
  2
*MODEL_SPACE
 70
     0
 10
0.0
 20
0.0
 30
0.0
  3
*MODEL_SPACE
  1

  0
ENDBLK
  5
21
330
1F
100
AcDbEntity
  8
0
100
AcDbBlockEnd
  0
BLOCK
  5
1C
330
1B
100
AcDbEntity
 67
     1
  8
0
100
AcDbBlockBegin
  2
*PAPER_SPACE
  1

  0
ENDBLK
  5
1D
330
1B
100
AcDbEntity
 67
     1
  8
0
100
AcDbBlockEnd
  0
ENDSEC
  0
SECTION
  2
ENTITIES
0
LINE
8
Default
62
4
5
100
100
AcDbEntity
100
AcDbLine
10
30.005460
20
251.999538
30
0.0
11
74.002477
21
251.999538
31
0.0
0
LINE
8
Default
62
4
5
101
100
AcDbEntity
100
AcDbLine
10
74.002477
20
251.999538
30
0.0
11
74.002477
21
247.996487
31
0.0
0
LINE
8
Default
62
4
5
102
100
AcDbEntity
100
AcDbLine
10
74.002477
20
247.996487
30
0.0
11
94.000001
21
248.000009
31
0.0
0
LINE
8
Default
62
4
5
103
100
AcDbEntity
100
AcDbLine
10
94.000001
20
248.000009
30
0.0
11
93.996380
21
251.999538
31
0.0
0
LINE
8
Default
62
4
5
104
100
AcDbEntity
100
AcDbLine
10
93.996380
20
251.999538
30
0.0
11
114.003918
21
251.999538
31
0.0
0
LINE
8
Default
62
4
5
105
100
AcDbEntity
100
AcDbLine
10
114.003918
20
251.999538
30
0.0
11
114.000001
21
248.000009
31
0.0
0
LINE
8
Default
62
4
5
106
100
AcDbEntity
100
AcDbLine
10
114.000001
20
248.000009
30
0.0
11
134.000034
21
247.996487
31
0.0
0
LINE
8
Default
62
4
5
107
100
AcDbEntity
100
AcDbLine
10
134.000034
20
247.996487
30
0.0
11
134.000034
21
251.999538
31
0.0
0
LINE
8
Default
62
4
5
108
100
AcDbEntity
100
AcDbLine
10
134.000034
20
251.999538
30
0.0
11
174.001371
21
251.999538
31
0.0
0
LINE
8
Default
62
4
5
109
100
AcDbEntity
100
AcDbLine
10
174.001371
20
251.999538
30
0.0
11
173.999999
21
196.000009
31
0.0
0
LINE
8
Default
62
4
5
10a
100
AcDbEntity
100
AcDbLine
10
173.999999
20
196.000009
30
0.0
11
134.000000
21
196.000009
31
0.0
0
LINE
8
Default
62
4
5
10b
100
AcDbEntity
100
AcDbLine
10
134.000000
20
196.000009
30
0.0
11
134.000000
21
200.000009
31
0.0
0
LINE
8
Default
62
4
5
10c
100
AcDbEntity
100
AcDbLine
10
134.000000
20
200.000009
30
0.0
11
114.000001
21
200.000009
31
0.0
0
LINE
8
Default
62
4
5
10d
100
AcDbEntity
100
AcDbLine
10
114.000001
20
200.000009
30
0.0
11
114.000001
21
196.000009
31
0.0
0
LINE
8
Default
62
4
5
10e
100
AcDbEntity
100
AcDbLine
10
114.000001
20
196.000009
30
0.0
11
94.000001
21
196.000009
31
0.0
0
LINE
8
Default
62
4
5
10f
100
AcDbEntity
100
AcDbLine
10
94.000001
20
196.000009
30
0.0
11
94.000001
21
200.000009
31
0.0
0
LINE
8
Default
62
4
5
110
100
AcDbEntity
100
AcDbLine
10
94.000001
20
200.000009
30
0.0
11
73.999999
21
200.000009
31
0.0
0
LINE
8
Default
62
4
5
111
100
AcDbEntity
100
AcDbLine
10
73.999999
20
200.000009
30
0.0
11
73.999999
21
196.000009
31
0.0
0
LINE
8
Default
62
4
5
112
100
AcDbEntity
100
AcDbLine
10
73.999999
20
196.000009
30
0.0
11
30.005460
21
195.997663
31
0.0
0
LINE
8
Default
62
4
5
113
100
AcDbEntity
100
AcDbLine
10
30.005460
20
195.997663
30
0.0
11
30.005460
21
251.999538
31
0.0
0
LINE
8
Default
62
4
5
114
100
AcDbEntity
100
AcDbLine
10
30.005460
20
251.999538
30
0.0
11
30.005460
21
251.999538
31
0.0
0
LINE
8
Default
62
4
5
115
100
AcDbEntity
100
AcDbLine
10
49.997219
20
237.999016
30
0.0
11
54.000200
21
237.999016
31
0.0
0
LINE
8
Default
62
4
5
116
100
AcDbEntity
100
AcDbLine
10
54.000200
20
237.999016
30
0.0
11
54.000200
21
227.995249
31
0.0
0
LINE
8
Default
62
4
5
117
100
AcDbEntity
100
AcDbLine
10
54.000200
20
227.995249
30
0.0
11
49.999999
21
228.000010
31
0.0
0
LINE
8
Default
62
4
5
118
100
AcDbEntity
100
AcDbLine
10
49.999999
20
228.000010
30
0.0
11
49.997219
21
237.999016
31
0.0
0
LINE
8
Default
62
4
5
119
100
AcDbEntity
100
AcDbLine
10
49.997219
20
237.999016
30
0.0
11
49.997219
21
237.999016
31
0.0
0
LINE
8
Default
62
4
5
11a
100
AcDbEntity
100
AcDbLine
10
49.999999
20
218.000010
30
0.0
11
54.000200
21
218.004077
31
0.0
0
LINE
8
Default
62
4
5
11b
100
AcDbEntity
100
AcDbLine
10
54.000200
20
218.004077
30
0.0
11
54.000200
21
208.003456
31
0.0
0
LINE
8
Default
62
4
5
11c
100
AcDbEntity
100
AcDbLine
10
54.000200
20
208.003456
30
0.0
11
49.997219
21
208.003456
31
0.0
0
LINE
8
Default
62
4
5
11d
100
AcDbEntity
100
AcDbLine
10
49.997219
20
208.003456
30
0.0
11
49.999999
21
218.000010
31
0.0
0
LINE
8
Default
62
4
5
11e
100
AcDbEntity
100
AcDbLine
10
49.999999
20
218.000010
30
0.0
11
49.999999
21
218.000010
31
0.0
0
LINE
8
Default
62
4
5
11f
100
AcDbEntity
100
AcDbLine
10
149.999999
20
238.000009
30
0.0
11
154.000702
21
237.999016
31
0.0
0
LINE
8
Default
62
4
5
120
100
AcDbEntity
100
AcDbLine
10
154.000702
20
237.999016
30
0.0
11
154.000702
21
227.995249
31
0.0
0
LINE
8
Default
62
4
5
121
100
AcDbEntity
100
AcDbLine
10
154.000702
20
227.995249
30
0.0
11
149.999999
21
228.000010
31
0.0
0
LINE
8
Default
62
4
5
122
100
AcDbEntity
100
AcDbLine
10
149.999999
20
228.000010
30
0.0
11
149.999999
21
238.000009
31
0.0
0
LINE
8
Default
62
4
5
123
100
AcDbEntity
100
AcDbLine
10
149.999999
20
238.000009
30
0.0
11
149.999999
21
238.000009
31
0.0
0
LINE
8
Default
62
4
5
124
100
AcDbEntity
100
AcDbLine
10
149.999999
20
218.000010
30
0.0
11
154.000702
21
218.004077
31
0.0
0
LINE
8
Default
62
4
5
125
100
AcDbEntity
100
AcDbLine
10
154.000702
20
218.004077
30
0.0
11
154.000000
21
208.000010
31
0.0
0
LINE
8
Default
62
4
5
126
100
AcDbEntity
100
AcDbLine
10
154.000000
20
208.000010
30
0.0
11
150.000569
21
208.003456
31
0.0
0
LINE
8
Default
62
4
5
127
100
AcDbEntity
100
AcDbLine
10
150.000569
20
208.003456
30
0.0
11
149.999999
21
218.000010
31
0.0
0
LINE
8
Default
62
4
5
128
100
AcDbEntity
100
AcDbLine
10
149.999999
20
218.000010
30
0.0
11
149.999999
21
218.000010
31
0.0
0
LINE
8
Default
62
4
5
129
100
AcDbEntity
100
AcDbLine
10
165.996582
20
237.999017
30
0.0
11
165.735729
21
236.994920
31
0.0
0
LINE
8
Default
62
4
5
12a
100
AcDbEntity
100
AcDbLine
10
165.735729
20
236.994920
30
0.0
11
164.996582
21
236.266966
31
0.0
0
LINE
8
Default
62
4
5
12b
100
AcDbEntity
100
AcDbLine
10
164.996582
20
236.266966
30
0.0
11
163.996582
21
235.990824
31
0.0
0
LINE
8
Default
62
4
5
12c
100
AcDbEntity
100
AcDbLine
10
163.996582
20
235.990824
30
0.0
11
162.996582
21
236.266966
31
0.0
0
LINE
8
Default
62
4
5
12d
100
AcDbEntity
100
AcDbLine
10
162.996582
20
236.266966
30
0.0
11
162.257436
21
236.994920
31
0.0
0
LINE
8
Default
62
4
5
12e
100
AcDbEntity
100
AcDbLine
10
162.257436
20
236.994920
30
0.0
11
161.996582
21
237.999017
31
0.0
0
LINE
8
Default
62
4
5
12f
100
AcDbEntity
100
AcDbLine
10
161.996582
20
237.999017
30
0.0
11
162.257436
21
239.003113
31
0.0
0
LINE
8
Default
62
4
5
130
100
AcDbEntity
100
AcDbLine
10
162.257436
20
239.003113
30
0.0
11
162.996582
21
239.731068
31
0.0
0
LINE
8
Default
62
4
5
131
100
AcDbEntity
100
AcDbLine
10
162.996582
20
239.731068
30
0.0
11
163.996582
21
240.007210
31
0.0
0
LINE
8
Default
62
4
5
132
100
AcDbEntity
100
AcDbLine
10
163.996582
20
240.007210
30
0.0
11
164.996582
21
239.731068
31
0.0
0
LINE
8
Default
62
4
5
133
100
AcDbEntity
100
AcDbLine
10
164.996582
20
239.731068
30
0.0
11
165.735729
21
239.003113
31
0.0
0
LINE
8
Default
62
4
5
134
100
AcDbEntity
100
AcDbLine
10
165.735729
20
239.003113
30
0.0
11
165.996582
21
237.999017
31
0.0
0
LINE
8
Default
62
4
5
135
100
AcDbEntity
100
AcDbLine
10
165.996582
20
237.999017
30
0.0
11
165.996582
21
237.999017
31
0.0
0
LINE
8
Default
62
4
5
136
100
AcDbEntity
100
AcDbLine
10
165.996582
20
208.003456
30
0.0
11
165.735729
21
206.999360
31
0.0
0
LINE
8
Default
62
4
5
137
100
AcDbEntity
100
AcDbLine
10
165.735729
20
206.999360
30
0.0
11
164.996582
21
206.271405
31
0.0
0
LINE
8
Default
62
4
5
138
100
AcDbEntity
100
AcDbLine
10
164.996582
20
206.271405
30
0.0
11
163.996582
21
205.995263
31
0.0
0
LINE
8
Default
62
4
5
139
100
AcDbEntity
100
AcDbLine
10
163.996582
20
205.995263
30
0.0
11
162.996582
21
206.271405
31
0.0
0
LINE
8
Default
62
4
5
13a
100
AcDbEntity
100
AcDbLine
10
162.996582
20
206.271405
30
0.0
11
162.257436
21
206.999360
31
0.0
0
LINE
8
Default
62
4
5
13b
100
AcDbEntity
100
AcDbLine
10
162.257436
20
206.999360
30
0.0
11
161.996582
21
208.003456
31
0.0
0
LINE
8
Default
62
4
5
13c
100
AcDbEntity
100
AcDbLine
10
161.996582
20
208.003456
30
0.0
11
162.257436
21
209.007553
31
0.0
0
LINE
8
Default
62
4
5
13d
100
AcDbEntity
100
AcDbLine
10
162.257436
20
209.007553
30
0.0
11
162.996582
21
209.735507
31
0.0
0
LINE
8
Default
62
4
5
13e
100
AcDbEntity
100
AcDbLine
10
162.996582
20
209.735507
30
0.0
11
163.996582
21
210.011649
31
0.0
0
LINE
8
Default
62
4
5
13f
100
AcDbEntity
100
AcDbLine
10
163.996582
20
210.011649
30
0.0
11
164.996582
21
209.735507
31
0.0
0
LINE
8
Default
62
4
5
140
100
AcDbEntity
100
AcDbLine
10
164.996582
20
209.735507
30
0.0
11
165.735729
21
209.007553
31
0.0
0
LINE
8
Default
62
4
5
141
100
AcDbEntity
100
AcDbLine
10
165.735729
20
209.007553
30
0.0
11
165.996582
21
208.003456
31
0.0
0
LINE
8
Default
62
4
5
142
100
AcDbEntity
100
AcDbLine
10
165.996582
20
208.003456
30
0.0
11
165.996582
21
208.003456
31
0.0
0
LINE
8
Default
62
4
5
143
100
AcDbEntity
100
AcDbLine
10
42.019158
20
208.003456
30
0.0
11
41.758304
21
206.999360
31
0.0
0
LINE
8
Default
62
4
5
144
100
AcDbEntity
100
AcDbLine
10
41.758304
20
206.999360
30
0.0
11
41.019158
21
206.271405
31
0.0
0
LINE
8
Default
62
4
5
145
100
AcDbEntity
100
AcDbLine
10
41.019158
20
206.271405
30
0.0
11
40.019158
21
205.995263
31
0.0
0
LINE
8
Default
62
4
5
146
100
AcDbEntity
100
AcDbLine
10
40.019158
20
205.995263
30
0.0
11
39.019158
21
206.271405
31
0.0
0
LINE
8
Default
62
4
5
147
100
AcDbEntity
100
AcDbLine
10
39.019158
20
206.271405
30
0.0
11
38.280011
21
206.999360
31
0.0
0
LINE
8
Default
62
4
5
148
100
AcDbEntity
100
AcDbLine
10
38.280011
20
206.999360
30
0.0
11
38.019158
21
208.003456
31
0.0
0
LINE
8
Default
62
4
5
149
100
AcDbEntity
100
AcDbLine
10
38.019158
20
208.003456
30
0.0
11
38.280012
21
209.007553
31
0.0
0
LINE
8
Default
62
4
5
14a
100
AcDbEntity
100
AcDbLine
10
38.280012
20
209.007553
30
0.0
11
39.019158
21
209.735507
31
0.0
0
LINE
8
Default
62
4
5
14b
100
AcDbEntity
100
AcDbLine
10
39.019158
20
209.735507
30
0.0
11
40.019158
21
210.011649
31
0.0
0
LINE
8
Default
62
4
5
14c
100
AcDbEntity
100
AcDbLine
10
40.019158
20
210.011649
30
0.0
11
41.019158
21
209.735507
31
0.0
0
LINE
8
Default
62
4
5
14d
100
AcDbEntity
100
AcDbLine
10
41.019158
20
209.735507
30
0.0
11
41.758304
21
209.007553
31
0.0
0
LINE
8
Default
62
4
5
14e
100
AcDbEntity
100
AcDbLine
10
41.758304
20
209.007553
30
0.0
11
42.019158
21
208.003456
31
0.0
0
LINE
8
Default
62
4
5
14f
100
AcDbEntity
100
AcDbLine
10
42.019158
20
208.003456
30
0.0
11
42.019158
21
208.003456
31
0.0
0
LINE
8
Default
62
4
5
150
100
AcDbEntity
100
AcDbLine
10
42.000000
20
238.000009
30
0.0
11
41.739147
21
236.995913
31
0.0
0
LINE
8
Default
62
4
5
151
100
AcDbEntity
100
AcDbLine
10
41.739147
20
236.995913
30
0.0
11
41.000000
21
236.267959
31
0.0
0
LINE
8
Default
62
4
5
152
100
AcDbEntity
100
AcDbLine
10
41.000000
20
236.267959
30
0.0
11
40.000000
21
235.991816
31
0.0
0
LINE
8
Default
62
4
5
153
100
AcDbEntity
100
AcDbLine
10
40.000000
20
235.991816
30
0.0
11
39.000000
21
236.267959
31
0.0
0
LINE
8
Default
62
4
5
154
100
AcDbEntity
100
AcDbLine
10
39.000000
20
236.267959
30
0.0
11
38.260854
21
236.995913
31
0.0
0
LINE
8
Default
62
4
5
155
100
AcDbEntity
100
AcDbLine
10
38.260854
20
236.995913
30
0.0
11
38.000001
21
238.000009
31
0.0
0
LINE
8
Default
62
4
5
156
100
AcDbEntity
100
AcDbLine
10
38.000001
20
238.000009
30
0.0
11
38.260854
21
239.004106
31
0.0
0
LINE
8
Default
62
4
5
157
100
AcDbEntity
100
AcDbLine
10
38.260854
20
239.004106
30
0.0
11
39.000001
21
239.732060
31
0.0
0
LINE
8
Default
62
4
5
158
100
AcDbEntity
100
AcDbLine
10
39.000001
20
239.732060
30
0.0
11
40.000001
21
240.008203
31
0.0
0
LINE
8
Default
62
4
5
159
100
AcDbEntity
100
AcDbLine
10
40.000001
20
240.008203
30
0.0
11
41.000001
21
239.732060
31
0.0
0
LINE
8
Default
62
4
5
15a
100
AcDbEntity
100
AcDbLine
10
41.000001
20
239.732060
30
0.0
11
41.739147
21
239.004106
31
0.0
0
LINE
8
Default
62
4
5
15b
100
AcDbEntity
100
AcDbLine
10
41.739147
20
239.004106
30
0.0
11
42.000001
21
238.000009
31
0.0
0
LINE
8
Default
62
4
5
15c
100
AcDbEntity
100
AcDbLine
10
42.000001
20
238.000009
30
0.0
11
42.000001
21
238.000009
31
0.0
0
LINE
8
Layer 1
62
4
5
15d
100
AcDbEntity
100
AcDbLine
10
26.000518
20
50.045146
30
0.0
11
26.000518
21
46.005840
31
0.0
0
LINE
8
Layer 1
62
4
5
15e
100
AcDbEntity
100
AcDbLine
10
26.000518
20
46.005840
30
0.0
11
5.998018
21
46.005840
31
0.0
0
LINE
8
Layer 1
62
4
5
15f
100
AcDbEntity
100
AcDbLine
10
5.998018
20
46.005840
30
0.0
11
5.998018
21
30.007368
31
0.0
0
LINE
8
Layer 1
62
4
5
160
100
AcDbEntity
100
AcDbLine
10
5.998018
20
30.007368
30
0.0
11
20.003296
21
30.007368
31
0.0
0
LINE
8
Layer 1
62
4
5
161
100
AcDbEntity
100
AcDbLine
10
20.003296
20
30.007368
30
0.0
11
20.003296
21
40.008618
31
0.0
0
LINE
8
Layer 1
62
4
5
162
100
AcDbEntity
100
AcDbLine
10
20.003296
20
40.008618
30
0.0
11
42.007810
21
40.008618
31
0.0
0
LINE
8
Layer 1
62
4
5
163
100
AcDbEntity
100
AcDbLine
10
42.007810
20
40.008618
30
0.0
11
42.007810
21
30.007368
31
0.0
0
LINE
8
Layer 1
62
4
5
164
100
AcDbEntity
100
AcDbLine
10
42.007810
20
30.007368
30
0.0
11
52.009060
21
30.007368
31
0.0
0
LINE
8
Layer 1
62
4
5
165
100
AcDbEntity
100
AcDbLine
10
52.009060
20
30.007368
30
0.0
11
52.009060
21
40.008618
31
0.0
0
LINE
8
Layer 1
62
4
5
166
100
AcDbEntity
100
AcDbLine
10
52.009060
20
40.008618
30
0.0
11
66.005518
21
40.008618
31
0.0
0
LINE
8
Layer 1
62
4
5
167
100
AcDbEntity
100
AcDbLine
10
66.005518
20
40.008618
30
0.0
11
66.005518
21
30.007368
31
0.0
0
LINE
8
Layer 1
62
4
5
168
100
AcDbEntity
100
AcDbLine
10
66.005518
20
30.007368
30
0.0
11
77.003365
21
30.007368
31
0.0
0
LINE
8
Layer 1
62
4
5
169
100
AcDbEntity
100
AcDbLine
10
77.003365
20
30.007368
30
0.0
11
77.003365
21
40.008618
31
0.0
0
LINE
8
Layer 1
62
4
5
16a
100
AcDbEntity
100
AcDbLine
10
77.003365
20
40.008618
30
0.0
11
85.002601
21
40.008618
31
0.0
0
LINE
8
Layer 1
62
4
5
16b
100
AcDbEntity
100
AcDbLine
10
85.002601
20
40.008618
30
0.0
11
85.002601
21
30.007368
31
0.0
0
LINE
8
Layer 1
62
4
5
16c
100
AcDbEntity
100
AcDbLine
10
85.002601
20
30.007368
30
0.0
11
101.997671
21
30.007368
31
0.0
0
LINE
8
Layer 1
62
4
5
16d
100
AcDbEntity
100
AcDbLine
10
101.997671
20
30.007368
30
0.0
11
101.997671
21
46.005840
31
0.0
0
LINE
8
Layer 1
62
4
5
16e
100
AcDbEntity
100
AcDbLine
10
101.997671
20
46.005840
30
0.0
11
85.999199
21
46.005840
31
0.0
0
LINE
8
Layer 1
62
4
5
16f
100
AcDbEntity
100
AcDbLine
10
85.999199
20
46.005840
30
0.0
11
85.999199
21
50.001049
31
0.0
0
LINE
8
Layer 1
62
4
5
170
100
AcDbEntity
100
AcDbLine
10
85.999199
20
50.001049
30
0.0
11
66.005518
21
50.001049
31
0.0
0
LINE
8
Layer 1
62
4
5
171
100
AcDbEntity
100
AcDbLine
10
66.005518
20
50.001049
30
0.0
11
66.005518
21
46.005840
31
0.0
0
LINE
8
Layer 1
62
4
5
172
100
AcDbEntity
100
AcDbLine
10
66.005518
20
46.005840
30
0.0
11
46.003018
21
46.005840
31
0.0
0
LINE
8
Layer 1
62
4
5
173
100
AcDbEntity
100
AcDbLine
10
46.003018
20
46.005840
30
0.0
11
46.003018
21
50.001049
31
0.0
0
LINE
8
Layer 1
62
4
5
174
100
AcDbEntity
100
AcDbLine
10
46.003018
20
50.001049
30
0.0
11
26.000518
21
50.045146
31
0.0
0
LINE
8
Layer 1
62
4
5
175
100
AcDbEntity
100
AcDbLine
10
26.000518
20
50.045146
30
0.0
11
26.000518
21
50.045146
31
0.0
0
LINE
8
Layer 1
62
4
5
176
100
AcDbEntity
100
AcDbLine
10
5.996697
20
29.008341
30
0.0
11
5.996697
21
13.001046
31
0.0
0
LINE
8
Layer 1
62
4
5
177
100
AcDbEntity
100
AcDbLine
10
5.996697
20
13.001046
30
0.0
11
25.999197
21
13.001046
31
0.0
0
LINE
8
Layer 1
62
4
5
178
100
AcDbEntity
100
AcDbLine
10
25.999197
20
13.001046
30
0.0
11
25.999197
21
9.005852
31
0.0
0
LINE
8
Layer 1
62
4
5
179
100
AcDbEntity
100
AcDbLine
10
25.999197
20
9.005852
30
0.0
11
46.001697
21
9.005852
31
0.0
0
LINE
8
Layer 1
62
4
5
17a
100
AcDbEntity
100
AcDbLine
10
46.001697
20
9.005852
30
0.0
11
46.001697
21
13.009880
31
0.0
0
LINE
8
Layer 1
62
4
5
17b
100
AcDbEntity
100
AcDbLine
10
46.001697
20
13.009880
30
0.0
11
66.004197
21
13.009880
31
0.0
0
LINE
8
Layer 1
62
4
5
17c
100
AcDbEntity
100
AcDbLine
10
66.004197
20
13.009880
30
0.0
11
66.004197
21
9.005852
31
0.0
0
LINE
8
Layer 1
62
4
5
17d
100
AcDbEntity
100
AcDbLine
10
66.004197
20
9.005852
30
0.0
11
85.997878
21
9.005852
31
0.0
0
LINE
8
Layer 1
62
4
5
17e
100
AcDbEntity
100
AcDbLine
10
85.997878
20
9.005852
30
0.0
11
85.997878
21
13.009880
31
0.0
0
LINE
8
Layer 1
62
4
5
17f
100
AcDbEntity
100
AcDbLine
10
85.997878
20
13.009880
30
0.0
11
101.996350
21
13.009880
31
0.0
0
LINE
8
Layer 1
62
4
5
180
100
AcDbEntity
100
AcDbLine
10
101.996350
20
13.009880
30
0.0
11
101.996350
21
29.008341
31
0.0
0
LINE
8
Layer 1
62
4
5
181
100
AcDbEntity
100
AcDbLine
10
101.996350
20
29.008341
30
0.0
11
82.002670
21
29.008341
31
0.0
0
LINE
8
Layer 1
62
4
5
182
100
AcDbEntity
100
AcDbLine
10
82.002670
20
29.008341
30
0.0
11
82.002670
21
19.007091
31
0.0
0
LINE
8
Layer 1
62
4
5
183
100
AcDbEntity
100
AcDbLine
10
82.002670
20
19.007091
30
0.0
11
66.004197
21
19.007091
31
0.0
0
LINE
8
Layer 1
62
4
5
184
100
AcDbEntity
100
AcDbLine
10
66.004197
20
19.007091
30
0.0
11
66.004197
21
29.008341
31
0.0
0
LINE
8
Layer 1
62
4
5
185
100
AcDbEntity
100
AcDbLine
10
66.004197
20
29.008341
30
0.0
11
55.006350
21
29.008341
31
0.0
0
LINE
8
Layer 1
62
4
5
186
100
AcDbEntity
100
AcDbLine
10
55.006350
20
29.008341
30
0.0
11
55.006350
21
19.007091
31
0.0
0
LINE
8
Layer 1
62
4
5
187
100
AcDbEntity
100
AcDbLine
10
55.006350
20
19.007091
30
0.0
11
39.007878
21
19.007091
31
0.0
0
LINE
8
Layer 1
62
4
5
188
100
AcDbEntity
100
AcDbLine
10
39.007878
20
19.007091
30
0.0
11
39.007878
21
29.008341
31
0.0
0
LINE
8
Layer 1
62
4
5
189
100
AcDbEntity
100
AcDbLine
10
39.007878
20
29.008341
30
0.0
11
32.005239
21
29.008341
31
0.0
0
LINE
8
Layer 1
62
4
5
18a
100
AcDbEntity
100
AcDbLine
10
32.005239
20
29.008341
30
0.0
11
32.005239
21
19.007091
31
0.0
0
LINE
8
Layer 1
62
4
5
18b
100
AcDbEntity
100
AcDbLine
10
32.005239
20
19.007091
30
0.0
11
30.003225
21
19.007091
31
0.0
0
LINE
8
Layer 1
62
4
5
18c
100
AcDbEntity
100
AcDbLine
10
30.003225
20
19.007091
30
0.0
11
16.006767
21
19.007091
31
0.0
0
LINE
8
Layer 1
62
4
5
18d
100
AcDbEntity
100
AcDbLine
10
16.006767
20
19.007091
30
0.0
11
16.006767
21
29.008341
31
0.0
0
LINE
8
Layer 1
62
4
5
18e
100
AcDbEntity
100
AcDbLine
10
16.006767
20
29.008341
30
0.0
11
5.996697
21
29.008341
31
0.0
0
LINE
8
Layer 1
62
4
5
18f
100
AcDbEntity
100
AcDbLine
10
5.996697
20
29.008341
30
0.0
11
5.996697
21
29.008341
31
0.0
0
LINE
8
Default
62
4
5
190
100
AcDbEntity
100
AcDbLine
10
173.998819
20
248.000548
30
0.0
11
173.998819
21
199.996312
31
0.0
0
LINE
8
Default
62
4
5
191
100
AcDbEntity
100
AcDbLine
10
173.998819
20
199.996312
30
0.0
11
186.002083
21
199.996312
31
0.0
0
LINE
8
Default
62
4
5
192
100
AcDbEntity
100
AcDbLine
10
186.002083
20
199.996312
30
0.0
11
186.002083
21
211.999576
31
0.0
0
LINE
8
Default
62
4
5
193
100
AcDbEntity
100
AcDbLine
10
186.002083
20
211.999576
30
0.0
11
202.000556
21
211.999576
31
0.0
0
LINE
8
Default
62
4
5
194
100
AcDbEntity
100
AcDbLine
10
202.000556
20
211.999576
30
0.0
11
202.000556
21
199.996312
31
0.0
0
LINE
8
Default
62
4
5
195
100
AcDbEntity
100
AcDbLine
10
202.000556
20
199.996312
30
0.0
11
209.003194
21
199.996312
31
0.0
0
LINE
8
Default
62
4
5
196
100
AcDbEntity
100
AcDbLine
10
209.003194
20
199.996312
30
0.0
11
209.003194
21
211.999576
31
0.0
0
LINE
8
Default
62
4
5
197
100
AcDbEntity
100
AcDbLine
10
209.003194
20
211.999576
30
0.0
11
225.001667
21
211.999576
31
0.0
0
LINE
8
Default
62
4
5
198
100
AcDbEntity
100
AcDbLine
10
225.001667
20
211.999576
30
0.0
11
225.001667
21
199.996312
31
0.0
0
LINE
8
Default
62
4
5
199
100
AcDbEntity
100
AcDbLine
10
225.001667
20
199.996312
30
0.0
11
235.999514
21
199.996312
31
0.0
0
LINE
8
Default
62
4
5
19a
100
AcDbEntity
100
AcDbLine
10
235.999514
20
199.996312
30
0.0
11
235.999514
21
211.999576
31
0.0
0
LINE
8
Default
62
4
5
19b
100
AcDbEntity
100
AcDbLine
10
235.999514
20
211.999576
30
0.0
11
251.997986
21
211.999576
31
0.0
0
LINE
8
Default
62
4
5
19c
100
AcDbEntity
100
AcDbLine
10
251.997986
20
211.999576
30
0.0
11
251.997986
21
199.996312
31
0.0
0
LINE
8
Default
62
4
5
19d
100
AcDbEntity
100
AcDbLine
10
251.997986
20
199.996312
30
0.0
11
269.998472
21
199.996312
31
0.0
0
LINE
8
Default
62
4
5
19e
100
AcDbEntity
100
AcDbLine
10
269.998472
20
199.996312
30
0.0
11
269.998472
21
208.004368
31
0.0
0
LINE
8
Default
62
4
5
19f
100
AcDbEntity
100
AcDbLine
10
269.998472
20
208.004368
30
0.0
11
274.002500
21
208.004368
31
0.0
0
LINE
8
Default
62
4
5
1a0
100
AcDbEntity
100
AcDbLine
10
274.002500
20
208.004368
30
0.0
11
274.002500
21
211.999576
31
0.0
0
LINE
8
Default
62
4
5
1a1
100
AcDbEntity
100
AcDbLine
10
274.002500
20
211.999576
30
0.0
11
269.998472
21
211.999576
31
0.0
0
LINE
8
Default
62
4
5
1a2
100
AcDbEntity
100
AcDbLine
10
269.998472
20
211.999576
30
0.0
11
269.998472
21
234.004090
31
0.0
0
LINE
8
Default
62
4
5
1a3
100
AcDbEntity
100
AcDbLine
10
269.998472
20
234.004090
30
0.0
11
274.002500
21
234.004090
31
0.0
0
LINE
8
Default
62
4
5
1a4
100
AcDbEntity
100
AcDbLine
10
274.002500
20
234.004090
30
0.0
11
274.002500
21
237.999298
31
0.0
0
LINE
8
Default
62
4
5
1a5
100
AcDbEntity
100
AcDbLine
10
274.002500
20
237.999298
30
0.0
11
269.998472
21
237.999298
31
0.0
0
LINE
8
Default
62
4
5
1a6
100
AcDbEntity
100
AcDbLine
10
269.998472
20
237.999298
30
0.0
11
269.998472
21
248.000548
31
0.0
0
LINE
8
Default
62
4
5
1a7
100
AcDbEntity
100
AcDbLine
10
269.998472
20
248.000548
30
0.0
11
264.001250
21
248.000548
31
0.0
0
LINE
8
Default
62
4
5
1a8
100
AcDbEntity
100
AcDbLine
10
264.001250
20
248.000548
30
0.0
11
264.001250
21
242.003326
31
0.0
0
LINE
8
Default
62
4
5
1a9
100
AcDbEntity
100
AcDbLine
10
264.001250
20
242.003326
30
0.0
11
254.996597
21
242.003326
31
0.0
0
LINE
8
Default
62
4
5
1aa
100
AcDbEntity
100
AcDbLine
10
254.996597
20
242.003326
30
0.0
11
254.996597
21
235.000687
31
0.0
0
LINE
8
Default
62
4
5
1ab
100
AcDbEntity
100
AcDbLine
10
254.996597
20
235.000687
30
0.0
11
246.997361
21
235.000687
31
0.0
0
LINE
8
Default
62
4
5
1ac
100
AcDbEntity
100
AcDbLine
10
246.997361
20
235.000687
30
0.0
11
246.997361
21
240.001312
31
0.0
0
LINE
8
Default
62
4
5
1ad
100
AcDbEntity
100
AcDbLine
10
246.997361
20
240.001312
30
0.0
11
235.999514
21
240.001312
31
0.0
0
LINE
8
Default
62
4
5
1ae
100
AcDbEntity
100
AcDbLine
10
235.999514
20
240.001312
30
0.0
11
235.999514
21
235.000687
31
0.0
0
LINE
8
Default
62
4
5
1af
100
AcDbEntity
100
AcDbLine
10
235.999514
20
235.000687
30
0.0
11
222.003056
21
235.000687
31
0.0
0
LINE
8
Default
62
4
5
1b0
100
AcDbEntity
100
AcDbLine
10
222.003056
20
235.000687
30
0.0
11
222.003056
21
242.003326
31
0.0
0
LINE
8
Default
62
4
5
1b1
100
AcDbEntity
100
AcDbLine
10
222.003056
20
242.003326
30
0.0
11
217.002431
21
242.003326
31
0.0
0
LINE
8
Default
62
4
5
1b2
100
AcDbEntity
100
AcDbLine
10
217.002431
20
242.003326
30
0.0
11
217.002431
21
232.998673
31
0.0
0
LINE
8
Default
62
4
5
1b3
100
AcDbEntity
100
AcDbLine
10
217.002431
20
232.998673
30
0.0
11
212.001806
21
232.998673
31
0.0
0
LINE
8
Default
62
4
5
1b4
100
AcDbEntity
100
AcDbLine
10
212.001806
20
232.998673
30
0.0
11
212.001806
21
229.003465
31
0.0
0
LINE
8
Default
62
4
5
1b5
100
AcDbEntity
100
AcDbLine
10
212.001806
20
229.003465
30
0.0
11
199.998542
21
229.003465
31
0.0
0
LINE
8
Default
62
4
5
1b6
100
AcDbEntity
100
AcDbLine
10
199.998542
20
229.003465
30
0.0
11
199.998542
21
235.000687
31
0.0
0
LINE
8
Default
62
4
5
1b7
100
AcDbEntity
100
AcDbLine
10
199.998542
20
235.000687
30
0.0
11
189.997292
21
235.000687
31
0.0
0
LINE
8
Default
62
4
5
1b8
100
AcDbEntity
100
AcDbLine
10
189.997292
20
235.000687
30
0.0
11
189.997292
21
248.000548
31
0.0
0
LINE
8
Default
62
4
5
1b9
100
AcDbEntity
100
AcDbLine
10
189.997292
20
248.000548
30
0.0
11
173.998819
21
248.000548
31
0.0
0
LINE
8
Default
62
4
5
1ba
100
AcDbEntity
100
AcDbLine
10
173.998819
20
248.000548
30
0.0
11
173.998819
21
248.000548
31
0.0
0
LINE
8
Default
62
4
5
1bb
100
AcDbEntity
100
AcDbLine
10
214.000007
20
223.000008
30
0.0
11
213.900152
21
222.205734
31
0.0
0
LINE
8
Default
62
4
5
1bc
100
AcDbEntity
100
AcDbLine
10
213.900152
20
222.205734
30
0.0
11
213.608726
21
221.493864
31
0.0
0
LINE
8
Default
62
4
5
1bd
100
AcDbEntity
100
AcDbLine
10
213.608726
20
221.493864
30
0.0
11
213.137941
21
220.885547
31
0.0
0
LINE
8
Default
62
4
5
1be
100
AcDbEntity
100
AcDbLine
10
213.137941
20
220.885547
30
0.0
11
212.500007
21
220.401932
31
0.0
0
LINE
8
Default
62
4
5
1bf
100
AcDbEntity
100
AcDbLine
10
212.500007
20
220.401932
30
0.0
11
211.762217
21
220.091272
31
0.0
0
LINE
8
Default
62
4
5
1c0
100
AcDbEntity
100
AcDbLine
10
211.762217
20
220.091272
30
0.0
11
211.000007
21
219.987719
31
0.0
0
LINE
8
Default
62
4
5
1c1
100
AcDbEntity
100
AcDbLine
10
211.000007
20
219.987719
30
0.0
11
210.237797
21
220.091272
31
0.0
0
LINE
8
Default
62
4
5
1c2
100
AcDbEntity
100
AcDbLine
10
210.237797
20
220.091272
30
0.0
11
209.500007
21
220.401932
31
0.0
0
LINE
8
Default
62
4
5
1c3
100
AcDbEntity
100
AcDbLine
10
209.500007
20
220.401932
30
0.0
11
208.862073
21
220.885547
31
0.0
0
LINE
8
Default
62
4
5
1c4
100
AcDbEntity
100
AcDbLine
10
208.862073
20
220.885547
30
0.0
11
208.391288
21
221.493864
31
0.0
0
LINE
8
Default
62
4
5
1c5
100
AcDbEntity
100
AcDbLine
10
208.391288
20
221.493864
30
0.0
11
208.099864
21
222.205734
31
0.0
0
LINE
8
Default
62
4
5
1c6
100
AcDbEntity
100
AcDbLine
10
208.099864
20
222.205734
30
0.0
11
208.000011
21
223.000008
31
0.0
0
LINE
8
Default
62
4
5
1c7
100
AcDbEntity
100
AcDbLine
10
208.000011
20
223.000008
30
0.0
11
208.099866
21
223.794283
31
0.0
0
LINE
8
Default
62
4
5
1c8
100
AcDbEntity
100
AcDbLine
10
208.099866
20
223.794283
30
0.0
11
208.391292
21
224.506153
31
0.0
0
LINE
8
Default
62
4
5
1c9
100
AcDbEntity
100
AcDbLine
10
208.391292
20
224.506153
30
0.0
11
208.862077
21
225.114470
31
0.0
0
LINE
8
Default
62
4
5
1ca
100
AcDbEntity
100
AcDbLine
10
208.862077
20
225.114470
30
0.0
11
209.500011
21
225.598085
31
0.0
0
LINE
8
Default
62
4
5
1cb
100
AcDbEntity
100
AcDbLine
10
209.500011
20
225.598085
30
0.0
11
210.237801
21
225.908745
31
0.0
0
LINE
8
Default
62
4
5
1cc
100
AcDbEntity
100
AcDbLine
10
210.237801
20
225.908745
30
0.0
11
211.000011
21
226.012298
31
0.0
0
LINE
8
Default
62
4
5
1cd
100
AcDbEntity
100
AcDbLine
10
211.000011
20
226.012298
30
0.0
11
211.762221
21
225.908745
31
0.0
0
LINE
8
Default
62
4
5
1ce
100
AcDbEntity
100
AcDbLine
10
211.762221
20
225.908745
30
0.0
11
212.500011
21
225.598085
31
0.0
0
LINE
8
Default
62
4
5
1cf
100
AcDbEntity
100
AcDbLine
10
212.500011
20
225.598085
30
0.0
11
213.137945
21
225.114470
31
0.0
0
LINE
8
Default
62
4
5
1d0
100
AcDbEntity
100
AcDbLine
10
213.137945
20
225.114470
30
0.0
11
213.608730
21
224.506153
31
0.0
0
LINE
8
Default
62
4
5
1d1
100
AcDbEntity
100
AcDbLine
10
213.608730
20
224.506153
30
0.0
11
213.900156
21
223.794283
31
0.0
0
LINE
8
Default
62
4
5
1d2
100
AcDbEntity
100
AcDbLine
10
213.900156
20
223.794283
30
0.0
11
214.000011
21
223.000008
31
0.0
0
LINE
8
Default
62
4
5
1d3
100
AcDbEntity
100
AcDbLine
10
214.000011
20
223.000008
30
0.0
11
214.000015
21
223.000008
31
0.0
0
LINE
8
Default
62
4
5
1d4
100
AcDbEntity
100
AcDbLine
10
225.000021
20
227.000009
30
0.0
11
235.999999
21
227.000009
31
0.0
0
LINE
8
Default
62
4
5
1d5
100
AcDbEntity
100
AcDbLine
10
235.999999
20
227.000009
30
0.0
11
235.999999
21
231.000009
31
0.0
0
LINE
8
Default
62
4
5
1d6
100
AcDbEntity
100
AcDbLine
10
235.999999
20
231.000009
30
0.0
11
225.000021
21
231.000009
31
0.0
0
LINE
8
Default
62
4
5
1d7
100
AcDbEntity
100
AcDbLine
10
225.000021
20
231.000009
30
0.0
11
225.000021
21
227.000009
31
0.0
0
LINE
8
Default
62
4
5
1d8
100
AcDbEntity
100
AcDbLine
10
225.000021
20
227.000009
30
0.0
11
225.000021
21
227.000009
31
0.0
0
LINE
8
Default
62
4
5
1d9
100
AcDbEntity
100
AcDbLine
10
222.499999
20
227.000010
30
0.0
11
222.417225
21
226.337722
31
0.0
0
LINE
8
Default
62
4
5
1da
100
AcDbEntity
100
AcDbLine
10
222.417225
20
226.337722
30
0.0
11
222.174599
21
225.744053
31
0.0
0
LINE
8
Default
62
4
5
1db
100
AcDbEntity
100
AcDbLine
10
222.174599
20
225.744053
30
0.0
11
221.782318
21
225.236683
31
0.0
0
LINE
8
Default
62
4
5
1dc
100
AcDbEntity
100
AcDbLine
10
221.782318
20
225.236683
30
0.0
11
221.250574
21
224.833290
31
0.0
0
LINE
8
Default
62
4
5
1dd
100
AcDbEntity
100
AcDbLine
10
221.250574
20
224.833290
30
0.0
11
220.635491
21
224.574157
31
0.0
0
LINE
8
Default
62
4
5
1de
100
AcDbEntity
100
AcDbLine
10
220.635491
20
224.574157
30
0.0
11
220.000000
21
224.487779
31
0.0
0
LINE
8
Default
62
4
5
1df
100
AcDbEntity
100
AcDbLine
10
220.000000
20
224.487779
30
0.0
11
219.364509
21
224.574157
31
0.0
0
LINE
8
Default
62
4
5
1e0
100
AcDbEntity
100
AcDbLine
10
219.364509
20
224.574157
30
0.0
11
218.749426
21
224.833290
31
0.0
0
LINE
8
Default
62
4
5
1e1
100
AcDbEntity
100
AcDbLine
10
218.749426
20
224.833290
30
0.0
11
218.217682
21
225.236683
31
0.0
0
LINE
8
Default
62
4
5
1e2
100
AcDbEntity
100
AcDbLine
10
218.217682
20
225.236683
30
0.0
11
217.825400
21
225.744053
31
0.0
0
LINE
8
Default
62
4
5
1e3
100
AcDbEntity
100
AcDbLine
10
217.825400
20
225.744053
30
0.0
11
217.582775
21
226.337722
31
0.0
0
LINE
8
Default
62
4
5
1e4
100
AcDbEntity
100
AcDbLine
10
217.582775
20
226.337722
30
0.0
11
217.500001
21
227.000010
31
0.0
0
LINE
8
Default
62
4
5
1e5
100
AcDbEntity
100
AcDbLine
10
217.500001
20
227.000010
30
0.0
11
217.582775
21
227.662298
31
0.0
0
LINE
8
Default
62
4
5
1e6
100
AcDbEntity
100
AcDbLine
10
217.582775
20
227.662298
30
0.0
11
217.825400
21
228.255967
31
0.0
0
LINE
8
Default
62
4
5
1e7
100
AcDbEntity
100
AcDbLine
10
217.825400
20
228.255967
30
0.0
11
218.217682
21
228.763337
31
0.0
0
LINE
8
Default
62
4
5
1e8
100
AcDbEntity
100
AcDbLine
10
218.217682
20
228.763337
30
0.0
11
218.749426
21
229.166730
31
0.0
0
LINE
8
Default
62
4
5
1e9
100
AcDbEntity
100
AcDbLine
10
218.749426
20
229.166730
30
0.0
11
219.364509
21
229.425863
31
0.0
0
LINE
8
Default
62
4
5
1ea
100
AcDbEntity
100
AcDbLine
10
219.364509
20
229.425863
30
0.0
11
220.000000
21
229.512241
31
0.0
0
LINE
8
Default
62
4
5
1eb
100
AcDbEntity
100
AcDbLine
10
220.000000
20
229.512241
30
0.0
11
220.635491
21
229.425863
31
0.0
0
LINE
8
Default
62
4
5
1ec
100
AcDbEntity
100
AcDbLine
10
220.635491
20
229.425863
30
0.0
11
221.250574
21
229.166730
31
0.0
0
LINE
8
Default
62
4
5
1ed
100
AcDbEntity
100
AcDbLine
10
221.250574
20
229.166730
30
0.0
11
221.782318
21
228.763337
31
0.0
0
LINE
8
Default
62
4
5
1ee
100
AcDbEntity
100
AcDbLine
10
221.782318
20
228.763337
30
0.0
11
222.174599
21
228.255967
31
0.0
0
LINE
8
Default
62
4
5
1ef
100
AcDbEntity
100
AcDbLine
10
222.174599
20
228.255967
30
0.0
11
222.417225
21
227.662298
31
0.0
0
LINE
8
Default
62
4
5
1f0
100
AcDbEntity
100
AcDbLine
10
222.417225
20
227.662298
30
0.0
11
222.499999
21
227.000010
31
0.0
0
LINE
8
Default
62
4
5
1f1
100
AcDbEntity
100
AcDbLine
10
222.499999
20
227.000010
30
0.0
11
222.499999
21
227.000010
31
0.0
0
LINE
8
Default
62
4
5
1f2
100
AcDbEntity
100
AcDbLine
10
290.000013
20
252.000010
30
0.0
11
306.000009
21
252.000010
31
0.0
0
LINE
8
Default
62
4
5
1f3
100
AcDbEntity
100
AcDbLine
10
306.000009
20
252.000010
30
0.0
11
306.000009
21
237.999016
31
0.0
0
LINE
8
Default
62
4
5
1f4
100
AcDbEntity
100
AcDbLine
10
306.000009
20
237.999016
30
0.0
11
310.003472
21
237.999016
31
0.0
0
LINE
8
Default
62
4
5
1f5
100
AcDbEntity
100
AcDbLine
10
310.003472
20
237.999016
30
0.0
11
310.003472
21
227.995249
31
0.0
0
LINE
8
Default
62
4
5
1f6
100
AcDbEntity
100
AcDbLine
10
310.003472
20
227.995249
30
0.0
11
306.000009
21
228.000010
31
0.0
0
LINE
8
Default
62
4
5
1f7
100
AcDbEntity
100
AcDbLine
10
306.000009
20
228.000010
30
0.0
11
306.000009
21
218.000010
31
0.0
0
LINE
8
Default
62
4
5
1f8
100
AcDbEntity
100
AcDbLine
10
306.000009
20
218.000010
30
0.0
11
310.000001
21
218.000010
31
0.0
0
LINE
8
Default
62
4
5
1f9
100
AcDbEntity
100
AcDbLine
10
310.000001
20
218.000010
30
0.0
11
310.000001
21
208.000010
31
0.0
0
LINE
8
Default
62
4
5
1fa
100
AcDbEntity
100
AcDbLine
10
310.000001
20
208.000010
30
0.0
11
306.000009
21
208.000010
31
0.0
0
LINE
8
Default
62
4
5
1fb
100
AcDbEntity
100
AcDbLine
10
306.000009
20
208.000010
30
0.0
11
306.000009
21
195.997663
31
0.0
0
LINE
8
Default
62
4
5
1fc
100
AcDbEntity
100
AcDbLine
10
306.000009
20
195.997663
30
0.0
11
290.000013
21
196.000009
31
0.0
0
LINE
8
Default
62
4
5
1fd
100
AcDbEntity
100
AcDbLine
10
290.000013
20
196.000009
30
0.0
11
290.000013
21
252.000010
31
0.0
0
LINE
8
Default
62
4
5
1fe
100
AcDbEntity
100
AcDbLine
10
290.000013
20
252.000010
30
0.0
11
290.000013
21
252.000010
31
0.0
0
LINE
8
Default
62
4
5
1ff
100
AcDbEntity
100
AcDbLine
10
270.000132
20
237.999016
30
0.0
11
274.000000
21
238.000009
31
0.0
0
LINE
8
Default
62
4
5
200
100
AcDbEntity
100
AcDbLine
10
274.000000
20
238.000009
30
0.0
11
274.000000
21
252.000010
31
0.0
0
LINE
8
Default
62
4
5
201
100
AcDbEntity
100
AcDbLine
10
274.000000
20
252.000010
30
0.0
11
290.000013
21
252.000010
31
0.0
0
LINE
8
Default
62
4
5
202
100
AcDbEntity
100
AcDbLine
10
290.000013
20
252.000010
30
0.0
11
289.995920
21
195.997663
31
0.0
0
LINE
8
Default
62
4
5
203
100
AcDbEntity
100
AcDbLine
10
289.995920
20
195.997663
30
0.0
11
274.004721
21
195.997663
31
0.0
0
LINE
8
Default
62
4
5
204
100
AcDbEntity
100
AcDbLine
10
274.004721
20
195.997663
30
0.0
11
274.000000
21
208.000010
31
0.0
0
LINE
8
Default
62
4
5
205
100
AcDbEntity
100
AcDbLine
10
274.000000
20
208.000010
30
0.0
11
270.000132
21
208.003456
31
0.0
0
LINE
8
Default
62
4
5
206
100
AcDbEntity
100
AcDbLine
10
270.000132
20
208.003456
30
0.0
11
270.000132
21
218.004077
31
0.0
0
LINE
8
Default
62
4
5
207
100
AcDbEntity
100
AcDbLine
10
270.000132
20
218.004077
30
0.0
11
274.004721
21
218.004077
31
0.0
0
LINE
8
Default
62
4
5
208
100
AcDbEntity
100
AcDbLine
10
274.004721
20
218.004077
30
0.0
11
274.004721
21
227.995249
31
0.0
0
LINE
8
Default
62
4
5
209
100
AcDbEntity
100
AcDbLine
10
274.004721
20
227.995249
30
0.0
11
269.999999
21
228.000010
31
0.0
0
LINE
8
Default
62
4
5
20a
100
AcDbEntity
100
AcDbLine
10
269.999999
20
228.000010
30
0.0
11
270.000132
21
237.999016
31
0.0
0
LINE
8
Default
62
4
5
20b
100
AcDbEntity
100
AcDbLine
10
270.000132
20
237.999016
30
0.0
11
270.000132
21
237.999016
31
0.0
  0
ENDSEC
  0
SECTION
  2
OBJECTS
  0
DICTIONARY
  5
C
330
0
100
AcDbDictionary
  3
ACAD_GROUP
350
D
  3
ACAD_MLINESTYLE
350
17
  0
DICTIONARY
  5
D
330
C
100
AcDbDictionary
  0
DICTIONARY
  5
1A
330
C
100
AcDbDictionary
  0
DICTIONARY
  5
17
330
C
100
AcDbDictionary
  3
STANDARD
350
18
  0
DICTIONARY
  5
19
330
C
100
AcDbDictionary
  0
ENDSEC
  0
EOF
