999
Inkscape export via "Better Better DXF Output" (http://tim.cexx.org/?p=590)
  0
SECTION
  2
HEADER
  9
$ACADVER
  1
AC1014
  9
$HANDSEED
  5
FFFF
  0
ENDSEC
  0
SECTION
  2
TABLES
  0
TABLE
  2
VPORT
  5
8
330
0
100
AcDbSymbolTable
 70
     4
  0
VPORT
  5
2E
330
8
100
AcDbSymbolTableRecord
100
AcDbViewportTableRecord
  2
*ACTIVE
 70
     0
 10
0.0
 20
0.0
 11
1.0
 21
1.0
 12
4.25
 22
5.5
 13
0.0
 23
0.0
 14
10.0
 24
10.0
 15
10.0
 25
10.0
 16
0.0
 26
0.0
 36
1.0
 17
0.0
 27
0.0
 37
0.0
 40
11
 41
1.24
 42
50.0
 43
0.0
 44
0.0
 50
0.0
 51
0.0
 71
     0
 72
   100
 73
     1
 74
     3
 75
     0
 76
     0
 77
     0
 78
     0
  0
ENDTAB
  0
TABLE
  2
LTYPE
  5
5
330
0
100
AcDbSymbolTable
 70
     1
  0
LTYPE
  5
14
330
5
100
AcDbSymbolTableRecord
100
AcDbLinetypeTableRecord
  2
BYBLOCK
 70
     0
  3

 72
    65
 73
     0
 40
0.0
  0
LTYPE
  5
15
330
5
100
AcDbSymbolTableRecord
100
AcDbLinetypeTableRecord
  2
BYLAYER
 70
     0
  3

 72
    65
 73
     0
 40
0.0
  0
LTYPE
  5
16
330
5
100
AcDbSymbolTableRecord
100
AcDbLinetypeTableRecord
  2
CONTINUOUS
 70
     0
  3
Solid line
 72
    65
 73
     0
 40
0.0
  0
ENDTAB
  0
TABLE
  2
STYLE
  5
3
330
0
100
AcDbSymbolTable
 70
     1
  0
STYLE
  5
11
330
3
100
AcDbSymbolTableRecord
100
AcDbTextStyleTableRecord
  2
STANDARD
 70
     0
 40
0.0
 41
1.0
 50
0.0
 71
     0
 42
2.5
  3
txt
  4

  0
ENDTAB
  0
TABLE
  2
VIEW
  5
6
330
0
100
AcDbSymbolTable
 70
     0
  0
ENDTAB
  0
TABLE
  2
UCS
  5
7
330
0
100
AcDbSymbolTable
 70
     0
  0
ENDTAB
  0
TABLE
  2
APPID
  5
9
330
0
100
AcDbSymbolTable
 70
     2
  0
APPID
  5
12
330
9
100
AcDbSymbolTableRecord
100
AcDbRegAppTableRecord
  2
ACAD
 70
     0
  0
ENDTAB
  0
TABLE
  2
DIMSTYLE
  5
A
330
0
100
AcDbSymbolTable
 70
     1
  0
DIMSTYLE
105
27
330
A
100
AcDbSymbolTableRecord
100
AcDbDimStyleTableRecord
  2
ISO-25
 70
     0
  3

  4

  5

  6

  7

 40
1.0
 41
2.5
 42
0.625
 43
3.75
 44
1.25
 45
0.0
 46
0.0
 47
0.0
 48
0.0
140
2.5
141
2.5
142
0.0
143
0.03937007874016
144
1.0
145
0.0
146
1.0
147
0.625
 71
     0
 72
     0
 73
     0
 74
     0
 75
     0
 76
     0
 77
     1
 78
     8
170
     0
171
     3
172
     1
173
     0
174
     0
175
     0
176
     0
177
     0
178
     0
270
     2
271
     2
272
     2
273
     2
274
     3
340
11
275
     0
280
     0
281
     0
282
     0
283
     0
284
     8
285
     0
286
     0
287
     3
288
     0
  0
ENDTAB
  0
TABLE
  2
BLOCK_RECORD
  5
1
330
0
100
AcDbSymbolTable
 70
     1
  0
BLOCK_RECORD
  5
1F
330
1
100
AcDbSymbolTableRecord
100
AcDbBlockTableRecord
  2
*MODEL_SPACE
  0
BLOCK_RECORD
  5
1B
330
1
100
AcDbSymbolTableRecord
100
AcDbBlockTableRecord
  2
*PAPER_SPACE
  0
ENDTAB
0
TABLE
2
LAYER
5
2
330
0
100
AcDbSymbolTable
70
2
0
LAYER
5
10
330
2
100
AcDbSymbolTableRecord
100
AcDbLayerTableRecord
2
Layer 1
70
0
62
7
6
CONTINUOUS
0
LAYER
5
10
330
2
100
AcDbSymbolTableRecord
100
AcDbLayerTableRecord
2
text
70
0
62
7
6
CONTINUOUS
0
ENDTAB
0
ENDSEC
  0
SECTION
  2
BLOCKS
  0
BLOCK
  5
20
330
1F
100
AcDbEntity
  8
0
100
AcDbBlockBegin
  2
*MODEL_SPACE
 70
     0
 10
0.0
 20
0.0
 30
0.0
  3
*MODEL_SPACE
  1

  0
ENDBLK
  5
21
330
1F
100
AcDbEntity
  8
0
100
AcDbBlockEnd
  0
BLOCK
  5
1C
330
1B
100
AcDbEntity
 67
     1
  8
0
100
AcDbBlockBegin
  2
*PAPER_SPACE
  1

  0
ENDBLK
  5
1D
330
1B
100
AcDbEntity
 67
     1
  8
0
100
AcDbBlockEnd
  0
ENDSEC
  0
SECTION
  2
ENTITIES
0
LINE
8
Layer 1
62
4
5
100
100
AcDbEntity
100
AcDbLine
10
30.005460
20
251.999538
30
0.0
11
74.002477
21
251.999538
31
0.0
0
LINE
8
Layer 1
62
4
5
101
100
AcDbEntity
100
AcDbLine
10
74.002477
20
251.999538
30
0.0
11
74.002477
21
247.996487
31
0.0
0
LINE
8
Layer 1
62
4
5
102
100
AcDbEntity
100
AcDbLine
10
74.002477
20
247.996487
30
0.0
11
94.000001
21
248.000009
31
0.0
0
LINE
8
Layer 1
62
4
5
103
100
AcDbEntity
100
AcDbLine
10
94.000001
20
248.000009
30
0.0
11
93.996380
21
251.999538
31
0.0
0
LINE
8
Layer 1
62
4
5
104
100
AcDbEntity
100
AcDbLine
10
93.996380
20
251.999538
30
0.0
11
114.003918
21
251.999538
31
0.0
0
LINE
8
Layer 1
62
4
5
105
100
AcDbEntity
100
AcDbLine
10
114.003918
20
251.999538
30
0.0
11
114.000001
21
248.000009
31
0.0
0
LINE
8
Layer 1
62
4
5
106
100
AcDbEntity
100
AcDbLine
10
114.000001
20
248.000009
30
0.0
11
134.000034
21
247.996487
31
0.0
0
LINE
8
Layer 1
62
4
5
107
100
AcDbEntity
100
AcDbLine
10
134.000034
20
247.996487
30
0.0
11
134.000034
21
251.999538
31
0.0
0
LINE
8
Layer 1
62
4
5
108
100
AcDbEntity
100
AcDbLine
10
134.000034
20
251.999538
30
0.0
11
174.001371
21
251.999538
31
0.0
0
LINE
8
Layer 1
62
4
5
109
100
AcDbEntity
100
AcDbLine
10
174.001371
20
251.999538
30
0.0
11
173.999999
21
196.000009
31
0.0
0
LINE
8
Layer 1
62
4
5
10a
100
AcDbEntity
100
AcDbLine
10
173.999999
20
196.000009
30
0.0
11
134.000000
21
196.000009
31
0.0
0
LINE
8
Layer 1
62
4
5
10b
100
AcDbEntity
100
AcDbLine
10
134.000000
20
196.000009
30
0.0
11
134.000000
21
200.000009
31
0.0
0
LINE
8
Layer 1
62
4
5
10c
100
AcDbEntity
100
AcDbLine
10
134.000000
20
200.000009
30
0.0
11
114.000001
21
200.000009
31
0.0
0
LINE
8
Layer 1
62
4
5
10d
100
AcDbEntity
100
AcDbLine
10
114.000001
20
200.000009
30
0.0
11
114.000001
21
196.000009
31
0.0
0
LINE
8
Layer 1
62
4
5
10e
100
AcDbEntity
100
AcDbLine
10
114.000001
20
196.000009
30
0.0
11
94.000001
21
196.000009
31
0.0
0
LINE
8
Layer 1
62
4
5
10f
100
AcDbEntity
100
AcDbLine
10
94.000001
20
196.000009
30
0.0
11
94.000001
21
200.000009
31
0.0
0
LINE
8
Layer 1
62
4
5
110
100
AcDbEntity
100
AcDbLine
10
94.000001
20
200.000009
30
0.0
11
73.999999
21
200.000009
31
0.0
0
LINE
8
Layer 1
62
4
5
111
100
AcDbEntity
100
AcDbLine
10
73.999999
20
200.000009
30
0.0
11
73.999999
21
196.000009
31
0.0
0
LINE
8
Layer 1
62
4
5
112
100
AcDbEntity
100
AcDbLine
10
73.999999
20
196.000009
30
0.0
11
30.005460
21
195.997663
31
0.0
0
LINE
8
Layer 1
62
4
5
113
100
AcDbEntity
100
AcDbLine
10
30.005460
20
195.997663
30
0.0
11
30.005460
21
251.999538
31
0.0
0
LINE
8
Layer 1
62
4
5
114
100
AcDbEntity
100
AcDbLine
10
30.005460
20
251.999538
30
0.0
11
30.005460
21
251.999538
31
0.0
0
LINE
8
Layer 1
62
4
5
115
100
AcDbEntity
100
AcDbLine
10
49.997219
20
237.999016
30
0.0
11
54.000200
21
237.999016
31
0.0
0
LINE
8
Layer 1
62
4
5
116
100
AcDbEntity
100
AcDbLine
10
54.000200
20
237.999016
30
0.0
11
54.000200
21
227.995249
31
0.0
0
LINE
8
Layer 1
62
4
5
117
100
AcDbEntity
100
AcDbLine
10
54.000200
20
227.995249
30
0.0
11
49.999999
21
228.000010
31
0.0
0
LINE
8
Layer 1
62
4
5
118
100
AcDbEntity
100
AcDbLine
10
49.999999
20
228.000010
30
0.0
11
49.997219
21
237.999016
31
0.0
0
LINE
8
Layer 1
62
4
5
119
100
AcDbEntity
100
AcDbLine
10
49.997219
20
237.999016
30
0.0
11
49.997219
21
237.999016
31
0.0
0
LINE
8
Layer 1
62
4
5
11a
100
AcDbEntity
100
AcDbLine
10
49.999999
20
218.000010
30
0.0
11
54.000200
21
218.004077
31
0.0
0
LINE
8
Layer 1
62
4
5
11b
100
AcDbEntity
100
AcDbLine
10
54.000200
20
218.004077
30
0.0
11
54.000200
21
208.003456
31
0.0
0
LINE
8
Layer 1
62
4
5
11c
100
AcDbEntity
100
AcDbLine
10
54.000200
20
208.003456
30
0.0
11
49.997219
21
208.003456
31
0.0
0
LINE
8
Layer 1
62
4
5
11d
100
AcDbEntity
100
AcDbLine
10
49.997219
20
208.003456
30
0.0
11
49.999999
21
218.000010
31
0.0
0
LINE
8
Layer 1
62
4
5
11e
100
AcDbEntity
100
AcDbLine
10
49.999999
20
218.000010
30
0.0
11
49.999999
21
218.000010
31
0.0
0
LINE
8
Layer 1
62
4
5
11f
100
AcDbEntity
100
AcDbLine
10
149.999999
20
238.000009
30
0.0
11
154.000702
21
237.999016
31
0.0
0
LINE
8
Layer 1
62
4
5
120
100
AcDbEntity
100
AcDbLine
10
154.000702
20
237.999016
30
0.0
11
154.000702
21
227.995249
31
0.0
0
LINE
8
Layer 1
62
4
5
121
100
AcDbEntity
100
AcDbLine
10
154.000702
20
227.995249
30
0.0
11
149.999999
21
228.000010
31
0.0
0
LINE
8
Layer 1
62
4
5
122
100
AcDbEntity
100
AcDbLine
10
149.999999
20
228.000010
30
0.0
11
149.999999
21
238.000009
31
0.0
0
LINE
8
Layer 1
62
4
5
123
100
AcDbEntity
100
AcDbLine
10
149.999999
20
238.000009
30
0.0
11
149.999999
21
238.000009
31
0.0
0
LINE
8
Layer 1
62
4
5
124
100
AcDbEntity
100
AcDbLine
10
149.999999
20
218.000010
30
0.0
11
154.000702
21
218.004077
31
0.0
0
LINE
8
Layer 1
62
4
5
125
100
AcDbEntity
100
AcDbLine
10
154.000702
20
218.004077
30
0.0
11
154.000000
21
208.000010
31
0.0
0
LINE
8
Layer 1
62
4
5
126
100
AcDbEntity
100
AcDbLine
10
154.000000
20
208.000010
30
0.0
11
150.000569
21
208.003456
31
0.0
0
LINE
8
Layer 1
62
4
5
127
100
AcDbEntity
100
AcDbLine
10
150.000569
20
208.003456
30
0.0
11
149.999999
21
218.000010
31
0.0
0
LINE
8
Layer 1
62
4
5
128
100
AcDbEntity
100
AcDbLine
10
149.999999
20
218.000010
30
0.0
11
149.999999
21
218.000010
31
0.0
0
LINE
8
Layer 1
62
4
5
129
100
AcDbEntity
100
AcDbLine
10
165.996582
20
237.999017
30
0.0
11
165.839332
21
237.220767
31
0.0
0
LINE
8
Layer 1
62
4
5
12a
100
AcDbEntity
100
AcDbLine
10
165.839332
20
237.220767
30
0.0
11
165.410582
21
236.585018
31
0.0
0
LINE
8
Layer 1
62
4
5
12b
100
AcDbEntity
100
AcDbLine
10
165.410582
20
236.585018
30
0.0
11
164.774831
21
236.156268
31
0.0
0
LINE
8
Layer 1
62
4
5
12c
100
AcDbEntity
100
AcDbLine
10
164.774831
20
236.156268
30
0.0
11
163.996581
21
235.999018
31
0.0
0
LINE
8
Layer 1
62
4
5
12d
100
AcDbEntity
100
AcDbLine
10
163.996581
20
235.999018
30
0.0
11
163.218331
21
236.156268
31
0.0
0
LINE
8
Layer 1
62
4
5
12e
100
AcDbEntity
100
AcDbLine
10
163.218331
20
236.156268
30
0.0
11
162.582582
21
236.585018
31
0.0
0
LINE
8
Layer 1
62
4
5
12f
100
AcDbEntity
100
AcDbLine
10
162.582582
20
236.585018
30
0.0
11
162.153832
21
237.220767
31
0.0
0
LINE
8
Layer 1
62
4
5
130
100
AcDbEntity
100
AcDbLine
10
162.153832
20
237.220767
30
0.0
11
161.996582
21
237.999017
31
0.0
0
LINE
8
Layer 1
62
4
5
131
100
AcDbEntity
100
AcDbLine
10
161.996582
20
237.999017
30
0.0
11
162.153832
21
238.777267
31
0.0
0
LINE
8
Layer 1
62
4
5
132
100
AcDbEntity
100
AcDbLine
10
162.153832
20
238.777267
30
0.0
11
162.582582
21
239.413018
31
0.0
0
LINE
8
Layer 1
62
4
5
133
100
AcDbEntity
100
AcDbLine
10
162.582582
20
239.413018
30
0.0
11
163.218331
21
239.841768
31
0.0
0
LINE
8
Layer 1
62
4
5
134
100
AcDbEntity
100
AcDbLine
10
163.218331
20
239.841768
30
0.0
11
163.996581
21
239.999018
31
0.0
0
LINE
8
Layer 1
62
4
5
135
100
AcDbEntity
100
AcDbLine
10
163.996581
20
239.999018
30
0.0
11
164.774831
21
239.841768
31
0.0
0
LINE
8
Layer 1
62
4
5
136
100
AcDbEntity
100
AcDbLine
10
164.774831
20
239.841768
30
0.0
11
165.410582
21
239.413018
31
0.0
0
LINE
8
Layer 1
62
4
5
137
100
AcDbEntity
100
AcDbLine
10
165.410582
20
239.413018
30
0.0
11
165.839332
21
238.777267
31
0.0
0
LINE
8
Layer 1
62
4
5
138
100
AcDbEntity
100
AcDbLine
10
165.839332
20
238.777267
30
0.0
11
165.996582
21
237.999017
31
0.0
0
LINE
8
Layer 1
62
4
5
139
100
AcDbEntity
100
AcDbLine
10
165.996582
20
237.999017
30
0.0
11
165.996582
21
237.999017
31
0.0
0
LINE
8
Layer 1
62
4
5
13a
100
AcDbEntity
100
AcDbLine
10
165.996582
20
208.003456
30
0.0
11
165.839332
21
207.225206
31
0.0
0
LINE
8
Layer 1
62
4
5
13b
100
AcDbEntity
100
AcDbLine
10
165.839332
20
207.225206
30
0.0
11
165.410582
21
206.589457
31
0.0
0
LINE
8
Layer 1
62
4
5
13c
100
AcDbEntity
100
AcDbLine
10
165.410582
20
206.589457
30
0.0
11
164.774831
21
206.160707
31
0.0
0
LINE
8
Layer 1
62
4
5
13d
100
AcDbEntity
100
AcDbLine
10
164.774831
20
206.160707
30
0.0
11
163.996581
21
206.003457
31
0.0
0
LINE
8
Layer 1
62
4
5
13e
100
AcDbEntity
100
AcDbLine
10
163.996581
20
206.003457
30
0.0
11
163.218331
21
206.160707
31
0.0
0
LINE
8
Layer 1
62
4
5
13f
100
AcDbEntity
100
AcDbLine
10
163.218331
20
206.160707
30
0.0
11
162.582582
21
206.589457
31
0.0
0
LINE
8
Layer 1
62
4
5
140
100
AcDbEntity
100
AcDbLine
10
162.582582
20
206.589457
30
0.0
11
162.153832
21
207.225206
31
0.0
0
LINE
8
Layer 1
62
4
5
141
100
AcDbEntity
100
AcDbLine
10
162.153832
20
207.225206
30
0.0
11
161.996582
21
208.003456
31
0.0
0
LINE
8
Layer 1
62
4
5
142
100
AcDbEntity
100
AcDbLine
10
161.996582
20
208.003456
30
0.0
11
162.153832
21
208.781706
31
0.0
0
LINE
8
Layer 1
62
4
5
143
100
AcDbEntity
100
AcDbLine
10
162.153832
20
208.781706
30
0.0
11
162.582582
21
209.417457
31
0.0
0
LINE
8
Layer 1
62
4
5
144
100
AcDbEntity
100
AcDbLine
10
162.582582
20
209.417457
30
0.0
11
163.218331
21
209.846207
31
0.0
0
LINE
8
Layer 1
62
4
5
145
100
AcDbEntity
100
AcDbLine
10
163.218331
20
209.846207
30
0.0
11
163.996581
21
210.003458
31
0.0
0
LINE
8
Layer 1
62
4
5
146
100
AcDbEntity
100
AcDbLine
10
163.996581
20
210.003458
30
0.0
11
164.774831
21
209.846207
31
0.0
0
LINE
8
Layer 1
62
4
5
147
100
AcDbEntity
100
AcDbLine
10
164.774831
20
209.846207
30
0.0
11
165.410582
21
209.417457
31
0.0
0
LINE
8
Layer 1
62
4
5
148
100
AcDbEntity
100
AcDbLine
10
165.410582
20
209.417457
30
0.0
11
165.839332
21
208.781706
31
0.0
0
LINE
8
Layer 1
62
4
5
149
100
AcDbEntity
100
AcDbLine
10
165.839332
20
208.781706
30
0.0
11
165.996582
21
208.003456
31
0.0
0
LINE
8
Layer 1
62
4
5
14a
100
AcDbEntity
100
AcDbLine
10
165.996582
20
208.003456
30
0.0
11
165.996582
21
208.003456
31
0.0
0
LINE
8
Layer 1
62
4
5
14b
100
AcDbEntity
100
AcDbLine
10
42.019158
20
208.003456
30
0.0
11
41.861908
21
207.225206
31
0.0
0
LINE
8
Layer 1
62
4
5
14c
100
AcDbEntity
100
AcDbLine
10
41.861908
20
207.225206
30
0.0
11
41.433157
21
206.589457
31
0.0
0
LINE
8
Layer 1
62
4
5
14d
100
AcDbEntity
100
AcDbLine
10
41.433157
20
206.589457
30
0.0
11
40.797406
21
206.160707
31
0.0
0
LINE
8
Layer 1
62
4
5
14e
100
AcDbEntity
100
AcDbLine
10
40.797406
20
206.160707
30
0.0
11
40.019156
21
206.003457
31
0.0
0
LINE
8
Layer 1
62
4
5
14f
100
AcDbEntity
100
AcDbLine
10
40.019156
20
206.003457
30
0.0
11
39.240907
21
206.160707
31
0.0
0
LINE
8
Layer 1
62
4
5
150
100
AcDbEntity
100
AcDbLine
10
39.240907
20
206.160707
30
0.0
11
38.605157
21
206.589457
31
0.0
0
LINE
8
Layer 1
62
4
5
151
100
AcDbEntity
100
AcDbLine
10
38.605157
20
206.589457
30
0.0
11
38.176407
21
207.225206
31
0.0
0
LINE
8
Layer 1
62
4
5
152
100
AcDbEntity
100
AcDbLine
10
38.176407
20
207.225206
30
0.0
11
38.019157
21
208.003456
31
0.0
0
LINE
8
Layer 1
62
4
5
153
100
AcDbEntity
100
AcDbLine
10
38.019157
20
208.003456
30
0.0
11
38.176407
21
208.781706
31
0.0
0
LINE
8
Layer 1
62
4
5
154
100
AcDbEntity
100
AcDbLine
10
38.176407
20
208.781706
30
0.0
11
38.605157
21
209.417457
31
0.0
0
LINE
8
Layer 1
62
4
5
155
100
AcDbEntity
100
AcDbLine
10
38.605157
20
209.417457
30
0.0
11
39.240907
21
209.846207
31
0.0
0
LINE
8
Layer 1
62
4
5
156
100
AcDbEntity
100
AcDbLine
10
39.240907
20
209.846207
30
0.0
11
40.019156
21
210.003458
31
0.0
0
LINE
8
Layer 1
62
4
5
157
100
AcDbEntity
100
AcDbLine
10
40.019156
20
210.003458
30
0.0
11
40.797406
21
209.846207
31
0.0
0
LINE
8
Layer 1
62
4
5
158
100
AcDbEntity
100
AcDbLine
10
40.797406
20
209.846207
30
0.0
11
41.433157
21
209.417457
31
0.0
0
LINE
8
Layer 1
62
4
5
159
100
AcDbEntity
100
AcDbLine
10
41.433157
20
209.417457
30
0.0
11
41.861908
21
208.781706
31
0.0
0
LINE
8
Layer 1
62
4
5
15a
100
AcDbEntity
100
AcDbLine
10
41.861908
20
208.781706
30
0.0
11
42.019158
21
208.003456
31
0.0
0
LINE
8
Layer 1
62
4
5
15b
100
AcDbEntity
100
AcDbLine
10
42.019158
20
208.003456
30
0.0
11
42.019158
21
208.003456
31
0.0
0
LINE
8
Layer 1
62
4
5
15c
100
AcDbEntity
100
AcDbLine
10
42.000001
20
238.000009
30
0.0
11
41.842750
21
237.221760
31
0.0
0
LINE
8
Layer 1
62
4
5
15d
100
AcDbEntity
100
AcDbLine
10
41.842750
20
237.221760
30
0.0
11
41.414000
21
236.586010
31
0.0
0
LINE
8
Layer 1
62
4
5
15e
100
AcDbEntity
100
AcDbLine
10
41.414000
20
236.586010
30
0.0
11
40.778249
21
236.157260
31
0.0
0
LINE
8
Layer 1
62
4
5
15f
100
AcDbEntity
100
AcDbLine
10
40.778249
20
236.157260
30
0.0
11
39.999999
21
236.000011
31
0.0
0
LINE
8
Layer 1
62
4
5
160
100
AcDbEntity
100
AcDbLine
10
39.999999
20
236.000011
30
0.0
11
39.221749
21
236.157260
31
0.0
0
LINE
8
Layer 1
62
4
5
161
100
AcDbEntity
100
AcDbLine
10
39.221749
20
236.157260
30
0.0
11
38.586000
21
236.586010
31
0.0
0
LINE
8
Layer 1
62
4
5
162
100
AcDbEntity
100
AcDbLine
10
38.586000
20
236.586010
30
0.0
11
38.157250
21
237.221760
31
0.0
0
LINE
8
Layer 1
62
4
5
163
100
AcDbEntity
100
AcDbLine
10
38.157250
20
237.221760
30
0.0
11
38.000000
21
238.000009
31
0.0
0
LINE
8
Layer 1
62
4
5
164
100
AcDbEntity
100
AcDbLine
10
38.000000
20
238.000009
30
0.0
11
38.157250
21
238.778260
31
0.0
0
LINE
8
Layer 1
62
4
5
165
100
AcDbEntity
100
AcDbLine
10
38.157250
20
238.778260
30
0.0
11
38.586000
21
239.414010
31
0.0
0
LINE
8
Layer 1
62
4
5
166
100
AcDbEntity
100
AcDbLine
10
38.586000
20
239.414010
30
0.0
11
39.221749
21
239.842761
31
0.0
0
LINE
8
Layer 1
62
4
5
167
100
AcDbEntity
100
AcDbLine
10
39.221749
20
239.842761
30
0.0
11
39.999999
21
240.000011
31
0.0
0
LINE
8
Layer 1
62
4
5
168
100
AcDbEntity
100
AcDbLine
10
39.999999
20
240.000011
30
0.0
11
40.778249
21
239.842761
31
0.0
0
LINE
8
Layer 1
62
4
5
169
100
AcDbEntity
100
AcDbLine
10
40.778249
20
239.842761
30
0.0
11
41.414000
21
239.414010
31
0.0
0
LINE
8
Layer 1
62
4
5
16a
100
AcDbEntity
100
AcDbLine
10
41.414000
20
239.414010
30
0.0
11
41.842750
21
238.778260
31
0.0
0
LINE
8
Layer 1
62
4
5
16b
100
AcDbEntity
100
AcDbLine
10
41.842750
20
238.778260
30
0.0
11
42.000001
21
238.000009
31
0.0
0
LINE
8
Layer 1
62
4
5
16c
100
AcDbEntity
100
AcDbLine
10
42.000001
20
238.000009
30
0.0
11
42.000001
21
238.000009
31
0.0
0
LINE
8
Layer 1
62
4
5
16d
100
AcDbEntity
100
AcDbLine
10
151.002848
20
195.039316
30
0.0
11
151.002848
21
191.000010
31
0.0
0
LINE
8
Layer 1
62
4
5
16e
100
AcDbEntity
100
AcDbLine
10
151.002848
20
191.000010
30
0.0
11
131.000348
21
191.000010
31
0.0
0
LINE
8
Layer 1
62
4
5
16f
100
AcDbEntity
100
AcDbLine
10
131.000348
20
191.000010
30
0.0
11
131.000348
21
175.001538
31
0.0
0
LINE
8
Layer 1
62
4
5
170
100
AcDbEntity
100
AcDbLine
10
131.000348
20
175.001538
30
0.0
11
145.005625
21
175.001538
31
0.0
0
LINE
8
Layer 1
62
4
5
171
100
AcDbEntity
100
AcDbLine
10
145.005625
20
175.001538
30
0.0
11
145.005625
21
185.002788
31
0.0
0
LINE
8
Layer 1
62
4
5
172
100
AcDbEntity
100
AcDbLine
10
145.005625
20
185.002788
30
0.0
11
167.010139
21
185.002788
31
0.0
0
LINE
8
Layer 1
62
4
5
173
100
AcDbEntity
100
AcDbLine
10
167.010139
20
185.002788
30
0.0
11
167.010139
21
175.001538
31
0.0
0
LINE
8
Layer 1
62
4
5
174
100
AcDbEntity
100
AcDbLine
10
167.010139
20
175.001538
30
0.0
11
177.011389
21
175.001538
31
0.0
0
LINE
8
Layer 1
62
4
5
175
100
AcDbEntity
100
AcDbLine
10
177.011389
20
175.001538
30
0.0
11
177.011389
21
185.002788
31
0.0
0
LINE
8
Layer 1
62
4
5
176
100
AcDbEntity
100
AcDbLine
10
177.011389
20
185.002788
30
0.0
11
191.007848
21
185.002788
31
0.0
0
LINE
8
Layer 1
62
4
5
177
100
AcDbEntity
100
AcDbLine
10
191.007848
20
185.002788
30
0.0
11
191.007848
21
175.001538
31
0.0
0
LINE
8
Layer 1
62
4
5
178
100
AcDbEntity
100
AcDbLine
10
191.007848
20
175.001538
30
0.0
11
202.005695
21
175.001538
31
0.0
0
LINE
8
Layer 1
62
4
5
179
100
AcDbEntity
100
AcDbLine
10
202.005695
20
175.001538
30
0.0
11
202.005695
21
185.002788
31
0.0
0
LINE
8
Layer 1
62
4
5
17a
100
AcDbEntity
100
AcDbLine
10
202.005695
20
185.002788
30
0.0
11
210.004931
21
185.002788
31
0.0
0
LINE
8
Layer 1
62
4
5
17b
100
AcDbEntity
100
AcDbLine
10
210.004931
20
185.002788
30
0.0
11
210.004931
21
175.001538
31
0.0
0
LINE
8
Layer 1
62
4
5
17c
100
AcDbEntity
100
AcDbLine
10
210.004931
20
175.001538
30
0.0
11
227.000000
21
175.001538
31
0.0
0
LINE
8
Layer 1
62
4
5
17d
100
AcDbEntity
100
AcDbLine
10
227.000000
20
175.001538
30
0.0
11
227.000000
21
191.000010
31
0.0
0
LINE
8
Layer 1
62
4
5
17e
100
AcDbEntity
100
AcDbLine
10
227.000000
20
191.000010
30
0.0
11
211.001528
21
191.000010
31
0.0
0
LINE
8
Layer 1
62
4
5
17f
100
AcDbEntity
100
AcDbLine
10
211.001528
20
191.000010
30
0.0
11
211.001528
21
194.995219
31
0.0
0
LINE
8
Layer 1
62
4
5
180
100
AcDbEntity
100
AcDbLine
10
211.001528
20
194.995219
30
0.0
11
191.007848
21
194.995219
31
0.0
0
LINE
8
Layer 1
62
4
5
181
100
AcDbEntity
100
AcDbLine
10
191.007848
20
194.995219
30
0.0
11
191.007848
21
191.000010
31
0.0
0
LINE
8
Layer 1
62
4
5
182
100
AcDbEntity
100
AcDbLine
10
191.007848
20
191.000010
30
0.0
11
171.005348
21
191.000010
31
0.0
0
LINE
8
Layer 1
62
4
5
183
100
AcDbEntity
100
AcDbLine
10
171.005348
20
191.000010
30
0.0
11
171.005348
21
194.995219
31
0.0
0
LINE
8
Layer 1
62
4
5
184
100
AcDbEntity
100
AcDbLine
10
171.005348
20
194.995219
30
0.0
11
151.002848
21
195.039316
31
0.0
0
LINE
8
Layer 1
62
4
5
185
100
AcDbEntity
100
AcDbLine
10
151.002848
20
195.039316
30
0.0
11
151.002848
21
195.039316
31
0.0
0
LINE
8
Layer 1
62
4
5
186
100
AcDbEntity
100
AcDbLine
10
130.995208
20
173.995946
30
0.0
11
130.995208
21
157.988655
31
0.0
0
LINE
8
Layer 1
62
4
5
187
100
AcDbEntity
100
AcDbLine
10
130.995208
20
157.988655
30
0.0
11
150.997708
21
157.988655
31
0.0
0
LINE
8
Layer 1
62
4
5
188
100
AcDbEntity
100
AcDbLine
10
150.997708
20
157.988655
30
0.0
11
150.997708
21
153.993446
31
0.0
0
LINE
8
Layer 1
62
4
5
189
100
AcDbEntity
100
AcDbLine
10
150.997708
20
153.993446
30
0.0
11
171.000208
21
153.993446
31
0.0
0
LINE
8
Layer 1
62
4
5
18a
100
AcDbEntity
100
AcDbLine
10
171.000208
20
153.993446
30
0.0
11
171.000208
21
157.997474
31
0.0
0
LINE
8
Layer 1
62
4
5
18b
100
AcDbEntity
100
AcDbLine
10
171.000208
20
157.997474
30
0.0
11
191.002708
21
157.997474
31
0.0
0
LINE
8
Layer 1
62
4
5
18c
100
AcDbEntity
100
AcDbLine
10
191.002708
20
157.997474
30
0.0
11
191.002708
21
153.993446
31
0.0
0
LINE
8
Layer 1
62
4
5
18d
100
AcDbEntity
100
AcDbLine
10
191.002708
20
153.993446
30
0.0
11
210.996389
21
153.993446
31
0.0
0
LINE
8
Layer 1
62
4
5
18e
100
AcDbEntity
100
AcDbLine
10
210.996389
20
153.993446
30
0.0
11
210.996389
21
157.997474
31
0.0
0
LINE
8
Layer 1
62
4
5
18f
100
AcDbEntity
100
AcDbLine
10
210.996389
20
157.997474
30
0.0
11
226.994861
21
157.997474
31
0.0
0
LINE
8
Layer 1
62
4
5
190
100
AcDbEntity
100
AcDbLine
10
226.994861
20
157.997474
30
0.0
11
226.994861
21
173.995946
31
0.0
0
LINE
8
Layer 1
62
4
5
191
100
AcDbEntity
100
AcDbLine
10
226.994861
20
173.995946
30
0.0
11
207.997987
21
173.998602
31
0.0
0
LINE
8
Layer 1
62
4
5
192
100
AcDbEntity
100
AcDbLine
10
207.997987
20
173.998602
30
0.0
11
207.997987
21
163.997352
31
0.0
0
LINE
8
Layer 1
62
4
5
193
100
AcDbEntity
100
AcDbLine
10
207.997987
20
163.997352
30
0.0
11
191.999514
21
163.997352
31
0.0
0
LINE
8
Layer 1
62
4
5
194
100
AcDbEntity
100
AcDbLine
10
191.999514
20
163.997352
30
0.0
11
191.999514
21
173.998602
31
0.0
0
LINE
8
Layer 1
62
4
5
195
100
AcDbEntity
100
AcDbLine
10
191.999514
20
173.998602
30
0.0
11
181.001667
21
173.998602
31
0.0
0
LINE
8
Layer 1
62
4
5
196
100
AcDbEntity
100
AcDbLine
10
181.001667
20
173.998602
30
0.0
11
181.001667
21
163.997352
31
0.0
0
LINE
8
Layer 1
62
4
5
197
100
AcDbEntity
100
AcDbLine
10
181.001667
20
163.997352
30
0.0
11
165.003195
21
163.997352
31
0.0
0
LINE
8
Layer 1
62
4
5
198
100
AcDbEntity
100
AcDbLine
10
165.003195
20
163.997352
30
0.0
11
165.003195
21
173.998602
31
0.0
0
LINE
8
Layer 1
62
4
5
199
100
AcDbEntity
100
AcDbLine
10
165.003195
20
173.998602
30
0.0
11
158.000556
21
173.998602
31
0.0
0
LINE
8
Layer 1
62
4
5
19a
100
AcDbEntity
100
AcDbLine
10
158.000556
20
173.998602
30
0.0
11
158.000556
21
163.997352
31
0.0
0
LINE
8
Layer 1
62
4
5
19b
100
AcDbEntity
100
AcDbLine
10
158.000556
20
163.997352
30
0.0
11
155.998542
21
163.997352
31
0.0
0
LINE
8
Layer 1
62
4
5
19c
100
AcDbEntity
100
AcDbLine
10
155.998542
20
163.997352
30
0.0
11
142.000001
21
164.000011
31
0.0
0
LINE
8
Layer 1
62
4
5
19d
100
AcDbEntity
100
AcDbLine
10
142.000001
20
164.000011
30
0.0
11
142.002084
21
173.998602
31
0.0
0
LINE
8
Layer 1
62
4
5
19e
100
AcDbEntity
100
AcDbLine
10
142.002084
20
173.998602
30
0.0
11
130.995208
21
173.995946
31
0.0
0
LINE
8
Layer 1
62
4
5
19f
100
AcDbEntity
100
AcDbLine
10
130.995208
20
173.995946
30
0.0
11
130.995208
21
173.995946
31
0.0
0
LINE
8
Layer 1
62
4
5
1a0
100
AcDbEntity
100
AcDbLine
10
30.000346
20
194.996189
30
0.0
11
30.000346
21
146.991953
31
0.0
0
LINE
8
Layer 1
62
4
5
1a1
100
AcDbEntity
100
AcDbLine
10
30.000346
20
146.991953
30
0.0
11
41.001527
21
146.995650
31
0.0
0
LINE
8
Layer 1
62
4
5
1a2
100
AcDbEntity
100
AcDbLine
10
41.001527
20
146.995650
30
0.0
11
41.001527
21
159.995650
31
0.0
0
LINE
8
Layer 1
62
4
5
1a3
100
AcDbEntity
100
AcDbLine
10
41.001527
20
159.995650
30
0.0
11
59.001527
21
159.995650
31
0.0
0
LINE
8
Layer 1
62
4
5
1a4
100
AcDbEntity
100
AcDbLine
10
59.001527
20
159.995650
30
0.0
11
59.001527
21
146.995650
31
0.0
0
LINE
8
Layer 1
62
4
5
1a5
100
AcDbEntity
100
AcDbLine
10
59.001527
20
146.995650
30
0.0
11
64.001526
21
146.995650
31
0.0
0
LINE
8
Layer 1
62
4
5
1a6
100
AcDbEntity
100
AcDbLine
10
64.001526
20
146.995650
30
0.0
11
64.001526
21
159.995650
31
0.0
0
LINE
8
Layer 1
62
4
5
1a7
100
AcDbEntity
100
AcDbLine
10
64.001526
20
159.995650
30
0.0
11
82.001527
21
159.995650
31
0.0
0
LINE
8
Layer 1
62
4
5
1a8
100
AcDbEntity
100
AcDbLine
10
82.001527
20
159.995650
30
0.0
11
82.001527
21
146.995650
31
0.0
0
LINE
8
Layer 1
62
4
5
1a9
100
AcDbEntity
100
AcDbLine
10
82.001527
20
146.995650
30
0.0
11
91.001528
21
146.995650
31
0.0
0
LINE
8
Layer 1
62
4
5
1aa
100
AcDbEntity
100
AcDbLine
10
91.001528
20
146.995650
30
0.0
11
91.001528
21
159.995650
31
0.0
0
LINE
8
Layer 1
62
4
5
1ab
100
AcDbEntity
100
AcDbLine
10
91.001528
20
159.995650
30
0.0
11
109.001526
21
159.995650
31
0.0
0
LINE
8
Layer 1
62
4
5
1ac
100
AcDbEntity
100
AcDbLine
10
109.001526
20
159.995650
30
0.0
11
109.001526
21
146.995650
31
0.0
0
LINE
8
Layer 1
62
4
5
1ad
100
AcDbEntity
100
AcDbLine
10
109.001526
20
146.995650
30
0.0
11
125.999999
21
146.991953
31
0.0
0
LINE
8
Layer 1
62
4
5
1ae
100
AcDbEntity
100
AcDbLine
10
125.999999
20
146.991953
30
0.0
11
125.999999
21
155.000009
31
0.0
0
LINE
8
Layer 1
62
4
5
1af
100
AcDbEntity
100
AcDbLine
10
125.999999
20
155.000009
30
0.0
11
130.004027
21
155.000009
31
0.0
0
LINE
8
Layer 1
62
4
5
1b0
100
AcDbEntity
100
AcDbLine
10
130.004027
20
155.000009
30
0.0
11
130.004027
21
158.995217
31
0.0
0
LINE
8
Layer 1
62
4
5
1b1
100
AcDbEntity
100
AcDbLine
10
130.004027
20
158.995217
30
0.0
11
125.999999
21
158.995217
31
0.0
0
LINE
8
Layer 1
62
4
5
1b2
100
AcDbEntity
100
AcDbLine
10
125.999999
20
158.995217
30
0.0
11
125.999999
21
180.999731
31
0.0
0
LINE
8
Layer 1
62
4
5
1b3
100
AcDbEntity
100
AcDbLine
10
125.999999
20
180.999731
30
0.0
11
130.004027
21
180.999731
31
0.0
0
LINE
8
Layer 1
62
4
5
1b4
100
AcDbEntity
100
AcDbLine
10
130.004027
20
180.999731
30
0.0
11
130.004027
21
184.994939
31
0.0
0
LINE
8
Layer 1
62
4
5
1b5
100
AcDbEntity
100
AcDbLine
10
130.004027
20
184.994939
30
0.0
11
125.999999
21
184.994939
31
0.0
0
LINE
8
Layer 1
62
4
5
1b6
100
AcDbEntity
100
AcDbLine
10
125.999999
20
184.994939
30
0.0
11
125.999999
21
194.996189
31
0.0
0
LINE
8
Layer 1
62
4
5
1b7
100
AcDbEntity
100
AcDbLine
10
125.999999
20
194.996189
30
0.0
11
120.002777
21
194.996189
31
0.0
0
LINE
8
Layer 1
62
4
5
1b8
100
AcDbEntity
100
AcDbLine
10
120.002777
20
194.996189
30
0.0
11
120.002777
21
188.998967
31
0.0
0
LINE
8
Layer 1
62
4
5
1b9
100
AcDbEntity
100
AcDbLine
10
120.002777
20
188.998967
30
0.0
11
112.001526
21
188.995651
31
0.0
0
LINE
8
Layer 1
62
4
5
1ba
100
AcDbEntity
100
AcDbLine
10
112.001526
20
188.995651
30
0.0
11
112.001526
21
180.995650
31
0.0
0
LINE
8
Layer 1
62
4
5
1bb
100
AcDbEntity
100
AcDbLine
10
112.001526
20
180.995650
30
0.0
11
102.001526
21
180.995650
31
0.0
0
LINE
8
Layer 1
62
4
5
1bc
100
AcDbEntity
100
AcDbLine
10
102.001526
20
180.995650
30
0.0
11
102.001526
21
186.995652
31
0.0
0
LINE
8
Layer 1
62
4
5
1bd
100
AcDbEntity
100
AcDbLine
10
102.001526
20
186.995652
30
0.0
11
93.001527
21
186.995652
31
0.0
0
LINE
8
Layer 1
62
4
5
1be
100
AcDbEntity
100
AcDbLine
10
93.001527
20
186.995652
30
0.0
11
93.001527
21
180.995650
31
0.0
0
LINE
8
Layer 1
62
4
5
1bf
100
AcDbEntity
100
AcDbLine
10
93.001527
20
180.995650
30
0.0
11
77.001528
21
180.995650
31
0.0
0
LINE
8
Layer 1
62
4
5
1c0
100
AcDbEntity
100
AcDbLine
10
77.001528
20
180.995650
30
0.0
11
77.001528
21
188.995651
31
0.0
0
LINE
8
Layer 1
62
4
5
1c1
100
AcDbEntity
100
AcDbLine
10
77.001528
20
188.995651
30
0.0
11
73.003958
21
188.998967
31
0.0
0
LINE
8
Layer 1
62
4
5
1c2
100
AcDbEntity
100
AcDbLine
10
73.003958
20
188.998967
30
0.0
11
73.003958
21
179.994314
31
0.0
0
LINE
8
Layer 1
62
4
5
1c3
100
AcDbEntity
100
AcDbLine
10
73.003958
20
179.994314
30
0.0
11
69.001527
21
179.995652
31
0.0
0
LINE
8
Layer 1
62
4
5
1c4
100
AcDbEntity
100
AcDbLine
10
69.001527
20
179.995652
30
0.0
11
69.001527
21
174.995651
31
0.0
0
LINE
8
Layer 1
62
4
5
1c5
100
AcDbEntity
100
AcDbLine
10
69.001527
20
174.995651
30
0.0
11
55.001527
21
174.995651
31
0.0
0
LINE
8
Layer 1
62
4
5
1c6
100
AcDbEntity
100
AcDbLine
10
55.001527
20
174.995651
30
0.0
11
55.001527
21
181.995651
31
0.0
0
LINE
8
Layer 1
62
4
5
1c7
100
AcDbEntity
100
AcDbLine
10
55.001527
20
181.995651
30
0.0
11
45.998819
21
181.996328
31
0.0
0
LINE
8
Layer 1
62
4
5
1c8
100
AcDbEntity
100
AcDbLine
10
45.998819
20
181.996328
30
0.0
11
45.998819
21
194.996189
31
0.0
0
LINE
8
Layer 1
62
4
5
1c9
100
AcDbEntity
100
AcDbLine
10
45.998819
20
194.996189
30
0.0
11
30.000346
21
194.996189
31
0.0
0
LINE
8
Layer 1
62
4
5
1ca
100
AcDbEntity
100
AcDbLine
10
30.000346
20
194.996189
30
0.0
11
30.000346
21
194.996189
31
0.0
0
LINE
8
Layer 1
62
4
5
1cb
100
AcDbEntity
100
AcDbLine
10
81.001548
20
173.995650
30
0.0
11
92.001526
21
173.995650
31
0.0
0
LINE
8
Layer 1
62
4
5
1cc
100
AcDbEntity
100
AcDbLine
10
92.001526
20
173.995650
30
0.0
11
92.001526
21
177.995651
31
0.0
0
LINE
8
Layer 1
62
4
5
1cd
100
AcDbEntity
100
AcDbLine
10
92.001526
20
177.995651
30
0.0
11
81.001548
21
177.995651
31
0.0
0
LINE
8
Layer 1
62
4
5
1ce
100
AcDbEntity
100
AcDbLine
10
81.001548
20
177.995651
30
0.0
11
81.001548
21
173.995650
31
0.0
0
LINE
8
Layer 1
62
4
5
1cf
100
AcDbEntity
100
AcDbLine
10
81.001548
20
173.995650
30
0.0
11
81.001548
21
173.995650
31
0.0
0
LINE
8
Layer 1
62
4
5
1d0
100
AcDbEntity
100
AcDbLine
10
78.501525
20
173.995651
30
0.0
11
78.304963
21
173.022839
31
0.0
0
LINE
8
Layer 1
62
4
5
1d1
100
AcDbEntity
100
AcDbLine
10
78.304963
20
173.022839
30
0.0
11
77.769026
21
172.228151
31
0.0
0
LINE
8
Layer 1
62
4
5
1d2
100
AcDbEntity
100
AcDbLine
10
77.769026
20
172.228151
30
0.0
11
76.974339
21
171.692214
31
0.0
0
LINE
8
Layer 1
62
4
5
1d3
100
AcDbEntity
100
AcDbLine
10
76.974339
20
171.692214
30
0.0
11
76.001527
21
171.495651
31
0.0
0
LINE
8
Layer 1
62
4
5
1d4
100
AcDbEntity
100
AcDbLine
10
76.001527
20
171.495651
30
0.0
11
75.028714
21
171.692214
31
0.0
0
LINE
8
Layer 1
62
4
5
1d5
100
AcDbEntity
100
AcDbLine
10
75.028714
20
171.692214
30
0.0
11
74.234026
21
172.228151
31
0.0
0
LINE
8
Layer 1
62
4
5
1d6
100
AcDbEntity
100
AcDbLine
10
74.234026
20
172.228151
30
0.0
11
73.698089
21
173.022839
31
0.0
0
LINE
8
Layer 1
62
4
5
1d7
100
AcDbEntity
100
AcDbLine
10
73.698089
20
173.022839
30
0.0
11
73.501527
21
173.995651
31
0.0
0
LINE
8
Layer 1
62
4
5
1d8
100
AcDbEntity
100
AcDbLine
10
73.501527
20
173.995651
30
0.0
11
73.698089
21
174.968464
31
0.0
0
LINE
8
Layer 1
62
4
5
1d9
100
AcDbEntity
100
AcDbLine
10
73.698089
20
174.968464
30
0.0
11
74.234026
21
175.763151
31
0.0
0
LINE
8
Layer 1
62
4
5
1da
100
AcDbEntity
100
AcDbLine
10
74.234026
20
175.763151
30
0.0
11
75.028714
21
176.299089
31
0.0
0
LINE
8
Layer 1
62
4
5
1db
100
AcDbEntity
100
AcDbLine
10
75.028714
20
176.299089
30
0.0
11
76.001527
21
176.495651
31
0.0
0
LINE
8
Layer 1
62
4
5
1dc
100
AcDbEntity
100
AcDbLine
10
76.001527
20
176.495651
30
0.0
11
76.974339
21
176.299089
31
0.0
0
LINE
8
Layer 1
62
4
5
1dd
100
AcDbEntity
100
AcDbLine
10
76.974339
20
176.299089
30
0.0
11
77.769026
21
175.763151
31
0.0
0
LINE
8
Layer 1
62
4
5
1de
100
AcDbEntity
100
AcDbLine
10
77.769026
20
175.763151
30
0.0
11
78.304963
21
174.968464
31
0.0
0
LINE
8
Layer 1
62
4
5
1df
100
AcDbEntity
100
AcDbLine
10
78.304963
20
174.968464
30
0.0
11
78.501525
21
173.995651
31
0.0
0
LINE
8
Layer 1
62
4
5
1e0
100
AcDbEntity
100
AcDbLine
10
78.501525
20
173.995651
30
0.0
11
78.501525
21
173.995651
31
0.0
0
LINE
8
Layer 1
62
4
5
1e1
100
AcDbEntity
100
AcDbLine
10
70.501518
20
169.995652
30
0.0
11
70.226332
21
168.633715
31
0.0
0
LINE
8
Layer 1
62
4
5
1e2
100
AcDbEntity
100
AcDbLine
10
70.226332
20
168.633715
30
0.0
11
69.476021
21
167.521152
31
0.0
0
LINE
8
Layer 1
62
4
5
1e3
100
AcDbEntity
100
AcDbLine
10
69.476021
20
167.521152
30
0.0
11
68.363461
21
166.770839
31
0.0
0
LINE
8
Layer 1
62
4
5
1e4
100
AcDbEntity
100
AcDbLine
10
68.363461
20
166.770839
30
0.0
11
67.001525
21
166.495651
31
0.0
0
LINE
8
Layer 1
62
4
5
1e5
100
AcDbEntity
100
AcDbLine
10
67.001525
20
166.495651
30
0.0
11
65.639592
21
166.770839
31
0.0
0
LINE
8
Layer 1
62
4
5
1e6
100
AcDbEntity
100
AcDbLine
10
65.639592
20
166.770839
30
0.0
11
64.527032
21
167.521152
31
0.0
0
LINE
8
Layer 1
62
4
5
1e7
100
AcDbEntity
100
AcDbLine
10
64.527032
20
167.521152
30
0.0
11
63.776722
21
168.633715
31
0.0
0
LINE
8
Layer 1
62
4
5
1e8
100
AcDbEntity
100
AcDbLine
10
63.776722
20
168.633715
30
0.0
11
63.501535
21
169.995652
31
0.0
0
LINE
8
Layer 1
62
4
5
1e9
100
AcDbEntity
100
AcDbLine
10
63.501535
20
169.995652
30
0.0
11
63.776722
21
171.357590
31
0.0
0
LINE
8
Layer 1
62
4
5
1ea
100
AcDbEntity
100
AcDbLine
10
63.776722
20
171.357590
30
0.0
11
64.527032
21
172.470152
31
0.0
0
LINE
8
Layer 1
62
4
5
1eb
100
AcDbEntity
100
AcDbLine
10
64.527032
20
172.470152
30
0.0
11
65.639592
21
173.220464
31
0.0
0
LINE
8
Layer 1
62
4
5
1ec
100
AcDbEntity
100
AcDbLine
10
65.639592
20
173.220464
30
0.0
11
67.001525
21
173.495651
31
0.0
0
LINE
8
Layer 1
62
4
5
1ed
100
AcDbEntity
100
AcDbLine
10
67.001525
20
173.495651
30
0.0
11
68.363461
21
173.220464
31
0.0
0
LINE
8
Layer 1
62
4
5
1ee
100
AcDbEntity
100
AcDbLine
10
68.363461
20
173.220464
30
0.0
11
69.476021
21
172.470152
31
0.0
0
LINE
8
Layer 1
62
4
5
1ef
100
AcDbEntity
100
AcDbLine
10
69.476021
20
172.470152
30
0.0
11
70.226332
21
171.357590
31
0.0
0
LINE
8
Layer 1
62
4
5
1f0
100
AcDbEntity
100
AcDbLine
10
70.226332
20
171.357590
30
0.0
11
70.501518
21
169.995652
31
0.0
0
LINE
8
Layer 1
62
4
5
1f1
100
AcDbEntity
100
AcDbLine
10
70.501518
20
169.995652
30
0.0
11
70.501518
21
169.995652
31
0.0
0
LINE
8
text
62
4
5
1f2
100
AcDbEntity
100
AcDbLine
10
199.001301
20
252.000010
30
0.0
11
215.001297
21
252.000010
31
0.0
0
LINE
8
text
62
4
5
1f3
100
AcDbEntity
100
AcDbLine
10
215.001297
20
252.000010
30
0.0
11
215.001297
21
237.999016
31
0.0
0
LINE
8
text
62
4
5
1f4
100
AcDbEntity
100
AcDbLine
10
215.001297
20
237.999016
30
0.0
11
219.004761
21
237.999016
31
0.0
0
LINE
8
text
62
4
5
1f5
100
AcDbEntity
100
AcDbLine
10
219.004761
20
237.999016
30
0.0
11
219.004761
21
227.995249
31
0.0
0
LINE
8
text
62
4
5
1f6
100
AcDbEntity
100
AcDbLine
10
219.004761
20
227.995249
30
0.0
11
215.001297
21
228.000010
31
0.0
0
LINE
8
text
62
4
5
1f7
100
AcDbEntity
100
AcDbLine
10
215.001297
20
228.000010
30
0.0
11
215.001297
21
218.000010
31
0.0
0
LINE
8
text
62
4
5
1f8
100
AcDbEntity
100
AcDbLine
10
215.001297
20
218.000010
30
0.0
11
219.001289
21
218.000010
31
0.0
0
LINE
8
text
62
4
5
1f9
100
AcDbEntity
100
AcDbLine
10
219.001289
20
218.000010
30
0.0
11
219.001289
21
208.000010
31
0.0
0
LINE
8
text
62
4
5
1fa
100
AcDbEntity
100
AcDbLine
10
219.001289
20
208.000010
30
0.0
11
215.001297
21
208.000010
31
0.0
0
LINE
8
text
62
4
5
1fb
100
AcDbEntity
100
AcDbLine
10
215.001297
20
208.000010
30
0.0
11
215.001297
21
195.997663
31
0.0
0
LINE
8
text
62
4
5
1fc
100
AcDbEntity
100
AcDbLine
10
215.001297
20
195.997663
30
0.0
11
199.001301
21
196.000009
31
0.0
0
LINE
8
text
62
4
5
1fd
100
AcDbEntity
100
AcDbLine
10
199.001301
20
196.000009
30
0.0
11
199.001301
21
252.000010
31
0.0
0
LINE
8
text
62
4
5
1fe
100
AcDbEntity
100
AcDbLine
10
199.001301
20
252.000010
30
0.0
11
199.001301
21
252.000010
31
0.0
0
LINE
8
text
62
4
5
1ff
100
AcDbEntity
100
AcDbLine
10
202.001278
20
230.000011
30
0.0
11
205.001278
21
230.000011
31
0.0
0
LINE
8
text
62
4
5
200
100
AcDbEntity
100
AcDbLine
10
205.001278
20
230.000011
30
0.0
11
205.001278
21
228.000010
31
0.0
0
LINE
8
text
62
4
5
201
100
AcDbEntity
100
AcDbLine
10
205.001278
20
228.000010
30
0.0
11
202.001278
21
228.000010
31
0.0
0
LINE
8
text
62
4
5
202
100
AcDbEntity
100
AcDbLine
10
202.001278
20
228.000010
30
0.0
11
202.001278
21
230.000011
31
0.0
0
LINE
8
text
62
4
5
203
100
AcDbEntity
100
AcDbLine
10
202.001278
20
230.000011
30
0.0
11
202.001278
21
230.000011
31
0.0
0
LINE
8
text
62
4
5
204
100
AcDbEntity
100
AcDbLine
10
202.001278
20
218.000010
30
0.0
11
205.001278
21
218.000010
31
0.0
0
LINE
8
text
62
4
5
205
100
AcDbEntity
100
AcDbLine
10
205.001278
20
218.000010
30
0.0
11
205.001278
21
216.000011
31
0.0
0
LINE
8
text
62
4
5
206
100
AcDbEntity
100
AcDbLine
10
205.001278
20
216.000011
30
0.0
11
202.001278
21
216.000011
31
0.0
0
LINE
8
text
62
4
5
207
100
AcDbEntity
100
AcDbLine
10
202.001278
20
216.000011
30
0.0
11
202.001278
21
218.000010
31
0.0
0
LINE
8
text
62
4
5
208
100
AcDbEntity
100
AcDbLine
10
202.001278
20
218.000010
30
0.0
11
202.001278
21
218.000010
31
0.0
0
LINE
8
text
62
4
5
209
100
AcDbEntity
100
AcDbLine
10
178.000604
20
237.998545
30
0.0
11
182.000471
21
237.999538
31
0.0
0
LINE
8
text
62
4
5
20a
100
AcDbEntity
100
AcDbLine
10
182.000471
20
237.999538
30
0.0
11
182.000471
21
251.999538
31
0.0
0
LINE
8
text
62
4
5
20b
100
AcDbEntity
100
AcDbLine
10
182.000471
20
251.999538
30
0.0
11
198.000485
21
251.999538
31
0.0
0
LINE
8
text
62
4
5
20c
100
AcDbEntity
100
AcDbLine
10
198.000485
20
251.999538
30
0.0
11
197.996392
21
195.997192
31
0.0
0
LINE
8
text
62
4
5
20d
100
AcDbEntity
100
AcDbLine
10
197.996392
20
195.997192
30
0.0
11
182.005193
21
195.997192
31
0.0
0
LINE
8
text
62
4
5
20e
100
AcDbEntity
100
AcDbLine
10
182.005193
20
195.997192
30
0.0
11
182.000471
21
207.999539
31
0.0
0
LINE
8
text
62
4
5
20f
100
AcDbEntity
100
AcDbLine
10
182.000471
20
207.999539
30
0.0
11
178.000604
21
208.002985
31
0.0
0
LINE
8
text
62
4
5
210
100
AcDbEntity
100
AcDbLine
10
178.000604
20
208.002985
30
0.0
11
178.000604
21
218.003605
31
0.0
0
LINE
8
text
62
4
5
211
100
AcDbEntity
100
AcDbLine
10
178.000604
20
218.003605
30
0.0
11
182.005193
21
218.003605
31
0.0
0
LINE
8
text
62
4
5
212
100
AcDbEntity
100
AcDbLine
10
182.005193
20
218.003605
30
0.0
11
182.005193
21
227.994777
31
0.0
0
LINE
8
text
62
4
5
213
100
AcDbEntity
100
AcDbLine
10
182.005193
20
227.994777
30
0.0
11
178.000471
21
227.999538
31
0.0
0
LINE
8
text
62
4
5
214
100
AcDbEntity
100
AcDbLine
10
178.000471
20
227.999538
30
0.0
11
178.000604
21
237.998545
31
0.0
0
LINE
8
text
62
4
5
215
100
AcDbEntity
100
AcDbLine
10
178.000604
20
237.998545
30
0.0
11
178.000604
21
237.998545
31
0.0
0
LINE
8
text
62
4
5
216
100
AcDbEntity
100
AcDbLine
10
187.000473
20
237.999538
30
0.0
11
192.000471
21
237.999538
31
0.0
0
LINE
8
text
62
4
5
217
100
AcDbEntity
100
AcDbLine
10
192.000471
20
237.999538
30
0.0
11
192.000471
21
233.999540
31
0.0
0
LINE
8
text
62
4
5
218
100
AcDbEntity
100
AcDbLine
10
192.000471
20
233.999540
30
0.0
11
187.000473
21
233.999540
31
0.0
0
LINE
8
text
62
4
5
219
100
AcDbEntity
100
AcDbLine
10
187.000473
20
233.999540
30
0.0
11
187.000473
21
237.999538
31
0.0
0
LINE
8
text
62
4
5
21a
100
AcDbEntity
100
AcDbLine
10
187.000473
20
237.999538
30
0.0
11
187.000473
21
237.999538
31
0.0
0
LINE
8
text
62
4
5
21b
100
AcDbEntity
100
AcDbLine
10
187.000473
20
211.999534
30
0.0
11
192.000471
21
211.999534
31
0.0
0
LINE
8
text
62
4
5
21c
100
AcDbEntity
100
AcDbLine
10
192.000471
20
211.999534
30
0.0
11
192.000471
21
207.999533
31
0.0
0
LINE
8
text
62
4
5
21d
100
AcDbEntity
100
AcDbLine
10
192.000471
20
207.999533
30
0.0
11
187.000473
21
207.999533
31
0.0
0
LINE
8
text
62
4
5
21e
100
AcDbEntity
100
AcDbLine
10
187.000473
20
207.999533
30
0.0
11
187.000473
21
211.999534
31
0.0
0
LINE
8
text
62
4
5
21f
100
AcDbEntity
100
AcDbLine
10
187.000473
20
211.999534
30
0.0
11
187.000473
21
211.999534
31
0.0
  0
ENDSEC
  0
SECTION
  2
OBJECTS
  0
DICTIONARY
  5
C
330
0
100
AcDbDictionary
  3
ACAD_GROUP
350
D
  3
ACAD_MLINESTYLE
350
17
  0
DICTIONARY
  5
D
330
C
100
AcDbDictionary
  0
DICTIONARY
  5
1A
330
C
100
AcDbDictionary
  0
DICTIONARY
  5
17
330
C
100
AcDbDictionary
  3
STANDARD
350
18
  0
DICTIONARY
  5
19
330
C
100
AcDbDictionary
  0
ENDSEC
  0
EOF
