999
Inkscape export via "Better Better DXF Output" (http://tim.cexx.org/?p=590)
  0
SECTION
  2
HEADER
  9
$ACADVER
  1
AC1014
  9
$HANDSEED
  5
FFFF
  0
ENDSEC
  0
SECTION
  2
TABLES
  0
TABLE
  2
VPORT
  5
8
330
0
100
AcDbSymbolTable
 70
     4
  0
VPORT
  5
2E
330
8
100
AcDbSymbolTableRecord
100
AcDbViewportTableRecord
  2
*ACTIVE
 70
     0
 10
0.0
 20
0.0
 11
1.0
 21
1.0
 12
4.25
 22
5.5
 13
0.0
 23
0.0
 14
10.0
 24
10.0
 15
10.0
 25
10.0
 16
0.0
 26
0.0
 36
1.0
 17
0.0
 27
0.0
 37
0.0
 40
11
 41
1.24
 42
50.0
 43
0.0
 44
0.0
 50
0.0
 51
0.0
 71
     0
 72
   100
 73
     1
 74
     3
 75
     0
 76
     0
 77
     0
 78
     0
  0
ENDTAB
  0
TABLE
  2
LTYPE
  5
5
330
0
100
AcDbSymbolTable
 70
     1
  0
LTYPE
  5
14
330
5
100
AcDbSymbolTableRecord
100
AcDbLinetypeTableRecord
  2
BYBLOCK
 70
     0
  3

 72
    65
 73
     0
 40
0.0
  0
LTYPE
  5
15
330
5
100
AcDbSymbolTableRecord
100
AcDbLinetypeTableRecord
  2
BYLAYER
 70
     0
  3

 72
    65
 73
     0
 40
0.0
  0
LTYPE
  5
16
330
5
100
AcDbSymbolTableRecord
100
AcDbLinetypeTableRecord
  2
CONTINUOUS
 70
     0
  3
Solid line
 72
    65
 73
     0
 40
0.0
  0
ENDTAB
  0
TABLE
  2
STYLE
  5
3
330
0
100
AcDbSymbolTable
 70
     1
  0
STYLE
  5
11
330
3
100
AcDbSymbolTableRecord
100
AcDbTextStyleTableRecord
  2
STANDARD
 70
     0
 40
0.0
 41
1.0
 50
0.0
 71
     0
 42
2.5
  3
txt
  4

  0
ENDTAB
  0
TABLE
  2
VIEW
  5
6
330
0
100
AcDbSymbolTable
 70
     0
  0
ENDTAB
  0
TABLE
  2
UCS
  5
7
330
0
100
AcDbSymbolTable
 70
     0
  0
ENDTAB
  0
TABLE
  2
APPID
  5
9
330
0
100
AcDbSymbolTable
 70
     2
  0
APPID
  5
12
330
9
100
AcDbSymbolTableRecord
100
AcDbRegAppTableRecord
  2
ACAD
 70
     0
  0
ENDTAB
  0
TABLE
  2
DIMSTYLE
  5
A
330
0
100
AcDbSymbolTable
 70
     1
  0
DIMSTYLE
105
27
330
A
100
AcDbSymbolTableRecord
100
AcDbDimStyleTableRecord
  2
ISO-25
 70
     0
  3

  4

  5

  6

  7

 40
1.0
 41
2.5
 42
0.625
 43
3.75
 44
1.25
 45
0.0
 46
0.0
 47
0.0
 48
0.0
140
2.5
141
2.5
142
0.0
143
0.03937007874016
144
1.0
145
0.0
146
1.0
147
0.625
 71
     0
 72
     0
 73
     0
 74
     0
 75
     0
 76
     0
 77
     1
 78
     8
170
     0
171
     3
172
     1
173
     0
174
     0
175
     0
176
     0
177
     0
178
     0
270
     2
271
     2
272
     2
273
     2
274
     3
340
11
275
     0
280
     0
281
     0
282
     0
283
     0
284
     8
285
     0
286
     0
287
     3
288
     0
  0
ENDTAB
  0
TABLE
  2
BLOCK_RECORD
  5
1
330
0
100
AcDbSymbolTable
 70
     1
  0
BLOCK_RECORD
  5
1F
330
1
100
AcDbSymbolTableRecord
100
AcDbBlockTableRecord
  2
*MODEL_SPACE
  0
BLOCK_RECORD
  5
1B
330
1
100
AcDbSymbolTableRecord
100
AcDbBlockTableRecord
  2
*PAPER_SPACE
  0
ENDTAB
0
TABLE
2
LAYER
5
2
330
0
100
AcDbSymbolTable
70
2
0
LAYER
5
10
330
2
100
AcDbSymbolTableRecord
100
AcDbLayerTableRecord
2
Layer 1
70
0
62
7
6
CONTINUOUS
0
LAYER
5
10
330
2
100
AcDbSymbolTableRecord
100
AcDbLayerTableRecord
2
text
70
0
62
7
6
CONTINUOUS
0
ENDTAB
0
ENDSEC
  0
SECTION
  2
BLOCKS
  0
BLOCK
  5
20
330
1F
100
AcDbEntity
  8
0
100
AcDbBlockBegin
  2
*MODEL_SPACE
 70
     0
 10
0.0
 20
0.0
 30
0.0
  3
*MODEL_SPACE
  1

  0
ENDBLK
  5
21
330
1F
100
AcDbEntity
  8
0
100
AcDbBlockEnd
  0
BLOCK
  5
1C
330
1B
100
AcDbEntity
 67
     1
  8
0
100
AcDbBlockBegin
  2
*PAPER_SPACE
  1

  0
ENDBLK
  5
1D
330
1B
100
AcDbEntity
 67
     1
  8
0
100
AcDbBlockEnd
  0
ENDSEC
  0
SECTION
  2
ENTITIES
0
LINE
8
Layer 1
62
4
5
100
100
AcDbEntity
100
AcDbLine
10
6.004659
20
157.000578
30
0.0
11
50.001675
21
157.000578
31
0.0
0
LINE
8
Layer 1
62
4
5
101
100
AcDbEntity
100
AcDbLine
10
50.001675
20
157.000578
30
0.0
11
50.001675
21
152.997527
31
0.0
0
LINE
8
Layer 1
62
4
5
102
100
AcDbEntity
100
AcDbLine
10
50.001675
20
152.997527
30
0.0
11
69.999200
21
153.001049
31
0.0
0
LINE
8
Layer 1
62
4
5
103
100
AcDbEntity
100
AcDbLine
10
69.999200
20
153.001049
30
0.0
11
69.995579
21
157.000578
31
0.0
0
LINE
8
Layer 1
62
4
5
104
100
AcDbEntity
100
AcDbLine
10
69.995579
20
157.000578
30
0.0
11
90.003116
21
157.000578
31
0.0
0
LINE
8
Layer 1
62
4
5
105
100
AcDbEntity
100
AcDbLine
10
90.003116
20
157.000578
30
0.0
11
89.999199
21
153.001049
31
0.0
0
LINE
8
Layer 1
62
4
5
106
100
AcDbEntity
100
AcDbLine
10
89.999199
20
153.001049
30
0.0
11
109.999232
21
152.997527
31
0.0
0
LINE
8
Layer 1
62
4
5
107
100
AcDbEntity
100
AcDbLine
10
109.999232
20
152.997527
30
0.0
11
109.999232
21
157.000578
31
0.0
0
LINE
8
Layer 1
62
4
5
108
100
AcDbEntity
100
AcDbLine
10
109.999232
20
157.000578
30
0.0
11
150.000569
21
157.000578
31
0.0
0
LINE
8
Layer 1
62
4
5
109
100
AcDbEntity
100
AcDbLine
10
150.000569
20
157.000578
30
0.0
11
149.999198
21
101.001048
31
0.0
0
LINE
8
Layer 1
62
4
5
10a
100
AcDbEntity
100
AcDbLine
10
149.999198
20
101.001048
30
0.0
11
109.999199
21
101.001048
31
0.0
0
LINE
8
Layer 1
62
4
5
10b
100
AcDbEntity
100
AcDbLine
10
109.999199
20
101.001048
30
0.0
11
109.999199
21
105.001049
31
0.0
0
LINE
8
Layer 1
62
4
5
10c
100
AcDbEntity
100
AcDbLine
10
109.999199
20
105.001049
30
0.0
11
89.999199
21
105.001049
31
0.0
0
LINE
8
Layer 1
62
4
5
10d
100
AcDbEntity
100
AcDbLine
10
89.999199
20
105.001049
30
0.0
11
89.999199
21
101.001048
31
0.0
0
LINE
8
Layer 1
62
4
5
10e
100
AcDbEntity
100
AcDbLine
10
89.999199
20
101.001048
30
0.0
11
69.999200
21
101.001048
31
0.0
0
LINE
8
Layer 1
62
4
5
10f
100
AcDbEntity
100
AcDbLine
10
69.999200
20
101.001048
30
0.0
11
69.999200
21
105.001049
31
0.0
0
LINE
8
Layer 1
62
4
5
110
100
AcDbEntity
100
AcDbLine
10
69.999200
20
105.001049
30
0.0
11
49.999197
21
105.001049
31
0.0
0
LINE
8
Layer 1
62
4
5
111
100
AcDbEntity
100
AcDbLine
10
49.999197
20
105.001049
30
0.0
11
49.999197
21
101.001048
31
0.0
0
LINE
8
Layer 1
62
4
5
112
100
AcDbEntity
100
AcDbLine
10
49.999197
20
101.001048
30
0.0
11
6.004659
21
100.998703
31
0.0
0
LINE
8
Layer 1
62
4
5
113
100
AcDbEntity
100
AcDbLine
10
6.004659
20
100.998703
30
0.0
11
6.004659
21
157.000578
31
0.0
0
LINE
8
Layer 1
62
4
5
114
100
AcDbEntity
100
AcDbLine
10
6.004659
20
157.000578
30
0.0
11
6.004659
21
157.000578
31
0.0
0
LINE
8
Layer 1
62
4
5
115
100
AcDbEntity
100
AcDbLine
10
25.996417
20
143.000055
30
0.0
11
29.999398
21
143.000055
31
0.0
0
LINE
8
Layer 1
62
4
5
116
100
AcDbEntity
100
AcDbLine
10
29.999398
20
143.000055
30
0.0
11
29.999398
21
132.996288
31
0.0
0
LINE
8
Layer 1
62
4
5
117
100
AcDbEntity
100
AcDbLine
10
29.999398
20
132.996288
30
0.0
11
25.999197
21
133.001049
31
0.0
0
LINE
8
Layer 1
62
4
5
118
100
AcDbEntity
100
AcDbLine
10
25.999197
20
133.001049
30
0.0
11
25.996417
21
143.000055
31
0.0
0
LINE
8
Layer 1
62
4
5
119
100
AcDbEntity
100
AcDbLine
10
25.996417
20
143.000055
30
0.0
11
25.996417
21
143.000055
31
0.0
0
LINE
8
Layer 1
62
4
5
11a
100
AcDbEntity
100
AcDbLine
10
25.999197
20
123.001049
30
0.0
11
29.999398
21
123.005116
31
0.0
0
LINE
8
Layer 1
62
4
5
11b
100
AcDbEntity
100
AcDbLine
10
29.999398
20
123.005116
30
0.0
11
29.999398
21
113.004496
31
0.0
0
LINE
8
Layer 1
62
4
5
11c
100
AcDbEntity
100
AcDbLine
10
29.999398
20
113.004496
30
0.0
11
25.996417
21
113.004496
31
0.0
0
LINE
8
Layer 1
62
4
5
11d
100
AcDbEntity
100
AcDbLine
10
25.996417
20
113.004496
30
0.0
11
25.999197
21
123.001049
31
0.0
0
LINE
8
Layer 1
62
4
5
11e
100
AcDbEntity
100
AcDbLine
10
25.999197
20
123.001049
30
0.0
11
25.999197
21
123.001049
31
0.0
0
LINE
8
Layer 1
62
4
5
11f
100
AcDbEntity
100
AcDbLine
10
125.999198
20
143.001049
30
0.0
11
129.999901
21
143.000055
31
0.0
0
LINE
8
Layer 1
62
4
5
120
100
AcDbEntity
100
AcDbLine
10
129.999901
20
143.000055
30
0.0
11
129.999901
21
132.996288
31
0.0
0
LINE
8
Layer 1
62
4
5
121
100
AcDbEntity
100
AcDbLine
10
129.999901
20
132.996288
30
0.0
11
125.999198
21
133.001049
31
0.0
0
LINE
8
Layer 1
62
4
5
122
100
AcDbEntity
100
AcDbLine
10
125.999198
20
133.001049
30
0.0
11
125.999198
21
143.001049
31
0.0
0
LINE
8
Layer 1
62
4
5
123
100
AcDbEntity
100
AcDbLine
10
125.999198
20
143.001049
30
0.0
11
125.999198
21
143.001049
31
0.0
0
LINE
8
Layer 1
62
4
5
124
100
AcDbEntity
100
AcDbLine
10
125.999198
20
123.001049
30
0.0
11
129.999901
21
123.005116
31
0.0
0
LINE
8
Layer 1
62
4
5
125
100
AcDbEntity
100
AcDbLine
10
129.999901
20
123.005116
30
0.0
11
129.999198
21
113.001050
31
0.0
0
LINE
8
Layer 1
62
4
5
126
100
AcDbEntity
100
AcDbLine
10
129.999198
20
113.001050
30
0.0
11
125.999768
21
113.004496
31
0.0
0
LINE
8
Layer 1
62
4
5
127
100
AcDbEntity
100
AcDbLine
10
125.999768
20
113.004496
30
0.0
11
125.999198
21
123.001049
31
0.0
0
LINE
8
Layer 1
62
4
5
128
100
AcDbEntity
100
AcDbLine
10
125.999198
20
123.001049
30
0.0
11
125.999198
21
123.001049
31
0.0
0
LINE
8
Layer 1
62
4
5
129
100
AcDbEntity
100
AcDbLine
10
141.995781
20
143.000055
30
0.0
11
141.734927
21
141.995959
31
0.0
0
LINE
8
Layer 1
62
4
5
12a
100
AcDbEntity
100
AcDbLine
10
141.734927
20
141.995959
30
0.0
11
140.995781
21
141.268005
31
0.0
0
LINE
8
Layer 1
62
4
5
12b
100
AcDbEntity
100
AcDbLine
10
140.995781
20
141.268005
30
0.0
11
139.995781
21
140.991862
31
0.0
0
LINE
8
Layer 1
62
4
5
12c
100
AcDbEntity
100
AcDbLine
10
139.995781
20
140.991862
30
0.0
11
138.995781
21
141.268005
31
0.0
0
LINE
8
Layer 1
62
4
5
12d
100
AcDbEntity
100
AcDbLine
10
138.995781
20
141.268005
30
0.0
11
138.256634
21
141.995959
31
0.0
0
LINE
8
Layer 1
62
4
5
12e
100
AcDbEntity
100
AcDbLine
10
138.256634
20
141.995959
30
0.0
11
137.995781
21
143.000055
31
0.0
0
LINE
8
Layer 1
62
4
5
12f
100
AcDbEntity
100
AcDbLine
10
137.995781
20
143.000055
30
0.0
11
138.256635
21
144.004152
31
0.0
0
LINE
8
Layer 1
62
4
5
130
100
AcDbEntity
100
AcDbLine
10
138.256635
20
144.004152
30
0.0
11
138.995781
21
144.732106
31
0.0
0
LINE
8
Layer 1
62
4
5
131
100
AcDbEntity
100
AcDbLine
10
138.995781
20
144.732106
30
0.0
11
139.995781
21
145.008249
31
0.0
0
LINE
8
Layer 1
62
4
5
132
100
AcDbEntity
100
AcDbLine
10
139.995781
20
145.008249
30
0.0
11
140.995781
21
144.732106
31
0.0
0
LINE
8
Layer 1
62
4
5
133
100
AcDbEntity
100
AcDbLine
10
140.995781
20
144.732106
30
0.0
11
141.734927
21
144.004152
31
0.0
0
LINE
8
Layer 1
62
4
5
134
100
AcDbEntity
100
AcDbLine
10
141.734927
20
144.004152
30
0.0
11
141.995781
21
143.000055
31
0.0
0
LINE
8
Layer 1
62
4
5
135
100
AcDbEntity
100
AcDbLine
10
141.995781
20
143.000055
30
0.0
11
141.995781
21
143.000055
31
0.0
0
LINE
8
Layer 1
62
4
5
136
100
AcDbEntity
100
AcDbLine
10
141.995781
20
113.004496
30
0.0
11
141.734927
21
112.000399
31
0.0
0
LINE
8
Layer 1
62
4
5
137
100
AcDbEntity
100
AcDbLine
10
141.734927
20
112.000399
30
0.0
11
140.995781
21
111.272445
31
0.0
0
LINE
8
Layer 1
62
4
5
138
100
AcDbEntity
100
AcDbLine
10
140.995781
20
111.272445
30
0.0
11
139.995781
21
110.996302
31
0.0
0
LINE
8
Layer 1
62
4
5
139
100
AcDbEntity
100
AcDbLine
10
139.995781
20
110.996302
30
0.0
11
138.995781
21
111.272445
31
0.0
0
LINE
8
Layer 1
62
4
5
13a
100
AcDbEntity
100
AcDbLine
10
138.995781
20
111.272445
30
0.0
11
138.256634
21
112.000399
31
0.0
0
LINE
8
Layer 1
62
4
5
13b
100
AcDbEntity
100
AcDbLine
10
138.256634
20
112.000399
30
0.0
11
137.995781
21
113.004496
31
0.0
0
LINE
8
Layer 1
62
4
5
13c
100
AcDbEntity
100
AcDbLine
10
137.995781
20
113.004496
30
0.0
11
138.256635
21
114.008592
31
0.0
0
LINE
8
Layer 1
62
4
5
13d
100
AcDbEntity
100
AcDbLine
10
138.256635
20
114.008592
30
0.0
11
138.995781
21
114.736546
31
0.0
0
LINE
8
Layer 1
62
4
5
13e
100
AcDbEntity
100
AcDbLine
10
138.995781
20
114.736546
30
0.0
11
139.995781
21
115.012689
31
0.0
0
LINE
8
Layer 1
62
4
5
13f
100
AcDbEntity
100
AcDbLine
10
139.995781
20
115.012689
30
0.0
11
140.995781
21
114.736546
31
0.0
0
LINE
8
Layer 1
62
4
5
140
100
AcDbEntity
100
AcDbLine
10
140.995781
20
114.736546
30
0.0
11
141.734927
21
114.008592
31
0.0
0
LINE
8
Layer 1
62
4
5
141
100
AcDbEntity
100
AcDbLine
10
141.734927
20
114.008592
30
0.0
11
141.995781
21
113.004496
31
0.0
0
LINE
8
Layer 1
62
4
5
142
100
AcDbEntity
100
AcDbLine
10
141.995781
20
113.004496
30
0.0
11
141.995781
21
113.004496
31
0.0
0
LINE
8
Layer 1
62
4
5
143
100
AcDbEntity
100
AcDbLine
10
18.018356
20
113.004496
30
0.0
11
17.757502
21
112.000399
31
0.0
0
LINE
8
Layer 1
62
4
5
144
100
AcDbEntity
100
AcDbLine
10
17.757502
20
112.000399
30
0.0
11
17.018356
21
111.272445
31
0.0
0
LINE
8
Layer 1
62
4
5
145
100
AcDbEntity
100
AcDbLine
10
17.018356
20
111.272445
30
0.0
11
16.018356
21
110.996302
31
0.0
0
LINE
8
Layer 1
62
4
5
146
100
AcDbEntity
100
AcDbLine
10
16.018356
20
110.996302
30
0.0
11
15.018356
21
111.272445
31
0.0
0
LINE
8
Layer 1
62
4
5
147
100
AcDbEntity
100
AcDbLine
10
15.018356
20
111.272445
30
0.0
11
14.279210
21
112.000399
31
0.0
0
LINE
8
Layer 1
62
4
5
148
100
AcDbEntity
100
AcDbLine
10
14.279210
20
112.000399
30
0.0
11
14.018356
21
113.004496
31
0.0
0
LINE
8
Layer 1
62
4
5
149
100
AcDbEntity
100
AcDbLine
10
14.018356
20
113.004496
30
0.0
11
14.279210
21
114.008592
31
0.0
0
LINE
8
Layer 1
62
4
5
14a
100
AcDbEntity
100
AcDbLine
10
14.279210
20
114.008592
30
0.0
11
15.018356
21
114.736546
31
0.0
0
LINE
8
Layer 1
62
4
5
14b
100
AcDbEntity
100
AcDbLine
10
15.018356
20
114.736546
30
0.0
11
16.018356
21
115.012689
31
0.0
0
LINE
8
Layer 1
62
4
5
14c
100
AcDbEntity
100
AcDbLine
10
16.018356
20
115.012689
30
0.0
11
17.018356
21
114.736546
31
0.0
0
LINE
8
Layer 1
62
4
5
14d
100
AcDbEntity
100
AcDbLine
10
17.018356
20
114.736546
30
0.0
11
17.757503
21
114.008592
31
0.0
0
LINE
8
Layer 1
62
4
5
14e
100
AcDbEntity
100
AcDbLine
10
17.757503
20
114.008592
30
0.0
11
18.018356
21
113.004496
31
0.0
0
LINE
8
Layer 1
62
4
5
14f
100
AcDbEntity
100
AcDbLine
10
18.018356
20
113.004496
30
0.0
11
18.018356
21
113.004496
31
0.0
0
LINE
8
Layer 1
62
4
5
150
100
AcDbEntity
100
AcDbLine
10
17.999199
20
143.001049
30
0.0
11
17.738345
21
141.996952
31
0.0
0
LINE
8
Layer 1
62
4
5
151
100
AcDbEntity
100
AcDbLine
10
17.738345
20
141.996952
30
0.0
11
16.999199
21
141.268998
31
0.0
0
LINE
8
Layer 1
62
4
5
152
100
AcDbEntity
100
AcDbLine
10
16.999199
20
141.268998
30
0.0
11
15.999199
21
140.992856
31
0.0
0
LINE
8
Layer 1
62
4
5
153
100
AcDbEntity
100
AcDbLine
10
15.999199
20
140.992856
30
0.0
11
14.999199
21
141.268998
31
0.0
0
LINE
8
Layer 1
62
4
5
154
100
AcDbEntity
100
AcDbLine
10
14.999199
20
141.268998
30
0.0
11
14.260053
21
141.996952
31
0.0
0
LINE
8
Layer 1
62
4
5
155
100
AcDbEntity
100
AcDbLine
10
14.260053
20
141.996952
30
0.0
11
13.999199
21
143.001049
31
0.0
0
LINE
8
Layer 1
62
4
5
156
100
AcDbEntity
100
AcDbLine
10
13.999199
20
143.001049
30
0.0
11
14.260053
21
144.005145
31
0.0
0
LINE
8
Layer 1
62
4
5
157
100
AcDbEntity
100
AcDbLine
10
14.260053
20
144.005145
30
0.0
11
14.999199
21
144.733100
31
0.0
0
LINE
8
Layer 1
62
4
5
158
100
AcDbEntity
100
AcDbLine
10
14.999199
20
144.733100
30
0.0
11
15.999199
21
145.009242
31
0.0
0
LINE
8
Layer 1
62
4
5
159
100
AcDbEntity
100
AcDbLine
10
15.999199
20
145.009242
30
0.0
11
16.999199
21
144.733100
31
0.0
0
LINE
8
Layer 1
62
4
5
15a
100
AcDbEntity
100
AcDbLine
10
16.999199
20
144.733100
30
0.0
11
17.738345
21
144.005145
31
0.0
0
LINE
8
Layer 1
62
4
5
15b
100
AcDbEntity
100
AcDbLine
10
17.738345
20
144.005145
30
0.0
11
17.999199
21
143.001049
31
0.0
0
LINE
8
Layer 1
62
4
5
15c
100
AcDbEntity
100
AcDbLine
10
17.999199
20
143.001049
30
0.0
11
17.999199
21
143.001049
31
0.0
0
LINE
8
Layer 1
62
4
5
15d
100
AcDbEntity
100
AcDbLine
10
26.000518
20
50.045146
30
0.0
11
26.000518
21
46.005840
31
0.0
0
LINE
8
Layer 1
62
4
5
15e
100
AcDbEntity
100
AcDbLine
10
26.000518
20
46.005840
30
0.0
11
5.998018
21
46.005840
31
0.0
0
LINE
8
Layer 1
62
4
5
15f
100
AcDbEntity
100
AcDbLine
10
5.998018
20
46.005840
30
0.0
11
5.998018
21
30.007368
31
0.0
0
LINE
8
Layer 1
62
4
5
160
100
AcDbEntity
100
AcDbLine
10
5.998018
20
30.007368
30
0.0
11
20.003296
21
30.007368
31
0.0
0
LINE
8
Layer 1
62
4
5
161
100
AcDbEntity
100
AcDbLine
10
20.003296
20
30.007368
30
0.0
11
20.003296
21
40.008618
31
0.0
0
LINE
8
Layer 1
62
4
5
162
100
AcDbEntity
100
AcDbLine
10
20.003296
20
40.008618
30
0.0
11
42.007810
21
40.008618
31
0.0
0
LINE
8
Layer 1
62
4
5
163
100
AcDbEntity
100
AcDbLine
10
42.007810
20
40.008618
30
0.0
11
42.007810
21
30.007368
31
0.0
0
LINE
8
Layer 1
62
4
5
164
100
AcDbEntity
100
AcDbLine
10
42.007810
20
30.007368
30
0.0
11
52.009060
21
30.007368
31
0.0
0
LINE
8
Layer 1
62
4
5
165
100
AcDbEntity
100
AcDbLine
10
52.009060
20
30.007368
30
0.0
11
52.009060
21
40.008618
31
0.0
0
LINE
8
Layer 1
62
4
5
166
100
AcDbEntity
100
AcDbLine
10
52.009060
20
40.008618
30
0.0
11
66.005518
21
40.008618
31
0.0
0
LINE
8
Layer 1
62
4
5
167
100
AcDbEntity
100
AcDbLine
10
66.005518
20
40.008618
30
0.0
11
66.005518
21
30.007368
31
0.0
0
LINE
8
Layer 1
62
4
5
168
100
AcDbEntity
100
AcDbLine
10
66.005518
20
30.007368
30
0.0
11
77.003365
21
30.007368
31
0.0
0
LINE
8
Layer 1
62
4
5
169
100
AcDbEntity
100
AcDbLine
10
77.003365
20
30.007368
30
0.0
11
77.003365
21
40.008618
31
0.0
0
LINE
8
Layer 1
62
4
5
16a
100
AcDbEntity
100
AcDbLine
10
77.003365
20
40.008618
30
0.0
11
85.002601
21
40.008618
31
0.0
0
LINE
8
Layer 1
62
4
5
16b
100
AcDbEntity
100
AcDbLine
10
85.002601
20
40.008618
30
0.0
11
85.002601
21
30.007368
31
0.0
0
LINE
8
Layer 1
62
4
5
16c
100
AcDbEntity
100
AcDbLine
10
85.002601
20
30.007368
30
0.0
11
101.997671
21
30.007368
31
0.0
0
LINE
8
Layer 1
62
4
5
16d
100
AcDbEntity
100
AcDbLine
10
101.997671
20
30.007368
30
0.0
11
101.997671
21
46.005840
31
0.0
0
LINE
8
Layer 1
62
4
5
16e
100
AcDbEntity
100
AcDbLine
10
101.997671
20
46.005840
30
0.0
11
85.999199
21
46.005840
31
0.0
0
LINE
8
Layer 1
62
4
5
16f
100
AcDbEntity
100
AcDbLine
10
85.999199
20
46.005840
30
0.0
11
85.999199
21
50.001049
31
0.0
0
LINE
8
Layer 1
62
4
5
170
100
AcDbEntity
100
AcDbLine
10
85.999199
20
50.001049
30
0.0
11
66.005518
21
50.001049
31
0.0
0
LINE
8
Layer 1
62
4
5
171
100
AcDbEntity
100
AcDbLine
10
66.005518
20
50.001049
30
0.0
11
66.005518
21
46.005840
31
0.0
0
LINE
8
Layer 1
62
4
5
172
100
AcDbEntity
100
AcDbLine
10
66.005518
20
46.005840
30
0.0
11
46.003018
21
46.005840
31
0.0
0
LINE
8
Layer 1
62
4
5
173
100
AcDbEntity
100
AcDbLine
10
46.003018
20
46.005840
30
0.0
11
46.003018
21
50.001049
31
0.0
0
LINE
8
Layer 1
62
4
5
174
100
AcDbEntity
100
AcDbLine
10
46.003018
20
50.001049
30
0.0
11
26.000518
21
50.045146
31
0.0
0
LINE
8
Layer 1
62
4
5
175
100
AcDbEntity
100
AcDbLine
10
26.000518
20
50.045146
30
0.0
11
26.000518
21
50.045146
31
0.0
0
LINE
8
Layer 1
62
4
5
176
100
AcDbEntity
100
AcDbLine
10
5.996697
20
29.008341
30
0.0
11
5.996697
21
13.001046
31
0.0
0
LINE
8
Layer 1
62
4
5
177
100
AcDbEntity
100
AcDbLine
10
5.996697
20
13.001046
30
0.0
11
25.999197
21
13.001046
31
0.0
0
LINE
8
Layer 1
62
4
5
178
100
AcDbEntity
100
AcDbLine
10
25.999197
20
13.001046
30
0.0
11
25.999197
21
9.005852
31
0.0
0
LINE
8
Layer 1
62
4
5
179
100
AcDbEntity
100
AcDbLine
10
25.999197
20
9.005852
30
0.0
11
46.001697
21
9.005852
31
0.0
0
LINE
8
Layer 1
62
4
5
17a
100
AcDbEntity
100
AcDbLine
10
46.001697
20
9.005852
30
0.0
11
46.001697
21
13.009880
31
0.0
0
LINE
8
Layer 1
62
4
5
17b
100
AcDbEntity
100
AcDbLine
10
46.001697
20
13.009880
30
0.0
11
66.004197
21
13.009880
31
0.0
0
LINE
8
Layer 1
62
4
5
17c
100
AcDbEntity
100
AcDbLine
10
66.004197
20
13.009880
30
0.0
11
66.004197
21
9.005852
31
0.0
0
LINE
8
Layer 1
62
4
5
17d
100
AcDbEntity
100
AcDbLine
10
66.004197
20
9.005852
30
0.0
11
85.997878
21
9.005852
31
0.0
0
LINE
8
Layer 1
62
4
5
17e
100
AcDbEntity
100
AcDbLine
10
85.997878
20
9.005852
30
0.0
11
85.997878
21
13.009880
31
0.0
0
LINE
8
Layer 1
62
4
5
17f
100
AcDbEntity
100
AcDbLine
10
85.997878
20
13.009880
30
0.0
11
101.996350
21
13.009880
31
0.0
0
LINE
8
Layer 1
62
4
5
180
100
AcDbEntity
100
AcDbLine
10
101.996350
20
13.009880
30
0.0
11
101.996350
21
29.008341
31
0.0
0
LINE
8
Layer 1
62
4
5
181
100
AcDbEntity
100
AcDbLine
10
101.996350
20
29.008341
30
0.0
11
82.002670
21
29.008341
31
0.0
0
LINE
8
Layer 1
62
4
5
182
100
AcDbEntity
100
AcDbLine
10
82.002670
20
29.008341
30
0.0
11
82.002670
21
19.007091
31
0.0
0
LINE
8
Layer 1
62
4
5
183
100
AcDbEntity
100
AcDbLine
10
82.002670
20
19.007091
30
0.0
11
66.004197
21
19.007091
31
0.0
0
LINE
8
Layer 1
62
4
5
184
100
AcDbEntity
100
AcDbLine
10
66.004197
20
19.007091
30
0.0
11
66.004197
21
29.008341
31
0.0
0
LINE
8
Layer 1
62
4
5
185
100
AcDbEntity
100
AcDbLine
10
66.004197
20
29.008341
30
0.0
11
55.006350
21
29.008341
31
0.0
0
LINE
8
Layer 1
62
4
5
186
100
AcDbEntity
100
AcDbLine
10
55.006350
20
29.008341
30
0.0
11
55.006350
21
19.007091
31
0.0
0
LINE
8
Layer 1
62
4
5
187
100
AcDbEntity
100
AcDbLine
10
55.006350
20
19.007091
30
0.0
11
39.007878
21
19.007091
31
0.0
0
LINE
8
Layer 1
62
4
5
188
100
AcDbEntity
100
AcDbLine
10
39.007878
20
19.007091
30
0.0
11
39.007878
21
29.008341
31
0.0
0
LINE
8
Layer 1
62
4
5
189
100
AcDbEntity
100
AcDbLine
10
39.007878
20
29.008341
30
0.0
11
32.005239
21
29.008341
31
0.0
0
LINE
8
Layer 1
62
4
5
18a
100
AcDbEntity
100
AcDbLine
10
32.005239
20
29.008341
30
0.0
11
32.005239
21
19.007091
31
0.0
0
LINE
8
Layer 1
62
4
5
18b
100
AcDbEntity
100
AcDbLine
10
32.005239
20
19.007091
30
0.0
11
30.003225
21
19.007091
31
0.0
0
LINE
8
Layer 1
62
4
5
18c
100
AcDbEntity
100
AcDbLine
10
30.003225
20
19.007091
30
0.0
11
16.006767
21
19.007091
31
0.0
0
LINE
8
Layer 1
62
4
5
18d
100
AcDbEntity
100
AcDbLine
10
16.006767
20
19.007091
30
0.0
11
16.006767
21
29.008341
31
0.0
0
LINE
8
Layer 1
62
4
5
18e
100
AcDbEntity
100
AcDbLine
10
16.006767
20
29.008341
30
0.0
11
5.996697
21
29.008341
31
0.0
0
LINE
8
Layer 1
62
4
5
18f
100
AcDbEntity
100
AcDbLine
10
5.996697
20
29.008341
30
0.0
11
5.996697
21
29.008341
31
0.0
0
LINE
8
Layer 1
62
4
5
190
100
AcDbEntity
100
AcDbLine
10
5.994823
20
100.002021
30
0.0
11
5.994823
21
51.997785
31
0.0
0
LINE
8
Layer 1
62
4
5
191
100
AcDbEntity
100
AcDbLine
10
5.994823
20
51.997785
30
0.0
11
17.998087
21
51.997785
31
0.0
0
LINE
8
Layer 1
62
4
5
192
100
AcDbEntity
100
AcDbLine
10
17.998087
20
51.997785
30
0.0
11
17.998087
21
64.001049
31
0.0
0
LINE
8
Layer 1
62
4
5
193
100
AcDbEntity
100
AcDbLine
10
17.998087
20
64.001049
30
0.0
11
33.996559
21
64.001049
31
0.0
0
LINE
8
Layer 1
62
4
5
194
100
AcDbEntity
100
AcDbLine
10
33.996559
20
64.001049
30
0.0
11
33.996559
21
51.997785
31
0.0
0
LINE
8
Layer 1
62
4
5
195
100
AcDbEntity
100
AcDbLine
10
33.996559
20
51.997785
30
0.0
11
40.999198
21
51.997785
31
0.0
0
LINE
8
Layer 1
62
4
5
196
100
AcDbEntity
100
AcDbLine
10
40.999198
20
51.997785
30
0.0
11
40.999198
21
64.001049
31
0.0
0
LINE
8
Layer 1
62
4
5
197
100
AcDbEntity
100
AcDbLine
10
40.999198
20
64.001049
30
0.0
11
56.997671
21
64.001049
31
0.0
0
LINE
8
Layer 1
62
4
5
198
100
AcDbEntity
100
AcDbLine
10
56.997671
20
64.001049
30
0.0
11
56.997671
21
51.997785
31
0.0
0
LINE
8
Layer 1
62
4
5
199
100
AcDbEntity
100
AcDbLine
10
56.997671
20
51.997785
30
0.0
11
67.995518
21
51.997785
31
0.0
0
LINE
8
Layer 1
62
4
5
19a
100
AcDbEntity
100
AcDbLine
10
67.995518
20
51.997785
30
0.0
11
67.995518
21
64.001049
31
0.0
0
LINE
8
Layer 1
62
4
5
19b
100
AcDbEntity
100
AcDbLine
10
67.995518
20
64.001049
30
0.0
11
83.993990
21
64.001049
31
0.0
0
LINE
8
Layer 1
62
4
5
19c
100
AcDbEntity
100
AcDbLine
10
83.993990
20
64.001049
30
0.0
11
83.993990
21
51.997785
31
0.0
0
LINE
8
Layer 1
62
4
5
19d
100
AcDbEntity
100
AcDbLine
10
83.993990
20
51.997785
30
0.0
11
101.994476
21
51.997785
31
0.0
0
LINE
8
Layer 1
62
4
5
19e
100
AcDbEntity
100
AcDbLine
10
101.994476
20
51.997785
30
0.0
11
101.994476
21
60.005841
31
0.0
0
LINE
8
Layer 1
62
4
5
19f
100
AcDbEntity
100
AcDbLine
10
101.994476
20
60.005841
30
0.0
11
105.998504
21
60.005841
31
0.0
0
LINE
8
Layer 1
62
4
5
1a0
100
AcDbEntity
100
AcDbLine
10
105.998504
20
60.005841
30
0.0
11
105.998504
21
64.001049
31
0.0
0
LINE
8
Layer 1
62
4
5
1a1
100
AcDbEntity
100
AcDbLine
10
105.998504
20
64.001049
30
0.0
11
101.994476
21
64.001049
31
0.0
0
LINE
8
Layer 1
62
4
5
1a2
100
AcDbEntity
100
AcDbLine
10
101.994476
20
64.001049
30
0.0
11
101.994476
21
86.005563
31
0.0
0
LINE
8
Layer 1
62
4
5
1a3
100
AcDbEntity
100
AcDbLine
10
101.994476
20
86.005563
30
0.0
11
105.998504
21
86.005563
31
0.0
0
LINE
8
Layer 1
62
4
5
1a4
100
AcDbEntity
100
AcDbLine
10
105.998504
20
86.005563
30
0.0
11
105.998504
21
90.000771
31
0.0
0
LINE
8
Layer 1
62
4
5
1a5
100
AcDbEntity
100
AcDbLine
10
105.998504
20
90.000771
30
0.0
11
101.994476
21
90.000771
31
0.0
0
LINE
8
Layer 1
62
4
5
1a6
100
AcDbEntity
100
AcDbLine
10
101.994476
20
90.000771
30
0.0
11
101.994476
21
100.002021
31
0.0
0
LINE
8
Layer 1
62
4
5
1a7
100
AcDbEntity
100
AcDbLine
10
101.994476
20
100.002021
30
0.0
11
95.997254
21
100.002021
31
0.0
0
LINE
8
Layer 1
62
4
5
1a8
100
AcDbEntity
100
AcDbLine
10
95.997254
20
100.002021
30
0.0
11
95.997254
21
94.004799
31
0.0
0
LINE
8
Layer 1
62
4
5
1a9
100
AcDbEntity
100
AcDbLine
10
95.997254
20
94.004799
30
0.0
11
86.992601
21
94.004799
31
0.0
0
LINE
8
Layer 1
62
4
5
1aa
100
AcDbEntity
100
AcDbLine
10
86.992601
20
94.004799
30
0.0
11
86.992601
21
87.002160
31
0.0
0
LINE
8
Layer 1
62
4
5
1ab
100
AcDbEntity
100
AcDbLine
10
86.992601
20
87.002160
30
0.0
11
78.993365
21
87.002160
31
0.0
0
LINE
8
Layer 1
62
4
5
1ac
100
AcDbEntity
100
AcDbLine
10
78.993365
20
87.002160
30
0.0
11
78.993365
21
92.002785
31
0.0
0
LINE
8
Layer 1
62
4
5
1ad
100
AcDbEntity
100
AcDbLine
10
78.993365
20
92.002785
30
0.0
11
67.995518
21
92.002785
31
0.0
0
LINE
8
Layer 1
62
4
5
1ae
100
AcDbEntity
100
AcDbLine
10
67.995518
20
92.002785
30
0.0
11
67.995518
21
87.002160
31
0.0
0
LINE
8
Layer 1
62
4
5
1af
100
AcDbEntity
100
AcDbLine
10
67.995518
20
87.002160
30
0.0
11
53.999059
21
87.002160
31
0.0
0
LINE
8
Layer 1
62
4
5
1b0
100
AcDbEntity
100
AcDbLine
10
53.999059
20
87.002160
30
0.0
11
53.999059
21
94.004799
31
0.0
0
LINE
8
Layer 1
62
4
5
1b1
100
AcDbEntity
100
AcDbLine
10
53.999059
20
94.004799
30
0.0
11
48.998434
21
94.004799
31
0.0
0
LINE
8
Layer 1
62
4
5
1b2
100
AcDbEntity
100
AcDbLine
10
48.998434
20
94.004799
30
0.0
11
48.998434
21
85.000146
31
0.0
0
LINE
8
Layer 1
62
4
5
1b3
100
AcDbEntity
100
AcDbLine
10
48.998434
20
85.000146
30
0.0
11
43.997809
21
85.000146
31
0.0
0
LINE
8
Layer 1
62
4
5
1b4
100
AcDbEntity
100
AcDbLine
10
43.997809
20
85.000146
30
0.0
11
43.997809
21
81.004938
31
0.0
0
LINE
8
Layer 1
62
4
5
1b5
100
AcDbEntity
100
AcDbLine
10
43.997809
20
81.004938
30
0.0
11
31.994546
21
81.004938
31
0.0
0
LINE
8
Layer 1
62
4
5
1b6
100
AcDbEntity
100
AcDbLine
10
31.994546
20
81.004938
30
0.0
11
31.994546
21
87.002160
31
0.0
0
LINE
8
Layer 1
62
4
5
1b7
100
AcDbEntity
100
AcDbLine
10
31.994546
20
87.002160
30
0.0
11
21.993296
21
87.002160
31
0.0
0
LINE
8
Layer 1
62
4
5
1b8
100
AcDbEntity
100
AcDbLine
10
21.993296
20
87.002160
30
0.0
11
21.993296
21
100.002021
31
0.0
0
LINE
8
Layer 1
62
4
5
1b9
100
AcDbEntity
100
AcDbLine
10
21.993296
20
100.002021
30
0.0
11
5.994823
21
100.002021
31
0.0
0
LINE
8
Layer 1
62
4
5
1ba
100
AcDbEntity
100
AcDbLine
10
5.994823
20
100.002021
30
0.0
11
5.994823
21
100.002021
31
0.0
0
LINE
8
Layer 1
62
4
5
1bb
100
AcDbEntity
100
AcDbLine
10
45.996005
20
75.001481
30
0.0
11
45.896150
21
74.207207
31
0.0
0
LINE
8
Layer 1
62
4
5
1bc
100
AcDbEntity
100
AcDbLine
10
45.896150
20
74.207207
30
0.0
11
45.604725
21
73.495336
31
0.0
0
LINE
8
Layer 1
62
4
5
1bd
100
AcDbEntity
100
AcDbLine
10
45.604725
20
73.495336
30
0.0
11
45.133940
21
72.887020
31
0.0
0
LINE
8
Layer 1
62
4
5
1be
100
AcDbEntity
100
AcDbLine
10
45.133940
20
72.887020
30
0.0
11
44.496005
21
72.403405
31
0.0
0
LINE
8
Layer 1
62
4
5
1bf
100
AcDbEntity
100
AcDbLine
10
44.496005
20
72.403405
30
0.0
11
43.758216
21
72.092745
31
0.0
0
LINE
8
Layer 1
62
4
5
1c0
100
AcDbEntity
100
AcDbLine
10
43.758216
20
72.092745
30
0.0
11
42.996005
21
71.989192
31
0.0
0
LINE
8
Layer 1
62
4
5
1c1
100
AcDbEntity
100
AcDbLine
10
42.996005
20
71.989192
30
0.0
11
42.233795
21
72.092745
31
0.0
0
LINE
8
Layer 1
62
4
5
1c2
100
AcDbEntity
100
AcDbLine
10
42.233795
20
72.092745
30
0.0
11
41.496005
21
72.403405
31
0.0
0
LINE
8
Layer 1
62
4
5
1c3
100
AcDbEntity
100
AcDbLine
10
41.496005
20
72.403405
30
0.0
11
40.858071
21
72.887020
31
0.0
0
LINE
8
Layer 1
62
4
5
1c4
100
AcDbEntity
100
AcDbLine
10
40.858071
20
72.887020
30
0.0
11
40.387286
21
73.495336
31
0.0
0
LINE
8
Layer 1
62
4
5
1c5
100
AcDbEntity
100
AcDbLine
10
40.387286
20
73.495336
30
0.0
11
40.095862
21
74.207207
31
0.0
0
LINE
8
Layer 1
62
4
5
1c6
100
AcDbEntity
100
AcDbLine
10
40.095862
20
74.207207
30
0.0
11
39.996009
21
75.001481
31
0.0
0
LINE
8
Layer 1
62
4
5
1c7
100
AcDbEntity
100
AcDbLine
10
39.996009
20
75.001481
30
0.0
11
40.095865
21
75.795756
31
0.0
0
LINE
8
Layer 1
62
4
5
1c8
100
AcDbEntity
100
AcDbLine
10
40.095865
20
75.795756
30
0.0
11
40.387290
21
76.507626
31
0.0
0
LINE
8
Layer 1
62
4
5
1c9
100
AcDbEntity
100
AcDbLine
10
40.387290
20
76.507626
30
0.0
11
40.858075
21
77.115943
31
0.0
0
LINE
8
Layer 1
62
4
5
1ca
100
AcDbEntity
100
AcDbLine
10
40.858075
20
77.115943
30
0.0
11
41.496009
21
77.599557
31
0.0
0
LINE
8
Layer 1
62
4
5
1cb
100
AcDbEntity
100
AcDbLine
10
41.496009
20
77.599557
30
0.0
11
42.233799
21
77.910218
31
0.0
0
LINE
8
Layer 1
62
4
5
1cc
100
AcDbEntity
100
AcDbLine
10
42.233799
20
77.910218
30
0.0
11
42.996009
21
78.013771
31
0.0
0
LINE
8
Layer 1
62
4
5
1cd
100
AcDbEntity
100
AcDbLine
10
42.996009
20
78.013771
30
0.0
11
43.758220
21
77.910218
31
0.0
0
LINE
8
Layer 1
62
4
5
1ce
100
AcDbEntity
100
AcDbLine
10
43.758220
20
77.910218
30
0.0
11
44.496009
21
77.599557
31
0.0
0
LINE
8
Layer 1
62
4
5
1cf
100
AcDbEntity
100
AcDbLine
10
44.496009
20
77.599557
30
0.0
11
45.133944
21
77.115943
31
0.0
0
LINE
8
Layer 1
62
4
5
1d0
100
AcDbEntity
100
AcDbLine
10
45.133944
20
77.115943
30
0.0
11
45.604729
21
76.507626
31
0.0
0
LINE
8
Layer 1
62
4
5
1d1
100
AcDbEntity
100
AcDbLine
10
45.604729
20
76.507626
30
0.0
11
45.896154
21
75.795756
31
0.0
0
LINE
8
Layer 1
62
4
5
1d2
100
AcDbEntity
100
AcDbLine
10
45.896154
20
75.795756
30
0.0
11
45.996009
21
75.001481
31
0.0
0
LINE
8
Layer 1
62
4
5
1d3
100
AcDbEntity
100
AcDbLine
10
45.996009
20
75.001481
30
0.0
11
45.996013
21
75.001481
31
0.0
0
LINE
8
Layer 1
62
4
5
1d4
100
AcDbEntity
100
AcDbLine
10
56.996025
20
79.001482
30
0.0
11
67.996003
21
79.001482
31
0.0
0
LINE
8
Layer 1
62
4
5
1d5
100
AcDbEntity
100
AcDbLine
10
67.996003
20
79.001482
30
0.0
11
67.996003
21
83.001482
31
0.0
0
LINE
8
Layer 1
62
4
5
1d6
100
AcDbEntity
100
AcDbLine
10
67.996003
20
83.001482
30
0.0
11
56.996025
21
83.001482
31
0.0
0
LINE
8
Layer 1
62
4
5
1d7
100
AcDbEntity
100
AcDbLine
10
56.996025
20
83.001482
30
0.0
11
56.996025
21
79.001482
31
0.0
0
LINE
8
Layer 1
62
4
5
1d8
100
AcDbEntity
100
AcDbLine
10
56.996025
20
79.001482
30
0.0
11
56.996025
21
79.001482
31
0.0
0
LINE
8
Layer 1
62
4
5
1d9
100
AcDbEntity
100
AcDbLine
10
54.496002
20
79.001483
30
0.0
11
54.413228
21
78.339195
31
0.0
0
LINE
8
Layer 1
62
4
5
1da
100
AcDbEntity
100
AcDbLine
10
54.413228
20
78.339195
30
0.0
11
54.170602
21
77.745526
31
0.0
0
LINE
8
Layer 1
62
4
5
1db
100
AcDbEntity
100
AcDbLine
10
54.170602
20
77.745526
30
0.0
11
53.778320
21
77.238156
31
0.0
0
LINE
8
Layer 1
62
4
5
1dc
100
AcDbEntity
100
AcDbLine
10
53.778320
20
77.238156
30
0.0
11
53.246577
21
76.834763
31
0.0
0
LINE
8
Layer 1
62
4
5
1dd
100
AcDbEntity
100
AcDbLine
10
53.246577
20
76.834763
30
0.0
11
52.631493
21
76.575630
31
0.0
0
LINE
8
Layer 1
62
4
5
1de
100
AcDbEntity
100
AcDbLine
10
52.631493
20
76.575630
30
0.0
11
51.996003
21
76.489252
31
0.0
0
LINE
8
Layer 1
62
4
5
1df
100
AcDbEntity
100
AcDbLine
10
51.996003
20
76.489252
30
0.0
11
51.360512
21
76.575630
31
0.0
0
LINE
8
Layer 1
62
4
5
1e0
100
AcDbEntity
100
AcDbLine
10
51.360512
20
76.575630
30
0.0
11
50.745429
21
76.834763
31
0.0
0
LINE
8
Layer 1
62
4
5
1e1
100
AcDbEntity
100
AcDbLine
10
50.745429
20
76.834763
30
0.0
11
50.213685
21
77.238156
31
0.0
0
LINE
8
Layer 1
62
4
5
1e2
100
AcDbEntity
100
AcDbLine
10
50.213685
20
77.238156
30
0.0
11
49.821403
21
77.745526
31
0.0
0
LINE
8
Layer 1
62
4
5
1e3
100
AcDbEntity
100
AcDbLine
10
49.821403
20
77.745526
30
0.0
11
49.578778
21
78.339195
31
0.0
0
LINE
8
Layer 1
62
4
5
1e4
100
AcDbEntity
100
AcDbLine
10
49.578778
20
78.339195
30
0.0
11
49.496004
21
79.001483
31
0.0
0
LINE
8
Layer 1
62
4
5
1e5
100
AcDbEntity
100
AcDbLine
10
49.496004
20
79.001483
30
0.0
11
49.578778
21
79.663771
31
0.0
0
LINE
8
Layer 1
62
4
5
1e6
100
AcDbEntity
100
AcDbLine
10
49.578778
20
79.663771
30
0.0
11
49.821403
21
80.257440
31
0.0
0
LINE
8
Layer 1
62
4
5
1e7
100
AcDbEntity
100
AcDbLine
10
49.821403
20
80.257440
30
0.0
11
50.213685
21
80.764810
31
0.0
0
LINE
8
Layer 1
62
4
5
1e8
100
AcDbEntity
100
AcDbLine
10
50.213685
20
80.764810
30
0.0
11
50.745429
21
81.168203
31
0.0
0
LINE
8
Layer 1
62
4
5
1e9
100
AcDbEntity
100
AcDbLine
10
50.745429
20
81.168203
30
0.0
11
51.360512
21
81.427336
31
0.0
0
LINE
8
Layer 1
62
4
5
1ea
100
AcDbEntity
100
AcDbLine
10
51.360512
20
81.427336
30
0.0
11
51.996003
21
81.513714
31
0.0
0
LINE
8
Layer 1
62
4
5
1eb
100
AcDbEntity
100
AcDbLine
10
51.996003
20
81.513714
30
0.0
11
52.631493
21
81.427336
31
0.0
0
LINE
8
Layer 1
62
4
5
1ec
100
AcDbEntity
100
AcDbLine
10
52.631493
20
81.427336
30
0.0
11
53.246577
21
81.168203
31
0.0
0
LINE
8
Layer 1
62
4
5
1ed
100
AcDbEntity
100
AcDbLine
10
53.246577
20
81.168203
30
0.0
11
53.778320
21
80.764810
31
0.0
0
LINE
8
Layer 1
62
4
5
1ee
100
AcDbEntity
100
AcDbLine
10
53.778320
20
80.764810
30
0.0
11
54.170602
21
80.257440
31
0.0
0
LINE
8
Layer 1
62
4
5
1ef
100
AcDbEntity
100
AcDbLine
10
54.170602
20
80.257440
30
0.0
11
54.413228
21
79.663771
31
0.0
0
LINE
8
Layer 1
62
4
5
1f0
100
AcDbEntity
100
AcDbLine
10
54.413228
20
79.663771
30
0.0
11
54.496002
21
79.001483
31
0.0
0
LINE
8
Layer 1
62
4
5
1f1
100
AcDbEntity
100
AcDbLine
10
54.496002
20
79.001483
30
0.0
11
54.496002
21
79.001483
31
0.0
0
LINE
8
text
62
4
5
1f2
100
AcDbEntity
100
AcDbLine
10
124.999214
20
100.001047
30
0.0
11
140.999210
21
100.001047
31
0.0
0
LINE
8
text
62
4
5
1f3
100
AcDbEntity
100
AcDbLine
10
140.999210
20
100.001047
30
0.0
11
140.999210
21
86.000054
31
0.0
0
LINE
8
text
62
4
5
1f4
100
AcDbEntity
100
AcDbLine
10
140.999210
20
86.000054
30
0.0
11
145.002673
21
86.000054
31
0.0
0
LINE
8
text
62
4
5
1f5
100
AcDbEntity
100
AcDbLine
10
145.002673
20
86.000054
30
0.0
11
145.002673
21
75.996286
31
0.0
0
LINE
8
text
62
4
5
1f6
100
AcDbEntity
100
AcDbLine
10
145.002673
20
75.996286
30
0.0
11
140.999210
21
76.001047
31
0.0
0
LINE
8
text
62
4
5
1f7
100
AcDbEntity
100
AcDbLine
10
140.999210
20
76.001047
30
0.0
11
140.999210
21
66.001048
31
0.0
0
LINE
8
text
62
4
5
1f8
100
AcDbEntity
100
AcDbLine
10
140.999210
20
66.001048
30
0.0
11
144.999202
21
66.001048
31
0.0
0
LINE
8
text
62
4
5
1f9
100
AcDbEntity
100
AcDbLine
10
144.999202
20
66.001048
30
0.0
11
144.999202
21
56.001048
31
0.0
0
LINE
8
text
62
4
5
1fa
100
AcDbEntity
100
AcDbLine
10
144.999202
20
56.001048
30
0.0
11
140.999210
21
56.001048
31
0.0
0
LINE
8
text
62
4
5
1fb
100
AcDbEntity
100
AcDbLine
10
140.999210
20
56.001048
30
0.0
11
140.999210
21
43.998701
31
0.0
0
LINE
8
text
62
4
5
1fc
100
AcDbEntity
100
AcDbLine
10
140.999210
20
43.998701
30
0.0
11
124.999214
21
44.001047
31
0.0
0
LINE
8
text
62
4
5
1fd
100
AcDbEntity
100
AcDbLine
10
124.999214
20
44.001047
30
0.0
11
124.999214
21
100.001047
31
0.0
0
LINE
8
text
62
4
5
1fe
100
AcDbEntity
100
AcDbLine
10
124.999214
20
100.001047
30
0.0
11
124.999214
21
100.001047
31
0.0
0
LINE
8
text
62
4
5
1ff
100
AcDbEntity
100
AcDbLine
10
104.140443
20
78.858945
30
0.0
11
108.140311
21
78.859939
31
0.0
0
LINE
8
text
62
4
5
200
100
AcDbEntity
100
AcDbLine
10
108.140311
20
78.859939
30
0.0
11
108.140311
21
92.859939
31
0.0
0
LINE
8
text
62
4
5
201
100
AcDbEntity
100
AcDbLine
10
108.140311
20
92.859939
30
0.0
11
124.140324
21
92.859939
31
0.0
0
LINE
8
text
62
4
5
202
100
AcDbEntity
100
AcDbLine
10
124.140324
20
92.859939
30
0.0
11
124.136232
21
36.857593
31
0.0
0
LINE
8
text
62
4
5
203
100
AcDbEntity
100
AcDbLine
10
124.136232
20
36.857593
30
0.0
11
108.145032
21
36.857593
31
0.0
0
LINE
8
text
62
4
5
204
100
AcDbEntity
100
AcDbLine
10
108.145032
20
36.857593
30
0.0
11
108.140311
21
48.859940
31
0.0
0
LINE
8
text
62
4
5
205
100
AcDbEntity
100
AcDbLine
10
108.140311
20
48.859940
30
0.0
11
104.140443
21
48.863385
31
0.0
0
LINE
8
text
62
4
5
206
100
AcDbEntity
100
AcDbLine
10
104.140443
20
48.863385
30
0.0
11
104.140443
21
58.864006
31
0.0
0
LINE
8
text
62
4
5
207
100
AcDbEntity
100
AcDbLine
10
104.140443
20
58.864006
30
0.0
11
108.145032
21
58.864006
31
0.0
0
LINE
8
text
62
4
5
208
100
AcDbEntity
100
AcDbLine
10
108.145032
20
58.864006
30
0.0
11
108.145032
21
68.855178
31
0.0
0
LINE
8
text
62
4
5
209
100
AcDbEntity
100
AcDbLine
10
108.145032
20
68.855178
30
0.0
11
104.140310
21
68.859939
31
0.0
0
LINE
8
text
62
4
5
20a
100
AcDbEntity
100
AcDbLine
10
104.140310
20
68.859939
30
0.0
11
104.140443
21
78.858945
31
0.0
0
LINE
8
text
62
4
5
20b
100
AcDbEntity
100
AcDbLine
10
104.140443
20
78.858945
30
0.0
11
104.140443
21
78.858945
31
0.0
  0
ENDSEC
  0
SECTION
  2
OBJECTS
  0
DICTIONARY
  5
C
330
0
100
AcDbDictionary
  3
ACAD_GROUP
350
D
  3
ACAD_MLINESTYLE
350
17
  0
DICTIONARY
  5
D
330
C
100
AcDbDictionary
  0
DICTIONARY
  5
1A
330
C
100
AcDbDictionary
  0
DICTIONARY
  5
17
330
C
100
AcDbDictionary
  3
STANDARD
350
18
  0
DICTIONARY
  5
19
330
C
100
AcDbDictionary
  0
ENDSEC
  0
EOF
