999
Inkscape export via "Better Better DXF Output" (http://tim.cexx.org/?p=590)
  0
SECTION
  2
HEADER
  9
$ACADVER
  1
AC1014
  9
$HANDSEED
  5
FFFF
  0
ENDSEC
  0
SECTION
  2
TABLES
  0
TABLE
  2
VPORT
  5
8
330
0
100
AcDbSymbolTable
 70
     4
  0
VPORT
  5
2E
330
8
100
AcDbSymbolTableRecord
100
AcDbViewportTableRecord
  2
*ACTIVE
 70
     0
 10
0.0
 20
0.0
 11
1.0
 21
1.0
 12
4.25
 22
5.5
 13
0.0
 23
0.0
 14
10.0
 24
10.0
 15
10.0
 25
10.0
 16
0.0
 26
0.0
 36
1.0
 17
0.0
 27
0.0
 37
0.0
 40
11
 41
1.24
 42
50.0
 43
0.0
 44
0.0
 50
0.0
 51
0.0
 71
     0
 72
   100
 73
     1
 74
     3
 75
     0
 76
     0
 77
     0
 78
     0
  0
ENDTAB
  0
TABLE
  2
LTYPE
  5
5
330
0
100
AcDbSymbolTable
 70
     1
  0
LTYPE
  5
14
330
5
100
AcDbSymbolTableRecord
100
AcDbLinetypeTableRecord
  2
BYBLOCK
 70
     0
  3

 72
    65
 73
     0
 40
0.0
  0
LTYPE
  5
15
330
5
100
AcDbSymbolTableRecord
100
AcDbLinetypeTableRecord
  2
BYLAYER
 70
     0
  3

 72
    65
 73
     0
 40
0.0
  0
LTYPE
  5
16
330
5
100
AcDbSymbolTableRecord
100
AcDbLinetypeTableRecord
  2
CONTINUOUS
 70
     0
  3
Solid line
 72
    65
 73
     0
 40
0.0
  0
ENDTAB
  0
TABLE
  2
STYLE
  5
3
330
0
100
AcDbSymbolTable
 70
     1
  0
STYLE
  5
11
330
3
100
AcDbSymbolTableRecord
100
AcDbTextStyleTableRecord
  2
STANDARD
 70
     0
 40
0.0
 41
1.0
 50
0.0
 71
     0
 42
2.5
  3
txt
  4

  0
ENDTAB
  0
TABLE
  2
VIEW
  5
6
330
0
100
AcDbSymbolTable
 70
     0
  0
ENDTAB
  0
TABLE
  2
UCS
  5
7
330
0
100
AcDbSymbolTable
 70
     0
  0
ENDTAB
  0
TABLE
  2
APPID
  5
9
330
0
100
AcDbSymbolTable
 70
     2
  0
APPID
  5
12
330
9
100
AcDbSymbolTableRecord
100
AcDbRegAppTableRecord
  2
ACAD
 70
     0
  0
ENDTAB
  0
TABLE
  2
DIMSTYLE
  5
A
330
0
100
AcDbSymbolTable
 70
     1
  0
DIMSTYLE
105
27
330
A
100
AcDbSymbolTableRecord
100
AcDbDimStyleTableRecord
  2
ISO-25
 70
     0
  3

  4

  5

  6

  7

 40
1.0
 41
2.5
 42
0.625
 43
3.75
 44
1.25
 45
0.0
 46
0.0
 47
0.0
 48
0.0
140
2.5
141
2.5
142
0.0
143
0.03937007874016
144
1.0
145
0.0
146
1.0
147
0.625
 71
     0
 72
     0
 73
     0
 74
     0
 75
     0
 76
     0
 77
     1
 78
     8
170
     0
171
     3
172
     1
173
     0
174
     0
175
     0
176
     0
177
     0
178
     0
270
     2
271
     2
272
     2
273
     2
274
     3
340
11
275
     0
280
     0
281
     0
282
     0
283
     0
284
     8
285
     0
286
     0
287
     3
288
     0
  0
ENDTAB
  0
TABLE
  2
BLOCK_RECORD
  5
1
330
0
100
AcDbSymbolTable
 70
     1
  0
BLOCK_RECORD
  5
1F
330
1
100
AcDbSymbolTableRecord
100
AcDbBlockTableRecord
  2
*MODEL_SPACE
  0
BLOCK_RECORD
  5
1B
330
1
100
AcDbSymbolTableRecord
100
AcDbBlockTableRecord
  2
*PAPER_SPACE
  0
ENDTAB
0
TABLE
2
LAYER
5
2
330
0
100
AcDbSymbolTable
70
1
0
LAYER
5
10
330
2
100
AcDbSymbolTableRecord
100
AcDbLayerTableRecord
2
Layer 1
70
0
62
7
6
CONTINUOUS
0
ENDTAB
0
ENDSEC
  0
SECTION
  2
BLOCKS
  0
BLOCK
  5
20
330
1F
100
AcDbEntity
  8
0
100
AcDbBlockBegin
  2
*MODEL_SPACE
 70
     0
 10
0.0
 20
0.0
 30
0.0
  3
*MODEL_SPACE
  1

  0
ENDBLK
  5
21
330
1F
100
AcDbEntity
  8
0
100
AcDbBlockEnd
  0
BLOCK
  5
1C
330
1B
100
AcDbEntity
 67
     1
  8
0
100
AcDbBlockBegin
  2
*PAPER_SPACE
  1

  0
ENDBLK
  5
1D
330
1B
100
AcDbEntity
 67
     1
  8
0
100
AcDbBlockEnd
  0
ENDSEC
  0
SECTION
  2
ENTITIES
0
LINE
8
Layer 1
62
4
5
100
100
AcDbEntity
100
AcDbLine
10
38.000000
20
250.000009
30
0.0
11
37.739146
21
248.995913
31
0.0
0
LINE
8
Layer 1
62
4
5
101
100
AcDbEntity
100
AcDbLine
10
37.739146
20
248.995913
30
0.0
11
37.000000
21
248.267959
31
0.0
0
LINE
8
Layer 1
62
4
5
102
100
AcDbEntity
100
AcDbLine
10
37.000000
20
248.267959
30
0.0
11
36.000000
21
247.991816
31
0.0
0
LINE
8
Layer 1
62
4
5
103
100
AcDbEntity
100
AcDbLine
10
36.000000
20
247.991816
30
0.0
11
35.000000
21
248.267959
31
0.0
0
LINE
8
Layer 1
62
4
5
104
100
AcDbEntity
100
AcDbLine
10
35.000000
20
248.267959
30
0.0
11
34.260854
21
248.995913
31
0.0
0
LINE
8
Layer 1
62
4
5
105
100
AcDbEntity
100
AcDbLine
10
34.260854
20
248.995913
30
0.0
11
34.000000
21
250.000009
31
0.0
0
LINE
8
Layer 1
62
4
5
106
100
AcDbEntity
100
AcDbLine
10
34.000000
20
250.000009
30
0.0
11
34.260854
21
251.004106
31
0.0
0
LINE
8
Layer 1
62
4
5
107
100
AcDbEntity
100
AcDbLine
10
34.260854
20
251.004106
30
0.0
11
35.000000
21
251.732060
31
0.0
0
LINE
8
Layer 1
62
4
5
108
100
AcDbEntity
100
AcDbLine
10
35.000000
20
251.732060
30
0.0
11
36.000000
21
252.008202
31
0.0
0
LINE
8
Layer 1
62
4
5
109
100
AcDbEntity
100
AcDbLine
10
36.000000
20
252.008202
30
0.0
11
37.000000
21
251.732060
31
0.0
0
LINE
8
Layer 1
62
4
5
10a
100
AcDbEntity
100
AcDbLine
10
37.000000
20
251.732060
30
0.0
11
37.739146
21
251.004106
31
0.0
0
LINE
8
Layer 1
62
4
5
10b
100
AcDbEntity
100
AcDbLine
10
37.739146
20
251.004106
30
0.0
11
38.000000
21
250.000009
31
0.0
0
LINE
8
Layer 1
62
4
5
10c
100
AcDbEntity
100
AcDbLine
10
38.000000
20
250.000009
30
0.0
11
38.000000
21
250.000009
31
0.0
0
LINE
8
Layer 1
62
4
5
10d
100
AcDbEntity
100
AcDbLine
10
38.000003
20
210.000009
30
0.0
11
37.739149
21
208.995912
31
0.0
0
LINE
8
Layer 1
62
4
5
10e
100
AcDbEntity
100
AcDbLine
10
37.739149
20
208.995912
30
0.0
11
37.000003
21
208.267958
31
0.0
0
LINE
8
Layer 1
62
4
5
10f
100
AcDbEntity
100
AcDbLine
10
37.000003
20
208.267958
30
0.0
11
36.000003
21
207.991816
31
0.0
0
LINE
8
Layer 1
62
4
5
110
100
AcDbEntity
100
AcDbLine
10
36.000003
20
207.991816
30
0.0
11
35.000003
21
208.267958
31
0.0
0
LINE
8
Layer 1
62
4
5
111
100
AcDbEntity
100
AcDbLine
10
35.000003
20
208.267958
30
0.0
11
34.260857
21
208.995912
31
0.0
0
LINE
8
Layer 1
62
4
5
112
100
AcDbEntity
100
AcDbLine
10
34.260857
20
208.995912
30
0.0
11
34.000003
21
210.000009
31
0.0
0
LINE
8
Layer 1
62
4
5
113
100
AcDbEntity
100
AcDbLine
10
34.000003
20
210.000009
30
0.0
11
34.260857
21
211.004106
31
0.0
0
LINE
8
Layer 1
62
4
5
114
100
AcDbEntity
100
AcDbLine
10
34.260857
20
211.004106
30
0.0
11
35.000003
21
211.732060
31
0.0
0
LINE
8
Layer 1
62
4
5
115
100
AcDbEntity
100
AcDbLine
10
35.000003
20
211.732060
30
0.0
11
36.000003
21
212.008202
31
0.0
0
LINE
8
Layer 1
62
4
5
116
100
AcDbEntity
100
AcDbLine
10
36.000003
20
212.008202
30
0.0
11
37.000003
21
211.732060
31
0.0
0
LINE
8
Layer 1
62
4
5
117
100
AcDbEntity
100
AcDbLine
10
37.000003
20
211.732060
30
0.0
11
37.739149
21
211.004106
31
0.0
0
LINE
8
Layer 1
62
4
5
118
100
AcDbEntity
100
AcDbLine
10
37.739149
20
211.004106
30
0.0
11
38.000003
21
210.000009
31
0.0
0
LINE
8
Layer 1
62
4
5
119
100
AcDbEntity
100
AcDbLine
10
38.000003
20
210.000009
30
0.0
11
38.000003
21
210.000009
31
0.0
0
LINE
8
Layer 1
62
4
5
11a
100
AcDbEntity
100
AcDbLine
10
165.000000
20
250.000009
30
0.0
11
164.739146
21
248.995912
31
0.0
0
LINE
8
Layer 1
62
4
5
11b
100
AcDbEntity
100
AcDbLine
10
164.739146
20
248.995912
30
0.0
11
164.000000
21
248.267958
31
0.0
0
LINE
8
Layer 1
62
4
5
11c
100
AcDbEntity
100
AcDbLine
10
164.000000
20
248.267958
30
0.0
11
163.000000
21
247.991816
31
0.0
0
LINE
8
Layer 1
62
4
5
11d
100
AcDbEntity
100
AcDbLine
10
163.000000
20
247.991816
30
0.0
11
162.000000
21
248.267958
31
0.0
0
LINE
8
Layer 1
62
4
5
11e
100
AcDbEntity
100
AcDbLine
10
162.000000
20
248.267958
30
0.0
11
161.260854
21
248.995912
31
0.0
0
LINE
8
Layer 1
62
4
5
11f
100
AcDbEntity
100
AcDbLine
10
161.260854
20
248.995912
30
0.0
11
161.000000
21
250.000009
31
0.0
0
LINE
8
Layer 1
62
4
5
120
100
AcDbEntity
100
AcDbLine
10
161.000000
20
250.000009
30
0.0
11
161.260854
21
251.004105
31
0.0
0
LINE
8
Layer 1
62
4
5
121
100
AcDbEntity
100
AcDbLine
10
161.260854
20
251.004105
30
0.0
11
162.000000
21
251.732060
31
0.0
0
LINE
8
Layer 1
62
4
5
122
100
AcDbEntity
100
AcDbLine
10
162.000000
20
251.732060
30
0.0
11
163.000000
21
252.008202
31
0.0
0
LINE
8
Layer 1
62
4
5
123
100
AcDbEntity
100
AcDbLine
10
163.000000
20
252.008202
30
0.0
11
164.000000
21
251.732060
31
0.0
0
LINE
8
Layer 1
62
4
5
124
100
AcDbEntity
100
AcDbLine
10
164.000000
20
251.732060
30
0.0
11
164.739146
21
251.004105
31
0.0
0
LINE
8
Layer 1
62
4
5
125
100
AcDbEntity
100
AcDbLine
10
164.739146
20
251.004105
30
0.0
11
165.000000
21
250.000009
31
0.0
0
LINE
8
Layer 1
62
4
5
126
100
AcDbEntity
100
AcDbLine
10
165.000000
20
250.000009
30
0.0
11
165.000000
21
250.000009
31
0.0
0
LINE
8
Layer 1
62
4
5
127
100
AcDbEntity
100
AcDbLine
10
165.000003
20
210.000009
30
0.0
11
164.739149
21
208.995912
31
0.0
0
LINE
8
Layer 1
62
4
5
128
100
AcDbEntity
100
AcDbLine
10
164.739149
20
208.995912
30
0.0
11
164.000003
21
208.267958
31
0.0
0
LINE
8
Layer 1
62
4
5
129
100
AcDbEntity
100
AcDbLine
10
164.000003
20
208.267958
30
0.0
11
163.000003
21
207.991816
31
0.0
0
LINE
8
Layer 1
62
4
5
12a
100
AcDbEntity
100
AcDbLine
10
163.000003
20
207.991816
30
0.0
11
162.000003
21
208.267958
31
0.0
0
LINE
8
Layer 1
62
4
5
12b
100
AcDbEntity
100
AcDbLine
10
162.000003
20
208.267958
30
0.0
11
161.260857
21
208.995912
31
0.0
0
LINE
8
Layer 1
62
4
5
12c
100
AcDbEntity
100
AcDbLine
10
161.260857
20
208.995912
30
0.0
11
161.000003
21
210.000009
31
0.0
0
LINE
8
Layer 1
62
4
5
12d
100
AcDbEntity
100
AcDbLine
10
161.000003
20
210.000009
30
0.0
11
161.260857
21
211.004106
31
0.0
0
LINE
8
Layer 1
62
4
5
12e
100
AcDbEntity
100
AcDbLine
10
161.260857
20
211.004106
30
0.0
11
162.000003
21
211.732060
31
0.0
0
LINE
8
Layer 1
62
4
5
12f
100
AcDbEntity
100
AcDbLine
10
162.000003
20
211.732060
30
0.0
11
163.000003
21
212.008202
31
0.0
0
LINE
8
Layer 1
62
4
5
130
100
AcDbEntity
100
AcDbLine
10
163.000003
20
212.008202
30
0.0
11
164.000003
21
211.732060
31
0.0
0
LINE
8
Layer 1
62
4
5
131
100
AcDbEntity
100
AcDbLine
10
164.000003
20
211.732060
30
0.0
11
164.739149
21
211.004106
31
0.0
0
LINE
8
Layer 1
62
4
5
132
100
AcDbEntity
100
AcDbLine
10
164.739149
20
211.004106
30
0.0
11
165.000003
21
210.000009
31
0.0
0
LINE
8
Layer 1
62
4
5
133
100
AcDbEntity
100
AcDbLine
10
165.000003
20
210.000009
30
0.0
11
165.000003
21
210.000009
31
0.0
0
LINE
8
Layer 1
62
4
5
134
100
AcDbEntity
100
AcDbLine
10
25.999722
20
263.999020
30
0.0
11
25.999722
21
196.001104
31
0.0
0
LINE
8
Layer 1
62
4
5
135
100
AcDbEntity
100
AcDbLine
10
25.999722
20
196.001104
30
0.0
11
49.997431
21
196.001104
31
0.0
0
LINE
8
Layer 1
62
4
5
136
100
AcDbEntity
100
AcDbLine
10
49.997431
20
196.001104
30
0.0
11
49.997431
21
199.996312
31
0.0
0
LINE
8
Layer 1
62
4
5
137
100
AcDbEntity
100
AcDbLine
10
49.997431
20
199.996312
30
0.0
11
69.999931
21
199.996312
31
0.0
0
LINE
8
Layer 1
62
4
5
138
100
AcDbEntity
100
AcDbLine
10
69.999931
20
199.996312
30
0.0
11
69.999931
21
196.001104
31
0.0
0
LINE
8
Layer 1
62
4
5
139
100
AcDbEntity
100
AcDbLine
10
69.999931
20
196.001104
30
0.0
11
90.002431
21
196.001104
31
0.0
0
LINE
8
Layer 1
62
4
5
13a
100
AcDbEntity
100
AcDbLine
10
90.002431
20
196.001104
30
0.0
11
90.002431
21
199.996312
31
0.0
0
LINE
8
Layer 1
62
4
5
13b
100
AcDbEntity
100
AcDbLine
10
90.002431
20
199.996312
30
0.0
11
109.996111
21
199.996312
31
0.0
0
LINE
8
Layer 1
62
4
5
13c
100
AcDbEntity
100
AcDbLine
10
109.996111
20
199.996312
30
0.0
11
109.996111
21
196.001104
31
0.0
0
LINE
8
Layer 1
62
4
5
13d
100
AcDbEntity
100
AcDbLine
10
109.996111
20
196.001104
30
0.0
11
129.998611
21
196.001104
31
0.0
0
LINE
8
Layer 1
62
4
5
13e
100
AcDbEntity
100
AcDbLine
10
129.998611
20
196.001104
30
0.0
11
129.998611
21
199.996312
31
0.0
0
LINE
8
Layer 1
62
4
5
13f
100
AcDbEntity
100
AcDbLine
10
129.998611
20
199.996312
30
0.0
11
148.995694
21
199.996312
31
0.0
0
LINE
8
Layer 1
62
4
5
140
100
AcDbEntity
100
AcDbLine
10
148.995694
20
199.996312
30
0.0
11
148.995694
21
196.001104
31
0.0
0
LINE
8
Layer 1
62
4
5
141
100
AcDbEntity
100
AcDbLine
10
148.995694
20
196.001104
30
0.0
11
173.002222
21
196.001104
31
0.0
0
LINE
8
Layer 1
62
4
5
142
100
AcDbEntity
100
AcDbLine
10
173.002222
20
196.001104
30
0.0
11
173.002222
21
263.999020
31
0.0
0
LINE
8
Layer 1
62
4
5
143
100
AcDbEntity
100
AcDbLine
10
173.002222
20
263.999020
30
0.0
11
148.995694
21
263.999020
31
0.0
0
LINE
8
Layer 1
62
4
5
144
100
AcDbEntity
100
AcDbLine
10
148.995694
20
263.999020
30
0.0
11
148.995694
21
260.003812
31
0.0
0
LINE
8
Layer 1
62
4
5
145
100
AcDbEntity
100
AcDbLine
10
148.995694
20
260.003812
30
0.0
11
129.998611
21
260.003812
31
0.0
0
LINE
8
Layer 1
62
4
5
146
100
AcDbEntity
100
AcDbLine
10
129.998611
20
260.003812
30
0.0
11
129.998611
21
263.999020
31
0.0
0
LINE
8
Layer 1
62
4
5
147
100
AcDbEntity
100
AcDbLine
10
129.998611
20
263.999020
30
0.0
11
109.996111
21
263.999020
31
0.0
0
LINE
8
Layer 1
62
4
5
148
100
AcDbEntity
100
AcDbLine
10
109.996111
20
263.999020
30
0.0
11
109.996111
21
260.003812
31
0.0
0
LINE
8
Layer 1
62
4
5
149
100
AcDbEntity
100
AcDbLine
10
109.996111
20
260.003812
30
0.0
11
90.002431
21
260.003812
31
0.0
0
LINE
8
Layer 1
62
4
5
14a
100
AcDbEntity
100
AcDbLine
10
90.002431
20
260.003812
30
0.0
11
90.002431
21
263.999020
31
0.0
0
LINE
8
Layer 1
62
4
5
14b
100
AcDbEntity
100
AcDbLine
10
90.002431
20
263.999020
30
0.0
11
69.999931
21
263.999020
31
0.0
0
LINE
8
Layer 1
62
4
5
14c
100
AcDbEntity
100
AcDbLine
10
69.999931
20
263.999020
30
0.0
11
69.999931
21
260.003812
31
0.0
0
LINE
8
Layer 1
62
4
5
14d
100
AcDbEntity
100
AcDbLine
10
69.999931
20
260.003812
30
0.0
11
49.997431
21
260.003812
31
0.0
0
LINE
8
Layer 1
62
4
5
14e
100
AcDbEntity
100
AcDbLine
10
49.997431
20
260.003812
30
0.0
11
49.997431
21
263.999020
31
0.0
0
LINE
8
Layer 1
62
4
5
14f
100
AcDbEntity
100
AcDbLine
10
49.997431
20
263.999020
30
0.0
11
25.999722
21
263.999020
31
0.0
0
LINE
8
Layer 1
62
4
5
150
100
AcDbEntity
100
AcDbLine
10
25.999722
20
263.999020
30
0.0
11
25.999722
21
263.999020
31
0.0
0
LINE
8
Layer 1
62
4
5
151
100
AcDbEntity
100
AcDbLine
10
174.007639
20
263.990201
30
0.0
11
174.007639
21
247.991729
31
0.0
0
LINE
8
Layer 1
62
4
5
152
100
AcDbEntity
100
AcDbLine
10
174.007639
20
247.991729
30
0.0
11
178.002847
21
247.991729
31
0.0
0
LINE
8
Layer 1
62
4
5
153
100
AcDbEntity
100
AcDbLine
10
178.002847
20
247.991729
30
0.0
11
178.002847
21
235.988465
31
0.0
0
LINE
8
Layer 1
62
4
5
154
100
AcDbEntity
100
AcDbLine
10
178.002847
20
235.988465
30
0.0
11
174.007639
21
235.988465
31
0.0
0
LINE
8
Layer 1
62
4
5
155
100
AcDbEntity
100
AcDbLine
10
174.007639
20
235.988465
30
0.0
11
174.007639
21
223.994020
31
0.0
0
LINE
8
Layer 1
62
4
5
156
100
AcDbEntity
100
AcDbLine
10
174.007639
20
223.994020
30
0.0
11
178.002847
21
223.994020
31
0.0
0
LINE
8
Layer 1
62
4
5
157
100
AcDbEntity
100
AcDbLine
10
178.002847
20
223.994020
30
0.0
11
178.002847
21
211.990757
31
0.0
0
LINE
8
Layer 1
62
4
5
158
100
AcDbEntity
100
AcDbLine
10
178.002847
20
211.990757
30
0.0
11
174.007639
21
211.990757
31
0.0
0
LINE
8
Layer 1
62
4
5
159
100
AcDbEntity
100
AcDbLine
10
174.007639
20
211.990757
30
0.0
11
174.007639
21
196.001104
31
0.0
0
LINE
8
Layer 1
62
4
5
15a
100
AcDbEntity
100
AcDbLine
10
174.007639
20
196.001104
30
0.0
11
178.002847
21
196.001104
31
0.0
0
LINE
8
Layer 1
62
4
5
15b
100
AcDbEntity
100
AcDbLine
10
178.002847
20
196.001104
30
0.0
11
178.002847
21
199.996312
31
0.0
0
LINE
8
Layer 1
62
4
5
15c
100
AcDbEntity
100
AcDbLine
10
178.002847
20
199.996312
30
0.0
11
194.001319
21
199.996312
31
0.0
0
LINE
8
Layer 1
62
4
5
15d
100
AcDbEntity
100
AcDbLine
10
194.001319
20
199.996312
30
0.0
11
194.001319
21
225.996034
31
0.0
0
LINE
8
Layer 1
62
4
5
15e
100
AcDbEntity
100
AcDbLine
10
194.001319
20
225.996034
30
0.0
11
197.996528
21
225.996034
31
0.0
0
LINE
8
Layer 1
62
4
5
15f
100
AcDbEntity
100
AcDbLine
10
197.996528
20
225.996034
30
0.0
11
199.998542
21
225.996034
31
0.0
0
LINE
8
Layer 1
62
4
5
160
100
AcDbEntity
100
AcDbLine
10
199.998542
20
225.996034
30
0.0
11
199.998542
21
199.996312
31
0.0
0
LINE
8
Layer 1
62
4
5
161
100
AcDbEntity
100
AcDbLine
10
199.998542
20
199.996312
30
0.0
11
197.008750
21
199.996312
31
0.0
0
LINE
8
Layer 1
62
4
5
162
100
AcDbEntity
100
AcDbLine
10
197.008750
20
199.996312
30
0.0
11
197.008750
21
196.001104
31
0.0
0
LINE
8
Layer 1
62
4
5
163
100
AcDbEntity
100
AcDbLine
10
197.008750
20
196.001104
30
0.0
11
197.008750
21
195.992284
31
0.0
0
LINE
8
Layer 1
62
4
5
164
100
AcDbEntity
100
AcDbLine
10
197.008750
20
195.992284
30
0.0
11
251.001389
21
195.992284
31
0.0
0
LINE
8
Layer 1
62
4
5
165
100
AcDbEntity
100
AcDbLine
10
251.001389
20
195.992284
30
0.0
11
251.001389
21
196.001104
31
0.0
0
LINE
8
Layer 1
62
4
5
166
100
AcDbEntity
100
AcDbLine
10
251.001389
20
196.001104
30
0.0
11
251.001389
21
199.996312
31
0.0
0
LINE
8
Layer 1
62
4
5
167
100
AcDbEntity
100
AcDbLine
10
251.001389
20
199.996312
30
0.0
11
277.001111
21
199.996312
31
0.0
0
LINE
8
Layer 1
62
4
5
168
100
AcDbEntity
100
AcDbLine
10
277.001111
20
199.996312
30
0.0
11
277.001111
21
196.001104
31
0.0
0
LINE
8
Layer 1
62
4
5
169
100
AcDbEntity
100
AcDbLine
10
277.001111
20
196.001104
30
0.0
11
281.005139
21
196.001104
31
0.0
0
LINE
8
Layer 1
62
4
5
16a
100
AcDbEntity
100
AcDbLine
10
281.005139
20
196.001104
30
0.0
11
281.005139
21
211.990757
31
0.0
0
LINE
8
Layer 1
62
4
5
16b
100
AcDbEntity
100
AcDbLine
10
281.005139
20
211.990757
30
0.0
11
277.001111
21
211.990757
31
0.0
0
LINE
8
Layer 1
62
4
5
16c
100
AcDbEntity
100
AcDbLine
10
277.001111
20
211.990757
30
0.0
11
277.001111
21
223.994020
31
0.0
0
LINE
8
Layer 1
62
4
5
16d
100
AcDbEntity
100
AcDbLine
10
277.001111
20
223.994020
30
0.0
11
281.005139
21
223.994020
31
0.0
0
LINE
8
Layer 1
62
4
5
16e
100
AcDbEntity
100
AcDbLine
10
281.005139
20
223.994020
30
0.0
11
281.005139
21
235.988465
31
0.0
0
LINE
8
Layer 1
62
4
5
16f
100
AcDbEntity
100
AcDbLine
10
281.005139
20
235.988465
30
0.0
11
277.001111
21
235.988465
31
0.0
0
LINE
8
Layer 1
62
4
5
170
100
AcDbEntity
100
AcDbLine
10
277.001111
20
235.988465
30
0.0
11
277.001111
21
247.991729
31
0.0
0
LINE
8
Layer 1
62
4
5
171
100
AcDbEntity
100
AcDbLine
10
277.001111
20
247.991729
30
0.0
11
281.005139
21
247.991729
31
0.0
0
LINE
8
Layer 1
62
4
5
172
100
AcDbEntity
100
AcDbLine
10
281.005139
20
247.991729
30
0.0
11
281.005139
21
263.990201
31
0.0
0
LINE
8
Layer 1
62
4
5
173
100
AcDbEntity
100
AcDbLine
10
281.005139
20
263.990201
30
0.0
11
277.001111
21
263.990201
31
0.0
0
LINE
8
Layer 1
62
4
5
174
100
AcDbEntity
100
AcDbLine
10
277.001111
20
263.990201
30
0.0
11
277.001111
21
259.994993
31
0.0
0
LINE
8
Layer 1
62
4
5
175
100
AcDbEntity
100
AcDbLine
10
277.001111
20
259.994993
30
0.0
11
258.004028
21
259.994993
31
0.0
0
LINE
8
Layer 1
62
4
5
176
100
AcDbEntity
100
AcDbLine
10
258.004028
20
259.994993
30
0.0
11
258.004028
21
263.990201
31
0.0
0
LINE
8
Layer 1
62
4
5
177
100
AcDbEntity
100
AcDbLine
10
258.004028
20
263.990201
30
0.0
11
238.001528
21
263.990201
31
0.0
0
LINE
8
Layer 1
62
4
5
178
100
AcDbEntity
100
AcDbLine
10
238.001528
20
263.990201
30
0.0
11
238.001528
21
259.994993
31
0.0
0
LINE
8
Layer 1
62
4
5
179
100
AcDbEntity
100
AcDbLine
10
238.001528
20
259.994993
30
0.0
11
218.007847
21
259.994993
31
0.0
0
LINE
8
Layer 1
62
4
5
17a
100
AcDbEntity
100
AcDbLine
10
218.007847
20
259.994993
30
0.0
11
218.007847
21
263.990201
31
0.0
0
LINE
8
Layer 1
62
4
5
17b
100
AcDbEntity
100
AcDbLine
10
218.007847
20
263.990201
30
0.0
11
198.005347
21
263.990201
31
0.0
0
LINE
8
Layer 1
62
4
5
17c
100
AcDbEntity
100
AcDbLine
10
198.005347
20
263.990201
30
0.0
11
198.005347
21
259.994993
31
0.0
0
LINE
8
Layer 1
62
4
5
17d
100
AcDbEntity
100
AcDbLine
10
198.005347
20
259.994993
30
0.0
11
178.002847
21
259.994993
31
0.0
0
LINE
8
Layer 1
62
4
5
17e
100
AcDbEntity
100
AcDbLine
10
178.002847
20
259.994993
30
0.0
11
178.002847
21
263.990201
31
0.0
0
LINE
8
Layer 1
62
4
5
17f
100
AcDbEntity
100
AcDbLine
10
178.002847
20
263.990201
30
0.0
11
174.007639
21
263.990201
31
0.0
0
LINE
8
Layer 1
62
4
5
180
100
AcDbEntity
100
AcDbLine
10
174.007639
20
263.990201
30
0.0
11
174.007639
21
263.990201
31
0.0
0
LINE
8
Layer 1
62
4
5
181
100
AcDbEntity
100
AcDbLine
10
29.994098
20
195.002508
30
0.0
11
29.994098
21
191.007300
31
0.0
0
LINE
8
Layer 1
62
4
5
182
100
AcDbEntity
100
AcDbLine
10
29.994098
20
191.007300
30
0.0
11
25.998890
21
191.007300
31
0.0
0
LINE
8
Layer 1
62
4
5
183
100
AcDbEntity
100
AcDbLine
10
25.998890
20
191.007300
30
0.0
11
25.998890
21
169.002786
31
0.0
0
LINE
8
Layer 1
62
4
5
184
100
AcDbEntity
100
AcDbLine
10
25.998890
20
169.002786
30
0.0
11
29.994098
21
169.002786
31
0.0
0
LINE
8
Layer 1
62
4
5
185
100
AcDbEntity
100
AcDbLine
10
29.994098
20
169.002786
30
0.0
11
29.994098
21
165.007578
31
0.0
0
LINE
8
Layer 1
62
4
5
186
100
AcDbEntity
100
AcDbLine
10
29.994098
20
165.007578
30
0.0
11
25.998890
21
165.007578
31
0.0
0
LINE
8
Layer 1
62
4
5
187
100
AcDbEntity
100
AcDbLine
10
25.998890
20
165.007578
30
0.0
11
25.998890
21
161.003550
31
0.0
0
LINE
8
Layer 1
62
4
5
188
100
AcDbEntity
100
AcDbLine
10
25.998890
20
161.003550
30
0.0
11
29.994098
21
161.003550
31
0.0
0
LINE
8
Layer 1
62
4
5
189
100
AcDbEntity
100
AcDbLine
10
29.994098
20
161.003550
30
0.0
11
29.994098
21
157.008342
31
0.0
0
LINE
8
Layer 1
62
4
5
18a
100
AcDbEntity
100
AcDbLine
10
29.994098
20
157.008342
30
0.0
11
49.996598
21
157.008342
31
0.0
0
LINE
8
Layer 1
62
4
5
18b
100
AcDbEntity
100
AcDbLine
10
49.996598
20
157.008342
30
0.0
11
49.996598
21
161.003550
31
0.0
0
LINE
8
Layer 1
62
4
5
18c
100
AcDbEntity
100
AcDbLine
10
49.996598
20
161.003550
30
0.0
11
69.999098
21
161.003550
31
0.0
0
LINE
8
Layer 1
62
4
5
18d
100
AcDbEntity
100
AcDbLine
10
69.999098
20
161.003550
30
0.0
11
69.999098
21
157.008342
31
0.0
0
LINE
8
Layer 1
62
4
5
18e
100
AcDbEntity
100
AcDbLine
10
69.999098
20
157.008342
30
0.0
11
89.992779
21
157.008342
31
0.0
0
LINE
8
Layer 1
62
4
5
18f
100
AcDbEntity
100
AcDbLine
10
89.992779
20
157.008342
30
0.0
11
89.992779
21
161.003550
31
0.0
0
LINE
8
Layer 1
62
4
5
190
100
AcDbEntity
100
AcDbLine
10
89.992779
20
161.003550
30
0.0
11
109.995279
21
161.003550
31
0.0
0
LINE
8
Layer 1
62
4
5
191
100
AcDbEntity
100
AcDbLine
10
109.995279
20
161.003550
30
0.0
11
109.995279
21
157.008342
31
0.0
0
LINE
8
Layer 1
62
4
5
192
100
AcDbEntity
100
AcDbLine
10
109.995279
20
157.008342
30
0.0
11
128.992362
21
157.008342
31
0.0
0
LINE
8
Layer 1
62
4
5
193
100
AcDbEntity
100
AcDbLine
10
128.992362
20
157.008342
30
0.0
11
128.992362
21
161.003550
31
0.0
0
LINE
8
Layer 1
62
4
5
194
100
AcDbEntity
100
AcDbLine
10
128.992362
20
161.003550
30
0.0
11
132.996390
21
161.003550
31
0.0
0
LINE
8
Layer 1
62
4
5
195
100
AcDbEntity
100
AcDbLine
10
132.996390
20
161.003550
30
0.0
11
132.996390
21
165.007578
31
0.0
0
LINE
8
Layer 1
62
4
5
196
100
AcDbEntity
100
AcDbLine
10
132.996390
20
165.007578
30
0.0
11
128.992362
21
165.007578
31
0.0
0
LINE
8
Layer 1
62
4
5
197
100
AcDbEntity
100
AcDbLine
10
128.992362
20
165.007578
30
0.0
11
128.992362
21
169.002786
31
0.0
0
LINE
8
Layer 1
62
4
5
198
100
AcDbEntity
100
AcDbLine
10
128.992362
20
169.002786
30
0.0
11
132.996390
21
169.002786
31
0.0
0
LINE
8
Layer 1
62
4
5
199
100
AcDbEntity
100
AcDbLine
10
132.996390
20
169.002786
30
0.0
11
132.996390
21
191.007300
31
0.0
0
LINE
8
Layer 1
62
4
5
19a
100
AcDbEntity
100
AcDbLine
10
132.996390
20
191.007300
30
0.0
11
128.992362
21
191.007300
31
0.0
0
LINE
8
Layer 1
62
4
5
19b
100
AcDbEntity
100
AcDbLine
10
128.992362
20
191.007300
30
0.0
11
128.992362
21
195.002508
31
0.0
0
LINE
8
Layer 1
62
4
5
19c
100
AcDbEntity
100
AcDbLine
10
128.992362
20
195.002508
30
0.0
11
102.992640
21
195.002508
31
0.0
0
LINE
8
Layer 1
62
4
5
19d
100
AcDbEntity
100
AcDbLine
10
102.992640
20
195.002508
30
0.0
11
102.992640
21
191.007300
31
0.0
0
LINE
8
Layer 1
62
4
5
19e
100
AcDbEntity
100
AcDbLine
10
102.992640
20
191.007300
30
0.0
11
102.992640
21
189.455078
31
0.0
0
LINE
8
Layer 1
62
4
5
19f
100
AcDbEntity
100
AcDbLine
10
102.992640
20
189.455078
30
0.0
11
102.992640
21
175.000008
31
0.0
0
LINE
8
Layer 1
62
4
5
1a0
100
AcDbEntity
100
AcDbLine
10
102.992640
20
175.000008
30
0.0
11
49.000001
21
175.000008
31
0.0
0
LINE
8
Layer 1
62
4
5
1a1
100
AcDbEntity
100
AcDbLine
10
49.000001
20
175.000008
30
0.0
11
49.000001
21
187.003272
31
0.0
0
LINE
8
Layer 1
62
4
5
1a2
100
AcDbEntity
100
AcDbLine
10
49.000001
20
187.003272
30
0.0
11
49.000001
21
191.007300
31
0.0
0
LINE
8
Layer 1
62
4
5
1a3
100
AcDbEntity
100
AcDbLine
10
49.000001
20
191.007300
30
0.0
11
49.000001
21
195.002508
31
0.0
0
LINE
8
Layer 1
62
4
5
1a4
100
AcDbEntity
100
AcDbLine
10
49.000001
20
195.002508
30
0.0
11
29.994098
21
195.002508
31
0.0
0
LINE
8
Layer 1
62
4
5
1a5
100
AcDbEntity
100
AcDbLine
10
29.994098
20
195.002508
30
0.0
11
29.994098
21
195.002508
31
0.0
0
LINE
8
Layer 1
62
4
5
1a6
100
AcDbEntity
100
AcDbLine
10
110.000000
20
187.000010
30
0.0
11
110.000000
21
182.995982
31
0.0
0
LINE
8
Layer 1
62
4
5
1a7
100
AcDbEntity
100
AcDbLine
10
110.000000
20
182.995982
30
0.0
11
104.002778
21
182.995982
31
0.0
0
LINE
8
Layer 1
62
4
5
1a8
100
AcDbEntity
100
AcDbLine
10
104.002778
20
182.995982
30
0.0
11
104.004722
21
179.994732
31
0.0
0
LINE
8
Layer 1
62
4
5
1a9
100
AcDbEntity
100
AcDbLine
10
104.004722
20
179.994732
30
0.0
11
128.004722
21
179.994732
31
0.0
0
LINE
8
Layer 1
62
4
5
1aa
100
AcDbEntity
100
AcDbLine
10
128.004722
20
179.994732
30
0.0
11
128.004722
21
182.987927
31
0.0
0
LINE
8
Layer 1
62
4
5
1ab
100
AcDbEntity
100
AcDbLine
10
128.004722
20
182.987927
30
0.0
11
112.002014
21
182.995982
31
0.0
0
LINE
8
Layer 1
62
4
5
1ac
100
AcDbEntity
100
AcDbLine
10
112.002014
20
182.995982
30
0.0
11
112.002014
21
187.000010
31
0.0
0
LINE
8
Layer 1
62
4
5
1ad
100
AcDbEntity
100
AcDbLine
10
112.002014
20
187.000010
30
0.0
11
110.000000
21
187.000010
31
0.0
0
LINE
8
Layer 1
62
4
5
1ae
100
AcDbEntity
100
AcDbLine
10
110.000000
20
187.000010
30
0.0
11
110.000000
21
187.000010
31
0.0
0
LINE
8
Layer 1
62
4
5
1af
100
AcDbEntity
100
AcDbLine
10
149.000001
20
248.000009
30
0.0
11
152.999999
21
248.000009
31
0.0
0
LINE
8
Layer 1
62
4
5
1b0
100
AcDbEntity
100
AcDbLine
10
152.999999
20
248.000009
30
0.0
11
152.999999
21
236.000011
31
0.0
0
LINE
8
Layer 1
62
4
5
1b1
100
AcDbEntity
100
AcDbLine
10
152.999999
20
236.000011
30
0.0
11
149.000001
21
236.000011
31
0.0
0
LINE
8
Layer 1
62
4
5
1b2
100
AcDbEntity
100
AcDbLine
10
149.000001
20
236.000011
30
0.0
11
149.000001
21
248.000009
31
0.0
0
LINE
8
Layer 1
62
4
5
1b3
100
AcDbEntity
100
AcDbLine
10
149.000001
20
248.000009
30
0.0
11
149.000001
21
248.000009
31
0.0
0
LINE
8
Layer 1
62
4
5
1b4
100
AcDbEntity
100
AcDbLine
10
149.000001
20
224.000009
30
0.0
11
152.999999
21
224.000009
31
0.0
0
LINE
8
Layer 1
62
4
5
1b5
100
AcDbEntity
100
AcDbLine
10
152.999999
20
224.000009
30
0.0
11
152.999999
21
212.000011
31
0.0
0
LINE
8
Layer 1
62
4
5
1b6
100
AcDbEntity
100
AcDbLine
10
152.999999
20
212.000011
30
0.0
11
149.000001
21
212.000011
31
0.0
0
LINE
8
Layer 1
62
4
5
1b7
100
AcDbEntity
100
AcDbLine
10
149.000001
20
212.000011
30
0.0
11
149.000001
21
224.000009
31
0.0
0
LINE
8
Layer 1
62
4
5
1b8
100
AcDbEntity
100
AcDbLine
10
149.000001
20
224.000009
30
0.0
11
149.000001
21
224.000009
31
0.0
0
LINE
8
Layer 1
62
4
5
1b9
100
AcDbEntity
100
AcDbLine
10
46.000001
20
248.000009
30
0.0
11
46.000001
21
236.000011
31
0.0
0
LINE
8
Layer 1
62
4
5
1ba
100
AcDbEntity
100
AcDbLine
10
46.000001
20
236.000011
30
0.0
11
49.999999
21
236.000011
31
0.0
0
LINE
8
Layer 1
62
4
5
1bb
100
AcDbEntity
100
AcDbLine
10
49.999999
20
236.000011
30
0.0
11
49.999999
21
248.000009
31
0.0
0
LINE
8
Layer 1
62
4
5
1bc
100
AcDbEntity
100
AcDbLine
10
49.999999
20
248.000009
30
0.0
11
46.000001
21
248.000009
31
0.0
0
LINE
8
Layer 1
62
4
5
1bd
100
AcDbEntity
100
AcDbLine
10
46.000001
20
248.000009
30
0.0
11
46.000001
21
248.000009
31
0.0
0
LINE
8
Layer 1
62
4
5
1be
100
AcDbEntity
100
AcDbLine
10
46.000001
20
224.000009
30
0.0
11
49.999999
21
224.000009
31
0.0
0
LINE
8
Layer 1
62
4
5
1bf
100
AcDbEntity
100
AcDbLine
10
49.999999
20
224.000009
30
0.0
11
49.999999
21
212.000011
31
0.0
0
LINE
8
Layer 1
62
4
5
1c0
100
AcDbEntity
100
AcDbLine
10
49.999999
20
212.000011
30
0.0
11
46.000001
21
212.000011
31
0.0
0
LINE
8
Layer 1
62
4
5
1c1
100
AcDbEntity
100
AcDbLine
10
46.000001
20
212.000011
30
0.0
11
46.000001
21
224.000009
31
0.0
0
LINE
8
Layer 1
62
4
5
1c2
100
AcDbEntity
100
AcDbLine
10
46.000001
20
224.000009
30
0.0
11
46.000001
21
224.000009
31
0.0
0
LINE
8
Layer 1
62
4
5
1c3
100
AcDbEntity
100
AcDbLine
10
308.004774
20
263.995219
30
0.0
11
308.004774
21
260.000011
31
0.0
0
LINE
8
Layer 1
62
4
5
1c4
100
AcDbEntity
100
AcDbLine
10
308.004774
20
260.000011
30
0.0
11
286.000275
21
260.000011
31
0.0
0
LINE
8
Layer 1
62
4
5
1c5
100
AcDbEntity
100
AcDbLine
10
286.000275
20
260.000011
30
0.0
11
286.000275
21
258.994594
31
0.0
0
LINE
8
Layer 1
62
4
5
1c6
100
AcDbEntity
100
AcDbLine
10
286.000275
20
258.994594
30
0.0
11
301.998747
21
258.994594
31
0.0
0
LINE
8
Layer 1
62
4
5
1c7
100
AcDbEntity
100
AcDbLine
10
301.998747
20
258.994594
30
0.0
11
301.998747
21
247.996747
31
0.0
0
LINE
8
Layer 1
62
4
5
1c8
100
AcDbEntity
100
AcDbLine
10
301.998747
20
247.996747
30
0.0
11
286.000275
21
247.996747
31
0.0
0
LINE
8
Layer 1
62
4
5
1c9
100
AcDbEntity
100
AcDbLine
10
286.000275
20
247.996747
30
0.0
11
282.005066
21
247.996747
31
0.0
0
LINE
8
Layer 1
62
4
5
1ca
100
AcDbEntity
100
AcDbLine
10
282.005066
20
247.996747
30
0.0
11
282.005066
21
235.993483
31
0.0
0
LINE
8
Layer 1
62
4
5
1cb
100
AcDbEntity
100
AcDbLine
10
282.005066
20
235.993483
30
0.0
11
286.000275
21
235.993483
31
0.0
0
LINE
8
Layer 1
62
4
5
1cc
100
AcDbEntity
100
AcDbLine
10
286.000275
20
235.993483
30
0.0
11
286.000275
21
223.999038
31
0.0
0
LINE
8
Layer 1
62
4
5
1cd
100
AcDbEntity
100
AcDbLine
10
286.000275
20
223.999038
30
0.0
11
282.005066
21
223.999038
31
0.0
0
LINE
8
Layer 1
62
4
5
1ce
100
AcDbEntity
100
AcDbLine
10
282.005066
20
223.999038
30
0.0
11
282.005066
21
211.995774
31
0.0
0
LINE
8
Layer 1
62
4
5
1cf
100
AcDbEntity
100
AcDbLine
10
282.005066
20
211.995774
30
0.0
11
286.000275
21
211.995774
31
0.0
0
LINE
8
Layer 1
62
4
5
1d0
100
AcDbEntity
100
AcDbLine
10
286.000275
20
211.995774
30
0.0
11
286.000275
21
199.992511
31
0.0
0
LINE
8
Layer 1
62
4
5
1d1
100
AcDbEntity
100
AcDbLine
10
286.000275
20
199.992511
30
0.0
11
308.004774
21
199.992511
31
0.0
0
LINE
8
Layer 1
62
4
5
1d2
100
AcDbEntity
100
AcDbLine
10
308.004774
20
199.992511
30
0.0
11
308.004774
21
195.997302
31
0.0
0
LINE
8
Layer 1
62
4
5
1d3
100
AcDbEntity
100
AcDbLine
10
308.004774
20
195.997302
30
0.0
11
311.999997
21
195.997302
31
0.0
0
LINE
8
Layer 1
62
4
5
1d4
100
AcDbEntity
100
AcDbLine
10
311.999997
20
195.997302
30
0.0
11
311.999997
21
199.992511
31
0.0
0
LINE
8
Layer 1
62
4
5
1d5
100
AcDbEntity
100
AcDbLine
10
311.999997
20
199.992511
30
0.0
11
316.004025
21
199.992511
31
0.0
0
LINE
8
Layer 1
62
4
5
1d6
100
AcDbEntity
100
AcDbLine
10
316.004025
20
199.992511
30
0.0
11
316.004025
21
211.995774
31
0.0
0
LINE
8
Layer 1
62
4
5
1d7
100
AcDbEntity
100
AcDbLine
10
316.004025
20
211.995774
30
0.0
11
319.999219
21
211.995774
31
0.0
0
LINE
8
Layer 1
62
4
5
1d8
100
AcDbEntity
100
AcDbLine
10
319.999219
20
211.995774
30
0.0
11
319.999219
21
223.999038
31
0.0
0
LINE
8
Layer 1
62
4
5
1d9
100
AcDbEntity
100
AcDbLine
10
319.999219
20
223.999038
30
0.0
11
316.004025
21
223.999038
31
0.0
0
LINE
8
Layer 1
62
4
5
1da
100
AcDbEntity
100
AcDbLine
10
316.004025
20
223.999038
30
0.0
11
316.004025
21
235.993483
31
0.0
0
LINE
8
Layer 1
62
4
5
1db
100
AcDbEntity
100
AcDbLine
10
316.004025
20
235.993483
30
0.0
11
319.999219
21
235.993483
31
0.0
0
LINE
8
Layer 1
62
4
5
1dc
100
AcDbEntity
100
AcDbLine
10
319.999219
20
235.993483
30
0.0
11
319.999219
21
247.996747
31
0.0
0
LINE
8
Layer 1
62
4
5
1dd
100
AcDbEntity
100
AcDbLine
10
319.999219
20
247.996747
30
0.0
11
316.004025
21
247.996747
31
0.0
0
LINE
8
Layer 1
62
4
5
1de
100
AcDbEntity
100
AcDbLine
10
316.004025
20
247.996747
30
0.0
11
316.004025
21
260.000011
31
0.0
0
LINE
8
Layer 1
62
4
5
1df
100
AcDbEntity
100
AcDbLine
10
316.004025
20
260.000011
30
0.0
11
311.999997
21
260.000011
31
0.0
0
LINE
8
Layer 1
62
4
5
1e0
100
AcDbEntity
100
AcDbLine
10
311.999997
20
260.000011
30
0.0
11
311.999997
21
263.995219
31
0.0
0
LINE
8
Layer 1
62
4
5
1e1
100
AcDbEntity
100
AcDbLine
10
311.999997
20
263.995219
30
0.0
11
308.004774
21
263.995219
31
0.0
0
LINE
8
Layer 1
62
4
5
1e2
100
AcDbEntity
100
AcDbLine
10
308.004774
20
263.995219
30
0.0
11
308.004774
21
263.995219
31
0.0
0
LINE
8
Layer 1
62
4
5
1e3
100
AcDbEntity
100
AcDbLine
10
302.002359
20
233.996207
30
0.0
11
290.002355
21
233.996207
31
0.0
0
LINE
8
Layer 1
62
4
5
1e4
100
AcDbEntity
100
AcDbLine
10
290.002355
20
233.996207
30
0.0
11
290.002355
21
221.996209
31
0.0
0
LINE
8
Layer 1
62
4
5
1e5
100
AcDbEntity
100
AcDbLine
10
290.002355
20
221.996209
30
0.0
11
302.002359
21
221.996209
31
0.0
0
LINE
8
Layer 1
62
4
5
1e6
100
AcDbEntity
100
AcDbLine
10
302.002359
20
221.996209
30
0.0
11
302.002359
21
233.996207
31
0.0
0
LINE
8
Layer 1
62
4
5
1e7
100
AcDbEntity
100
AcDbLine
10
302.002359
20
233.996207
30
0.0
11
302.002359
21
233.996207
31
0.0
0
LINE
8
Layer 1
62
4
5
1e8
100
AcDbEntity
100
AcDbLine
10
288.002359
20
242.996209
30
0.0
11
290.002355
21
242.996209
31
0.0
0
LINE
8
Layer 1
62
4
5
1e9
100
AcDbEntity
100
AcDbLine
10
290.002355
20
242.996209
30
0.0
11
290.002355
21
239.996210
31
0.0
0
LINE
8
Layer 1
62
4
5
1ea
100
AcDbEntity
100
AcDbLine
10
290.002355
20
239.996210
30
0.0
11
288.002359
21
239.996210
31
0.0
0
LINE
8
Layer 1
62
4
5
1eb
100
AcDbEntity
100
AcDbLine
10
288.002359
20
239.996210
30
0.0
11
288.002359
21
242.996209
31
0.0
0
LINE
8
Layer 1
62
4
5
1ec
100
AcDbEntity
100
AcDbLine
10
288.002359
20
242.996209
30
0.0
11
288.002359
21
242.996209
31
0.0
0
LINE
8
Layer 1
62
4
5
1ed
100
AcDbEntity
100
AcDbLine
10
288.002359
20
218.996209
30
0.0
11
290.002355
21
218.996209
31
0.0
0
LINE
8
Layer 1
62
4
5
1ee
100
AcDbEntity
100
AcDbLine
10
290.002355
20
218.996209
30
0.0
11
290.002355
21
215.996210
31
0.0
0
LINE
8
Layer 1
62
4
5
1ef
100
AcDbEntity
100
AcDbLine
10
290.002355
20
215.996210
30
0.0
11
288.002359
21
215.996210
31
0.0
0
LINE
8
Layer 1
62
4
5
1f0
100
AcDbEntity
100
AcDbLine
10
288.002359
20
215.996210
30
0.0
11
288.002359
21
218.996209
31
0.0
0
LINE
8
Layer 1
62
4
5
1f1
100
AcDbEntity
100
AcDbLine
10
288.002359
20
218.996209
30
0.0
11
288.002359
21
218.996209
31
0.0
0
LINE
8
Layer 1
62
4
5
1f2
100
AcDbEntity
100
AcDbLine
10
273.004308
20
242.990096
30
0.0
11
275.004304
21
242.990096
31
0.0
0
LINE
8
Layer 1
62
4
5
1f3
100
AcDbEntity
100
AcDbLine
10
275.004304
20
242.990096
30
0.0
11
275.004304
21
239.990097
31
0.0
0
LINE
8
Layer 1
62
4
5
1f4
100
AcDbEntity
100
AcDbLine
10
275.004304
20
239.990097
30
0.0
11
273.004308
21
239.990097
31
0.0
0
LINE
8
Layer 1
62
4
5
1f5
100
AcDbEntity
100
AcDbLine
10
273.004308
20
239.990097
30
0.0
11
273.004308
21
242.990096
31
0.0
0
LINE
8
Layer 1
62
4
5
1f6
100
AcDbEntity
100
AcDbLine
10
273.004308
20
242.990096
30
0.0
11
273.004308
21
242.990096
31
0.0
0
LINE
8
Layer 1
62
4
5
1f7
100
AcDbEntity
100
AcDbLine
10
273.004308
20
218.990096
30
0.0
11
275.004304
21
218.990096
31
0.0
0
LINE
8
Layer 1
62
4
5
1f8
100
AcDbEntity
100
AcDbLine
10
275.004304
20
218.990096
30
0.0
11
275.004304
21
215.990097
31
0.0
0
LINE
8
Layer 1
62
4
5
1f9
100
AcDbEntity
100
AcDbLine
10
275.004304
20
215.990097
30
0.0
11
273.004308
21
215.990097
31
0.0
0
LINE
8
Layer 1
62
4
5
1fa
100
AcDbEntity
100
AcDbLine
10
273.004308
20
215.990097
30
0.0
11
273.004308
21
218.990096
31
0.0
0
LINE
8
Layer 1
62
4
5
1fb
100
AcDbEntity
100
AcDbLine
10
273.004308
20
218.990096
30
0.0
11
273.004308
21
218.990096
31
0.0
0
LINE
8
Layer 1
62
4
5
1fc
100
AcDbEntity
100
AcDbLine
10
197.993680
20
195.145149
30
0.0
11
178.000000
21
195.004038
31
0.0
0
LINE
8
Layer 1
62
4
5
1fd
100
AcDbEntity
100
AcDbLine
10
178.000000
20
195.004038
30
0.0
11
178.000000
21
191.000010
31
0.0
0
LINE
8
Layer 1
62
4
5
1fe
100
AcDbEntity
100
AcDbLine
10
178.000000
20
191.000010
30
0.0
11
157.997500
21
191.000010
31
0.0
0
LINE
8
Layer 1
62
4
5
1ff
100
AcDbEntity
100
AcDbLine
10
157.997500
20
191.000010
30
0.0
11
157.997500
21
195.004038
31
0.0
0
LINE
8
Layer 1
62
4
5
200
100
AcDbEntity
100
AcDbLine
10
157.997500
20
195.004038
30
0.0
11
137.995000
21
195.004038
31
0.0
0
LINE
8
Layer 1
62
4
5
201
100
AcDbEntity
100
AcDbLine
10
137.995000
20
195.004038
30
0.0
11
137.995000
21
191.000010
31
0.0
0
LINE
8
Layer 1
62
4
5
202
100
AcDbEntity
100
AcDbLine
10
137.995000
20
191.000010
30
0.0
11
133.999791
21
191.000010
31
0.0
0
LINE
8
Layer 1
62
4
5
203
100
AcDbEntity
100
AcDbLine
10
133.999791
20
191.000010
30
0.0
11
133.999791
21
187.004802
31
0.0
0
LINE
8
Layer 1
62
4
5
204
100
AcDbEntity
100
AcDbLine
10
133.999791
20
187.004802
30
0.0
11
137.995000
21
187.004802
31
0.0
0
LINE
8
Layer 1
62
4
5
205
100
AcDbEntity
100
AcDbLine
10
137.995000
20
187.004802
30
0.0
11
137.995000
21
183.000774
31
0.0
0
LINE
8
Layer 1
62
4
5
206
100
AcDbEntity
100
AcDbLine
10
137.995000
20
183.000774
30
0.0
11
133.999791
21
183.000774
31
0.0
0
LINE
8
Layer 1
62
4
5
207
100
AcDbEntity
100
AcDbLine
10
133.999791
20
183.000774
30
0.0
11
133.999791
21
177.003552
31
0.0
0
LINE
8
Layer 1
62
4
5
208
100
AcDbEntity
100
AcDbLine
10
133.999791
20
177.003552
30
0.0
11
137.995000
21
177.003552
31
0.0
0
LINE
8
Layer 1
62
4
5
209
100
AcDbEntity
100
AcDbLine
10
137.995000
20
177.003552
30
0.0
11
139.997013
21
177.003552
31
0.0
0
LINE
8
Layer 1
62
4
5
20a
100
AcDbEntity
100
AcDbLine
10
139.997013
20
177.003552
30
0.0
11
226.992013
21
177.003552
31
0.0
0
LINE
8
Layer 1
62
4
5
20b
100
AcDbEntity
100
AcDbLine
10
226.992013
20
177.003552
30
0.0
11
226.992013
21
171.006330
31
0.0
0
LINE
8
Layer 1
62
4
5
20c
100
AcDbEntity
100
AcDbLine
10
226.992013
20
171.006330
30
0.0
11
229.990625
21
171.006330
31
0.0
0
LINE
8
Layer 1
62
4
5
20d
100
AcDbEntity
100
AcDbLine
10
229.990625
20
171.006330
30
0.0
11
229.990625
21
174.004941
31
0.0
0
LINE
8
Layer 1
62
4
5
20e
100
AcDbEntity
100
AcDbLine
10
229.990625
20
174.004941
30
0.0
11
232.998069
21
174.004941
31
0.0
0
LINE
8
Layer 1
62
4
5
20f
100
AcDbEntity
100
AcDbLine
10
232.998069
20
174.004941
30
0.0
11
232.998069
21
171.006330
31
0.0
0
LINE
8
Layer 1
62
4
5
210
100
AcDbEntity
100
AcDbLine
10
232.998069
20
171.006330
30
0.0
11
240.997291
21
171.006330
31
0.0
0
LINE
8
Layer 1
62
4
5
211
100
AcDbEntity
100
AcDbLine
10
240.997291
20
171.006330
30
0.0
11
240.997291
21
183.000774
31
0.0
0
LINE
8
Layer 1
62
4
5
212
100
AcDbEntity
100
AcDbLine
10
240.997291
20
183.000774
30
0.0
11
236.993263
21
183.000774
31
0.0
0
LINE
8
Layer 1
62
4
5
213
100
AcDbEntity
100
AcDbLine
10
236.993263
20
183.000774
30
0.0
11
236.993263
21
187.004802
31
0.0
0
LINE
8
Layer 1
62
4
5
214
100
AcDbEntity
100
AcDbLine
10
236.993263
20
187.004802
30
0.0
11
240.997291
21
187.004802
31
0.0
0
LINE
8
Layer 1
62
4
5
215
100
AcDbEntity
100
AcDbLine
10
240.997291
20
187.004802
30
0.0
11
240.997291
21
191.000010
31
0.0
0
LINE
8
Layer 1
62
4
5
216
100
AcDbEntity
100
AcDbLine
10
240.997291
20
191.000010
30
0.0
11
236.993263
21
191.000010
31
0.0
0
LINE
8
Layer 1
62
4
5
217
100
AcDbEntity
100
AcDbLine
10
236.993263
20
191.000010
30
0.0
11
236.993263
21
195.004038
31
0.0
0
LINE
8
Layer 1
62
4
5
218
100
AcDbEntity
100
AcDbLine
10
236.993263
20
195.004038
30
0.0
11
217.996180
21
195.004038
31
0.0
0
LINE
8
Layer 1
62
4
5
219
100
AcDbEntity
100
AcDbLine
10
217.996180
20
195.004038
30
0.0
11
217.996180
21
191.000010
31
0.0
0
LINE
8
Layer 1
62
4
5
21a
100
AcDbEntity
100
AcDbLine
10
217.996180
20
191.000010
30
0.0
11
197.993680
21
191.000010
31
0.0
0
LINE
8
Layer 1
62
4
5
21b
100
AcDbEntity
100
AcDbLine
10
197.993680
20
191.000010
30
0.0
11
197.993680
21
195.145149
31
0.0
0
LINE
8
Layer 1
62
4
5
21c
100
AcDbEntity
100
AcDbLine
10
197.993680
20
195.145149
30
0.0
11
197.993680
21
195.145149
31
0.0
0
LINE
8
Layer 1
62
4
5
21d
100
AcDbEntity
100
AcDbLine
10
145.995971
20
176.000009
30
0.0
11
145.995971
21
160.001537
31
0.0
0
LINE
8
Layer 1
62
4
5
21e
100
AcDbEntity
100
AcDbLine
10
145.995971
20
160.001537
30
0.0
11
149.991180
21
160.001537
31
0.0
0
LINE
8
Layer 1
62
4
5
21f
100
AcDbEntity
100
AcDbLine
10
149.991180
20
160.001537
30
0.0
11
149.991180
21
155.997509
31
0.0
0
LINE
8
Layer 1
62
4
5
220
100
AcDbEntity
100
AcDbLine
10
149.991180
20
155.997509
30
0.0
11
169.993680
21
155.997509
31
0.0
0
LINE
8
Layer 1
62
4
5
221
100
AcDbEntity
100
AcDbLine
10
169.993680
20
155.997509
30
0.0
11
169.993680
21
160.001537
31
0.0
0
LINE
8
Layer 1
62
4
5
222
100
AcDbEntity
100
AcDbLine
10
169.993680
20
160.001537
30
0.0
11
189.996180
21
160.001537
31
0.0
0
LINE
8
Layer 1
62
4
5
223
100
AcDbEntity
100
AcDbLine
10
189.996180
20
160.001537
30
0.0
11
189.996180
21
155.997509
31
0.0
0
LINE
8
Layer 1
62
4
5
224
100
AcDbEntity
100
AcDbLine
10
189.996180
20
155.997509
30
0.0
11
209.989860
21
155.997509
31
0.0
0
LINE
8
Layer 1
62
4
5
225
100
AcDbEntity
100
AcDbLine
10
209.989860
20
155.997509
30
0.0
11
209.989860
21
160.001537
31
0.0
0
LINE
8
Layer 1
62
4
5
226
100
AcDbEntity
100
AcDbLine
10
209.989860
20
160.001537
30
0.0
11
229.992346
21
160.001537
31
0.0
0
LINE
8
Layer 1
62
4
5
227
100
AcDbEntity
100
AcDbLine
10
229.992346
20
160.001537
30
0.0
11
229.992346
21
155.997509
31
0.0
0
LINE
8
Layer 1
62
4
5
228
100
AcDbEntity
100
AcDbLine
10
229.992346
20
155.997509
30
0.0
11
248.989429
21
155.997509
31
0.0
0
LINE
8
Layer 1
62
4
5
229
100
AcDbEntity
100
AcDbLine
10
248.989429
20
155.997509
30
0.0
11
248.989429
21
160.001537
31
0.0
0
LINE
8
Layer 1
62
4
5
22a
100
AcDbEntity
100
AcDbLine
10
248.989429
20
160.001537
30
0.0
11
252.993485
21
160.001537
31
0.0
0
LINE
8
Layer 1
62
4
5
22b
100
AcDbEntity
100
AcDbLine
10
252.993485
20
160.001537
30
0.0
11
252.993485
21
169.993968
31
0.0
0
LINE
8
Layer 1
62
4
5
22c
100
AcDbEntity
100
AcDbLine
10
252.993485
20
169.993968
30
0.0
11
244.994235
21
169.993968
31
0.0
0
LINE
8
Layer 1
62
4
5
22d
100
AcDbEntity
100
AcDbLine
10
244.994235
20
169.993968
30
0.0
11
244.994235
21
173.001398
31
0.0
0
LINE
8
Layer 1
62
4
5
22e
100
AcDbEntity
100
AcDbLine
10
244.994235
20
173.001398
30
0.0
11
241.995624
21
173.001398
31
0.0
0
LINE
8
Layer 1
62
4
5
22f
100
AcDbEntity
100
AcDbLine
10
241.995624
20
173.001398
30
0.0
11
241.995624
21
169.993968
31
0.0
0
LINE
8
Layer 1
62
4
5
230
100
AcDbEntity
100
AcDbLine
10
241.995624
20
169.993968
30
0.0
11
238.997013
21
169.993968
31
0.0
0
LINE
8
Layer 1
62
4
5
231
100
AcDbEntity
100
AcDbLine
10
238.997013
20
169.993968
30
0.0
11
238.997013
21
166.995356
31
0.0
0
LINE
8
Layer 1
62
4
5
232
100
AcDbEntity
100
AcDbLine
10
238.997013
20
166.995356
30
0.0
11
149.999999
21
166.995356
31
0.0
0
LINE
8
Layer 1
62
4
5
233
100
AcDbEntity
100
AcDbLine
10
149.999999
20
166.995356
30
0.0
11
149.999999
21
176.000009
31
0.0
0
LINE
8
Layer 1
62
4
5
234
100
AcDbEntity
100
AcDbLine
10
149.999999
20
176.000009
30
0.0
11
145.995971
21
176.000009
31
0.0
0
LINE
8
Layer 1
62
4
5
235
100
AcDbEntity
100
AcDbLine
10
145.995971
20
176.000009
30
0.0
11
145.995971
21
176.000009
31
0.0
0
LINE
8
Layer 1
62
4
5
236
100
AcDbEntity
100
AcDbLine
10
313.997086
20
190.996483
30
0.0
11
301.993836
21
190.996483
31
0.0
0
LINE
8
Layer 1
62
4
5
237
100
AcDbEntity
100
AcDbLine
10
301.993836
20
190.996483
30
0.0
11
301.993836
21
195.000502
31
0.0
0
LINE
8
Layer 1
62
4
5
238
100
AcDbEntity
100
AcDbLine
10
301.993836
20
195.000502
30
0.0
11
289.990558
21
195.000502
31
0.0
0
LINE
8
Layer 1
62
4
5
239
100
AcDbEntity
100
AcDbLine
10
289.990558
20
195.000502
30
0.0
11
289.990558
21
190.996483
31
0.0
0
LINE
8
Layer 1
62
4
5
23a
100
AcDbEntity
100
AcDbLine
10
289.990558
20
190.996483
30
0.0
11
277.996111
21
190.996483
31
0.0
0
LINE
8
Layer 1
62
4
5
23b
100
AcDbEntity
100
AcDbLine
10
277.996111
20
190.996483
30
0.0
11
277.996111
21
195.000502
31
0.0
0
LINE
8
Layer 1
62
4
5
23c
100
AcDbEntity
100
AcDbLine
10
277.996111
20
195.000502
30
0.0
11
265.992822
21
195.000502
31
0.0
0
LINE
8
Layer 1
62
4
5
23d
100
AcDbEntity
100
AcDbLine
10
265.992822
20
195.000502
30
0.0
11
265.992822
21
190.996483
31
0.0
0
LINE
8
Layer 1
62
4
5
23e
100
AcDbEntity
100
AcDbLine
10
265.992822
20
190.996483
30
0.0
11
253.998377
21
190.996483
31
0.0
0
LINE
8
Layer 1
62
4
5
23f
100
AcDbEntity
100
AcDbLine
10
253.998377
20
190.996483
30
0.0
11
262.994211
21
177.000010
31
0.0
0
LINE
8
Layer 1
62
4
5
240
100
AcDbEntity
100
AcDbLine
10
262.994211
20
177.000010
30
0.0
11
295.000003
21
177.000010
31
0.0
0
LINE
8
Layer 1
62
4
5
241
100
AcDbEntity
100
AcDbLine
10
295.000003
20
177.000010
30
0.0
11
313.997086
21
190.996483
31
0.0
0
LINE
8
Layer 1
62
4
5
242
100
AcDbEntity
100
AcDbLine
10
313.997086
20
190.996483
30
0.0
11
313.997086
21
190.996483
31
0.0
0
LINE
8
Layer 1
62
4
5
243
100
AcDbEntity
100
AcDbLine
10
249.995972
20
185.999854
30
0.0
11
249.995972
21
181.995826
31
0.0
0
LINE
8
Layer 1
62
4
5
244
100
AcDbEntity
100
AcDbLine
10
249.995972
20
181.995826
30
0.0
11
253.991181
21
181.995826
31
0.0
0
LINE
8
Layer 1
62
4
5
245
100
AcDbEntity
100
AcDbLine
10
253.991181
20
181.995826
30
0.0
11
253.982361
21
160.000132
31
0.0
0
LINE
8
Layer 1
62
4
5
246
100
AcDbEntity
100
AcDbLine
10
253.982361
20
160.000132
30
0.0
11
265.985625
21
160.000132
31
0.0
0
LINE
8
Layer 1
62
4
5
247
100
AcDbEntity
100
AcDbLine
10
265.985625
20
160.000132
30
0.0
11
265.985625
21
155.996104
31
0.0
0
LINE
8
Layer 1
62
4
5
248
100
AcDbEntity
100
AcDbLine
10
265.985625
20
155.996104
30
0.0
11
277.988889
21
155.996104
31
0.0
0
LINE
8
Layer 1
62
4
5
249
100
AcDbEntity
100
AcDbLine
10
277.988889
20
155.996104
30
0.0
11
277.988889
21
160.000132
31
0.0
0
LINE
8
Layer 1
62
4
5
24a
100
AcDbEntity
100
AcDbLine
10
277.988889
20
160.000132
30
0.0
11
289.983333
21
160.000132
31
0.0
0
LINE
8
Layer 1
62
4
5
24b
100
AcDbEntity
100
AcDbLine
10
289.983333
20
160.000132
30
0.0
11
289.983333
21
155.996104
31
0.0
0
LINE
8
Layer 1
62
4
5
24c
100
AcDbEntity
100
AcDbLine
10
289.983333
20
155.996104
30
0.0
11
301.986583
21
155.996104
31
0.0
0
LINE
8
Layer 1
62
4
5
24d
100
AcDbEntity
100
AcDbLine
10
301.986583
20
155.996104
30
0.0
11
301.986583
21
160.000132
31
0.0
0
LINE
8
Layer 1
62
4
5
24e
100
AcDbEntity
100
AcDbLine
10
301.986583
20
160.000132
30
0.0
11
313.989861
21
160.000132
31
0.0
0
LINE
8
Layer 1
62
4
5
24f
100
AcDbEntity
100
AcDbLine
10
313.989861
20
160.000132
30
0.0
11
313.989861
21
182.004645
31
0.0
0
LINE
8
Layer 1
62
4
5
250
100
AcDbEntity
100
AcDbLine
10
313.989861
20
182.004645
30
0.0
11
317.985084
21
182.004645
31
0.0
0
LINE
8
Layer 1
62
4
5
251
100
AcDbEntity
100
AcDbLine
10
317.985084
20
182.004645
30
0.0
11
317.985084
21
185.999854
31
0.0
0
LINE
8
Layer 1
62
4
5
252
100
AcDbEntity
100
AcDbLine
10
317.985084
20
185.999854
30
0.0
11
308.565917
21
185.999854
31
0.0
0
LINE
8
Layer 1
62
4
5
253
100
AcDbEntity
100
AcDbLine
10
308.565917
20
185.999854
30
0.0
11
294.992778
21
175.998604
31
0.0
0
LINE
8
Layer 1
62
4
5
254
100
AcDbEntity
100
AcDbLine
10
294.992778
20
175.998604
30
0.0
11
294.992778
21
167.002770
31
0.0
0
LINE
8
Layer 1
62
4
5
255
100
AcDbEntity
100
AcDbLine
10
294.992778
20
167.002770
30
0.0
11
262.987014
21
167.002770
31
0.0
0
LINE
8
Layer 1
62
4
5
256
100
AcDbEntity
100
AcDbLine
10
262.987014
20
167.002770
30
0.0
11
262.987014
21
175.998604
31
0.0
0
LINE
8
Layer 1
62
4
5
257
100
AcDbEntity
100
AcDbLine
10
262.987014
20
175.998604
30
0.0
11
256.557639
21
185.999854
31
0.0
0
LINE
8
Layer 1
62
4
5
258
100
AcDbEntity
100
AcDbLine
10
256.557639
20
185.999854
30
0.0
11
253.991181
21
185.999854
31
0.0
0
LINE
8
Layer 1
62
4
5
259
100
AcDbEntity
100
AcDbLine
10
253.991181
20
185.999854
30
0.0
11
249.995972
21
185.999854
31
0.0
0
LINE
8
Layer 1
62
4
5
25a
100
AcDbEntity
100
AcDbLine
10
249.995972
20
185.999854
30
0.0
11
249.995972
21
185.999854
31
0.0
0
LINE
8
Layer 1
62
4
5
25b
100
AcDbEntity
100
AcDbLine
10
256.500001
20
202.500010
30
0.0
11
256.304579
21
201.746664
31
0.0
0
LINE
8
Layer 1
62
4
5
25c
100
AcDbEntity
100
AcDbLine
10
256.304579
20
201.746664
30
0.0
11
255.750189
21
201.200430
31
0.0
0
LINE
8
Layer 1
62
4
5
25d
100
AcDbEntity
100
AcDbLine
10
255.750189
20
201.200430
30
0.0
11
255.000001
21
200.993214
31
0.0
0
LINE
8
Layer 1
62
4
5
25e
100
AcDbEntity
100
AcDbLine
10
255.000001
20
200.993214
30
0.0
11
254.249813
21
201.200430
31
0.0
0
LINE
8
Layer 1
62
4
5
25f
100
AcDbEntity
100
AcDbLine
10
254.249813
20
201.200430
30
0.0
11
253.695423
21
201.746664
31
0.0
0
LINE
8
Layer 1
62
4
5
260
100
AcDbEntity
100
AcDbLine
10
253.695423
20
201.746664
30
0.0
11
253.500001
21
202.500010
31
0.0
0
LINE
8
Layer 1
62
4
5
261
100
AcDbEntity
100
AcDbLine
10
253.500001
20
202.500010
30
0.0
11
253.695423
21
203.253357
31
0.0
0
LINE
8
Layer 1
62
4
5
262
100
AcDbEntity
100
AcDbLine
10
253.695423
20
203.253357
30
0.0
11
254.249813
21
203.799591
31
0.0
0
LINE
8
Layer 1
62
4
5
263
100
AcDbEntity
100
AcDbLine
10
254.249813
20
203.799591
30
0.0
11
255.000001
21
204.006807
31
0.0
0
LINE
8
Layer 1
62
4
5
264
100
AcDbEntity
100
AcDbLine
10
255.000001
20
204.006807
30
0.0
11
255.750189
21
203.799591
31
0.0
0
LINE
8
Layer 1
62
4
5
265
100
AcDbEntity
100
AcDbLine
10
255.750189
20
203.799591
30
0.0
11
256.304579
21
203.253357
31
0.0
0
LINE
8
Layer 1
62
4
5
266
100
AcDbEntity
100
AcDbLine
10
256.304579
20
203.253357
30
0.0
11
256.500001
21
202.500010
31
0.0
0
LINE
8
Layer 1
62
4
5
267
100
AcDbEntity
100
AcDbLine
10
256.500001
20
202.500010
30
0.0
11
256.500001
21
202.500010
31
0.0
0
LINE
8
Layer 1
62
4
5
268
100
AcDbEntity
100
AcDbLine
10
259.999999
20
241.000009
30
0.0
11
264.000000
21
241.000009
31
0.0
0
LINE
8
Layer 1
62
4
5
269
100
AcDbEntity
100
AcDbLine
10
264.000000
20
241.000009
30
0.0
11
264.000000
21
245.000010
31
0.0
0
LINE
8
Layer 1
62
4
5
26a
100
AcDbEntity
100
AcDbLine
10
264.000000
20
245.000010
30
0.0
11
259.999999
21
245.000010
31
0.0
0
LINE
8
Layer 1
62
4
5
26b
100
AcDbEntity
100
AcDbLine
10
259.999999
20
245.000010
30
0.0
11
259.999999
21
241.000009
31
0.0
0
LINE
8
Layer 1
62
4
5
26c
100
AcDbEntity
100
AcDbLine
10
259.999999
20
241.000009
30
0.0
11
259.999999
21
241.000009
31
0.0
0
LINE
8
Layer 1
62
4
5
26d
100
AcDbEntity
100
AcDbLine
10
64.000002
20
190.000009
30
0.0
11
64.000002
21
192.000005
31
0.0
0
LINE
8
Layer 1
62
4
5
26e
100
AcDbEntity
100
AcDbLine
10
64.000002
20
192.000005
30
0.0
11
62.000000
21
192.000005
31
0.0
0
LINE
8
Layer 1
62
4
5
26f
100
AcDbEntity
100
AcDbLine
10
62.000000
20
192.000005
30
0.0
11
62.000000
21
190.000009
31
0.0
0
LINE
8
Layer 1
62
4
5
270
100
AcDbEntity
100
AcDbLine
10
62.000000
20
190.000009
30
0.0
11
53.000001
21
190.000009
31
0.0
0
LINE
8
Layer 1
62
4
5
271
100
AcDbEntity
100
AcDbLine
10
53.000001
20
190.000009
30
0.0
11
53.000001
21
186.000009
31
0.0
0
LINE
8
Layer 1
62
4
5
272
100
AcDbEntity
100
AcDbLine
10
53.000001
20
186.000009
30
0.0
11
62.000000
21
185.999989
31
0.0
0
LINE
8
Layer 1
62
4
5
273
100
AcDbEntity
100
AcDbLine
10
62.000000
20
185.999989
30
0.0
11
62.000000
21
183.999993
31
0.0
0
LINE
8
Layer 1
62
4
5
274
100
AcDbEntity
100
AcDbLine
10
62.000000
20
183.999993
30
0.0
11
64.000002
21
183.999993
31
0.0
0
LINE
8
Layer 1
62
4
5
275
100
AcDbEntity
100
AcDbLine
10
64.000002
20
183.999993
30
0.0
11
64.000002
21
185.999989
31
0.0
0
LINE
8
Layer 1
62
4
5
276
100
AcDbEntity
100
AcDbLine
10
64.000002
20
185.999989
30
0.0
11
70.999999
21
186.000009
31
0.0
0
LINE
8
Layer 1
62
4
5
277
100
AcDbEntity
100
AcDbLine
10
70.999999
20
186.000009
30
0.0
11
71.085937
21
185.671885
31
0.0
0
LINE
8
Layer 1
62
4
5
278
100
AcDbEntity
100
AcDbLine
10
71.085937
20
185.671885
30
0.0
11
71.312499
21
185.437510
31
0.0
0
LINE
8
Layer 1
62
4
5
279
100
AcDbEntity
100
AcDbLine
10
71.312499
20
185.437510
30
0.0
11
72.000000
21
185.250008
31
0.0
0
LINE
8
Layer 1
62
4
5
27a
100
AcDbEntity
100
AcDbLine
10
72.000000
20
185.250008
30
0.0
11
72.687502
21
185.437502
31
0.0
0
LINE
8
Layer 1
62
4
5
27b
100
AcDbEntity
100
AcDbLine
10
72.687502
20
185.437502
30
0.0
11
72.914065
21
185.671871
31
0.0
0
LINE
8
Layer 1
62
4
5
27c
100
AcDbEntity
100
AcDbLine
10
72.914065
20
185.671871
30
0.0
11
73.000004
21
185.999989
31
0.0
0
LINE
8
Layer 1
62
4
5
27d
100
AcDbEntity
100
AcDbLine
10
73.000004
20
185.999989
30
0.0
11
73.000004
21
190.000009
31
0.0
0
LINE
8
Layer 1
62
4
5
27e
100
AcDbEntity
100
AcDbLine
10
73.000004
20
190.000009
30
0.0
11
72.914065
21
190.328135
31
0.0
0
LINE
8
Layer 1
62
4
5
27f
100
AcDbEntity
100
AcDbLine
10
72.914065
20
190.328135
30
0.0
11
72.687502
21
190.562510
31
0.0
0
LINE
8
Layer 1
62
4
5
280
100
AcDbEntity
100
AcDbLine
10
72.687502
20
190.562510
30
0.0
11
72.000000
21
190.750010
31
0.0
0
LINE
8
Layer 1
62
4
5
281
100
AcDbEntity
100
AcDbLine
10
72.000000
20
190.750010
30
0.0
11
71.312499
21
190.562510
31
0.0
0
LINE
8
Layer 1
62
4
5
282
100
AcDbEntity
100
AcDbLine
10
71.312499
20
190.562510
30
0.0
11
71.085937
21
190.328135
31
0.0
0
LINE
8
Layer 1
62
4
5
283
100
AcDbEntity
100
AcDbLine
10
71.085937
20
190.328135
30
0.0
11
70.999999
21
190.000009
31
0.0
0
LINE
8
Layer 1
62
4
5
284
100
AcDbEntity
100
AcDbLine
10
70.999999
20
190.000009
30
0.0
11
64.000002
21
190.000009
31
0.0
0
LINE
8
Layer 1
62
4
5
285
100
AcDbEntity
100
AcDbLine
10
64.000002
20
190.000009
30
0.0
11
64.000002
21
190.000009
31
0.0
  0
ENDSEC
  0
SECTION
  2
OBJECTS
  0
DICTIONARY
  5
C
330
0
100
AcDbDictionary
  3
ACAD_GROUP
350
D
  3
ACAD_MLINESTYLE
350
17
  0
DICTIONARY
  5
D
330
C
100
AcDbDictionary
  0
DICTIONARY
  5
1A
330
C
100
AcDbDictionary
  0
DICTIONARY
  5
17
330
C
100
AcDbDictionary
  3
STANDARD
350
18
  0
DICTIONARY
  5
19
330
C
100
AcDbDictionary
  0
ENDSEC
  0
EOF
