999
Inkscape export via "Better Better DXF Output" (http://tim.cexx.org/?p=590)
  0
SECTION
  2
HEADER
  9
$ACADVER
  1
AC1014
  9
$HANDSEED
  5
FFFF
  0
ENDSEC
  0
SECTION
  2
TABLES
  0
TABLE
  2
VPORT
  5
8
330
0
100
AcDbSymbolTable
 70
     4
  0
VPORT
  5
2E
330
8
100
AcDbSymbolTableRecord
100
AcDbViewportTableRecord
  2
*ACTIVE
 70
     0
 10
0.0
 20
0.0
 11
1.0
 21
1.0
 12
4.25
 22
5.5
 13
0.0
 23
0.0
 14
10.0
 24
10.0
 15
10.0
 25
10.0
 16
0.0
 26
0.0
 36
1.0
 17
0.0
 27
0.0
 37
0.0
 40
11
 41
1.24
 42
50.0
 43
0.0
 44
0.0
 50
0.0
 51
0.0
 71
     0
 72
   100
 73
     1
 74
     3
 75
     0
 76
     0
 77
     0
 78
     0
  0
ENDTAB
  0
TABLE
  2
LTYPE
  5
5
330
0
100
AcDbSymbolTable
 70
     1
  0
LTYPE
  5
14
330
5
100
AcDbSymbolTableRecord
100
AcDbLinetypeTableRecord
  2
BYBLOCK
 70
     0
  3

 72
    65
 73
     0
 40
0.0
  0
LTYPE
  5
15
330
5
100
AcDbSymbolTableRecord
100
AcDbLinetypeTableRecord
  2
BYLAYER
 70
     0
  3

 72
    65
 73
     0
 40
0.0
  0
LTYPE
  5
16
330
5
100
AcDbSymbolTableRecord
100
AcDbLinetypeTableRecord
  2
CONTINUOUS
 70
     0
  3
Solid line
 72
    65
 73
     0
 40
0.0
  0
ENDTAB
  0
TABLE
  2
STYLE
  5
3
330
0
100
AcDbSymbolTable
 70
     1
  0
STYLE
  5
11
330
3
100
AcDbSymbolTableRecord
100
AcDbTextStyleTableRecord
  2
STANDARD
 70
     0
 40
0.0
 41
1.0
 50
0.0
 71
     0
 42
2.5
  3
txt
  4

  0
ENDTAB
  0
TABLE
  2
VIEW
  5
6
330
0
100
AcDbSymbolTable
 70
     0
  0
ENDTAB
  0
TABLE
  2
UCS
  5
7
330
0
100
AcDbSymbolTable
 70
     0
  0
ENDTAB
  0
TABLE
  2
APPID
  5
9
330
0
100
AcDbSymbolTable
 70
     2
  0
APPID
  5
12
330
9
100
AcDbSymbolTableRecord
100
AcDbRegAppTableRecord
  2
ACAD
 70
     0
  0
ENDTAB
  0
TABLE
  2
DIMSTYLE
  5
A
330
0
100
AcDbSymbolTable
 70
     1
  0
DIMSTYLE
105
27
330
A
100
AcDbSymbolTableRecord
100
AcDbDimStyleTableRecord
  2
ISO-25
 70
     0
  3

  4

  5

  6

  7

 40
1.0
 41
2.5
 42
0.625
 43
3.75
 44
1.25
 45
0.0
 46
0.0
 47
0.0
 48
0.0
140
2.5
141
2.5
142
0.0
143
0.03937007874016
144
1.0
145
0.0
146
1.0
147
0.625
 71
     0
 72
     0
 73
     0
 74
     0
 75
     0
 76
     0
 77
     1
 78
     8
170
     0
171
     3
172
     1
173
     0
174
     0
175
     0
176
     0
177
     0
178
     0
270
     2
271
     2
272
     2
273
     2
274
     3
340
11
275
     0
280
     0
281
     0
282
     0
283
     0
284
     8
285
     0
286
     0
287
     3
288
     0
  0
ENDTAB
  0
TABLE
  2
BLOCK_RECORD
  5
1
330
0
100
AcDbSymbolTable
 70
     1
  0
BLOCK_RECORD
  5
1F
330
1
100
AcDbSymbolTableRecord
100
AcDbBlockTableRecord
  2
*MODEL_SPACE
  0
BLOCK_RECORD
  5
1B
330
1
100
AcDbSymbolTableRecord
100
AcDbBlockTableRecord
  2
*PAPER_SPACE
  0
ENDTAB
0
TABLE
2
LAYER
5
2
330
0
100
AcDbSymbolTable
70
1
0
LAYER
5
10
330
2
100
AcDbSymbolTableRecord
100
AcDbLayerTableRecord
2
text
70
0
62
7
6
CONTINUOUS
0
ENDTAB
0
ENDSEC
  0
SECTION
  2
BLOCKS
  0
BLOCK
  5
20
330
1F
100
AcDbEntity
  8
0
100
AcDbBlockBegin
  2
*MODEL_SPACE
 70
     0
 10
0.0
 20
0.0
 30
0.0
  3
*MODEL_SPACE
  1

  0
ENDBLK
  5
21
330
1F
100
AcDbEntity
  8
0
100
AcDbBlockEnd
  0
BLOCK
  5
1C
330
1B
100
AcDbEntity
 67
     1
  8
0
100
AcDbBlockBegin
  2
*PAPER_SPACE
  1

  0
ENDBLK
  5
1D
330
1B
100
AcDbEntity
 67
     1
  8
0
100
AcDbBlockEnd
  0
ENDSEC
  0
SECTION
  2
ENTITIES
0
LINE
8
text
62
4
5
100
100
AcDbEntity
100
AcDbLine
10
185.499990
20
256.000010
30
0.0
11
185.304568
21
254.995549
31
0.0
0
LINE
8
text
62
4
5
101
100
AcDbEntity
100
AcDbLine
10
185.304568
20
254.995549
30
0.0
11
184.750178
21
254.267236
31
0.0
0
LINE
8
text
62
4
5
102
100
AcDbEntity
100
AcDbLine
10
184.750178
20
254.267236
30
0.0
11
183.999990
21
253.990949
31
0.0
0
LINE
8
text
62
4
5
103
100
AcDbEntity
100
AcDbLine
10
183.999990
20
253.990949
30
0.0
11
183.249803
21
254.267236
31
0.0
0
LINE
8
text
62
4
5
104
100
AcDbEntity
100
AcDbLine
10
183.249803
20
254.267236
30
0.0
11
182.695412
21
254.995549
31
0.0
0
LINE
8
text
62
4
5
105
100
AcDbEntity
100
AcDbLine
10
182.695412
20
254.995549
30
0.0
11
182.499991
21
256.000010
31
0.0
0
LINE
8
text
62
4
5
106
100
AcDbEntity
100
AcDbLine
10
182.499991
20
256.000010
30
0.0
11
182.695412
21
257.004472
31
0.0
0
LINE
8
text
62
4
5
107
100
AcDbEntity
100
AcDbLine
10
182.695412
20
257.004472
30
0.0
11
183.249803
21
257.732784
31
0.0
0
LINE
8
text
62
4
5
108
100
AcDbEntity
100
AcDbLine
10
183.249803
20
257.732784
30
0.0
11
183.999990
21
258.009072
31
0.0
0
LINE
8
text
62
4
5
109
100
AcDbEntity
100
AcDbLine
10
183.999990
20
258.009072
30
0.0
11
184.750178
21
257.732784
31
0.0
0
LINE
8
text
62
4
5
10a
100
AcDbEntity
100
AcDbLine
10
184.750178
20
257.732784
30
0.0
11
185.304568
21
257.004472
31
0.0
0
LINE
8
text
62
4
5
10b
100
AcDbEntity
100
AcDbLine
10
185.304568
20
257.004472
30
0.0
11
185.499990
21
256.000010
31
0.0
0
LINE
8
text
62
4
5
10c
100
AcDbEntity
100
AcDbLine
10
185.499990
20
256.000010
30
0.0
11
185.499990
21
256.000010
31
0.0
0
LINE
8
text
62
4
5
10d
100
AcDbEntity
100
AcDbLine
10
187.999988
20
254.000008
30
0.0
11
186.999987
21
258.000009
31
0.0
0
LINE
8
text
62
4
5
10e
100
AcDbEntity
100
AcDbLine
10
186.999987
20
258.000009
30
0.0
11
185.999989
21
254.000008
31
0.0
0
LINE
8
text
62
4
5
10f
100
AcDbEntity
100
AcDbLine
10
185.999989
20
254.000008
30
0.0
11
185.999989
21
254.000008
31
0.0
0
LINE
8
text
62
4
5
110
100
AcDbEntity
100
AcDbLine
10
188.999989
20
254.000008
30
0.0
11
189.945301
21
254.085946
31
0.0
0
LINE
8
text
62
4
5
111
100
AcDbEntity
100
AcDbLine
10
189.945301
20
254.085946
30
0.0
11
190.562489
21
254.312509
31
0.0
0
LINE
8
text
62
4
5
112
100
AcDbEntity
100
AcDbLine
10
190.562489
20
254.312509
30
0.0
11
190.898426
21
254.632821
31
0.0
0
LINE
8
text
62
4
5
113
100
AcDbEntity
100
AcDbLine
10
190.898426
20
254.632821
30
0.0
11
190.999988
21
255.000009
31
0.0
0
LINE
8
text
62
4
5
114
100
AcDbEntity
100
AcDbLine
10
190.999988
20
255.000009
30
0.0
11
190.914050
21
255.367197
31
0.0
0
LINE
8
text
62
4
5
115
100
AcDbEntity
100
AcDbLine
10
190.914050
20
255.367197
30
0.0
11
190.687487
21
255.687510
31
0.0
0
LINE
8
text
62
4
5
116
100
AcDbEntity
100
AcDbLine
10
190.687487
20
255.687510
30
0.0
11
190.367175
21
255.914073
31
0.0
0
LINE
8
text
62
4
5
117
100
AcDbEntity
100
AcDbLine
10
190.367175
20
255.914073
30
0.0
11
189.999987
21
256.000010
31
0.0
0
LINE
8
text
62
4
5
118
100
AcDbEntity
100
AcDbLine
10
189.999987
20
256.000010
30
0.0
11
189.171863
21
256.312510
31
0.0
0
LINE
8
text
62
4
5
119
100
AcDbEntity
100
AcDbLine
10
189.171863
20
256.312510
30
0.0
11
188.822254
21
256.632822
31
0.0
0
LINE
8
text
62
4
5
11a
100
AcDbEntity
100
AcDbLine
10
188.822254
20
256.632822
30
0.0
11
188.624988
21
257.000010
31
0.0
0
LINE
8
text
62
4
5
11b
100
AcDbEntity
100
AcDbLine
10
188.624988
20
257.000010
30
0.0
11
188.662097
21
257.367197
31
0.0
0
LINE
8
text
62
4
5
11c
100
AcDbEntity
100
AcDbLine
10
188.662097
20
257.367197
30
0.0
11
189.015613
21
257.687509
31
0.0
0
LINE
8
text
62
4
5
11d
100
AcDbEntity
100
AcDbLine
10
189.015613
20
257.687509
30
0.0
11
189.767566
21
257.914071
31
0.0
0
LINE
8
text
62
4
5
11e
100
AcDbEntity
100
AcDbLine
10
189.767566
20
257.914071
30
0.0
11
190.999988
21
258.000009
31
0.0
0
LINE
8
text
62
4
5
11f
100
AcDbEntity
100
AcDbLine
10
197.858902
20
253.858900
30
0.0
11
197.858902
21
257.858898
31
0.0
0
LINE
8
text
62
4
5
120
100
AcDbEntity
100
AcDbLine
10
199.858901
20
253.858900
30
0.0
11
195.858900
21
253.858900
31
0.0
0
LINE
8
text
62
4
5
121
100
AcDbEntity
100
AcDbLine
10
200.858902
20
255.858899
30
0.0
11
201.054324
21
256.863361
31
0.0
0
LINE
8
text
62
4
5
122
100
AcDbEntity
100
AcDbLine
10
201.054324
20
256.863361
30
0.0
11
201.608714
21
257.591673
31
0.0
0
LINE
8
text
62
4
5
123
100
AcDbEntity
100
AcDbLine
10
201.608714
20
257.591673
30
0.0
11
202.358902
21
257.867961
31
0.0
0
LINE
8
text
62
4
5
124
100
AcDbEntity
100
AcDbLine
10
202.358902
20
257.867961
30
0.0
11
203.109089
21
257.591673
31
0.0
0
LINE
8
text
62
4
5
125
100
AcDbEntity
100
AcDbLine
10
203.109089
20
257.591673
30
0.0
11
203.663480
21
256.863361
31
0.0
0
LINE
8
text
62
4
5
126
100
AcDbEntity
100
AcDbLine
10
203.663480
20
256.863361
30
0.0
11
203.858901
21
255.858899
31
0.0
0
LINE
8
text
62
4
5
127
100
AcDbEntity
100
AcDbLine
10
203.858901
20
255.858899
30
0.0
11
203.663480
21
254.854437
31
0.0
0
LINE
8
text
62
4
5
128
100
AcDbEntity
100
AcDbLine
10
203.663480
20
254.854437
30
0.0
11
203.109089
21
254.126125
31
0.0
0
LINE
8
text
62
4
5
129
100
AcDbEntity
100
AcDbLine
10
203.109089
20
254.126125
30
0.0
11
202.358902
21
253.849837
31
0.0
0
LINE
8
text
62
4
5
12a
100
AcDbEntity
100
AcDbLine
10
202.358902
20
253.849837
30
0.0
11
201.608714
21
254.126125
31
0.0
0
LINE
8
text
62
4
5
12b
100
AcDbEntity
100
AcDbLine
10
201.608714
20
254.126125
30
0.0
11
201.054324
21
254.854437
31
0.0
0
LINE
8
text
62
4
5
12c
100
AcDbEntity
100
AcDbLine
10
201.054324
20
254.854437
30
0.0
11
200.858902
21
255.858899
31
0.0
0
LINE
8
text
62
4
5
12d
100
AcDbEntity
100
AcDbLine
10
200.858902
20
255.858899
30
0.0
11
200.858902
21
255.858899
31
0.0
0
LINE
8
text
62
4
5
12e
100
AcDbEntity
100
AcDbLine
10
208.858903
20
257.858898
30
0.0
11
208.858903
21
253.858900
31
0.0
0
LINE
8
text
62
4
5
12f
100
AcDbEntity
100
AcDbLine
10
208.858903
20
253.858900
30
0.0
11
206.858901
21
255.858899
31
0.0
0
LINE
8
text
62
4
5
130
100
AcDbEntity
100
AcDbLine
10
206.858901
20
255.858899
30
0.0
11
204.858902
21
253.858900
31
0.0
0
LINE
8
text
62
4
5
131
100
AcDbEntity
100
AcDbLine
10
204.858902
20
253.858900
30
0.0
11
204.858902
21
257.858898
31
0.0
0
LINE
8
text
62
4
5
132
100
AcDbEntity
100
AcDbLine
10
219.641124
20
254.141120
30
0.0
11
218.641126
21
258.141117
31
0.0
0
LINE
8
text
62
4
5
133
100
AcDbEntity
100
AcDbLine
10
218.641126
20
258.141117
30
0.0
11
217.641125
21
256.141118
31
0.0
0
LINE
8
text
62
4
5
134
100
AcDbEntity
100
AcDbLine
10
217.641125
20
256.141118
30
0.0
11
216.641124
21
258.141117
31
0.0
0
LINE
8
text
62
4
5
135
100
AcDbEntity
100
AcDbLine
10
216.641124
20
258.141117
30
0.0
11
215.641126
21
254.141120
31
0.0
0
LINE
8
text
62
4
5
136
100
AcDbEntity
100
AcDbLine
10
215.641126
20
254.141120
30
0.0
11
215.641126
21
254.141120
31
0.0
0
LINE
8
text
62
4
5
137
100
AcDbEntity
100
AcDbLine
10
220.641124
20
254.141120
30
0.0
11
221.586437
21
254.227057
31
0.0
0
LINE
8
text
62
4
5
138
100
AcDbEntity
100
AcDbLine
10
221.586437
20
254.227057
30
0.0
11
222.203624
21
254.453620
31
0.0
0
LINE
8
text
62
4
5
139
100
AcDbEntity
100
AcDbLine
10
222.203624
20
254.453620
30
0.0
11
222.539561
21
254.773933
31
0.0
0
LINE
8
text
62
4
5
13a
100
AcDbEntity
100
AcDbLine
10
222.539561
20
254.773933
30
0.0
11
222.641124
21
255.141120
31
0.0
0
LINE
8
text
62
4
5
13b
100
AcDbEntity
100
AcDbLine
10
222.641124
20
255.141120
30
0.0
11
222.555186
21
255.508308
31
0.0
0
LINE
8
text
62
4
5
13c
100
AcDbEntity
100
AcDbLine
10
222.555186
20
255.508308
30
0.0
11
222.328623
21
255.828621
31
0.0
0
LINE
8
text
62
4
5
13d
100
AcDbEntity
100
AcDbLine
10
222.328623
20
255.828621
30
0.0
11
222.008310
21
256.055184
31
0.0
0
LINE
8
text
62
4
5
13e
100
AcDbEntity
100
AcDbLine
10
222.008310
20
256.055184
30
0.0
11
221.641122
21
256.141121
31
0.0
0
LINE
8
text
62
4
5
13f
100
AcDbEntity
100
AcDbLine
10
221.641122
20
256.141121
30
0.0
11
220.812998
21
256.453621
31
0.0
0
LINE
8
text
62
4
5
140
100
AcDbEntity
100
AcDbLine
10
220.812998
20
256.453621
30
0.0
11
220.463389
21
256.773933
31
0.0
0
LINE
8
text
62
4
5
141
100
AcDbEntity
100
AcDbLine
10
220.463389
20
256.773933
30
0.0
11
220.266123
21
257.141121
31
0.0
0
LINE
8
text
62
4
5
142
100
AcDbEntity
100
AcDbLine
10
220.266123
20
257.141121
30
0.0
11
220.303233
21
257.508308
31
0.0
0
LINE
8
text
62
4
5
143
100
AcDbEntity
100
AcDbLine
10
220.303233
20
257.508308
30
0.0
11
220.656748
21
257.828620
31
0.0
0
LINE
8
text
62
4
5
144
100
AcDbEntity
100
AcDbLine
10
220.656748
20
257.828620
30
0.0
11
221.408701
21
258.055183
31
0.0
0
LINE
8
text
62
4
5
145
100
AcDbEntity
100
AcDbLine
10
221.408701
20
258.055183
30
0.0
11
222.641123
21
258.141120
31
0.0
0
LINE
8
text
62
4
5
146
100
AcDbEntity
100
AcDbLine
10
222.641123
20
253.141119
30
0.0
11
222.641123
21
249.141121
31
0.0
0
LINE
8
text
62
4
5
147
100
AcDbEntity
100
AcDbLine
10
222.641123
20
249.141121
30
0.0
11
221.984873
21
249.227059
31
0.0
0
LINE
8
text
62
4
5
148
100
AcDbEntity
100
AcDbLine
10
221.984873
20
249.227059
30
0.0
11
221.516122
21
249.453621
31
0.0
0
LINE
8
text
62
4
5
149
100
AcDbEntity
100
AcDbLine
10
221.516122
20
249.453621
30
0.0
11
221.234872
21
249.773933
31
0.0
0
LINE
8
text
62
4
5
14a
100
AcDbEntity
100
AcDbLine
10
221.234872
20
249.773933
30
0.0
11
221.141122
21
250.141121
31
0.0
0
LINE
8
text
62
4
5
14b
100
AcDbEntity
100
AcDbLine
10
221.141122
20
250.141121
30
0.0
11
221.234872
21
250.508308
31
0.0
0
LINE
8
text
62
4
5
14c
100
AcDbEntity
100
AcDbLine
10
221.234872
20
250.508308
30
0.0
11
221.516122
21
250.828620
31
0.0
0
LINE
8
text
62
4
5
14d
100
AcDbEntity
100
AcDbLine
10
221.516122
20
250.828620
30
0.0
11
221.984873
21
251.055182
31
0.0
0
LINE
8
text
62
4
5
14e
100
AcDbEntity
100
AcDbLine
10
221.984873
20
251.055182
30
0.0
11
222.641123
21
251.141120
31
0.0
0
LINE
8
text
62
4
5
14f
100
AcDbEntity
100
AcDbLine
10
220.641122
20
249.141121
30
0.0
11
219.641124
21
253.141119
31
0.0
0
LINE
8
text
62
4
5
150
100
AcDbEntity
100
AcDbLine
10
219.641124
20
253.141119
30
0.0
11
218.641123
21
251.141120
31
0.0
0
LINE
8
text
62
4
5
151
100
AcDbEntity
100
AcDbLine
10
218.641123
20
251.141120
30
0.0
11
217.641122
21
253.141119
31
0.0
0
LINE
8
text
62
4
5
152
100
AcDbEntity
100
AcDbLine
10
217.641122
20
253.141119
30
0.0
11
216.641124
21
249.141121
31
0.0
0
LINE
8
text
62
4
5
153
100
AcDbEntity
100
AcDbLine
10
216.641124
20
249.141121
30
0.0
11
216.641124
21
249.141121
31
0.0
0
LINE
8
text
62
4
5
154
100
AcDbEntity
100
AcDbLine
10
215.641123
20
253.141119
30
0.0
11
215.641123
21
249.141121
31
0.0
0
LINE
8
text
62
4
5
155
100
AcDbEntity
100
AcDbLine
10
215.641123
20
249.141121
30
0.0
11
214.984873
21
249.227059
31
0.0
0
LINE
8
text
62
4
5
156
100
AcDbEntity
100
AcDbLine
10
214.984873
20
249.227059
30
0.0
11
214.516122
21
249.453621
31
0.0
0
LINE
8
text
62
4
5
157
100
AcDbEntity
100
AcDbLine
10
214.516122
20
249.453621
30
0.0
11
214.234872
21
249.773933
31
0.0
0
LINE
8
text
62
4
5
158
100
AcDbEntity
100
AcDbLine
10
214.234872
20
249.773933
30
0.0
11
214.141122
21
250.141121
31
0.0
0
LINE
8
text
62
4
5
159
100
AcDbEntity
100
AcDbLine
10
214.141122
20
250.141121
30
0.0
11
214.234872
21
250.508308
31
0.0
0
LINE
8
text
62
4
5
15a
100
AcDbEntity
100
AcDbLine
10
214.234872
20
250.508308
30
0.0
11
214.516122
21
250.828620
31
0.0
0
LINE
8
text
62
4
5
15b
100
AcDbEntity
100
AcDbLine
10
214.516122
20
250.828620
30
0.0
11
214.984873
21
251.055182
31
0.0
0
LINE
8
text
62
4
5
15c
100
AcDbEntity
100
AcDbLine
10
214.984873
20
251.055182
30
0.0
11
215.641123
21
251.141120
31
0.0
0
LINE
8
text
62
4
5
15d
100
AcDbEntity
100
AcDbLine
10
215.641123
20
251.141120
30
0.0
11
214.641122
21
253.141119
31
0.0
0
LINE
8
text
62
4
5
15e
100
AcDbEntity
100
AcDbLine
10
240.999992
20
254.000011
30
0.0
11
239.999994
21
258.000009
31
0.0
0
LINE
8
text
62
4
5
15f
100
AcDbEntity
100
AcDbLine
10
239.999994
20
258.000009
30
0.0
11
238.999993
21
256.000010
31
0.0
0
LINE
8
text
62
4
5
160
100
AcDbEntity
100
AcDbLine
10
238.999993
20
256.000010
30
0.0
11
237.999992
21
258.000009
31
0.0
0
LINE
8
text
62
4
5
161
100
AcDbEntity
100
AcDbLine
10
237.999992
20
258.000009
30
0.0
11
236.999994
21
254.000011
31
0.0
0
LINE
8
text
62
4
5
162
100
AcDbEntity
100
AcDbLine
10
236.999994
20
254.000011
30
0.0
11
236.999994
21
254.000011
31
0.0
0
LINE
8
text
62
4
5
163
100
AcDbEntity
100
AcDbLine
10
241.999993
20
254.000008
30
0.0
11
242.945305
21
254.085946
31
0.0
0
LINE
8
text
62
4
5
164
100
AcDbEntity
100
AcDbLine
10
242.945305
20
254.085946
30
0.0
11
243.562493
21
254.312509
31
0.0
0
LINE
8
text
62
4
5
165
100
AcDbEntity
100
AcDbLine
10
243.562493
20
254.312509
30
0.0
11
243.898430
21
254.632821
31
0.0
0
LINE
8
text
62
4
5
166
100
AcDbEntity
100
AcDbLine
10
243.898430
20
254.632821
30
0.0
11
243.999992
21
255.000009
31
0.0
0
LINE
8
text
62
4
5
167
100
AcDbEntity
100
AcDbLine
10
243.999992
20
255.000009
30
0.0
11
243.914054
21
255.367197
31
0.0
0
LINE
8
text
62
4
5
168
100
AcDbEntity
100
AcDbLine
10
243.914054
20
255.367197
30
0.0
11
243.687492
21
255.687510
31
0.0
0
LINE
8
text
62
4
5
169
100
AcDbEntity
100
AcDbLine
10
243.687492
20
255.687510
30
0.0
11
243.367179
21
255.914073
31
0.0
0
LINE
8
text
62
4
5
16a
100
AcDbEntity
100
AcDbLine
10
243.367179
20
255.914073
30
0.0
11
242.999991
21
256.000010
31
0.0
0
LINE
8
text
62
4
5
16b
100
AcDbEntity
100
AcDbLine
10
242.999991
20
256.000010
30
0.0
11
242.171867
21
256.312510
31
0.0
0
LINE
8
text
62
4
5
16c
100
AcDbEntity
100
AcDbLine
10
242.171867
20
256.312510
30
0.0
11
241.822258
21
256.632822
31
0.0
0
LINE
8
text
62
4
5
16d
100
AcDbEntity
100
AcDbLine
10
241.822258
20
256.632822
30
0.0
11
241.624992
21
257.000010
31
0.0
0
LINE
8
text
62
4
5
16e
100
AcDbEntity
100
AcDbLine
10
241.624992
20
257.000010
30
0.0
11
241.662101
21
257.367197
31
0.0
0
LINE
8
text
62
4
5
16f
100
AcDbEntity
100
AcDbLine
10
241.662101
20
257.367197
30
0.0
11
242.015617
21
257.687509
31
0.0
0
LINE
8
text
62
4
5
170
100
AcDbEntity
100
AcDbLine
10
242.015617
20
257.687509
30
0.0
11
242.767570
21
257.914071
31
0.0
0
LINE
8
text
62
4
5
171
100
AcDbEntity
100
AcDbLine
10
242.767570
20
257.914071
30
0.0
11
243.999992
21
258.000009
31
0.0
0
LINE
8
text
62
4
5
172
100
AcDbEntity
100
AcDbLine
10
239.141102
20
253.141119
30
0.0
11
239.141102
21
249.141118
31
0.0
0
LINE
8
text
62
4
5
173
100
AcDbEntity
100
AcDbLine
10
239.141102
20
249.141118
30
0.0
11
237.141103
21
253.141119
31
0.0
0
LINE
8
text
62
4
5
174
100
AcDbEntity
100
AcDbLine
10
237.141103
20
253.141119
30
0.0
11
237.141103
21
249.141118
31
0.0
0
LINE
8
text
62
4
5
175
100
AcDbEntity
100
AcDbLine
10
242.141101
20
249.141118
30
0.0
11
242.141101
21
252.141121
31
0.0
0
LINE
8
text
62
4
5
176
100
AcDbEntity
100
AcDbLine
10
242.141101
20
252.141121
30
0.0
11
242.125476
21
252.719245
31
0.0
0
LINE
8
text
62
4
5
177
100
AcDbEntity
100
AcDbLine
10
242.125476
20
252.719245
30
0.0
11
242.016101
21
253.016119
31
0.0
0
LINE
8
text
62
4
5
178
100
AcDbEntity
100
AcDbLine
10
242.016101
20
253.016119
30
0.0
11
241.719227
21
253.125494
31
0.0
0
LINE
8
text
62
4
5
179
100
AcDbEntity
100
AcDbLine
10
241.719227
20
253.125494
30
0.0
11
241.141103
21
253.141119
31
0.0
0
LINE
8
text
62
4
5
17a
100
AcDbEntity
100
AcDbLine
10
241.141103
20
253.141119
30
0.0
11
240.562978
21
253.125494
31
0.0
0
LINE
8
text
62
4
5
17b
100
AcDbEntity
100
AcDbLine
10
240.562978
20
253.125494
30
0.0
11
240.266103
21
253.016120
31
0.0
0
LINE
8
text
62
4
5
17c
100
AcDbEntity
100
AcDbLine
10
240.266103
20
253.016120
30
0.0
11
240.156727
21
252.719246
31
0.0
0
LINE
8
text
62
4
5
17d
100
AcDbEntity
100
AcDbLine
10
240.156727
20
252.719246
30
0.0
11
240.141102
21
252.141121
31
0.0
0
LINE
8
text
62
4
5
17e
100
AcDbEntity
100
AcDbLine
10
240.141102
20
252.141121
30
0.0
11
240.141102
21
249.141118
31
0.0
0
LINE
8
text
62
4
5
17f
100
AcDbEntity
100
AcDbLine
10
244.782219
20
253.282227
30
0.0
11
244.782219
21
249.282229
31
0.0
0
LINE
8
text
62
4
5
180
100
AcDbEntity
100
AcDbLine
10
244.782219
20
249.282229
30
0.0
11
244.125968
21
249.368167
31
0.0
0
LINE
8
text
62
4
5
181
100
AcDbEntity
100
AcDbLine
10
244.125968
20
249.368167
30
0.0
11
243.657218
21
249.594729
31
0.0
0
LINE
8
text
62
4
5
182
100
AcDbEntity
100
AcDbLine
10
243.657218
20
249.594729
30
0.0
11
243.375967
21
249.915042
31
0.0
0
LINE
8
text
62
4
5
183
100
AcDbEntity
100
AcDbLine
10
243.375967
20
249.915042
30
0.0
11
243.282217
21
250.282229
31
0.0
0
LINE
8
text
62
4
5
184
100
AcDbEntity
100
AcDbLine
10
243.282217
20
250.282229
30
0.0
11
243.375967
21
250.649416
31
0.0
0
LINE
8
text
62
4
5
185
100
AcDbEntity
100
AcDbLine
10
243.375967
20
250.649416
30
0.0
11
243.657218
21
250.969728
31
0.0
0
LINE
8
text
62
4
5
186
100
AcDbEntity
100
AcDbLine
10
243.657218
20
250.969728
30
0.0
11
244.125968
21
251.196291
31
0.0
0
LINE
8
text
62
4
5
187
100
AcDbEntity
100
AcDbLine
10
244.125968
20
251.196291
30
0.0
11
244.782219
21
251.282228
31
0.0
0
LINE
8
text
62
4
5
188
100
AcDbEntity
100
AcDbLine
10
244.782219
20
251.282228
30
0.0
11
243.782218
21
253.282227
31
0.0
0
LINE
8
text
62
4
5
189
100
AcDbEntity
100
AcDbLine
10
243.141102
20
244.141120
30
0.0
11
244.072490
21
244.229934
31
0.0
0
LINE
8
text
62
4
5
18a
100
AcDbEntity
100
AcDbLine
10
244.072490
20
244.229934
30
0.0
11
244.809122
21
244.670547
31
0.0
0
LINE
8
text
62
4
5
18b
100
AcDbEntity
100
AcDbLine
10
244.809122
20
244.670547
30
0.0
11
245.315320
21
245.345800
31
0.0
0
LINE
8
text
62
4
5
18c
100
AcDbEntity
100
AcDbLine
10
245.315320
20
245.345800
30
0.0
11
245.555407
21
246.138535
31
0.0
0
LINE
8
text
62
4
5
18d
100
AcDbEntity
100
AcDbLine
10
245.555407
20
246.138535
30
0.0
11
245.493706
21
246.931592
31
0.0
0
LINE
8
text
62
4
5
18e
100
AcDbEntity
100
AcDbLine
10
245.493706
20
246.931592
30
0.0
11
245.094539
21
247.607815
31
0.0
0
LINE
8
text
62
4
5
18f
100
AcDbEntity
100
AcDbLine
10
245.094539
20
247.607815
30
0.0
11
244.322231
21
248.050043
31
0.0
0
LINE
8
text
62
4
5
190
100
AcDbEntity
100
AcDbLine
10
244.322231
20
248.050043
30
0.0
11
243.141102
21
248.141120
31
0.0
0
LINE
8
text
62
4
5
191
100
AcDbEntity
100
AcDbLine
10
240.141102
20
244.141120
30
0.0
11
240.141102
21
248.141120
31
0.0
0
LINE
8
text
62
4
5
192
100
AcDbEntity
100
AcDbLine
10
242.141101
20
246.141119
30
0.0
11
240.141102
21
246.141119
31
0.0
0
LINE
8
text
62
4
5
193
100
AcDbEntity
100
AcDbLine
10
242.141101
20
244.141120
30
0.0
11
242.141101
21
248.141120
31
0.0
0
LINE
8
text
62
4
5
194
100
AcDbEntity
100
AcDbLine
10
237.141103
20
244.141120
30
0.0
11
237.926651
21
244.208201
31
0.0
0
LINE
8
text
62
4
5
195
100
AcDbEntity
100
AcDbLine
10
237.926651
20
244.208201
30
0.0
11
238.579204
21
244.446187
31
0.0
0
LINE
8
text
62
4
5
196
100
AcDbEntity
100
AcDbLine
10
238.579204
20
244.446187
30
0.0
11
239.012706
21
245.031639
31
0.0
0
LINE
8
text
62
4
5
197
100
AcDbEntity
100
AcDbLine
10
239.012706
20
245.031639
30
0.0
11
239.141104
21
246.141119
31
0.0
0
LINE
8
text
62
4
5
198
100
AcDbEntity
100
AcDbLine
10
239.141104
20
246.141119
30
0.0
11
238.939508
21
247.258190
31
0.0
0
LINE
8
text
62
4
5
199
100
AcDbEntity
100
AcDbLine
10
238.939508
20
247.258190
30
0.0
11
238.489685
21
247.856294
31
0.0
0
LINE
8
text
62
4
5
19a
100
AcDbEntity
100
AcDbLine
10
238.489685
20
247.856294
30
0.0
11
237.865571
21
248.096810
31
0.0
0
LINE
8
text
62
4
5
19b
100
AcDbEntity
100
AcDbLine
10
237.865571
20
248.096810
30
0.0
11
237.141103
21
248.141120
31
0.0
0
LINE
8
text
62
4
5
19c
100
AcDbEntity
100
AcDbLine
10
237.141103
20
248.141120
30
0.0
11
236.562977
21
247.984870
31
0.0
0
LINE
8
text
62
4
5
19d
100
AcDbEntity
100
AcDbLine
10
236.562977
20
247.984870
30
0.0
11
236.266102
21
247.641120
31
0.0
0
LINE
8
text
62
4
5
19e
100
AcDbEntity
100
AcDbLine
10
236.266102
20
247.641120
30
0.0
11
236.141102
21
247.141119
31
0.0
0
LINE
8
text
62
4
5
19f
100
AcDbEntity
100
AcDbLine
10
236.141102
20
247.141119
30
0.0
11
236.157216
21
246.641192
31
0.0
0
LINE
8
text
62
4
5
1a0
100
AcDbEntity
100
AcDbLine
10
236.157216
20
246.641192
30
0.0
11
236.440481
21
246.297451
31
0.0
0
LINE
8
text
62
4
5
1a1
100
AcDbEntity
100
AcDbLine
10
236.440481
20
246.297451
30
0.0
11
237.141103
21
246.141119
31
0.0
0
LINE
8
text
62
4
5
1a2
100
AcDbEntity
100
AcDbLine
10
237.141103
20
246.141119
30
0.0
11
237.141103
21
246.141119
31
0.0
0
LINE
8
text
62
4
5
1a3
100
AcDbEntity
100
AcDbLine
10
237.141103
20
246.141119
30
0.0
11
237.141103
21
246.141119
31
0.0
0
LINE
8
text
62
4
5
1a4
100
AcDbEntity
100
AcDbLine
10
265.858885
20
253.858895
30
0.0
11
265.858885
21
257.858898
31
0.0
0
LINE
8
text
62
4
5
1a5
100
AcDbEntity
100
AcDbLine
10
267.858883
20
253.858895
30
0.0
11
263.858886
21
253.858895
31
0.0
0
LINE
8
text
62
4
5
1a6
100
AcDbEntity
100
AcDbLine
10
270.858883
20
255.858896
30
0.0
11
268.858884
21
255.858896
31
0.0
0
LINE
8
text
62
4
5
1a7
100
AcDbEntity
100
AcDbLine
10
271.858884
20
257.858895
30
0.0
11
269.858885
21
253.858895
31
0.0
0
LINE
8
text
62
4
5
1a8
100
AcDbEntity
100
AcDbLine
10
269.858885
20
253.858895
30
0.0
11
267.858883
21
257.858895
31
0.0
0
LINE
8
text
62
4
5
1a9
100
AcDbEntity
100
AcDbLine
10
273.858886
20
253.858895
30
0.0
11
273.858886
21
257.858895
31
0.0
0
LINE
8
text
62
4
5
1aa
100
AcDbEntity
100
AcDbLine
10
273.858886
20
257.858895
30
0.0
11
273.202635
21
257.772958
31
0.0
0
LINE
8
text
62
4
5
1ab
100
AcDbEntity
100
AcDbLine
10
273.202635
20
257.772958
30
0.0
11
272.733885
21
257.546395
31
0.0
0
LINE
8
text
62
4
5
1ac
100
AcDbEntity
100
AcDbLine
10
272.733885
20
257.546395
30
0.0
11
272.452634
21
257.226083
31
0.0
0
LINE
8
text
62
4
5
1ad
100
AcDbEntity
100
AcDbLine
10
272.452634
20
257.226083
30
0.0
11
272.358884
21
256.858896
31
0.0
0
LINE
8
text
62
4
5
1ae
100
AcDbEntity
100
AcDbLine
10
272.358884
20
256.858896
30
0.0
11
272.452634
21
256.491708
31
0.0
0
LINE
8
text
62
4
5
1af
100
AcDbEntity
100
AcDbLine
10
272.452634
20
256.491708
30
0.0
11
272.733885
21
256.171396
31
0.0
0
LINE
8
text
62
4
5
1b0
100
AcDbEntity
100
AcDbLine
10
272.733885
20
256.171396
30
0.0
11
273.202635
21
255.944834
31
0.0
0
LINE
8
text
62
4
5
1b1
100
AcDbEntity
100
AcDbLine
10
273.202635
20
255.944834
30
0.0
11
273.858886
21
255.858896
31
0.0
0
LINE
8
text
62
4
5
1b2
100
AcDbEntity
100
AcDbLine
10
273.858886
20
255.858896
30
0.0
11
273.202635
21
255.772959
31
0.0
0
LINE
8
text
62
4
5
1b3
100
AcDbEntity
100
AcDbLine
10
273.202635
20
255.772959
30
0.0
11
272.733885
21
255.546396
31
0.0
0
LINE
8
text
62
4
5
1b4
100
AcDbEntity
100
AcDbLine
10
272.733885
20
255.546396
30
0.0
11
272.452634
21
255.226083
31
0.0
0
LINE
8
text
62
4
5
1b5
100
AcDbEntity
100
AcDbLine
10
272.452634
20
255.226083
30
0.0
11
272.358884
21
254.858895
31
0.0
0
LINE
8
text
62
4
5
1b6
100
AcDbEntity
100
AcDbLine
10
272.358884
20
254.858895
30
0.0
11
272.452634
21
254.491708
31
0.0
0
LINE
8
text
62
4
5
1b7
100
AcDbEntity
100
AcDbLine
10
272.452634
20
254.491708
30
0.0
11
272.733885
21
254.171395
31
0.0
0
LINE
8
text
62
4
5
1b8
100
AcDbEntity
100
AcDbLine
10
272.733885
20
254.171395
30
0.0
11
273.202635
21
253.944832
31
0.0
0
LINE
8
text
62
4
5
1b9
100
AcDbEntity
100
AcDbLine
10
273.202635
20
253.944832
30
0.0
11
273.858886
21
253.858895
31
0.0
0
LINE
8
text
62
4
5
1ba
100
AcDbEntity
100
AcDbLine
10
273.858886
20
253.858895
30
0.0
11
273.858886
21
253.858895
31
0.0
0
LINE
8
text
62
4
5
1bb
100
AcDbEntity
100
AcDbLine
10
179.858890
20
243.858898
30
0.0
11
183.858888
21
243.858898
31
0.0
0
LINE
8
text
62
4
5
1bc
100
AcDbEntity
100
AcDbLine
10
183.858888
20
243.858898
30
0.0
11
181.858889
21
241.858896
31
0.0
0
LINE
8
text
62
4
5
1bd
100
AcDbEntity
100
AcDbLine
10
181.858889
20
241.858896
30
0.0
11
183.858888
21
239.858897
31
0.0
0
LINE
8
text
62
4
5
1be
100
AcDbEntity
100
AcDbLine
10
183.858888
20
239.858897
30
0.0
11
179.858890
21
239.858897
31
0.0
0
LINE
8
text
62
4
5
1bf
100
AcDbEntity
100
AcDbLine
10
181.858889
20
235.858897
30
0.0
11
180.854427
21
236.054319
31
0.0
0
LINE
8
text
62
4
5
1c0
100
AcDbEntity
100
AcDbLine
10
180.854427
20
236.054319
30
0.0
11
180.126115
21
236.608709
31
0.0
0
LINE
8
text
62
4
5
1c1
100
AcDbEntity
100
AcDbLine
10
180.126115
20
236.608709
30
0.0
11
179.849827
21
237.358896
31
0.0
0
LINE
8
text
62
4
5
1c2
100
AcDbEntity
100
AcDbLine
10
179.849827
20
237.358896
30
0.0
11
180.126115
21
238.109084
31
0.0
0
LINE
8
text
62
4
5
1c3
100
AcDbEntity
100
AcDbLine
10
180.126115
20
238.109084
30
0.0
11
180.854427
21
238.663474
31
0.0
0
LINE
8
text
62
4
5
1c4
100
AcDbEntity
100
AcDbLine
10
180.854427
20
238.663474
30
0.0
11
181.858889
21
238.858896
31
0.0
0
LINE
8
text
62
4
5
1c5
100
AcDbEntity
100
AcDbLine
10
181.858889
20
238.858896
30
0.0
11
182.863351
21
238.663474
31
0.0
0
LINE
8
text
62
4
5
1c6
100
AcDbEntity
100
AcDbLine
10
182.863351
20
238.663474
30
0.0
11
183.591663
21
238.109084
31
0.0
0
LINE
8
text
62
4
5
1c7
100
AcDbEntity
100
AcDbLine
10
183.591663
20
238.109084
30
0.0
11
183.867950
21
237.358896
31
0.0
0
LINE
8
text
62
4
5
1c8
100
AcDbEntity
100
AcDbLine
10
183.867950
20
237.358896
30
0.0
11
183.591663
21
236.608709
31
0.0
0
LINE
8
text
62
4
5
1c9
100
AcDbEntity
100
AcDbLine
10
183.591663
20
236.608709
30
0.0
11
182.863351
21
236.054319
31
0.0
0
LINE
8
text
62
4
5
1ca
100
AcDbEntity
100
AcDbLine
10
182.863351
20
236.054319
30
0.0
11
181.858889
21
235.858897
31
0.0
0
LINE
8
text
62
4
5
1cb
100
AcDbEntity
100
AcDbLine
10
181.858889
20
235.858897
30
0.0
11
181.858889
21
235.858897
31
0.0
0
LINE
8
text
62
4
5
1cc
100
AcDbEntity
100
AcDbLine
10
183.858888
20
234.858896
30
0.0
11
183.858888
21
230.858895
31
0.0
0
LINE
8
text
62
4
5
1cd
100
AcDbEntity
100
AcDbLine
10
183.858888
20
232.858897
30
0.0
11
179.858890
21
232.858897
31
0.0
0
LINE
8
text
62
4
5
1ce
100
AcDbEntity
100
AcDbLine
10
184.114217
20
221.938438
30
0.0
11
181.114215
21
221.938438
31
0.0
0
LINE
8
text
62
4
5
1cf
100
AcDbEntity
100
AcDbLine
10
181.114215
20
221.938438
30
0.0
11
180.536091
21
221.922813
31
0.0
0
LINE
8
text
62
4
5
1d0
100
AcDbEntity
100
AcDbLine
10
180.536091
20
221.922813
30
0.0
11
180.239216
21
221.813438
31
0.0
0
LINE
8
text
62
4
5
1d1
100
AcDbEntity
100
AcDbLine
10
180.239216
20
221.813438
30
0.0
11
180.129842
21
221.516564
31
0.0
0
LINE
8
text
62
4
5
1d2
100
AcDbEntity
100
AcDbLine
10
180.129842
20
221.516564
30
0.0
11
180.114217
21
220.938440
31
0.0
0
LINE
8
text
62
4
5
1d3
100
AcDbEntity
100
AcDbLine
10
180.114217
20
220.938440
30
0.0
11
180.129841
21
220.360314
31
0.0
0
LINE
8
text
62
4
5
1d4
100
AcDbEntity
100
AcDbLine
10
180.129841
20
220.360314
30
0.0
11
180.239215
21
220.063439
31
0.0
0
LINE
8
text
62
4
5
1d5
100
AcDbEntity
100
AcDbLine
10
180.239215
20
220.063439
30
0.0
11
180.536090
21
219.954064
31
0.0
0
LINE
8
text
62
4
5
1d6
100
AcDbEntity
100
AcDbLine
10
180.536090
20
219.954064
30
0.0
11
181.114215
21
219.938439
31
0.0
0
LINE
8
text
62
4
5
1d7
100
AcDbEntity
100
AcDbLine
10
181.114215
20
219.938439
30
0.0
11
184.114217
21
219.938439
31
0.0
0
LINE
8
text
62
4
5
1d8
100
AcDbEntity
100
AcDbLine
10
183.999999
20
217.000006
30
0.0
11
183.914061
21
217.945319
31
0.0
0
LINE
8
text
62
4
5
1d9
100
AcDbEntity
100
AcDbLine
10
183.914061
20
217.945319
30
0.0
11
183.687499
21
218.562506
31
0.0
0
LINE
8
text
62
4
5
1da
100
AcDbEntity
100
AcDbLine
10
183.687499
20
218.562506
30
0.0
11
183.367186
21
218.898443
31
0.0
0
LINE
8
text
62
4
5
1db
100
AcDbEntity
100
AcDbLine
10
183.367186
20
218.898443
30
0.0
11
182.999998
21
219.000005
31
0.0
0
LINE
8
text
62
4
5
1dc
100
AcDbEntity
100
AcDbLine
10
182.999998
20
219.000005
30
0.0
11
182.632810
21
218.914068
31
0.0
0
LINE
8
text
62
4
5
1dd
100
AcDbEntity
100
AcDbLine
10
182.632810
20
218.914068
30
0.0
11
182.312498
21
218.687505
31
0.0
0
LINE
8
text
62
4
5
1de
100
AcDbEntity
100
AcDbLine
10
182.312498
20
218.687505
30
0.0
11
182.085935
21
218.367192
31
0.0
0
LINE
8
text
62
4
5
1df
100
AcDbEntity
100
AcDbLine
10
182.085935
20
218.367192
30
0.0
11
181.999997
21
218.000004
31
0.0
0
LINE
8
text
62
4
5
1e0
100
AcDbEntity
100
AcDbLine
10
181.999997
20
218.000004
30
0.0
11
181.687497
21
217.171880
31
0.0
0
LINE
8
text
62
4
5
1e1
100
AcDbEntity
100
AcDbLine
10
181.687497
20
217.171880
30
0.0
11
181.367185
21
216.822271
31
0.0
0
LINE
8
text
62
4
5
1e2
100
AcDbEntity
100
AcDbLine
10
181.367185
20
216.822271
30
0.0
11
180.999998
21
216.625005
31
0.0
0
LINE
8
text
62
4
5
1e3
100
AcDbEntity
100
AcDbLine
10
180.999998
20
216.625005
30
0.0
11
180.632811
21
216.662115
31
0.0
0
LINE
8
text
62
4
5
1e4
100
AcDbEntity
100
AcDbLine
10
180.632811
20
216.662115
30
0.0
11
180.312498
21
217.015630
31
0.0
0
LINE
8
text
62
4
5
1e5
100
AcDbEntity
100
AcDbLine
10
180.312498
20
217.015630
30
0.0
11
180.085936
21
217.767583
31
0.0
0
LINE
8
text
62
4
5
1e6
100
AcDbEntity
100
AcDbLine
10
180.085936
20
217.767583
30
0.0
11
179.999998
21
219.000005
31
0.0
0
LINE
8
text
62
4
5
1e7
100
AcDbEntity
100
AcDbLine
10
184.141110
20
215.858889
30
0.0
11
180.141110
21
215.858889
31
0.0
0
LINE
8
text
62
4
5
1e8
100
AcDbEntity
100
AcDbLine
10
180.141110
20
215.858889
30
0.0
11
180.227047
21
215.202638
31
0.0
0
LINE
8
text
62
4
5
1e9
100
AcDbEntity
100
AcDbLine
10
180.227047
20
215.202638
30
0.0
11
180.453609
21
214.733888
31
0.0
0
LINE
8
text
62
4
5
1ea
100
AcDbEntity
100
AcDbLine
10
180.453609
20
214.733888
30
0.0
11
180.773922
21
214.452638
31
0.0
0
LINE
8
text
62
4
5
1eb
100
AcDbEntity
100
AcDbLine
10
180.773922
20
214.452638
30
0.0
11
181.141109
21
214.358887
31
0.0
0
LINE
8
text
62
4
5
1ec
100
AcDbEntity
100
AcDbLine
10
181.141109
20
214.358887
30
0.0
11
181.508296
21
214.452638
31
0.0
0
LINE
8
text
62
4
5
1ed
100
AcDbEntity
100
AcDbLine
10
181.508296
20
214.452638
30
0.0
11
181.828609
21
214.733888
31
0.0
0
LINE
8
text
62
4
5
1ee
100
AcDbEntity
100
AcDbLine
10
181.828609
20
214.733888
30
0.0
11
182.055171
21
215.202638
31
0.0
0
LINE
8
text
62
4
5
1ef
100
AcDbEntity
100
AcDbLine
10
182.055171
20
215.202638
30
0.0
11
182.141108
21
215.858889
31
0.0
0
LINE
8
text
62
4
5
1f0
100
AcDbEntity
100
AcDbLine
10
182.141108
20
215.858889
30
0.0
11
182.227046
21
215.202638
31
0.0
0
LINE
8
text
62
4
5
1f1
100
AcDbEntity
100
AcDbLine
10
182.227046
20
215.202638
30
0.0
11
182.453609
21
214.733888
31
0.0
0
LINE
8
text
62
4
5
1f2
100
AcDbEntity
100
AcDbLine
10
182.453609
20
214.733888
30
0.0
11
182.773921
21
214.452638
31
0.0
0
LINE
8
text
62
4
5
1f3
100
AcDbEntity
100
AcDbLine
10
182.773921
20
214.452638
30
0.0
11
183.141109
21
214.358887
31
0.0
0
LINE
8
text
62
4
5
1f4
100
AcDbEntity
100
AcDbLine
10
183.141109
20
214.358887
30
0.0
11
183.508297
21
214.452638
31
0.0
0
LINE
8
text
62
4
5
1f5
100
AcDbEntity
100
AcDbLine
10
183.508297
20
214.452638
30
0.0
11
183.828610
21
214.733888
31
0.0
0
LINE
8
text
62
4
5
1f6
100
AcDbEntity
100
AcDbLine
10
183.828610
20
214.733888
30
0.0
11
184.055172
21
215.202638
31
0.0
0
LINE
8
text
62
4
5
1f7
100
AcDbEntity
100
AcDbLine
10
184.055172
20
215.202638
30
0.0
11
184.141110
21
215.858889
31
0.0
0
LINE
8
text
62
4
5
1f8
100
AcDbEntity
100
AcDbLine
10
184.141110
20
215.858889
30
0.0
11
184.141110
21
215.858889
31
0.0
0
LINE
8
text
62
4
5
1f9
100
AcDbEntity
100
AcDbLine
10
204.999999
20
218.000007
30
0.0
11
204.914062
21
218.945319
31
0.0
0
LINE
8
text
62
4
5
1fa
100
AcDbEntity
100
AcDbLine
10
204.914062
20
218.945319
30
0.0
11
204.687499
21
219.562507
31
0.0
0
LINE
8
text
62
4
5
1fb
100
AcDbEntity
100
AcDbLine
10
204.687499
20
219.562507
30
0.0
11
204.367186
21
219.898444
31
0.0
0
LINE
8
text
62
4
5
1fc
100
AcDbEntity
100
AcDbLine
10
204.367186
20
219.898444
30
0.0
11
203.999998
21
220.000006
31
0.0
0
LINE
8
text
62
4
5
1fd
100
AcDbEntity
100
AcDbLine
10
203.999998
20
220.000006
30
0.0
11
203.632811
21
219.914068
31
0.0
0
LINE
8
text
62
4
5
1fe
100
AcDbEntity
100
AcDbLine
10
203.632811
20
219.914068
30
0.0
11
203.312498
21
219.687506
31
0.0
0
LINE
8
text
62
4
5
1ff
100
AcDbEntity
100
AcDbLine
10
203.312498
20
219.687506
30
0.0
11
203.085935
21
219.367193
31
0.0
0
LINE
8
text
62
4
5
200
100
AcDbEntity
100
AcDbLine
10
203.085935
20
219.367193
30
0.0
11
202.999998
21
219.000005
31
0.0
0
LINE
8
text
62
4
5
201
100
AcDbEntity
100
AcDbLine
10
202.999998
20
219.000005
30
0.0
11
202.687498
21
218.171881
31
0.0
0
LINE
8
text
62
4
5
202
100
AcDbEntity
100
AcDbLine
10
202.687498
20
218.171881
30
0.0
11
202.367185
21
217.822272
31
0.0
0
LINE
8
text
62
4
5
203
100
AcDbEntity
100
AcDbLine
10
202.367185
20
217.822272
30
0.0
11
201.999998
21
217.625006
31
0.0
0
LINE
8
text
62
4
5
204
100
AcDbEntity
100
AcDbLine
10
201.999998
20
217.625006
30
0.0
11
201.632811
21
217.662115
31
0.0
0
LINE
8
text
62
4
5
205
100
AcDbEntity
100
AcDbLine
10
201.632811
20
217.662115
30
0.0
11
201.312499
21
218.015631
31
0.0
0
LINE
8
text
62
4
5
206
100
AcDbEntity
100
AcDbLine
10
201.312499
20
218.015631
30
0.0
11
201.085936
21
218.767584
31
0.0
0
LINE
8
text
62
4
5
207
100
AcDbEntity
100
AcDbLine
10
201.085936
20
218.767584
30
0.0
11
200.999999
21
220.000006
31
0.0
0
LINE
8
text
62
4
5
208
100
AcDbEntity
100
AcDbLine
10
205.141110
20
213.141117
30
0.0
11
202.141108
21
213.141117
31
0.0
0
LINE
8
text
62
4
5
209
100
AcDbEntity
100
AcDbLine
10
202.141108
20
213.141117
30
0.0
11
201.562984
21
213.125492
31
0.0
0
LINE
8
text
62
4
5
20a
100
AcDbEntity
100
AcDbLine
10
201.562984
20
213.125492
30
0.0
11
201.266110
21
213.016117
31
0.0
0
LINE
8
text
62
4
5
20b
100
AcDbEntity
100
AcDbLine
10
201.266110
20
213.016117
30
0.0
11
201.156735
21
212.719243
31
0.0
0
LINE
8
text
62
4
5
20c
100
AcDbEntity
100
AcDbLine
10
201.156735
20
212.719243
30
0.0
11
201.141110
21
212.141119
31
0.0
0
LINE
8
text
62
4
5
20d
100
AcDbEntity
100
AcDbLine
10
201.141110
20
212.141119
30
0.0
11
201.156734
21
211.562993
31
0.0
0
LINE
8
text
62
4
5
20e
100
AcDbEntity
100
AcDbLine
10
201.156734
20
211.562993
30
0.0
11
201.266109
21
211.266118
31
0.0
0
LINE
8
text
62
4
5
20f
100
AcDbEntity
100
AcDbLine
10
201.266109
20
211.266118
30
0.0
11
201.562983
21
211.156743
31
0.0
0
LINE
8
text
62
4
5
210
100
AcDbEntity
100
AcDbLine
10
201.562983
20
211.156743
30
0.0
11
202.141108
21
211.141118
31
0.0
0
LINE
8
text
62
4
5
211
100
AcDbEntity
100
AcDbLine
10
202.141108
20
211.141118
30
0.0
11
205.141110
21
211.141118
31
0.0
0
LINE
8
text
62
4
5
212
100
AcDbEntity
100
AcDbLine
10
205.141110
20
208.141116
30
0.0
11
205.074029
21
208.926664
31
0.0
0
LINE
8
text
62
4
5
213
100
AcDbEntity
100
AcDbLine
10
205.074029
20
208.926664
30
0.0
11
204.836043
21
209.579217
31
0.0
0
LINE
8
text
62
4
5
214
100
AcDbEntity
100
AcDbLine
10
204.836043
20
209.579217
30
0.0
11
204.250591
21
210.012719
31
0.0
0
LINE
8
text
62
4
5
215
100
AcDbEntity
100
AcDbLine
10
204.250591
20
210.012719
30
0.0
11
203.141112
21
210.141117
31
0.0
0
LINE
8
text
62
4
5
216
100
AcDbEntity
100
AcDbLine
10
203.141112
20
210.141117
30
0.0
11
202.024040
21
209.939521
31
0.0
0
LINE
8
text
62
4
5
217
100
AcDbEntity
100
AcDbLine
10
202.024040
20
209.939521
30
0.0
11
201.425937
21
209.489698
31
0.0
0
LINE
8
text
62
4
5
218
100
AcDbEntity
100
AcDbLine
10
201.425937
20
209.489698
30
0.0
11
201.185420
21
208.865584
31
0.0
0
LINE
8
text
62
4
5
219
100
AcDbEntity
100
AcDbLine
10
201.185420
20
208.865584
30
0.0
11
201.141110
21
208.141116
31
0.0
0
LINE
8
text
62
4
5
21a
100
AcDbEntity
100
AcDbLine
10
201.141110
20
208.141116
30
0.0
11
201.297360
21
207.562990
31
0.0
0
LINE
8
text
62
4
5
21b
100
AcDbEntity
100
AcDbLine
10
201.297360
20
207.562990
30
0.0
11
201.641110
21
207.266115
31
0.0
0
LINE
8
text
62
4
5
21c
100
AcDbEntity
100
AcDbLine
10
201.641110
20
207.266115
30
0.0
11
202.141111
21
207.141115
31
0.0
0
LINE
8
text
62
4
5
21d
100
AcDbEntity
100
AcDbLine
10
202.141111
20
207.141115
30
0.0
11
202.641038
21
207.157229
31
0.0
0
LINE
8
text
62
4
5
21e
100
AcDbEntity
100
AcDbLine
10
202.641038
20
207.157229
30
0.0
11
202.984779
21
207.440494
31
0.0
0
LINE
8
text
62
4
5
21f
100
AcDbEntity
100
AcDbLine
10
202.984779
20
207.440494
30
0.0
11
203.141112
21
208.141116
31
0.0
0
LINE
8
text
62
4
5
220
100
AcDbEntity
100
AcDbLine
10
203.141112
20
208.141116
30
0.0
11
203.141112
21
208.141116
31
0.0
0
LINE
8
text
62
4
5
221
100
AcDbEntity
100
AcDbLine
10
203.141112
20
208.141116
30
0.0
11
203.141112
21
208.141116
31
0.0
0
LINE
8
text
62
4
5
222
100
AcDbEntity
100
AcDbLine
10
205.141110
20
216.141117
30
0.0
11
201.141110
21
216.141117
31
0.0
0
LINE
8
text
62
4
5
223
100
AcDbEntity
100
AcDbLine
10
201.141110
20
216.141117
30
0.0
11
201.141110
21
214.141118
31
0.0
0
LINE
8
text
62
4
5
224
100
AcDbEntity
100
AcDbLine
10
213.141108
20
204.912095
30
0.0
11
213.141108
21
208.912093
31
0.0
0
LINE
8
text
62
4
5
225
100
AcDbEntity
100
AcDbLine
10
213.141108
20
208.912093
30
0.0
11
213.797359
21
208.826156
31
0.0
0
LINE
8
text
62
4
5
226
100
AcDbEntity
100
AcDbLine
10
213.797359
20
208.826156
30
0.0
11
214.266109
21
208.599593
31
0.0
0
LINE
8
text
62
4
5
227
100
AcDbEntity
100
AcDbLine
10
214.266109
20
208.599593
30
0.0
11
214.547360
21
208.279281
31
0.0
0
LINE
8
text
62
4
5
228
100
AcDbEntity
100
AcDbLine
10
214.547360
20
208.279281
30
0.0
11
214.641110
21
207.912094
31
0.0
0
LINE
8
text
62
4
5
229
100
AcDbEntity
100
AcDbLine
10
214.641110
20
207.912094
30
0.0
11
214.547360
21
207.544906
31
0.0
0
LINE
8
text
62
4
5
22a
100
AcDbEntity
100
AcDbLine
10
214.547360
20
207.544906
30
0.0
11
214.266109
21
207.224594
31
0.0
0
LINE
8
text
62
4
5
22b
100
AcDbEntity
100
AcDbLine
10
214.266109
20
207.224594
30
0.0
11
213.797359
21
206.998032
31
0.0
0
LINE
8
text
62
4
5
22c
100
AcDbEntity
100
AcDbLine
10
213.797359
20
206.998032
30
0.0
11
213.141108
21
206.912094
31
0.0
0
LINE
8
text
62
4
5
22d
100
AcDbEntity
100
AcDbLine
10
218.141107
20
208.912096
30
0.0
11
216.141108
21
208.912096
31
0.0
0
LINE
8
text
62
4
5
22e
100
AcDbEntity
100
AcDbLine
10
216.141108
20
208.912096
30
0.0
11
216.141108
21
204.912095
31
0.0
0
LINE
8
text
62
4
5
22f
100
AcDbEntity
100
AcDbLine
10
216.141108
20
204.912095
30
0.0
11
218.141107
21
204.912095
31
0.0
0
LINE
8
text
62
4
5
230
100
AcDbEntity
100
AcDbLine
10
217.141109
20
206.912097
30
0.0
11
216.141108
21
206.912097
31
0.0
0
LINE
8
text
62
4
5
231
100
AcDbEntity
100
AcDbLine
10
219.141108
20
204.912095
30
0.0
11
219.141108
21
208.912096
31
0.0
0
LINE
8
text
62
4
5
232
100
AcDbEntity
100
AcDbLine
10
219.141111
20
208.858900
30
0.0
11
219.797360
21
208.790521
31
0.0
0
LINE
8
text
62
4
5
233
100
AcDbEntity
100
AcDbLine
10
219.797360
20
208.790521
30
0.0
11
220.266110
21
208.577154
31
0.0
0
LINE
8
text
62
4
5
234
100
AcDbEntity
100
AcDbLine
10
220.266110
20
208.577154
30
0.0
11
220.547360
21
208.266296
31
0.0
0
LINE
8
text
62
4
5
235
100
AcDbEntity
100
AcDbLine
10
220.547360
20
208.266296
30
0.0
11
220.641109
21
207.905447
31
0.0
0
LINE
8
text
62
4
5
236
100
AcDbEntity
100
AcDbLine
10
220.641109
20
207.905447
30
0.0
11
220.547359
21
207.542104
31
0.0
0
LINE
8
text
62
4
5
237
100
AcDbEntity
100
AcDbLine
10
220.547359
20
207.542104
30
0.0
11
220.266109
21
207.223766
31
0.0
0
LINE
8
text
62
4
5
238
100
AcDbEntity
100
AcDbLine
10
220.266109
20
207.223766
30
0.0
11
219.797358
21
206.997931
31
0.0
0
LINE
8
text
62
4
5
239
100
AcDbEntity
100
AcDbLine
10
219.797358
20
206.997931
30
0.0
11
219.141108
21
206.912097
31
0.0
0
LINE
8
text
62
4
5
23a
100
AcDbEntity
100
AcDbLine
10
219.141108
20
206.912097
30
0.0
11
221.141109
21
204.912095
31
0.0
0
LINE
8
text
62
4
5
23b
100
AcDbEntity
100
AcDbLine
10
222.141107
20
204.912095
30
0.0
11
224.141109
21
204.912095
31
0.0
0
LINE
8
text
62
4
5
23c
100
AcDbEntity
100
AcDbLine
10
223.141108
20
204.912095
30
0.0
11
223.141108
21
208.912096
31
0.0
0
LINE
8
text
62
4
5
23d
100
AcDbEntity
100
AcDbLine
10
222.141107
20
208.912096
30
0.0
11
224.141109
21
208.912096
31
0.0
0
LINE
8
text
62
4
5
23e
100
AcDbEntity
100
AcDbLine
10
225.141107
20
204.912095
30
0.0
11
225.141107
21
208.912096
31
0.0
0
LINE
8
text
62
4
5
23f
100
AcDbEntity
100
AcDbLine
10
227.141109
20
208.912096
30
0.0
11
225.141107
21
208.912096
31
0.0
0
LINE
8
text
62
4
5
240
100
AcDbEntity
100
AcDbLine
10
226.141108
20
206.912097
30
0.0
11
225.141107
21
206.912097
31
0.0
0
LINE
8
text
62
4
5
241
100
AcDbEntity
100
AcDbLine
10
230.141108
20
208.880987
30
0.0
11
228.141109
21
208.880987
31
0.0
0
LINE
8
text
62
4
5
242
100
AcDbEntity
100
AcDbLine
10
228.141109
20
208.880987
30
0.0
11
228.141109
21
204.880986
31
0.0
0
LINE
8
text
62
4
5
243
100
AcDbEntity
100
AcDbLine
10
228.141109
20
204.880986
30
0.0
11
230.141108
21
204.880986
31
0.0
0
LINE
8
text
62
4
5
244
100
AcDbEntity
100
AcDbLine
10
229.141107
20
206.912097
30
0.0
11
228.141107
21
206.912097
31
0.0
0
LINE
8
text
62
4
5
245
100
AcDbEntity
100
AcDbLine
10
231.141112
20
208.858900
30
0.0
11
231.797362
21
208.790521
31
0.0
0
LINE
8
text
62
4
5
246
100
AcDbEntity
100
AcDbLine
10
231.797362
20
208.790521
30
0.0
11
232.266111
21
208.577154
31
0.0
0
LINE
8
text
62
4
5
247
100
AcDbEntity
100
AcDbLine
10
232.266111
20
208.577154
30
0.0
11
232.547361
21
208.266296
31
0.0
0
LINE
8
text
62
4
5
248
100
AcDbEntity
100
AcDbLine
10
232.547361
20
208.266296
30
0.0
11
232.641111
21
207.905447
31
0.0
0
LINE
8
text
62
4
5
249
100
AcDbEntity
100
AcDbLine
10
232.641111
20
207.905447
30
0.0
11
232.547360
21
207.542104
31
0.0
0
LINE
8
text
62
4
5
24a
100
AcDbEntity
100
AcDbLine
10
232.547360
20
207.542104
30
0.0
11
232.266110
21
207.223766
31
0.0
0
LINE
8
text
62
4
5
24b
100
AcDbEntity
100
AcDbLine
10
232.266110
20
207.223766
30
0.0
11
231.797360
21
206.997931
31
0.0
0
LINE
8
text
62
4
5
24c
100
AcDbEntity
100
AcDbLine
10
231.797360
20
206.997931
30
0.0
11
231.141109
21
206.912097
31
0.0
0
LINE
8
text
62
4
5
24d
100
AcDbEntity
100
AcDbLine
10
231.141109
20
206.912097
30
0.0
11
233.141111
21
204.912095
31
0.0
0
LINE
8
text
62
4
5
24e
100
AcDbEntity
100
AcDbLine
10
231.141109
20
204.912095
30
0.0
11
231.141109
21
208.912096
31
0.0
0
LINE
8
text
62
4
5
24f
100
AcDbEntity
100
AcDbLine
10
234.141109
20
204.912095
30
0.0
11
236.141108
21
208.912096
31
0.0
0
LINE
8
text
62
4
5
250
100
AcDbEntity
100
AcDbLine
10
236.141108
20
208.912096
30
0.0
11
238.141109
21
204.912095
31
0.0
0
LINE
8
text
62
4
5
251
100
AcDbEntity
100
AcDbLine
10
238.141109
20
204.912095
30
0.0
11
238.141109
21
204.912095
31
0.0
0
LINE
8
text
62
4
5
252
100
AcDbEntity
100
AcDbLine
10
237.141108
20
206.912097
30
0.0
11
235.141110
21
206.912097
31
0.0
0
LINE
8
text
62
4
5
253
100
AcDbEntity
100
AcDbLine
10
239.141107
20
208.912096
30
0.0
11
239.141107
21
204.912095
31
0.0
0
LINE
8
text
62
4
5
254
100
AcDbEntity
100
AcDbLine
10
239.141107
20
204.912095
30
0.0
11
241.141109
21
204.912095
31
0.0
0
LINE
8
text
62
4
5
255
100
AcDbEntity
100
AcDbLine
10
217.999993
20
204.053206
30
0.0
11
217.999993
21
200.053205
31
0.0
0
LINE
8
text
62
4
5
256
100
AcDbEntity
100
AcDbLine
10
217.999993
20
200.053205
30
0.0
11
218.656244
21
200.139143
31
0.0
0
LINE
8
text
62
4
5
257
100
AcDbEntity
100
AcDbLine
10
218.656244
20
200.139143
30
0.0
11
219.124994
21
200.365705
31
0.0
0
LINE
8
text
62
4
5
258
100
AcDbEntity
100
AcDbLine
10
219.124994
20
200.365705
30
0.0
11
219.406244
21
200.686017
31
0.0
0
LINE
8
text
62
4
5
259
100
AcDbEntity
100
AcDbLine
10
219.406244
20
200.686017
30
0.0
11
219.499994
21
201.053205
31
0.0
0
LINE
8
text
62
4
5
25a
100
AcDbEntity
100
AcDbLine
10
219.499994
20
201.053205
30
0.0
11
219.406244
21
201.420392
31
0.0
0
LINE
8
text
62
4
5
25b
100
AcDbEntity
100
AcDbLine
10
219.406244
20
201.420392
30
0.0
11
219.124994
21
201.740704
31
0.0
0
LINE
8
text
62
4
5
25c
100
AcDbEntity
100
AcDbLine
10
219.124994
20
201.740704
30
0.0
11
218.656244
21
201.967267
31
0.0
0
LINE
8
text
62
4
5
25d
100
AcDbEntity
100
AcDbLine
10
218.656244
20
201.967267
30
0.0
11
217.999993
21
202.053204
31
0.0
0
LINE
8
text
62
4
5
25e
100
AcDbEntity
100
AcDbLine
10
217.999993
20
202.053204
30
0.0
11
218.656244
21
202.139142
31
0.0
0
LINE
8
text
62
4
5
25f
100
AcDbEntity
100
AcDbLine
10
218.656244
20
202.139142
30
0.0
11
219.124994
21
202.365704
31
0.0
0
LINE
8
text
62
4
5
260
100
AcDbEntity
100
AcDbLine
10
219.124994
20
202.365704
30
0.0
11
219.406244
21
202.686017
31
0.0
0
LINE
8
text
62
4
5
261
100
AcDbEntity
100
AcDbLine
10
219.406244
20
202.686017
30
0.0
11
219.499994
21
203.053205
31
0.0
0
LINE
8
text
62
4
5
262
100
AcDbEntity
100
AcDbLine
10
219.499994
20
203.053205
30
0.0
11
219.406244
21
203.420393
31
0.0
0
LINE
8
text
62
4
5
263
100
AcDbEntity
100
AcDbLine
10
219.406244
20
203.420393
30
0.0
11
219.124994
21
203.740705
31
0.0
0
LINE
8
text
62
4
5
264
100
AcDbEntity
100
AcDbLine
10
219.124994
20
203.740705
30
0.0
11
218.656244
21
203.967268
31
0.0
0
LINE
8
text
62
4
5
265
100
AcDbEntity
100
AcDbLine
10
218.656244
20
203.967268
30
0.0
11
217.999993
21
204.053206
31
0.0
0
LINE
8
text
62
4
5
266
100
AcDbEntity
100
AcDbLine
10
217.999993
20
204.053206
30
0.0
11
217.999993
21
204.053206
31
0.0
0
LINE
8
text
62
4
5
267
100
AcDbEntity
100
AcDbLine
10
220.499988
20
202.053207
30
0.0
11
220.695410
21
203.057668
31
0.0
0
LINE
8
text
62
4
5
268
100
AcDbEntity
100
AcDbLine
10
220.695410
20
203.057668
30
0.0
11
221.249800
21
203.785981
31
0.0
0
LINE
8
text
62
4
5
269
100
AcDbEntity
100
AcDbLine
10
221.249800
20
203.785981
30
0.0
11
221.999988
21
204.062268
31
0.0
0
LINE
8
text
62
4
5
26a
100
AcDbEntity
100
AcDbLine
10
221.999988
20
204.062268
30
0.0
11
222.750176
21
203.785981
31
0.0
0
LINE
8
text
62
4
5
26b
100
AcDbEntity
100
AcDbLine
10
222.750176
20
203.785981
30
0.0
11
223.304566
21
203.057668
31
0.0
0
LINE
8
text
62
4
5
26c
100
AcDbEntity
100
AcDbLine
10
223.304566
20
203.057668
30
0.0
11
223.499988
21
202.053207
31
0.0
0
LINE
8
text
62
4
5
26d
100
AcDbEntity
100
AcDbLine
10
223.499988
20
202.053207
30
0.0
11
223.304566
21
201.048745
31
0.0
0
LINE
8
text
62
4
5
26e
100
AcDbEntity
100
AcDbLine
10
223.304566
20
201.048745
30
0.0
11
222.750176
21
200.320433
31
0.0
0
LINE
8
text
62
4
5
26f
100
AcDbEntity
100
AcDbLine
10
222.750176
20
200.320433
30
0.0
11
221.999988
21
200.044145
31
0.0
0
LINE
8
text
62
4
5
270
100
AcDbEntity
100
AcDbLine
10
221.999988
20
200.044145
30
0.0
11
221.249800
21
200.320433
31
0.0
0
LINE
8
text
62
4
5
271
100
AcDbEntity
100
AcDbLine
10
221.249800
20
200.320433
30
0.0
11
220.695410
21
201.048745
31
0.0
0
LINE
8
text
62
4
5
272
100
AcDbEntity
100
AcDbLine
10
220.695410
20
201.048745
30
0.0
11
220.499988
21
202.053207
31
0.0
0
LINE
8
text
62
4
5
273
100
AcDbEntity
100
AcDbLine
10
220.499988
20
202.053207
30
0.0
11
220.499988
21
202.053207
31
0.0
0
LINE
8
text
62
4
5
274
100
AcDbEntity
100
AcDbLine
10
228.999996
20
204.000010
30
0.0
11
229.656246
21
203.931631
31
0.0
0
LINE
8
text
62
4
5
275
100
AcDbEntity
100
AcDbLine
10
229.656246
20
203.931631
30
0.0
11
230.124996
21
203.718264
31
0.0
0
LINE
8
text
62
4
5
276
100
AcDbEntity
100
AcDbLine
10
230.124996
20
203.718264
30
0.0
11
230.406245
21
203.407406
31
0.0
0
LINE
8
text
62
4
5
277
100
AcDbEntity
100
AcDbLine
10
230.406245
20
203.407406
30
0.0
11
230.499995
21
203.046557
31
0.0
0
LINE
8
text
62
4
5
278
100
AcDbEntity
100
AcDbLine
10
230.499995
20
203.046557
30
0.0
11
230.406245
21
202.683214
31
0.0
0
LINE
8
text
62
4
5
279
100
AcDbEntity
100
AcDbLine
10
230.406245
20
202.683214
30
0.0
11
230.124995
21
202.364876
31
0.0
0
LINE
8
text
62
4
5
27a
100
AcDbEntity
100
AcDbLine
10
230.124995
20
202.364876
30
0.0
11
229.656244
21
202.139040
31
0.0
0
LINE
8
text
62
4
5
27b
100
AcDbEntity
100
AcDbLine
10
229.656244
20
202.139040
30
0.0
11
228.999994
21
202.053207
31
0.0
0
LINE
8
text
62
4
5
27c
100
AcDbEntity
100
AcDbLine
10
228.999994
20
202.053207
30
0.0
11
230.999995
21
200.053205
31
0.0
0
LINE
8
text
62
4
5
27d
100
AcDbEntity
100
AcDbLine
10
228.999994
20
200.053205
30
0.0
11
228.999994
21
204.053206
31
0.0
0
LINE
8
text
62
4
5
27e
100
AcDbEntity
100
AcDbLine
10
224.141106
20
199.912094
30
0.0
11
226.141105
21
203.912095
31
0.0
0
LINE
8
text
62
4
5
27f
100
AcDbEntity
100
AcDbLine
10
226.141105
20
203.912095
30
0.0
11
228.141107
21
199.912094
31
0.0
0
LINE
8
text
62
4
5
280
100
AcDbEntity
100
AcDbLine
10
228.141107
20
199.912094
30
0.0
11
228.141107
21
199.912094
31
0.0
0
LINE
8
text
62
4
5
281
100
AcDbEntity
100
AcDbLine
10
227.141106
20
201.912096
30
0.0
11
225.141107
21
201.912096
31
0.0
0
LINE
8
text
62
4
5
282
100
AcDbEntity
100
AcDbLine
10
231.999993
20
200.053205
30
0.0
11
231.999993
21
204.053206
31
0.0
0
LINE
8
text
62
4
5
283
100
AcDbEntity
100
AcDbLine
10
231.999993
20
204.053206
30
0.0
11
232.656244
21
203.881331
31
0.0
0
LINE
8
text
62
4
5
284
100
AcDbEntity
100
AcDbLine
10
232.656244
20
203.881331
30
0.0
11
233.124994
21
203.428206
31
0.0
0
LINE
8
text
62
4
5
285
100
AcDbEntity
100
AcDbLine
10
233.124994
20
203.428206
30
0.0
11
233.406244
21
202.787581
31
0.0
0
LINE
8
text
62
4
5
286
100
AcDbEntity
100
AcDbLine
10
233.406244
20
202.787581
30
0.0
11
233.499994
21
202.053206
31
0.0
0
LINE
8
text
62
4
5
287
100
AcDbEntity
100
AcDbLine
10
233.499994
20
202.053206
30
0.0
11
233.406244
21
201.318830
31
0.0
0
LINE
8
text
62
4
5
288
100
AcDbEntity
100
AcDbLine
10
233.406244
20
201.318830
30
0.0
11
233.124994
21
200.678205
31
0.0
0
LINE
8
text
62
4
5
289
100
AcDbEntity
100
AcDbLine
10
233.124994
20
200.678205
30
0.0
11
232.656244
21
200.225080
31
0.0
0
LINE
8
text
62
4
5
28a
100
AcDbEntity
100
AcDbLine
10
232.656244
20
200.225080
30
0.0
11
231.999993
21
200.053205
31
0.0
0
LINE
8
text
62
4
5
28b
100
AcDbEntity
100
AcDbLine
10
231.999993
20
200.053205
30
0.0
11
231.999993
21
200.053205
31
0.0
0
LINE
8
text
62
4
5
28c
100
AcDbEntity
100
AcDbLine
10
235.999994
20
204.053206
30
0.0
11
235.054681
21
203.967268
31
0.0
0
LINE
8
text
62
4
5
28d
100
AcDbEntity
100
AcDbLine
10
235.054681
20
203.967268
30
0.0
11
234.437494
21
203.740705
31
0.0
0
LINE
8
text
62
4
5
28e
100
AcDbEntity
100
AcDbLine
10
234.437494
20
203.740705
30
0.0
11
234.101557
21
203.420393
31
0.0
0
LINE
8
text
62
4
5
28f
100
AcDbEntity
100
AcDbLine
10
234.101557
20
203.420393
30
0.0
11
233.999994
21
203.053205
31
0.0
0
LINE
8
text
62
4
5
290
100
AcDbEntity
100
AcDbLine
10
233.999994
20
203.053205
30
0.0
11
234.085932
21
202.686017
31
0.0
0
LINE
8
text
62
4
5
291
100
AcDbEntity
100
AcDbLine
10
234.085932
20
202.686017
30
0.0
11
234.312495
21
202.365704
31
0.0
0
LINE
8
text
62
4
5
292
100
AcDbEntity
100
AcDbLine
10
234.312495
20
202.365704
30
0.0
11
234.632808
21
202.139142
31
0.0
0
LINE
8
text
62
4
5
293
100
AcDbEntity
100
AcDbLine
10
234.632808
20
202.139142
30
0.0
11
234.999996
21
202.053204
31
0.0
0
LINE
8
text
62
4
5
294
100
AcDbEntity
100
AcDbLine
10
234.999996
20
202.053204
30
0.0
11
235.828120
21
201.740704
31
0.0
0
LINE
8
text
62
4
5
295
100
AcDbEntity
100
AcDbLine
10
235.828120
20
201.740704
30
0.0
11
236.177729
21
201.420392
31
0.0
0
LINE
8
text
62
4
5
296
100
AcDbEntity
100
AcDbLine
10
236.177729
20
201.420392
30
0.0
11
236.374995
21
201.053205
31
0.0
0
LINE
8
text
62
4
5
297
100
AcDbEntity
100
AcDbLine
10
236.374995
20
201.053205
30
0.0
11
236.337885
21
200.686017
31
0.0
0
LINE
8
text
62
4
5
298
100
AcDbEntity
100
AcDbLine
10
236.337885
20
200.686017
30
0.0
11
235.984370
21
200.365705
31
0.0
0
LINE
8
text
62
4
5
299
100
AcDbEntity
100
AcDbLine
10
235.984370
20
200.365705
30
0.0
11
235.232417
21
200.139143
31
0.0
0
LINE
8
text
62
4
5
29a
100
AcDbEntity
100
AcDbLine
10
235.232417
20
200.139143
30
0.0
11
233.999995
21
200.053205
31
0.0
  0
ENDSEC
  0
SECTION
  2
OBJECTS
  0
DICTIONARY
  5
C
330
0
100
AcDbDictionary
  3
ACAD_GROUP
350
D
  3
ACAD_MLINESTYLE
350
17
  0
DICTIONARY
  5
D
330
C
100
AcDbDictionary
  0
DICTIONARY
  5
1A
330
C
100
AcDbDictionary
  0
DICTIONARY
  5
17
330
C
100
AcDbDictionary
  3
STANDARD
350
18
  0
DICTIONARY
  5
19
330
C
100
AcDbDictionary
  0
ENDSEC
  0
EOF
