999
Inkscape export via "Better Better DXF Output" (http://tim.cexx.org/?p=590)
  0
SECTION
  2
HEADER
  9
$ACADVER
  1
AC1014
  9
$HANDSEED
  5
FFFF
  0
ENDSEC
  0
SECTION
  2
TABLES
  0
TABLE
  2
VPORT
  5
8
330
0
100
AcDbSymbolTable
 70
     4
  0
VPORT
  5
2E
330
8
100
AcDbSymbolTableRecord
100
AcDbViewportTableRecord
  2
*ACTIVE
 70
     0
 10
0.0
 20
0.0
 11
1.0
 21
1.0
 12
4.25
 22
5.5
 13
0.0
 23
0.0
 14
10.0
 24
10.0
 15
10.0
 25
10.0
 16
0.0
 26
0.0
 36
1.0
 17
0.0
 27
0.0
 37
0.0
 40
11
 41
1.24
 42
50.0
 43
0.0
 44
0.0
 50
0.0
 51
0.0
 71
     0
 72
   100
 73
     1
 74
     3
 75
     0
 76
     0
 77
     0
 78
     0
  0
ENDTAB
  0
TABLE
  2
LTYPE
  5
5
330
0
100
AcDbSymbolTable
 70
     1
  0
LTYPE
  5
14
330
5
100
AcDbSymbolTableRecord
100
AcDbLinetypeTableRecord
  2
BYBLOCK
 70
     0
  3

 72
    65
 73
     0
 40
0.0
  0
LTYPE
  5
15
330
5
100
AcDbSymbolTableRecord
100
AcDbLinetypeTableRecord
  2
BYLAYER
 70
     0
  3

 72
    65
 73
     0
 40
0.0
  0
LTYPE
  5
16
330
5
100
AcDbSymbolTableRecord
100
AcDbLinetypeTableRecord
  2
CONTINUOUS
 70
     0
  3
Solid line
 72
    65
 73
     0
 40
0.0
  0
ENDTAB
  0
TABLE
  2
STYLE
  5
3
330
0
100
AcDbSymbolTable
 70
     1
  0
STYLE
  5
11
330
3
100
AcDbSymbolTableRecord
100
AcDbTextStyleTableRecord
  2
STANDARD
 70
     0
 40
0.0
 41
1.0
 50
0.0
 71
     0
 42
2.5
  3
txt
  4

  0
ENDTAB
  0
TABLE
  2
VIEW
  5
6
330
0
100
AcDbSymbolTable
 70
     0
  0
ENDTAB
  0
TABLE
  2
UCS
  5
7
330
0
100
AcDbSymbolTable
 70
     0
  0
ENDTAB
  0
TABLE
  2
APPID
  5
9
330
0
100
AcDbSymbolTable
 70
     2
  0
APPID
  5
12
330
9
100
AcDbSymbolTableRecord
100
AcDbRegAppTableRecord
  2
ACAD
 70
     0
  0
ENDTAB
  0
TABLE
  2
DIMSTYLE
  5
A
330
0
100
AcDbSymbolTable
 70
     1
  0
DIMSTYLE
105
27
330
A
100
AcDbSymbolTableRecord
100
AcDbDimStyleTableRecord
  2
ISO-25
 70
     0
  3

  4

  5

  6

  7

 40
1.0
 41
2.5
 42
0.625
 43
3.75
 44
1.25
 45
0.0
 46
0.0
 47
0.0
 48
0.0
140
2.5
141
2.5
142
0.0
143
0.03937007874016
144
1.0
145
0.0
146
1.0
147
0.625
 71
     0
 72
     0
 73
     0
 74
     0
 75
     0
 76
     0
 77
     1
 78
     8
170
     0
171
     3
172
     1
173
     0
174
     0
175
     0
176
     0
177
     0
178
     0
270
     2
271
     2
272
     2
273
     2
274
     3
340
11
275
     0
280
     0
281
     0
282
     0
283
     0
284
     8
285
     0
286
     0
287
     3
288
     0
  0
ENDTAB
  0
TABLE
  2
BLOCK_RECORD
  5
1
330
0
100
AcDbSymbolTable
 70
     1
  0
BLOCK_RECORD
  5
1F
330
1
100
AcDbSymbolTableRecord
100
AcDbBlockTableRecord
  2
*MODEL_SPACE
  0
BLOCK_RECORD
  5
1B
330
1
100
AcDbSymbolTableRecord
100
AcDbBlockTableRecord
  2
*PAPER_SPACE
  0
ENDTAB
0
TABLE
2
LAYER
5
2
330
0
100
AcDbSymbolTable
70
2
0
LAYER
5
10
330
2
100
AcDbSymbolTableRecord
100
AcDbLayerTableRecord
2
Layer 1
70
0
62
7
6
CONTINUOUS
0
LAYER
5
10
330
2
100
AcDbSymbolTableRecord
100
AcDbLayerTableRecord
2
Default
70
0
62
7
6
CONTINUOUS
0
ENDTAB
0
ENDSEC
  0
SECTION
  2
BLOCKS
  0
BLOCK
  5
20
330
1F
100
AcDbEntity
  8
0
100
AcDbBlockBegin
  2
*MODEL_SPACE
 70
     0
 10
0.0
 20
0.0
 30
0.0
  3
*MODEL_SPACE
  1

  0
ENDBLK
  5
21
330
1F
100
AcDbEntity
  8
0
100
AcDbBlockEnd
  0
BLOCK
  5
1C
330
1B
100
AcDbEntity
 67
     1
  8
0
100
AcDbBlockBegin
  2
*PAPER_SPACE
  1

  0
ENDBLK
  5
1D
330
1B
100
AcDbEntity
 67
     1
  8
0
100
AcDbBlockEnd
  0
ENDSEC
  0
SECTION
  2
ENTITIES
0
LINE
8
Layer 1
62
4
5
100
100
AcDbEntity
100
AcDbLine
10
49.999999
20
200.000009
30
0.0
11
100.000000
21
200.000009
31
0.0
0
LINE
8
Layer 1
62
4
5
101
100
AcDbEntity
100
AcDbLine
10
100.000000
20
200.000009
30
0.0
11
100.000000
21
240.000011
31
0.0
0
LINE
8
Layer 1
62
4
5
102
100
AcDbEntity
100
AcDbLine
10
100.000000
20
240.000011
30
0.0
11
49.999999
21
240.000011
31
0.0
0
LINE
8
Layer 1
62
4
5
103
100
AcDbEntity
100
AcDbLine
10
49.999999
20
240.000011
30
0.0
11
49.999999
21
200.000009
31
0.0
0
LINE
8
Layer 1
62
4
5
104
100
AcDbEntity
100
AcDbLine
10
49.999999
20
200.000009
30
0.0
11
49.999999
21
200.000009
31
0.0
0
LINE
8
Layer 1
62
4
5
105
100
AcDbEntity
100
AcDbLine
10
104.000001
20
200.000009
30
0.0
11
104.000001
21
236.000011
31
0.0
0
LINE
8
Layer 1
62
4
5
106
100
AcDbEntity
100
AcDbLine
10
104.000001
20
236.000011
30
0.0
11
221.999999
21
236.000011
31
0.0
0
LINE
8
Layer 1
62
4
5
107
100
AcDbEntity
100
AcDbLine
10
221.999999
20
236.000011
30
0.0
11
221.999999
21
200.000009
31
0.0
0
LINE
8
Layer 1
62
4
5
108
100
AcDbEntity
100
AcDbLine
10
221.999999
20
200.000009
30
0.0
11
104.000001
21
200.000009
31
0.0
0
LINE
8
Layer 1
62
4
5
109
100
AcDbEntity
100
AcDbLine
10
104.000001
20
200.000009
30
0.0
11
104.000001
21
200.000009
31
0.0
0
LINE
8
Layer 1
62
4
5
10a
100
AcDbEntity
100
AcDbLine
10
226.000000
20
196.000009
30
0.0
11
226.000000
21
206.000009
31
0.0
0
LINE
8
Layer 1
62
4
5
10b
100
AcDbEntity
100
AcDbLine
10
226.000000
20
206.000009
30
0.0
11
221.999999
21
206.000009
31
0.0
0
LINE
8
Layer 1
62
4
5
10c
100
AcDbEntity
100
AcDbLine
10
221.999999
20
206.000009
30
0.0
11
221.999999
21
216.000011
31
0.0
0
LINE
8
Layer 1
62
4
5
10d
100
AcDbEntity
100
AcDbLine
10
221.999999
20
216.000011
30
0.0
11
226.000000
21
216.000008
31
0.0
0
LINE
8
Layer 1
62
4
5
10e
100
AcDbEntity
100
AcDbLine
10
226.000000
20
216.000008
30
0.0
11
226.000000
21
226.000011
31
0.0
0
LINE
8
Layer 1
62
4
5
10f
100
AcDbEntity
100
AcDbLine
10
226.000000
20
226.000011
30
0.0
11
221.999999
21
226.000011
31
0.0
0
LINE
8
Layer 1
62
4
5
110
100
AcDbEntity
100
AcDbLine
10
221.999999
20
226.000011
30
0.0
11
221.999999
21
236.000011
31
0.0
0
LINE
8
Layer 1
62
4
5
111
100
AcDbEntity
100
AcDbLine
10
221.999999
20
236.000011
30
0.0
11
226.000000
21
236.000008
31
0.0
0
LINE
8
Layer 1
62
4
5
112
100
AcDbEntity
100
AcDbLine
10
226.000000
20
236.000008
30
0.0
11
226.000000
21
240.000008
31
0.0
0
LINE
8
Layer 1
62
4
5
113
100
AcDbEntity
100
AcDbLine
10
226.000000
20
240.000008
30
0.0
11
210.000001
21
240.000008
31
0.0
0
LINE
8
Layer 1
62
4
5
114
100
AcDbEntity
100
AcDbLine
10
210.000001
20
240.000008
30
0.0
11
210.000001
21
236.000011
31
0.0
0
LINE
8
Layer 1
62
4
5
115
100
AcDbEntity
100
AcDbLine
10
210.000001
20
236.000011
30
0.0
11
190.000001
21
236.000008
31
0.0
0
LINE
8
Layer 1
62
4
5
116
100
AcDbEntity
100
AcDbLine
10
190.000001
20
236.000008
30
0.0
11
190.000001
21
240.000011
31
0.0
0
LINE
8
Layer 1
62
4
5
117
100
AcDbEntity
100
AcDbLine
10
190.000001
20
240.000011
30
0.0
11
169.999999
21
240.000011
31
0.0
0
LINE
8
Layer 1
62
4
5
118
100
AcDbEntity
100
AcDbLine
10
169.999999
20
240.000011
30
0.0
11
169.999999
21
236.000011
31
0.0
0
LINE
8
Layer 1
62
4
5
119
100
AcDbEntity
100
AcDbLine
10
169.999999
20
236.000011
30
0.0
11
149.999999
21
236.000008
31
0.0
0
LINE
8
Layer 1
62
4
5
11a
100
AcDbEntity
100
AcDbLine
10
149.999999
20
236.000008
30
0.0
11
149.999999
21
240.000011
31
0.0
0
LINE
8
Layer 1
62
4
5
11b
100
AcDbEntity
100
AcDbLine
10
149.999999
20
240.000011
30
0.0
11
130.000000
21
240.000011
31
0.0
0
LINE
8
Layer 1
62
4
5
11c
100
AcDbEntity
100
AcDbLine
10
130.000000
20
240.000011
30
0.0
11
130.000000
21
236.000011
31
0.0
0
LINE
8
Layer 1
62
4
5
11d
100
AcDbEntity
100
AcDbLine
10
130.000000
20
236.000011
30
0.0
11
110.000000
21
236.000011
31
0.0
0
LINE
8
Layer 1
62
4
5
11e
100
AcDbEntity
100
AcDbLine
10
110.000000
20
236.000011
30
0.0
11
110.000000
21
240.000011
31
0.0
0
LINE
8
Layer 1
62
4
5
11f
100
AcDbEntity
100
AcDbLine
10
110.000000
20
240.000011
30
0.0
11
104.000001
21
240.000011
31
0.0
0
LINE
8
Layer 1
62
4
5
120
100
AcDbEntity
100
AcDbLine
10
104.000001
20
240.000011
30
0.0
11
104.000001
21
244.000009
31
0.0
0
LINE
8
Layer 1
62
4
5
121
100
AcDbEntity
100
AcDbLine
10
104.000001
20
244.000009
30
0.0
11
90.000001
21
244.000009
31
0.0
0
LINE
8
Layer 1
62
4
5
122
100
AcDbEntity
100
AcDbLine
10
90.000001
20
244.000009
30
0.0
11
90.000001
21
240.000008
31
0.0
0
LINE
8
Layer 1
62
4
5
123
100
AcDbEntity
100
AcDbLine
10
90.000001
20
240.000008
30
0.0
11
70.000001
21
240.000011
31
0.0
0
LINE
8
Layer 1
62
4
5
124
100
AcDbEntity
100
AcDbLine
10
70.000001
20
240.000011
30
0.0
11
70.000001
21
244.000009
31
0.0
0
LINE
8
Layer 1
62
4
5
125
100
AcDbEntity
100
AcDbLine
10
70.000001
20
244.000009
30
0.0
11
49.999999
21
244.000009
31
0.0
0
LINE
8
Layer 1
62
4
5
126
100
AcDbEntity
100
AcDbLine
10
49.999999
20
244.000009
30
0.0
11
49.999999
21
236.000011
31
0.0
0
LINE
8
Layer 1
62
4
5
127
100
AcDbEntity
100
AcDbLine
10
49.999999
20
236.000011
30
0.0
11
46.000001
21
236.000011
31
0.0
0
LINE
8
Layer 1
62
4
5
128
100
AcDbEntity
100
AcDbLine
10
46.000001
20
236.000011
30
0.0
11
46.000001
21
226.000008
31
0.0
0
LINE
8
Layer 1
62
4
5
129
100
AcDbEntity
100
AcDbLine
10
46.000001
20
226.000008
30
0.0
11
49.999999
21
226.000008
31
0.0
0
LINE
8
Layer 1
62
4
5
12a
100
AcDbEntity
100
AcDbLine
10
49.999999
20
226.000008
30
0.0
11
49.999999
21
216.000008
31
0.0
0
LINE
8
Layer 1
62
4
5
12b
100
AcDbEntity
100
AcDbLine
10
49.999999
20
216.000008
30
0.0
11
46.000001
21
216.000011
31
0.0
0
LINE
8
Layer 1
62
4
5
12c
100
AcDbEntity
100
AcDbLine
10
46.000001
20
216.000011
30
0.0
11
46.000001
21
206.000009
31
0.0
0
LINE
8
Layer 1
62
4
5
12d
100
AcDbEntity
100
AcDbLine
10
46.000001
20
206.000009
30
0.0
11
49.999999
21
206.000009
31
0.0
0
LINE
8
Layer 1
62
4
5
12e
100
AcDbEntity
100
AcDbLine
10
49.999999
20
206.000009
30
0.0
11
49.999999
21
196.000009
31
0.0
0
LINE
8
Layer 1
62
4
5
12f
100
AcDbEntity
100
AcDbLine
10
49.999999
20
196.000009
30
0.0
11
70.000001
21
196.000009
31
0.0
0
LINE
8
Layer 1
62
4
5
130
100
AcDbEntity
100
AcDbLine
10
70.000001
20
196.000009
30
0.0
11
70.000001
21
200.000009
31
0.0
0
LINE
8
Layer 1
62
4
5
131
100
AcDbEntity
100
AcDbLine
10
70.000001
20
200.000009
30
0.0
11
90.000001
21
200.000009
31
0.0
0
LINE
8
Layer 1
62
4
5
132
100
AcDbEntity
100
AcDbLine
10
90.000001
20
200.000009
30
0.0
11
90.000001
21
196.000009
31
0.0
0
LINE
8
Layer 1
62
4
5
133
100
AcDbEntity
100
AcDbLine
10
90.000001
20
196.000009
30
0.0
11
110.000000
21
196.000009
31
0.0
0
LINE
8
Layer 1
62
4
5
134
100
AcDbEntity
100
AcDbLine
10
110.000000
20
196.000009
30
0.0
11
110.000000
21
200.000009
31
0.0
0
LINE
8
Layer 1
62
4
5
135
100
AcDbEntity
100
AcDbLine
10
110.000000
20
200.000009
30
0.0
11
130.000000
21
200.000009
31
0.0
0
LINE
8
Layer 1
62
4
5
136
100
AcDbEntity
100
AcDbLine
10
130.000000
20
200.000009
30
0.0
11
130.000000
21
196.000009
31
0.0
0
LINE
8
Layer 1
62
4
5
137
100
AcDbEntity
100
AcDbLine
10
130.000000
20
196.000009
30
0.0
11
149.999999
21
196.000009
31
0.0
0
LINE
8
Layer 1
62
4
5
138
100
AcDbEntity
100
AcDbLine
10
149.999999
20
196.000009
30
0.0
11
149.999999
21
200.000009
31
0.0
0
LINE
8
Layer 1
62
4
5
139
100
AcDbEntity
100
AcDbLine
10
149.999999
20
200.000009
30
0.0
11
169.999999
21
200.000009
31
0.0
0
LINE
8
Layer 1
62
4
5
13a
100
AcDbEntity
100
AcDbLine
10
169.999999
20
200.000009
30
0.0
11
169.999999
21
196.000009
31
0.0
0
LINE
8
Layer 1
62
4
5
13b
100
AcDbEntity
100
AcDbLine
10
169.999999
20
196.000009
30
0.0
11
190.000001
21
196.000009
31
0.0
0
LINE
8
Layer 1
62
4
5
13c
100
AcDbEntity
100
AcDbLine
10
190.000001
20
196.000009
30
0.0
11
190.000001
21
200.000009
31
0.0
0
LINE
8
Layer 1
62
4
5
13d
100
AcDbEntity
100
AcDbLine
10
190.000001
20
200.000009
30
0.0
11
210.000001
21
200.000009
31
0.0
0
LINE
8
Layer 1
62
4
5
13e
100
AcDbEntity
100
AcDbLine
10
210.000001
20
200.000009
30
0.0
11
210.000001
21
196.000009
31
0.0
0
LINE
8
Layer 1
62
4
5
13f
100
AcDbEntity
100
AcDbLine
10
210.000001
20
196.000009
30
0.0
11
226.000000
21
196.000009
31
0.0
0
LINE
8
Layer 1
62
4
5
140
100
AcDbEntity
100
AcDbLine
10
226.000000
20
196.000009
30
0.0
11
226.000000
21
196.000009
31
0.0
0
LINE
8
Layer 1
62
4
5
141
100
AcDbEntity
100
AcDbLine
10
221.999999
20
168.000011
30
0.0
11
221.999999
21
166.000009
31
0.0
0
LINE
8
Layer 1
62
4
5
142
100
AcDbEntity
100
AcDbLine
10
221.999999
20
166.000009
30
0.0
11
104.000001
21
166.000009
31
0.0
0
LINE
8
Layer 1
62
4
5
143
100
AcDbEntity
100
AcDbLine
10
104.000001
20
166.000009
30
0.0
11
104.000001
21
168.000011
31
0.0
0
LINE
8
Layer 1
62
4
5
144
100
AcDbEntity
100
AcDbLine
10
104.000001
20
168.000011
30
0.0
11
221.999999
21
168.000011
31
0.0
0
LINE
8
Layer 1
62
4
5
145
100
AcDbEntity
100
AcDbLine
10
221.999999
20
168.000011
30
0.0
11
221.999999
21
168.000011
31
0.0
0
LINE
8
Layer 1
62
4
5
146
100
AcDbEntity
100
AcDbLine
10
49.999999
20
138.000009
30
0.0
11
100.000000
21
138.000009
31
0.0
0
LINE
8
Layer 1
62
4
5
147
100
AcDbEntity
100
AcDbLine
10
100.000000
20
138.000009
30
0.0
11
100.000000
21
136.000010
31
0.0
0
LINE
8
Layer 1
62
4
5
148
100
AcDbEntity
100
AcDbLine
10
100.000000
20
136.000010
30
0.0
11
49.999999
21
136.000007
31
0.0
0
LINE
8
Layer 1
62
4
5
149
100
AcDbEntity
100
AcDbLine
10
49.999999
20
136.000007
30
0.0
11
49.999999
21
138.000009
31
0.0
0
LINE
8
Layer 1
62
4
5
14a
100
AcDbEntity
100
AcDbLine
10
49.999999
20
138.000009
30
0.0
11
49.999999
21
138.000009
31
0.0
0
LINE
8
Layer 1
62
4
5
14b
100
AcDbEntity
100
AcDbLine
10
80.001181
20
180.002632
30
0.0
11
80.001181
21
173.996590
31
0.0
0
LINE
8
Layer 1
62
4
5
14c
100
AcDbEntity
100
AcDbLine
10
80.001181
20
173.996590
30
0.0
11
54.001458
21
155.996104
31
0.0
0
LINE
8
Layer 1
62
4
5
14d
100
AcDbEntity
100
AcDbLine
10
54.001458
20
155.996104
30
0.0
11
49.997431
21
155.996104
31
0.0
0
LINE
8
Layer 1
62
4
5
14e
100
AcDbEntity
100
AcDbLine
10
49.997431
20
155.996104
30
0.0
11
49.997431
21
152.000895
31
0.0
0
LINE
8
Layer 1
62
4
5
14f
100
AcDbEntity
100
AcDbLine
10
49.997431
20
152.000895
30
0.0
11
46.002222
21
152.000895
31
0.0
0
LINE
8
Layer 1
62
4
5
150
100
AcDbEntity
100
AcDbLine
10
46.002222
20
152.000895
30
0.0
11
46.002222
21
144.001659
31
0.0
0
LINE
8
Layer 1
62
4
5
151
100
AcDbEntity
100
AcDbLine
10
46.002222
20
144.001659
30
0.0
11
49.997431
21
144.001659
31
0.0
0
LINE
8
Layer 1
62
4
5
152
100
AcDbEntity
100
AcDbLine
10
49.997431
20
144.001659
30
0.0
11
49.997431
21
136.002423
31
0.0
0
LINE
8
Layer 1
62
4
5
153
100
AcDbEntity
100
AcDbLine
10
49.997431
20
136.002423
30
0.0
11
46.002222
21
136.002423
31
0.0
0
LINE
8
Layer 1
62
4
5
154
100
AcDbEntity
100
AcDbLine
10
46.002222
20
136.002423
30
0.0
11
46.002222
21
128.003187
31
0.0
0
LINE
8
Layer 1
62
4
5
155
100
AcDbEntity
100
AcDbLine
10
46.002222
20
128.003187
30
0.0
11
49.997431
21
128.003187
31
0.0
0
LINE
8
Layer 1
62
4
5
156
100
AcDbEntity
100
AcDbLine
10
49.997431
20
128.003187
30
0.0
11
49.997431
21
120.003951
31
0.0
0
LINE
8
Layer 1
62
4
5
157
100
AcDbEntity
100
AcDbLine
10
49.997431
20
120.003951
30
0.0
11
64.002708
21
120.003951
31
0.0
0
LINE
8
Layer 1
62
4
5
158
100
AcDbEntity
100
AcDbLine
10
64.002708
20
120.003951
30
0.0
11
64.002708
21
136.002423
31
0.0
0
LINE
8
Layer 1
62
4
5
159
100
AcDbEntity
100
AcDbLine
10
64.002708
20
136.002423
30
0.0
11
75.997153
21
136.002423
31
0.0
0
LINE
8
Layer 1
62
4
5
15a
100
AcDbEntity
100
AcDbLine
10
75.997153
20
136.002423
30
0.0
11
75.997153
21
120.003951
31
0.0
0
LINE
8
Layer 1
62
4
5
15b
100
AcDbEntity
100
AcDbLine
10
75.997153
20
120.003951
30
0.0
11
69.999931
21
120.003951
31
0.0
0
LINE
8
Layer 1
62
4
5
15c
100
AcDbEntity
100
AcDbLine
10
69.999931
20
120.003951
30
0.0
11
69.999931
21
115.999923
31
0.0
0
LINE
8
Layer 1
62
4
5
15d
100
AcDbEntity
100
AcDbLine
10
69.999931
20
115.999923
30
0.0
11
90.002431
21
115.999923
31
0.0
0
LINE
8
Layer 1
62
4
5
15e
100
AcDbEntity
100
AcDbLine
10
90.002431
20
115.999923
30
0.0
11
90.002431
21
120.003951
31
0.0
0
LINE
8
Layer 1
62
4
5
15f
100
AcDbEntity
100
AcDbLine
10
90.002431
20
120.003951
30
0.0
11
109.996111
21
120.003951
31
0.0
0
LINE
8
Layer 1
62
4
5
160
100
AcDbEntity
100
AcDbLine
10
109.996111
20
120.003951
30
0.0
11
109.996111
21
115.999923
31
0.0
0
LINE
8
Layer 1
62
4
5
161
100
AcDbEntity
100
AcDbLine
10
109.996111
20
115.999923
30
0.0
11
129.998611
21
115.999923
31
0.0
0
LINE
8
Layer 1
62
4
5
162
100
AcDbEntity
100
AcDbLine
10
129.998611
20
115.999923
30
0.0
11
129.998611
21
120.003951
31
0.0
0
LINE
8
Layer 1
62
4
5
163
100
AcDbEntity
100
AcDbLine
10
129.998611
20
120.003951
30
0.0
11
150.001111
21
120.003951
31
0.0
0
LINE
8
Layer 1
62
4
5
164
100
AcDbEntity
100
AcDbLine
10
150.001111
20
120.003951
30
0.0
11
150.001111
21
115.999923
31
0.0
0
LINE
8
Layer 1
62
4
5
165
100
AcDbEntity
100
AcDbLine
10
150.001111
20
115.999923
30
0.0
11
170.003611
21
115.999923
31
0.0
0
LINE
8
Layer 1
62
4
5
166
100
AcDbEntity
100
AcDbLine
10
170.003611
20
115.999923
30
0.0
11
170.003611
21
120.003951
31
0.0
0
LINE
8
Layer 1
62
4
5
167
100
AcDbEntity
100
AcDbLine
10
170.003611
20
120.003951
30
0.0
11
189.997292
21
120.003951
31
0.0
0
LINE
8
Layer 1
62
4
5
168
100
AcDbEntity
100
AcDbLine
10
189.997292
20
120.003951
30
0.0
11
189.997292
21
115.999923
31
0.0
0
LINE
8
Layer 1
62
4
5
169
100
AcDbEntity
100
AcDbLine
10
189.997292
20
115.999923
30
0.0
11
209.999792
21
115.999923
31
0.0
0
LINE
8
Layer 1
62
4
5
16a
100
AcDbEntity
100
AcDbLine
10
209.999792
20
115.999923
30
0.0
11
209.999792
21
120.003951
31
0.0
0
LINE
8
Layer 1
62
4
5
16b
100
AcDbEntity
100
AcDbLine
10
209.999792
20
120.003951
30
0.0
11
225.998264
21
120.003951
31
0.0
0
LINE
8
Layer 1
62
4
5
16c
100
AcDbEntity
100
AcDbLine
10
225.998264
20
120.003951
30
0.0
11
225.998264
21
128.003187
31
0.0
0
LINE
8
Layer 1
62
4
5
16d
100
AcDbEntity
100
AcDbLine
10
225.998264
20
128.003187
30
0.0
11
222.003056
21
128.003187
31
0.0
0
LINE
8
Layer 1
62
4
5
16e
100
AcDbEntity
100
AcDbLine
10
222.003056
20
128.003187
30
0.0
11
222.003056
21
136.002423
31
0.0
0
LINE
8
Layer 1
62
4
5
16f
100
AcDbEntity
100
AcDbLine
10
222.003056
20
136.002423
30
0.0
11
225.998264
21
136.002423
31
0.0
0
LINE
8
Layer 1
62
4
5
170
100
AcDbEntity
100
AcDbLine
10
225.998264
20
136.002423
30
0.0
11
225.998264
21
144.001659
31
0.0
0
LINE
8
Layer 1
62
4
5
171
100
AcDbEntity
100
AcDbLine
10
225.998264
20
144.001659
30
0.0
11
222.003056
21
144.001659
31
0.0
0
LINE
8
Layer 1
62
4
5
172
100
AcDbEntity
100
AcDbLine
10
222.003056
20
144.001659
30
0.0
11
222.003056
21
152.000895
31
0.0
0
LINE
8
Layer 1
62
4
5
173
100
AcDbEntity
100
AcDbLine
10
222.003056
20
152.000895
30
0.0
11
225.998264
21
152.000895
31
0.0
0
LINE
8
Layer 1
62
4
5
174
100
AcDbEntity
100
AcDbLine
10
225.998264
20
152.000895
30
0.0
11
225.998264
21
160.000132
31
0.0
0
LINE
8
Layer 1
62
4
5
175
100
AcDbEntity
100
AcDbLine
10
225.998264
20
160.000132
30
0.0
11
222.003056
21
160.000132
31
0.0
0
LINE
8
Layer 1
62
4
5
176
100
AcDbEntity
100
AcDbLine
10
222.003056
20
160.000132
30
0.0
11
222.003056
21
167.999368
31
0.0
0
LINE
8
Layer 1
62
4
5
177
100
AcDbEntity
100
AcDbLine
10
222.003056
20
167.999368
30
0.0
11
225.998264
21
167.999368
31
0.0
0
LINE
8
Layer 1
62
4
5
178
100
AcDbEntity
100
AcDbLine
10
225.998264
20
167.999368
30
0.0
11
225.998264
21
175.998604
31
0.0
0
LINE
8
Layer 1
62
4
5
179
100
AcDbEntity
100
AcDbLine
10
225.998264
20
175.998604
30
0.0
11
209.999792
21
175.998604
31
0.0
0
LINE
8
Layer 1
62
4
5
17a
100
AcDbEntity
100
AcDbLine
10
209.999792
20
175.998604
30
0.0
11
209.999792
21
180.002632
31
0.0
0
LINE
8
Layer 1
62
4
5
17b
100
AcDbEntity
100
AcDbLine
10
209.999792
20
180.002632
30
0.0
11
189.997292
21
180.002632
31
0.0
0
LINE
8
Layer 1
62
4
5
17c
100
AcDbEntity
100
AcDbLine
10
189.997292
20
180.002632
30
0.0
11
189.997292
21
175.998604
31
0.0
0
LINE
8
Layer 1
62
4
5
17d
100
AcDbEntity
100
AcDbLine
10
189.997292
20
175.998604
30
0.0
11
170.003611
21
175.998604
31
0.0
0
LINE
8
Layer 1
62
4
5
17e
100
AcDbEntity
100
AcDbLine
10
170.003611
20
175.998604
30
0.0
11
170.003611
21
180.002632
31
0.0
0
LINE
8
Layer 1
62
4
5
17f
100
AcDbEntity
100
AcDbLine
10
170.003611
20
180.002632
30
0.0
11
150.001111
21
180.002632
31
0.0
0
LINE
8
Layer 1
62
4
5
180
100
AcDbEntity
100
AcDbLine
10
150.001111
20
180.002632
30
0.0
11
150.001111
21
175.998604
31
0.0
0
LINE
8
Layer 1
62
4
5
181
100
AcDbEntity
100
AcDbLine
10
150.001111
20
175.998604
30
0.0
11
129.998611
21
175.998604
31
0.0
0
LINE
8
Layer 1
62
4
5
182
100
AcDbEntity
100
AcDbLine
10
129.998611
20
175.998604
30
0.0
11
129.998611
21
180.002632
31
0.0
0
LINE
8
Layer 1
62
4
5
183
100
AcDbEntity
100
AcDbLine
10
129.998611
20
180.002632
30
0.0
11
109.996111
21
180.002632
31
0.0
0
LINE
8
Layer 1
62
4
5
184
100
AcDbEntity
100
AcDbLine
10
109.996111
20
180.002632
30
0.0
11
109.996111
21
175.998604
31
0.0
0
LINE
8
Layer 1
62
4
5
185
100
AcDbEntity
100
AcDbLine
10
109.996111
20
175.998604
30
0.0
11
90.002431
21
175.998604
31
0.0
0
LINE
8
Layer 1
62
4
5
186
100
AcDbEntity
100
AcDbLine
10
90.002431
20
175.998604
30
0.0
11
90.002431
21
180.002632
31
0.0
0
LINE
8
Layer 1
62
4
5
187
100
AcDbEntity
100
AcDbLine
10
90.002431
20
180.002632
30
0.0
11
80.001181
21
180.002632
31
0.0
0
LINE
8
Layer 1
62
4
5
188
100
AcDbEntity
100
AcDbLine
10
80.001181
20
180.002632
30
0.0
11
80.001181
21
180.002632
31
0.0
0
LINE
8
Layer 1
62
4
5
189
100
AcDbEntity
100
AcDbLine
10
221.999999
20
260.000011
30
0.0
11
221.999999
21
262.000012
31
0.0
0
LINE
8
Layer 1
62
4
5
18a
100
AcDbEntity
100
AcDbLine
10
221.999999
20
262.000012
30
0.0
11
104.000001
21
262.000012
31
0.0
0
LINE
8
Layer 1
62
4
5
18b
100
AcDbEntity
100
AcDbLine
10
104.000001
20
262.000012
30
0.0
11
104.000001
21
260.000011
31
0.0
0
LINE
8
Layer 1
62
4
5
18c
100
AcDbEntity
100
AcDbLine
10
104.000001
20
260.000011
30
0.0
11
221.999999
21
260.000011
31
0.0
0
LINE
8
Layer 1
62
4
5
18d
100
AcDbEntity
100
AcDbLine
10
221.999999
20
260.000011
30
0.0
11
221.999999
21
260.000011
31
0.0
0
LINE
8
Layer 1
62
4
5
18e
100
AcDbEntity
100
AcDbLine
10
49.999999
20
290.000012
30
0.0
11
100.000000
21
290.000012
31
0.0
0
LINE
8
Layer 1
62
4
5
18f
100
AcDbEntity
100
AcDbLine
10
100.000000
20
290.000012
30
0.0
11
100.000000
21
292.000010
31
0.0
0
LINE
8
Layer 1
62
4
5
190
100
AcDbEntity
100
AcDbLine
10
100.000000
20
292.000010
30
0.0
11
49.999999
21
292.000013
31
0.0
0
LINE
8
Layer 1
62
4
5
191
100
AcDbEntity
100
AcDbLine
10
49.999999
20
292.000013
30
0.0
11
49.999999
21
290.000012
31
0.0
0
LINE
8
Layer 1
62
4
5
192
100
AcDbEntity
100
AcDbLine
10
49.999999
20
290.000012
30
0.0
11
49.999999
21
290.000012
31
0.0
0
LINE
8
Layer 1
62
4
5
193
100
AcDbEntity
100
AcDbLine
10
109.996111
20
312.003257
30
0.0
11
109.996111
21
307.999229
31
0.0
0
LINE
8
Layer 1
62
4
5
194
100
AcDbEntity
100
AcDbLine
10
109.996111
20
307.999229
30
0.0
11
103.998889
21
307.999229
31
0.0
0
LINE
8
Layer 1
62
4
5
195
100
AcDbEntity
100
AcDbLine
10
103.998889
20
307.999229
30
0.0
11
103.998889
21
251.995757
31
0.0
0
LINE
8
Layer 1
62
4
5
196
100
AcDbEntity
100
AcDbLine
10
103.998889
20
251.995757
30
0.0
11
109.996111
21
251.995757
31
0.0
0
LINE
8
Layer 1
62
4
5
197
100
AcDbEntity
100
AcDbLine
10
109.996111
20
251.995757
30
0.0
11
109.996111
21
248.000548
31
0.0
0
LINE
8
Layer 1
62
4
5
198
100
AcDbEntity
100
AcDbLine
10
109.996111
20
248.000548
30
0.0
11
129.998611
21
248.000548
31
0.0
0
LINE
8
Layer 1
62
4
5
199
100
AcDbEntity
100
AcDbLine
10
129.998611
20
248.000548
30
0.0
11
129.998611
21
251.995757
31
0.0
0
LINE
8
Layer 1
62
4
5
19a
100
AcDbEntity
100
AcDbLine
10
129.998611
20
251.995757
30
0.0
11
150.001111
21
251.995757
31
0.0
0
LINE
8
Layer 1
62
4
5
19b
100
AcDbEntity
100
AcDbLine
10
150.001111
20
251.995757
30
0.0
11
150.001111
21
248.000548
31
0.0
0
LINE
8
Layer 1
62
4
5
19c
100
AcDbEntity
100
AcDbLine
10
150.001111
20
248.000548
30
0.0
11
170.003611
21
248.000548
31
0.0
0
LINE
8
Layer 1
62
4
5
19d
100
AcDbEntity
100
AcDbLine
10
170.003611
20
248.000548
30
0.0
11
170.003611
21
251.995757
31
0.0
0
LINE
8
Layer 1
62
4
5
19e
100
AcDbEntity
100
AcDbLine
10
170.003611
20
251.995757
30
0.0
11
189.997292
21
251.995757
31
0.0
0
LINE
8
Layer 1
62
4
5
19f
100
AcDbEntity
100
AcDbLine
10
189.997292
20
251.995757
30
0.0
11
189.997292
21
248.000548
31
0.0
0
LINE
8
Layer 1
62
4
5
1a0
100
AcDbEntity
100
AcDbLine
10
189.997292
20
248.000548
30
0.0
11
209.999792
21
248.000548
31
0.0
0
LINE
8
Layer 1
62
4
5
1a1
100
AcDbEntity
100
AcDbLine
10
209.999792
20
248.000548
30
0.0
11
209.999792
21
251.995757
31
0.0
0
LINE
8
Layer 1
62
4
5
1a2
100
AcDbEntity
100
AcDbLine
10
209.999792
20
251.995757
30
0.0
11
225.998264
21
251.995757
31
0.0
0
LINE
8
Layer 1
62
4
5
1a3
100
AcDbEntity
100
AcDbLine
10
225.998264
20
251.995757
30
0.0
11
225.998264
21
260.003812
31
0.0
0
LINE
8
Layer 1
62
4
5
1a4
100
AcDbEntity
100
AcDbLine
10
225.998264
20
260.003812
30
0.0
11
222.003056
21
260.003812
31
0.0
0
LINE
8
Layer 1
62
4
5
1a5
100
AcDbEntity
100
AcDbLine
10
222.003056
20
260.003812
30
0.0
11
222.003056
21
268.003048
31
0.0
0
LINE
8
Layer 1
62
4
5
1a6
100
AcDbEntity
100
AcDbLine
10
222.003056
20
268.003048
30
0.0
11
225.998264
21
268.003048
31
0.0
0
LINE
8
Layer 1
62
4
5
1a7
100
AcDbEntity
100
AcDbLine
10
225.998264
20
268.003048
30
0.0
11
225.998264
21
276.002284
31
0.0
0
LINE
8
Layer 1
62
4
5
1a8
100
AcDbEntity
100
AcDbLine
10
225.998264
20
276.002284
30
0.0
11
222.003056
21
276.002284
31
0.0
0
LINE
8
Layer 1
62
4
5
1a9
100
AcDbEntity
100
AcDbLine
10
222.003056
20
276.002284
30
0.0
11
222.003056
21
284.001520
31
0.0
0
LINE
8
Layer 1
62
4
5
1aa
100
AcDbEntity
100
AcDbLine
10
222.003056
20
284.001520
30
0.0
11
225.998264
21
284.001520
31
0.0
0
LINE
8
Layer 1
62
4
5
1ab
100
AcDbEntity
100
AcDbLine
10
225.998264
20
284.001520
30
0.0
11
225.998264
21
292.000757
31
0.0
0
LINE
8
Layer 1
62
4
5
1ac
100
AcDbEntity
100
AcDbLine
10
225.998264
20
292.000757
30
0.0
11
222.003056
21
292.000757
31
0.0
0
LINE
8
Layer 1
62
4
5
1ad
100
AcDbEntity
100
AcDbLine
10
222.003056
20
292.000757
30
0.0
11
222.003056
21
299.999993
31
0.0
0
LINE
8
Layer 1
62
4
5
1ae
100
AcDbEntity
100
AcDbLine
10
222.003056
20
299.999993
30
0.0
11
225.998264
21
299.999993
31
0.0
0
LINE
8
Layer 1
62
4
5
1af
100
AcDbEntity
100
AcDbLine
10
225.998264
20
299.999993
30
0.0
11
225.998264
21
307.999229
31
0.0
0
LINE
8
Layer 1
62
4
5
1b0
100
AcDbEntity
100
AcDbLine
10
225.998264
20
307.999229
30
0.0
11
209.999792
21
307.999229
31
0.0
0
LINE
8
Layer 1
62
4
5
1b1
100
AcDbEntity
100
AcDbLine
10
209.999792
20
307.999229
30
0.0
11
209.999792
21
312.003257
31
0.0
0
LINE
8
Layer 1
62
4
5
1b2
100
AcDbEntity
100
AcDbLine
10
209.999792
20
312.003257
30
0.0
11
189.997292
21
312.003257
31
0.0
0
LINE
8
Layer 1
62
4
5
1b3
100
AcDbEntity
100
AcDbLine
10
189.997292
20
312.003257
30
0.0
11
189.997292
21
307.999229
31
0.0
0
LINE
8
Layer 1
62
4
5
1b4
100
AcDbEntity
100
AcDbLine
10
189.997292
20
307.999229
30
0.0
11
170.003611
21
307.999229
31
0.0
0
LINE
8
Layer 1
62
4
5
1b5
100
AcDbEntity
100
AcDbLine
10
170.003611
20
307.999229
30
0.0
11
170.003611
21
312.003257
31
0.0
0
LINE
8
Layer 1
62
4
5
1b6
100
AcDbEntity
100
AcDbLine
10
170.003611
20
312.003257
30
0.0
11
150.001111
21
312.003257
31
0.0
0
LINE
8
Layer 1
62
4
5
1b7
100
AcDbEntity
100
AcDbLine
10
150.001111
20
312.003257
30
0.0
11
150.001111
21
307.999229
31
0.0
0
LINE
8
Layer 1
62
4
5
1b8
100
AcDbEntity
100
AcDbLine
10
150.001111
20
307.999229
30
0.0
11
129.998611
21
307.999229
31
0.0
0
LINE
8
Layer 1
62
4
5
1b9
100
AcDbEntity
100
AcDbLine
10
129.998611
20
307.999229
30
0.0
11
129.998611
21
312.003257
31
0.0
0
LINE
8
Layer 1
62
4
5
1ba
100
AcDbEntity
100
AcDbLine
10
129.998611
20
312.003257
30
0.0
11
109.996111
21
312.003257
31
0.0
0
LINE
8
Layer 1
62
4
5
1bb
100
AcDbEntity
100
AcDbLine
10
109.996111
20
312.003257
30
0.0
11
109.996111
21
312.003257
31
0.0
0
LINE
8
Layer 1
62
4
5
1bc
100
AcDbEntity
100
AcDbLine
10
221.999999
20
330.000009
30
0.0
11
221.999999
21
332.000011
31
0.0
0
LINE
8
Layer 1
62
4
5
1bd
100
AcDbEntity
100
AcDbLine
10
221.999999
20
332.000011
30
0.0
11
104.000001
21
332.000011
31
0.0
0
LINE
8
Layer 1
62
4
5
1be
100
AcDbEntity
100
AcDbLine
10
104.000001
20
332.000011
30
0.0
11
104.000001
21
330.000009
31
0.0
0
LINE
8
Layer 1
62
4
5
1bf
100
AcDbEntity
100
AcDbLine
10
104.000001
20
330.000009
30
0.0
11
221.999999
21
330.000009
31
0.0
0
LINE
8
Layer 1
62
4
5
1c0
100
AcDbEntity
100
AcDbLine
10
221.999999
20
330.000009
30
0.0
11
221.999999
21
330.000009
31
0.0
0
LINE
8
Layer 1
62
4
5
1c1
100
AcDbEntity
100
AcDbLine
10
49.999999
20
360.000011
30
0.0
11
100.000000
21
360.000011
31
0.0
0
LINE
8
Layer 1
62
4
5
1c2
100
AcDbEntity
100
AcDbLine
10
100.000000
20
360.000011
30
0.0
11
100.000000
21
362.000010
31
0.0
0
LINE
8
Layer 1
62
4
5
1c3
100
AcDbEntity
100
AcDbLine
10
100.000000
20
362.000010
30
0.0
11
49.999999
21
362.000013
31
0.0
0
LINE
8
Layer 1
62
4
5
1c4
100
AcDbEntity
100
AcDbLine
10
49.999999
20
362.000013
30
0.0
11
49.999999
21
360.000011
31
0.0
0
LINE
8
Layer 1
62
4
5
1c5
100
AcDbEntity
100
AcDbLine
10
49.999999
20
360.000011
30
0.0
11
49.999999
21
360.000011
31
0.0
0
LINE
8
Layer 1
62
4
5
1c6
100
AcDbEntity
100
AcDbLine
10
69.999931
20
382.003187
30
0.0
11
69.999931
21
377.999159
31
0.0
0
LINE
8
Layer 1
62
4
5
1c7
100
AcDbEntity
100
AcDbLine
10
69.999931
20
377.999159
30
0.0
11
49.997431
21
377.999159
31
0.0
0
LINE
8
Layer 1
62
4
5
1c8
100
AcDbEntity
100
AcDbLine
10
49.997431
20
377.999159
30
0.0
11
49.997431
21
369.999923
31
0.0
0
LINE
8
Layer 1
62
4
5
1c9
100
AcDbEntity
100
AcDbLine
10
49.997431
20
369.999923
30
0.0
11
46.002222
21
369.999923
31
0.0
0
LINE
8
Layer 1
62
4
5
1ca
100
AcDbEntity
100
AcDbLine
10
46.002222
20
369.999923
30
0.0
11
46.002222
21
362.000687
31
0.0
0
LINE
8
Layer 1
62
4
5
1cb
100
AcDbEntity
100
AcDbLine
10
46.002222
20
362.000687
30
0.0
11
49.997431
21
362.000687
31
0.0
0
LINE
8
Layer 1
62
4
5
1cc
100
AcDbEntity
100
AcDbLine
10
49.997431
20
362.000687
30
0.0
11
49.997431
21
354.001451
31
0.0
0
LINE
8
Layer 1
62
4
5
1cd
100
AcDbEntity
100
AcDbLine
10
49.997431
20
354.001451
30
0.0
11
46.002222
21
354.001451
31
0.0
0
LINE
8
Layer 1
62
4
5
1ce
100
AcDbEntity
100
AcDbLine
10
46.002222
20
354.001451
30
0.0
11
46.002222
21
346.002215
31
0.0
0
LINE
8
Layer 1
62
4
5
1cf
100
AcDbEntity
100
AcDbLine
10
46.002222
20
346.002215
30
0.0
11
49.997431
21
346.002215
31
0.0
0
LINE
8
Layer 1
62
4
5
1d0
100
AcDbEntity
100
AcDbLine
10
49.997431
20
346.002215
30
0.0
11
49.997431
21
341.998187
31
0.0
0
LINE
8
Layer 1
62
4
5
1d1
100
AcDbEntity
100
AcDbLine
10
49.997431
20
341.998187
30
0.0
11
54.998056
21
351.002840
31
0.0
0
LINE
8
Layer 1
62
4
5
1d2
100
AcDbEntity
100
AcDbLine
10
54.998056
20
351.002840
30
0.0
11
54.998056
21
359.998673
31
0.0
0
LINE
8
Layer 1
62
4
5
1d3
100
AcDbEntity
100
AcDbLine
10
54.998056
20
359.998673
30
0.0
11
70.996528
21
359.998673
31
0.0
0
LINE
8
Layer 1
62
4
5
1d4
100
AcDbEntity
100
AcDbLine
10
70.996528
20
359.998673
30
0.0
11
70.996528
21
351.002840
31
0.0
0
LINE
8
Layer 1
62
4
5
1d5
100
AcDbEntity
100
AcDbLine
10
70.996528
20
351.002840
30
0.0
11
80.001181
21
323.997701
31
0.0
0
LINE
8
Layer 1
62
4
5
1d6
100
AcDbEntity
100
AcDbLine
10
80.001181
20
323.997701
30
0.0
11
80.001181
21
318.000479
31
0.0
0
LINE
8
Layer 1
62
4
5
1d7
100
AcDbEntity
100
AcDbLine
10
80.001181
20
318.000479
30
0.0
11
90.002431
21
318.000479
31
0.0
0
LINE
8
Layer 1
62
4
5
1d8
100
AcDbEntity
100
AcDbLine
10
90.002431
20
318.000479
30
0.0
11
90.002431
21
321.995687
31
0.0
0
LINE
8
Layer 1
62
4
5
1d9
100
AcDbEntity
100
AcDbLine
10
90.002431
20
321.995687
30
0.0
11
108.002917
21
321.995687
31
0.0
0
LINE
8
Layer 1
62
4
5
1da
100
AcDbEntity
100
AcDbLine
10
108.002917
20
321.995687
30
0.0
11
108.002917
21
377.999159
31
0.0
0
LINE
8
Layer 1
62
4
5
1db
100
AcDbEntity
100
AcDbLine
10
108.002917
20
377.999159
30
0.0
11
90.002431
21
377.999159
31
0.0
0
LINE
8
Layer 1
62
4
5
1dc
100
AcDbEntity
100
AcDbLine
10
90.002431
20
377.999159
30
0.0
11
90.002431
21
382.003187
31
0.0
0
LINE
8
Layer 1
62
4
5
1dd
100
AcDbEntity
100
AcDbLine
10
90.002431
20
382.003187
30
0.0
11
69.999931
21
382.003187
31
0.0
0
LINE
8
Layer 1
62
4
5
1de
100
AcDbEntity
100
AcDbLine
10
69.999931
20
382.003187
30
0.0
11
69.999931
21
382.003187
31
0.0
0
LINE
8
Layer 1
62
4
5
1df
100
AcDbEntity
100
AcDbLine
10
49.999996
20
68.000008
30
0.0
11
100.000000
21
68.000008
31
0.0
0
LINE
8
Layer 1
62
4
5
1e0
100
AcDbEntity
100
AcDbLine
10
100.000000
20
68.000008
30
0.0
11
100.000000
21
108.000010
31
0.0
0
LINE
8
Layer 1
62
4
5
1e1
100
AcDbEntity
100
AcDbLine
10
100.000000
20
108.000010
30
0.0
11
49.999996
21
108.000010
31
0.0
0
LINE
8
Layer 1
62
4
5
1e2
100
AcDbEntity
100
AcDbLine
10
49.999996
20
108.000010
30
0.0
11
49.999996
21
68.000008
31
0.0
0
LINE
8
Layer 1
62
4
5
1e3
100
AcDbEntity
100
AcDbLine
10
49.999996
20
68.000008
30
0.0
11
49.999996
21
68.000008
31
0.0
0
LINE
8
Layer 1
62
4
5
1e4
100
AcDbEntity
100
AcDbLine
10
104.000001
20
68.000008
30
0.0
11
104.000001
21
104.000009
31
0.0
0
LINE
8
Layer 1
62
4
5
1e5
100
AcDbEntity
100
AcDbLine
10
104.000001
20
104.000009
30
0.0
11
221.999999
21
104.000009
31
0.0
0
LINE
8
Layer 1
62
4
5
1e6
100
AcDbEntity
100
AcDbLine
10
221.999999
20
104.000009
30
0.0
11
221.999999
21
68.000008
31
0.0
0
LINE
8
Layer 1
62
4
5
1e7
100
AcDbEntity
100
AcDbLine
10
221.999999
20
68.000008
30
0.0
11
104.000001
21
68.000008
31
0.0
0
LINE
8
Layer 1
62
4
5
1e8
100
AcDbEntity
100
AcDbLine
10
104.000001
20
68.000008
30
0.0
11
104.000001
21
68.000008
31
0.0
0
LINE
8
Layer 1
62
4
5
1e9
100
AcDbEntity
100
AcDbLine
10
25.999722
20
111.995895
30
0.0
11
25.999722
21
64.000479
31
0.0
0
LINE
8
Layer 1
62
4
5
1ea
100
AcDbEntity
100
AcDbLine
10
25.999722
20
64.000479
30
0.0
11
49.997431
21
64.000479
31
0.0
0
LINE
8
Layer 1
62
4
5
1eb
100
AcDbEntity
100
AcDbLine
10
49.997431
20
64.000479
30
0.0
11
52.996042
21
64.000479
31
0.0
0
LINE
8
Layer 1
62
4
5
1ec
100
AcDbEntity
100
AcDbLine
10
52.996042
20
64.000479
30
0.0
11
69.999931
21
64.000479
31
0.0
0
LINE
8
Layer 1
62
4
5
1ed
100
AcDbEntity
100
AcDbLine
10
69.999931
20
64.000479
30
0.0
11
69.999931
21
67.995687
31
0.0
0
LINE
8
Layer 1
62
4
5
1ee
100
AcDbEntity
100
AcDbLine
10
69.999931
20
67.995687
30
0.0
11
90.002431
21
67.995687
31
0.0
0
LINE
8
Layer 1
62
4
5
1ef
100
AcDbEntity
100
AcDbLine
10
90.002431
20
67.995687
30
0.0
11
90.002431
21
64.000479
31
0.0
0
LINE
8
Layer 1
62
4
5
1f0
100
AcDbEntity
100
AcDbLine
10
90.002431
20
64.000479
30
0.0
11
109.996111
21
64.000479
31
0.0
0
LINE
8
Layer 1
62
4
5
1f1
100
AcDbEntity
100
AcDbLine
10
109.996111
20
64.000479
30
0.0
11
109.996111
21
67.995687
31
0.0
0
LINE
8
Layer 1
62
4
5
1f2
100
AcDbEntity
100
AcDbLine
10
109.996111
20
67.995687
30
0.0
11
129.998611
21
67.995687
31
0.0
0
LINE
8
Layer 1
62
4
5
1f3
100
AcDbEntity
100
AcDbLine
10
129.998611
20
67.995687
30
0.0
11
129.998611
21
64.000479
31
0.0
0
LINE
8
Layer 1
62
4
5
1f4
100
AcDbEntity
100
AcDbLine
10
129.998611
20
64.000479
30
0.0
11
150.001111
21
64.000479
31
0.0
0
LINE
8
Layer 1
62
4
5
1f5
100
AcDbEntity
100
AcDbLine
10
150.001111
20
64.000479
30
0.0
11
150.001111
21
67.995687
31
0.0
0
LINE
8
Layer 1
62
4
5
1f6
100
AcDbEntity
100
AcDbLine
10
150.001111
20
67.995687
30
0.0
11
170.003611
21
67.995687
31
0.0
0
LINE
8
Layer 1
62
4
5
1f7
100
AcDbEntity
100
AcDbLine
10
170.003611
20
67.995687
30
0.0
11
170.003611
21
64.000479
31
0.0
0
LINE
8
Layer 1
62
4
5
1f8
100
AcDbEntity
100
AcDbLine
10
170.003611
20
64.000479
30
0.0
11
189.997292
21
64.000479
31
0.0
0
LINE
8
Layer 1
62
4
5
1f9
100
AcDbEntity
100
AcDbLine
10
189.997292
20
64.000479
30
0.0
11
189.997292
21
67.995687
31
0.0
0
LINE
8
Layer 1
62
4
5
1fa
100
AcDbEntity
100
AcDbLine
10
189.997292
20
67.995687
30
0.0
11
209.999792
21
67.995687
31
0.0
0
LINE
8
Layer 1
62
4
5
1fb
100
AcDbEntity
100
AcDbLine
10
209.999792
20
67.995687
30
0.0
11
209.999792
21
64.000479
31
0.0
0
LINE
8
Layer 1
62
4
5
1fc
100
AcDbEntity
100
AcDbLine
10
209.999792
20
64.000479
30
0.0
11
220.001042
21
64.000479
31
0.0
0
LINE
8
Layer 1
62
4
5
1fd
100
AcDbEntity
100
AcDbLine
10
220.001042
20
64.000479
30
0.0
11
225.998264
21
64.000479
31
0.0
0
LINE
8
Layer 1
62
4
5
1fe
100
AcDbEntity
100
AcDbLine
10
225.998264
20
64.000479
30
0.0
11
246.000764
21
64.000479
31
0.0
0
LINE
8
Layer 1
62
4
5
1ff
100
AcDbEntity
100
AcDbLine
10
246.000764
20
64.000479
30
0.0
11
246.000764
21
108.000687
31
0.0
0
LINE
8
Layer 1
62
4
5
200
100
AcDbEntity
100
AcDbLine
10
246.000764
20
108.000687
30
0.0
11
225.998264
21
108.000687
31
0.0
0
LINE
8
Layer 1
62
4
5
201
100
AcDbEntity
100
AcDbLine
10
225.998264
20
108.000687
30
0.0
11
220.001042
21
108.000687
31
0.0
0
LINE
8
Layer 1
62
4
5
202
100
AcDbEntity
100
AcDbLine
10
220.001042
20
108.000687
30
0.0
11
209.999792
21
108.000687
31
0.0
0
LINE
8
Layer 1
62
4
5
203
100
AcDbEntity
100
AcDbLine
10
209.999792
20
108.000687
30
0.0
11
209.999792
21
103.996659
31
0.0
0
LINE
8
Layer 1
62
4
5
204
100
AcDbEntity
100
AcDbLine
10
209.999792
20
103.996659
30
0.0
11
189.997292
21
103.996659
31
0.0
0
LINE
8
Layer 1
62
4
5
205
100
AcDbEntity
100
AcDbLine
10
189.997292
20
103.996659
30
0.0
11
189.997292
21
108.000687
31
0.0
0
LINE
8
Layer 1
62
4
5
206
100
AcDbEntity
100
AcDbLine
10
189.997292
20
108.000687
30
0.0
11
170.003611
21
108.000687
31
0.0
0
LINE
8
Layer 1
62
4
5
207
100
AcDbEntity
100
AcDbLine
10
170.003611
20
108.000687
30
0.0
11
170.003611
21
103.996659
31
0.0
0
LINE
8
Layer 1
62
4
5
208
100
AcDbEntity
100
AcDbLine
10
170.003611
20
103.996659
30
0.0
11
150.001111
21
103.996659
31
0.0
0
LINE
8
Layer 1
62
4
5
209
100
AcDbEntity
100
AcDbLine
10
150.001111
20
103.996659
30
0.0
11
150.001111
21
108.000687
31
0.0
0
LINE
8
Layer 1
62
4
5
20a
100
AcDbEntity
100
AcDbLine
10
150.001111
20
108.000687
30
0.0
11
129.998611
21
108.000687
31
0.0
0
LINE
8
Layer 1
62
4
5
20b
100
AcDbEntity
100
AcDbLine
10
129.998611
20
108.000687
30
0.0
11
129.998611
21
103.996659
31
0.0
0
LINE
8
Layer 1
62
4
5
20c
100
AcDbEntity
100
AcDbLine
10
129.998611
20
103.996659
30
0.0
11
109.996111
21
103.996659
31
0.0
0
LINE
8
Layer 1
62
4
5
20d
100
AcDbEntity
100
AcDbLine
10
109.996111
20
103.996659
30
0.0
11
109.996111
21
108.000687
31
0.0
0
LINE
8
Layer 1
62
4
5
20e
100
AcDbEntity
100
AcDbLine
10
109.996111
20
108.000687
30
0.0
11
103.998889
21
108.000687
31
0.0
0
LINE
8
Layer 1
62
4
5
20f
100
AcDbEntity
100
AcDbLine
10
103.998889
20
108.000687
30
0.0
11
103.998889
21
111.995895
31
0.0
0
LINE
8
Layer 1
62
4
5
210
100
AcDbEntity
100
AcDbLine
10
103.998889
20
111.995895
30
0.0
11
90.002431
21
111.995895
31
0.0
0
LINE
8
Layer 1
62
4
5
211
100
AcDbEntity
100
AcDbLine
10
90.002431
20
111.995895
30
0.0
11
90.002431
21
108.000687
31
0.0
0
LINE
8
Layer 1
62
4
5
212
100
AcDbEntity
100
AcDbLine
10
90.002431
20
108.000687
30
0.0
11
69.999931
21
108.000687
31
0.0
0
LINE
8
Layer 1
62
4
5
213
100
AcDbEntity
100
AcDbLine
10
69.999931
20
108.000687
30
0.0
11
69.999931
21
111.995895
31
0.0
0
LINE
8
Layer 1
62
4
5
214
100
AcDbEntity
100
AcDbLine
10
69.999931
20
111.995895
30
0.0
11
52.996042
21
111.995895
31
0.0
0
LINE
8
Layer 1
62
4
5
215
100
AcDbEntity
100
AcDbLine
10
52.996042
20
111.995895
30
0.0
11
49.997431
21
111.995895
31
0.0
0
LINE
8
Layer 1
62
4
5
216
100
AcDbEntity
100
AcDbLine
10
49.997431
20
111.995895
30
0.0
11
25.999722
21
111.995895
31
0.0
0
LINE
8
Layer 1
62
4
5
217
100
AcDbEntity
100
AcDbLine
10
25.999722
20
111.995895
30
0.0
11
25.999722
21
111.995895
31
0.0
0
LINE
8
Layer 1
62
4
5
218
100
AcDbEntity
100
AcDbLine
10
46.000001
20
94.000010
30
0.0
11
49.999999
21
94.000010
31
0.0
0
LINE
8
Layer 1
62
4
5
219
100
AcDbEntity
100
AcDbLine
10
49.999999
20
94.000010
30
0.0
11
49.999999
21
104.000009
31
0.0
0
LINE
8
Layer 1
62
4
5
21a
100
AcDbEntity
100
AcDbLine
10
49.999999
20
104.000009
30
0.0
11
46.000001
21
104.000009
31
0.0
0
LINE
8
Layer 1
62
4
5
21b
100
AcDbEntity
100
AcDbLine
10
46.000001
20
104.000009
30
0.0
11
46.000001
21
94.000010
31
0.0
0
LINE
8
Layer 1
62
4
5
21c
100
AcDbEntity
100
AcDbLine
10
46.000001
20
94.000010
30
0.0
11
46.000001
21
94.000010
31
0.0
0
LINE
8
Layer 1
62
4
5
21d
100
AcDbEntity
100
AcDbLine
10
49.999999
20
84.000010
30
0.0
11
46.000001
21
84.000010
31
0.0
0
LINE
8
Layer 1
62
4
5
21e
100
AcDbEntity
100
AcDbLine
10
46.000001
20
84.000010
30
0.0
11
46.000001
21
74.000010
31
0.0
0
LINE
8
Layer 1
62
4
5
21f
100
AcDbEntity
100
AcDbLine
10
46.000001
20
74.000010
30
0.0
11
49.999999
21
74.000010
31
0.0
0
LINE
8
Layer 1
62
4
5
220
100
AcDbEntity
100
AcDbLine
10
49.999999
20
74.000010
30
0.0
11
49.999999
21
84.000010
31
0.0
0
LINE
8
Layer 1
62
4
5
221
100
AcDbEntity
100
AcDbLine
10
49.999999
20
84.000010
30
0.0
11
49.999999
21
84.000010
31
0.0
0
LINE
8
Layer 1
62
4
5
222
100
AcDbEntity
100
AcDbLine
10
221.999999
20
74.000010
30
0.0
11
226.000000
21
74.000010
31
0.0
0
LINE
8
Layer 1
62
4
5
223
100
AcDbEntity
100
AcDbLine
10
226.000000
20
74.000010
30
0.0
11
226.000000
21
84.000010
31
0.0
0
LINE
8
Layer 1
62
4
5
224
100
AcDbEntity
100
AcDbLine
10
226.000000
20
84.000010
30
0.0
11
221.999999
21
84.000010
31
0.0
0
LINE
8
Layer 1
62
4
5
225
100
AcDbEntity
100
AcDbLine
10
221.999999
20
84.000010
30
0.0
11
221.999999
21
74.000010
31
0.0
0
LINE
8
Layer 1
62
4
5
226
100
AcDbEntity
100
AcDbLine
10
221.999999
20
74.000010
30
0.0
11
221.999999
21
74.000010
31
0.0
0
LINE
8
Layer 1
62
4
5
227
100
AcDbEntity
100
AcDbLine
10
221.999999
20
104.000009
30
0.0
11
226.000000
21
104.000009
31
0.0
0
LINE
8
Layer 1
62
4
5
228
100
AcDbEntity
100
AcDbLine
10
226.000000
20
104.000009
30
0.0
11
226.000000
21
94.000010
31
0.0
0
LINE
8
Layer 1
62
4
5
229
100
AcDbEntity
100
AcDbLine
10
226.000000
20
94.000010
30
0.0
11
221.999999
21
94.000010
31
0.0
0
LINE
8
Layer 1
62
4
5
22a
100
AcDbEntity
100
AcDbLine
10
221.999999
20
94.000010
30
0.0
11
221.999999
21
104.000009
31
0.0
0
LINE
8
Layer 1
62
4
5
22b
100
AcDbEntity
100
AcDbLine
10
221.999999
20
104.000009
30
0.0
11
221.999999
21
104.000009
31
0.0
0
LINE
8
Layer 1
62
4
5
22c
100
AcDbEntity
100
AcDbLine
10
235.999514
20
240.001312
30
0.0
11
235.999514
21
235.997284
31
0.0
0
LINE
8
Layer 1
62
4
5
22d
100
AcDbEntity
100
AcDbLine
10
235.999514
20
235.997284
30
0.0
11
232.004306
21
235.997284
31
0.0
0
LINE
8
Layer 1
62
4
5
22e
100
AcDbEntity
100
AcDbLine
10
232.004306
20
235.997284
30
0.0
11
232.004306
21
225.996034
31
0.0
0
LINE
8
Layer 1
62
4
5
22f
100
AcDbEntity
100
AcDbLine
10
232.004306
20
225.996034
30
0.0
11
235.999514
21
225.996034
31
0.0
0
LINE
8
Layer 1
62
4
5
230
100
AcDbEntity
100
AcDbLine
10
235.999514
20
225.996034
30
0.0
11
235.999514
21
216.003604
31
0.0
0
LINE
8
Layer 1
62
4
5
231
100
AcDbEntity
100
AcDbLine
10
235.999514
20
216.003604
30
0.0
11
232.004306
21
216.003604
31
0.0
0
LINE
8
Layer 1
62
4
5
232
100
AcDbEntity
100
AcDbLine
10
232.004306
20
216.003604
30
0.0
11
232.004306
21
206.002354
31
0.0
0
LINE
8
Layer 1
62
4
5
233
100
AcDbEntity
100
AcDbLine
10
232.004306
20
206.002354
30
0.0
11
235.999514
21
206.002354
31
0.0
0
LINE
8
Layer 1
62
4
5
234
100
AcDbEntity
100
AcDbLine
10
235.999514
20
206.002354
30
0.0
11
235.999514
21
196.001104
31
0.0
0
LINE
8
Layer 1
62
4
5
235
100
AcDbEntity
100
AcDbLine
10
235.999514
20
196.001104
30
0.0
11
243.998750
21
196.001104
31
0.0
0
LINE
8
Layer 1
62
4
5
236
100
AcDbEntity
100
AcDbLine
10
243.998750
20
196.001104
30
0.0
11
243.998750
21
199.996312
31
0.0
0
LINE
8
Layer 1
62
4
5
237
100
AcDbEntity
100
AcDbLine
10
243.998750
20
199.996312
30
0.0
11
251.997986
21
199.996312
31
0.0
0
LINE
8
Layer 1
62
4
5
238
100
AcDbEntity
100
AcDbLine
10
251.997986
20
199.996312
30
0.0
11
251.997986
21
196.001104
31
0.0
0
LINE
8
Layer 1
62
4
5
239
100
AcDbEntity
100
AcDbLine
10
251.997986
20
196.001104
30
0.0
11
259.997222
21
196.001104
31
0.0
0
LINE
8
Layer 1
62
4
5
23a
100
AcDbEntity
100
AcDbLine
10
259.997222
20
196.001104
30
0.0
11
259.997222
21
199.996312
31
0.0
0
LINE
8
Layer 1
62
4
5
23b
100
AcDbEntity
100
AcDbLine
10
259.997222
20
199.996312
30
0.0
11
267.996458
21
199.996312
31
0.0
0
LINE
8
Layer 1
62
4
5
23c
100
AcDbEntity
100
AcDbLine
10
267.996458
20
199.996312
30
0.0
11
267.996458
21
196.001104
31
0.0
0
LINE
8
Layer 1
62
4
5
23d
100
AcDbEntity
100
AcDbLine
10
267.996458
20
196.001104
30
0.0
11
275.995694
21
196.001104
31
0.0
0
LINE
8
Layer 1
62
4
5
23e
100
AcDbEntity
100
AcDbLine
10
275.995694
20
196.001104
30
0.0
11
275.995694
21
199.996312
31
0.0
0
LINE
8
Layer 1
62
4
5
23f
100
AcDbEntity
100
AcDbLine
10
275.995694
20
199.996312
30
0.0
11
284.003750
21
199.996312
31
0.0
0
LINE
8
Layer 1
62
4
5
240
100
AcDbEntity
100
AcDbLine
10
284.003750
20
199.996312
30
0.0
11
284.003750
21
196.001104
31
0.0
0
LINE
8
Layer 1
62
4
5
241
100
AcDbEntity
100
AcDbLine
10
284.003750
20
196.001104
30
0.0
11
292.002972
21
196.001104
31
0.0
0
LINE
8
Layer 1
62
4
5
242
100
AcDbEntity
100
AcDbLine
10
292.002972
20
196.001104
30
0.0
11
292.002972
21
199.996312
31
0.0
0
LINE
8
Layer 1
62
4
5
243
100
AcDbEntity
100
AcDbLine
10
292.002972
20
199.996312
30
0.0
11
292.002972
21
206.002354
31
0.0
0
LINE
8
Layer 1
62
4
5
244
100
AcDbEntity
100
AcDbLine
10
292.002972
20
206.002354
30
0.0
11
295.998194
21
206.002354
31
0.0
0
LINE
8
Layer 1
62
4
5
245
100
AcDbEntity
100
AcDbLine
10
295.998194
20
206.002354
30
0.0
11
295.998194
21
216.003604
31
0.0
0
LINE
8
Layer 1
62
4
5
246
100
AcDbEntity
100
AcDbLine
10
295.998194
20
216.003604
30
0.0
11
292.002972
21
216.003604
31
0.0
0
LINE
8
Layer 1
62
4
5
247
100
AcDbEntity
100
AcDbLine
10
292.002972
20
216.003604
30
0.0
11
292.002972
21
225.996034
31
0.0
0
LINE
8
Layer 1
62
4
5
248
100
AcDbEntity
100
AcDbLine
10
292.002972
20
225.996034
30
0.0
11
295.998194
21
225.996034
31
0.0
0
LINE
8
Layer 1
62
4
5
249
100
AcDbEntity
100
AcDbLine
10
295.998194
20
225.996034
30
0.0
11
295.998194
21
235.997284
31
0.0
0
LINE
8
Layer 1
62
4
5
24a
100
AcDbEntity
100
AcDbLine
10
295.998194
20
235.997284
30
0.0
11
292.002972
21
235.997284
31
0.0
0
LINE
8
Layer 1
62
4
5
24b
100
AcDbEntity
100
AcDbLine
10
292.002972
20
235.997284
30
0.0
11
292.002972
21
240.001312
31
0.0
0
LINE
8
Layer 1
62
4
5
24c
100
AcDbEntity
100
AcDbLine
10
292.002972
20
240.001312
30
0.0
11
284.003750
21
240.001312
31
0.0
0
LINE
8
Layer 1
62
4
5
24d
100
AcDbEntity
100
AcDbLine
10
284.003750
20
240.001312
30
0.0
11
284.003750
21
235.997284
31
0.0
0
LINE
8
Layer 1
62
4
5
24e
100
AcDbEntity
100
AcDbLine
10
284.003750
20
235.997284
30
0.0
11
275.995694
21
235.997284
31
0.0
0
LINE
8
Layer 1
62
4
5
24f
100
AcDbEntity
100
AcDbLine
10
275.995694
20
235.997284
30
0.0
11
275.995694
21
240.001312
31
0.0
0
LINE
8
Layer 1
62
4
5
250
100
AcDbEntity
100
AcDbLine
10
275.995694
20
240.001312
30
0.0
11
267.996458
21
240.001312
31
0.0
0
LINE
8
Layer 1
62
4
5
251
100
AcDbEntity
100
AcDbLine
10
267.996458
20
240.001312
30
0.0
11
267.996458
21
235.997284
31
0.0
0
LINE
8
Layer 1
62
4
5
252
100
AcDbEntity
100
AcDbLine
10
267.996458
20
235.997284
30
0.0
11
259.997222
21
235.997284
31
0.0
0
LINE
8
Layer 1
62
4
5
253
100
AcDbEntity
100
AcDbLine
10
259.997222
20
235.997284
30
0.0
11
259.997222
21
240.001312
31
0.0
0
LINE
8
Layer 1
62
4
5
254
100
AcDbEntity
100
AcDbLine
10
259.997222
20
240.001312
30
0.0
11
251.997986
21
240.001312
31
0.0
0
LINE
8
Layer 1
62
4
5
255
100
AcDbEntity
100
AcDbLine
10
251.997986
20
240.001312
30
0.0
11
251.997986
21
235.997284
31
0.0
0
LINE
8
Layer 1
62
4
5
256
100
AcDbEntity
100
AcDbLine
10
251.997986
20
235.997284
30
0.0
11
243.998750
21
235.997284
31
0.0
0
LINE
8
Layer 1
62
4
5
257
100
AcDbEntity
100
AcDbLine
10
243.998750
20
235.997284
30
0.0
11
243.998750
21
240.001312
31
0.0
0
LINE
8
Layer 1
62
4
5
258
100
AcDbEntity
100
AcDbLine
10
243.998750
20
240.001312
30
0.0
11
235.999514
21
240.001312
31
0.0
0
LINE
8
Layer 1
62
4
5
259
100
AcDbEntity
100
AcDbLine
10
235.999514
20
240.001312
30
0.0
11
235.999514
21
240.001312
31
0.0
0
LINE
8
Layer 1
62
4
5
25a
100
AcDbEntity
100
AcDbLine
10
15.998472
20
243.996520
30
0.0
11
15.998472
21
196.001104
31
0.0
0
LINE
8
Layer 1
62
4
5
25b
100
AcDbEntity
100
AcDbLine
10
15.998472
20
196.001104
30
0.0
11
20.002500
21
196.001104
31
0.0
0
LINE
8
Layer 1
62
4
5
25c
100
AcDbEntity
100
AcDbLine
10
20.002500
20
196.001104
30
0.0
11
20.002500
21
199.996312
31
0.0
0
LINE
8
Layer 1
62
4
5
25d
100
AcDbEntity
100
AcDbLine
10
20.002500
20
199.996312
30
0.0
11
28.001736
21
199.996312
31
0.0
0
LINE
8
Layer 1
62
4
5
25e
100
AcDbEntity
100
AcDbLine
10
28.001736
20
199.996312
30
0.0
11
28.001736
21
196.001104
31
0.0
0
LINE
8
Layer 1
62
4
5
25f
100
AcDbEntity
100
AcDbLine
10
28.001736
20
196.001104
30
0.0
11
39.996181
21
196.001104
31
0.0
0
LINE
8
Layer 1
62
4
5
260
100
AcDbEntity
100
AcDbLine
10
39.996181
20
196.001104
30
0.0
11
39.996181
21
206.002354
31
0.0
0
LINE
8
Layer 1
62
4
5
261
100
AcDbEntity
100
AcDbLine
10
39.996181
20
206.002354
30
0.0
11
36.000972
21
206.002354
31
0.0
0
LINE
8
Layer 1
62
4
5
262
100
AcDbEntity
100
AcDbLine
10
36.000972
20
206.002354
30
0.0
11
36.000972
21
216.003604
31
0.0
0
LINE
8
Layer 1
62
4
5
263
100
AcDbEntity
100
AcDbLine
10
36.000972
20
216.003604
30
0.0
11
39.996181
21
216.003604
31
0.0
0
LINE
8
Layer 1
62
4
5
264
100
AcDbEntity
100
AcDbLine
10
39.996181
20
216.003604
30
0.0
11
39.996181
21
225.996034
31
0.0
0
LINE
8
Layer 1
62
4
5
265
100
AcDbEntity
100
AcDbLine
10
39.996181
20
225.996034
30
0.0
11
36.000972
21
225.996034
31
0.0
0
LINE
8
Layer 1
62
4
5
266
100
AcDbEntity
100
AcDbLine
10
36.000972
20
225.996034
30
0.0
11
36.000972
21
235.997284
31
0.0
0
LINE
8
Layer 1
62
4
5
267
100
AcDbEntity
100
AcDbLine
10
36.000972
20
235.997284
30
0.0
11
39.996181
21
235.997284
31
0.0
0
LINE
8
Layer 1
62
4
5
268
100
AcDbEntity
100
AcDbLine
10
39.996181
20
235.997284
30
0.0
11
39.996181
21
243.996520
31
0.0
0
LINE
8
Layer 1
62
4
5
269
100
AcDbEntity
100
AcDbLine
10
39.996181
20
243.996520
30
0.0
11
28.001736
21
243.996520
31
0.0
0
LINE
8
Layer 1
62
4
5
26a
100
AcDbEntity
100
AcDbLine
10
28.001736
20
243.996520
30
0.0
11
28.001736
21
240.001312
31
0.0
0
LINE
8
Layer 1
62
4
5
26b
100
AcDbEntity
100
AcDbLine
10
28.001736
20
240.001312
30
0.0
11
20.002500
21
240.001312
31
0.0
0
LINE
8
Layer 1
62
4
5
26c
100
AcDbEntity
100
AcDbLine
10
20.002500
20
240.001312
30
0.0
11
20.002500
21
243.996520
31
0.0
0
LINE
8
Layer 1
62
4
5
26d
100
AcDbEntity
100
AcDbLine
10
20.002500
20
243.996520
30
0.0
11
15.998472
21
243.996520
31
0.0
0
LINE
8
Layer 1
62
4
5
26e
100
AcDbEntity
100
AcDbLine
10
15.998472
20
243.996520
30
0.0
11
15.998472
21
243.996520
31
0.0
0
LINE
8
Layer 1
62
4
5
26f
100
AcDbEntity
100
AcDbLine
10
55.000000
20
202.000011
30
0.0
11
55.000000
21
232.000010
31
0.0
0
LINE
8
Layer 1
62
4
5
270
100
AcDbEntity
100
AcDbLine
10
55.000000
20
232.000010
30
0.0
11
65.000000
21
232.000010
31
0.0
0
LINE
8
Layer 1
62
4
5
271
100
AcDbEntity
100
AcDbLine
10
65.000000
20
232.000010
30
0.0
11
65.000000
21
202.000011
31
0.0
0
LINE
8
Layer 1
62
4
5
272
100
AcDbEntity
100
AcDbLine
10
65.000000
20
202.000011
30
0.0
11
55.000000
21
202.000011
31
0.0
0
LINE
8
Layer 1
62
4
5
273
100
AcDbEntity
100
AcDbLine
10
55.000000
20
202.000011
30
0.0
11
55.000000
21
202.000011
31
0.0
0
LINE
8
Layer 1
62
4
5
274
100
AcDbEntity
100
AcDbLine
10
90.000001
20
220.000009
30
0.0
11
94.000001
21
220.000009
31
0.0
0
LINE
8
Layer 1
62
4
5
275
100
AcDbEntity
100
AcDbLine
10
94.000001
20
220.000009
30
0.0
11
94.000001
21
224.000009
31
0.0
0
LINE
8
Layer 1
62
4
5
276
100
AcDbEntity
100
AcDbLine
10
94.000001
20
224.000009
30
0.0
11
90.000001
21
224.000009
31
0.0
0
LINE
8
Layer 1
62
4
5
277
100
AcDbEntity
100
AcDbLine
10
90.000001
20
224.000009
30
0.0
11
90.000001
21
220.000009
31
0.0
0
LINE
8
Layer 1
62
4
5
278
100
AcDbEntity
100
AcDbLine
10
90.000001
20
220.000009
30
0.0
11
90.000001
21
220.000009
31
0.0
0
LINE
8
Layer 1
62
4
5
279
100
AcDbEntity
100
AcDbLine
10
90.000001
20
220.000009
30
0.0
11
90.000001
21
220.000009
31
0.0
0
LINE
8
Layer 1
62
4
5
27a
100
AcDbEntity
100
AcDbLine
10
315.073030
20
92.214302
30
0.0
11
315.073002
21
95.214305
31
0.0
0
LINE
8
Layer 1
62
4
5
27b
100
AcDbEntity
100
AcDbLine
10
315.073002
20
95.214305
30
0.0
11
304.073024
21
95.214305
31
0.0
0
LINE
8
Layer 1
62
4
5
27c
100
AcDbEntity
100
AcDbLine
10
304.073024
20
95.214305
30
0.0
11
304.073024
21
86.214303
31
0.0
0
LINE
8
Layer 1
62
4
5
27d
100
AcDbEntity
100
AcDbLine
10
304.073024
20
86.214303
30
0.0
11
315.073030
21
86.214286
31
0.0
0
LINE
8
Layer 1
62
4
5
27e
100
AcDbEntity
100
AcDbLine
10
315.073030
20
86.214286
30
0.0
11
315.073030
21
88.214282
31
0.0
0
LINE
8
Layer 1
62
4
5
27f
100
AcDbEntity
100
AcDbLine
10
315.073030
20
88.214282
30
0.0
11
322.073016
21
88.214302
31
0.0
0
LINE
8
Layer 1
62
4
5
280
100
AcDbEntity
100
AcDbLine
10
322.073016
20
88.214302
30
0.0
11
322.158953
21
87.927193
31
0.0
0
LINE
8
Layer 1
62
4
5
281
100
AcDbEntity
100
AcDbLine
10
322.158953
20
87.927193
30
0.0
11
322.385515
21
87.792428
31
0.0
0
LINE
8
Layer 1
62
4
5
282
100
AcDbEntity
100
AcDbLine
10
322.385515
20
87.792428
30
0.0
11
323.073014
21
87.839301
31
0.0
0
LINE
8
Layer 1
62
4
5
283
100
AcDbEntity
100
AcDbLine
10
323.073014
20
87.839301
30
0.0
11
324.073012
21
88.214282
31
0.0
0
LINE
8
Layer 1
62
4
5
284
100
AcDbEntity
100
AcDbLine
10
324.073012
20
88.214282
30
0.0
11
324.073012
21
92.214302
31
0.0
0
LINE
8
Layer 1
62
4
5
285
100
AcDbEntity
100
AcDbLine
10
324.073012
20
92.214302
30
0.0
11
315.073030
21
92.214302
31
0.0
0
LINE
8
Layer 1
62
4
5
286
100
AcDbEntity
100
AcDbLine
10
315.073030
20
92.214302
30
0.0
11
315.073030
21
92.214302
31
0.0
0
LINE
8
Layer 1
62
4
5
287
100
AcDbEntity
100
AcDbLine
10
315.073030
20
92.214302
30
0.0
11
315.073030
21
92.214302
31
0.0
0
LINE
8
Layer 1
62
4
5
288
100
AcDbEntity
100
AcDbLine
10
166.000001
20
166.000009
30
0.0
11
166.000001
21
162.000009
31
0.0
0
LINE
8
Layer 1
62
4
5
289
100
AcDbEntity
100
AcDbLine
10
166.000001
20
162.000009
30
0.0
11
166.000001
21
158.000009
31
0.0
0
LINE
8
Layer 1
62
4
5
28a
100
AcDbEntity
100
AcDbLine
10
166.000001
20
158.000009
30
0.0
11
162.000001
21
158.000009
31
0.0
0
LINE
8
Layer 1
62
4
5
28b
100
AcDbEntity
100
AcDbLine
10
162.000001
20
158.000009
30
0.0
11
162.000001
21
166.000009
31
0.0
0
LINE
8
Layer 1
62
4
5
28c
100
AcDbEntity
100
AcDbLine
10
162.000001
20
166.000009
30
0.0
11
166.000001
21
166.000009
31
0.0
0
LINE
8
Layer 1
62
4
5
28d
100
AcDbEntity
100
AcDbLine
10
166.000001
20
166.000009
30
0.0
11
166.000001
21
166.000009
31
0.0
0
LINE
8
Layer 1
62
4
5
28e
100
AcDbEntity
100
AcDbLine
10
162.000001
20
262.000009
30
0.0
11
166.000001
21
262.000009
31
0.0
0
LINE
8
Layer 1
62
4
5
28f
100
AcDbEntity
100
AcDbLine
10
166.000001
20
262.000009
30
0.0
11
166.000001
21
270.000010
31
0.0
0
LINE
8
Layer 1
62
4
5
290
100
AcDbEntity
100
AcDbLine
10
166.000001
20
270.000010
30
0.0
11
162.000001
21
270.000010
31
0.0
0
LINE
8
Layer 1
62
4
5
291
100
AcDbEntity
100
AcDbLine
10
162.000001
20
270.000010
30
0.0
11
162.000001
21
262.000009
31
0.0
0
LINE
8
Layer 1
62
4
5
292
100
AcDbEntity
100
AcDbLine
10
162.000001
20
262.000009
30
0.0
11
162.000001
21
262.000009
31
0.0
0
LINE
8
Layer 1
62
4
5
293
100
AcDbEntity
100
AcDbLine
10
252.000001
20
104.000009
30
0.0
11
252.000001
21
108.000010
31
0.0
0
LINE
8
Layer 1
62
4
5
294
100
AcDbEntity
100
AcDbLine
10
252.000001
20
108.000010
30
0.0
11
259.999999
21
108.000010
31
0.0
0
LINE
8
Layer 1
62
4
5
295
100
AcDbEntity
100
AcDbLine
10
259.999999
20
108.000010
30
0.0
11
259.999999
21
104.000009
31
0.0
0
LINE
8
Layer 1
62
4
5
296
100
AcDbEntity
100
AcDbLine
10
259.999999
20
104.000009
30
0.0
11
264.000000
21
104.000009
31
0.0
0
LINE
8
Layer 1
62
4
5
297
100
AcDbEntity
100
AcDbLine
10
264.000000
20
104.000009
30
0.0
11
264.000000
21
68.000011
31
0.0
0
LINE
8
Layer 1
62
4
5
298
100
AcDbEntity
100
AcDbLine
10
264.000000
20
68.000011
30
0.0
11
259.999999
21
68.000011
31
0.0
0
LINE
8
Layer 1
62
4
5
299
100
AcDbEntity
100
AcDbLine
10
259.999999
20
68.000011
30
0.0
11
259.999999
21
64.000010
31
0.0
0
LINE
8
Layer 1
62
4
5
29a
100
AcDbEntity
100
AcDbLine
10
259.999999
20
64.000010
30
0.0
11
252.000001
21
64.000010
31
0.0
0
LINE
8
Layer 1
62
4
5
29b
100
AcDbEntity
100
AcDbLine
10
252.000001
20
64.000010
30
0.0
11
252.000001
21
104.000009
31
0.0
0
LINE
8
Layer 1
62
4
5
29c
100
AcDbEntity
100
AcDbLine
10
252.000001
20
104.000009
30
0.0
11
252.000001
21
104.000009
31
0.0
0
LINE
8
Layer 1
62
4
5
29d
100
AcDbEntity
100
AcDbLine
10
-50.812570
20
353.882551
30
0.0
11
-0.812569
21
353.882551
31
0.0
0
LINE
8
Layer 1
62
4
5
29e
100
AcDbEntity
100
AcDbLine
10
-0.812569
20
353.882551
30
0.0
11
-0.812569
21
355.882550
31
0.0
0
LINE
8
Layer 1
62
4
5
29f
100
AcDbEntity
100
AcDbLine
10
-0.812569
20
355.882550
30
0.0
11
-50.812570
21
355.882552
31
0.0
0
LINE
8
Layer 1
62
4
5
2a0
100
AcDbEntity
100
AcDbLine
10
-50.812570
20
355.882552
30
0.0
11
-50.812570
21
353.882551
31
0.0
0
LINE
8
Layer 1
62
4
5
2a1
100
AcDbEntity
100
AcDbLine
10
-50.812570
20
353.882551
30
0.0
11
-50.812570
21
353.882551
31
0.0
0
LINE
8
Layer 1
62
4
5
2a2
100
AcDbEntity
100
AcDbLine
10
54.009445
20
347.007163
30
0.0
11
49.008820
21
338.011330
31
0.0
0
LINE
8
Layer 1
62
4
5
2a3
100
AcDbEntity
100
AcDbLine
10
49.008820
20
338.011330
30
0.0
11
49.000001
21
338.011330
31
0.0
0
LINE
8
Layer 1
62
4
5
2a4
100
AcDbEntity
100
AcDbLine
10
49.000001
20
338.011330
30
0.0
11
49.000001
21
334.007302
31
0.0
0
LINE
8
Layer 1
62
4
5
2a5
100
AcDbEntity
100
AcDbLine
10
49.000001
20
334.007302
30
0.0
11
45.004792
21
334.007302
31
0.0
0
LINE
8
Layer 1
62
4
5
2a6
100
AcDbEntity
100
AcDbLine
10
45.004792
20
334.007302
30
0.0
11
45.004792
21
326.008065
31
0.0
0
LINE
8
Layer 1
62
4
5
2a7
100
AcDbEntity
100
AcDbLine
10
45.004792
20
326.008065
30
0.0
11
49.000001
21
326.008065
31
0.0
0
LINE
8
Layer 1
62
4
5
2a8
100
AcDbEntity
100
AcDbLine
10
49.000001
20
326.008065
30
0.0
11
49.000001
21
318.000010
31
0.0
0
LINE
8
Layer 1
62
4
5
2a9
100
AcDbEntity
100
AcDbLine
10
49.000001
20
318.000010
30
0.0
11
69.002501
21
318.000010
31
0.0
0
LINE
8
Layer 1
62
4
5
2aa
100
AcDbEntity
100
AcDbLine
10
69.002501
20
318.000010
30
0.0
11
69.002501
21
314.004801
31
0.0
0
LINE
8
Layer 1
62
4
5
2ab
100
AcDbEntity
100
AcDbLine
10
69.002501
20
314.004801
30
0.0
11
79.003751
21
314.004801
31
0.0
0
LINE
8
Layer 1
62
4
5
2ac
100
AcDbEntity
100
AcDbLine
10
79.003751
20
314.004801
30
0.0
11
79.003751
21
320.010843
31
0.0
0
LINE
8
Layer 1
62
4
5
2ad
100
AcDbEntity
100
AcDbLine
10
79.003751
20
320.010843
30
0.0
11
70.007917
21
347.007163
31
0.0
0
LINE
8
Layer 1
62
4
5
2ae
100
AcDbEntity
100
AcDbLine
10
70.007917
20
347.007163
30
0.0
11
54.009445
21
347.007163
31
0.0
0
LINE
8
Layer 1
62
4
5
2af
100
AcDbEntity
100
AcDbLine
10
54.009445
20
347.007163
30
0.0
11
54.009445
21
347.007163
31
0.0
0
LINE
8
Layer 1
62
4
5
2b0
100
AcDbEntity
100
AcDbLine
10
216.000000
20
228.000010
30
0.0
11
216.000000
21
231.000009
31
0.0
0
LINE
8
Layer 1
62
4
5
2b1
100
AcDbEntity
100
AcDbLine
10
216.000000
20
231.000009
30
0.0
11
217.999999
21
231.000009
31
0.0
0
LINE
8
Layer 1
62
4
5
2b2
100
AcDbEntity
100
AcDbLine
10
217.999999
20
231.000009
30
0.0
11
217.999999
21
228.000010
31
0.0
0
LINE
8
Layer 1
62
4
5
2b3
100
AcDbEntity
100
AcDbLine
10
217.999999
20
228.000010
30
0.0
11
216.000000
21
228.000010
31
0.0
0
LINE
8
Layer 1
62
4
5
2b4
100
AcDbEntity
100
AcDbLine
10
216.000000
20
228.000010
30
0.0
11
216.000000
21
228.000010
31
0.0
0
LINE
8
Layer 1
62
4
5
2b5
100
AcDbEntity
100
AcDbLine
10
216.000000
20
212.000011
30
0.0
11
217.999999
21
212.000011
31
0.0
0
LINE
8
Layer 1
62
4
5
2b6
100
AcDbEntity
100
AcDbLine
10
217.999999
20
212.000011
30
0.0
11
217.999999
21
209.000011
31
0.0
0
LINE
8
Layer 1
62
4
5
2b7
100
AcDbEntity
100
AcDbLine
10
217.999999
20
209.000011
30
0.0
11
216.000000
21
209.000011
31
0.0
0
LINE
8
Layer 1
62
4
5
2b8
100
AcDbEntity
100
AcDbLine
10
216.000000
20
209.000011
30
0.0
11
216.000000
21
212.000011
31
0.0
0
LINE
8
Layer 1
62
4
5
2b9
100
AcDbEntity
100
AcDbLine
10
216.000000
20
212.000011
30
0.0
11
216.000000
21
212.000011
31
0.0
0
LINE
8
Layer 1
62
4
5
2ba
100
AcDbEntity
100
AcDbLine
10
240.000000
20
228.000010
30
0.0
11
240.000000
21
231.000009
31
0.0
0
LINE
8
Layer 1
62
4
5
2bb
100
AcDbEntity
100
AcDbLine
10
240.000000
20
231.000009
30
0.0
11
241.999999
21
231.000009
31
0.0
0
LINE
8
Layer 1
62
4
5
2bc
100
AcDbEntity
100
AcDbLine
10
241.999999
20
231.000009
30
0.0
11
241.999999
21
228.000010
31
0.0
0
LINE
8
Layer 1
62
4
5
2bd
100
AcDbEntity
100
AcDbLine
10
241.999999
20
228.000010
30
0.0
11
240.000000
21
228.000010
31
0.0
0
LINE
8
Layer 1
62
4
5
2be
100
AcDbEntity
100
AcDbLine
10
240.000000
20
228.000010
30
0.0
11
240.000000
21
228.000010
31
0.0
0
LINE
8
Layer 1
62
4
5
2bf
100
AcDbEntity
100
AcDbLine
10
240.000000
20
212.000011
30
0.0
11
241.999999
21
212.000011
31
0.0
0
LINE
8
Layer 1
62
4
5
2c0
100
AcDbEntity
100
AcDbLine
10
241.999999
20
212.000011
30
0.0
11
241.999999
21
209.000011
31
0.0
0
LINE
8
Layer 1
62
4
5
2c1
100
AcDbEntity
100
AcDbLine
10
241.999999
20
209.000011
30
0.0
11
240.000000
21
209.000011
31
0.0
0
LINE
8
Layer 1
62
4
5
2c2
100
AcDbEntity
100
AcDbLine
10
240.000000
20
209.000011
30
0.0
11
240.000000
21
212.000011
31
0.0
0
LINE
8
Layer 1
62
4
5
2c3
100
AcDbEntity
100
AcDbLine
10
240.000000
20
212.000011
30
0.0
11
240.000000
21
212.000011
31
0.0
0
LINE
8
Layer 1
62
4
5
2c4
100
AcDbEntity
100
AcDbLine
10
-21.000000
20
243.992928
30
0.0
11
-21.000000
21
235.993692
31
0.0
0
LINE
8
Layer 1
62
4
5
2c5
100
AcDbEntity
100
AcDbLine
10
-21.000000
20
235.993692
30
0.0
11
-24.995208
21
235.993692
31
0.0
0
LINE
8
Layer 1
62
4
5
2c6
100
AcDbEntity
100
AcDbLine
10
-24.995208
20
235.993692
30
0.0
11
-24.995208
21
225.992442
31
0.0
0
LINE
8
Layer 1
62
4
5
2c7
100
AcDbEntity
100
AcDbLine
10
-24.995208
20
225.992442
30
0.0
11
-21.000000
21
225.992442
31
0.0
0
LINE
8
Layer 1
62
4
5
2c8
100
AcDbEntity
100
AcDbLine
10
-21.000000
20
225.992442
30
0.0
11
-21.000000
21
216.000011
31
0.0
0
LINE
8
Layer 1
62
4
5
2c9
100
AcDbEntity
100
AcDbLine
10
-21.000000
20
216.000011
30
0.0
11
-24.995208
21
216.000011
31
0.0
0
LINE
8
Layer 1
62
4
5
2ca
100
AcDbEntity
100
AcDbLine
10
-24.995208
20
216.000011
30
0.0
11
-24.995208
21
205.998761
31
0.0
0
LINE
8
Layer 1
62
4
5
2cb
100
AcDbEntity
100
AcDbLine
10
-24.995208
20
205.998761
30
0.0
11
-21.000000
21
205.998761
31
0.0
0
LINE
8
Layer 1
62
4
5
2cc
100
AcDbEntity
100
AcDbLine
10
-21.000000
20
205.998761
30
0.0
11
-21.000000
21
195.997511
31
0.0
0
LINE
8
Layer 1
62
4
5
2cd
100
AcDbEntity
100
AcDbLine
10
-21.000000
20
195.997511
30
0.0
11
-13.000764
21
195.997511
31
0.0
0
LINE
8
Layer 1
62
4
5
2ce
100
AcDbEntity
100
AcDbLine
10
-13.000764
20
195.997511
30
0.0
11
-13.000764
21
199.992719
31
0.0
0
LINE
8
Layer 1
62
4
5
2cf
100
AcDbEntity
100
AcDbLine
10
-13.000764
20
199.992719
30
0.0
11
-5.001528
21
199.992719
31
0.0
0
LINE
8
Layer 1
62
4
5
2d0
100
AcDbEntity
100
AcDbLine
10
-5.001528
20
199.992719
30
0.0
11
-5.001528
21
195.997511
31
0.0
0
LINE
8
Layer 1
62
4
5
2d1
100
AcDbEntity
100
AcDbLine
10
-5.001528
20
195.997511
30
0.0
11
3.006528
21
195.997511
31
0.0
0
LINE
8
Layer 1
62
4
5
2d2
100
AcDbEntity
100
AcDbLine
10
3.006528
20
195.997511
30
0.0
11
3.006528
21
199.992719
31
0.0
0
LINE
8
Layer 1
62
4
5
2d3
100
AcDbEntity
100
AcDbLine
10
3.006528
20
199.992719
30
0.0
11
7.001736
21
199.992719
31
0.0
0
LINE
8
Layer 1
62
4
5
2d4
100
AcDbEntity
100
AcDbLine
10
7.001736
20
199.992719
30
0.0
11
11.005764
21
199.992719
31
0.0
0
LINE
8
Layer 1
62
4
5
2d5
100
AcDbEntity
100
AcDbLine
10
11.005764
20
199.992719
30
0.0
11
11.005764
21
195.997511
31
0.0
0
LINE
8
Layer 1
62
4
5
2d6
100
AcDbEntity
100
AcDbLine
10
11.005764
20
195.997511
30
0.0
11
15.000972
21
195.997511
31
0.0
0
LINE
8
Layer 1
62
4
5
2d7
100
AcDbEntity
100
AcDbLine
10
15.000972
20
195.997511
30
0.0
11
15.000972
21
243.992928
31
0.0
0
LINE
8
Layer 1
62
4
5
2d8
100
AcDbEntity
100
AcDbLine
10
15.000972
20
243.992928
30
0.0
11
11.005764
21
243.992928
31
0.0
0
LINE
8
Layer 1
62
4
5
2d9
100
AcDbEntity
100
AcDbLine
10
11.005764
20
243.992928
30
0.0
11
11.005764
21
239.997719
31
0.0
0
LINE
8
Layer 1
62
4
5
2da
100
AcDbEntity
100
AcDbLine
10
11.005764
20
239.997719
30
0.0
11
7.001736
21
239.997719
31
0.0
0
LINE
8
Layer 1
62
4
5
2db
100
AcDbEntity
100
AcDbLine
10
7.001736
20
239.997719
30
0.0
11
3.006528
21
239.997719
31
0.0
0
LINE
8
Layer 1
62
4
5
2dc
100
AcDbEntity
100
AcDbLine
10
3.006528
20
239.997719
30
0.0
11
3.006528
21
243.992928
31
0.0
0
LINE
8
Layer 1
62
4
5
2dd
100
AcDbEntity
100
AcDbLine
10
3.006528
20
243.992928
30
0.0
11
-5.001528
21
243.992928
31
0.0
0
LINE
8
Layer 1
62
4
5
2de
100
AcDbEntity
100
AcDbLine
10
-5.001528
20
243.992928
30
0.0
11
-5.001528
21
239.997719
31
0.0
0
LINE
8
Layer 1
62
4
5
2df
100
AcDbEntity
100
AcDbLine
10
-5.001528
20
239.997719
30
0.0
11
-13.000764
21
239.997719
31
0.0
0
LINE
8
Layer 1
62
4
5
2e0
100
AcDbEntity
100
AcDbLine
10
-13.000764
20
239.997719
30
0.0
11
-13.000764
21
243.992928
31
0.0
0
LINE
8
Layer 1
62
4
5
2e1
100
AcDbEntity
100
AcDbLine
10
-13.000764
20
243.992928
30
0.0
11
-21.000000
21
243.992928
31
0.0
0
LINE
8
Layer 1
62
4
5
2e2
100
AcDbEntity
100
AcDbLine
10
-21.000000
20
243.992928
30
0.0
11
-21.000000
21
243.992928
31
0.0
0
LINE
8
Layer 1
62
4
5
2e3
100
AcDbEntity
100
AcDbLine
10
68.997723
20
181.003273
30
0.0
11
68.997723
21
176.999245
31
0.0
0
LINE
8
Layer 1
62
4
5
2e4
100
AcDbEntity
100
AcDbLine
10
68.997723
20
176.999245
30
0.0
11
48.995223
21
176.999245
31
0.0
0
LINE
8
Layer 1
62
4
5
2e5
100
AcDbEntity
100
AcDbLine
10
48.995223
20
176.999245
30
0.0
11
48.995223
21
169.000009
31
0.0
0
LINE
8
Layer 1
62
4
5
2e6
100
AcDbEntity
100
AcDbLine
10
48.995223
20
169.000009
30
0.0
11
45.000000
21
169.000009
31
0.0
0
LINE
8
Layer 1
62
4
5
2e7
100
AcDbEntity
100
AcDbLine
10
45.000000
20
169.000009
30
0.0
11
45.000000
21
161.000773
31
0.0
0
LINE
8
Layer 1
62
4
5
2e8
100
AcDbEntity
100
AcDbLine
10
45.000000
20
161.000773
30
0.0
11
48.995223
21
161.000773
31
0.0
0
LINE
8
Layer 1
62
4
5
2e9
100
AcDbEntity
100
AcDbLine
10
48.995223
20
161.000773
30
0.0
11
48.995223
21
156.996745
31
0.0
0
LINE
8
Layer 1
62
4
5
2ea
100
AcDbEntity
100
AcDbLine
10
48.995223
20
156.996745
30
0.0
11
52.999251
21
156.996745
31
0.0
0
LINE
8
Layer 1
62
4
5
2eb
100
AcDbEntity
100
AcDbLine
10
52.999251
20
156.996745
30
0.0
11
78.998973
21
174.997231
31
0.0
0
LINE
8
Layer 1
62
4
5
2ec
100
AcDbEntity
100
AcDbLine
10
78.998973
20
174.997231
30
0.0
11
78.998973
21
181.003273
31
0.0
0
LINE
8
Layer 1
62
4
5
2ed
100
AcDbEntity
100
AcDbLine
10
78.998973
20
181.003273
30
0.0
11
68.997723
21
181.003273
31
0.0
0
LINE
8
Layer 1
62
4
5
2ee
100
AcDbEntity
100
AcDbLine
10
68.997723
20
181.003273
30
0.0
11
68.997723
21
181.003273
31
0.0
0
LINE
8
Layer 1
62
4
5
2ef
100
AcDbEntity
100
AcDbLine
10
38.000000
20
100.000009
30
0.0
11
37.739259
21
98.995771
31
0.0
0
LINE
8
Layer 1
62
4
5
2f0
100
AcDbEntity
100
AcDbLine
10
37.739259
20
98.995771
30
0.0
11
37.000097
21
98.267679
31
0.0
0
LINE
8
Layer 1
62
4
5
2f1
100
AcDbEntity
100
AcDbLine
10
37.000097
20
98.267679
30
0.0
11
36.000000
21
97.991480
31
0.0
0
LINE
8
Layer 1
62
4
5
2f2
100
AcDbEntity
100
AcDbLine
10
36.000000
20
97.991480
30
0.0
11
34.999903
21
98.267679
31
0.0
0
LINE
8
Layer 1
62
4
5
2f3
100
AcDbEntity
100
AcDbLine
10
34.999903
20
98.267679
30
0.0
11
34.260741
21
98.995771
31
0.0
0
LINE
8
Layer 1
62
4
5
2f4
100
AcDbEntity
100
AcDbLine
10
34.260741
20
98.995771
30
0.0
11
34.000000
21
100.000009
31
0.0
0
LINE
8
Layer 1
62
4
5
2f5
100
AcDbEntity
100
AcDbLine
10
34.000000
20
100.000009
30
0.0
11
34.260741
21
101.004247
31
0.0
0
LINE
8
Layer 1
62
4
5
2f6
100
AcDbEntity
100
AcDbLine
10
34.260741
20
101.004247
30
0.0
11
34.999903
21
101.732340
31
0.0
0
LINE
8
Layer 1
62
4
5
2f7
100
AcDbEntity
100
AcDbLine
10
34.999903
20
101.732340
30
0.0
11
36.000000
21
102.008539
31
0.0
0
LINE
8
Layer 1
62
4
5
2f8
100
AcDbEntity
100
AcDbLine
10
36.000000
20
102.008539
30
0.0
11
37.000097
21
101.732340
31
0.0
0
LINE
8
Layer 1
62
4
5
2f9
100
AcDbEntity
100
AcDbLine
10
37.000097
20
101.732340
30
0.0
11
37.739259
21
101.004247
31
0.0
0
LINE
8
Layer 1
62
4
5
2fa
100
AcDbEntity
100
AcDbLine
10
37.739259
20
101.004247
30
0.0
11
38.000000
21
100.000009
31
0.0
0
LINE
8
Layer 1
62
4
5
2fb
100
AcDbEntity
100
AcDbLine
10
38.000000
20
100.000009
30
0.0
11
38.000000
21
100.000009
31
0.0
0
LINE
8
Layer 1
62
4
5
2fc
100
AcDbEntity
100
AcDbLine
10
38.000000
20
76.000009
30
0.0
11
37.739259
21
74.995771
31
0.0
0
LINE
8
Layer 1
62
4
5
2fd
100
AcDbEntity
100
AcDbLine
10
37.739259
20
74.995771
30
0.0
11
37.000097
21
74.267678
31
0.0
0
LINE
8
Layer 1
62
4
5
2fe
100
AcDbEntity
100
AcDbLine
10
37.000097
20
74.267678
30
0.0
11
36.000000
21
73.991479
31
0.0
0
LINE
8
Layer 1
62
4
5
2ff
100
AcDbEntity
100
AcDbLine
10
36.000000
20
73.991479
30
0.0
11
34.999903
21
74.267678
31
0.0
0
LINE
8
Layer 1
62
4
5
300
100
AcDbEntity
100
AcDbLine
10
34.999903
20
74.267678
30
0.0
11
34.260741
21
74.995771
31
0.0
0
LINE
8
Layer 1
62
4
5
301
100
AcDbEntity
100
AcDbLine
10
34.260741
20
74.995771
30
0.0
11
34.000000
21
76.000009
31
0.0
0
LINE
8
Layer 1
62
4
5
302
100
AcDbEntity
100
AcDbLine
10
34.000000
20
76.000009
30
0.0
11
34.260741
21
77.004247
31
0.0
0
LINE
8
Layer 1
62
4
5
303
100
AcDbEntity
100
AcDbLine
10
34.260741
20
77.004247
30
0.0
11
34.999903
21
77.732340
31
0.0
0
LINE
8
Layer 1
62
4
5
304
100
AcDbEntity
100
AcDbLine
10
34.999903
20
77.732340
30
0.0
11
36.000000
21
78.008538
31
0.0
0
LINE
8
Layer 1
62
4
5
305
100
AcDbEntity
100
AcDbLine
10
36.000000
20
78.008538
30
0.0
11
37.000097
21
77.732340
31
0.0
0
LINE
8
Layer 1
62
4
5
306
100
AcDbEntity
100
AcDbLine
10
37.000097
20
77.732340
30
0.0
11
37.739259
21
77.004247
31
0.0
0
LINE
8
Layer 1
62
4
5
307
100
AcDbEntity
100
AcDbLine
10
37.739259
20
77.004247
30
0.0
11
38.000000
21
76.000009
31
0.0
0
LINE
8
Layer 1
62
4
5
308
100
AcDbEntity
100
AcDbLine
10
38.000000
20
76.000009
30
0.0
11
38.000000
21
76.000009
31
0.0
0
LINE
8
Layer 1
62
4
5
309
100
AcDbEntity
100
AcDbLine
10
237.999999
20
76.000009
30
0.0
11
237.739258
21
74.995771
31
0.0
0
LINE
8
Layer 1
62
4
5
30a
100
AcDbEntity
100
AcDbLine
10
237.739258
20
74.995771
30
0.0
11
237.000096
21
74.267678
31
0.0
0
LINE
8
Layer 1
62
4
5
30b
100
AcDbEntity
100
AcDbLine
10
237.000096
20
74.267678
30
0.0
11
235.999999
21
73.991479
31
0.0
0
LINE
8
Layer 1
62
4
5
30c
100
AcDbEntity
100
AcDbLine
10
235.999999
20
73.991479
30
0.0
11
234.999902
21
74.267678
31
0.0
0
LINE
8
Layer 1
62
4
5
30d
100
AcDbEntity
100
AcDbLine
10
234.999902
20
74.267678
30
0.0
11
234.260740
21
74.995771
31
0.0
0
LINE
8
Layer 1
62
4
5
30e
100
AcDbEntity
100
AcDbLine
10
234.260740
20
74.995771
30
0.0
11
233.999999
21
76.000009
31
0.0
0
LINE
8
Layer 1
62
4
5
30f
100
AcDbEntity
100
AcDbLine
10
233.999999
20
76.000009
30
0.0
11
234.260740
21
77.004247
31
0.0
0
LINE
8
Layer 1
62
4
5
310
100
AcDbEntity
100
AcDbLine
10
234.260740
20
77.004247
30
0.0
11
234.999902
21
77.732340
31
0.0
0
LINE
8
Layer 1
62
4
5
311
100
AcDbEntity
100
AcDbLine
10
234.999902
20
77.732340
30
0.0
11
235.999999
21
78.008538
31
0.0
0
LINE
8
Layer 1
62
4
5
312
100
AcDbEntity
100
AcDbLine
10
235.999999
20
78.008538
30
0.0
11
237.000096
21
77.732340
31
0.0
0
LINE
8
Layer 1
62
4
5
313
100
AcDbEntity
100
AcDbLine
10
237.000096
20
77.732340
30
0.0
11
237.739258
21
77.004247
31
0.0
0
LINE
8
Layer 1
62
4
5
314
100
AcDbEntity
100
AcDbLine
10
237.739258
20
77.004247
30
0.0
11
237.999999
21
76.000009
31
0.0
0
LINE
8
Layer 1
62
4
5
315
100
AcDbEntity
100
AcDbLine
10
237.999999
20
76.000009
30
0.0
11
237.999999
21
76.000009
31
0.0
0
LINE
8
Layer 1
62
4
5
316
100
AcDbEntity
100
AcDbLine
10
237.999999
20
96.000010
30
0.0
11
237.739258
21
94.995772
31
0.0
0
LINE
8
Layer 1
62
4
5
317
100
AcDbEntity
100
AcDbLine
10
237.739258
20
94.995772
30
0.0
11
237.000096
21
94.267679
31
0.0
0
LINE
8
Layer 1
62
4
5
318
100
AcDbEntity
100
AcDbLine
10
237.000096
20
94.267679
30
0.0
11
235.999999
21
93.991480
31
0.0
0
LINE
8
Layer 1
62
4
5
319
100
AcDbEntity
100
AcDbLine
10
235.999999
20
93.991480
30
0.0
11
234.999902
21
94.267679
31
0.0
0
LINE
8
Layer 1
62
4
5
31a
100
AcDbEntity
100
AcDbLine
10
234.999902
20
94.267679
30
0.0
11
234.260740
21
94.995772
31
0.0
0
LINE
8
Layer 1
62
4
5
31b
100
AcDbEntity
100
AcDbLine
10
234.260740
20
94.995772
30
0.0
11
233.999999
21
96.000010
31
0.0
0
LINE
8
Layer 1
62
4
5
31c
100
AcDbEntity
100
AcDbLine
10
233.999999
20
96.000010
30
0.0
11
234.260740
21
97.004247
31
0.0
0
LINE
8
Layer 1
62
4
5
31d
100
AcDbEntity
100
AcDbLine
10
234.260740
20
97.004247
30
0.0
11
234.999902
21
97.732340
31
0.0
0
LINE
8
Layer 1
62
4
5
31e
100
AcDbEntity
100
AcDbLine
10
234.999902
20
97.732340
30
0.0
11
235.999999
21
98.008539
31
0.0
0
LINE
8
Layer 1
62
4
5
31f
100
AcDbEntity
100
AcDbLine
10
235.999999
20
98.008539
30
0.0
11
237.000096
21
97.732340
31
0.0
0
LINE
8
Layer 1
62
4
5
320
100
AcDbEntity
100
AcDbLine
10
237.000096
20
97.732340
30
0.0
11
237.739258
21
97.004247
31
0.0
0
LINE
8
Layer 1
62
4
5
321
100
AcDbEntity
100
AcDbLine
10
237.739258
20
97.004247
30
0.0
11
237.999999
21
96.000010
31
0.0
0
LINE
8
Layer 1
62
4
5
322
100
AcDbEntity
100
AcDbLine
10
237.999999
20
96.000010
30
0.0
11
237.999999
21
96.000010
31
0.0
0
LINE
8
Layer 1
62
4
5
323
100
AcDbEntity
100
AcDbLine
10
104.000001
20
172.000009
30
0.0
11
104.000001
21
168.000008
31
0.0
0
LINE
8
Layer 1
62
4
5
324
100
AcDbEntity
100
AcDbLine
10
104.000001
20
168.000008
30
0.0
11
104.000001
21
164.000008
31
0.0
0
LINE
8
Layer 1
62
4
5
325
100
AcDbEntity
100
AcDbLine
10
104.000001
20
164.000008
30
0.0
11
100.000000
21
164.000008
31
0.0
0
LINE
8
Layer 1
62
4
5
326
100
AcDbEntity
100
AcDbLine
10
100.000000
20
164.000008
30
0.0
11
100.000000
21
172.000009
31
0.0
0
LINE
8
Layer 1
62
4
5
327
100
AcDbEntity
100
AcDbLine
10
100.000000
20
172.000009
30
0.0
11
104.000001
21
172.000009
31
0.0
0
LINE
8
Layer 1
62
4
5
328
100
AcDbEntity
100
AcDbLine
10
104.000001
20
172.000009
30
0.0
11
104.000001
21
172.000009
31
0.0
0
LINE
8
Layer 1
62
4
5
329
100
AcDbEntity
100
AcDbLine
10
104.000001
20
334.000009
30
0.0
11
104.000001
21
330.000009
31
0.0
0
LINE
8
Layer 1
62
4
5
32a
100
AcDbEntity
100
AcDbLine
10
104.000001
20
330.000009
30
0.0
11
104.000001
21
326.000010
31
0.0
0
LINE
8
Layer 1
62
4
5
32b
100
AcDbEntity
100
AcDbLine
10
104.000001
20
326.000010
30
0.0
11
100.000000
21
326.000010
31
0.0
0
LINE
8
Layer 1
62
4
5
32c
100
AcDbEntity
100
AcDbLine
10
100.000000
20
326.000010
30
0.0
11
100.000000
21
334.000009
31
0.0
0
LINE
8
Layer 1
62
4
5
32d
100
AcDbEntity
100
AcDbLine
10
100.000000
20
334.000009
30
0.0
11
104.000001
21
334.000009
31
0.0
0
LINE
8
Layer 1
62
4
5
32e
100
AcDbEntity
100
AcDbLine
10
104.000001
20
334.000009
30
0.0
11
104.000001
21
334.000009
31
0.0
0
LINE
8
Layer 1
62
4
5
32f
100
AcDbEntity
100
AcDbLine
10
265.039684
20
108.048323
30
0.0
11
265.039684
21
112.048324
31
0.0
0
LINE
8
Layer 1
62
4
5
330
100
AcDbEntity
100
AcDbLine
10
265.039684
20
112.048324
30
0.0
11
273.039682
21
112.048324
31
0.0
0
LINE
8
Layer 1
62
4
5
331
100
AcDbEntity
100
AcDbLine
10
273.039682
20
112.048324
30
0.0
11
273.039682
21
108.048323
31
0.0
0
LINE
8
Layer 1
62
4
5
332
100
AcDbEntity
100
AcDbLine
10
273.039682
20
108.048323
30
0.0
11
277.039688
21
108.048323
31
0.0
0
LINE
8
Layer 1
62
4
5
333
100
AcDbEntity
100
AcDbLine
10
277.039688
20
108.048323
30
0.0
11
277.000008
21
68.000011
31
0.0
0
LINE
8
Layer 1
62
4
5
334
100
AcDbEntity
100
AcDbLine
10
277.000008
20
68.000011
30
0.0
11
272.999999
21
68.000011
31
0.0
0
LINE
8
Layer 1
62
4
5
335
100
AcDbEntity
100
AcDbLine
10
272.999999
20
68.000011
30
0.0
11
272.999999
21
64.000010
31
0.0
0
LINE
8
Layer 1
62
4
5
336
100
AcDbEntity
100
AcDbLine
10
272.999999
20
64.000010
30
0.0
11
265.000001
21
64.000010
31
0.0
0
LINE
8
Layer 1
62
4
5
337
100
AcDbEntity
100
AcDbLine
10
265.000001
20
64.000010
30
0.0
11
265.039684
21
108.048323
31
0.0
0
LINE
8
Layer 1
62
4
5
338
100
AcDbEntity
100
AcDbLine
10
265.039684
20
108.048323
30
0.0
11
265.039684
21
108.048323
31
0.0
0
LINE
8
Layer 1
62
4
5
339
100
AcDbEntity
100
AcDbLine
10
67.999999
20
139.000013
30
0.0
11
67.999999
21
143.000010
31
0.0
0
LINE
8
Layer 1
62
4
5
33a
100
AcDbEntity
100
AcDbLine
10
67.999999
20
143.000010
30
0.0
11
68.656249
21
142.914073
31
0.0
0
LINE
8
Layer 1
62
4
5
33b
100
AcDbEntity
100
AcDbLine
10
68.656249
20
142.914073
30
0.0
11
69.124999
21
142.687511
31
0.0
0
LINE
8
Layer 1
62
4
5
33c
100
AcDbEntity
100
AcDbLine
10
69.124999
20
142.687511
30
0.0
11
69.406249
21
142.367198
31
0.0
0
LINE
8
Layer 1
62
4
5
33d
100
AcDbEntity
100
AcDbLine
10
69.406249
20
142.367198
30
0.0
11
69.499999
21
142.000011
31
0.0
0
LINE
8
Layer 1
62
4
5
33e
100
AcDbEntity
100
AcDbLine
10
69.499999
20
142.000011
30
0.0
11
69.406249
21
141.632824
31
0.0
0
LINE
8
Layer 1
62
4
5
33f
100
AcDbEntity
100
AcDbLine
10
69.406249
20
141.632824
30
0.0
11
69.124999
21
141.312511
31
0.0
0
LINE
8
Layer 1
62
4
5
340
100
AcDbEntity
100
AcDbLine
10
69.124999
20
141.312511
30
0.0
11
68.656249
21
141.085949
31
0.0
0
LINE
8
Layer 1
62
4
5
341
100
AcDbEntity
100
AcDbLine
10
68.656249
20
141.085949
30
0.0
11
67.999999
21
141.000012
31
0.0
0
LINE
8
Layer 1
62
4
5
342
100
AcDbEntity
100
AcDbLine
10
70.999999
20
143.000010
30
0.0
11
70.999999
21
139.000013
31
0.0
0
LINE
8
Layer 1
62
4
5
343
100
AcDbEntity
100
AcDbLine
10
70.999999
20
139.000013
30
0.0
11
71.656249
21
139.085950
31
0.0
0
LINE
8
Layer 1
62
4
5
344
100
AcDbEntity
100
AcDbLine
10
71.656249
20
139.085950
30
0.0
11
72.124998
21
139.312513
31
0.0
0
LINE
8
Layer 1
62
4
5
345
100
AcDbEntity
100
AcDbLine
10
72.124998
20
139.312513
30
0.0
11
72.406248
21
139.632825
31
0.0
0
LINE
8
Layer 1
62
4
5
346
100
AcDbEntity
100
AcDbLine
10
72.406248
20
139.632825
30
0.0
11
72.499998
21
140.000012
31
0.0
0
LINE
8
Layer 1
62
4
5
347
100
AcDbEntity
100
AcDbLine
10
72.499998
20
140.000012
30
0.0
11
72.406248
21
140.367199
31
0.0
0
LINE
8
Layer 1
62
4
5
348
100
AcDbEntity
100
AcDbLine
10
72.406248
20
140.367199
30
0.0
11
72.124998
21
140.687512
31
0.0
0
LINE
8
Layer 1
62
4
5
349
100
AcDbEntity
100
AcDbLine
10
72.124998
20
140.687512
30
0.0
11
71.656249
21
140.914074
31
0.0
0
LINE
8
Layer 1
62
4
5
34a
100
AcDbEntity
100
AcDbLine
10
71.656249
20
140.914074
30
0.0
11
70.999999
21
141.000012
31
0.0
0
LINE
8
Layer 1
62
4
5
34b
100
AcDbEntity
100
AcDbLine
10
70.999999
20
141.000012
30
0.0
11
71.656249
21
141.085949
31
0.0
0
LINE
8
Layer 1
62
4
5
34c
100
AcDbEntity
100
AcDbLine
10
71.656249
20
141.085949
30
0.0
11
72.124998
21
141.312511
31
0.0
0
LINE
8
Layer 1
62
4
5
34d
100
AcDbEntity
100
AcDbLine
10
72.124998
20
141.312511
30
0.0
11
72.406248
21
141.632824
31
0.0
0
LINE
8
Layer 1
62
4
5
34e
100
AcDbEntity
100
AcDbLine
10
72.406248
20
141.632824
30
0.0
11
72.499998
21
142.000011
31
0.0
0
LINE
8
Layer 1
62
4
5
34f
100
AcDbEntity
100
AcDbLine
10
72.499998
20
142.000011
30
0.0
11
72.406248
21
142.367198
31
0.0
0
LINE
8
Layer 1
62
4
5
350
100
AcDbEntity
100
AcDbLine
10
72.406248
20
142.367198
30
0.0
11
72.124998
21
142.687511
31
0.0
0
LINE
8
Layer 1
62
4
5
351
100
AcDbEntity
100
AcDbLine
10
72.124998
20
142.687511
30
0.0
11
71.656249
21
142.914073
31
0.0
0
LINE
8
Layer 1
62
4
5
352
100
AcDbEntity
100
AcDbLine
10
71.656249
20
142.914073
30
0.0
11
70.999999
21
143.000010
31
0.0
0
LINE
8
Layer 1
62
4
5
353
100
AcDbEntity
100
AcDbLine
10
70.999999
20
143.000010
30
0.0
11
70.999999
21
143.000010
31
0.0
0
LINE
8
Layer 1
62
4
5
354
100
AcDbEntity
100
AcDbLine
10
79.989683
20
348.544456
30
0.0
11
79.794261
21
347.539994
31
0.0
0
LINE
8
Layer 1
62
4
5
355
100
AcDbEntity
100
AcDbLine
10
79.794261
20
347.539994
30
0.0
11
79.239871
21
346.811682
31
0.0
0
LINE
8
Layer 1
62
4
5
356
100
AcDbEntity
100
AcDbLine
10
79.239871
20
346.811682
30
0.0
11
78.489683
21
346.535394
31
0.0
0
LINE
8
Layer 1
62
4
5
357
100
AcDbEntity
100
AcDbLine
10
78.489683
20
346.535394
30
0.0
11
77.739495
21
346.811682
31
0.0
0
LINE
8
Layer 1
62
4
5
358
100
AcDbEntity
100
AcDbLine
10
77.739495
20
346.811682
30
0.0
11
77.185105
21
347.539994
31
0.0
0
LINE
8
Layer 1
62
4
5
359
100
AcDbEntity
100
AcDbLine
10
77.185105
20
347.539994
30
0.0
11
76.989683
21
348.544456
31
0.0
0
LINE
8
Layer 1
62
4
5
35a
100
AcDbEntity
100
AcDbLine
10
76.989683
20
348.544456
30
0.0
11
77.185105
21
349.548917
31
0.0
0
LINE
8
Layer 1
62
4
5
35b
100
AcDbEntity
100
AcDbLine
10
77.185105
20
349.548917
30
0.0
11
77.739495
21
350.277229
31
0.0
0
LINE
8
Layer 1
62
4
5
35c
100
AcDbEntity
100
AcDbLine
10
77.739495
20
350.277229
30
0.0
11
78.489683
21
350.553517
31
0.0
0
LINE
8
Layer 1
62
4
5
35d
100
AcDbEntity
100
AcDbLine
10
78.489683
20
350.553517
30
0.0
11
79.239871
21
350.277229
31
0.0
0
LINE
8
Layer 1
62
4
5
35e
100
AcDbEntity
100
AcDbLine
10
79.239871
20
350.277229
30
0.0
11
79.794261
21
349.548917
31
0.0
0
LINE
8
Layer 1
62
4
5
35f
100
AcDbEntity
100
AcDbLine
10
79.794261
20
349.548917
30
0.0
11
79.989683
21
348.544456
31
0.0
0
LINE
8
Layer 1
62
4
5
360
100
AcDbEntity
100
AcDbLine
10
79.989683
20
348.544456
30
0.0
11
79.989683
21
348.544456
31
0.0
0
LINE
8
Layer 1
62
4
5
361
100
AcDbEntity
100
AcDbLine
10
82.489681
20
346.544454
30
0.0
11
81.489680
21
350.544455
31
0.0
0
LINE
8
Layer 1
62
4
5
362
100
AcDbEntity
100
AcDbLine
10
81.489680
20
350.544455
30
0.0
11
80.489682
21
346.544454
31
0.0
0
LINE
8
Layer 1
62
4
5
363
100
AcDbEntity
100
AcDbLine
10
80.489682
20
346.544454
30
0.0
11
80.489682
21
346.544454
31
0.0
0
LINE
8
Layer 1
62
4
5
364
100
AcDbEntity
100
AcDbLine
10
83.489681
20
346.544454
30
0.0
11
84.434994
21
346.630392
31
0.0
0
LINE
8
Layer 1
62
4
5
365
100
AcDbEntity
100
AcDbLine
10
84.434994
20
346.630392
30
0.0
11
85.052181
21
346.856954
31
0.0
0
LINE
8
Layer 1
62
4
5
366
100
AcDbEntity
100
AcDbLine
10
85.052181
20
346.856954
30
0.0
11
85.388118
21
347.177267
31
0.0
0
LINE
8
Layer 1
62
4
5
367
100
AcDbEntity
100
AcDbLine
10
85.388118
20
347.177267
30
0.0
11
85.489681
21
347.544455
31
0.0
0
LINE
8
Layer 1
62
4
5
368
100
AcDbEntity
100
AcDbLine
10
85.489681
20
347.544455
30
0.0
11
85.403743
21
347.911643
31
0.0
0
LINE
8
Layer 1
62
4
5
369
100
AcDbEntity
100
AcDbLine
10
85.403743
20
347.911643
30
0.0
11
85.177180
21
348.231955
31
0.0
0
LINE
8
Layer 1
62
4
5
36a
100
AcDbEntity
100
AcDbLine
10
85.177180
20
348.231955
30
0.0
11
84.856867
21
348.458518
31
0.0
0
LINE
8
Layer 1
62
4
5
36b
100
AcDbEntity
100
AcDbLine
10
84.856867
20
348.458518
30
0.0
11
84.489679
21
348.544456
31
0.0
0
LINE
8
Layer 1
62
4
5
36c
100
AcDbEntity
100
AcDbLine
10
84.489679
20
348.544456
30
0.0
11
83.661555
21
348.856956
31
0.0
0
LINE
8
Layer 1
62
4
5
36d
100
AcDbEntity
100
AcDbLine
10
83.661555
20
348.856956
30
0.0
11
83.311946
21
349.177268
31
0.0
0
LINE
8
Layer 1
62
4
5
36e
100
AcDbEntity
100
AcDbLine
10
83.311946
20
349.177268
30
0.0
11
83.114680
21
349.544455
31
0.0
0
LINE
8
Layer 1
62
4
5
36f
100
AcDbEntity
100
AcDbLine
10
83.114680
20
349.544455
30
0.0
11
83.151790
21
349.911642
31
0.0
0
LINE
8
Layer 1
62
4
5
370
100
AcDbEntity
100
AcDbLine
10
83.151790
20
349.911642
30
0.0
11
83.505305
21
350.231955
31
0.0
0
LINE
8
Layer 1
62
4
5
371
100
AcDbEntity
100
AcDbLine
10
83.505305
20
350.231955
30
0.0
11
84.257258
21
350.458517
31
0.0
0
LINE
8
Layer 1
62
4
5
372
100
AcDbEntity
100
AcDbLine
10
84.257258
20
350.458517
30
0.0
11
85.489680
21
350.544455
31
0.0
0
LINE
8
Default
62
4
5
373
100
AcDbEntity
100
AcDbLine
10
81.005553
20
340.295250
30
0.0
11
81.005553
21
344.295247
31
0.0
0
LINE
8
Default
62
4
5
374
100
AcDbEntity
100
AcDbLine
10
81.005553
20
344.295247
30
0.0
11
81.661803
21
344.209310
31
0.0
0
LINE
8
Default
62
4
5
375
100
AcDbEntity
100
AcDbLine
10
81.661803
20
344.209310
30
0.0
11
82.130552
21
343.982748
31
0.0
0
LINE
8
Default
62
4
5
376
100
AcDbEntity
100
AcDbLine
10
82.130552
20
343.982748
30
0.0
11
82.411802
21
343.662435
31
0.0
0
LINE
8
Default
62
4
5
377
100
AcDbEntity
100
AcDbLine
10
82.411802
20
343.662435
30
0.0
11
82.505552
21
343.295248
31
0.0
0
LINE
8
Default
62
4
5
378
100
AcDbEntity
100
AcDbLine
10
82.505552
20
343.295248
30
0.0
11
82.411802
21
342.928061
31
0.0
0
LINE
8
Default
62
4
5
379
100
AcDbEntity
100
AcDbLine
10
82.411802
20
342.928061
30
0.0
11
82.130552
21
342.607748
31
0.0
0
LINE
8
Default
62
4
5
37a
100
AcDbEntity
100
AcDbLine
10
82.130552
20
342.607748
30
0.0
11
81.661803
21
342.381186
31
0.0
0
LINE
8
Default
62
4
5
37b
100
AcDbEntity
100
AcDbLine
10
81.661803
20
342.381186
30
0.0
11
81.005553
21
342.295249
31
0.0
0
LINE
8
Default
62
4
5
37c
100
AcDbEntity
100
AcDbLine
10
84.005553
20
344.295247
30
0.0
11
84.005553
21
340.295250
31
0.0
0
LINE
8
Default
62
4
5
37d
100
AcDbEntity
100
AcDbLine
10
84.005553
20
340.295250
30
0.0
11
84.661802
21
340.381187
31
0.0
0
LINE
8
Default
62
4
5
37e
100
AcDbEntity
100
AcDbLine
10
84.661802
20
340.381187
30
0.0
11
85.130552
21
340.607750
31
0.0
0
LINE
8
Default
62
4
5
37f
100
AcDbEntity
100
AcDbLine
10
85.130552
20
340.607750
30
0.0
11
85.411802
21
340.928062
31
0.0
0
LINE
8
Default
62
4
5
380
100
AcDbEntity
100
AcDbLine
10
85.411802
20
340.928062
30
0.0
11
85.505552
21
341.295249
31
0.0
0
LINE
8
Default
62
4
5
381
100
AcDbEntity
100
AcDbLine
10
85.505552
20
341.295249
30
0.0
11
85.411802
21
341.662436
31
0.0
0
LINE
8
Default
62
4
5
382
100
AcDbEntity
100
AcDbLine
10
85.411802
20
341.662436
30
0.0
11
85.130552
21
341.982749
31
0.0
0
LINE
8
Default
62
4
5
383
100
AcDbEntity
100
AcDbLine
10
85.130552
20
341.982749
30
0.0
11
84.661802
21
342.209311
31
0.0
0
LINE
8
Default
62
4
5
384
100
AcDbEntity
100
AcDbLine
10
84.661802
20
342.209311
30
0.0
11
84.005553
21
342.295249
31
0.0
0
LINE
8
Default
62
4
5
385
100
AcDbEntity
100
AcDbLine
10
84.005553
20
342.295249
30
0.0
11
84.661802
21
342.381186
31
0.0
0
LINE
8
Default
62
4
5
386
100
AcDbEntity
100
AcDbLine
10
84.661802
20
342.381186
30
0.0
11
85.130552
21
342.607748
31
0.0
0
LINE
8
Default
62
4
5
387
100
AcDbEntity
100
AcDbLine
10
85.130552
20
342.607748
30
0.0
11
85.411802
21
342.928061
31
0.0
0
LINE
8
Default
62
4
5
388
100
AcDbEntity
100
AcDbLine
10
85.411802
20
342.928061
30
0.0
11
85.505552
21
343.295248
31
0.0
0
LINE
8
Default
62
4
5
389
100
AcDbEntity
100
AcDbLine
10
85.505552
20
343.295248
30
0.0
11
85.411802
21
343.662435
31
0.0
0
LINE
8
Default
62
4
5
38a
100
AcDbEntity
100
AcDbLine
10
85.411802
20
343.662435
30
0.0
11
85.130552
21
343.982748
31
0.0
0
LINE
8
Default
62
4
5
38b
100
AcDbEntity
100
AcDbLine
10
85.130552
20
343.982748
30
0.0
11
84.661802
21
344.209310
31
0.0
0
LINE
8
Default
62
4
5
38c
100
AcDbEntity
100
AcDbLine
10
84.661802
20
344.209310
30
0.0
11
84.005553
21
344.295247
31
0.0
0
LINE
8
Default
62
4
5
38d
100
AcDbEntity
100
AcDbLine
10
84.005553
20
344.295247
30
0.0
11
84.005553
21
344.295247
31
0.0
0
LINE
8
Default
62
4
5
38e
100
AcDbEntity
100
AcDbLine
10
86.000000
20
345.000010
30
0.0
11
86.656251
21
344.250010
31
0.0
0
LINE
8
Default
62
4
5
38f
100
AcDbEntity
100
AcDbLine
10
86.656251
20
344.250010
30
0.0
11
87.125001
21
343.500010
31
0.0
0
LINE
8
Default
62
4
5
390
100
AcDbEntity
100
AcDbLine
10
87.125001
20
343.500010
30
0.0
11
87.406251
21
342.750010
31
0.0
0
LINE
8
Default
62
4
5
391
100
AcDbEntity
100
AcDbLine
10
87.406251
20
342.750010
30
0.0
11
87.500001
21
342.000010
31
0.0
0
LINE
8
Default
62
4
5
392
100
AcDbEntity
100
AcDbLine
10
87.500001
20
342.000010
30
0.0
11
87.406251
21
341.250010
31
0.0
0
LINE
8
Default
62
4
5
393
100
AcDbEntity
100
AcDbLine
10
87.406251
20
341.250010
30
0.0
11
87.125001
21
340.500010
31
0.0
0
LINE
8
Default
62
4
5
394
100
AcDbEntity
100
AcDbLine
10
87.125001
20
340.500010
30
0.0
11
86.656251
21
339.750010
31
0.0
0
LINE
8
Default
62
4
5
395
100
AcDbEntity
100
AcDbLine
10
86.656251
20
339.750010
30
0.0
11
86.000000
21
339.000011
31
0.0
0
LINE
8
Default
62
4
5
396
100
AcDbEntity
100
AcDbLine
10
86.000000
20
339.000011
30
0.0
11
86.000000
21
339.000011
31
0.0
0
LINE
8
Default
62
4
5
397
100
AcDbEntity
100
AcDbLine
10
86.000000
20
339.000011
30
0.0
11
86.000000
21
339.000011
31
0.0
0
LINE
8
Default
62
4
5
398
100
AcDbEntity
100
AcDbLine
10
80.000001
20
345.000010
30
0.0
11
79.343750
21
344.250010
31
0.0
0
LINE
8
Default
62
4
5
399
100
AcDbEntity
100
AcDbLine
10
79.343750
20
344.250010
30
0.0
11
78.875000
21
343.500010
31
0.0
0
LINE
8
Default
62
4
5
39a
100
AcDbEntity
100
AcDbLine
10
78.875000
20
343.500010
30
0.0
11
78.593750
21
342.750010
31
0.0
0
LINE
8
Default
62
4
5
39b
100
AcDbEntity
100
AcDbLine
10
78.593750
20
342.750010
30
0.0
11
78.500000
21
342.000010
31
0.0
0
LINE
8
Default
62
4
5
39c
100
AcDbEntity
100
AcDbLine
10
78.500000
20
342.000010
30
0.0
11
78.593750
21
341.250010
31
0.0
0
LINE
8
Default
62
4
5
39d
100
AcDbEntity
100
AcDbLine
10
78.593750
20
341.250010
30
0.0
11
78.875000
21
340.500010
31
0.0
0
LINE
8
Default
62
4
5
39e
100
AcDbEntity
100
AcDbLine
10
78.875000
20
340.500010
30
0.0
11
79.343750
21
339.750010
31
0.0
0
LINE
8
Default
62
4
5
39f
100
AcDbEntity
100
AcDbLine
10
79.343750
20
339.750010
30
0.0
11
80.000001
21
339.000011
31
0.0
0
LINE
8
Default
62
4
5
3a0
100
AcDbEntity
100
AcDbLine
10
80.000001
20
339.000011
30
0.0
11
80.000001
21
339.000011
31
0.0
0
LINE
8
Default
62
4
5
3a1
100
AcDbEntity
100
AcDbLine
10
80.000001
20
339.000011
30
0.0
11
80.000001
21
339.000011
31
0.0
0
LINE
8
Default
62
4
5
3a2
100
AcDbEntity
100
AcDbLine
10
89.500024
20
231.946811
30
0.0
11
89.695446
21
232.951273
31
0.0
0
LINE
8
Default
62
4
5
3a3
100
AcDbEntity
100
AcDbLine
10
89.695446
20
232.951273
30
0.0
11
90.249836
21
233.679585
31
0.0
0
LINE
8
Default
62
4
5
3a4
100
AcDbEntity
100
AcDbLine
10
90.249836
20
233.679585
30
0.0
11
91.000024
21
233.955873
31
0.0
0
LINE
8
Default
62
4
5
3a5
100
AcDbEntity
100
AcDbLine
10
91.000024
20
233.955873
30
0.0
11
91.750212
21
233.679585
31
0.0
0
LINE
8
Default
62
4
5
3a6
100
AcDbEntity
100
AcDbLine
10
91.750212
20
233.679585
30
0.0
11
92.304602
21
232.951273
31
0.0
0
LINE
8
Default
62
4
5
3a7
100
AcDbEntity
100
AcDbLine
10
92.304602
20
232.951273
30
0.0
11
92.500024
21
231.946811
31
0.0
0
LINE
8
Default
62
4
5
3a8
100
AcDbEntity
100
AcDbLine
10
92.500024
20
231.946811
30
0.0
11
92.304602
21
230.942350
31
0.0
0
LINE
8
Default
62
4
5
3a9
100
AcDbEntity
100
AcDbLine
10
92.304602
20
230.942350
30
0.0
11
91.750212
21
230.214038
31
0.0
0
LINE
8
Default
62
4
5
3aa
100
AcDbEntity
100
AcDbLine
10
91.750212
20
230.214038
30
0.0
11
91.000024
21
229.937750
31
0.0
0
LINE
8
Default
62
4
5
3ab
100
AcDbEntity
100
AcDbLine
10
91.000024
20
229.937750
30
0.0
11
90.249836
21
230.214038
31
0.0
0
LINE
8
Default
62
4
5
3ac
100
AcDbEntity
100
AcDbLine
10
90.249836
20
230.214038
30
0.0
11
89.695446
21
230.942350
31
0.0
0
LINE
8
Default
62
4
5
3ad
100
AcDbEntity
100
AcDbLine
10
89.695446
20
230.942350
30
0.0
11
89.500024
21
231.946811
31
0.0
0
LINE
8
Default
62
4
5
3ae
100
AcDbEntity
100
AcDbLine
10
89.500024
20
231.946811
30
0.0
11
89.500024
21
231.946811
31
0.0
0
LINE
8
Default
62
4
5
3af
100
AcDbEntity
100
AcDbLine
10
87.000007
20
233.946813
30
0.0
11
88.000007
21
229.946812
31
0.0
0
LINE
8
Default
62
4
5
3b0
100
AcDbEntity
100
AcDbLine
10
88.000007
20
229.946812
30
0.0
11
89.000005
21
233.946813
31
0.0
0
LINE
8
Default
62
4
5
3b1
100
AcDbEntity
100
AcDbLine
10
89.000005
20
233.946813
30
0.0
11
89.000005
21
233.946813
31
0.0
0
LINE
8
Default
62
4
5
3b2
100
AcDbEntity
100
AcDbLine
10
81.000005
20
233.946813
30
0.0
11
80.054692
21
233.860875
31
0.0
0
LINE
8
Default
62
4
5
3b3
100
AcDbEntity
100
AcDbLine
10
80.054692
20
233.860875
30
0.0
11
79.437505
21
233.634313
31
0.0
0
LINE
8
Default
62
4
5
3b4
100
AcDbEntity
100
AcDbLine
10
79.437505
20
233.634313
30
0.0
11
79.101568
21
233.314000
31
0.0
0
LINE
8
Default
62
4
5
3b5
100
AcDbEntity
100
AcDbLine
10
79.101568
20
233.314000
30
0.0
11
79.000005
21
232.946812
31
0.0
0
LINE
8
Default
62
4
5
3b6
100
AcDbEntity
100
AcDbLine
10
79.000005
20
232.946812
30
0.0
11
79.085943
21
232.579624
31
0.0
0
LINE
8
Default
62
4
5
3b7
100
AcDbEntity
100
AcDbLine
10
79.085943
20
232.579624
30
0.0
11
79.312506
21
232.259312
31
0.0
0
LINE
8
Default
62
4
5
3b8
100
AcDbEntity
100
AcDbLine
10
79.312506
20
232.259312
30
0.0
11
79.632819
21
232.032749
31
0.0
0
LINE
8
Default
62
4
5
3b9
100
AcDbEntity
100
AcDbLine
10
79.632819
20
232.032749
30
0.0
11
80.000007
21
231.946811
31
0.0
0
LINE
8
Default
62
4
5
3ba
100
AcDbEntity
100
AcDbLine
10
80.000007
20
231.946811
30
0.0
11
80.828131
21
231.634311
31
0.0
0
LINE
8
Default
62
4
5
3bb
100
AcDbEntity
100
AcDbLine
10
80.828131
20
231.634311
30
0.0
11
81.177740
21
231.313999
31
0.0
0
LINE
8
Default
62
4
5
3bc
100
AcDbEntity
100
AcDbLine
10
81.177740
20
231.313999
30
0.0
11
81.375006
21
230.946812
31
0.0
0
LINE
8
Default
62
4
5
3bd
100
AcDbEntity
100
AcDbLine
10
81.375006
20
230.946812
30
0.0
11
81.337896
21
230.579625
31
0.0
0
LINE
8
Default
62
4
5
3be
100
AcDbEntity
100
AcDbLine
10
81.337896
20
230.579625
30
0.0
11
80.984381
21
230.259312
31
0.0
0
LINE
8
Default
62
4
5
3bf
100
AcDbEntity
100
AcDbLine
10
80.984381
20
230.259312
30
0.0
11
80.232428
21
230.032750
31
0.0
0
LINE
8
Default
62
4
5
3c0
100
AcDbEntity
100
AcDbLine
10
80.232428
20
230.032750
30
0.0
11
79.000006
21
229.946812
31
0.0
0
LINE
8
Default
62
4
5
3c1
100
AcDbEntity
100
AcDbLine
10
84.000001
20
234.000009
30
0.0
11
82.000003
21
234.000009
31
0.0
0
LINE
8
Default
62
4
5
3c2
100
AcDbEntity
100
AcDbLine
10
82.000003
20
234.000009
30
0.0
11
82.000003
21
230.000008
31
0.0
0
LINE
8
Default
62
4
5
3c3
100
AcDbEntity
100
AcDbLine
10
82.000003
20
230.000008
30
0.0
11
84.000001
21
230.000008
31
0.0
0
LINE
8
Default
62
4
5
3c4
100
AcDbEntity
100
AcDbLine
10
83.000003
20
232.000010
30
0.0
11
82.000003
21
232.000010
31
0.0
0
LINE
8
Default
62
4
5
3c5
100
AcDbEntity
100
AcDbLine
10
85.000002
20
230.000008
30
0.0
11
85.000002
21
234.000009
31
0.0
0
LINE
8
Default
62
4
5
3c6
100
AcDbEntity
100
AcDbLine
10
85.000005
20
233.946813
30
0.0
11
85.656255
21
233.878434
31
0.0
0
LINE
8
Default
62
4
5
3c7
100
AcDbEntity
100
AcDbLine
10
85.656255
20
233.878434
30
0.0
11
86.125004
21
233.665067
31
0.0
0
LINE
8
Default
62
4
5
3c8
100
AcDbEntity
100
AcDbLine
10
86.125004
20
233.665067
30
0.0
11
86.406254
21
233.354210
31
0.0
0
LINE
8
Default
62
4
5
3c9
100
AcDbEntity
100
AcDbLine
10
86.406254
20
233.354210
30
0.0
11
86.500004
21
232.993360
31
0.0
0
LINE
8
Default
62
4
5
3ca
100
AcDbEntity
100
AcDbLine
10
86.500004
20
232.993360
30
0.0
11
86.406253
21
232.630017
31
0.0
0
LINE
8
Default
62
4
5
3cb
100
AcDbEntity
100
AcDbLine
10
86.406253
20
232.630017
30
0.0
11
86.125003
21
232.311679
31
0.0
0
LINE
8
Default
62
4
5
3cc
100
AcDbEntity
100
AcDbLine
10
86.125003
20
232.311679
30
0.0
11
85.656253
21
232.085844
31
0.0
0
LINE
8
Default
62
4
5
3cd
100
AcDbEntity
100
AcDbLine
10
85.656253
20
232.085844
30
0.0
11
85.000002
21
232.000010
31
0.0
0
LINE
8
Default
62
4
5
3ce
100
AcDbEntity
100
AcDbLine
10
85.000002
20
232.000010
30
0.0
11
87.000004
21
230.000008
31
0.0
0
LINE
8
Default
62
4
5
3cf
100
AcDbEntity
100
AcDbLine
10
95.000005
20
233.946813
30
0.0
11
94.054692
21
233.860875
31
0.0
0
LINE
8
Default
62
4
5
3d0
100
AcDbEntity
100
AcDbLine
10
94.054692
20
233.860875
30
0.0
11
93.437505
21
233.634313
31
0.0
0
LINE
8
Default
62
4
5
3d1
100
AcDbEntity
100
AcDbLine
10
93.437505
20
233.634313
30
0.0
11
93.101568
21
233.314000
31
0.0
0
LINE
8
Default
62
4
5
3d2
100
AcDbEntity
100
AcDbLine
10
93.101568
20
233.314000
30
0.0
11
93.000006
21
232.946812
31
0.0
0
LINE
8
Default
62
4
5
3d3
100
AcDbEntity
100
AcDbLine
10
93.000006
20
232.946812
30
0.0
11
93.085943
21
232.579624
31
0.0
0
LINE
8
Default
62
4
5
3d4
100
AcDbEntity
100
AcDbLine
10
93.085943
20
232.579624
30
0.0
11
93.312506
21
232.259312
31
0.0
0
LINE
8
Default
62
4
5
3d5
100
AcDbEntity
100
AcDbLine
10
93.312506
20
232.259312
30
0.0
11
93.632819
21
232.032749
31
0.0
0
LINE
8
Default
62
4
5
3d6
100
AcDbEntity
100
AcDbLine
10
93.632819
20
232.032749
30
0.0
11
94.000007
21
231.946811
31
0.0
0
LINE
8
Default
62
4
5
3d7
100
AcDbEntity
100
AcDbLine
10
94.000007
20
231.946811
30
0.0
11
94.828131
21
231.634311
31
0.0
0
LINE
8
Default
62
4
5
3d8
100
AcDbEntity
100
AcDbLine
10
94.828131
20
231.634311
30
0.0
11
95.177740
21
231.313999
31
0.0
0
LINE
8
Default
62
4
5
3d9
100
AcDbEntity
100
AcDbLine
10
95.177740
20
231.313999
30
0.0
11
95.375006
21
230.946812
31
0.0
0
LINE
8
Default
62
4
5
3da
100
AcDbEntity
100
AcDbLine
10
95.375006
20
230.946812
30
0.0
11
95.337896
21
230.579625
31
0.0
0
LINE
8
Default
62
4
5
3db
100
AcDbEntity
100
AcDbLine
10
95.337896
20
230.579625
30
0.0
11
94.984381
21
230.259312
31
0.0
0
LINE
8
Default
62
4
5
3dc
100
AcDbEntity
100
AcDbLine
10
94.984381
20
230.259312
30
0.0
11
94.232428
21
230.032750
31
0.0
0
LINE
8
Default
62
4
5
3dd
100
AcDbEntity
100
AcDbLine
10
94.232428
20
230.032750
30
0.0
11
93.000006
21
229.946812
31
0.0
0
LINE
8
Default
62
4
5
3de
100
AcDbEntity
100
AcDbLine
10
70.999999
20
218.000010
30
0.0
11
71.999997
21
219.000008
31
0.0
0
LINE
8
Default
62
4
5
3df
100
AcDbEntity
100
AcDbLine
10
71.999997
20
219.000008
30
0.0
11
71.999997
21
215.000010
31
0.0
0
LINE
8
Default
62
4
5
3e0
100
AcDbEntity
100
AcDbLine
10
70.999999
20
215.000010
30
0.0
11
72.999998
21
215.000010
31
0.0
0
LINE
8
Default
62
4
5
3e1
100
AcDbEntity
100
AcDbLine
10
73.999999
20
218.000010
30
0.0
11
74.015624
21
218.578134
31
0.0
0
LINE
8
Default
62
4
5
3e2
100
AcDbEntity
100
AcDbLine
10
74.015624
20
218.578134
30
0.0
11
74.124999
21
218.875008
31
0.0
0
LINE
8
Default
62
4
5
3e3
100
AcDbEntity
100
AcDbLine
10
74.124999
20
218.875008
30
0.0
11
74.421874
21
218.984383
31
0.0
0
LINE
8
Default
62
4
5
3e4
100
AcDbEntity
100
AcDbLine
10
74.421874
20
218.984383
30
0.0
11
75.000000
21
219.000008
31
0.0
0
LINE
8
Default
62
4
5
3e5
100
AcDbEntity
100
AcDbLine
10
75.000000
20
219.000008
30
0.0
11
75.578125
21
218.984383
31
0.0
0
LINE
8
Default
62
4
5
3e6
100
AcDbEntity
100
AcDbLine
10
75.578125
20
218.984383
30
0.0
11
75.875000
21
218.875008
31
0.0
0
LINE
8
Default
62
4
5
3e7
100
AcDbEntity
100
AcDbLine
10
75.875000
20
218.875008
30
0.0
11
75.984375
21
218.578134
31
0.0
0
LINE
8
Default
62
4
5
3e8
100
AcDbEntity
100
AcDbLine
10
75.984375
20
218.578134
30
0.0
11
76.000000
21
218.000010
31
0.0
0
LINE
8
Default
62
4
5
3e9
100
AcDbEntity
100
AcDbLine
10
76.000000
20
218.000010
30
0.0
11
73.999999
21
215.000010
31
0.0
0
LINE
8
Default
62
4
5
3ea
100
AcDbEntity
100
AcDbLine
10
73.999999
20
215.000010
30
0.0
11
76.000000
21
215.000010
31
0.0
0
LINE
8
Default
62
4
5
3eb
100
AcDbEntity
100
AcDbLine
10
77.000001
20
218.000013
30
0.0
11
77.015626
21
218.578137
31
0.0
0
LINE
8
Default
62
4
5
3ec
100
AcDbEntity
100
AcDbLine
10
77.015626
20
218.578137
30
0.0
11
77.125001
21
218.875011
31
0.0
0
LINE
8
Default
62
4
5
3ed
100
AcDbEntity
100
AcDbLine
10
77.125001
20
218.875011
30
0.0
11
77.421875
21
218.984386
31
0.0
0
LINE
8
Default
62
4
5
3ee
100
AcDbEntity
100
AcDbLine
10
77.421875
20
218.984386
30
0.0
11
77.999999
21
219.000011
31
0.0
0
LINE
8
Default
62
4
5
3ef
100
AcDbEntity
100
AcDbLine
10
77.999999
20
219.000011
30
0.0
11
78.578125
21
218.984386
31
0.0
0
LINE
8
Default
62
4
5
3f0
100
AcDbEntity
100
AcDbLine
10
78.578125
20
218.984386
30
0.0
11
78.875000
21
218.875011
31
0.0
0
LINE
8
Default
62
4
5
3f1
100
AcDbEntity
100
AcDbLine
10
78.875000
20
218.875011
30
0.0
11
78.984375
21
218.578137
31
0.0
0
LINE
8
Default
62
4
5
3f2
100
AcDbEntity
100
AcDbLine
10
78.984375
20
218.578137
30
0.0
11
79.000000
21
218.000013
31
0.0
0
LINE
8
Default
62
4
5
3f3
100
AcDbEntity
100
AcDbLine
10
79.000000
20
218.000013
30
0.0
11
77.999999
21
217.000012
31
0.0
0
LINE
8
Default
62
4
5
3f4
100
AcDbEntity
100
AcDbLine
10
77.999999
20
217.000012
30
0.0
11
79.000000
21
216.000011
31
0.0
0
LINE
8
Default
62
4
5
3f5
100
AcDbEntity
100
AcDbLine
10
79.000000
20
216.000011
30
0.0
11
78.984375
21
215.421887
31
0.0
0
LINE
8
Default
62
4
5
3f6
100
AcDbEntity
100
AcDbLine
10
78.984375
20
215.421887
30
0.0
11
78.875000
21
215.125013
31
0.0
0
LINE
8
Default
62
4
5
3f7
100
AcDbEntity
100
AcDbLine
10
78.875000
20
215.125013
30
0.0
11
78.578125
21
215.015638
31
0.0
0
LINE
8
Default
62
4
5
3f8
100
AcDbEntity
100
AcDbLine
10
78.578125
20
215.015638
30
0.0
11
77.999999
21
215.000013
31
0.0
0
LINE
8
Default
62
4
5
3f9
100
AcDbEntity
100
AcDbLine
10
77.999999
20
215.000013
30
0.0
11
77.421875
21
215.015638
31
0.0
0
LINE
8
Default
62
4
5
3fa
100
AcDbEntity
100
AcDbLine
10
77.421875
20
215.015638
30
0.0
11
77.125001
21
215.125013
31
0.0
0
LINE
8
Default
62
4
5
3fb
100
AcDbEntity
100
AcDbLine
10
77.125001
20
215.125013
30
0.0
11
77.015626
21
215.421887
31
0.0
0
LINE
8
Default
62
4
5
3fc
100
AcDbEntity
100
AcDbLine
10
77.015626
20
215.421887
30
0.0
11
77.000001
21
216.000011
31
0.0
0
LINE
8
Default
62
4
5
3fd
100
AcDbEntity
100
AcDbLine
10
80.999999
20
215.000010
30
0.0
11
80.999999
21
219.000011
31
0.0
0
LINE
8
Default
62
4
5
3fe
100
AcDbEntity
100
AcDbLine
10
80.999999
20
219.000011
30
0.0
11
79.999998
21
217.000012
31
0.0
0
LINE
8
Default
62
4
5
3ff
100
AcDbEntity
100
AcDbLine
10
79.999998
20
217.000012
30
0.0
11
82.000000
21
217.000012
31
0.0
0
LINE
8
Default
62
4
5
400
100
AcDbEntity
100
AcDbLine
10
84.999999
20
219.000011
30
0.0
11
83.000001
21
219.000011
31
0.0
0
LINE
8
Default
62
4
5
401
100
AcDbEntity
100
AcDbLine
10
83.000001
20
219.000011
30
0.0
11
83.000001
21
217.000012
31
0.0
0
LINE
8
Default
62
4
5
402
100
AcDbEntity
100
AcDbLine
10
83.000001
20
217.000012
30
0.0
11
84.000001
21
217.000012
31
0.0
0
LINE
8
Default
62
4
5
403
100
AcDbEntity
100
AcDbLine
10
84.000001
20
217.000012
30
0.0
11
84.578125
21
216.984387
31
0.0
0
LINE
8
Default
62
4
5
404
100
AcDbEntity
100
AcDbLine
10
84.578125
20
216.984387
30
0.0
11
84.875000
21
216.875011
31
0.0
0
LINE
8
Default
62
4
5
405
100
AcDbEntity
100
AcDbLine
10
84.875000
20
216.875011
30
0.0
11
84.984374
21
216.578135
31
0.0
0
LINE
8
Default
62
4
5
406
100
AcDbEntity
100
AcDbLine
10
84.984374
20
216.578135
30
0.0
11
84.999999
21
216.000011
31
0.0
0
LINE
8
Default
62
4
5
407
100
AcDbEntity
100
AcDbLine
10
84.999999
20
216.000011
30
0.0
11
84.984374
21
215.421886
31
0.0
0
LINE
8
Default
62
4
5
408
100
AcDbEntity
100
AcDbLine
10
84.984374
20
215.421886
30
0.0
11
84.875000
21
215.125010
31
0.0
0
LINE
8
Default
62
4
5
409
100
AcDbEntity
100
AcDbLine
10
84.875000
20
215.125010
30
0.0
11
84.578125
21
215.015635
31
0.0
0
LINE
8
Default
62
4
5
40a
100
AcDbEntity
100
AcDbLine
10
84.578125
20
215.015635
30
0.0
11
84.000001
21
215.000010
31
0.0
0
LINE
8
Default
62
4
5
40b
100
AcDbEntity
100
AcDbLine
10
84.000001
20
215.000010
30
0.0
11
83.421876
21
215.015635
31
0.0
0
LINE
8
Default
62
4
5
40c
100
AcDbEntity
100
AcDbLine
10
83.421876
20
215.015635
30
0.0
11
83.125001
21
215.125010
31
0.0
0
LINE
8
Default
62
4
5
40d
100
AcDbEntity
100
AcDbLine
10
83.125001
20
215.125010
30
0.0
11
83.015626
21
215.421886
31
0.0
0
LINE
8
Default
62
4
5
40e
100
AcDbEntity
100
AcDbLine
10
83.015626
20
215.421886
30
0.0
11
83.000001
21
216.000011
31
0.0
0
LINE
8
Default
62
4
5
40f
100
AcDbEntity
100
AcDbLine
10
70.000000
20
217.000008
30
0.0
11
69.869573
21
215.995911
31
0.0
0
LINE
8
Default
62
4
5
410
100
AcDbEntity
100
AcDbLine
10
69.869573
20
215.995911
30
0.0
11
69.500000
21
215.267957
31
0.0
0
LINE
8
Default
62
4
5
411
100
AcDbEntity
100
AcDbLine
10
69.500000
20
215.267957
30
0.0
11
69.000000
21
214.991815
31
0.0
0
LINE
8
Default
62
4
5
412
100
AcDbEntity
100
AcDbLine
10
69.000000
20
214.991815
30
0.0
11
68.500000
21
215.267957
31
0.0
0
LINE
8
Default
62
4
5
413
100
AcDbEntity
100
AcDbLine
10
68.500000
20
215.267957
30
0.0
11
68.130427
21
215.995911
31
0.0
0
LINE
8
Default
62
4
5
414
100
AcDbEntity
100
AcDbLine
10
68.130427
20
215.995911
30
0.0
11
68.000001
21
217.000008
31
0.0
0
LINE
8
Default
62
4
5
415
100
AcDbEntity
100
AcDbLine
10
68.000001
20
217.000008
30
0.0
11
68.130427
21
218.004104
31
0.0
0
LINE
8
Default
62
4
5
416
100
AcDbEntity
100
AcDbLine
10
68.130427
20
218.004104
30
0.0
11
68.500001
21
218.732058
31
0.0
0
LINE
8
Default
62
4
5
417
100
AcDbEntity
100
AcDbLine
10
68.500001
20
218.732058
30
0.0
11
69.000001
21
219.008201
31
0.0
0
LINE
8
Default
62
4
5
418
100
AcDbEntity
100
AcDbLine
10
69.000001
20
219.008201
30
0.0
11
69.500001
21
218.732058
31
0.0
0
LINE
8
Default
62
4
5
419
100
AcDbEntity
100
AcDbLine
10
69.500001
20
218.732058
30
0.0
11
69.869574
21
218.004104
31
0.0
0
LINE
8
Default
62
4
5
41a
100
AcDbEntity
100
AcDbLine
10
69.869574
20
218.004104
30
0.0
11
70.000001
21
217.000008
31
0.0
0
LINE
8
Default
62
4
5
41b
100
AcDbEntity
100
AcDbLine
10
70.000001
20
217.000008
30
0.0
11
70.000001
21
217.000008
31
0.0
0
LINE
8
Default
62
4
5
41c
100
AcDbEntity
100
AcDbLine
10
67.999999
20
215.000010
30
0.0
11
70.000001
21
219.000011
31
0.0
0
LINE
8
Default
62
4
5
41d
100
AcDbEntity
100
AcDbLine
10
87.000001
20
215.000010
30
0.0
11
87.000001
21
219.000011
31
0.0
0
LINE
8
Default
62
4
5
41e
100
AcDbEntity
100
AcDbLine
10
87.000001
20
219.000011
30
0.0
11
86.000000
21
217.000012
31
0.0
0
LINE
8
Default
62
4
5
41f
100
AcDbEntity
100
AcDbLine
10
86.000000
20
217.000012
30
0.0
11
88.000002
21
217.000012
31
0.0
0
LINE
8
Default
62
4
5
420
100
AcDbEntity
100
AcDbLine
10
91.000001
20
219.000011
30
0.0
11
89.000003
21
219.000011
31
0.0
0
LINE
8
Default
62
4
5
421
100
AcDbEntity
100
AcDbLine
10
89.000003
20
219.000011
30
0.0
11
89.000003
21
217.000012
31
0.0
0
LINE
8
Default
62
4
5
422
100
AcDbEntity
100
AcDbLine
10
89.000003
20
217.000012
30
0.0
11
90.000003
21
217.000012
31
0.0
0
LINE
8
Default
62
4
5
423
100
AcDbEntity
100
AcDbLine
10
90.000003
20
217.000012
30
0.0
11
90.578127
21
216.984387
31
0.0
0
LINE
8
Default
62
4
5
424
100
AcDbEntity
100
AcDbLine
10
90.578127
20
216.984387
30
0.0
11
90.875002
21
216.875011
31
0.0
0
LINE
8
Default
62
4
5
425
100
AcDbEntity
100
AcDbLine
10
90.875002
20
216.875011
30
0.0
11
90.984376
21
216.578135
31
0.0
0
LINE
8
Default
62
4
5
426
100
AcDbEntity
100
AcDbLine
10
90.984376
20
216.578135
30
0.0
11
91.000001
21
216.000011
31
0.0
0
LINE
8
Default
62
4
5
427
100
AcDbEntity
100
AcDbLine
10
91.000001
20
216.000011
30
0.0
11
90.984376
21
215.421886
31
0.0
0
LINE
8
Default
62
4
5
428
100
AcDbEntity
100
AcDbLine
10
90.984376
20
215.421886
30
0.0
11
90.875002
21
215.125010
31
0.0
0
LINE
8
Default
62
4
5
429
100
AcDbEntity
100
AcDbLine
10
90.875002
20
215.125010
30
0.0
11
90.578127
21
215.015635
31
0.0
0
LINE
8
Default
62
4
5
42a
100
AcDbEntity
100
AcDbLine
10
90.578127
20
215.015635
30
0.0
11
90.000003
21
215.000010
31
0.0
0
LINE
8
Default
62
4
5
42b
100
AcDbEntity
100
AcDbLine
10
90.000003
20
215.000010
30
0.0
11
89.421878
21
215.015635
31
0.0
0
LINE
8
Default
62
4
5
42c
100
AcDbEntity
100
AcDbLine
10
89.421878
20
215.015635
30
0.0
11
89.125003
21
215.125010
31
0.0
0
LINE
8
Default
62
4
5
42d
100
AcDbEntity
100
AcDbLine
10
89.125003
20
215.125010
30
0.0
11
89.015628
21
215.421886
31
0.0
0
LINE
8
Default
62
4
5
42e
100
AcDbEntity
100
AcDbLine
10
89.015628
20
215.421886
30
0.0
11
89.000003
21
216.000011
31
0.0
  0
ENDSEC
  0
SECTION
  2
OBJECTS
  0
DICTIONARY
  5
C
330
0
100
AcDbDictionary
  3
ACAD_GROUP
350
D
  3
ACAD_MLINESTYLE
350
17
  0
DICTIONARY
  5
D
330
C
100
AcDbDictionary
  0
DICTIONARY
  5
1A
330
C
100
AcDbDictionary
  0
DICTIONARY
  5
17
330
C
100
AcDbDictionary
  3
STANDARD
350
18
  0
DICTIONARY
  5
19
330
C
100
AcDbDictionary
  0
ENDSEC
  0
EOF
